<svg width="427" height="472" viewBox="0 0 427 472" fill="none" xmlns="http://www.w3.org/2000/svg">
<rect width="427" height="472" rx="16" fill="#181925"/>
<path d="M108.36 110H106.2L99.74 102.76V110H97.94V95.72H99.74V102.64L106.04 95.72H108.08L101.88 102.66L108.36 110ZM114.123 99.1C115.43 99.1 116.397 99.3867 117.023 99.96C117.65 100.533 117.963 101.447 117.963 102.7V110H116.683L116.343 108.48H116.263C115.957 108.867 115.637 109.193 115.303 109.46C114.983 109.713 114.61 109.9 114.183 110.02C113.77 110.14 113.263 110.2 112.663 110.2C112.023 110.2 111.443 110.087 110.923 109.86C110.417 109.633 110.017 109.287 109.723 108.82C109.43 108.34 109.283 107.74 109.283 107.02C109.283 105.953 109.703 105.133 110.543 104.56C111.383 103.973 112.677 103.653 114.423 103.6L116.243 103.54V102.9C116.243 102.007 116.05 101.387 115.663 101.04C115.277 100.693 114.73 100.52 114.023 100.52C113.463 100.52 112.93 100.607 112.423 100.78C111.917 100.94 111.443 101.127 111.003 101.34L110.463 100.02C110.93 99.7667 111.483 99.5533 112.123 99.38C112.763 99.1933 113.43 99.1 114.123 99.1ZM114.643 104.82C113.31 104.873 112.383 105.087 111.863 105.46C111.357 105.833 111.103 106.36 111.103 107.04C111.103 107.64 111.283 108.08 111.643 108.36C112.017 108.64 112.49 108.78 113.063 108.78C113.97 108.78 114.723 108.533 115.323 108.04C115.923 107.533 116.223 106.76 116.223 105.72V104.76L114.643 104.82ZM128.674 100.76H125.174V110H123.434V100.76H119.974V99.28H128.674V100.76ZM134.731 99.08C135.651 99.08 136.437 99.28 137.091 99.68C137.757 100.08 138.264 100.647 138.611 101.38C138.971 102.1 139.151 102.947 139.151 103.92V104.98H131.811C131.837 106.193 132.144 107.12 132.731 107.76C133.331 108.387 134.164 108.7 135.231 108.7C135.911 108.7 136.511 108.64 137.031 108.52C137.564 108.387 138.111 108.2 138.671 107.96V109.5C138.124 109.74 137.584 109.913 137.051 110.02C136.517 110.14 135.884 110.2 135.151 110.2C134.137 110.2 133.237 109.993 132.451 109.58C131.677 109.167 131.071 108.553 130.631 107.74C130.204 106.913 129.991 105.907 129.991 104.72C129.991 103.547 130.184 102.54 130.571 101.7C130.971 100.86 131.524 100.213 132.231 99.76C132.951 99.3067 133.784 99.08 134.731 99.08ZM134.711 100.52C133.871 100.52 133.204 100.793 132.711 101.34C132.231 101.873 131.944 102.62 131.851 103.58H137.311C137.311 102.967 137.217 102.433 137.031 101.98C136.844 101.527 136.557 101.173 136.171 100.92C135.797 100.653 135.311 100.52 134.711 100.52ZM148.42 99.28V100.76H143.64V110H141.88V99.28H148.42ZM159.657 104.62C159.657 105.513 159.537 106.307 159.297 107C159.07 107.68 158.737 108.26 158.297 108.74C157.87 109.22 157.343 109.587 156.717 109.84C156.103 110.08 155.417 110.2 154.657 110.2C153.95 110.2 153.297 110.08 152.697 109.84C152.097 109.587 151.577 109.22 151.137 108.74C150.697 108.26 150.35 107.68 150.097 107C149.857 106.307 149.737 105.513 149.737 104.62C149.737 103.433 149.937 102.433 150.337 101.62C150.737 100.793 151.31 100.167 152.057 99.74C152.803 99.3 153.69 99.08 154.717 99.08C155.69 99.08 156.543 99.3 157.277 99.74C158.023 100.167 158.603 100.793 159.017 101.62C159.443 102.433 159.657 103.433 159.657 104.62ZM151.557 104.62C151.557 105.46 151.663 106.193 151.877 106.82C152.103 107.433 152.45 107.907 152.917 108.24C153.383 108.573 153.977 108.74 154.697 108.74C155.417 108.74 156.01 108.573 156.477 108.24C156.943 107.907 157.283 107.433 157.497 106.82C157.723 106.193 157.837 105.46 157.837 104.62C157.837 103.767 157.723 103.04 157.497 102.44C157.27 101.84 156.923 101.38 156.457 101.06C156.003 100.727 155.41 100.56 154.677 100.56C153.583 100.56 152.79 100.92 152.297 101.64C151.803 102.36 151.557 103.353 151.557 104.62ZM167.546 99.08C168.866 99.08 169.926 99.54 170.726 100.46C171.539 101.38 171.946 102.767 171.946 104.62C171.946 105.833 171.759 106.86 171.386 107.7C171.026 108.527 170.513 109.153 169.846 109.58C169.193 109.993 168.419 110.2 167.526 110.2C166.979 110.2 166.493 110.127 166.066 109.98C165.639 109.833 165.273 109.647 164.966 109.42C164.673 109.18 164.419 108.92 164.206 108.64H164.086C164.113 108.867 164.139 109.153 164.166 109.5C164.193 109.847 164.206 110.147 164.206 110.4V114.8H162.446V99.28H163.886L164.126 100.74H164.206C164.419 100.433 164.673 100.153 164.966 99.9C165.273 99.6467 165.633 99.4467 166.046 99.3C166.473 99.1533 166.973 99.08 167.546 99.08ZM167.226 100.56C166.506 100.56 165.926 100.7 165.486 100.98C165.046 101.247 164.726 101.653 164.526 102.2C164.326 102.747 164.219 103.44 164.206 104.28V104.62C164.206 105.5 164.299 106.247 164.486 106.86C164.673 107.473 164.986 107.94 165.426 108.26C165.879 108.58 166.493 108.74 167.266 108.74C167.919 108.74 168.453 108.56 168.866 108.2C169.293 107.84 169.606 107.353 169.806 106.74C170.019 106.113 170.126 105.4 170.126 104.6C170.126 103.373 169.886 102.393 169.406 101.66C168.939 100.927 168.213 100.56 167.226 100.56ZM176.411 105.82C176.411 105.94 176.404 106.113 176.391 106.34C176.391 106.553 176.384 106.787 176.371 107.04C176.357 107.28 176.344 107.513 176.331 107.74C176.317 107.953 176.304 108.127 176.291 108.26L182.031 99.28H184.191V110H182.551V103.68C182.551 103.467 182.551 103.187 182.551 102.84C182.564 102.493 182.577 102.153 182.591 101.82C182.604 101.473 182.617 101.213 182.631 101.04L176.931 110H174.751V99.28H176.411V105.82ZM189.262 105.82C189.262 105.94 189.256 106.113 189.242 106.34C189.242 106.553 189.236 106.787 189.222 107.04C189.209 107.28 189.196 107.513 189.182 107.74C189.169 107.953 189.156 108.127 189.142 108.26L194.882 99.28H197.042V110H195.402V103.68C195.402 103.467 195.402 103.187 195.402 102.84C195.416 102.493 195.429 102.153 195.442 101.82C195.456 101.473 195.469 101.213 195.482 101.04L189.782 110H187.602V99.28H189.262V105.82ZM215.169 100.24C215.169 100.947 215.003 101.613 214.669 102.24C214.336 102.867 213.803 103.38 213.069 103.78C212.336 104.167 211.396 104.36 210.249 104.36H207.729V110H205.449V96.1H210.249C211.316 96.1 212.216 96.2867 212.949 96.66C213.696 97.02 214.249 97.5133 214.609 98.14C214.983 98.7667 215.169 99.4667 215.169 100.24ZM210.249 102.5C211.116 102.5 211.763 102.307 212.189 101.92C212.616 101.52 212.829 100.96 212.829 100.24C212.829 98.72 211.969 97.96 210.249 97.96H207.729V102.5H210.249ZM219.604 96.1V104.96C219.604 106.013 219.877 106.807 220.424 107.34C220.984 107.873 221.757 108.14 222.744 108.14C223.744 108.14 224.517 107.873 225.064 107.34C225.624 106.807 225.904 106.013 225.904 104.96V96.1H228.184V104.92C228.184 106.053 227.937 107.013 227.444 107.8C226.95 108.587 226.29 109.173 225.464 109.56C224.637 109.947 223.724 110.14 222.724 110.14C221.724 110.14 220.81 109.947 219.984 109.56C219.17 109.173 218.524 108.587 218.044 107.8C217.564 107.013 217.324 106.053 217.324 104.92V96.1H219.604ZM233.432 96.1V110H231.152V96.1H233.432ZM240.966 96.1C242.446 96.1 243.739 96.3867 244.846 96.96C245.966 97.52 246.826 98.3333 247.426 99.4C248.039 100.453 248.346 101.687 248.346 103.1C248.346 104.513 248.039 105.74 247.426 106.78C246.826 107.82 245.966 108.62 244.846 109.18C243.739 109.727 242.446 110 240.966 110H236.426V96.1H240.966ZM240.966 108.14C242.592 108.14 243.839 107.7 244.706 106.82C245.572 105.94 246.006 104.7 246.006 103.1C246.006 101.487 245.572 100.227 244.706 99.32C243.839 98.4133 242.592 97.96 240.966 97.96H238.706V108.14H240.966Z" fill="#E1E1FF"/>
<g clip-path="url(#clip0_187_101)">
<rect x="96" y="134" width="49" height="37" rx="6" fill="#32354E"/>
<path d="M113.031 161.234C109.312 161.234 107.453 158.422 107.453 152.797C107.453 147.016 109.312 144.125 113.031 144.125C116.75 144.125 118.609 147.016 118.609 152.797C118.609 158.422 116.75 161.234 113.031 161.234ZM113.031 154.355C112.562 154.355 112.184 154.215 111.895 153.934C111.613 153.645 111.473 153.266 111.473 152.797C111.473 152.328 111.613 151.953 111.895 151.672C112.184 151.383 112.562 151.238 113.031 151.238C113.5 151.238 113.875 151.383 114.156 151.672C114.445 151.953 114.59 152.328 114.59 152.797C114.59 153.266 114.445 153.645 114.156 153.934C113.875 154.215 113.5 154.355 113.031 154.355ZM113.031 159.441C115.398 159.441 116.582 157.227 116.582 152.797C116.582 148.211 115.398 145.918 113.031 145.918C110.664 145.918 109.48 148.211 109.48 152.797C109.48 157.227 110.664 159.441 113.031 159.441ZM127.094 161.234C123.375 161.234 121.516 158.422 121.516 152.797C121.516 147.016 123.375 144.125 127.094 144.125C130.812 144.125 132.672 147.016 132.672 152.797C132.672 158.422 130.812 161.234 127.094 161.234ZM127.094 154.355C126.625 154.355 126.246 154.215 125.957 153.934C125.676 153.645 125.535 153.266 125.535 152.797C125.535 152.328 125.676 151.953 125.957 151.672C126.246 151.383 126.625 151.238 127.094 151.238C127.562 151.238 127.938 151.383 128.219 151.672C128.508 151.953 128.652 152.328 128.652 152.797C128.652 153.266 128.508 153.645 128.219 153.934C127.938 154.215 127.562 154.355 127.094 154.355ZM127.094 159.441C129.461 159.441 130.645 157.227 130.645 152.797C130.645 148.211 129.461 145.918 127.094 145.918C124.727 145.918 123.543 148.211 123.543 152.797C123.543 157.227 124.727 159.441 127.094 159.441Z" fill="#E1E1FF"/>
<path d="M162.266 153.594V151.789H173.797V153.594H162.266Z" fill="#E1E1FF"/>
<path d="M207.432 161H205.272V153.008H196.488V161H194.328V143.864H196.488V151.112H205.272V143.864H207.432V161ZM216.797 147.896C217.901 147.896 218.845 148.136 219.629 148.616C220.429 149.096 221.037 149.776 221.453 150.656C221.885 151.52 222.101 152.536 222.101 153.704V154.976H213.293C213.325 156.432 213.693 157.544 214.397 158.312C215.117 159.064 216.117 159.44 217.397 159.44C218.213 159.44 218.933 159.368 219.557 159.224C220.197 159.064 220.853 158.84 221.525 158.552V160.4C220.869 160.688 220.221 160.896 219.581 161.024C218.941 161.168 218.181 161.24 217.301 161.24C216.085 161.24 215.005 160.992 214.061 160.496C213.133 160 212.405 159.264 211.877 158.288C211.365 157.296 211.109 156.088 211.109 154.664C211.109 153.256 211.341 152.048 211.805 151.04C212.285 150.032 212.949 149.256 213.797 148.712C214.661 148.168 215.661 147.896 216.797 147.896ZM216.773 149.624C215.765 149.624 214.965 149.952 214.373 150.608C213.797 151.248 213.453 152.144 213.341 153.296H219.893C219.893 152.56 219.781 151.92 219.557 151.376C219.333 150.832 218.989 150.408 218.525 150.104C218.077 149.784 217.493 149.624 216.773 149.624ZM227.368 155.984C227.368 156.128 227.36 156.336 227.344 156.608C227.344 156.864 227.336 157.144 227.32 157.448C227.304 157.736 227.288 158.016 227.272 158.288C227.256 158.544 227.24 158.752 227.224 158.912L234.112 148.136H236.704V161H234.736V153.416C234.736 153.16 234.736 152.824 234.736 152.408C234.752 151.992 234.768 151.584 234.784 151.184C234.8 150.768 234.816 150.456 234.832 150.248L227.992 161H225.376V148.136H227.368V155.984ZM244.182 147.896C245.158 147.896 246.006 148.032 246.726 148.304C247.446 148.56 248.006 148.944 248.406 149.456C248.806 149.952 249.006 150.56 249.006 151.28C249.006 152.064 248.79 152.688 248.358 153.152C247.926 153.6 247.334 153.928 246.582 154.136V154.232C247.094 154.376 247.566 154.576 247.998 154.832C248.43 155.088 248.774 155.424 249.03 155.84C249.302 156.256 249.438 156.792 249.438 157.448C249.438 158.152 249.238 158.792 248.838 159.368C248.454 159.944 247.854 160.4 247.038 160.736C246.238 161.072 245.206 161.24 243.942 161.24C243.334 161.24 242.75 161.208 242.19 161.144C241.646 161.08 241.15 160.984 240.702 160.856C240.27 160.728 239.886 160.576 239.55 160.4V158.504C240.094 158.76 240.734 158.992 241.47 159.2C242.222 159.408 243.038 159.512 243.918 159.512C244.558 159.512 245.134 159.44 245.646 159.296C246.174 159.152 246.59 158.928 246.894 158.624C247.198 158.304 247.35 157.872 247.35 157.328C247.35 156.832 247.214 156.432 246.942 156.128C246.67 155.808 246.262 155.568 245.718 155.408C245.19 155.248 244.51 155.168 243.678 155.168H241.95V153.44H243.342C244.446 153.44 245.326 153.296 245.982 153.008C246.654 152.704 246.99 152.192 246.99 151.472C246.99 150.864 246.734 150.408 246.222 150.104C245.726 149.8 245.006 149.648 244.062 149.648C243.358 149.648 242.734 149.72 242.19 149.864C241.662 149.992 241.078 150.192 240.438 150.464L239.694 148.784C240.382 148.48 241.102 148.256 241.854 148.112C242.606 147.968 243.382 147.896 244.182 147.896ZM262.907 151.376C262.907 152.176 262.667 152.8 262.187 153.248C261.707 153.696 261.091 154 260.339 154.16V154.256C261.139 154.368 261.835 154.656 262.427 155.12C263.019 155.568 263.315 156.272 263.315 157.232C263.315 157.776 263.211 158.28 263.003 158.744C262.811 159.208 262.507 159.608 262.091 159.944C261.675 160.28 261.139 160.544 260.483 160.736C259.827 160.912 259.035 161 258.107 161H252.563V148.136H258.083C258.995 148.136 259.811 148.24 260.531 148.448C261.267 148.64 261.843 148.976 262.259 149.456C262.691 149.92 262.907 150.56 262.907 151.376ZM261.131 157.232C261.131 156.496 260.851 155.968 260.291 155.648C259.731 155.328 258.907 155.168 257.819 155.168H254.675V159.296H257.867C258.923 159.296 259.731 159.144 260.291 158.84C260.851 158.52 261.131 157.984 261.131 157.232ZM260.771 151.64C260.771 151.032 260.547 150.592 260.099 150.32C259.667 150.032 258.955 149.888 257.963 149.888H254.675V153.416H257.579C258.619 153.416 259.411 153.272 259.955 152.984C260.499 152.696 260.771 152.248 260.771 151.64ZM271.36 147.896C272.464 147.896 273.408 148.136 274.192 148.616C274.992 149.096 275.6 149.776 276.016 150.656C276.448 151.52 276.664 152.536 276.664 153.704V154.976H267.856C267.888 156.432 268.256 157.544 268.96 158.312C269.68 159.064 270.68 159.44 271.96 159.44C272.776 159.44 273.496 159.368 274.12 159.224C274.76 159.064 275.416 158.84 276.088 158.552V160.4C275.432 160.688 274.784 160.896 274.144 161.024C273.504 161.168 272.744 161.24 271.864 161.24C270.648 161.24 269.568 160.992 268.624 160.496C267.696 160 266.968 159.264 266.44 158.288C265.928 157.296 265.672 156.088 265.672 154.664C265.672 153.256 265.904 152.048 266.368 151.04C266.848 150.032 267.512 149.256 268.36 148.712C269.224 148.168 270.224 147.896 271.36 147.896ZM271.336 149.624C270.328 149.624 269.528 149.952 268.936 150.608C268.36 151.248 268.016 152.144 267.904 153.296H274.456C274.456 152.56 274.344 151.92 274.12 151.376C273.896 150.832 273.552 150.408 273.088 150.104C272.64 149.784 272.056 149.624 271.336 149.624ZM285.098 161.24C283.962 161.24 282.946 161.008 282.05 160.544C281.17 160.08 280.474 159.36 279.962 158.384C279.466 157.408 279.218 156.16 279.218 154.64C279.218 153.056 279.482 151.768 280.01 150.776C280.538 149.784 281.25 149.056 282.146 148.592C283.058 148.128 284.09 147.896 285.242 147.896C285.898 147.896 286.53 147.968 287.138 148.112C287.746 148.24 288.242 148.4 288.626 148.592L287.978 150.344C287.594 150.2 287.146 150.064 286.634 149.936C286.122 149.808 285.642 149.744 285.194 149.744C284.33 149.744 283.618 149.928 283.058 150.296C282.498 150.664 282.082 151.208 281.81 151.928C281.538 152.648 281.402 153.544 281.402 154.616C281.402 155.64 281.538 156.512 281.81 157.232C282.082 157.952 282.49 158.496 283.034 158.864C283.578 159.232 284.258 159.416 285.074 159.416C285.778 159.416 286.394 159.344 286.922 159.2C287.466 159.056 287.962 158.88 288.41 158.672V160.544C287.978 160.768 287.498 160.936 286.97 161.048C286.458 161.176 285.834 161.24 285.098 161.24ZM300.35 149.912H296.15V161H294.062V149.912H289.91V148.136H300.35V149.912ZM304.996 148.136V153.488H311.98V148.136H314.092V161H311.98V155.264H304.996V161H302.884V148.136H304.996ZM329.349 154.544C329.349 155.616 329.205 156.568 328.917 157.4C328.645 158.216 328.245 158.912 327.717 159.488C327.205 160.064 326.573 160.504 325.821 160.808C325.085 161.096 324.261 161.24 323.349 161.24C322.501 161.24 321.717 161.096 320.997 160.808C320.277 160.504 319.653 160.064 319.125 159.488C318.597 158.912 318.181 158.216 317.877 157.4C317.589 156.568 317.445 155.616 317.445 154.544C317.445 153.12 317.685 151.92 318.165 150.944C318.645 149.952 319.333 149.2 320.229 148.688C321.125 148.16 322.189 147.896 323.421 147.896C324.589 147.896 325.613 148.16 326.493 148.688C327.389 149.2 328.085 149.952 328.581 150.944C329.093 151.92 329.349 153.12 329.349 154.544ZM319.629 154.544C319.629 155.552 319.757 156.432 320.013 157.184C320.285 157.92 320.701 158.488 321.261 158.888C321.821 159.288 322.533 159.488 323.397 159.488C324.261 159.488 324.973 159.288 325.533 158.888C326.093 158.488 326.501 157.92 326.757 157.184C327.029 156.432 327.165 155.552 327.165 154.544C327.165 153.52 327.029 152.648 326.757 151.928C326.485 151.208 326.069 150.656 325.509 150.272C324.965 149.872 324.253 149.672 323.373 149.672C322.061 149.672 321.109 150.104 320.517 150.968C319.925 151.832 319.629 153.024 319.629 154.544Z" fill="#E1E1FF"/>
</g>
<g clip-path="url(#clip1_187_101)">
<rect x="96" y="175" width="49" height="37" rx="6" fill="#32354E"/>
<path d="M113.031 202.234C109.312 202.234 107.453 199.422 107.453 193.797C107.453 188.016 109.312 185.125 113.031 185.125C116.75 185.125 118.609 188.016 118.609 193.797C118.609 199.422 116.75 202.234 113.031 202.234ZM113.031 195.355C112.562 195.355 112.184 195.215 111.895 194.934C111.613 194.645 111.473 194.266 111.473 193.797C111.473 193.328 111.613 192.953 111.895 192.672C112.184 192.383 112.562 192.238 113.031 192.238C113.5 192.238 113.875 192.383 114.156 192.672C114.445 192.953 114.59 193.328 114.59 193.797C114.59 194.266 114.445 194.645 114.156 194.934C113.875 195.215 113.5 195.355 113.031 195.355ZM113.031 200.441C115.398 200.441 116.582 198.227 116.582 193.797C116.582 189.211 115.398 186.918 113.031 186.918C110.664 186.918 109.48 189.211 109.48 193.797C109.48 198.227 110.664 200.441 113.031 200.441ZM126.484 202V185.359H128.406V202H126.484ZM122.148 202V200.172H126.719V202H122.148ZM128.172 202V200.172H132.297V202H128.172ZM122.383 188.699V186.766L126.484 185.359V187.34L122.383 188.699Z" fill="#E1E1FF"/>
<path d="M162.266 194.594V192.789H173.797V194.594H162.266Z" fill="#E1E1FF"/>
<path d="M204 184.864V186.784H196.488V202H194.328V184.864H204ZM211.551 188.896C213.135 188.896 214.407 189.448 215.367 190.552C216.343 191.656 216.831 193.32 216.831 195.544C216.831 197 216.607 198.232 216.159 199.24C215.727 200.232 215.111 200.984 214.311 201.496C213.527 201.992 212.599 202.24 211.527 202.24C210.871 202.24 210.287 202.152 209.775 201.976C209.263 201.8 208.823 201.576 208.455 201.304C208.103 201.016 207.799 200.704 207.543 200.368H207.399C207.431 200.64 207.463 200.984 207.495 201.4C207.527 201.816 207.543 202.176 207.543 202.48V207.76H205.431V189.136H207.159L207.447 190.888H207.543C207.799 190.52 208.103 190.184 208.455 189.88C208.823 189.576 209.255 189.336 209.751 189.16C210.263 188.984 210.863 188.896 211.551 188.896ZM211.167 190.672C210.303 190.672 209.607 190.84 209.079 191.176C208.551 191.496 208.167 191.984 207.927 192.64C207.687 193.296 207.559 194.128 207.543 195.136V195.544C207.543 196.6 207.655 197.496 207.879 198.232C208.103 198.968 208.479 199.528 209.007 199.912C209.551 200.296 210.287 200.488 211.215 200.488C211.999 200.488 212.639 200.272 213.135 199.84C213.647 199.408 214.023 198.824 214.263 198.088C214.519 197.336 214.647 196.48 214.647 195.52C214.647 194.048 214.359 192.872 213.783 191.992C213.223 191.112 212.351 190.672 211.167 190.672ZM217.946 189.136H220.202L222.986 196.456C223.146 196.888 223.29 197.304 223.418 197.704C223.562 198.104 223.69 198.496 223.802 198.88C223.914 199.248 224.002 199.608 224.066 199.96H224.162C224.258 199.56 224.41 199.04 224.618 198.4C224.826 197.744 225.042 197.088 225.266 196.432L227.882 189.136H230.162L224.618 203.776C224.314 204.576 223.954 205.272 223.538 205.864C223.138 206.472 222.642 206.936 222.05 207.256C221.474 207.592 220.77 207.76 219.938 207.76C219.554 207.76 219.218 207.736 218.93 207.688C218.642 207.656 218.394 207.616 218.186 207.568V205.888C218.362 205.92 218.57 205.952 218.81 205.984C219.066 206.016 219.33 206.032 219.602 206.032C220.098 206.032 220.522 205.936 220.874 205.744C221.242 205.568 221.554 205.304 221.81 204.952C222.066 204.616 222.282 204.216 222.458 203.752L223.13 202.048L217.946 189.136ZM243.068 189.136V202H240.956V190.936H234.308V202H232.196V189.136H243.068ZM258.045 189.136V202H255.933V190.936H249.285V202H247.173V189.136H258.045ZM267.021 188.92C268.589 188.92 269.749 189.264 270.501 189.952C271.253 190.64 271.629 191.736 271.629 193.24V202H270.093L269.685 200.176H269.589C269.221 200.64 268.837 201.032 268.437 201.352C268.053 201.656 267.605 201.88 267.093 202.024C266.597 202.168 265.989 202.24 265.269 202.24C264.501 202.24 263.805 202.104 263.181 201.832C262.573 201.56 262.093 201.144 261.741 200.584C261.389 200.008 261.213 199.288 261.213 198.424C261.213 197.144 261.717 196.16 262.725 195.472C263.733 194.768 265.285 194.384 267.381 194.32L269.565 194.248V193.48C269.565 192.408 269.333 191.664 268.869 191.248C268.405 190.832 267.749 190.624 266.901 190.624C266.229 190.624 265.589 190.728 264.981 190.936C264.373 191.128 263.805 191.352 263.277 191.608L262.629 190.024C263.189 189.72 263.853 189.464 264.621 189.256C265.389 189.032 266.189 188.92 267.021 188.92ZM267.645 195.784C266.045 195.848 264.933 196.104 264.309 196.552C263.701 197 263.397 197.632 263.397 198.448C263.397 199.168 263.613 199.696 264.045 200.032C264.493 200.368 265.061 200.536 265.749 200.536C266.837 200.536 267.741 200.24 268.461 199.648C269.181 199.04 269.541 198.112 269.541 196.864V195.712L267.645 195.784Z" fill="#E1E1FF"/>
</g>
<g clip-path="url(#clip2_187_101)">
<rect x="96" y="216" width="49" height="37" rx="6" fill="#32354E"/>
<path d="M113.031 243.234C109.312 243.234 107.453 240.422 107.453 234.797C107.453 229.016 109.312 226.125 113.031 226.125C116.75 226.125 118.609 229.016 118.609 234.797C118.609 240.422 116.75 243.234 113.031 243.234ZM113.031 236.355C112.562 236.355 112.184 236.215 111.895 235.934C111.613 235.645 111.473 235.266 111.473 234.797C111.473 234.328 111.613 233.953 111.895 233.672C112.184 233.383 112.562 233.238 113.031 233.238C113.5 233.238 113.875 233.383 114.156 233.672C114.445 233.953 114.59 234.328 114.59 234.797C114.59 235.266 114.445 235.645 114.156 235.934C113.875 236.215 113.5 236.355 113.031 236.355ZM113.031 241.441C115.398 241.441 116.582 239.227 116.582 234.797C116.582 230.211 115.398 227.918 113.031 227.918C110.664 227.918 109.48 230.211 109.48 234.797C109.48 239.227 110.664 241.441 113.031 241.441ZM121.938 243V240.738C124.594 239.27 126.578 237.738 127.891 236.145C129.211 234.543 129.871 232.887 129.871 231.176C129.871 230.113 129.602 229.305 129.062 228.75C128.523 228.195 127.727 227.918 126.672 227.918C125.977 227.918 125.277 228.086 124.574 228.422C123.871 228.758 123.246 229.227 122.699 229.828L121.398 228.539C121.969 227.805 122.719 227.219 123.648 226.781C124.586 226.344 125.609 226.125 126.719 226.125C128.422 226.125 129.707 226.551 130.574 227.402C131.441 228.254 131.875 229.512 131.875 231.176C131.875 232.988 131.277 234.707 130.082 236.332C128.895 237.949 127.109 239.48 124.727 240.926V243H121.938ZM122.641 243V241.207H132.578V243H122.641Z" fill="#E1E1FF"/>
<path d="M162.266 235.594V233.789H173.797V235.594H162.266Z" fill="#E1E1FF"/>
<path d="M204.456 229.872C204.456 231.04 204.088 231.968 203.352 232.656C202.616 233.328 201.632 233.76 200.4 233.952V234.048C201.84 234.24 202.936 234.688 203.688 235.392C204.44 236.096 204.816 237.016 204.816 238.152C204.816 239.16 204.56 240.048 204.048 240.816C203.536 241.568 202.768 242.16 201.744 242.592C200.72 243.024 199.44 243.24 197.904 243.24C196.976 243.24 196.088 243.168 195.24 243.024C194.408 242.896 193.632 242.656 192.912 242.304V240.336C193.408 240.576 193.936 240.784 194.496 240.96C195.072 241.12 195.648 241.248 196.224 241.344C196.8 241.424 197.352 241.464 197.88 241.464C199.416 241.464 200.576 241.176 201.36 240.6C202.16 240.024 202.56 239.208 202.56 238.152C202.56 237.064 202.096 236.272 201.168 235.776C200.24 235.28 198.944 235.032 197.28 235.032H194.832V233.232H197.16C198.296 233.232 199.232 233.104 199.968 232.848C200.72 232.592 201.28 232.232 201.648 231.768C202.032 231.288 202.224 230.728 202.224 230.088C202.224 229.224 201.904 228.56 201.264 228.096C200.624 227.632 199.792 227.4 198.768 227.4C197.696 227.4 196.8 227.536 196.08 227.808C195.376 228.08 194.688 228.432 194.016 228.864L192.984 227.4C193.432 227.064 193.944 226.768 194.52 226.512C195.112 226.24 195.768 226.024 196.488 225.864C197.208 225.704 197.976 225.624 198.792 225.624C200.024 225.624 201.056 225.808 201.888 226.176C202.736 226.544 203.376 227.048 203.808 227.688C204.24 228.312 204.456 229.04 204.456 229.872ZM213.021 229.92C214.589 229.92 215.749 230.264 216.501 230.952C217.253 231.64 217.629 232.736 217.629 234.24V243H216.093L215.685 241.176H215.589C215.221 241.64 214.837 242.032 214.437 242.352C214.053 242.656 213.605 242.88 213.093 243.024C212.597 243.168 211.989 243.24 211.269 243.24C210.501 243.24 209.805 243.104 209.181 242.832C208.573 242.56 208.093 242.144 207.741 241.584C207.389 241.008 207.213 240.288 207.213 239.424C207.213 238.144 207.717 237.16 208.725 236.472C209.733 235.768 211.285 235.384 213.381 235.32L215.565 235.248V234.48C215.565 233.408 215.333 232.664 214.869 232.248C214.405 231.832 213.749 231.624 212.901 231.624C212.229 231.624 211.589 231.728 210.981 231.936C210.373 232.128 209.805 232.352 209.277 232.608L208.629 231.024C209.189 230.72 209.853 230.464 210.621 230.256C211.389 230.032 212.189 229.92 213.021 229.92ZM213.645 236.784C212.045 236.848 210.933 237.104 210.309 237.552C209.701 238 209.397 238.632 209.397 239.448C209.397 240.168 209.613 240.696 210.045 241.032C210.493 241.368 211.061 241.536 211.749 241.536C212.837 241.536 213.741 241.24 214.461 240.648C215.181 240.04 215.541 239.112 215.541 237.864V236.712L213.645 236.784ZM232.475 230.136V243H230.363V231.936H223.715V243H221.603V230.136H232.475ZM238.571 237.984C238.571 238.128 238.563 238.336 238.547 238.608C238.547 238.864 238.539 239.144 238.523 239.448C238.507 239.736 238.491 240.016 238.475 240.288C238.459 240.544 238.443 240.752 238.427 240.912L245.315 230.136H247.907V243H245.939V235.416C245.939 235.16 245.939 234.824 245.939 234.408C245.955 233.992 245.971 233.584 245.987 233.184C246.003 232.768 246.019 232.456 246.035 232.248L239.195 243H236.579V230.136H238.571V237.984ZM257.161 243.24C256.025 243.24 255.009 243.008 254.113 242.544C253.233 242.08 252.537 241.36 252.025 240.384C251.529 239.408 251.281 238.16 251.281 236.64C251.281 235.056 251.545 233.768 252.073 232.776C252.601 231.784 253.313 231.056 254.209 230.592C255.121 230.128 256.153 229.896 257.305 229.896C257.961 229.896 258.593 229.968 259.201 230.112C259.809 230.24 260.305 230.4 260.689 230.592L260.041 232.344C259.657 232.2 259.209 232.064 258.697 231.936C258.185 231.808 257.705 231.744 257.257 231.744C256.393 231.744 255.681 231.928 255.121 232.296C254.561 232.664 254.145 233.208 253.873 233.928C253.601 234.648 253.465 235.544 253.465 236.616C253.465 237.64 253.601 238.512 253.873 239.232C254.145 239.952 254.553 240.496 255.097 240.864C255.641 241.232 256.321 241.416 257.137 241.416C257.841 241.416 258.457 241.344 258.985 241.2C259.529 241.056 260.025 240.88 260.473 240.672V242.544C260.041 242.768 259.561 242.936 259.033 243.048C258.521 243.176 257.897 243.24 257.161 243.24ZM269.46 235.416C270.58 235.416 271.508 235.552 272.244 235.824C272.98 236.096 273.532 236.504 273.9 237.048C274.284 237.576 274.476 238.248 274.476 239.064C274.476 239.864 274.292 240.56 273.924 241.152C273.572 241.744 273.02 242.2 272.268 242.52C271.516 242.84 270.548 243 269.364 243H263.532V230.136H265.644V235.416H269.46ZM272.364 239.184C272.364 238.4 272.084 237.872 271.524 237.6C270.98 237.312 270.212 237.168 269.22 237.168H265.644V241.296H269.268C270.164 241.296 270.9 241.136 271.476 240.816C272.068 240.496 272.364 239.952 272.364 239.184Z" fill="#E1E1FF"/>
</g>
<g clip-path="url(#clip3_187_101)">
<rect x="96" y="257" width="49" height="37" rx="6" fill="#32354E"/>
<path d="M113.031 284.234C109.312 284.234 107.453 281.422 107.453 275.797C107.453 270.016 109.312 267.125 113.031 267.125C116.75 267.125 118.609 270.016 118.609 275.797C118.609 281.422 116.75 284.234 113.031 284.234ZM113.031 277.355C112.562 277.355 112.184 277.215 111.895 276.934C111.613 276.645 111.473 276.266 111.473 275.797C111.473 275.328 111.613 274.953 111.895 274.672C112.184 274.383 112.562 274.238 113.031 274.238C113.5 274.238 113.875 274.383 114.156 274.672C114.445 274.953 114.59 275.328 114.59 275.797C114.59 276.266 114.445 276.645 114.156 276.934C113.875 277.215 113.5 277.355 113.031 277.355ZM113.031 282.441C115.398 282.441 116.582 280.227 116.582 275.797C116.582 271.211 115.398 268.918 113.031 268.918C110.664 268.918 109.48 271.211 109.48 275.797C109.48 280.227 110.664 282.441 113.031 282.441ZM126.086 284.234C125.242 284.234 124.473 284.184 123.777 284.082C123.09 283.98 122.469 283.844 121.914 283.672L122.16 281.844C122.629 281.969 123.156 282.102 123.742 282.242C124.336 282.375 125.086 282.441 125.992 282.441C127.328 282.441 128.363 282.184 129.098 281.668C129.832 281.145 130.199 280.41 130.199 279.465C130.199 278.801 129.988 278.23 129.566 277.754C129.145 277.27 128.535 276.902 127.738 276.652C126.949 276.395 126 276.266 124.891 276.266H124.492L124.246 274.906L127.551 275.199C128.941 275.301 130.062 275.742 130.914 276.523C131.773 277.305 132.203 278.34 132.203 279.629C132.203 281.09 131.668 282.223 130.598 283.027C129.535 283.832 128.031 284.234 126.086 284.234ZM124.492 276.266L124.246 274.906C125.496 274.734 126.535 274.477 127.363 274.133C128.191 273.789 128.812 273.371 129.227 272.879C129.641 272.379 129.848 271.832 129.848 271.238C129.848 270.504 129.602 269.934 129.109 269.527C128.617 269.121 127.918 268.918 127.012 268.918C126.332 268.918 125.648 269.062 124.961 269.352C124.273 269.641 123.609 270.086 122.969 270.688L121.621 269.363C122.332 268.582 123.148 268.016 124.07 267.664C124.992 267.305 126.043 267.125 127.223 267.125C128.699 267.125 129.84 267.449 130.645 268.098C131.449 268.738 131.852 269.656 131.852 270.852C131.852 271.883 131.496 272.773 130.785 273.523C130.082 274.266 129.156 274.777 128.008 275.059V276.23L124.492 276.266Z" fill="#E1E1FF"/>
<path d="M162.266 276.594V274.789H173.797V276.594H162.266Z" fill="#E1E1FF"/>
<path d="M194.352 266.864H196.368V276.272C196.368 276.672 196.36 277.112 196.344 277.592C196.344 278.056 196.336 278.52 196.32 278.984C196.304 279.448 196.28 279.864 196.248 280.232C196.232 280.584 196.216 280.856 196.2 281.048H196.296L205.728 266.864H208.128V284H206.112V274.688C206.112 274.256 206.12 273.792 206.136 273.296C206.152 272.784 206.168 272.296 206.184 271.832C206.216 271.352 206.24 270.928 206.256 270.56C206.272 270.192 206.288 269.92 206.304 269.744H206.208L196.752 284H194.352V266.864ZM220.07 271.136H222.374L216.878 277.328L222.83 284H220.382L214.574 277.472V284H212.462V271.136H214.574V277.376L220.07 271.136ZM235.88 277.544C235.88 278.616 235.736 279.568 235.448 280.4C235.176 281.216 234.776 281.912 234.248 282.488C233.736 283.064 233.104 283.504 232.352 283.808C231.616 284.096 230.792 284.24 229.88 284.24C229.032 284.24 228.248 284.096 227.528 283.808C226.808 283.504 226.184 283.064 225.656 282.488C225.128 281.912 224.712 281.216 224.408 280.4C224.12 279.568 223.976 278.616 223.976 277.544C223.976 276.12 224.216 274.92 224.696 273.944C225.176 272.952 225.864 272.2 226.76 271.688C227.656 271.16 228.72 270.896 229.952 270.896C231.12 270.896 232.144 271.16 233.024 271.688C233.92 272.2 234.616 272.952 235.112 273.944C235.624 274.92 235.88 276.12 235.88 277.544ZM226.16 277.544C226.16 278.552 226.288 279.432 226.544 280.184C226.816 280.92 227.232 281.488 227.792 281.888C228.352 282.288 229.064 282.488 229.928 282.488C230.792 282.488 231.504 282.288 232.064 281.888C232.624 281.488 233.032 280.92 233.288 280.184C233.56 279.432 233.696 278.552 233.696 277.544C233.696 276.52 233.56 275.648 233.288 274.928C233.016 274.208 232.6 273.656 232.04 273.272C231.496 272.872 230.784 272.672 229.904 272.672C228.592 272.672 227.64 273.104 227.048 273.968C226.456 274.832 226.16 276.024 226.16 277.544ZM241.34 271.136V276.488H248.324V271.136H250.436V284H248.324V278.264H241.34V284H239.228V271.136H241.34ZM262.117 271.136H264.421L258.925 277.328L264.877 284H262.429L256.621 277.472V284H254.509V271.136H256.621V277.376L262.117 271.136ZM272.084 270.92C273.652 270.92 274.812 271.264 275.564 271.952C276.316 272.64 276.692 273.736 276.692 275.24V284H275.156L274.748 282.176H274.652C274.284 282.64 273.9 283.032 273.5 283.352C273.116 283.656 272.668 283.88 272.156 284.024C271.66 284.168 271.052 284.24 270.332 284.24C269.564 284.24 268.868 284.104 268.244 283.832C267.636 283.56 267.156 283.144 266.804 282.584C266.452 282.008 266.276 281.288 266.276 280.424C266.276 279.144 266.78 278.16 267.788 277.472C268.796 276.768 270.348 276.384 272.444 276.32L274.628 276.248V275.48C274.628 274.408 274.396 273.664 273.932 273.248C273.468 272.832 272.812 272.624 271.964 272.624C271.292 272.624 270.652 272.728 270.044 272.936C269.436 273.128 268.868 273.352 268.34 273.608L267.692 272.024C268.252 271.72 268.916 271.464 269.684 271.256C270.452 271.032 271.252 270.92 272.084 270.92ZM272.708 277.784C271.108 277.848 269.996 278.104 269.372 278.552C268.764 279 268.46 279.632 268.46 280.448C268.46 281.168 268.676 281.696 269.108 282.032C269.556 282.368 270.124 282.536 270.812 282.536C271.9 282.536 272.804 282.24 273.524 281.648C274.244 281.04 274.604 280.112 274.604 278.864V277.712L272.708 277.784Z" fill="#E1E1FF"/>
</g>
<g clip-path="url(#clip4_187_101)">
<rect x="96" y="298" width="49" height="37" rx="6" fill="#32354E"/>
<path d="M113.031 325.234C109.312 325.234 107.453 322.422 107.453 316.797C107.453 311.016 109.312 308.125 113.031 308.125C116.75 308.125 118.609 311.016 118.609 316.797C118.609 322.422 116.75 325.234 113.031 325.234ZM113.031 318.355C112.562 318.355 112.184 318.215 111.895 317.934C111.613 317.645 111.473 317.266 111.473 316.797C111.473 316.328 111.613 315.953 111.895 315.672C112.184 315.383 112.562 315.238 113.031 315.238C113.5 315.238 113.875 315.383 114.156 315.672C114.445 315.953 114.59 316.328 114.59 316.797C114.59 317.266 114.445 317.645 114.156 317.934C113.875 318.215 113.5 318.355 113.031 318.355ZM113.031 323.441C115.398 323.441 116.582 321.227 116.582 316.797C116.582 312.211 115.398 309.918 113.031 309.918C110.664 309.918 109.48 312.211 109.48 316.797C109.48 321.227 110.664 323.441 113.031 323.441ZM121.023 321.238L123.273 309.297H125.242L122.969 321.238H121.023ZM121.012 321.238L122.43 319.445H129.613V321.238H121.012ZM131.066 321.238V319.445H133.094V321.238H131.066ZM129.379 325V308.359H131.301V325H129.379Z" fill="#E1E1FF"/>
<path d="M162.266 317.594V315.789H173.797V317.594H162.266Z" fill="#E1E1FF"/>
<path d="M205.08 325L203.016 319.696H196.224L194.184 325H192L198.696 307.792H200.64L207.312 325H205.08ZM200.448 312.592C200.4 312.464 200.32 312.232 200.208 311.896C200.096 311.56 199.984 311.216 199.872 310.864C199.776 310.496 199.696 310.216 199.632 310.024C199.552 310.344 199.464 310.672 199.368 311.008C199.288 311.328 199.2 311.624 199.104 311.896C199.024 312.168 198.952 312.4 198.888 312.592L196.944 317.776H202.368L200.448 312.592ZM217.779 313.912H213.579V325H211.491V313.912H207.339V312.136H217.779V313.912ZM226.433 311.896C228.017 311.896 229.289 312.448 230.249 313.552C231.225 314.656 231.713 316.32 231.713 318.544C231.713 320 231.489 321.232 231.041 322.24C230.609 323.232 229.993 323.984 229.193 324.496C228.409 324.992 227.481 325.24 226.409 325.24C225.753 325.24 225.169 325.152 224.657 324.976C224.145 324.8 223.705 324.576 223.337 324.304C222.985 324.016 222.681 323.704 222.425 323.368H222.281C222.313 323.64 222.345 323.984 222.377 324.4C222.409 324.816 222.425 325.176 222.425 325.48V330.76H220.313V312.136H222.041L222.329 313.888H222.425C222.681 313.52 222.985 313.184 223.337 312.88C223.705 312.576 224.137 312.336 224.633 312.16C225.145 311.984 225.745 311.896 226.433 311.896ZM226.049 313.672C225.185 313.672 224.489 313.84 223.961 314.176C223.433 314.496 223.049 314.984 222.809 315.64C222.569 316.296 222.441 317.128 222.425 318.136V318.544C222.425 319.6 222.537 320.496 222.761 321.232C222.985 321.968 223.361 322.528 223.889 322.912C224.433 323.296 225.169 323.488 226.097 323.488C226.881 323.488 227.521 323.272 228.017 322.84C228.529 322.408 228.905 321.824 229.145 321.088C229.401 320.336 229.529 319.48 229.529 318.52C229.529 317.048 229.241 315.872 228.665 314.992C228.105 314.112 227.233 313.672 226.049 313.672ZM237.071 319.984C237.071 320.128 237.063 320.336 237.047 320.608C237.047 320.864 237.039 321.144 237.023 321.448C237.007 321.736 236.991 322.016 236.975 322.288C236.959 322.544 236.943 322.752 236.927 322.912L243.815 312.136H246.407V325H244.439V317.416C244.439 317.16 244.439 316.824 244.439 316.408C244.455 315.992 244.471 315.584 244.487 315.184C244.503 314.768 244.519 314.456 244.535 314.248L237.695 325H235.079V312.136H237.071V319.984ZM249.829 317.272C249.829 315.4 250.013 313.808 250.381 312.496C250.765 311.168 251.349 310.112 252.133 309.328C252.933 308.528 253.957 307.992 255.205 307.72C256.245 307.496 257.261 307.296 258.253 307.12C259.245 306.944 260.173 306.784 261.037 306.64L261.397 308.488C260.981 308.552 260.517 308.632 260.005 308.728C259.493 308.808 258.973 308.896 258.445 308.992C257.917 309.072 257.405 309.16 256.909 309.256C256.429 309.336 256.005 309.416 255.637 309.496C255.109 309.608 254.637 309.8 254.221 310.072C253.805 310.328 253.445 310.68 253.141 311.128C252.853 311.576 252.621 312.128 252.445 312.784C252.269 313.44 252.165 314.216 252.133 315.112H252.277C252.501 314.808 252.805 314.496 253.189 314.176C253.589 313.856 254.061 313.584 254.605 313.36C255.165 313.136 255.797 313.024 256.501 313.024C257.621 313.024 258.549 313.272 259.285 313.768C260.037 314.248 260.597 314.92 260.965 315.784C261.349 316.648 261.541 317.656 261.541 318.808C261.541 320.232 261.293 321.424 260.797 322.384C260.301 323.344 259.613 324.064 258.733 324.544C257.853 325.008 256.829 325.24 255.661 325.24C254.781 325.24 253.981 325.072 253.261 324.736C252.541 324.384 251.925 323.872 251.413 323.2C250.901 322.528 250.509 321.696 250.237 320.704C249.965 319.712 249.829 318.568 249.829 317.272ZM255.829 323.488C256.533 323.488 257.141 323.344 257.653 323.056C258.181 322.768 258.589 322.296 258.877 321.64C259.165 320.984 259.309 320.112 259.309 319.024C259.309 317.712 259.061 316.68 258.565 315.928C258.085 315.16 257.285 314.776 256.165 314.776C255.461 314.776 254.821 314.936 254.245 315.256C253.669 315.56 253.189 315.912 252.805 316.312C252.421 316.712 252.149 317.048 251.989 317.32C251.989 318.104 252.045 318.864 252.157 319.6C252.269 320.336 252.461 321 252.733 321.592C253.021 322.168 253.413 322.632 253.909 322.984C254.421 323.32 255.061 323.488 255.829 323.488ZM262.852 312.136H265.108L267.892 319.456C268.052 319.888 268.196 320.304 268.324 320.704C268.468 321.104 268.596 321.496 268.708 321.88C268.82 322.248 268.908 322.608 268.972 322.96H269.068C269.164 322.56 269.316 322.04 269.524 321.4C269.732 320.744 269.948 320.088 270.172 319.432L272.788 312.136H275.068L269.524 326.776C269.22 327.576 268.86 328.272 268.444 328.864C268.044 329.472 267.548 329.936 266.956 330.256C266.38 330.592 265.676 330.76 264.844 330.76C264.46 330.76 264.124 330.736 263.836 330.688C263.548 330.656 263.3 330.616 263.092 330.568V328.888C263.268 328.92 263.476 328.952 263.716 328.984C263.972 329.016 264.236 329.032 264.508 329.032C265.004 329.032 265.428 328.936 265.78 328.744C266.148 328.568 266.46 328.304 266.716 327.952C266.972 327.616 267.188 327.216 267.364 326.752L268.036 325.048L262.852 312.136ZM285.983 313.912H281.783V325H279.695V313.912H275.543V312.136H285.983V313.912Z" fill="#E1E1FF"/>
</g>
<g clip-path="url(#clip5_187_101)">
<rect x="96" y="339" width="49" height="37" rx="6" fill="#32354E"/>
<path d="M113.031 366.234C109.312 366.234 107.453 363.422 107.453 357.797C107.453 352.016 109.312 349.125 113.031 349.125C116.75 349.125 118.609 352.016 118.609 357.797C118.609 363.422 116.75 366.234 113.031 366.234ZM113.031 359.355C112.562 359.355 112.184 359.215 111.895 358.934C111.613 358.645 111.473 358.266 111.473 357.797C111.473 357.328 111.613 356.953 111.895 356.672C112.184 356.383 112.562 356.238 113.031 356.238C113.5 356.238 113.875 356.383 114.156 356.672C114.445 356.953 114.59 357.328 114.59 357.797C114.59 358.266 114.445 358.645 114.156 358.934C113.875 359.215 113.5 359.355 113.031 359.355ZM113.031 364.441C115.398 364.441 116.582 362.227 116.582 357.797C116.582 353.211 115.398 350.918 113.031 350.918C110.664 350.918 109.48 353.211 109.48 357.797C109.48 362.227 110.664 364.441 113.031 364.441ZM127.258 366.234C125.492 366.234 124.125 365.809 123.156 364.957C122.188 364.098 121.703 362.891 121.703 361.336H123.742C123.742 362.32 124.047 363.086 124.656 363.633C125.273 364.172 126.148 364.441 127.281 364.441C128.398 364.441 129.262 364.109 129.871 363.445C130.48 362.781 130.785 361.844 130.785 360.633C130.785 359.484 130.48 358.598 129.871 357.973C129.262 357.34 128.395 357.023 127.27 357.023C126.082 357.023 124.969 357.359 123.93 358.031L123.906 356.473C124.57 355.996 125.227 355.676 125.875 355.512C126.531 355.348 127.191 355.266 127.855 355.266C129.426 355.266 130.641 355.734 131.5 356.672C132.359 357.602 132.789 358.922 132.789 360.633C132.789 361.82 132.57 362.832 132.133 363.668C131.703 364.504 131.074 365.141 130.246 365.578C129.426 366.016 128.43 366.234 127.258 366.234ZM122.723 358.031L122.945 349.359H124.914L124.68 356.777L123.93 358.031H122.723ZM123.977 351.152L123.766 349.359H131.734V351.152H123.977Z" fill="#E1E1FF"/>
<path d="M162.266 358.594V356.789H173.797V358.594H162.266Z" fill="#E1E1FF"/>
<path d="M199.224 348.864C200.648 348.864 201.84 349 202.8 349.272C203.776 349.544 204.504 349.992 204.984 350.616C205.48 351.24 205.728 352.072 205.728 353.112C205.728 353.784 205.6 354.384 205.344 354.912C205.104 355.424 204.736 355.856 204.24 356.208C203.76 356.544 203.168 356.776 202.464 356.904V357.024C203.184 357.136 203.832 357.344 204.408 357.648C205 357.952 205.464 358.384 205.8 358.944C206.136 359.504 206.304 360.232 206.304 361.128C206.304 362.168 206.064 363.056 205.584 363.792C205.104 364.512 204.416 365.064 203.52 365.448C202.64 365.816 201.584 366 200.352 366H194.328V348.864H199.224ZM199.656 356.16C201.128 356.16 202.136 355.928 202.68 355.464C203.224 354.984 203.496 354.28 203.496 353.352C203.496 352.408 203.16 351.736 202.488 351.336C201.832 350.92 200.776 350.712 199.32 350.712H196.488V356.16H199.656ZM196.488 357.96V364.176H199.944C201.464 364.176 202.52 363.88 203.112 363.288C203.704 362.696 204 361.92 204 360.96C204 360.352 203.864 359.824 203.592 359.376C203.336 358.928 202.896 358.584 202.272 358.344C201.664 358.088 200.832 357.96 199.776 357.96H196.488ZM219.441 366H217.305V354.888H213.513C213.353 356.92 213.153 358.656 212.913 360.096C212.673 361.52 212.369 362.68 212.001 363.576C211.633 364.472 211.193 365.128 210.681 365.544C210.169 365.96 209.569 366.168 208.881 366.168C208.673 366.168 208.465 366.152 208.257 366.12C208.065 366.104 207.905 366.064 207.777 366V364.416C207.873 364.448 207.977 364.472 208.089 364.488C208.201 364.504 208.313 364.512 208.425 364.512C208.777 364.512 209.097 364.368 209.385 364.08C209.673 363.792 209.929 363.352 210.153 362.76C210.393 362.168 210.609 361.424 210.801 360.528C210.993 359.616 211.161 358.544 211.305 357.312C211.449 356.08 211.577 354.688 211.689 353.136H219.441V366ZM234.708 359.544C234.708 360.616 234.564 361.568 234.276 362.4C234.004 363.216 233.604 363.912 233.076 364.488C232.564 365.064 231.932 365.504 231.18 365.808C230.444 366.096 229.62 366.24 228.708 366.24C227.86 366.24 227.076 366.096 226.356 365.808C225.636 365.504 225.012 365.064 224.484 364.488C223.956 363.912 223.54 363.216 223.236 362.4C222.948 361.568 222.804 360.616 222.804 359.544C222.804 358.12 223.044 356.92 223.524 355.944C224.004 354.952 224.692 354.2 225.588 353.688C226.484 353.16 227.548 352.896 228.78 352.896C229.948 352.896 230.972 353.16 231.852 353.688C232.748 354.2 233.444 354.952 233.94 355.944C234.452 356.92 234.708 358.12 234.708 359.544ZM224.988 359.544C224.988 360.552 225.116 361.432 225.372 362.184C225.644 362.92 226.06 363.488 226.62 363.888C227.18 364.288 227.892 364.488 228.756 364.488C229.62 364.488 230.332 364.288 230.892 363.888C231.452 363.488 231.86 362.92 232.116 362.184C232.388 361.432 232.524 360.552 232.524 359.544C232.524 358.52 232.388 357.648 232.116 356.928C231.844 356.208 231.428 355.656 230.868 355.272C230.324 354.872 229.612 354.672 228.732 354.672C227.42 354.672 226.468 355.104 225.876 355.968C225.284 356.832 224.988 358.024 224.988 359.544ZM253.019 353.136L247.715 359.376L253.475 366H251.075L245.507 359.472V366H243.539V359.472L237.971 366H235.571L241.331 359.376L236.027 353.136H238.331L243.539 359.376V353.136H245.507V359.376L250.739 353.136H253.019ZM260.086 352.896C261.19 352.896 262.134 353.136 262.918 353.616C263.718 354.096 264.326 354.776 264.742 355.656C265.174 356.52 265.39 357.536 265.39 358.704V359.976H256.582C256.614 361.432 256.982 362.544 257.686 363.312C258.406 364.064 259.406 364.44 260.686 364.44C261.502 364.44 262.222 364.368 262.846 364.224C263.486 364.064 264.142 363.84 264.814 363.552V365.4C264.158 365.688 263.51 365.896 262.87 366.024C262.23 366.168 261.47 366.24 260.59 366.24C259.374 366.24 258.294 365.992 257.35 365.496C256.422 365 255.694 364.264 255.166 363.288C254.654 362.296 254.398 361.088 254.398 359.664C254.398 358.256 254.63 357.048 255.094 356.04C255.574 355.032 256.238 354.256 257.086 353.712C257.95 353.168 258.95 352.896 260.086 352.896ZM260.062 354.624C259.054 354.624 258.254 354.952 257.662 355.608C257.086 356.248 256.742 357.144 256.63 358.296H263.182C263.182 357.56 263.07 356.92 262.846 356.376C262.622 355.832 262.278 355.408 261.814 355.104C261.366 354.784 260.782 354.624 260.062 354.624ZM270.777 353.136V358.488H277.761V353.136H279.873V366H277.761V360.264H270.777V366H268.665V353.136H270.777ZM285.938 360.984C285.938 361.128 285.93 361.336 285.914 361.608C285.914 361.864 285.906 362.144 285.89 362.448C285.874 362.736 285.858 363.016 285.842 363.288C285.826 363.544 285.81 363.752 285.794 363.912L292.682 353.136H295.274V366H293.306V358.416C293.306 358.16 293.306 357.824 293.306 357.408C293.322 356.992 293.338 356.584 293.354 356.184C293.37 355.768 293.386 355.456 293.402 355.248L286.562 366H283.946V353.136H285.938V360.984ZM304.336 352.896C305.44 352.896 306.384 353.136 307.168 353.616C307.968 354.096 308.576 354.776 308.992 355.656C309.424 356.52 309.64 357.536 309.64 358.704V359.976H300.832C300.864 361.432 301.232 362.544 301.936 363.312C302.656 364.064 303.656 364.44 304.936 364.44C305.752 364.44 306.472 364.368 307.096 364.224C307.736 364.064 308.392 363.84 309.064 363.552V365.4C308.408 365.688 307.76 365.896 307.12 366.024C306.48 366.168 305.72 366.24 304.84 366.24C303.624 366.24 302.544 365.992 301.6 365.496C300.672 365 299.944 364.264 299.416 363.288C298.904 362.296 298.648 361.088 298.648 359.664C298.648 358.256 298.88 357.048 299.344 356.04C299.824 355.032 300.488 354.256 301.336 353.712C302.2 353.168 303.2 352.896 304.336 352.896ZM304.312 354.624C303.304 354.624 302.504 354.952 301.912 355.608C301.336 356.248 300.992 357.144 300.88 358.296H307.432C307.432 357.56 307.32 356.92 307.096 356.376C306.872 355.832 306.528 355.408 306.064 355.104C305.616 354.784 305.032 354.624 304.312 354.624Z" fill="#E1E1FF"/>
</g>
<defs>
<clipPath id="clip0_187_101">
<rect width="235" height="37" fill="white" transform="translate(96 134)"/>
</clipPath>
<clipPath id="clip1_187_101">
<rect width="178" height="37" fill="white" transform="translate(96 175)"/>
</clipPath>
<clipPath id="clip2_187_101">
<rect width="180" height="37" fill="white" transform="translate(96 216)"/>
</clipPath>
<clipPath id="clip3_187_101">
<rect width="183" height="37" fill="white" transform="translate(96 257)"/>
</clipPath>
<clipPath id="clip4_187_101">
<rect width="191" height="37" fill="white" transform="translate(96 298)"/>
</clipPath>
<clipPath id="clip5_187_101">
<rect width="215" height="37" fill="white" transform="translate(96 339)"/>
</clipPath>
</defs>
</svg>
