<svg width="571" height="81" viewBox="0 0 571 81" fill="none" xmlns="http://www.w3.org/2000/svg">
<rect width="571" height="81" rx="12" fill="#181925"/>
<path d="M37.5664 49L32.6211 32.3594H34.6484L38.9375 47.3711H39.125L43.4141 32.3594H45.4414L40.4961 49H37.5664Z" fill="#FCCC5D"/>
<path d="M54.793 49.2344C49.6836 49.2344 47.1289 46.375 47.1289 40.6562C47.1289 37.9453 47.7695 35.8477 49.0508 34.3633C50.3398 32.8711 52.1602 32.125 54.5117 32.125C55.6367 32.125 56.6172 32.3086 57.4531 32.6758C58.2891 33.0352 58.8984 33.5508 59.2812 34.2227L57.8633 35.6289C57.4883 35.082 57.0078 34.6602 56.4219 34.3633C55.8438 34.0664 55.2148 33.918 54.5352 33.918C52.9102 33.918 51.6055 34.4922 50.6211 35.6406C49.6445 36.7891 49.1562 38.4219 49.1562 40.5391C49.1562 45.1406 51.1406 47.4414 55.1094 47.4414C56.2656 47.4414 57.4062 47.1992 58.5312 46.7148L58.9883 48.4375C57.6523 48.9688 56.2539 49.2344 54.793 49.2344Z" fill="#34B240"/>
<path d="M61.4609 49L66.4883 42.25L70.5195 36.5781H72.8516L67.7188 43.5039L63.793 49H61.4609ZM70.5195 49L66.5117 43.4805L61.4609 36.5781H63.793L67.8477 42.2266L72.8516 49H70.5195ZM75.5234 49L80.5508 42.25L84.582 36.5781H86.9141L81.7812 43.5039L77.8555 49H75.5234ZM84.582 49L80.5742 43.4805L75.5234 36.5781H77.8555L81.9102 42.2266L86.9141 49H84.582ZM89.5859 49L94.6133 42.25L98.6445 36.5781H100.977L95.8438 43.5039L91.918 49H89.5859ZM98.6445 49L94.6367 43.4805L89.5859 36.5781H91.918L95.9727 42.2266L100.977 49H98.6445ZM103.648 49L108.676 42.25L112.707 36.5781H115.039L109.906 43.5039L105.98 49H103.648ZM112.707 49L108.699 43.4805L103.648 36.5781H105.98L110.035 42.2266L115.039 49H112.707ZM117.711 49L122.738 42.25L126.77 36.5781H129.102L123.969 43.5039L120.043 49H117.711ZM126.77 49L122.762 43.4805L117.711 36.5781H120.043L124.098 42.2266L129.102 49H126.77ZM131.773 49L136.801 42.25L140.832 36.5781H143.164L138.031 43.5039L134.105 49H131.773ZM140.832 49L136.824 43.4805L131.773 36.5781H134.105L138.16 42.2266L143.164 49H140.832ZM159.898 49L164.926 42.25L168.957 36.5781H171.289L166.156 43.5039L162.23 49H159.898ZM168.957 49L164.949 43.4805L159.898 36.5781H162.23L166.285 42.2266L171.289 49H168.957ZM173.961 49L178.988 42.25L183.02 36.5781H185.352L180.219 43.5039L176.293 49H173.961ZM183.02 49L179.012 43.4805L173.961 36.5781H176.293L180.348 42.2266L185.352 49H183.02ZM188.023 49L193.051 42.25L197.082 36.5781H199.414L194.281 43.5039L190.355 49H188.023ZM197.082 49L193.074 43.4805L188.023 36.5781H190.355L194.41 42.2266L199.414 49H197.082ZM202.086 49L207.113 42.25L211.145 36.5781H213.477L208.344 43.5039L204.418 49H202.086ZM211.145 49L207.137 43.4805L202.086 36.5781H204.418L208.473 42.2266L213.477 49H211.145ZM230.211 49L235.238 42.25L239.27 36.5781H241.602L236.469 43.5039L232.543 49H230.211ZM239.27 49L235.262 43.4805L230.211 36.5781H232.543L236.598 42.2266L241.602 49H239.27ZM244.273 49L249.301 42.25L253.332 36.5781H255.664L250.531 43.5039L246.605 49H244.273ZM253.332 49L249.324 43.4805L244.273 36.5781H246.605L250.66 42.2266L255.664 49H253.332ZM258.336 49L263.363 42.25L267.395 36.5781H269.727L264.594 43.5039L260.668 49H258.336ZM267.395 49L263.387 43.4805L258.336 36.5781H260.668L264.723 42.2266L269.727 49H267.395ZM272.398 49L277.426 42.25L281.457 36.5781H283.789L278.656 43.5039L274.73 49H272.398ZM281.457 49L277.449 43.4805L272.398 36.5781H274.73L278.785 42.2266L283.789 49H281.457ZM300.523 49L305.551 42.25L309.582 36.5781H311.914L306.781 43.5039L302.855 49H300.523ZM309.582 49L305.574 43.4805L300.523 36.5781H302.855L306.91 42.2266L311.914 49H309.582ZM314.586 49L319.613 42.25L323.645 36.5781H325.977L320.844 43.5039L316.918 49H314.586ZM323.645 49L319.637 43.4805L314.586 36.5781H316.918L320.973 42.2266L325.977 49H323.645ZM328.648 49L333.676 42.25L337.707 36.5781H340.039L334.906 43.5039L330.98 49H328.648ZM337.707 49L333.699 43.4805L328.648 36.5781H330.98L335.035 42.2266L340.039 49H337.707ZM342.711 49L347.738 42.25L351.77 36.5781H354.102L348.969 43.5039L345.043 49H342.711ZM351.77 49L347.762 43.4805L342.711 36.5781H345.043L349.098 42.2266L354.102 49H351.77ZM370.836 49L375.863 42.25L379.895 36.5781H382.227L377.094 43.5039L373.168 49H370.836ZM379.895 49L375.887 43.4805L370.836 36.5781H373.168L377.223 42.2266L382.227 49H379.895ZM384.898 49L389.926 42.25L393.957 36.5781H396.289L391.156 43.5039L387.23 49H384.898ZM393.957 49L389.949 43.4805L384.898 36.5781H387.23L391.285 42.2266L396.289 49H393.957ZM398.961 49L403.988 42.25L408.02 36.5781H410.352L405.219 43.5039L401.293 49H398.961ZM408.02 49L404.012 43.4805L398.961 36.5781H401.293L405.348 42.2266L410.352 49H408.02ZM413.023 49L418.051 42.25L422.082 36.5781H424.414L419.281 43.5039L415.355 49H413.023ZM422.082 49L418.074 43.4805L413.023 36.5781H415.355L419.41 42.2266L424.414 49H422.082ZM427.086 49L432.113 42.25L436.145 36.5781H438.477L433.344 43.5039L429.418 49H427.086ZM436.145 49L432.137 43.4805L427.086 36.5781H429.418L433.473 42.2266L438.477 49H436.145ZM441.148 49L446.176 42.25L450.207 36.5781H452.539L447.406 43.5039L443.48 49H441.148ZM450.207 49L446.199 43.4805L441.148 36.5781H443.48L447.535 42.2266L452.539 49H450.207ZM455.211 49L460.238 42.25L464.27 36.5781H466.602L461.469 43.5039L457.543 49H455.211ZM464.27 49L460.262 43.4805L455.211 36.5781H457.543L461.598 42.2266L466.602 49H464.27ZM469.273 49L474.301 42.25L478.332 36.5781H480.664L475.531 43.5039L471.605 49H469.273ZM478.332 49L474.324 43.4805L469.273 36.5781H471.605L475.66 42.2266L480.664 49H478.332ZM483.336 49L488.363 42.25L492.395 36.5781H494.727L489.594 43.5039L485.668 49H483.336ZM492.395 49L488.387 43.4805L483.336 36.5781H485.668L489.723 42.2266L494.727 49H492.395ZM497.398 49L502.426 42.25L506.457 36.5781H508.789L503.656 43.5039L499.73 49H497.398ZM506.457 49L502.449 43.4805L497.398 36.5781H499.73L503.785 42.2266L508.789 49H506.457ZM511.461 49L516.488 42.25L520.52 36.5781H522.852L517.719 43.5039L513.793 49H511.461ZM520.52 49L516.512 43.4805L511.461 36.5781H513.793L517.848 42.2266L522.852 49H520.52ZM525.523 49L530.551 42.25L534.582 36.5781H536.914L531.781 43.5039L527.855 49H525.523ZM534.582 49L530.574 43.4805L525.523 36.5781H527.855L531.91 42.2266L536.914 49H534.582Z" fill="#E1E1FF"/>
<path d="M145.766 41.5938V39.7891H157.297V41.5938H145.766ZM216.078 41.5938V39.7891H227.609V41.5938H216.078ZM286.391 41.5938V39.7891H297.922V41.5938H286.391ZM356.703 41.5938V39.7891H368.234V41.5938H356.703Z" fill="#E1E1FF" fill-opacity="0.5"/>
</svg>
