<svg width="646" height="390" viewBox="0 0 646 390" fill="none" xmlns="http://www.w3.org/2000/svg">
<rect width="646" height="390" rx="16" fill="#181925"/>
<path d="M102.02 95.72C103.207 95.72 104.2 95.8333 105 96.06C105.813 96.2867 106.42 96.66 106.82 97.18C107.233 97.7 107.44 98.3933 107.44 99.26C107.44 99.82 107.333 100.32 107.12 100.76C106.92 101.187 106.613 101.547 106.2 101.84C105.8 102.12 105.307 102.313 104.72 102.42V102.52C105.32 102.613 105.86 102.787 106.34 103.04C106.833 103.293 107.22 103.653 107.5 104.12C107.78 104.587 107.92 105.193 107.92 105.94C107.92 106.807 107.72 107.547 107.32 108.16C106.92 108.76 106.347 109.22 105.6 109.54C104.867 109.847 103.987 110 102.96 110H97.94V95.72H102.02ZM102.38 101.8C103.607 101.8 104.447 101.607 104.9 101.22C105.353 100.82 105.58 100.233 105.58 99.46C105.58 98.6733 105.3 98.1133 104.74 97.78C104.193 97.4333 103.313 97.26 102.1 97.26H99.74V101.8H102.38ZM99.74 103.3V108.48H102.62C103.887 108.48 104.767 108.233 105.26 107.74C105.753 107.247 106 106.6 106 105.8C106 105.293 105.887 104.853 105.66 104.48C105.447 104.107 105.08 103.82 104.56 103.62C104.053 103.407 103.36 103.3 102.48 103.3H99.74ZM114.768 99.1C116.074 99.1 117.041 99.3867 117.668 99.96C118.294 100.533 118.608 101.447 118.608 102.7V110H117.328L116.988 108.48H116.908C116.601 108.867 116.281 109.193 115.948 109.46C115.628 109.713 115.254 109.9 114.828 110.02C114.414 110.14 113.908 110.2 113.308 110.2C112.668 110.2 112.088 110.087 111.568 109.86C111.061 109.633 110.661 109.287 110.368 108.82C110.074 108.34 109.928 107.74 109.928 107.02C109.928 105.953 110.348 105.133 111.188 104.56C112.028 103.973 113.321 103.653 115.068 103.6L116.888 103.54V102.9C116.888 102.007 116.694 101.387 116.308 101.04C115.921 100.693 115.374 100.52 114.668 100.52C114.108 100.52 113.574 100.607 113.068 100.78C112.561 100.94 112.088 101.127 111.648 101.34L111.108 100.02C111.574 99.7667 112.128 99.5533 112.768 99.38C113.408 99.1933 114.074 99.1 114.768 99.1ZM115.288 104.82C113.954 104.873 113.028 105.087 112.508 105.46C112.001 105.833 111.748 106.36 111.748 107.04C111.748 107.64 111.928 108.08 112.288 108.36C112.661 108.64 113.134 108.78 113.708 108.78C114.614 108.78 115.368 108.533 115.968 108.04C116.568 107.533 116.868 106.76 116.868 105.72V104.76L115.288 104.82ZM127.019 99.08C128.339 99.08 129.399 99.54 130.199 100.46C131.012 101.38 131.419 102.767 131.419 104.62C131.419 105.833 131.232 106.86 130.859 107.7C130.499 108.527 129.985 109.153 129.319 109.58C128.665 109.993 127.892 110.2 126.999 110.2C126.452 110.2 125.965 110.127 125.539 109.98C125.112 109.833 124.745 109.647 124.439 109.42C124.145 109.18 123.892 108.92 123.679 108.64H123.559C123.585 108.867 123.612 109.153 123.639 109.5C123.665 109.847 123.679 110.147 123.679 110.4V114.8H121.919V99.28H123.359L123.599 100.74H123.679C123.892 100.433 124.145 100.153 124.439 99.9C124.745 99.6467 125.105 99.4467 125.519 99.3C125.945 99.1533 126.445 99.08 127.019 99.08ZM126.699 100.56C125.979 100.56 125.399 100.7 124.959 100.98C124.519 101.247 124.199 101.653 123.999 102.2C123.799 102.747 123.692 103.44 123.679 104.28V104.62C123.679 105.5 123.772 106.247 123.959 106.86C124.145 107.473 124.459 107.94 124.899 108.26C125.352 108.58 125.965 108.74 126.739 108.74C127.392 108.74 127.925 108.56 128.339 108.2C128.765 107.84 129.079 107.353 129.279 106.74C129.492 106.113 129.599 105.4 129.599 104.6C129.599 103.373 129.359 102.393 128.879 101.66C128.412 100.927 127.685 100.56 126.699 100.56ZM135.883 105.82C135.883 105.94 135.877 106.113 135.863 106.34C135.863 106.553 135.857 106.787 135.843 107.04C135.83 107.28 135.817 107.513 135.803 107.74C135.79 107.953 135.777 108.127 135.763 108.26L141.503 99.28H143.663V110H142.023V103.68C142.023 103.467 142.023 103.187 142.023 102.84C142.037 102.493 142.05 102.153 142.063 101.82C142.077 101.473 142.09 101.213 142.103 101.04L136.403 110H134.223V99.28H135.883V105.82ZM151.135 99.1C152.442 99.1 153.408 99.3867 154.035 99.96C154.662 100.533 154.975 101.447 154.975 102.7V110H153.695L153.355 108.48H153.275C152.968 108.867 152.648 109.193 152.315 109.46C151.995 109.713 151.622 109.9 151.195 110.02C150.782 110.14 150.275 110.2 149.675 110.2C149.035 110.2 148.455 110.087 147.935 109.86C147.428 109.633 147.028 109.287 146.735 108.82C146.442 108.34 146.295 107.74 146.295 107.02C146.295 105.953 146.715 105.133 147.555 104.56C148.395 103.973 149.688 103.653 151.435 103.6L153.255 103.54V102.9C153.255 102.007 153.062 101.387 152.675 101.04C152.288 100.693 151.742 100.52 151.035 100.52C150.475 100.52 149.942 100.607 149.435 100.78C148.928 100.94 148.455 101.127 148.015 101.34L147.475 100.02C147.942 99.7667 148.495 99.5533 149.135 99.38C149.775 99.1933 150.442 99.1 151.135 99.1ZM151.655 104.82C150.322 104.873 149.395 105.087 148.875 105.46C148.368 105.833 148.115 106.36 148.115 107.04C148.115 107.64 148.295 108.08 148.655 108.36C149.028 108.64 149.502 108.78 150.075 108.78C150.982 108.78 151.735 108.533 152.335 108.04C152.935 107.533 153.235 106.76 153.235 105.72V104.76L151.655 104.82ZM160.046 99.28V103.74H165.866V99.28H167.626V110H165.866V105.22H160.046V110H158.286V99.28H160.046ZM178.42 100.76H174.92V110H173.18V100.76H169.72V99.28H178.42V100.76ZM180.532 110V99.28H182.292V103.68H185.072C186.005 103.68 186.772 103.793 187.372 104.02C187.972 104.247 188.419 104.587 188.712 105.04C189.005 105.48 189.152 106.04 189.152 106.72C189.152 107.387 189.005 107.967 188.712 108.46C188.432 108.953 187.985 109.333 187.372 109.6C186.772 109.867 185.979 110 184.992 110H180.532ZM184.832 108.58C185.592 108.58 186.212 108.453 186.692 108.2C187.172 107.933 187.412 107.473 187.412 106.82C187.412 106.167 187.192 105.727 186.752 105.5C186.312 105.26 185.679 105.14 184.852 105.14H182.292V108.58H184.832ZM190.932 110V99.28H192.692V110H190.932ZM210.814 100.24C210.814 100.947 210.647 101.613 210.314 102.24C209.98 102.867 209.447 103.38 208.714 103.78C207.98 104.167 207.04 104.36 205.894 104.36H203.374V110H201.094V96.1H205.894C206.96 96.1 207.86 96.2867 208.594 96.66C209.34 97.02 209.894 97.5133 210.254 98.14C210.627 98.7667 210.814 99.4667 210.814 100.24ZM205.894 102.5C206.76 102.5 207.407 102.307 207.834 101.92C208.26 101.52 208.474 100.96 208.474 100.24C208.474 98.72 207.614 97.96 205.894 97.96H203.374V102.5H205.894ZM215.248 96.1V104.96C215.248 106.013 215.522 106.807 216.068 107.34C216.628 107.873 217.402 108.14 218.388 108.14C219.388 108.14 220.162 107.873 220.708 107.34C221.268 106.807 221.548 106.013 221.548 104.96V96.1H223.828V104.92C223.828 106.053 223.582 107.013 223.088 107.8C222.595 108.587 221.935 109.173 221.108 109.56C220.282 109.947 219.368 110.14 218.368 110.14C217.368 110.14 216.455 109.947 215.628 109.56C214.815 109.173 214.168 108.587 213.688 107.8C213.208 107.013 212.968 106.053 212.968 104.92V96.1H215.248ZM229.077 96.1V110H226.797V96.1H229.077ZM236.61 96.1C238.09 96.1 239.384 96.3867 240.49 96.96C241.61 97.52 242.47 98.3333 243.07 99.4C243.684 100.453 243.99 101.687 243.99 103.1C243.99 104.513 243.684 105.74 243.07 106.78C242.47 107.82 241.61 108.62 240.49 109.18C239.384 109.727 238.09 110 236.61 110H232.07V96.1H236.61ZM236.61 108.14C238.237 108.14 239.484 107.7 240.35 106.82C241.217 105.94 241.65 104.7 241.65 103.1C241.65 101.487 241.217 100.227 240.35 99.32C239.484 98.4133 238.237 97.96 236.61 97.96H234.35V108.14H236.61Z" fill="#E1E1FF"/>
<g clip-path="url(#clip0_120_434)">
<rect x="96" y="134" width="49" height="37" rx="6" fill="#32354E"/>
<path d="M113.031 161.234C109.312 161.234 107.453 158.422 107.453 152.797C107.453 147.016 109.312 144.125 113.031 144.125C116.75 144.125 118.609 147.016 118.609 152.797C118.609 158.422 116.75 161.234 113.031 161.234ZM113.031 154.355C112.562 154.355 112.184 154.215 111.895 153.934C111.613 153.645 111.473 153.266 111.473 152.797C111.473 152.328 111.613 151.953 111.895 151.672C112.184 151.383 112.562 151.238 113.031 151.238C113.5 151.238 113.875 151.383 114.156 151.672C114.445 151.953 114.59 152.328 114.59 152.797C114.59 153.266 114.445 153.645 114.156 153.934C113.875 154.215 113.5 154.355 113.031 154.355ZM113.031 159.441C115.398 159.441 116.582 157.227 116.582 152.797C116.582 148.211 115.398 145.918 113.031 145.918C110.664 145.918 109.48 148.211 109.48 152.797C109.48 157.227 110.664 159.441 113.031 159.441ZM127.094 161.234C123.375 161.234 121.516 158.422 121.516 152.797C121.516 147.016 123.375 144.125 127.094 144.125C130.812 144.125 132.672 147.016 132.672 152.797C132.672 158.422 130.812 161.234 127.094 161.234ZM127.094 154.355C126.625 154.355 126.246 154.215 125.957 153.934C125.676 153.645 125.535 153.266 125.535 152.797C125.535 152.328 125.676 151.953 125.957 151.672C126.246 151.383 126.625 151.238 127.094 151.238C127.562 151.238 127.938 151.383 128.219 151.672C128.508 151.953 128.652 152.328 128.652 152.797C128.652 153.266 128.508 153.645 128.219 153.934C127.938 154.215 127.562 154.355 127.094 154.355ZM127.094 159.441C129.461 159.441 130.645 157.227 130.645 152.797C130.645 148.211 129.461 145.918 127.094 145.918C124.727 145.918 123.543 148.211 123.543 152.797C123.543 157.227 124.727 159.441 127.094 159.441Z" fill="#E1E1FF"/>
<path d="M162.266 153.594V151.789H173.797V153.594H162.266Z" fill="#E1E1FF"/>
<path d="M207.432 161H205.272V153.008H196.488V161H194.328V143.864H196.488V151.112H205.272V143.864H207.432V161ZM216.797 147.896C217.901 147.896 218.845 148.136 219.629 148.616C220.429 149.096 221.037 149.776 221.453 150.656C221.885 151.52 222.101 152.536 222.101 153.704V154.976H213.293C213.325 156.432 213.693 157.544 214.397 158.312C215.117 159.064 216.117 159.44 217.397 159.44C218.213 159.44 218.933 159.368 219.557 159.224C220.197 159.064 220.853 158.84 221.525 158.552V160.4C220.869 160.688 220.221 160.896 219.581 161.024C218.941 161.168 218.181 161.24 217.301 161.24C216.085 161.24 215.005 160.992 214.061 160.496C213.133 160 212.405 159.264 211.877 158.288C211.365 157.296 211.109 156.088 211.109 154.664C211.109 153.256 211.341 152.048 211.805 151.04C212.285 150.032 212.949 149.256 213.797 148.712C214.661 148.168 215.661 147.896 216.797 147.896ZM216.773 149.624C215.765 149.624 214.965 149.952 214.373 150.608C213.797 151.248 213.453 152.144 213.341 153.296H219.893C219.893 152.56 219.781 151.92 219.557 151.376C219.333 150.832 218.989 150.408 218.525 150.104C218.077 149.784 217.493 149.624 216.773 149.624ZM227.368 155.984C227.368 156.128 227.36 156.336 227.344 156.608C227.344 156.864 227.336 157.144 227.32 157.448C227.304 157.736 227.288 158.016 227.272 158.288C227.256 158.544 227.24 158.752 227.224 158.912L234.112 148.136H236.704V161H234.736V153.416C234.736 153.16 234.736 152.824 234.736 152.408C234.752 151.992 234.768 151.584 234.784 151.184C234.8 150.768 234.816 150.456 234.832 150.248L227.992 161H225.376V148.136H227.368V155.984ZM244.182 147.896C245.158 147.896 246.006 148.032 246.726 148.304C247.446 148.56 248.006 148.944 248.406 149.456C248.806 149.952 249.006 150.56 249.006 151.28C249.006 152.064 248.79 152.688 248.358 153.152C247.926 153.6 247.334 153.928 246.582 154.136V154.232C247.094 154.376 247.566 154.576 247.998 154.832C248.43 155.088 248.774 155.424 249.03 155.84C249.302 156.256 249.438 156.792 249.438 157.448C249.438 158.152 249.238 158.792 248.838 159.368C248.454 159.944 247.854 160.4 247.038 160.736C246.238 161.072 245.206 161.24 243.942 161.24C243.334 161.24 242.75 161.208 242.19 161.144C241.646 161.08 241.15 160.984 240.702 160.856C240.27 160.728 239.886 160.576 239.55 160.4V158.504C240.094 158.76 240.734 158.992 241.47 159.2C242.222 159.408 243.038 159.512 243.918 159.512C244.558 159.512 245.134 159.44 245.646 159.296C246.174 159.152 246.59 158.928 246.894 158.624C247.198 158.304 247.35 157.872 247.35 157.328C247.35 156.832 247.214 156.432 246.942 156.128C246.67 155.808 246.262 155.568 245.718 155.408C245.19 155.248 244.51 155.168 243.678 155.168H241.95V153.44H243.342C244.446 153.44 245.326 153.296 245.982 153.008C246.654 152.704 246.99 152.192 246.99 151.472C246.99 150.864 246.734 150.408 246.222 150.104C245.726 149.8 245.006 149.648 244.062 149.648C243.358 149.648 242.734 149.72 242.19 149.864C241.662 149.992 241.078 150.192 240.438 150.464L239.694 148.784C240.382 148.48 241.102 148.256 241.854 148.112C242.606 147.968 243.382 147.896 244.182 147.896ZM262.907 151.376C262.907 152.176 262.667 152.8 262.187 153.248C261.707 153.696 261.091 154 260.339 154.16V154.256C261.139 154.368 261.835 154.656 262.427 155.12C263.019 155.568 263.315 156.272 263.315 157.232C263.315 157.776 263.211 158.28 263.003 158.744C262.811 159.208 262.507 159.608 262.091 159.944C261.675 160.28 261.139 160.544 260.483 160.736C259.827 160.912 259.035 161 258.107 161H252.563V148.136H258.083C258.995 148.136 259.811 148.24 260.531 148.448C261.267 148.64 261.843 148.976 262.259 149.456C262.691 149.92 262.907 150.56 262.907 151.376ZM261.131 157.232C261.131 156.496 260.851 155.968 260.291 155.648C259.731 155.328 258.907 155.168 257.819 155.168H254.675V159.296H257.867C258.923 159.296 259.731 159.144 260.291 158.84C260.851 158.52 261.131 157.984 261.131 157.232ZM260.771 151.64C260.771 151.032 260.547 150.592 260.099 150.32C259.667 150.032 258.955 149.888 257.963 149.888H254.675V153.416H257.579C258.619 153.416 259.411 153.272 259.955 152.984C260.499 152.696 260.771 152.248 260.771 151.64ZM271.36 147.896C272.464 147.896 273.408 148.136 274.192 148.616C274.992 149.096 275.6 149.776 276.016 150.656C276.448 151.52 276.664 152.536 276.664 153.704V154.976H267.856C267.888 156.432 268.256 157.544 268.96 158.312C269.68 159.064 270.68 159.44 271.96 159.44C272.776 159.44 273.496 159.368 274.12 159.224C274.76 159.064 275.416 158.84 276.088 158.552V160.4C275.432 160.688 274.784 160.896 274.144 161.024C273.504 161.168 272.744 161.24 271.864 161.24C270.648 161.24 269.568 160.992 268.624 160.496C267.696 160 266.968 159.264 266.44 158.288C265.928 157.296 265.672 156.088 265.672 154.664C265.672 153.256 265.904 152.048 266.368 151.04C266.848 150.032 267.512 149.256 268.36 148.712C269.224 148.168 270.224 147.896 271.36 147.896ZM271.336 149.624C270.328 149.624 269.528 149.952 268.936 150.608C268.36 151.248 268.016 152.144 267.904 153.296H274.456C274.456 152.56 274.344 151.92 274.12 151.376C273.896 150.832 273.552 150.408 273.088 150.104C272.64 149.784 272.056 149.624 271.336 149.624ZM285.098 161.24C283.962 161.24 282.946 161.008 282.05 160.544C281.17 160.08 280.474 159.36 279.962 158.384C279.466 157.408 279.218 156.16 279.218 154.64C279.218 153.056 279.482 151.768 280.01 150.776C280.538 149.784 281.25 149.056 282.146 148.592C283.058 148.128 284.09 147.896 285.242 147.896C285.898 147.896 286.53 147.968 287.138 148.112C287.746 148.24 288.242 148.4 288.626 148.592L287.978 150.344C287.594 150.2 287.146 150.064 286.634 149.936C286.122 149.808 285.642 149.744 285.194 149.744C284.33 149.744 283.618 149.928 283.058 150.296C282.498 150.664 282.082 151.208 281.81 151.928C281.538 152.648 281.402 153.544 281.402 154.616C281.402 155.64 281.538 156.512 281.81 157.232C282.082 157.952 282.49 158.496 283.034 158.864C283.578 159.232 284.258 159.416 285.074 159.416C285.778 159.416 286.394 159.344 286.922 159.2C287.466 159.056 287.962 158.88 288.41 158.672V160.544C287.978 160.768 287.498 160.936 286.97 161.048C286.458 161.176 285.834 161.24 285.098 161.24ZM300.35 149.912H296.15V161H294.062V149.912H289.91V148.136H300.35V149.912ZM304.996 148.136V153.488H311.98V148.136H314.092V161H311.98V155.264H304.996V161H302.884V148.136H304.996ZM329.349 154.544C329.349 155.616 329.205 156.568 328.917 157.4C328.645 158.216 328.245 158.912 327.717 159.488C327.205 160.064 326.573 160.504 325.821 160.808C325.085 161.096 324.261 161.24 323.349 161.24C322.501 161.24 321.717 161.096 320.997 160.808C320.277 160.504 319.653 160.064 319.125 159.488C318.597 158.912 318.181 158.216 317.877 157.4C317.589 156.568 317.445 155.616 317.445 154.544C317.445 153.12 317.685 151.92 318.165 150.944C318.645 149.952 319.333 149.2 320.229 148.688C321.125 148.16 322.189 147.896 323.421 147.896C324.589 147.896 325.613 148.16 326.493 148.688C327.389 149.2 328.085 149.952 328.581 150.944C329.093 151.92 329.349 153.12 329.349 154.544ZM319.629 154.544C319.629 155.552 319.757 156.432 320.013 157.184C320.285 157.92 320.701 158.488 321.261 158.888C321.821 159.288 322.533 159.488 323.397 159.488C324.261 159.488 324.973 159.288 325.533 158.888C326.093 158.488 326.501 157.92 326.757 157.184C327.029 156.432 327.165 155.552 327.165 154.544C327.165 153.52 327.029 152.648 326.757 151.928C326.485 151.208 326.069 150.656 325.509 150.272C324.965 149.872 324.253 149.672 323.373 149.672C322.061 149.672 321.109 150.104 320.517 150.968C319.925 151.832 319.629 153.024 319.629 154.544ZM344.519 165.464C342.983 163.96 341.783 162.048 340.919 159.728C340.071 157.408 339.647 154.904 339.647 152.216C339.647 149.464 340.095 146.896 340.991 144.512C341.903 142.112 343.199 140.136 344.879 138.584H347.159V138.8C345.367 140.48 344.015 142.504 343.103 144.872C342.207 147.224 341.759 149.672 341.759 152.216C341.759 154.696 342.183 157.064 343.031 159.32C343.895 161.576 345.151 163.552 346.799 165.248V165.464H344.519ZM355.153 161.24C354.017 161.24 353.001 161.008 352.105 160.544C351.225 160.08 350.529 159.36 350.017 158.384C349.521 157.408 349.273 156.16 349.273 154.64C349.273 153.056 349.537 151.768 350.065 150.776C350.593 149.784 351.305 149.056 352.201 148.592C353.113 148.128 354.145 147.896 355.297 147.896C355.953 147.896 356.585 147.968 357.193 148.112C357.801 148.24 358.297 148.4 358.681 148.592L358.033 150.344C357.649 150.2 357.201 150.064 356.689 149.936C356.177 149.808 355.697 149.744 355.249 149.744C354.385 149.744 353.673 149.928 353.113 150.296C352.553 150.664 352.137 151.208 351.865 151.928C351.593 152.648 351.457 153.544 351.457 154.616C351.457 155.64 351.593 156.512 351.865 157.232C352.137 157.952 352.545 158.496 353.089 158.864C353.633 159.232 354.313 159.416 355.129 159.416C355.833 159.416 356.449 159.344 356.977 159.2C357.521 159.056 358.017 158.88 358.465 158.672V160.544C358.033 160.768 357.553 160.936 357.025 161.048C356.513 161.176 355.889 161.24 355.153 161.24ZM372.708 154.544C372.708 155.616 372.564 156.568 372.276 157.4C372.004 158.216 371.604 158.912 371.076 159.488C370.564 160.064 369.932 160.504 369.18 160.808C368.444 161.096 367.62 161.24 366.708 161.24C365.86 161.24 365.076 161.096 364.356 160.808C363.636 160.504 363.012 160.064 362.484 159.488C361.956 158.912 361.54 158.216 361.236 157.4C360.948 156.568 360.804 155.616 360.804 154.544C360.804 153.12 361.044 151.92 361.524 150.944C362.004 149.952 362.692 149.2 363.588 148.688C364.484 148.16 365.548 147.896 366.78 147.896C367.948 147.896 368.972 148.16 369.852 148.688C370.748 149.2 371.444 149.952 371.94 150.944C372.452 151.92 372.708 153.12 372.708 154.544ZM362.988 154.544C362.988 155.552 363.116 156.432 363.372 157.184C363.644 157.92 364.06 158.488 364.62 158.888C365.18 159.288 365.892 159.488 366.756 159.488C367.62 159.488 368.332 159.288 368.892 158.888C369.452 158.488 369.86 157.92 370.116 157.184C370.388 156.432 370.524 155.552 370.524 154.544C370.524 153.52 370.388 152.648 370.116 151.928C369.844 151.208 369.428 150.656 368.868 150.272C368.324 149.872 367.612 149.672 366.732 149.672C365.42 149.672 364.468 150.104 363.876 150.968C363.284 151.832 362.988 153.024 362.988 154.544ZM379.44 147.896C380.416 147.896 381.264 148.032 381.984 148.304C382.704 148.56 383.264 148.944 383.664 149.456C384.064 149.952 384.264 150.56 384.264 151.28C384.264 152.064 384.048 152.688 383.616 153.152C383.184 153.6 382.592 153.928 381.84 154.136V154.232C382.352 154.376 382.824 154.576 383.256 154.832C383.688 155.088 384.032 155.424 384.288 155.84C384.56 156.256 384.696 156.792 384.696 157.448C384.696 158.152 384.496 158.792 384.096 159.368C383.712 159.944 383.112 160.4 382.296 160.736C381.496 161.072 380.464 161.24 379.2 161.24C378.592 161.24 378.008 161.208 377.448 161.144C376.904 161.08 376.408 160.984 375.96 160.856C375.528 160.728 375.144 160.576 374.808 160.4V158.504C375.352 158.76 375.992 158.992 376.728 159.2C377.48 159.408 378.296 159.512 379.176 159.512C379.816 159.512 380.392 159.44 380.904 159.296C381.432 159.152 381.848 158.928 382.152 158.624C382.456 158.304 382.608 157.872 382.608 157.328C382.608 156.832 382.472 156.432 382.2 156.128C381.928 155.808 381.52 155.568 380.976 155.408C380.448 155.248 379.768 155.168 378.936 155.168H377.208V153.44H378.6C379.704 153.44 380.584 153.296 381.24 153.008C381.912 152.704 382.248 152.192 382.248 151.472C382.248 150.864 381.992 150.408 381.48 150.104C380.984 149.8 380.264 149.648 379.32 149.648C378.616 149.648 377.992 149.72 377.448 149.864C376.92 149.992 376.336 150.192 375.696 150.464L374.952 148.784C375.64 148.48 376.36 148.256 377.112 148.112C377.864 147.968 378.64 147.896 379.44 147.896ZM397.373 148.136V159.224H399.245V165.464H397.205V161H388.253V165.464H386.237V159.224H387.269C388.005 158.2 388.613 157.088 389.093 155.888C389.589 154.672 389.957 153.408 390.197 152.096C390.453 150.768 390.589 149.448 390.605 148.136H397.373ZM392.477 149.792C392.413 150.88 392.245 152.008 391.973 153.176C391.701 154.328 391.349 155.432 390.917 156.488C390.501 157.544 390.013 158.456 389.453 159.224H395.333V149.792H392.477ZM406.639 147.92C408.207 147.92 409.367 148.264 410.119 148.952C410.871 149.64 411.247 150.736 411.247 152.24V161H409.711L409.303 159.176H409.207C408.839 159.64 408.455 160.032 408.055 160.352C407.671 160.656 407.223 160.88 406.711 161.024C406.215 161.168 405.607 161.24 404.887 161.24C404.119 161.24 403.423 161.104 402.799 160.832C402.191 160.56 401.711 160.144 401.359 159.584C401.007 159.008 400.831 158.288 400.831 157.424C400.831 156.144 401.335 155.16 402.343 154.472C403.351 153.768 404.903 153.384 406.999 153.32L409.183 153.248V152.48C409.183 151.408 408.951 150.664 408.487 150.248C408.023 149.832 407.367 149.624 406.519 149.624C405.847 149.624 405.207 149.728 404.599 149.936C403.991 150.128 403.423 150.352 402.895 150.608L402.247 149.024C402.807 148.72 403.471 148.464 404.239 148.256C405.007 148.032 405.807 147.92 406.639 147.92ZM407.263 154.784C405.663 154.848 404.551 155.104 403.927 155.552C403.319 156 403.015 156.632 403.015 157.448C403.015 158.168 403.231 158.696 403.663 159.032C404.111 159.368 404.679 159.536 405.367 159.536C406.455 159.536 407.359 159.24 408.079 158.648C408.799 158.04 409.159 157.112 409.159 155.864V154.712L407.263 154.784ZM417.332 148.136V153.488H424.316V148.136H426.428V161H424.316V155.264H417.332V161H415.22V148.136H417.332ZM441.685 154.544C441.685 155.616 441.541 156.568 441.253 157.4C440.981 158.216 440.581 158.912 440.053 159.488C439.541 160.064 438.909 160.504 438.157 160.808C437.421 161.096 436.597 161.24 435.685 161.24C434.837 161.24 434.053 161.096 433.333 160.808C432.613 160.504 431.989 160.064 431.461 159.488C430.933 158.912 430.517 158.216 430.213 157.4C429.925 156.568 429.781 155.616 429.781 154.544C429.781 153.12 430.021 151.92 430.501 150.944C430.981 149.952 431.669 149.2 432.565 148.688C433.461 148.16 434.525 147.896 435.757 147.896C436.925 147.896 437.949 148.16 438.829 148.688C439.725 149.2 440.421 149.952 440.917 150.944C441.429 151.92 441.685 153.12 441.685 154.544ZM431.965 154.544C431.965 155.552 432.093 156.432 432.349 157.184C432.621 157.92 433.037 158.488 433.597 158.888C434.157 159.288 434.869 159.488 435.733 159.488C436.597 159.488 437.309 159.288 437.869 158.888C438.429 158.488 438.837 157.92 439.093 157.184C439.365 156.432 439.501 155.552 439.501 154.544C439.501 153.52 439.365 152.648 439.093 151.928C438.821 151.208 438.405 150.656 437.845 150.272C437.301 149.872 436.589 149.672 435.709 149.672C434.397 149.672 433.445 150.104 432.853 150.968C432.261 151.832 431.965 153.024 431.965 154.544ZM453.423 155.984C453.423 156.128 453.415 156.336 453.399 156.608C453.399 156.864 453.391 157.144 453.375 157.448C453.359 157.736 453.343 158.016 453.327 158.288C453.311 158.544 453.295 158.752 453.279 158.912L460.167 148.136H462.759V161H460.791V153.416C460.791 153.16 460.791 152.824 460.791 152.408C460.807 151.992 460.823 151.584 460.839 151.184C460.855 150.768 460.871 150.456 460.887 150.248L454.047 161H451.431V148.136H453.423V155.984ZM470.237 147.896C471.213 147.896 472.061 148.032 472.781 148.304C473.501 148.56 474.061 148.944 474.461 149.456C474.861 149.952 475.061 150.56 475.061 151.28C475.061 152.064 474.845 152.688 474.413 153.152C473.981 153.6 473.389 153.928 472.637 154.136V154.232C473.149 154.376 473.621 154.576 474.053 154.832C474.485 155.088 474.829 155.424 475.085 155.84C475.357 156.256 475.493 156.792 475.493 157.448C475.493 158.152 475.293 158.792 474.893 159.368C474.509 159.944 473.909 160.4 473.093 160.736C472.293 161.072 471.261 161.24 469.997 161.24C469.389 161.24 468.805 161.208 468.245 161.144C467.701 161.08 467.205 160.984 466.757 160.856C466.325 160.728 465.941 160.576 465.604 160.4V158.504C466.149 158.76 466.789 158.992 467.525 159.2C468.277 159.408 469.093 159.512 469.973 159.512C470.613 159.512 471.189 159.44 471.701 159.296C472.229 159.152 472.645 158.928 472.949 158.624C473.253 158.304 473.405 157.872 473.405 157.328C473.405 156.832 473.269 156.432 472.997 156.128C472.725 155.808 472.317 155.568 471.773 155.408C471.245 155.248 470.565 155.168 469.733 155.168H468.005V153.44H469.397C470.501 153.44 471.381 153.296 472.037 153.008C472.709 152.704 473.045 152.192 473.045 151.472C473.045 150.864 472.789 150.408 472.277 150.104C471.781 149.8 471.061 149.648 470.117 149.648C469.413 149.648 468.789 149.72 468.245 149.864C467.717 149.992 467.133 150.192 466.493 150.464L465.749 148.784C466.437 148.48 467.157 148.256 467.909 148.112C468.661 147.968 469.437 147.896 470.237 147.896ZM486.961 144.272V154.856C486.961 156.344 487.321 157.448 488.041 158.168C488.777 158.888 489.793 159.248 491.089 159.248C492.369 159.248 493.369 158.888 494.089 158.168C494.825 157.448 495.193 156.344 495.193 154.856V144.272H497.377V154.832C497.377 156.224 497.097 157.4 496.537 158.36C495.977 159.304 495.217 160.008 494.257 160.472C493.313 160.936 492.249 161.168 491.065 161.168C489.881 161.168 488.809 160.936 487.849 160.472C486.905 160.008 486.153 159.304 485.593 158.36C485.049 157.4 484.777 156.224 484.777 154.832V144.272H486.961ZM503.156 144.272V154.856C503.156 156.344 503.516 157.448 504.236 158.168C504.972 158.888 505.988 159.248 507.284 159.248C508.564 159.248 509.564 158.888 510.284 158.168C511.02 157.448 511.388 156.344 511.388 154.856V144.272H513.572V154.832C513.572 156.224 513.292 157.4 512.732 158.36C512.172 159.304 511.412 160.008 510.452 160.472C509.508 160.936 508.444 161.168 507.26 161.168C506.076 161.168 505.004 160.936 504.044 160.472C503.1 160.008 502.348 159.304 501.788 158.36C501.244 157.4 500.972 156.224 500.972 154.832V144.272H503.156ZM519.399 144.272V161H517.215V144.272H519.399ZM528.329 144.272C530.153 144.272 531.729 144.616 533.057 145.304C534.401 145.976 535.425 146.944 536.129 148.208C536.849 149.472 537.209 150.96 537.209 152.672C537.209 154.384 536.849 155.872 536.129 157.136C535.425 158.384 534.401 159.344 533.057 160.016C531.729 160.672 530.153 161 528.329 161H523.121V144.272H528.329ZM528.329 159.2C530.489 159.2 532.137 158.632 533.273 157.496C534.409 156.344 534.977 154.736 534.977 152.672C534.977 150.592 534.401 148.968 533.249 147.8C532.113 146.632 530.473 146.048 528.329 146.048H525.305V159.2H528.329ZM539.394 165.464V165.248C541.042 163.552 542.29 161.576 543.138 159.32C544.002 157.064 544.434 154.696 544.434 152.216C544.434 149.672 543.978 147.224 543.066 144.872C542.17 142.504 540.826 140.48 539.034 138.8V138.584H541.314C542.994 140.136 544.282 142.112 545.178 144.512C546.09 146.896 546.546 149.464 546.546 152.216C546.546 154.904 546.114 157.408 545.25 159.728C544.402 162.048 543.21 163.96 541.674 165.464H539.394Z" fill="#E1E1FF"/>
</g>
<g clip-path="url(#clip1_120_434)">
<rect x="96" y="175" width="49" height="37" rx="6" fill="#32354E"/>
<path d="M113.031 202.234C109.312 202.234 107.453 199.422 107.453 193.797C107.453 188.016 109.312 185.125 113.031 185.125C116.75 185.125 118.609 188.016 118.609 193.797C118.609 199.422 116.75 202.234 113.031 202.234ZM113.031 195.355C112.562 195.355 112.184 195.215 111.895 194.934C111.613 194.645 111.473 194.266 111.473 193.797C111.473 193.328 111.613 192.953 111.895 192.672C112.184 192.383 112.562 192.238 113.031 192.238C113.5 192.238 113.875 192.383 114.156 192.672C114.445 192.953 114.59 193.328 114.59 193.797C114.59 194.266 114.445 194.645 114.156 194.934C113.875 195.215 113.5 195.355 113.031 195.355ZM113.031 200.441C115.398 200.441 116.582 198.227 116.582 193.797C116.582 189.211 115.398 186.918 113.031 186.918C110.664 186.918 109.48 189.211 109.48 193.797C109.48 198.227 110.664 200.441 113.031 200.441ZM126.484 202V185.359H128.406V202H126.484ZM122.148 202V200.172H126.719V202H122.148ZM128.172 202V200.172H132.297V202H128.172ZM122.383 188.699V186.766L126.484 185.359V187.34L122.383 188.699Z" fill="#E1E1FF"/>
<path d="M162.266 194.594V192.789H173.797V194.594H162.266Z" fill="#E1E1FF"/>
<path d="M201.672 186.52C200.76 186.52 199.936 186.68 199.2 187C198.464 187.304 197.84 187.76 197.328 188.368C196.816 188.96 196.424 189.688 196.152 190.552C195.88 191.4 195.744 192.36 195.744 193.432C195.744 194.84 195.96 196.064 196.392 197.104C196.84 198.144 197.496 198.944 198.36 199.504C199.24 200.064 200.336 200.344 201.648 200.344C202.4 200.344 203.112 200.28 203.784 200.152C204.456 200.024 205.112 199.864 205.752 199.672V201.544C205.112 201.784 204.448 201.96 203.76 202.072C203.088 202.184 202.28 202.24 201.336 202.24C199.592 202.24 198.136 201.88 196.968 201.16C195.8 200.44 194.92 199.416 194.328 198.088C193.752 196.76 193.464 195.2 193.464 193.408C193.464 192.112 193.64 190.928 193.992 189.856C194.36 188.784 194.888 187.856 195.576 187.072C196.28 186.288 197.144 185.688 198.168 185.272C199.192 184.84 200.368 184.624 201.696 184.624C202.576 184.624 203.424 184.712 204.24 184.888C205.056 185.064 205.784 185.312 206.424 185.632L205.56 187.456C205.032 187.216 204.44 187 203.784 186.808C203.144 186.616 202.44 186.52 201.672 186.52ZM218.996 202H216.86V190.888H213.068C212.908 192.92 212.708 194.656 212.468 196.096C212.228 197.52 211.924 198.68 211.556 199.576C211.188 200.472 210.748 201.128 210.236 201.544C209.724 201.96 209.124 202.168 208.436 202.168C208.228 202.168 208.02 202.152 207.812 202.12C207.62 202.104 207.46 202.064 207.332 202V200.416C207.428 200.448 207.532 200.472 207.644 200.488C207.756 200.504 207.868 200.512 207.98 200.512C208.332 200.512 208.652 200.368 208.94 200.08C209.228 199.792 209.484 199.352 209.708 198.76C209.948 198.168 210.164 197.424 210.356 196.528C210.548 195.616 210.716 194.544 210.86 193.312C211.004 192.08 211.132 190.688 211.244 189.136H218.996V202ZM221.063 189.136H223.319L226.103 196.456C226.263 196.888 226.407 197.304 226.535 197.704C226.679 198.104 226.807 198.496 226.919 198.88C227.031 199.248 227.119 199.608 227.183 199.96H227.279C227.375 199.56 227.527 199.04 227.735 198.4C227.943 197.744 228.159 197.088 228.383 196.432L230.999 189.136H233.279L227.735 203.776C227.431 204.576 227.071 205.272 226.655 205.864C226.255 206.472 225.759 206.936 225.167 207.256C224.591 207.592 223.887 207.76 223.055 207.76C222.671 207.76 222.335 207.736 222.047 207.688C221.759 207.656 221.511 207.616 221.303 207.568V205.888C221.479 205.92 221.687 205.952 221.927 205.984C222.183 206.016 222.447 206.032 222.719 206.032C223.215 206.032 223.639 205.936 223.991 205.744C224.359 205.568 224.671 205.304 224.927 204.952C225.183 204.616 225.399 204.216 225.575 203.752L226.247 202.048L221.063 189.136ZM237.161 193.816C237.161 194.568 237.369 195.128 237.785 195.496C238.217 195.848 238.833 196.024 239.633 196.024C240.433 196.024 241.161 195.904 241.817 195.664C242.473 195.408 243.145 195.072 243.833 194.656V189.136H245.945V202H243.833V196.264C243.113 196.728 242.401 197.096 241.697 197.368C241.009 197.624 240.177 197.752 239.201 197.752C237.889 197.752 236.865 197.408 236.129 196.72C235.409 196.032 235.049 195.112 235.049 193.96V189.136H237.161V193.816ZM254.904 188.92C256.472 188.92 257.632 189.264 258.384 189.952C259.136 190.64 259.512 191.736 259.512 193.24V202H257.976L257.568 200.176H257.472C257.104 200.64 256.72 201.032 256.32 201.352C255.936 201.656 255.488 201.88 254.976 202.024C254.48 202.168 253.872 202.24 253.152 202.24C252.384 202.24 251.688 202.104 251.064 201.832C250.456 201.56 249.976 201.144 249.624 200.584C249.272 200.008 249.096 199.288 249.096 198.424C249.096 197.144 249.6 196.16 250.608 195.472C251.616 194.768 253.168 194.384 255.264 194.32L257.448 194.248V193.48C257.448 192.408 257.216 191.664 256.752 191.248C256.288 190.832 255.632 190.624 254.784 190.624C254.112 190.624 253.472 190.728 252.864 190.936C252.256 191.128 251.688 191.352 251.16 191.608L250.512 190.024C251.072 189.72 251.736 189.464 252.504 189.256C253.272 189.032 254.072 188.92 254.904 188.92ZM255.528 195.784C253.928 195.848 252.816 196.104 252.192 196.552C251.584 197 251.28 197.632 251.28 198.448C251.28 199.168 251.496 199.696 251.928 200.032C252.376 200.368 252.944 200.536 253.632 200.536C254.72 200.536 255.624 200.24 256.344 199.648C257.064 199.04 257.424 198.112 257.424 196.864V195.712L255.528 195.784ZM273.901 183.808C273.837 184.608 273.637 185.28 273.301 185.824C272.981 186.368 272.501 186.776 271.861 187.048C271.221 187.32 270.389 187.456 269.365 187.456C268.325 187.456 267.485 187.32 266.845 187.048C266.221 186.776 265.765 186.376 265.477 185.848C265.189 185.304 265.013 184.624 264.949 183.808H266.917C266.997 184.672 267.221 185.256 267.589 185.56C267.973 185.848 268.581 185.992 269.413 185.992C270.149 185.992 270.725 185.84 271.141 185.536C271.573 185.216 271.829 184.64 271.909 183.808H273.901ZM265.477 196.984C265.477 197.128 265.469 197.336 265.453 197.608C265.453 197.864 265.445 198.144 265.429 198.448C265.413 198.736 265.397 199.016 265.381 199.288C265.365 199.544 265.349 199.752 265.333 199.912L272.221 189.136H274.813V202H272.845V194.416C272.845 194.16 272.845 193.824 272.845 193.408C272.861 192.992 272.877 192.584 272.893 192.184C272.909 191.768 272.925 191.456 272.941 191.248L266.101 202H263.485V189.136H265.477V196.984ZM281.019 189.136V194.488H288.003V189.136H290.115V202H288.003V196.264H281.019V202H278.907V189.136H281.019ZM294.188 202V189.136H296.3V194.416H299.636C300.756 194.416 301.676 194.552 302.396 194.824C303.116 195.096 303.652 195.504 304.004 196.048C304.356 196.576 304.532 197.248 304.532 198.064C304.532 198.864 304.356 199.56 304.004 200.152C303.668 200.744 303.132 201.2 302.396 201.52C301.676 201.84 300.724 202 299.54 202H294.188ZM299.348 200.296C300.26 200.296 301.004 200.144 301.58 199.84C302.156 199.52 302.444 198.968 302.444 198.184C302.444 197.4 302.18 196.872 301.652 196.6C301.124 196.312 300.364 196.168 299.372 196.168H296.3V200.296H299.348ZM306.668 202V189.136H308.78V202H306.668ZM323.284 183.808C323.22 184.608 323.02 185.28 322.684 185.824C322.364 186.368 321.884 186.776 321.244 187.048C320.604 187.32 319.772 187.456 318.748 187.456C317.708 187.456 316.868 187.32 316.228 187.048C315.604 186.776 315.148 186.376 314.86 185.848C314.572 185.304 314.396 184.624 314.332 183.808H316.3C316.38 184.672 316.604 185.256 316.972 185.56C317.356 185.848 317.964 185.992 318.796 185.992C319.532 185.992 320.108 185.84 320.524 185.536C320.956 185.216 321.212 184.64 321.292 183.808H323.284ZM314.86 196.984C314.86 197.128 314.852 197.336 314.836 197.608C314.836 197.864 314.828 198.144 314.812 198.448C314.796 198.736 314.78 199.016 314.764 199.288C314.748 199.544 314.732 199.752 314.716 199.912L321.604 189.136H324.196V202H322.228V194.416C322.228 194.16 322.228 193.824 322.228 193.408C322.244 192.992 322.26 192.584 322.276 192.184C322.292 191.768 322.308 191.456 322.324 191.248L315.484 202H312.868V189.136H314.86V196.984Z" fill="#E1E1FF"/>
</g>
<g clip-path="url(#clip2_120_434)">
<rect x="96" y="216" width="49" height="37" rx="6" fill="#32354E"/>
<path d="M113.031 243.234C109.312 243.234 107.453 240.422 107.453 234.797C107.453 229.016 109.312 226.125 113.031 226.125C116.75 226.125 118.609 229.016 118.609 234.797C118.609 240.422 116.75 243.234 113.031 243.234ZM113.031 236.355C112.562 236.355 112.184 236.215 111.895 235.934C111.613 235.645 111.473 235.266 111.473 234.797C111.473 234.328 111.613 233.953 111.895 233.672C112.184 233.383 112.562 233.238 113.031 233.238C113.5 233.238 113.875 233.383 114.156 233.672C114.445 233.953 114.59 234.328 114.59 234.797C114.59 235.266 114.445 235.645 114.156 235.934C113.875 236.215 113.5 236.355 113.031 236.355ZM113.031 241.441C115.398 241.441 116.582 239.227 116.582 234.797C116.582 230.211 115.398 227.918 113.031 227.918C110.664 227.918 109.48 230.211 109.48 234.797C109.48 239.227 110.664 241.441 113.031 241.441ZM121.938 243V240.738C124.594 239.27 126.578 237.738 127.891 236.145C129.211 234.543 129.871 232.887 129.871 231.176C129.871 230.113 129.602 229.305 129.062 228.75C128.523 228.195 127.727 227.918 126.672 227.918C125.977 227.918 125.277 228.086 124.574 228.422C123.871 228.758 123.246 229.227 122.699 229.828L121.398 228.539C121.969 227.805 122.719 227.219 123.648 226.781C124.586 226.344 125.609 226.125 126.719 226.125C128.422 226.125 129.707 226.551 130.574 227.402C131.441 228.254 131.875 229.512 131.875 231.176C131.875 232.988 131.277 234.707 130.082 236.332C128.895 237.949 127.109 239.48 124.727 240.926V243H121.938ZM122.641 243V241.207H132.578V243H122.641Z" fill="#E1E1FF"/>
<path d="M162.266 235.594V233.789H173.797V235.594H162.266Z" fill="#E1E1FF"/>
<path d="M204.456 229.872C204.456 231.04 204.088 231.968 203.352 232.656C202.616 233.328 201.632 233.76 200.4 233.952V234.048C201.84 234.24 202.936 234.688 203.688 235.392C204.44 236.096 204.816 237.016 204.816 238.152C204.816 239.16 204.56 240.048 204.048 240.816C203.536 241.568 202.768 242.16 201.744 242.592C200.72 243.024 199.44 243.24 197.904 243.24C196.976 243.24 196.088 243.168 195.24 243.024C194.408 242.896 193.632 242.656 192.912 242.304V240.336C193.408 240.576 193.936 240.784 194.496 240.96C195.072 241.12 195.648 241.248 196.224 241.344C196.8 241.424 197.352 241.464 197.88 241.464C199.416 241.464 200.576 241.176 201.36 240.6C202.16 240.024 202.56 239.208 202.56 238.152C202.56 237.064 202.096 236.272 201.168 235.776C200.24 235.28 198.944 235.032 197.28 235.032H194.832V233.232H197.16C198.296 233.232 199.232 233.104 199.968 232.848C200.72 232.592 201.28 232.232 201.648 231.768C202.032 231.288 202.224 230.728 202.224 230.088C202.224 229.224 201.904 228.56 201.264 228.096C200.624 227.632 199.792 227.4 198.768 227.4C197.696 227.4 196.8 227.536 196.08 227.808C195.376 228.08 194.688 228.432 194.016 228.864L192.984 227.4C193.432 227.064 193.944 226.768 194.52 226.512C195.112 226.24 195.768 226.024 196.488 225.864C197.208 225.704 197.976 225.624 198.792 225.624C200.024 225.624 201.056 225.808 201.888 226.176C202.736 226.544 203.376 227.048 203.808 227.688C204.24 228.312 204.456 229.04 204.456 229.872ZM213.021 229.92C214.589 229.92 215.749 230.264 216.501 230.952C217.253 231.64 217.629 232.736 217.629 234.24V243H216.093L215.685 241.176H215.589C215.221 241.64 214.837 242.032 214.437 242.352C214.053 242.656 213.605 242.88 213.093 243.024C212.597 243.168 211.989 243.24 211.269 243.24C210.501 243.24 209.805 243.104 209.181 242.832C208.573 242.56 208.093 242.144 207.741 241.584C207.389 241.008 207.213 240.288 207.213 239.424C207.213 238.144 207.717 237.16 208.725 236.472C209.733 235.768 211.285 235.384 213.381 235.32L215.565 235.248V234.48C215.565 233.408 215.333 232.664 214.869 232.248C214.405 231.832 213.749 231.624 212.901 231.624C212.229 231.624 211.589 231.728 210.981 231.936C210.373 232.128 209.805 232.352 209.277 232.608L208.629 231.024C209.189 230.72 209.853 230.464 210.621 230.256C211.389 230.032 212.189 229.92 213.021 229.92ZM213.645 236.784C212.045 236.848 210.933 237.104 210.309 237.552C209.701 238 209.397 238.632 209.397 239.448C209.397 240.168 209.613 240.696 210.045 241.032C210.493 241.368 211.061 241.536 211.749 241.536C212.837 241.536 213.741 241.24 214.461 240.648C215.181 240.04 215.541 239.112 215.541 237.864V236.712L213.645 236.784ZM227.723 229.896C229.307 229.896 230.579 230.448 231.539 231.552C232.515 232.656 233.003 234.32 233.003 236.544C233.003 238 232.779 239.232 232.331 240.24C231.898 241.232 231.283 241.984 230.483 242.496C229.699 242.992 228.771 243.24 227.699 243.24C227.043 243.24 226.459 243.152 225.947 242.976C225.435 242.8 224.995 242.576 224.627 242.304C224.275 242.016 223.971 241.704 223.715 241.368H223.571C223.603 241.64 223.635 241.984 223.667 242.4C223.699 242.816 223.715 243.176 223.715 243.48V248.76H221.603V230.136H223.331L223.619 231.888H223.715C223.971 231.52 224.275 231.184 224.627 230.88C224.995 230.576 225.427 230.336 225.923 230.16C226.435 229.984 227.035 229.896 227.723 229.896ZM227.339 231.672C226.475 231.672 225.779 231.84 225.251 232.176C224.723 232.496 224.339 232.984 224.099 233.64C223.859 234.296 223.731 235.128 223.715 236.136V236.544C223.715 237.6 223.827 238.496 224.051 239.232C224.275 239.968 224.651 240.528 225.179 240.912C225.723 241.296 226.459 241.488 227.387 241.488C228.171 241.488 228.811 241.272 229.307 240.84C229.819 240.408 230.195 239.824 230.435 239.088C230.691 238.336 230.819 237.48 230.819 236.52C230.819 235.048 230.531 233.872 229.955 232.992C229.395 232.112 228.523 231.672 227.339 231.672ZM241.336 229.896C242.44 229.896 243.384 230.136 244.168 230.616C244.968 231.096 245.576 231.776 245.992 232.656C246.424 233.52 246.64 234.536 246.64 235.704V236.976H237.832C237.864 238.432 238.232 239.544 238.936 240.312C239.656 241.064 240.656 241.44 241.936 241.44C242.752 241.44 243.472 241.368 244.096 241.224C244.736 241.064 245.392 240.84 246.064 240.552V242.4C245.408 242.688 244.76 242.896 244.12 243.024C243.48 243.168 242.72 243.24 241.84 243.24C240.624 243.24 239.544 242.992 238.6 242.496C237.672 242 236.944 241.264 236.416 240.288C235.904 239.296 235.648 238.088 235.648 236.664C235.648 235.256 235.88 234.048 236.344 233.04C236.824 232.032 237.488 231.256 238.336 230.712C239.2 230.168 240.2 229.896 241.336 229.896ZM241.312 231.624C240.304 231.624 239.504 231.952 238.912 232.608C238.336 233.248 237.992 234.144 237.88 235.296H244.432C244.432 234.56 244.32 233.92 244.096 233.376C243.872 232.832 243.528 232.408 243.064 232.104C242.616 231.784 242.032 231.624 241.312 231.624ZM253.299 229.896C254.275 229.896 255.123 230.032 255.843 230.304C256.563 230.56 257.123 230.944 257.523 231.456C257.923 231.952 258.123 232.56 258.123 233.28C258.123 234.064 257.907 234.688 257.475 235.152C257.043 235.6 256.451 235.928 255.699 236.136V236.232C256.211 236.376 256.683 236.576 257.115 236.832C257.547 237.088 257.891 237.424 258.147 237.84C258.419 238.256 258.555 238.792 258.555 239.448C258.555 240.152 258.355 240.792 257.955 241.368C257.571 241.944 256.971 242.4 256.155 242.736C255.355 243.072 254.323 243.24 253.059 243.24C252.451 243.24 251.867 243.208 251.307 243.144C250.763 243.08 250.267 242.984 249.819 242.856C249.387 242.728 249.003 242.576 248.667 242.4V240.504C249.211 240.76 249.851 240.992 250.587 241.2C251.339 241.408 252.155 241.512 253.035 241.512C253.675 241.512 254.251 241.44 254.763 241.296C255.291 241.152 255.707 240.928 256.011 240.624C256.315 240.304 256.467 239.872 256.467 239.328C256.467 238.832 256.331 238.432 256.059 238.128C255.787 237.808 255.379 237.568 254.835 237.408C254.307 237.248 253.627 237.168 252.795 237.168H251.067V235.44H252.459C253.563 235.44 254.443 235.296 255.099 235.008C255.771 234.704 256.107 234.192 256.107 233.472C256.107 232.864 255.851 232.408 255.339 232.104C254.843 231.8 254.123 231.648 253.179 231.648C252.475 231.648 251.851 231.72 251.307 231.864C250.779 231.992 250.195 232.192 249.555 232.464L248.811 230.784C249.499 230.48 250.219 230.256 250.971 230.112C251.723 229.968 252.499 229.896 253.299 229.896ZM266.649 229.896C267.753 229.896 268.697 230.136 269.481 230.616C270.281 231.096 270.889 231.776 271.305 232.656C271.737 233.52 271.953 234.536 271.953 235.704V236.976H263.145C263.177 238.432 263.545 239.544 264.249 240.312C264.969 241.064 265.969 241.44 267.249 241.44C268.065 241.44 268.785 241.368 269.409 241.224C270.049 241.064 270.705 240.84 271.377 240.552V242.4C270.721 242.688 270.073 242.896 269.433 243.024C268.793 243.168 268.033 243.24 267.153 243.24C265.937 243.24 264.857 242.992 263.913 242.496C262.985 242 262.257 241.264 261.729 240.288C261.217 239.296 260.961 238.088 260.961 236.664C260.961 235.256 261.193 234.048 261.657 233.04C262.137 232.032 262.801 231.256 263.649 230.712C264.513 230.168 265.513 229.896 266.649 229.896ZM266.625 231.624C265.617 231.624 264.817 231.952 264.225 232.608C263.649 233.248 263.305 234.144 263.193 235.296H269.745C269.745 234.56 269.633 233.92 269.409 233.376C269.185 232.832 268.841 232.408 268.377 232.104C267.929 231.784 267.345 231.624 266.625 231.624ZM281.348 229.896C282.932 229.896 284.204 230.448 285.164 231.552C286.14 232.656 286.628 234.32 286.628 236.544C286.628 238 286.404 239.232 285.956 240.24C285.523 241.232 284.908 241.984 284.108 242.496C283.324 242.992 282.396 243.24 281.324 243.24C280.668 243.24 280.084 243.152 279.572 242.976C279.06 242.8 278.62 242.576 278.252 242.304C277.9 242.016 277.596 241.704 277.34 241.368H277.196C277.228 241.64 277.26 241.984 277.292 242.4C277.324 242.816 277.34 243.176 277.34 243.48V248.76H275.228V230.136H276.956L277.244 231.888H277.34C277.596 231.52 277.9 231.184 278.252 230.88C278.62 230.576 279.052 230.336 279.548 230.16C280.06 229.984 280.66 229.896 281.348 229.896ZM280.964 231.672C280.1 231.672 279.404 231.84 278.876 232.176C278.348 232.496 277.964 232.984 277.724 233.64C277.484 234.296 277.356 235.128 277.34 236.136V236.544C277.34 237.6 277.452 238.496 277.676 239.232C277.9 239.968 278.276 240.528 278.804 240.912C279.348 241.296 280.084 241.488 281.012 241.488C281.796 241.488 282.436 241.272 282.932 240.84C283.444 240.408 283.82 239.824 284.06 239.088C284.316 238.336 284.444 237.48 284.444 236.52C284.444 235.048 284.156 233.872 283.58 232.992C283.02 232.112 282.148 231.672 280.964 231.672ZM300.337 233.376C300.337 234.176 300.097 234.8 299.617 235.248C299.137 235.696 298.521 236 297.769 236.16V236.256C298.569 236.368 299.265 236.656 299.857 237.12C300.449 237.568 300.745 238.272 300.745 239.232C300.745 239.776 300.641 240.28 300.433 240.744C300.241 241.208 299.937 241.608 299.521 241.944C299.105 242.28 298.569 242.544 297.913 242.736C297.257 242.912 296.465 243 295.537 243H289.993V230.136H295.513C296.425 230.136 297.241 230.24 297.961 230.448C298.697 230.64 299.273 230.976 299.689 231.456C300.121 231.92 300.337 232.56 300.337 233.376ZM298.561 239.232C298.561 238.496 298.281 237.968 297.721 237.648C297.161 237.328 296.337 237.168 295.249 237.168H292.105V241.296H295.297C296.353 241.296 297.161 241.144 297.721 240.84C298.281 240.52 298.561 239.984 298.561 239.232ZM298.201 233.64C298.201 233.032 297.977 232.592 297.529 232.32C297.097 232.032 296.385 231.888 295.393 231.888H292.105V235.416H295.009C296.049 235.416 296.841 235.272 297.385 234.984C297.929 234.696 298.201 234.248 298.201 233.64ZM305.813 237.984C305.813 238.128 305.805 238.336 305.789 238.608C305.789 238.864 305.781 239.144 305.765 239.448C305.749 239.736 305.733 240.016 305.717 240.288C305.701 240.544 305.685 240.752 305.669 240.912L312.557 230.136H315.149V243H313.181V235.416C313.181 235.16 313.181 234.824 313.181 234.408C313.197 233.992 313.213 233.584 313.229 233.184C313.245 232.768 313.261 232.456 313.277 232.248L306.437 243H303.821V230.136H305.813V237.984ZM325.363 229.896C326.947 229.896 328.219 230.448 329.179 231.552C330.155 232.656 330.643 234.32 330.643 236.544C330.643 238 330.419 239.232 329.971 240.24C329.539 241.232 328.923 241.984 328.123 242.496C327.339 242.992 326.411 243.24 325.339 243.24C324.683 243.24 324.099 243.152 323.587 242.976C323.075 242.8 322.635 242.576 322.267 242.304C321.915 242.016 321.611 241.704 321.355 241.368H321.211C321.243 241.64 321.275 241.984 321.307 242.4C321.339 242.816 321.355 243.176 321.355 243.48V248.76H319.243V230.136H320.971L321.259 231.888H321.355C321.611 231.52 321.915 231.184 322.267 230.88C322.635 230.576 323.067 230.336 323.563 230.16C324.075 229.984 324.675 229.896 325.363 229.896ZM324.979 231.672C324.115 231.672 323.419 231.84 322.891 232.176C322.363 232.496 321.979 232.984 321.739 233.64C321.499 234.296 321.371 235.128 321.355 236.136V236.544C321.355 237.6 321.467 238.496 321.691 239.232C321.915 239.968 322.291 240.528 322.819 240.912C323.363 241.296 324.099 241.488 325.027 241.488C325.811 241.488 326.451 241.272 326.947 240.84C327.459 240.408 327.835 239.824 328.075 239.088C328.331 238.336 328.459 237.48 328.459 236.52C328.459 235.048 328.171 233.872 327.595 232.992C327.035 232.112 326.163 231.672 324.979 231.672ZM345.193 236.544C345.193 237.616 345.049 238.568 344.761 239.4C344.489 240.216 344.089 240.912 343.561 241.488C343.049 242.064 342.417 242.504 341.665 242.808C340.929 243.096 340.105 243.24 339.193 243.24C338.345 243.24 337.561 243.096 336.841 242.808C336.121 242.504 335.497 242.064 334.969 241.488C334.441 240.912 334.025 240.216 333.721 239.4C333.433 238.568 333.289 237.616 333.289 236.544C333.289 235.12 333.529 233.92 334.009 232.944C334.489 231.952 335.177 231.2 336.073 230.688C336.969 230.16 338.033 229.896 339.265 229.896C340.433 229.896 341.457 230.16 342.337 230.688C343.233 231.2 343.929 231.952 344.425 232.944C344.937 233.92 345.193 235.12 345.193 236.544ZM335.473 236.544C335.473 237.552 335.601 238.432 335.857 239.184C336.129 239.92 336.545 240.488 337.105 240.888C337.665 241.288 338.377 241.488 339.241 241.488C340.105 241.488 340.817 241.288 341.377 240.888C341.937 240.488 342.345 239.92 342.601 239.184C342.873 238.432 343.009 237.552 343.009 236.544C343.009 235.52 342.873 234.648 342.601 233.928C342.329 233.208 341.913 232.656 341.353 232.272C340.809 231.872 340.097 231.672 339.217 231.672C337.905 231.672 336.953 232.104 336.361 232.968C335.769 233.832 335.473 235.024 335.473 236.544ZM358.884 233.376C358.884 234.176 358.644 234.8 358.164 235.248C357.684 235.696 357.068 236 356.316 236.16V236.256C357.116 236.368 357.812 236.656 358.404 237.12C358.996 237.568 359.292 238.272 359.292 239.232C359.292 239.776 359.188 240.28 358.98 240.744C358.788 241.208 358.484 241.608 358.068 241.944C357.652 242.28 357.116 242.544 356.46 242.736C355.804 242.912 355.012 243 354.084 243H348.54V230.136H354.06C354.972 230.136 355.788 230.24 356.508 230.448C357.244 230.64 357.82 230.976 358.236 231.456C358.668 231.92 358.884 232.56 358.884 233.376ZM357.108 239.232C357.108 238.496 356.828 237.968 356.268 237.648C355.708 237.328 354.884 237.168 353.796 237.168H350.652V241.296H353.844C354.9 241.296 355.708 241.144 356.268 240.84C356.828 240.52 357.108 239.984 357.108 239.232ZM356.748 233.64C356.748 233.032 356.524 232.592 356.076 232.32C355.644 232.032 354.932 231.888 353.94 231.888H350.652V235.416H353.556C354.596 235.416 355.388 235.272 355.932 234.984C356.476 234.696 356.748 234.248 356.748 233.64ZM367.24 229.92C368.808 229.92 369.968 230.264 370.72 230.952C371.472 231.64 371.848 232.736 371.848 234.24V243H370.312L369.904 241.176H369.808C369.44 241.64 369.056 242.032 368.656 242.352C368.272 242.656 367.824 242.88 367.312 243.024C366.816 243.168 366.208 243.24 365.488 243.24C364.72 243.24 364.024 243.104 363.4 242.832C362.792 242.56 362.312 242.144 361.96 241.584C361.608 241.008 361.432 240.288 361.432 239.424C361.432 238.144 361.936 237.16 362.944 236.472C363.952 235.768 365.504 235.384 367.6 235.32L369.784 235.248V234.48C369.784 233.408 369.552 232.664 369.088 232.248C368.624 231.832 367.968 231.624 367.12 231.624C366.448 231.624 365.808 231.728 365.2 231.936C364.592 232.128 364.024 232.352 363.496 232.608L362.848 231.024C363.408 230.72 364.072 230.464 364.84 230.256C365.608 230.032 366.408 229.92 367.24 229.92ZM367.864 236.784C366.264 236.848 365.152 237.104 364.528 237.552C363.92 238 363.616 238.632 363.616 239.448C363.616 240.168 363.832 240.696 364.264 241.032C364.712 241.368 365.28 241.536 365.968 241.536C367.056 241.536 367.96 241.24 368.68 240.648C369.4 240.04 369.76 239.112 369.76 237.864V236.712L367.864 236.784ZM377.933 230.136V235.488H384.917V230.136H387.029V243H384.917V237.264H377.933V243H375.821V230.136H377.933ZM391.103 243V230.136H393.215V235.416H396.551C397.671 235.416 398.591 235.552 399.311 235.824C400.031 236.096 400.567 236.504 400.919 237.048C401.271 237.576 401.447 238.248 401.447 239.064C401.447 239.864 401.271 240.56 400.919 241.152C400.583 241.744 400.047 242.2 399.311 242.52C398.591 242.84 397.639 243 396.455 243H391.103ZM396.263 241.296C397.175 241.296 397.919 241.144 398.495 240.84C399.071 240.52 399.359 239.968 399.359 239.184C399.359 238.4 399.095 237.872 398.567 237.6C398.039 237.312 397.279 237.168 396.287 237.168H393.215V241.296H396.263ZM403.583 243V230.136H405.695V243H403.583ZM420.198 224.808C420.134 225.608 419.934 226.28 419.598 226.824C419.278 227.368 418.798 227.776 418.158 228.048C417.518 228.32 416.686 228.456 415.662 228.456C414.622 228.456 413.782 228.32 413.142 228.048C412.518 227.776 412.062 227.376 411.774 226.848C411.486 226.304 411.31 225.624 411.246 224.808H413.214C413.294 225.672 413.518 226.256 413.886 226.56C414.27 226.848 414.878 226.992 415.71 226.992C416.446 226.992 417.022 226.84 417.438 226.536C417.87 226.216 418.126 225.64 418.206 224.808H420.198ZM411.774 237.984C411.774 238.128 411.766 238.336 411.75 238.608C411.75 238.864 411.742 239.144 411.726 239.448C411.71 239.736 411.694 240.016 411.678 240.288C411.662 240.544 411.646 240.752 411.63 240.912L418.518 230.136H421.11V243H419.142V235.416C419.142 235.16 419.142 234.824 419.142 234.408C419.158 233.992 419.174 233.584 419.19 233.184C419.206 232.768 419.222 232.456 419.238 232.248L412.398 243H409.782V230.136H411.774V237.984Z" fill="#E1E1FF"/>
</g>
<g clip-path="url(#clip3_120_434)">
<rect x="96" y="257" width="49" height="37" rx="6" fill="#32354E"/>
<path d="M113.031 284.234C109.312 284.234 107.453 281.422 107.453 275.797C107.453 270.016 109.312 267.125 113.031 267.125C116.75 267.125 118.609 270.016 118.609 275.797C118.609 281.422 116.75 284.234 113.031 284.234ZM113.031 277.355C112.562 277.355 112.184 277.215 111.895 276.934C111.613 276.645 111.473 276.266 111.473 275.797C111.473 275.328 111.613 274.953 111.895 274.672C112.184 274.383 112.562 274.238 113.031 274.238C113.5 274.238 113.875 274.383 114.156 274.672C114.445 274.953 114.59 275.328 114.59 275.797C114.59 276.266 114.445 276.645 114.156 276.934C113.875 277.215 113.5 277.355 113.031 277.355ZM113.031 282.441C115.398 282.441 116.582 280.227 116.582 275.797C116.582 271.211 115.398 268.918 113.031 268.918C110.664 268.918 109.48 271.211 109.48 275.797C109.48 280.227 110.664 282.441 113.031 282.441ZM126.086 284.234C125.242 284.234 124.473 284.184 123.777 284.082C123.09 283.98 122.469 283.844 121.914 283.672L122.16 281.844C122.629 281.969 123.156 282.102 123.742 282.242C124.336 282.375 125.086 282.441 125.992 282.441C127.328 282.441 128.363 282.184 129.098 281.668C129.832 281.145 130.199 280.41 130.199 279.465C130.199 278.801 129.988 278.23 129.566 277.754C129.145 277.27 128.535 276.902 127.738 276.652C126.949 276.395 126 276.266 124.891 276.266H124.492L124.246 274.906L127.551 275.199C128.941 275.301 130.062 275.742 130.914 276.523C131.773 277.305 132.203 278.34 132.203 279.629C132.203 281.09 131.668 282.223 130.598 283.027C129.535 283.832 128.031 284.234 126.086 284.234ZM124.492 276.266L124.246 274.906C125.496 274.734 126.535 274.477 127.363 274.133C128.191 273.789 128.812 273.371 129.227 272.879C129.641 272.379 129.848 271.832 129.848 271.238C129.848 270.504 129.602 269.934 129.109 269.527C128.617 269.121 127.918 268.918 127.012 268.918C126.332 268.918 125.648 269.062 124.961 269.352C124.273 269.641 123.609 270.086 122.969 270.688L121.621 269.363C122.332 268.582 123.148 268.016 124.07 267.664C124.992 267.305 126.043 267.125 127.223 267.125C128.699 267.125 129.84 267.449 130.645 268.098C131.449 268.738 131.852 269.656 131.852 270.852C131.852 271.883 131.496 272.773 130.785 273.523C130.082 274.266 129.156 274.777 128.008 275.059V276.23L124.492 276.266Z" fill="#E1E1FF"/>
<path d="M162.266 276.594V274.789H173.797V276.594H162.266Z" fill="#E1E1FF"/>
<path d="M209.28 275.408C209.28 276.736 209.112 277.944 208.776 279.032C208.44 280.104 207.936 281.032 207.264 281.816C206.608 282.6 205.784 283.2 204.792 283.616C203.816 284.032 202.68 284.24 201.384 284.24C200.04 284.24 198.872 284.032 197.88 283.616C196.888 283.184 196.064 282.584 195.408 281.816C194.752 281.032 194.264 280.096 193.944 279.008C193.624 277.92 193.464 276.712 193.464 275.384C193.464 273.624 193.752 272.088 194.328 270.776C194.904 269.464 195.776 268.44 196.944 267.704C198.128 266.968 199.616 266.6 201.408 266.6C203.12 266.6 204.56 266.968 205.728 267.704C206.896 268.424 207.776 269.448 208.368 270.776C208.976 272.088 209.28 273.632 209.28 275.408ZM195.744 275.408C195.744 276.848 195.944 278.088 196.344 279.128C196.744 280.168 197.36 280.968 198.192 281.528C199.04 282.088 200.104 282.368 201.384 282.368C202.68 282.368 203.736 282.088 204.552 281.528C205.384 280.968 206 280.168 206.4 279.128C206.8 278.088 207 276.848 207 275.408C207 273.248 206.552 271.56 205.656 270.344C204.76 269.112 203.344 268.496 201.408 268.496C200.112 268.496 199.04 268.776 198.192 269.336C197.36 269.88 196.744 270.672 196.344 271.712C195.944 272.736 195.744 273.968 195.744 275.408ZM217.95 284.24C216.814 284.24 215.798 284.008 214.902 283.544C214.022 283.08 213.326 282.36 212.814 281.384C212.318 280.408 212.07 279.16 212.07 277.64C212.07 276.056 212.334 274.768 212.862 273.776C213.39 272.784 214.102 272.056 214.998 271.592C215.91 271.128 216.942 270.896 218.094 270.896C218.75 270.896 219.382 270.968 219.99 271.112C220.598 271.24 221.094 271.4 221.478 271.592L220.83 273.344C220.446 273.2 219.998 273.064 219.486 272.936C218.974 272.808 218.494 272.744 218.046 272.744C217.182 272.744 216.47 272.928 215.91 273.296C215.35 273.664 214.934 274.208 214.662 274.928C214.39 275.648 214.254 276.544 214.254 277.616C214.254 278.64 214.39 279.512 214.662 280.232C214.934 280.952 215.342 281.496 215.886 281.864C216.43 282.232 217.11 282.416 217.926 282.416C218.63 282.416 219.246 282.344 219.774 282.2C220.318 282.056 220.814 281.88 221.262 281.672V283.544C220.83 283.768 220.35 283.936 219.822 284.048C219.31 284.176 218.686 284.24 217.95 284.24ZM226.433 271.136V276.488H233.417V271.136H235.529V284H233.417V278.264H226.433V284H224.321V271.136H226.433ZM250.786 277.544C250.786 278.616 250.643 279.568 250.355 280.4C250.083 281.216 249.683 281.912 249.155 282.488C248.643 283.064 248.011 283.504 247.259 283.808C246.523 284.096 245.699 284.24 244.787 284.24C243.939 284.24 243.155 284.096 242.435 283.808C241.715 283.504 241.091 283.064 240.562 282.488C240.035 281.912 239.619 281.216 239.315 280.4C239.027 279.568 238.883 278.616 238.883 277.544C238.883 276.12 239.123 274.92 239.603 273.944C240.083 272.952 240.771 272.2 241.667 271.688C242.563 271.16 243.627 270.896 244.859 270.896C246.027 270.896 247.051 271.16 247.931 271.688C248.827 272.2 249.523 272.952 250.019 273.944C250.531 274.92 250.786 276.12 250.786 277.544ZM241.067 277.544C241.067 278.552 241.195 279.432 241.451 280.184C241.723 280.92 242.139 281.488 242.699 281.888C243.259 282.288 243.971 282.488 244.835 282.488C245.699 282.488 246.411 282.288 246.971 281.888C247.531 281.488 247.939 280.92 248.195 280.184C248.467 279.432 248.603 278.552 248.603 277.544C248.603 276.52 248.467 275.648 248.195 274.928C247.923 274.208 247.507 273.656 246.947 273.272C246.403 272.872 245.691 272.672 244.811 272.672C243.499 272.672 242.547 273.104 241.955 273.968C241.363 274.832 241.067 276.024 241.067 277.544ZM264.478 274.376C264.478 275.176 264.238 275.8 263.758 276.248C263.278 276.696 262.662 277 261.91 277.16V277.256C262.71 277.368 263.406 277.656 263.998 278.12C264.59 278.568 264.886 279.272 264.886 280.232C264.886 280.776 264.782 281.28 264.574 281.744C264.382 282.208 264.078 282.608 263.662 282.944C263.246 283.28 262.71 283.544 262.054 283.736C261.398 283.912 260.606 284 259.678 284H254.134V271.136H259.654C260.566 271.136 261.382 271.24 262.102 271.448C262.838 271.64 263.414 271.976 263.83 272.456C264.262 272.92 264.478 273.56 264.478 274.376ZM262.702 280.232C262.702 279.496 262.422 278.968 261.862 278.648C261.302 278.328 260.478 278.168 259.39 278.168H256.246V282.296H259.438C260.494 282.296 261.302 282.144 261.862 281.84C262.422 281.52 262.702 280.984 262.702 280.232ZM262.342 274.64C262.342 274.032 262.118 273.592 261.67 273.32C261.238 273.032 260.526 272.888 259.534 272.888H256.246V276.416H259.15C260.19 276.416 260.982 276.272 261.526 275.984C262.07 275.696 262.342 275.248 262.342 274.64ZM272.834 270.92C274.402 270.92 275.562 271.264 276.314 271.952C277.066 272.64 277.442 273.736 277.442 275.24V284H275.906L275.498 282.176H275.402C275.034 282.64 274.65 283.032 274.25 283.352C273.866 283.656 273.418 283.88 272.906 284.024C272.41 284.168 271.802 284.24 271.082 284.24C270.314 284.24 269.618 284.104 268.994 283.832C268.386 283.56 267.906 283.144 267.554 282.584C267.202 282.008 267.026 281.288 267.026 280.424C267.026 279.144 267.53 278.16 268.538 277.472C269.546 276.768 271.098 276.384 273.194 276.32L275.378 276.248V275.48C275.378 274.408 275.146 273.664 274.682 273.248C274.218 272.832 273.562 272.624 272.714 272.624C272.042 272.624 271.402 272.728 270.794 272.936C270.186 273.128 269.618 273.352 269.09 273.608L268.442 272.024C269.002 271.72 269.666 271.464 270.434 271.256C271.202 271.032 272.002 270.92 272.834 270.92ZM273.458 277.784C271.858 277.848 270.746 278.104 270.122 278.552C269.514 279 269.21 279.632 269.21 280.448C269.21 281.168 269.426 281.696 269.858 282.032C270.306 282.368 270.874 282.536 271.562 282.536C272.65 282.536 273.554 282.24 274.274 281.648C274.994 281.04 275.354 280.112 275.354 278.864V277.712L273.458 277.784ZM283.527 271.136V276.488H290.511V271.136H292.623V284H290.511V278.264H283.527V284H281.415V271.136H283.527ZM298.808 271.136V276.488H305.792V271.136H307.904V284H305.792V278.264H298.808V284H296.696V271.136H298.808ZM311.978 284V271.136H314.09V276.416H317.426C318.546 276.416 319.466 276.552 320.186 276.824C320.906 277.096 321.442 277.504 321.794 278.048C322.146 278.576 322.322 279.248 322.322 280.064C322.322 280.864 322.146 281.56 321.794 282.152C321.458 282.744 320.922 283.2 320.186 283.52C319.466 283.84 318.514 284 317.33 284H311.978ZM317.138 282.296C318.05 282.296 318.794 282.144 319.37 281.84C319.946 281.52 320.234 280.968 320.234 280.184C320.234 279.4 319.97 278.872 319.442 278.6C318.914 278.312 318.154 278.168 317.162 278.168H314.09V282.296H317.138ZM324.458 284V271.136H326.57V284H324.458ZM341.073 265.808C341.009 266.608 340.809 267.28 340.473 267.824C340.153 268.368 339.673 268.776 339.033 269.048C338.393 269.32 337.561 269.456 336.537 269.456C335.497 269.456 334.657 269.32 334.017 269.048C333.393 268.776 332.937 268.376 332.649 267.848C332.361 267.304 332.185 266.624 332.121 265.808H334.089C334.169 266.672 334.393 267.256 334.761 267.56C335.145 267.848 335.753 267.992 336.585 267.992C337.321 267.992 337.897 267.84 338.313 267.536C338.745 267.216 339.001 266.64 339.081 265.808H341.073ZM332.649 278.984C332.649 279.128 332.641 279.336 332.625 279.608C332.625 279.864 332.617 280.144 332.601 280.448C332.585 280.736 332.569 281.016 332.553 281.288C332.537 281.544 332.521 281.752 332.505 281.912L339.393 271.136H341.985V284H340.017V276.416C340.017 276.16 340.017 275.824 340.017 275.408C340.033 274.992 340.049 274.584 340.065 274.184C340.081 273.768 340.097 273.456 340.113 273.248L333.273 284H330.657V271.136H332.649V278.984ZM354.59 271.136V276.488H361.574V271.136H363.686V284H361.574V278.264H354.59V284H352.478V271.136H354.59ZM372.631 270.92C374.199 270.92 375.359 271.264 376.111 271.952C376.863 272.64 377.239 273.736 377.239 275.24V284H375.703L375.295 282.176H375.199C374.831 282.64 374.447 283.032 374.047 283.352C373.663 283.656 373.215 283.88 372.703 284.024C372.207 284.168 371.599 284.24 370.879 284.24C370.111 284.24 369.415 284.104 368.791 283.832C368.183 283.56 367.703 283.144 367.351 282.584C366.999 282.008 366.823 281.288 366.823 280.424C366.823 279.144 367.327 278.16 368.335 277.472C369.343 276.768 370.895 276.384 372.991 276.32L375.175 276.248V275.48C375.175 274.408 374.943 273.664 374.479 273.248C374.015 272.832 373.359 272.624 372.511 272.624C371.839 272.624 371.199 272.728 370.591 272.936C369.983 273.128 369.415 273.352 368.887 273.608L368.239 272.024C368.799 271.72 369.463 271.464 370.231 271.256C370.999 271.032 371.799 270.92 372.631 270.92ZM373.255 277.784C371.655 277.848 370.543 278.104 369.919 278.552C369.311 279 369.007 279.632 369.007 280.448C369.007 281.168 369.223 281.696 369.655 282.032C370.103 282.368 370.671 282.536 371.359 282.536C372.447 282.536 373.351 282.24 374.071 281.648C374.791 281.04 375.151 280.112 375.151 278.864V277.712L373.255 277.784ZM397.954 274.376C397.954 275.176 397.714 275.8 397.234 276.248C396.754 276.696 396.138 277 395.386 277.16V277.256C396.186 277.368 396.882 277.656 397.474 278.12C398.066 278.568 398.362 279.272 398.362 280.232C398.362 280.776 398.258 281.28 398.05 281.744C397.858 282.208 397.554 282.608 397.138 282.944C396.722 283.28 396.186 283.544 395.53 283.736C394.874 283.912 394.082 284 393.154 284H387.61V271.136H393.13C394.042 271.136 394.858 271.24 395.578 271.448C396.314 271.64 396.89 271.976 397.306 272.456C397.738 272.92 397.954 273.56 397.954 274.376ZM396.178 280.232C396.178 279.496 395.898 278.968 395.338 278.648C394.778 278.328 393.954 278.168 392.866 278.168H389.722V282.296H392.914C393.97 282.296 394.778 282.144 395.338 281.84C395.898 281.52 396.178 280.984 396.178 280.232ZM395.818 274.64C395.818 274.032 395.594 273.592 395.146 273.32C394.714 273.032 394.002 272.888 393.01 272.888H389.722V276.416H392.626C393.666 276.416 394.458 276.272 395.002 275.984C395.546 275.696 395.818 275.248 395.818 274.64ZM407.558 270.896C409.142 270.896 410.414 271.448 411.374 272.552C412.35 273.656 412.838 275.32 412.838 277.544C412.838 279 412.614 280.232 412.166 281.24C411.734 282.232 411.118 282.984 410.318 283.496C409.534 283.992 408.606 284.24 407.534 284.24C406.878 284.24 406.294 284.152 405.782 283.976C405.27 283.8 404.83 283.576 404.462 283.304C404.11 283.016 403.806 282.704 403.55 282.368H403.406C403.438 282.64 403.47 282.984 403.502 283.4C403.534 283.816 403.55 284.176 403.55 284.48V289.76H401.438V271.136H403.166L403.454 272.888H403.55C403.806 272.52 404.11 272.184 404.462 271.88C404.83 271.576 405.262 271.336 405.758 271.16C406.27 270.984 406.87 270.896 407.558 270.896ZM407.174 272.672C406.31 272.672 405.614 272.84 405.086 273.176C404.558 273.496 404.174 273.984 403.934 274.64C403.694 275.296 403.566 276.128 403.55 277.136V277.544C403.55 278.6 403.662 279.496 403.886 280.232C404.11 280.968 404.486 281.528 405.014 281.912C405.558 282.296 406.294 282.488 407.222 282.488C408.006 282.488 408.646 282.272 409.142 281.84C409.654 281.408 410.03 280.824 410.27 280.088C410.526 279.336 410.654 278.48 410.654 277.52C410.654 276.048 410.366 274.872 409.79 273.992C409.23 273.112 408.358 272.672 407.174 272.672ZM421.172 270.896C422.276 270.896 423.22 271.136 424.004 271.616C424.804 272.096 425.412 272.776 425.828 273.656C426.26 274.52 426.476 275.536 426.476 276.704V277.976H417.668C417.7 279.432 418.068 280.544 418.772 281.312C419.492 282.064 420.492 282.44 421.772 282.44C422.588 282.44 423.308 282.368 423.932 282.224C424.572 282.064 425.228 281.84 425.9 281.552V283.4C425.244 283.688 424.596 283.896 423.956 284.024C423.316 284.168 422.556 284.24 421.676 284.24C420.46 284.24 419.38 283.992 418.436 283.496C417.508 283 416.78 282.264 416.252 281.288C415.74 280.296 415.484 279.088 415.484 277.664C415.484 276.256 415.716 275.048 416.18 274.04C416.66 273.032 417.324 272.256 418.172 271.712C419.036 271.168 420.036 270.896 421.172 270.896ZM421.148 272.624C420.14 272.624 419.34 272.952 418.748 273.608C418.172 274.248 417.828 275.144 417.716 276.296H424.268C424.268 275.56 424.156 274.92 423.932 274.376C423.708 273.832 423.364 273.408 422.9 273.104C422.452 272.784 421.868 272.624 421.148 272.624ZM443.551 271.136V284H441.655V275.792C441.655 275.456 441.663 275.104 441.679 274.736C441.711 274.368 441.743 274.008 441.775 273.656H441.703L437.503 284H435.727L431.647 273.656H431.575C431.607 274.008 431.623 274.368 431.623 274.736C431.639 275.104 431.647 275.48 431.647 275.864V284H429.751V271.136H432.559L436.615 281.48L440.743 271.136H443.551ZM452.625 270.896C453.729 270.896 454.673 271.136 455.457 271.616C456.257 272.096 456.865 272.776 457.281 273.656C457.713 274.52 457.929 275.536 457.929 276.704V277.976H449.121C449.153 279.432 449.521 280.544 450.225 281.312C450.945 282.064 451.945 282.44 453.225 282.44C454.041 282.44 454.761 282.368 455.385 282.224C456.025 282.064 456.681 281.84 457.353 281.552V283.4C456.697 283.688 456.049 283.896 455.409 284.024C454.769 284.168 454.009 284.24 453.129 284.24C451.913 284.24 450.833 283.992 449.889 283.496C448.961 283 448.233 282.264 447.705 281.288C447.193 280.296 446.937 279.088 446.937 277.664C446.937 276.256 447.169 275.048 447.633 274.04C448.113 273.032 448.777 272.256 449.625 271.712C450.489 271.168 451.489 270.896 452.625 270.896ZM452.601 272.624C451.593 272.624 450.793 272.952 450.201 273.608C449.625 274.248 449.281 275.144 449.169 276.296H455.721C455.721 275.56 455.609 274.92 455.385 274.376C455.161 273.832 454.817 273.408 454.353 273.104C453.905 272.784 453.321 272.624 452.601 272.624ZM463.316 271.136V276.488H470.3V271.136H472.412V284H470.3V278.264H463.316V284H461.204V271.136H463.316ZM478.477 278.984C478.477 279.128 478.469 279.336 478.453 279.608C478.453 279.864 478.445 280.144 478.429 280.448C478.413 280.736 478.397 281.016 478.381 281.288C478.365 281.544 478.349 281.752 478.333 281.912L485.221 271.136H487.813V284H485.845V276.416C485.845 276.16 485.845 275.824 485.845 275.408C485.861 274.992 485.877 274.584 485.893 274.184C485.909 273.768 485.925 273.456 485.941 273.248L479.101 284H476.485V271.136H478.477V278.984Z" fill="#E1E1FF"/>
</g>
<defs>
<clipPath id="clip0_120_434">
<rect width="454" height="37" fill="white" transform="translate(96 134)"/>
</clipPath>
<clipPath id="clip1_120_434">
<rect width="231" height="37" fill="white" transform="translate(96 175)"/>
</clipPath>
<clipPath id="clip2_120_434">
<rect width="328" height="37" fill="white" transform="translate(96 216)"/>
</clipPath>
<clipPath id="clip3_120_434">
<rect width="394" height="37" fill="white" transform="translate(96 257)"/>
</clipPath>
</defs>
</svg>
