<svg width="24" height="24" viewBox="0 0 24 24" fill="none" xmlns="http://www.w3.org/2000/svg">
<path d="M21.9375 7.5C22.2469 7.5 22.5 7.24687 22.5 6.9375V5.0625C22.5 4.75313 22.2469 4.5 21.9375 4.5H21V2.25C21 1.00781 19.9922 0 18.75 0H3.75C2.50781 0 1.5 1.00781 1.5 2.25V21.75C1.5 22.9922 2.50781 24 3.75 24H18.75C19.9922 24 21 22.9922 21 21.75V19.5H21.9375C22.2469 19.5 22.5 19.2469 22.5 18.9375V17.0625C22.5 16.7531 22.2469 16.5 21.9375 16.5H21V13.5H21.9375C22.2469 13.5 22.5 13.2469 22.5 12.9375V11.0625C22.5 10.7531 22.2469 10.5 21.9375 10.5H21V7.5H21.9375ZM11.25 6C12.9047 6 14.25 7.34531 14.25 9C14.25 10.6547 12.9047 12 11.25 12C9.59531 12 8.25 10.6547 8.25 9C8.25 7.34531 9.59531 6 11.25 6ZM16.5 17.1C16.5 17.5969 16.0312 18 15.45 18H7.05C6.46875 18 6 17.5969 6 17.1V16.2C6 14.7094 7.41094 13.5 9.15 13.5H9.38437C9.96094 13.7391 10.5891 13.875 11.25 13.875C11.9109 13.875 12.5437 13.7391 13.1156 13.5H13.35C15.0891 13.5 16.5 14.7094 16.5 16.2V17.1Z" fill="#E1E1FF"/>
</svg>
