<svg width="24" height="24" viewBox="0 0 24 24" fill="none" xmlns="http://www.w3.org/2000/svg">
<path d="M4.79688 9.2483V15.4542C4.79688 16.2795 4.14843 16.9387 3.32312 16.9387C2.50317 16.9387 1.71002 16.2741 1.71002 15.4542V9.2483C1.71002 8.43907 2.50317 7.77454 3.32312 7.77454C4.13235 7.77454 4.79688 8.43907 4.79688 9.2483ZM5.37567 17.6621C5.37567 18.541 6.08308 19.2485 6.96197 19.2485H8.02844L8.04452 22.5229C8.04452 24.5004 11.0028 24.4843 11.0028 22.5229V19.2485H12.9964V22.5229C12.9964 24.4897 15.9707 24.495 15.9707 22.5229V19.2485H17.0532C17.9214 19.2485 18.6288 18.541 18.6288 17.6621V8.04786H5.37567V17.6621ZM18.6663 7.52802H5.31672C5.31672 5.23431 6.68866 3.24071 8.72513 2.20104L7.70154 0.309265C7.55148 0.0466669 7.93198 -0.119466 8.0606 0.105617L9.10027 2.01347C10.9706 1.1828 13.1196 1.22568 14.9042 2.01347L15.9385 0.110977C16.0725 -0.119466 16.4476 0.052026 16.2976 0.314624L15.274 2.20104C17.2944 3.24071 18.6663 5.23431 18.6663 7.52802ZM9.51828 4.5537C9.51828 4.24823 9.27176 3.99099 8.95557 3.99099C8.6501 3.99099 8.40894 4.24823 8.40894 4.5537C8.40894 4.85917 8.65546 5.11641 8.95557 5.11641C9.27176 5.11641 9.51828 4.85917 9.51828 4.5537ZM15.5955 4.5537C15.5955 4.24823 15.349 3.99099 15.0489 3.99099C14.7327 3.99099 14.4862 4.24823 14.4862 4.5537C14.4862 4.85917 14.7327 5.11641 15.0489 5.11641C15.349 5.11641 15.5955 4.85917 15.5955 4.5537ZM20.676 7.77454C19.8668 7.77454 19.2022 8.423 19.2022 9.2483V15.4542C19.2022 16.2795 19.8668 16.9387 20.676 16.9387C21.5013 16.9387 22.2891 16.2741 22.2891 15.4542V9.2483C22.2891 8.423 21.496 7.77454 20.676 7.77454Z" fill="#E1E1FF"/>
</svg>
