<svg width="24" height="24" viewBox="0 0 24 24" fill="none" xmlns="http://www.w3.org/2000/svg">
<path d="M18.777 12.6827C18.7663 10.7162 19.6557 9.23204 21.456 8.13898C20.4487 6.69765 18.927 5.90465 16.9177 5.74926C15.0156 5.59923 12.9366 6.85839 12.1758 6.85839C11.3721 6.85839 9.52886 5.80284 8.08217 5.80284C5.09234 5.85106 1.91498 8.1872 1.91498 12.9399C1.91498 14.3437 2.17217 15.7939 2.68655 17.2906C3.37239 19.2571 5.84784 24.0794 8.43045 23.999C9.78069 23.9669 10.7344 23.0399 12.4919 23.0399C14.1958 23.0399 15.0799 23.999 16.5855 23.999C19.1895 23.9615 21.4292 19.5786 22.0829 17.6068C18.5894 15.9618 18.777 12.7845 18.777 12.6827ZM15.7443 3.88464C17.207 2.14861 17.0731 0.56796 17.0302 0C15.7389 0.0750136 14.244 0.878731 13.3921 1.86998C12.4544 2.93089 11.9025 4.24363 12.0204 5.72247C13.4189 5.82963 14.6941 5.11164 15.7443 3.88464Z" fill="#E1E1FF"/>
</svg>
