<svg width="24" height="24" viewBox="0 0 24 24" fill="none" xmlns="http://www.w3.org/2000/svg">
<g clip-path="url(#clip0_29_598)">
<path d="M24 12C24 18.6274 18.6274 24 12 24C5.37256 24 0 18.6274 0 12C0 5.37256 5.37256 0 12 0C18.6274 0 24 5.37256 24 12ZM17.1459 10.2905C17.3848 8.69376 16.1689 7.83537 14.5064 7.26276L15.0457 5.09976L13.729 4.77165L13.2039 6.87765C12.8578 6.79137 12.5022 6.71003 12.1489 6.62942L12.6778 4.50958L11.3617 4.18147L10.8221 6.34369C10.5355 6.27842 10.2542 6.21392 9.98124 6.14608L9.98274 6.13931L8.16677 5.68592L7.8165 7.09214C7.8165 7.09214 8.79348 7.31603 8.77287 7.32987C9.30619 7.46298 9.40258 7.81587 9.38642 8.0956L8.7721 10.5597C8.80887 10.5691 8.85648 10.5826 8.90898 10.6036C8.8651 10.5927 8.81821 10.5807 8.76982 10.5691L7.90873 14.0209C7.84345 14.1829 7.67806 14.4259 7.30529 14.3337C7.3184 14.3528 6.34819 14.0948 6.34819 14.0948L5.69448 15.6019L7.40806 16.029C7.72684 16.1089 8.03927 16.1925 8.34677 16.2713L7.80184 18.459L9.1171 18.7871L9.65676 16.6226C10.0056 16.7171 10.3554 16.8079 10.7061 16.8949L10.1683 19.0492L11.4851 19.3773L12.03 17.1937C14.2754 17.6186 15.9638 17.4472 16.6745 15.4166C17.2472 13.7816 16.646 12.8385 15.4646 12.2235C16.3249 12.0252 16.973 11.4594 17.1459 10.2905ZM14.1374 14.5088C13.7304 16.1438 10.9773 15.2599 10.0847 15.0383L10.8078 12.14C11.7003 12.3627 14.5626 12.8037 14.1374 14.5088ZM14.5446 10.2669C14.1734 11.7541 11.8818 10.9985 11.1385 10.8133L11.7941 8.18453C12.5374 8.36976 14.9313 8.71548 14.5446 10.2669Z" fill="#E1E1FF"/>
</g>
<defs>
<clipPath id="clip0_29_598">
<rect width="24" height="24" fill="white"/>
</clipPath>
</defs>
</svg>
