<svg width="24" height="24" viewBox="0 0 24 24" fill="none" xmlns="http://www.w3.org/2000/svg">
<g clip-path="url(#clip0_29_607)">
<path d="M23.8828 8.65313L21.5109 1.5375C21.2062 0.61875 20.3484 0 19.3781 0H13.75C13.2786 0 13.0429 0 12.8964 0.146447C12.75 0.292893 12.75 0.528595 12.75 1V8C12.75 8.4714 12.75 8.70711 12.8964 8.85355C13.0429 9 13.2786 9 13.75 9H23.587C23.7717 9 23.9412 8.82835 23.8828 8.65313ZM11.25 1C11.25 0.528595 11.25 0.292893 11.1036 0.146447C10.9571 0 10.7214 0 10.25 0H4.62187C3.65156 0 2.79375 0.61875 2.48906 1.5375L0.117188 8.65313C0.0587792 8.82835 0.228259 9 0.412962 9H10.25C10.7214 9 10.9571 9 11.1036 8.85355C11.25 8.70711 11.25 8.4714 11.25 8V1ZM1 10.5C0.528596 10.5 0.292893 10.5 0.146447 10.6464C0 10.7929 0 11.0286 0 11.5V21.75C0 22.9922 1.00781 24 2.25 24H21.75C22.9922 24 24 22.9922 24 21.75V11.5C24 11.0286 24 10.7929 23.8536 10.6464C23.7071 10.5 23.4714 10.5 23 10.5H1Z" fill="#E1E1FF"/>
</g>
<defs>
<clipPath id="clip0_29_607">
<rect width="24" height="24" fill="white"/>
</clipPath>
</defs>
</svg>
