<svg width="24" height="24" viewBox="0 0 24 24" fill="none" xmlns="http://www.w3.org/2000/svg">
<g clip-path="url(#clip0_29_593)">
<path d="M0.0404643 15.2064C0.0808528 15.359 0.151145 15.502 0.247262 15.6272C0.343378 15.7524 0.463405 15.8573 0.600374 15.9357L1.89533 16.6846C2.51343 17.0421 2.89408 17.7019 2.89408 18.416V19.9044C2.89408 20.223 3.02067 20.5287 3.246 20.754C3.47133 20.9793 3.77694 21.1059 4.0956 21.1059H5.58371C6.29789 21.1059 6.95787 21.4867 7.31527 22.105L8.06423 23.4008C8.22402 23.6763 8.48645 23.8772 8.79406 23.9596C9.10167 24.0421 9.4294 23.9992 9.70551 23.8406L10.9985 23.0935C11.6177 22.7357 12.3808 22.7358 12.9999 23.0937L14.2941 23.8418C14.5702 24.0004 14.898 24.0433 15.2056 23.9608C15.5132 23.8784 15.7756 23.6775 15.9354 23.402L16.6832 22.1077C17.0406 21.4893 17.7007 21.1083 18.415 21.1083H19.9028C20.2215 21.1083 20.5271 20.9817 20.7524 20.7564C20.9778 20.5311 21.1044 20.2254 21.1044 19.9068V18.4184C21.1044 17.7043 21.485 17.0445 22.1031 16.687L23.3981 15.9381C23.5348 15.8594 23.6547 15.7544 23.7508 15.6292C23.847 15.5041 23.9175 15.3612 23.9583 15.2087C23.9992 15.0563 24.0096 14.8973 23.9889 14.7408C23.9682 14.5843 23.9169 14.4335 23.8378 14.2969L23.0905 13.0029C22.7329 12.3836 22.7332 11.6205 23.0912 11.0014L23.839 9.70825C23.9984 9.43229 24.0415 9.10433 23.9591 8.79654C23.8766 8.48874 23.6752 8.22631 23.3993 8.06697L22.1043 7.31808C21.4862 6.96063 21.1056 6.30077 21.1056 5.58675V4.09834C21.1056 3.77968 20.979 3.47407 20.7536 3.24874C20.5283 3.02341 20.2227 2.89682 19.904 2.89682H18.4162C17.7019 2.89682 17.0418 2.51587 16.6844 1.89739L15.9366 0.60311C15.777 0.327511 15.5148 0.126237 15.2073 0.0432006C15.0549 0.00195395 14.8958 -0.00866452 14.7393 0.0119593C14.5827 0.032583 14.4319 0.0840399 14.2953 0.163353L13 0.911009C12.3808 1.26841 11.6179 1.26809 10.9989 0.910162L9.70551 0.162151C9.56902 0.0828934 9.41823 0.0313612 9.26178 0.01051C9.10533 -0.0103412 8.9463 -0.000101019 8.79382 0.0406433C8.64133 0.0813877 8.49839 0.151834 8.37319 0.247943C8.24799 0.344052 8.143 0.463932 8.06423 0.600707L7.31527 1.89647C6.95787 2.51479 6.29789 2.89562 5.58371 2.89562H4.0956C3.77694 2.89562 3.47133 3.02221 3.246 3.24753C3.02067 3.47286 2.89408 3.77848 2.89408 4.09714V5.58607C2.89408 6.29981 2.51373 6.95945 1.89601 7.31701L0.600374 8.06697C0.324864 8.22674 0.123969 8.48925 0.0417539 8.79694C-0.040461 9.10462 0.00271747 9.43236 0.161818 9.70825L0.908717 11.0009C1.26656 11.6203 1.26641 12.3836 0.908324 13.0028L0.160617 14.2957C0.00189006 14.5715 -0.0413026 14.8989 0.0404643 15.2064Z" fill="#E1E1FF"/>
</g>
<defs>
<clipPath id="clip0_29_593">
<rect width="24" height="24" fill="white"/>
</clipPath>
</defs>
</svg>
