<svg width="24" height="24" viewBox="0 0 24 24" fill="none" xmlns="http://www.w3.org/2000/svg">
<g clip-path="url(#clip0_29_575)">
<path d="M19.2037 9.58828L18.8962 10.1245C18.7837 10.3233 18.5437 10.4058 18.33 10.327C17.8875 10.162 17.4825 9.92578 17.1262 9.62953C16.9537 9.48703 16.9087 9.23578 17.0212 9.04078L17.3287 8.50453C17.07 8.20453 16.8675 7.85578 16.7325 7.47703H16.1137C15.8887 7.47703 15.6937 7.31578 15.6562 7.09078C15.5812 6.64078 15.5775 6.16828 15.6562 5.69953C15.6937 5.47453 15.8887 5.30953 16.1137 5.30953H16.7325C16.8675 4.93078 17.07 4.58203 17.3287 4.28203L17.0212 3.74578C16.9087 3.55078 16.95 3.29953 17.1262 3.15703C17.4825 2.86078 17.8912 2.62453 18.33 2.45953C18.5437 2.38078 18.7837 2.46328 18.8962 2.66203L19.2037 3.19828C19.5975 3.12703 19.9987 3.12703 20.3925 3.19828L20.7 2.66203C20.8125 2.46328 21.0525 2.38078 21.2662 2.45953C21.7087 2.62453 22.1137 2.86078 22.47 3.15703C22.6425 3.29953 22.6875 3.55078 22.575 3.74578L22.2675 4.28203C22.5262 4.58203 22.7287 4.93078 22.8637 5.30953H23.4825C23.7075 5.30953 23.9025 5.47078 23.94 5.69578C24.015 6.14578 24.0187 6.61828 23.94 7.08703C23.9025 7.31203 23.7075 7.47703 23.4825 7.47703H22.8637C22.7287 7.85578 22.5262 8.20453 22.2675 8.50453L22.575 9.04078C22.6875 9.23578 22.6462 9.48703 22.47 9.62953C22.1137 9.92578 21.705 10.162 21.2662 10.327C21.0525 10.4058 20.8125 10.3233 20.7 10.1245L20.3925 9.58828C20.0025 9.65953 19.5975 9.65953 19.2037 9.58828ZM18.81 7.38328C20.2537 8.49328 21.9 6.84703 20.79 5.40328C19.3462 4.28953 17.7 5.93953 18.81 7.38328ZM14.4862 13.1545L15.75 13.7845C16.1287 14.002 16.2937 14.4633 16.1437 14.8758C15.81 15.7833 15.1537 16.6158 14.5462 17.3433C14.2687 17.677 13.7887 17.7595 13.41 17.542L12.3187 16.912C11.7187 17.4258 11.0212 17.8345 10.26 18.1008V19.3608C10.26 19.7958 9.94874 20.1708 9.52124 20.2458C8.59874 20.4033 7.63124 20.4108 6.67499 20.2458C6.24374 20.1708 5.92499 19.7995 5.92499 19.3608V18.1008C5.16374 17.8308 4.46624 17.4258 3.86624 16.912L2.77499 17.5383C2.39999 17.7558 1.91624 17.6733 1.63874 17.3395C1.03124 16.612 0.389986 15.7795 0.0562359 14.8758C-0.0937641 14.467 0.0712359 14.0058 0.449986 13.7845L1.69874 13.1545C1.55249 12.3708 1.55249 11.5645 1.69874 10.777L0.449986 10.1433C0.0712359 9.92578 -0.0975141 9.46453 0.0562359 9.05578C0.389986 8.14828 1.03124 7.31578 1.63874 6.58828C1.91624 6.25453 2.39624 6.17203 2.77499 6.38953L3.86624 7.01953C4.46624 6.50578 5.16374 6.09703 5.92499 5.83078V4.56703C5.92499 4.13578 6.23249 3.76078 6.65999 3.68578C7.58249 3.52828 8.55374 3.52078 9.50999 3.68203C9.94124 3.75703 10.26 4.12828 10.26 4.56703V5.82703C11.0212 6.09703 11.7187 6.50203 12.3187 7.01578L13.41 6.38578C13.785 6.16828 14.2687 6.25078 14.5462 6.58453C15.1537 7.31203 15.7912 8.14453 16.125 9.05203C16.275 9.46078 16.1287 9.92203 15.75 10.1433L14.4862 10.7733C14.6325 11.5608 14.6325 12.367 14.4862 13.1545ZM10.0762 13.9458C12.2962 11.0583 8.99999 7.76203 6.11249 9.98203C3.89249 12.8695 7.18874 16.1658 10.0762 13.9458ZM19.2037 20.797L18.8962 21.3333C18.7837 21.532 18.5437 21.6145 18.33 21.5358C17.8875 21.3708 17.4825 21.1345 17.1262 20.8383C16.9537 20.6958 16.9087 20.4445 17.0212 20.2495L17.3287 19.7133C17.07 19.4133 16.8675 19.0645 16.7325 18.6858H16.1137C15.8887 18.6858 15.6937 18.5245 15.6562 18.2995C15.5812 17.8495 15.5775 17.377 15.6562 16.9083C15.6937 16.6833 15.8887 16.5183 16.1137 16.5183H16.7325C16.8675 16.1395 17.07 15.7908 17.3287 15.4908L17.0212 14.9545C16.9087 14.7595 16.95 14.5083 17.1262 14.3658C17.4825 14.0695 17.8912 13.8333 18.33 13.6683C18.5437 13.5895 18.7837 13.672 18.8962 13.8708L19.2037 14.407C19.5975 14.3358 19.9987 14.3358 20.3925 14.407L20.7 13.8708C20.8125 13.672 21.0525 13.5895 21.2662 13.6683C21.7087 13.8333 22.1137 14.0695 22.47 14.3658C22.6425 14.5083 22.6875 14.7595 22.575 14.9545L22.2675 15.4908C22.5262 15.7908 22.7287 16.1395 22.8637 16.5183H23.4825C23.7075 16.5183 23.9025 16.6795 23.94 16.9045C24.015 17.3545 24.0187 17.827 23.94 18.2958C23.9025 18.5208 23.7075 18.6858 23.4825 18.6858H22.8637C22.7287 19.0645 22.5262 19.4133 22.2675 19.7133L22.575 20.2495C22.6875 20.4445 22.6462 20.6958 22.47 20.8383C22.1137 21.1345 21.705 21.3708 21.2662 21.5358C21.0525 21.6145 20.8125 21.532 20.7 21.3333L20.3925 20.797C20.0025 20.8683 19.5975 20.8683 19.2037 20.797ZM18.81 18.5883C20.2537 19.6983 21.9 18.052 20.79 16.6083C19.3462 15.4983 17.7 17.1445 18.81 18.5883Z" fill="#E1E1FF"/>
</g>
<defs>
<clipPath id="clip0_29_575">
<rect width="24" height="24" fill="white"/>
</clipPath>
</defs>
</svg>
