<svg width="24" height="24" viewBox="0 0 24 24" fill="none" xmlns="http://www.w3.org/2000/svg">
<g clip-path="url(#clip0_29_603)">
<path d="M0 18.9984V21C0 22.6547 4.03125 24 9 24C13.9688 24 18 22.6547 18 21V18.9984C16.0641 20.3625 12.525 21 9 21C5.475 21 1.93594 20.3625 0 18.9984ZM15 6C19.9688 6 24 4.65469 24 3C24 1.34531 19.9688 0 15 0C10.0312 0 6 1.34531 6 3C6 4.65469 10.0312 6 15 6ZM0 14.0812V16.5C0 18.1547 4.03125 19.5 9 19.5C13.9688 19.5 18 18.1547 18 16.5V14.0812C16.0641 15.675 12.5203 16.5 9 16.5C5.47969 16.5 1.93594 15.675 0 14.0812ZM19.5 14.5969C22.1859 14.0766 24 13.1109 24 12V9.99844C22.9125 10.7672 21.3141 11.2922 19.5 11.6156V14.5969ZM9 7.5C4.03125 7.5 0 9.17813 0 11.25C0 13.3219 4.03125 15 9 15C13.9688 15 18 13.3219 18 11.25C18 9.17813 13.9688 7.5 9 7.5ZM19.2797 10.1391C22.0922 9.63281 24 8.63906 24 7.5V5.49844C22.3359 6.675 19.4766 7.30781 16.4672 7.45781C17.85 8.12813 18.8672 9.02812 19.2797 10.1391Z" fill="#E1E1FF"/>
</g>
<defs>
<clipPath id="clip0_29_603">
<rect width="24" height="24" fill="white"/>
</clipPath>
</defs>
</svg>
