<svg width="24" height="24" viewBox="0 0 24 24" fill="none" xmlns="http://www.w3.org/2000/svg">
<g clip-path="url(#clip0_29_581)">
<path d="M12 0C5.37097 0 0 5.37097 0 12C0 18.629 5.37097 24 12 24C18.629 24 24 18.629 24 12C24 5.37097 18.629 0 12 0ZM4.29639 11.2269C4.25399 11.6524 3.91145 12 3.48387 12C3.0563 12 2.7063 11.6522 2.74158 11.2261C3.11478 6.71805 6.71805 3.11478 11.2261 2.74158C11.6522 2.70631 12 3.0563 12 3.48387C12 3.91145 11.6524 4.25399 11.2269 4.29639C7.57484 4.6604 4.6604 7.57484 4.29639 11.2269ZM12 16.6452C9.43548 16.6452 7.35484 14.5645 7.35484 12C7.35484 9.43548 9.43548 7.35484 12 7.35484C14.5645 7.35484 16.6452 9.43548 16.6452 12C16.6452 14.5645 14.5645 16.6452 12 16.6452ZM12 10.4516C11.1435 10.4516 10.4516 11.1435 10.4516 12C10.4516 12.8565 11.1435 13.5484 12 13.5484C12.8565 13.5484 13.5484 12.8565 13.5484 12C13.5484 11.1435 12.8565 10.4516 12 10.4516Z" fill="#E1E1FF"/>
</g>
<defs>
<clipPath id="clip0_29_581">
<rect width="24" height="24" fill="white"/>
</clipPath>
</defs>
</svg>
