<svg width="24" height="24" viewBox="0 0 24 24" fill="none" xmlns="http://www.w3.org/2000/svg">
<path d="M21.6 2.40002H2.4C1.0764 2.40002 0 3.47642 0 4.80002V19.2C0 20.5236 1.0764 21.6 2.4 21.6H21.6C22.9236 21.6 24 20.5236 24 19.2V4.80002C24 3.47642 22.9236 2.40002 21.6 2.40002ZM12.6 16.8C11.8044 16.8 11.0413 16.484 10.4787 15.9213C9.91607 15.3587 9.6 14.5957 9.6 13.8C9.6 13.0044 9.91607 12.2413 10.4787 11.6787C11.0413 11.1161 11.8044 10.8 12.6 10.8C13.2512 10.8015 13.8838 11.0175 14.4 11.4144C13.6752 11.9616 13.2 12.822 13.2 13.8C13.2 14.778 13.6752 15.6384 14.4 16.1856C13.8838 16.5826 13.2512 16.7985 12.6 16.8ZM17.4 16.8C16.6044 16.8 15.8413 16.484 15.2787 15.9213C14.7161 15.3587 14.4 14.5957 14.4 13.8C14.4 13.0044 14.7161 12.2413 15.2787 11.6787C15.8413 11.1161 16.6044 10.8 17.4 10.8C18.1957 10.8 18.9587 11.1161 19.5213 11.6787C20.0839 12.2413 20.4 13.0044 20.4 13.8C20.4 14.5957 20.0839 15.3587 19.5213 15.9213C18.9587 16.484 18.1957 16.8 17.4 16.8Z" fill="#E1E1FF"/>
</svg>
