<svg width="24" height="24" viewBox="0 0 24 24" fill="none" xmlns="http://www.w3.org/2000/svg">
<path d="M13.5 6.375V0.96C13.5 0.429807 13.0702 0 12.54 0H4.125C3.50156 0 3 0.501562 3 1.125V22.875C3 23.4984 3.50156 24 4.125 24H19.875C20.4984 24 21 23.4984 21 22.875V8.46C21 7.92981 20.5702 7.5 20.04 7.5H14.625C14.0062 7.5 13.5 6.99375 13.5 6.375ZM21 5.71406C21 5.87198 20.872 6 20.7141 6H15.96C15.4298 6 15 5.57019 15 5.04V0.285938C15 0.128019 15.128 0 15.2859 0C15.5859 0 15.8719 0.117188 16.0828 0.328125L20.6719 4.92188C20.8828 5.13281 21 5.41875 21 5.71406Z" fill="#E1E1FF"/>
</svg>
