<svg width="24" height="24" viewBox="0 0 24 24" fill="none" xmlns="http://www.w3.org/2000/svg">
<g clip-path="url(#clip0_29_578)">
<path d="M23.2468 5.24684L18.7532 0.753161C18.2709 0.270923 17.6169 3.56612e-06 16.9349 0H2.57143C1.15125 0 0 1.15125 0 2.57143V21.4286C0 22.8488 1.15125 24 2.57143 24H21.4286C22.8488 24 24 22.8488 24 21.4286V7.06511C24 6.38312 23.7291 5.72907 23.2468 5.24684ZM12 20.5714C10.1065 20.5714 8.57143 19.0364 8.57143 17.1429C8.57143 15.2493 10.1065 13.7143 12 13.7143C13.8935 13.7143 15.4286 15.2493 15.4286 17.1429C15.4286 19.0364 13.8935 20.5714 12 20.5714ZM17.1429 4.25786V9.64286C17.1429 9.99788 16.855 10.2857 16.5 10.2857H4.07143C3.71641 10.2857 3.42857 9.99788 3.42857 9.64286V4.07143C3.42857 3.71641 3.71641 3.42857 4.07143 3.42857H16.3136C16.4841 3.42857 16.6476 3.49629 16.7681 3.61687L16.9546 3.8033C17.0143 3.86299 17.0616 3.93385 17.0939 4.01185C17.1262 4.08984 17.1429 4.17344 17.1429 4.25786Z" fill="#E1E1FF"/>
</g>
<defs>
<clipPath id="clip0_29_578">
<rect width="24" height="24" fill="white"/>
</clipPath>
</defs>
</svg>
