<svg width="24" height="24" viewBox="0 0 24 24" fill="none" xmlns="http://www.w3.org/2000/svg">
<g clip-path="url(#clip0_29_590)">
<path d="M24 11.9773C24.0122 18.5889 18.6203 23.9953 12.0087 23.9999C9.15314 24.002 6.53017 23.0065 4.46893 21.3429C3.93295 20.9104 3.89288 20.1071 4.37995 19.62L4.92512 19.0749C5.34169 18.6583 6.00672 18.6127 6.46824 18.9789C7.98686 20.1839 9.90875 20.9032 12 20.9032C16.9212 20.9032 20.9032 16.9204 20.9032 12C20.9032 7.07878 16.9204 3.09677 12 3.09677C9.63802 3.09677 7.49278 4.01463 5.89993 5.51283L8.35577 7.96867C8.84351 8.45641 8.49807 9.29031 7.80836 9.29031H0.774193C0.346596 9.29031 0 8.94372 0 8.51612V1.48195C0 0.792241 0.833902 0.446806 1.32164 0.934499L3.71061 3.32346C5.86495 1.26464 8.78477 0 12 0C18.6198 0 23.9877 5.36032 24 11.9773ZM15.2462 15.7894L15.7215 15.1783C16.1153 14.672 16.024 13.9424 15.5178 13.5487L13.5484 12.0169V6.96774C13.5484 6.32637 13.0285 5.80645 12.3871 5.80645H11.6129C10.9715 5.80645 10.4516 6.32637 10.4516 6.96774V13.5315L13.6166 15.9931C14.1228 16.3869 14.8524 16.2957 15.2462 15.7894Z" fill="#E1E1FF"/>
</g>
<defs>
<clipPath id="clip0_29_590">
<rect width="24" height="24" fill="white"/>
</clipPath>
</defs>
</svg>
