<svg width="24" height="24" viewBox="0 0 24 24" fill="none" xmlns="http://www.w3.org/2000/svg">
<g clip-path="url(#clip0_29_600)">
<path d="M23.5134 4.31765L12.5269 0.0956236C12.1874 -0.0318745 11.8131 -0.0318745 11.4736 0.0956236L0.486562 4.31765C0.343641 4.37128 0.220484 4.46724 0.133542 4.59271C0.0465997 4.71818 1.14503e-05 4.86719 0 5.01984V6.75C0 7.16437 0.335625 7.5 0.75 7.5H23.25C23.6644 7.5 24 7.16437 24 6.75V5.01984C24 4.70719 23.8059 4.42734 23.5134 4.31765ZM4 9C3.5286 9 3.29289 9 3.14645 9.14645C3 9.29289 3 9.52859 3 10V15.75C3 15.983 3 16.0995 2.96194 16.1913C2.91119 16.3139 2.81386 16.4112 2.69134 16.4619C2.59946 16.5 2.48297 16.5 2.25 16.5C1.83562 16.5 1.5 16.8356 1.5 17.25V18.5C1.5 18.9714 1.5 19.2071 1.64645 19.3536C1.79289 19.5 2.0286 19.5 2.5 19.5H21.5C21.9714 19.5 22.2071 19.5 22.3536 19.3536C22.5 19.2071 22.5 18.9714 22.5 18.5V17.25C22.5 16.8356 22.1644 16.5 21.75 16.5C21.517 16.5 21.4005 16.5 21.3087 16.4619C21.1861 16.4112 21.0888 16.3139 21.0381 16.1913C21 16.0995 21 15.983 21 15.75V10C21 9.52859 21 9.29289 20.8536 9.14645C20.7071 9 20.4714 9 20 9H19C18.5286 9 18.2929 9 18.1464 9.14645C18 9.29289 18 9.52859 18 10V15.5C18 15.9714 18 16.2071 17.8536 16.3536C17.7071 16.5 17.4714 16.5 17 16.5H14.5C14.0286 16.5 13.7929 16.5 13.6464 16.3536C13.5 16.2071 13.5 15.9714 13.5 15.5V10C13.5 9.52859 13.5 9.29289 13.3536 9.14645C13.2071 9 12.9714 9 12.5 9H11.5C11.0286 9 10.7929 9 10.6464 9.14645C10.5 9.29289 10.5 9.52859 10.5 10V15.5C10.5 15.9714 10.5 16.2071 10.3536 16.3536C10.2071 16.5 9.9714 16.5 9.5 16.5H7C6.5286 16.5 6.29289 16.5 6.14645 16.3536C6 16.2071 6 15.9714 6 15.5V10C6 9.52859 6 9.29289 5.85355 9.14645C5.70711 9 5.4714 9 5 9H4ZM23.25 21H0.75C0.335625 21 0 21.3356 0 21.75V23.25C0 23.6644 0.335625 24 0.75 24H23.25C23.6644 24 24 23.6644 24 23.25V21.75C24 21.3356 23.6644 21 23.25 21Z" fill="#E1E1FF"/>
</g>
<defs>
<clipPath id="clip0_29_600">
<rect width="24" height="24" fill="white"/>
</clipPath>
</defs>
</svg>
