<svg width="24" height="24" viewBox="0 0 24 24" fill="none" xmlns="http://www.w3.org/2000/svg">
<g clip-path="url(#clip0_29_569)">
<path d="M11.85 5.7797C11.8969 5.80314 11.9344 5.85939 11.9907 5.85939C12.0422 5.85939 12.1219 5.84064 12.1266 5.78908C12.136 5.72345 12.0375 5.68126 11.9766 5.65314C11.8969 5.62033 11.7938 5.60626 11.7188 5.64845C11.7 5.65783 11.6813 5.68126 11.6907 5.70001C11.7047 5.76095 11.7985 5.75158 11.85 5.7797ZM10.8235 5.85939C10.8797 5.85939 10.9172 5.80314 10.9641 5.7797C11.0157 5.75158 11.1094 5.76095 11.1282 5.7047C11.1375 5.68595 11.1188 5.66251 11.1 5.65314C11.025 5.61095 10.9219 5.62501 10.8422 5.65783C10.7813 5.68595 10.6828 5.72814 10.6922 5.79376C10.6969 5.84064 10.7766 5.86408 10.8235 5.85939ZM21.1875 18.9281C21.0188 18.7406 20.9391 18.3844 20.85 18.0047C20.7657 17.625 20.6672 17.2172 20.3578 16.9547C20.2969 16.9031 20.236 16.8563 20.1703 16.8188C20.1094 16.7813 20.0438 16.7484 19.9782 16.725C20.4094 15.4453 20.2407 14.1703 19.8047 13.0172C19.2703 11.6063 18.3375 10.3735 17.625 9.5297C16.8235 8.52189 16.0453 7.56564 16.0594 6.1547C16.0828 4.00314 16.2985 0.00470106 12.5063 1.35551e-05C7.70628 -0.00936144 8.90628 4.84689 8.85472 6.33751C8.77503 7.43439 8.55472 8.29689 7.80003 9.37033C6.91409 10.425 5.66722 12.1266 5.07659 13.9031C4.79534 14.7422 4.66409 15.5953 4.78597 16.4016C4.48128 16.6735 4.25159 17.0906 4.00784 17.3484C3.81097 17.55 3.52503 17.625 3.21097 17.7375C2.8969 17.85 2.55472 18.0188 2.34378 18.4172C2.24534 18.6 2.21253 18.7969 2.21253 18.9984C2.21253 19.1813 2.24065 19.3688 2.26878 19.5516C2.32503 19.9313 2.38597 20.2875 2.30628 20.5266C2.06253 21.2016 2.02972 21.6703 2.20315 22.0125C2.38128 22.3547 2.73753 22.5047 3.14534 22.5891C3.95628 22.7578 5.05784 22.7156 5.92503 23.175C6.85315 23.6625 7.79534 23.8359 8.54534 23.6625C9.08909 23.5406 9.5344 23.2125 9.7594 22.7156C10.3453 22.711 10.9922 22.4625 12.0235 22.4063C12.7219 22.35 13.5985 22.6547 14.6063 22.5984C14.6344 22.7063 14.6719 22.8141 14.7235 22.9125V22.9172C15.1125 23.7 15.8391 24.0563 16.6125 23.9953C17.3907 23.9344 18.211 23.4797 18.8766 22.6875C19.5141 21.9188 20.5641 21.6 21.2625 21.1781C21.6094 20.9672 21.8907 20.7047 21.9141 20.3203C21.9328 19.936 21.7078 19.5094 21.1875 18.9281ZM11.986 4.0922C12.4453 3.05158 13.5891 3.07033 14.0485 4.07345C14.3532 4.73908 14.2172 5.52189 13.8469 5.9672C13.7719 5.9297 13.5703 5.84533 13.2563 5.73751C13.3078 5.68126 13.4016 5.61095 13.4391 5.52189C13.6641 4.96876 13.4297 4.25626 13.0125 4.2422C12.6703 4.21876 12.361 4.74845 12.4594 5.32033C12.2672 5.22658 12.0188 5.15626 11.85 5.11408C11.8032 4.79064 11.836 4.4297 11.986 4.0922ZM10.0782 3.55314C10.5516 3.55314 11.0532 4.21876 10.9735 5.12345C10.8094 5.17033 10.6407 5.24064 10.4953 5.33908C10.5516 4.92189 10.3407 4.39689 10.0453 4.42033C9.65159 4.45314 9.58597 5.41408 9.96097 5.73751C10.0078 5.77501 10.05 5.72814 9.6844 5.99533C8.95315 5.31095 9.19222 3.55314 10.0782 3.55314ZM9.44065 6.39845C9.73128 6.18283 10.0782 5.9297 10.1016 5.90626C10.3219 5.70001 10.7344 5.24064 11.4094 5.24064C11.7422 5.24064 12.1407 5.34845 12.6235 5.65783C12.9188 5.85001 13.1532 5.86408 13.6828 6.09376C14.0766 6.25783 14.325 6.54845 14.175 6.94689C14.0532 7.2797 13.6594 7.62189 13.111 7.79533C12.5907 7.96408 12.1828 8.54533 11.3203 8.49376C11.1375 8.48439 10.9922 8.44689 10.8703 8.39533C10.4953 8.23126 10.2985 7.90783 9.93284 7.6922C9.52972 7.4672 9.31409 7.2047 9.24378 6.97501C9.17815 6.74533 9.24378 6.55314 9.44065 6.39845ZM9.59534 22.0547C9.46878 23.7 7.53753 23.6672 6.06565 22.8985C4.66409 22.1578 2.85003 22.5938 2.47972 21.8719C2.36722 21.6516 2.36722 21.2766 2.60159 20.6344V20.625C2.71409 20.2688 2.62972 19.875 2.57347 19.5047C2.51722 19.1391 2.48909 18.8016 2.61565 18.5672C2.77972 18.2531 3.01409 18.1406 3.3094 18.0375C3.79222 17.8641 3.86253 17.8781 4.22815 17.5735C4.48597 17.3063 4.67347 16.9688 4.89847 16.7297C5.13753 16.4719 5.36722 16.35 5.72815 16.4063C6.10784 16.4625 6.43597 16.725 6.75472 17.1563L7.67347 18.825C8.11878 19.7578 9.69378 21.0938 9.59534 22.0547ZM9.52972 20.8406C9.33753 20.5313 9.07972 20.2031 8.85472 19.9219C9.18753 19.9219 9.52034 19.8188 9.63753 19.5047C9.74534 19.2141 9.63753 18.8063 9.29065 18.3375C8.65784 17.4844 7.49534 16.8141 7.49534 16.8141C6.86253 16.4203 6.50628 15.9375 6.34222 15.4125C6.17815 14.8875 6.20159 14.3203 6.32815 13.7625C6.5719 12.6891 7.20003 11.6438 7.60315 10.9875C7.71097 10.9078 7.64065 11.1375 7.19534 11.9625C6.7969 12.7172 6.05159 14.461 7.07347 15.825C7.10159 14.8547 7.33128 13.8656 7.72034 12.9422C8.28284 11.6578 9.46878 9.43126 9.56253 7.65939C9.61409 7.69689 9.77815 7.80939 9.85315 7.85158C10.0688 7.97814 10.2328 8.16564 10.4438 8.33439C11.025 8.80314 11.7797 8.76564 12.4313 8.39064C12.7219 8.22658 12.9563 8.03908 13.1766 7.96876C13.6407 7.82345 14.011 7.56564 14.2219 7.26564C14.5828 8.69064 15.4266 10.7485 15.9657 11.7516C16.2516 12.286 16.8235 13.4156 17.0719 14.7797C17.2266 14.775 17.4 14.7985 17.5828 14.8453C18.2297 13.1719 17.0344 11.3672 16.4907 10.8656C16.2703 10.65 16.261 10.5563 16.3688 10.561C16.9594 11.086 17.7375 12.1406 18.0188 13.3266C18.15 13.8703 18.1735 14.4375 18.0375 15C18.8063 15.3188 19.7203 15.8391 19.4766 16.6313C19.3735 16.6266 19.3266 16.6313 19.2797 16.6313C19.4297 16.1578 19.0969 15.8063 18.211 15.4078C17.2922 15.0047 16.5235 15.0047 16.4157 15.9938C15.8485 16.1906 15.5578 16.6828 15.4125 17.2735C15.2813 17.7985 15.2438 18.4313 15.2063 19.1438C15.1828 19.5047 15.0375 19.9875 14.8875 20.5031C13.3828 21.5766 11.2922 22.0453 9.52972 20.8406ZM21.5953 20.3016C21.5532 21.0891 19.6641 21.2344 18.6328 22.4813C18.0141 23.2172 17.2547 23.625 16.5891 23.6766C15.9235 23.7281 15.3469 23.4516 15.0094 22.7719C14.7891 22.2516 14.8969 21.6891 15.061 21.0703C15.2344 20.4047 15.4922 19.7203 15.525 19.1672C15.5625 18.4547 15.6047 17.8313 15.7219 17.3531C15.8438 16.8703 16.0313 16.5469 16.3641 16.3641C16.3782 16.3547 16.3969 16.35 16.411 16.3406C16.4485 16.9594 16.7532 17.5875 17.2922 17.7234C17.8828 17.8781 18.7313 17.3719 19.0922 16.9594C19.5141 16.9453 19.8282 16.9172 20.1516 17.1985C20.6157 17.5969 20.4844 18.6188 20.9532 19.1485C21.45 19.6922 21.6094 20.0625 21.5953 20.3016ZM9.62347 6.97033C9.71722 7.05939 9.84378 7.18126 9.99847 7.30314C10.3078 7.54689 10.7391 7.80001 11.2782 7.80001C11.8219 7.80001 12.3328 7.52345 12.7688 7.29376C12.9985 7.17189 13.2797 6.96564 13.4625 6.80626C13.6453 6.64689 13.7391 6.51095 13.6078 6.49689C13.4766 6.48283 13.486 6.61876 13.3266 6.73595C13.1203 6.88595 12.8719 7.08283 12.675 7.19533C12.3282 7.3922 11.761 7.67345 11.2735 7.67345C10.786 7.67345 10.3969 7.44845 10.1063 7.21876C9.96097 7.10158 9.83909 6.98439 9.74534 6.89533C9.67503 6.8297 9.65628 6.6797 9.54378 6.66564C9.47815 6.66095 9.4594 6.83908 9.62347 6.97033Z" fill="#E1E1FF"/>
</g>
<defs>
<clipPath id="clip0_29_569">
<rect width="24" height="24" fill="white"/>
</clipPath>
</defs>
</svg>
