<svg width="24" height="24" viewBox="0 0 24 24" fill="none" xmlns="http://www.w3.org/2000/svg">
<g clip-path="url(#clip0_29_589)">
<path d="M16.7143 15.4286H23C23.5523 15.4286 24 14.9809 24 14.4286V1.28571C24 0.573214 23.4268 0 22.7143 0H1.28571C0.573214 0 0 0.573214 0 1.28571V22.7143C0 23.4268 0.573214 24 1.28571 24H14.4286C14.9809 24 15.4286 23.5523 15.4286 23V16.7143C15.4286 16.0071 16.0071 15.4286 16.7143 15.4286ZM23.625 18.375L18.375 23.625C18.1339 23.8661 17.8071 24 17.4643 24C17.2868 24 17.1429 23.8561 17.1429 23.6786V18.1429C17.1429 17.5906 17.5906 17.1429 18.1429 17.1429H23.6732C23.8537 17.1429 24 17.2892 24 17.4696C24 17.8071 23.8661 18.1339 23.625 18.375Z" fill="#E1E1FF"/>
</g>
<defs>
<clipPath id="clip0_29_589">
<rect width="24" height="24" fill="white"/>
</clipPath>
</defs>
</svg>
