<svg width="24" height="24" viewBox="0 0 24 24" fill="none" xmlns="http://www.w3.org/2000/svg">
<path d="M7.57594 8.25H9.40828C9.47813 6.98297 9.71484 5.84297 10.0744 4.94953C8.77547 5.57016 7.82344 6.78656 7.57594 8.25ZM7.57594 9.75C7.82391 11.2134 8.77547 12.4298 10.0744 13.0505C9.71437 12.157 9.47813 11.017 9.40828 9.75H7.57594ZM12 13.4386C12.3605 13.0894 12.9736 11.8252 13.0983 9.75H10.9012C11.0264 11.8247 11.6395 13.0894 12 13.4386ZM10.9017 8.25H13.0988C12.9741 6.17531 12.3609 4.91062 12.0005 4.56141C11.6395 4.91062 11.0264 6.17531 10.9017 8.25ZM13.9256 13.0505C15.2245 12.4298 16.1766 11.2134 16.4241 9.75H14.5917C14.5219 11.017 14.2856 12.157 13.9256 13.0505ZM21 0H4.5C2.84297 0 1.5 1.34297 1.5 3V21C1.5 22.657 2.84297 24 4.5 24H21C21.8283 24 22.5 23.3283 22.5 22.5V1.5C22.5 0.671719 21.8283 0 21 0ZM17.25 19.5H6.75C6.3375 19.5 6 19.1625 6 18.75C6 18.3375 6.3375 18 6.75 18H17.25C17.6625 18 18 18.3375 18 18.75C18 19.1625 17.6625 19.5 17.25 19.5ZM12 15C8.68641 15 6 12.3136 6 9C6 5.68641 8.68641 3 12 3C15.3136 3 18 5.68641 18 9C18 12.3136 15.3136 15 12 15ZM13.9256 4.94953C14.2856 5.84297 14.5219 6.98297 14.5917 8.25H16.4241C16.1766 6.78656 15.2245 5.57016 13.9256 4.94953Z" fill="#E1E1FF"/>
</svg>
