<svg width="24" height="24" viewBox="0 0 24 24" fill="none" xmlns="http://www.w3.org/2000/svg">
<g clip-path="url(#clip0_29_596)">
<path d="M6.82824 6.82824C8.3901 5.26637 8.3901 2.73326 6.82824 1.1714C5.26637 -0.390466 2.73326 -0.390466 1.1714 1.1714C-0.390466 2.73326 -0.390466 5.26637 1.1714 6.82824C2.73389 8.39073 5.26637 8.39073 6.82824 6.82824ZM22.8281 17.1713C21.2663 15.6094 18.7332 15.6094 17.1713 17.1713C15.6094 18.7332 15.6094 21.2663 17.1713 22.8281C18.7332 24.39 21.2663 24.39 22.8281 22.8281C24.3906 21.2663 24.3906 18.7338 22.8281 17.1713ZM22.7069 2.70701L21.2931 1.29327C20.5119 0.512028 19.2457 0.512028 18.465 1.29327L1.29327 18.465C0.512028 19.2463 0.512028 20.5125 1.29327 21.2931L2.70701 22.7069C3.48826 23.4881 4.7545 23.4881 5.53512 22.7069L22.7069 5.53512C23.4881 4.7545 23.4881 3.48826 22.7069 2.70701Z" fill="#E1E1FF"/>
</g>
<defs>
<clipPath id="clip0_29_596">
<rect width="24" height="24" fill="white"/>
</clipPath>
</defs>
</svg>
