<svg width="24" height="24" viewBox="0 0 24 24" fill="none" xmlns="http://www.w3.org/2000/svg">
<path d="M22.5 7.5H1.5C0.671578 7.5 0 6.82842 0 6V3C0 2.17158 0.671578 1.5 1.5 1.5H22.5C23.3284 1.5 24 2.17158 24 3V6C24 6.82842 23.3284 7.5 22.5 7.5ZM20.25 3.375C19.6287 3.375 19.125 3.87867 19.125 4.5C19.125 5.12133 19.6287 5.625 20.25 5.625C20.8713 5.625 21.375 5.12133 21.375 4.5C21.375 3.87867 20.8713 3.375 20.25 3.375ZM17.25 3.375C16.6287 3.375 16.125 3.87867 16.125 4.5C16.125 5.12133 16.6287 5.625 17.25 5.625C17.8713 5.625 18.375 5.12133 18.375 4.5C18.375 3.87867 17.8713 3.375 17.25 3.375ZM22.5 15H1.5C0.671578 15 0 14.3284 0 13.5V10.5C0 9.67158 0.671578 9 1.5 9H22.5C23.3284 9 24 9.67158 24 10.5V13.5C24 14.3284 23.3284 15 22.5 15ZM20.25 10.875C19.6287 10.875 19.125 11.3787 19.125 12C19.125 12.6213 19.6287 13.125 20.25 13.125C20.8713 13.125 21.375 12.6213 21.375 12C21.375 11.3787 20.8713 10.875 20.25 10.875ZM17.25 10.875C16.6287 10.875 16.125 11.3787 16.125 12C16.125 12.6213 16.6287 13.125 17.25 13.125C17.8713 13.125 18.375 12.6213 18.375 12C18.375 11.3787 17.8713 10.875 17.25 10.875ZM22.5 22.5H1.5C0.671578 22.5 0 21.8284 0 21V18C0 17.1716 0.671578 16.5 1.5 16.5H22.5C23.3284 16.5 24 17.1716 24 18V21C24 21.8284 23.3284 22.5 22.5 22.5ZM20.25 18.375C19.6287 18.375 19.125 18.8787 19.125 19.5C19.125 20.1213 19.6287 20.625 20.25 20.625C20.8713 20.625 21.375 20.1213 21.375 19.5C21.375 18.8787 20.8713 18.375 20.25 18.375ZM17.25 18.375C16.6287 18.375 16.125 18.8787 16.125 19.5C16.125 20.1213 16.6287 20.625 17.25 20.625C17.8713 20.625 18.375 20.1213 18.375 19.5C18.375 18.8787 17.8713 18.375 17.25 18.375Z" fill="#E1E1FF"/>
</svg>
