<svg width="24" height="24" viewBox="0 0 24 24" fill="none" xmlns="http://www.w3.org/2000/svg">
<g clip-path="url(#clip0_29_583)">
<path d="M23.489 18.5484L17.9999 13.0594C17.0967 12.1562 15.8217 11.8596 14.6672 12.1588C14.2526 12.2662 13.7931 12.2041 13.4902 11.9013L9.2928 7.70383C9.10526 7.51629 8.9999 7.26194 8.9999 6.99672V5C8.9999 4.68524 8.85171 4.38885 8.5999 4.2L3.69374 0.520377C3.29562 0.221787 2.73852 0.261378 2.38663 0.61327L0.613173 2.38673C0.261281 2.73862 0.221689 3.29572 0.52028 3.69384L4.1999 8.6C4.38876 8.85181 4.68515 9 4.9999 9H6.99663C7.26184 9 7.5162 9.10536 7.70373 9.29289L11.9027 13.4919C12.2048 13.794 12.2675 14.2521 12.1607 14.6658C11.8625 15.8206 12.1557 17.0964 13.0593 18L18.5483 23.4891C19.2327 24.1734 20.339 24.1734 21.0187 23.4891L23.489 21.0187C24.1687 20.3344 24.1687 19.2281 23.489 18.5484ZM15.5483 10.5469C16.8749 10.5469 18.1218 11.0625 19.0593 12L19.4864 12.4271C19.7773 12.718 20.2203 12.8072 20.58 12.6076C21.0952 12.3218 21.5828 11.9655 22.0218 11.5266C23.7608 9.7875 24.3515 7.34062 23.7983 5.11875C23.6952 4.69687 23.1655 4.55156 22.8562 4.86094L19.7324 7.98465C19.5041 8.21296 19.1797 8.31698 18.8612 8.26398L16.8908 7.93607C16.4691 7.8659 16.1387 7.53546 16.0685 7.1138L15.7406 5.14342C15.6876 4.82494 15.7916 4.50046 16.0199 4.27215L19.1437 1.14844C19.453 0.839063 19.303 0.309375 18.8765 0.201563C16.6546 -0.346875 14.2077 0.24375 12.4733 1.97813C11.2396 3.21188 10.6095 4.80943 10.5462 6.43112C10.5361 6.68968 10.6443 6.9366 10.8273 7.11957L13.9969 10.2892C14.2417 10.5339 14.5947 10.6275 14.9382 10.585C15.1419 10.5598 15.3464 10.5469 15.5483 10.5469ZM10.5851 14.9376C10.6226 14.5944 10.5296 14.2422 10.2855 13.9981L8.72755 12.4402C8.33694 12.0495 7.7036 12.0496 7.31311 12.4404L0.876465 18.8812C-0.29541 20.0531 -0.29541 21.9516 0.876465 23.1234C2.04834 24.2953 3.94678 24.2953 5.11865 23.1234L10.4541 17.788C10.7329 17.5092 10.8135 17.0944 10.7166 16.7121C10.5701 16.1341 10.5199 15.5345 10.5851 14.9376ZM2.9999 22.125C2.38115 22.125 1.8749 21.6187 1.8749 21C1.8749 20.3766 2.37647 19.875 2.9999 19.875C3.62334 19.875 4.1249 20.3766 4.1249 21C4.1249 21.6187 3.62334 22.125 2.9999 22.125Z" fill="#E1E1FF"/>
</g>
<defs>
<clipPath id="clip0_29_583">
<rect width="24" height="24" fill="white"/>
</clipPath>
</defs>
</svg>
