<svg width="24" height="24" viewBox="0 0 24 24" fill="none" xmlns="http://www.w3.org/2000/svg">
<path d="M2.66667 1.33502C1.19583 1.33502 0 2.53086 0 4.00169V18.6684C0 20.1392 1.19583 21.335 2.66667 21.335H2.7153C3.09407 21.335 3.44033 21.549 3.60973 21.8878L3.72361 22.1156C3.893 22.4543 4.23926 22.6684 4.61803 22.6684H6.04863C6.4274 22.6684 6.77367 22.4544 6.94306 22.1156L7.05694 21.8878C7.22633 21.549 7.5726 21.335 7.95137 21.335H16.0486C16.4274 21.335 16.7737 21.549 16.9431 21.8878L17.0569 22.1156C17.2263 22.4544 17.5726 22.6684 17.9514 22.6684H19.382C19.7607 22.6684 20.107 22.4544 20.2764 22.1156L20.3903 21.8878C20.5597 21.549 20.9059 21.335 21.2847 21.335H21.3333C22.8042 21.335 24 20.1392 24 18.6684V4.00169C24 2.53086 22.8042 1.33502 21.3333 1.33502H2.66667ZM9.33333 14.6684C10.2174 14.6684 11.0652 14.3172 11.6904 13.692C12.3155 13.0669 12.6667 12.2191 12.6667 11.335C12.6667 10.451 12.3155 9.60312 11.6904 8.978C11.0652 8.35288 10.2174 8.00169 9.33333 8.00169C8.44928 8.00169 7.60143 8.35288 6.97631 8.978C6.35119 9.60312 6 10.451 6 11.335C6 12.2191 6.35119 13.0669 6.97631 13.692C7.60143 14.3172 8.44928 14.6684 9.33333 14.6684ZM9.33333 4.66835C11.1014 4.66835 12.7971 5.37073 14.0474 6.62098C15.2976 7.87122 16 9.56691 16 11.335C16 13.1031 15.2976 14.7988 14.0474 16.0491C12.7971 17.2993 11.1014 18.0017 9.33333 18.0017C7.56522 18.0017 5.86953 17.2993 4.61929 16.0491C3.36905 14.7988 2.66667 13.1031 2.66667 11.335C2.66667 9.56691 3.36905 7.87122 4.61929 6.62098C5.86953 5.37073 7.56522 4.66835 9.33333 4.66835ZM20.3206 10.4089C20.1368 10.5138 20 10.6973 20 10.909V15.335C20 15.7017 19.7 16.0017 19.3333 16.0017C18.9667 16.0017 18.6667 15.7017 18.6667 15.335V10.909C18.6667 10.6973 18.5299 10.5138 18.3461 10.4089C17.7423 10.0644 17.3333 9.41366 17.3333 8.66835C17.3333 7.56419 18.2292 6.66835 19.3333 6.66835C20.4375 6.66835 21.3333 7.56419 21.3333 8.66835C21.3333 9.41366 20.9244 10.0644 20.3206 10.4089Z" fill="#E1E1FF"/>
</svg>
