<svg width="24" height="24" viewBox="0 0 24 24" fill="none" xmlns="http://www.w3.org/2000/svg">
<g clip-path="url(#clip0_29_608)">
<path d="M23.8091 8.20798C17.1652 2.06285 6.83209 2.0651 0.190843 8.20798C-0.0589069 8.43898 -0.0637819 8.8301 0.177718 9.06973L1.46172 10.3436C1.69197 10.5724 2.06247 10.5772 2.30172 10.3579C7.77372 5.34485 16.2255 5.34373 21.6986 10.3579C21.9378 10.5772 22.3083 10.572 22.5386 10.3436L23.8226 9.06973C24.0637 8.8301 24.0588 8.43898 23.8091 8.20798ZM12 15.6C10.6743 15.6 9.59997 16.6743 9.59997 18C9.59997 19.3256 10.6743 20.4 12 20.4C13.3256 20.4 14.4 19.3256 14.4 18C14.4 16.6743 13.3256 15.6 12 15.6ZM19.6001 12.4654C15.2778 8.64298 8.71722 8.6471 4.39984 12.4654C4.14109 12.6941 4.13284 13.0912 4.37847 13.3335L5.66997 14.6081C5.89497 14.8301 6.25722 14.8451 6.49684 14.6381C9.64497 11.9167 14.3621 11.9227 17.5027 14.6381C17.7423 14.8451 18.1046 14.8305 18.3296 14.6081L19.6211 13.3335C19.8671 13.0912 19.8585 12.6937 19.6001 12.4654Z" fill="#E1E1FF"/>
</g>
<defs>
<clipPath id="clip0_29_608">
<rect width="24" height="24" fill="white"/>
</clipPath>
</defs>
</svg>
