<svg width="24" height="24" viewBox="0 0 24 24" fill="none" xmlns="http://www.w3.org/2000/svg">
<g clip-path="url(#clip0_29_568)">
<path d="M0 2.04255C0 1.07968 0 0.59825 0.299125 0.299125C0.59825 0 1.07968 0 2.04255 0H11.4964V11.4964H0V2.04255ZM12.5036 0H21.9574C22.9203 0 23.4018 0 23.7009 0.299125C24 0.59825 24 1.07968 24 2.04255V11.4964H12.5036V0ZM0 12.5036H11.4964V24H2.04255C1.07968 24 0.59825 24 0.299125 23.7009C0 23.4018 0 22.9203 0 21.9574V12.5036ZM12.5036 12.5036H24V21.9574C24 22.9203 24 23.4018 23.7009 23.7009C23.4018 24 22.9203 24 21.9574 24H12.5036V12.5036Z" fill="#E1E1FF"/>
</g>
<defs>
<clipPath id="clip0_29_568">
<rect width="24" height="24" fill="white"/>
</clipPath>
</defs>
</svg>
