<svg width="24" height="24" viewBox="0 0 24 24" fill="none" xmlns="http://www.w3.org/2000/svg">
<g clip-path="url(#clip0_29_565)">
<path d="M12 0C5.37097 0 0 5.37097 0 12C0 18.629 5.37097 24 12 24C18.629 24 24 18.629 24 12C24 5.37097 18.629 0 12 0ZM21.6774 12C21.6774 13.0887 21.4887 14.1387 21.1548 15.1161H20.1726C19.9645 15.1161 19.7661 15.0339 19.621 14.8839L18.0726 13.3065C17.8548 13.0839 17.8548 12.721 18.0774 12.4984L18.6823 11.8935V11.4726C18.6823 11.3274 18.6242 11.1871 18.5226 11.0855L18.0677 10.6306C17.9661 10.529 17.8258 10.471 17.6806 10.471H16.9065C16.6065 10.471 16.3597 10.2242 16.3597 9.92419C16.3597 9.77903 16.4177 9.63871 16.5194 9.5371L16.9742 9.08226C17.0758 8.98065 17.2161 8.92258 17.3613 8.92258H18.9097C19.2097 8.92258 19.4565 8.67581 19.4565 8.37581V7.92097C19.4565 7.62097 19.2097 7.37419 18.9097 7.37419H17.1339C16.7081 7.37419 16.3597 7.72258 16.3597 8.14839V8.36613C16.3597 8.7 16.1468 8.99516 15.8323 9.10161L14.3032 9.60968C14.1435 9.6629 14.0371 9.80806 14.0371 9.97742V10.0839C14.0371 10.2968 13.8629 10.471 13.65 10.471H12.8758C12.6629 10.471 12.4887 10.2968 12.4887 10.0839C12.4887 9.87097 12.3145 9.69677 12.1016 9.69677H11.9516C11.8065 9.69677 11.671 9.77903 11.6032 9.90968L11.1484 10.8145C11.0177 11.0758 10.7516 11.2403 10.4565 11.2403H9.3871C8.96129 11.2403 8.6129 10.8919 8.6129 10.4661V9.24193C8.6129 9.03871 8.69516 8.84032 8.84032 8.69516L9.8129 7.72258C10.0355 7.5 10.1613 7.19516 10.1613 6.87581C10.1613 6.71129 10.2677 6.56129 10.4274 6.50806L12.3629 5.86452C12.4452 5.83548 12.5177 5.79194 12.5758 5.73387L13.8726 4.4371C13.9742 4.33548 14.0323 4.19516 14.0323 4.05C14.0323 3.75 13.7855 3.50323 13.4855 3.50323H12.4839L11.7097 4.27742V4.66452C11.7097 4.87742 11.5355 5.05161 11.3226 5.05161H10.5484C10.3355 5.05161 10.1613 4.87742 10.1613 4.66452V3.69677C10.1613 3.57581 10.2194 3.45968 10.3161 3.3871L11.7145 2.3371C11.8065 2.33226 11.8984 2.32258 11.9903 2.32258C17.3371 2.32258 21.6774 6.6629 21.6774 12ZM6.29516 6.82742C6.29516 6.68226 6.35323 6.54194 6.45484 6.44032L7.68387 5.21129C7.78548 5.10968 7.92581 5.05161 8.07097 5.05161C8.37097 5.05161 8.61774 5.29839 8.61774 5.59839V6.37258C8.61774 6.51774 8.55968 6.65806 8.45806 6.75968L8.00323 7.21452C7.90161 7.31613 7.76129 7.37419 7.61613 7.37419H6.84194C6.54193 7.37419 6.29516 7.12742 6.29516 6.82742ZM12.4887 21.6532V21.3097C12.4887 20.8839 12.1403 20.5355 11.7145 20.5355H10.7371C10.2145 20.5355 9.44516 20.279 9.02419 19.9645L7.95 19.1565C7.39355 18.7403 7.06936 18.0871 7.06936 17.3952V16.2387C7.06936 15.4645 7.47581 14.7484 8.13871 14.3516L10.2145 13.1081C10.5581 12.9048 10.95 12.7935 11.3468 12.7935H12.8565C13.3839 12.7935 13.8919 12.9823 14.2887 13.321L16.379 15.1161H17.2645C17.6758 15.1161 18.0677 15.2806 18.3581 15.571L19.1952 16.4081C19.3597 16.5726 19.5871 16.6645 19.8194 16.6645H20.4677C18.9 19.5145 15.929 21.479 12.4887 21.6532Z" fill="#E1E1FF"/>
</g>
<defs>
<clipPath id="clip0_29_565">
<rect width="24" height="24" fill="white"/>
</clipPath>
</defs>
</svg>
