<svg width="24" height="24" viewBox="0 0 24 24" fill="none" xmlns="http://www.w3.org/2000/svg">
<g clip-path="url(#clip0_29_584)">
<path d="M23.7998 5.11405C23.6948 4.69077 23.1652 4.54734 22.8567 4.85577L19.735 7.97753C19.5066 8.20588 19.182 8.3099 18.8635 8.25682L16.8939 7.92865C16.4723 7.85842 16.142 7.52811 16.0718 7.1066L15.7436 5.13696C15.6906 4.81841 15.7946 4.49385 16.0229 4.2655L19.1447 1.14374C19.455 0.833429 19.3055 0.304679 18.8794 0.198742C16.6584 -0.351571 14.213 0.241398 12.4772 1.97671C10.7736 3.68027 10.202 6.08597 10.7148 8.28419C10.8005 8.6518 10.7127 9.04505 10.4458 9.31197L0.878433 18.8794C-0.292974 20.0508 -0.292974 21.9501 0.878433 23.1216C2.04984 24.293 3.94921 24.293 5.12062 23.1216L14.6778 13.5644C14.9456 13.2965 15.3406 13.2092 15.7093 13.2962C17.9071 13.8149 20.3085 13.2375 22.0228 11.5233C23.7605 9.78562 24.3525 7.3364 23.7998 5.11405ZM3 22.125C2.3789 22.125 1.87499 21.6211 1.87499 21C1.87499 20.3784 2.3789 19.875 3 19.875C3.62109 19.875 4.125 20.3784 4.125 21C4.125 21.6211 3.62109 22.125 3 22.125Z" fill="#E1E1FF"/>
</g>
<defs>
<clipPath id="clip0_29_584">
<rect width="24" height="24" fill="white"/>
</clipPath>
</defs>
</svg>
