<svg width="608" height="575" viewBox="0 0 608 575" fill="none" xmlns="http://www.w3.org/2000/svg">
<rect width="608" height="575" rx="16" fill="#181925"/>
<path d="M52.3652 62.1953C51.8835 62.1953 51.4049 62.1758 50.9297 62.1367C50.4609 62.1042 49.9824 62.0586 49.4941 62L50.3926 59.666C50.7376 59.8288 51.1185 59.9264 51.5352 59.959C51.9518 59.985 52.3652 59.998 52.7754 59.998C53.9277 59.998 54.8164 59.6628 55.4414 58.9922C56.0729 58.3216 56.3887 57.3711 56.3887 56.1406C56.3887 55.3464 56.2064 54.7344 55.8418 54.3047C55.4837 53.8685 54.9694 53.6504 54.2988 53.6504C52.7038 53.6504 51.9062 54.4935 51.9062 56.1797L51.3008 53.5234H52.1504C52.2936 52.1432 53.1237 51.4531 54.6406 51.4531C55.9753 51.4531 57.0072 51.86 57.7363 52.6738C58.4655 53.4876 58.8301 54.6432 58.8301 56.1406C58.8301 58.0612 58.2669 59.5521 57.1406 60.6133C56.0143 61.668 54.4225 62.1953 52.3652 62.1953ZM49.4941 62V47.3516H51.9062V61.8242L49.4941 62ZM67.1211 62.1953C65.8581 62.1953 64.9466 61.8503 64.3867 61.1602C63.8333 60.4701 63.5566 59.3665 63.5566 57.8496V47.3516H65.959V57.752C65.959 58.2272 66.0078 58.6178 66.1055 58.9238C66.2031 59.2233 66.3887 59.4447 66.6621 59.5879C66.9421 59.7311 67.3555 59.8027 67.9023 59.8027C68.4622 59.8027 69.1719 59.679 70.0312 59.4316L70.3047 61.7852C69.7643 61.9284 69.2402 62.0326 68.7324 62.0977C68.2311 62.1628 67.694 62.1953 67.1211 62.1953ZM60.5781 49.5391V47.3516H63.7324V49.5391H60.5781ZM77.2969 62.1953C75.832 62.1953 74.6927 61.7266 73.8789 60.7891C73.0716 59.8516 72.668 58.5299 72.668 56.8242C72.668 55.112 73.0716 53.7904 73.8789 52.8594C74.6927 51.9219 75.832 51.4531 77.2969 51.4531C78.7682 51.4531 79.9076 51.9219 80.7148 52.8594C81.5221 53.7904 81.9258 55.112 81.9258 56.8242C81.9258 58.5299 81.5221 59.8516 80.7148 60.7891C79.9076 61.7266 78.7682 62.1953 77.2969 62.1953ZM77.2969 59.9492C77.987 59.9492 78.5176 59.679 78.8887 59.1387C79.2598 58.5918 79.4453 57.8203 79.4453 56.8242C79.4453 55.8216 79.2565 55.0501 78.8789 54.5098C78.5078 53.9694 77.9805 53.6992 77.2969 53.6992C76.6133 53.6992 76.0827 53.9694 75.7051 54.5098C75.334 55.0501 75.1484 55.8216 75.1484 56.8242C75.1484 57.8203 75.334 58.5918 75.7051 59.1387C76.0827 59.679 76.6133 59.9492 77.2969 59.9492ZM90.1387 62.1953C88.3027 62.1953 86.8835 61.7331 85.8809 60.8086C84.8848 59.8776 84.3867 58.543 84.3867 56.8047C84.3867 55.112 84.849 53.7969 85.7734 52.8594C86.6979 51.9219 88.0195 51.4531 89.7383 51.4531C90.7865 51.4531 91.6816 51.6549 92.4238 52.0586C93.1725 52.4557 93.7031 53.0189 94.0156 53.748L92.2285 55.1445C91.9421 54.6823 91.5742 54.3275 91.125 54.0801C90.6823 53.8262 90.194 53.6992 89.6602 53.6992C88.7747 53.6992 88.0846 53.9596 87.5898 54.4805C87.0951 55.0013 86.8477 55.7435 86.8477 56.707C86.8477 57.7617 87.1504 58.5658 87.7559 59.1191C88.3678 59.6725 89.2402 59.9492 90.373 59.9492C90.8483 59.9492 91.3203 59.9264 91.7891 59.8809C92.2643 59.8353 92.7266 59.7734 93.1758 59.6953L93.4297 61.9023C92.9023 62.0195 92.3555 62.0977 91.7891 62.1367C91.2227 62.1758 90.6725 62.1953 90.1387 62.1953ZM97.9023 58.2207V55.9746H99.0742C99.8815 55.9746 100.546 55.8346 101.066 55.5547C101.587 55.2747 101.997 54.819 102.297 54.1875C102.596 53.5495 102.814 52.7031 102.951 51.6484H105.441C105.168 53.8555 104.543 55.5026 103.566 56.5898C102.596 57.6771 101.262 58.2207 99.5625 58.2207H97.9023ZM96.3398 62V47.3516H98.752V62H96.3398ZM103.205 62L100.5 56.9609L102.697 56.1602L106.105 62H103.205Z" fill="#1187F8"/>
<rect x="48" y="86" width="512" height="96" rx="8" fill="#242638"/>
<path d="M76.5039 133.504C75.8359 133.9 75.5019 134.098 75.251 133.952C75 133.805 75 133.412 75 132.626V112.287C75 111.024 76.0073 110 77.25 110H90.75C91.9927 110 93 111.024 93 112.287V132.626C93 133.412 93 133.805 92.749 133.952C92.4981 134.098 92.1641 133.9 91.4961 133.504L84.5039 129.358C84.2581 129.212 84.1352 129.139 84 129.139C83.8648 129.139 83.7419 129.212 83.4961 129.358L76.5039 133.504Z" fill="#E1E1FF"/>
<path d="M116.508 129.715C114.782 129.715 113.532 129.357 112.759 128.641C111.993 127.924 111.609 126.779 111.609 125.203V123.27H113.887V125.096C113.887 125.998 114.105 126.653 114.542 127.062C114.986 127.47 115.713 127.674 116.723 127.674C117.081 127.674 117.46 127.656 117.861 127.62C118.262 127.577 118.721 127.523 119.236 127.459L119.494 129.457C118.993 129.543 118.502 129.607 118.022 129.65C117.55 129.693 117.045 129.715 116.508 129.715ZM111.609 124.129V114.676H113.887V124.129H111.609ZM108.752 120.111V118.113H119.064V120.111H108.752ZM121.696 134.656L121.589 132.615L123.372 132.4C124.124 132.307 124.765 132.103 125.295 131.788C125.832 131.473 126.29 131.004 126.67 130.381C127.049 129.765 127.382 128.956 127.669 127.953L130.505 118.113H132.868L129.581 128.49C129.151 129.851 128.668 130.947 128.131 131.777C127.601 132.608 126.971 133.231 126.24 133.646C125.517 134.062 124.647 134.327 123.63 134.441L121.696 134.656ZM126.015 129.5L121.481 118.113H123.845L127.562 127.781H127.905V129.5H126.015ZM135.586 134.441V118.113H137.648L137.863 120.52V134.441H135.586ZM141.097 129.715C140.223 129.715 139.518 129.514 138.98 129.113C138.451 128.712 138.15 128.154 138.078 127.438H137.09L137.863 124.193C137.863 125.368 138.092 126.259 138.551 126.868C139.016 127.477 139.697 127.781 140.592 127.781C141.508 127.781 142.203 127.455 142.676 126.804C143.148 126.152 143.385 125.189 143.385 123.914C143.385 122.568 143.148 121.551 142.676 120.863C142.203 120.176 141.508 119.832 140.592 119.832C139.697 119.832 139.016 120.136 138.551 120.745C138.092 121.354 137.863 122.245 137.863 123.42L137.09 120.176H137.971C138.071 119.46 138.393 118.901 138.938 118.5C139.489 118.099 140.209 117.898 141.097 117.898C142.593 117.898 143.725 118.407 144.491 119.424C145.257 120.441 145.641 121.938 145.641 123.914C145.641 125.819 145.257 127.262 144.491 128.243C143.725 129.224 142.593 129.715 141.097 129.715ZM154.105 129.715C152.165 129.715 150.664 129.206 149.604 128.189C148.552 127.165 148.025 125.697 148.025 123.785C148.025 121.923 148.473 120.477 149.368 119.445C150.263 118.414 151.527 117.898 153.16 117.898C154.7 117.898 155.889 118.364 156.727 119.295C157.572 120.226 157.994 121.579 157.994 123.355C157.994 123.878 157.973 124.365 157.93 124.816H149.938V123.076H155.932C155.932 122.052 155.688 121.268 155.201 120.724C154.714 120.172 154.041 119.896 153.182 119.896C152.215 119.896 151.463 120.226 150.926 120.885C150.396 121.544 150.131 122.475 150.131 123.678C150.131 124.995 150.496 125.998 151.227 126.686C151.964 127.373 153.01 127.717 154.363 127.717C154.836 127.717 155.301 127.692 155.76 127.642C156.218 127.584 156.684 127.509 157.156 127.416L157.436 129.414C156.762 129.543 156.146 129.625 155.588 129.661C155.029 129.697 154.535 129.715 154.105 129.715Z" fill="#E1E1FF"/>
<path d="M463.693 129.5V114.246H465.842V129.5H463.693ZM459.826 129.5V127.459H463.908V129.5H459.826ZM465.627 129.5V127.459H469.301V129.5H465.627ZM460.041 117.705V115.535L463.693 114.246V116.459L460.041 117.705ZM488.4 129.715C487.935 129.715 487.473 129.693 487.015 129.65C486.556 129.615 486.091 129.564 485.618 129.5L486.424 127.803C486.775 127.939 487.161 128.021 487.584 128.05C488.014 128.078 488.436 128.093 488.852 128.093C490.384 128.093 491.566 127.656 492.396 126.782C493.234 125.901 493.653 124.659 493.653 123.055C493.653 121.923 493.399 121.053 492.891 120.444C492.382 119.828 491.655 119.521 490.71 119.521C488.54 119.521 487.455 120.713 487.455 123.098L486.789 120.176H487.638C487.881 118.658 488.941 117.898 490.817 117.898C492.307 117.898 493.46 118.346 494.276 119.241C495.093 120.136 495.501 121.408 495.501 123.055C495.501 125.167 494.882 126.807 493.643 127.975C492.404 129.135 490.656 129.715 488.4 129.715ZM485.618 129.5V113.387H487.455V129.307L485.618 129.5ZM497.563 134.656L497.478 132.97L498.906 132.787C499.637 132.68 500.274 132.454 500.818 132.11C501.363 131.774 501.846 131.269 502.269 130.596C502.691 129.923 503.078 129.042 503.429 127.953L506.608 118.113H508.563L504.965 128.49C504.492 129.851 503.987 130.95 503.45 131.788C502.913 132.626 502.297 133.253 501.603 133.668C500.915 134.083 500.102 134.348 499.164 134.463L497.563 134.656ZM502.032 129.5L497.349 118.113H499.304L503.268 128.028H503.579L503.558 129.5H502.032ZM518.07 129.715C516.473 129.715 515.306 129.35 514.568 128.619C513.838 127.882 513.473 126.732 513.473 125.171V123.27H515.32V125.096C515.32 126.098 515.557 126.84 516.029 127.319C516.502 127.792 517.254 128.028 518.285 128.028C518.672 128.028 519.062 128.01 519.456 127.975C519.857 127.932 520.29 127.874 520.756 127.803L520.971 129.457C520.484 129.543 520.007 129.607 519.542 129.65C519.084 129.693 518.593 129.715 518.07 129.715ZM513.473 124.129V114.676H515.32V124.129H513.473ZM510.4 119.682V118.113H520.541V119.682H510.4ZM529.994 129.715C528.082 129.715 526.603 129.199 525.558 128.168C524.519 127.13 524 125.654 524 123.742C524 121.887 524.44 120.451 525.321 119.435C526.202 118.41 527.445 117.898 529.049 117.898C530.56 117.898 531.727 118.36 532.551 119.284C533.382 120.208 533.797 121.536 533.797 123.27C533.797 123.749 533.775 124.179 533.732 124.559H525.536V123.076H532.078C532.078 121.952 531.813 121.085 531.283 120.477C530.753 119.868 530.016 119.563 529.07 119.563C528.018 119.563 527.201 119.922 526.621 120.638C526.041 121.354 525.751 122.367 525.751 123.678C525.751 125.089 526.141 126.17 526.922 126.922C527.71 127.674 528.82 128.05 530.252 128.05C530.703 128.05 531.158 128.025 531.616 127.975C532.082 127.917 532.544 127.842 533.002 127.749L533.238 129.414C532.651 129.529 532.082 129.607 531.53 129.65C530.979 129.693 530.467 129.715 529.994 129.715Z" fill="#E1E1FF"/>
<path opacity="0.75" d="M75.9062 158V146.906H77.4688V158H75.9062ZM72.625 148.391V146.906H80.75V148.391H72.625ZM81.9609 161.75L81.8828 160.266L83.1797 160.109C83.7266 160.042 84.1927 159.893 84.5781 159.664C84.9688 159.435 85.3021 159.094 85.5781 158.641C85.8542 158.193 86.0964 157.604 86.3047 156.875L88.3672 149.719H90.0859L87.6953 157.266C87.3828 158.255 87.0312 159.052 86.6406 159.656C86.2552 160.26 85.7969 160.714 85.2656 161.016C84.7396 161.318 84.1068 161.51 83.3672 161.594L81.9609 161.75ZM85.1016 158L81.8047 149.719H83.5234L86.2266 156.75H86.4766V158H85.1016ZM92.0625 161.594V149.719H93.5625L93.7188 151.469V161.594H92.0625ZM96.0703 158.156C95.4349 158.156 94.9219 158.01 94.5312 157.719C94.1458 157.427 93.9271 157.021 93.875 156.5H93.1562L93.7188 154.141C93.7188 154.995 93.8854 155.643 94.2188 156.086C94.5573 156.529 95.0521 156.75 95.7031 156.75C96.3698 156.75 96.875 156.513 97.2188 156.039C97.5625 155.565 97.7344 154.865 97.7344 153.938C97.7344 152.958 97.5625 152.219 97.2188 151.719C96.875 151.219 96.3698 150.969 95.7031 150.969C95.0521 150.969 94.5573 151.19 94.2188 151.633C93.8854 152.076 93.7188 152.724 93.7188 153.578L93.1562 151.219H93.7969C93.8698 150.698 94.1042 150.292 94.5 150C94.901 149.708 95.4245 149.562 96.0703 149.562C97.1589 149.562 97.9818 149.932 98.5391 150.672C99.0964 151.411 99.375 152.5 99.375 153.938C99.375 155.323 99.0964 156.372 98.5391 157.086C97.9818 157.799 97.1589 158.156 96.0703 158.156ZM105.609 158.156C104.198 158.156 103.107 157.786 102.336 157.047C101.57 156.302 101.188 155.234 101.188 153.844C101.188 152.49 101.513 151.438 102.164 150.688C102.815 149.938 103.734 149.562 104.922 149.562C106.042 149.562 106.906 149.901 107.516 150.578C108.13 151.255 108.438 152.24 108.438 153.531C108.438 153.911 108.422 154.266 108.391 154.594H102.578V153.328H106.938C106.938 152.583 106.76 152.013 106.406 151.617C106.052 151.216 105.562 151.016 104.938 151.016C104.234 151.016 103.688 151.255 103.297 151.734C102.911 152.214 102.719 152.891 102.719 153.766C102.719 154.724 102.984 155.453 103.516 155.953C104.052 156.453 104.812 156.703 105.797 156.703C106.141 156.703 106.479 156.685 106.812 156.648C107.146 156.607 107.484 156.552 107.828 156.484L108.031 157.938C107.542 158.031 107.094 158.091 106.688 158.117C106.281 158.143 105.922 158.156 105.609 158.156ZM123.562 158.156C122.417 158.156 121.526 157.781 120.891 157.031C120.255 156.281 119.938 155.224 119.938 153.859C119.938 152.49 120.255 151.432 120.891 150.688C121.526 149.938 122.417 149.562 123.562 149.562C124.714 149.562 125.604 149.938 126.234 150.688C126.87 151.432 127.188 152.49 127.188 153.859C127.188 155.224 126.87 156.281 126.234 157.031C125.604 157.781 124.714 158.156 123.562 158.156ZM123.562 156.672C124.172 156.672 124.641 156.427 124.969 155.938C125.302 155.448 125.469 154.755 125.469 153.859C125.469 152.958 125.302 152.266 124.969 151.781C124.641 151.292 124.172 151.047 123.562 151.047C122.953 151.047 122.482 151.292 122.148 151.781C121.82 152.266 121.656 152.958 121.656 153.859C121.656 154.755 121.82 155.448 122.148 155.938C122.482 156.427 122.953 156.672 123.562 156.672ZM131.391 158V150.422C131.391 147.557 132.698 146.125 135.312 146.125C135.906 146.125 136.479 146.177 137.031 146.281L136.859 147.719C136.531 147.677 136.242 147.648 135.992 147.633C135.742 147.617 135.5 147.609 135.266 147.609C133.786 147.609 133.047 148.521 133.047 150.344V158H131.391ZM128.781 152.953V151.594H136.438V152.953H128.781ZM150.492 158.156C150.117 158.156 149.747 158.141 149.383 158.109C149.018 158.083 148.648 158.047 148.273 158L148.914 156.484C149.19 156.615 149.495 156.693 149.828 156.719C150.161 156.74 150.492 156.75 150.82 156.75C151.815 156.75 152.583 156.451 153.125 155.852C153.672 155.253 153.945 154.406 153.945 153.312C153.945 152.562 153.779 151.984 153.445 151.578C153.117 151.172 152.648 150.969 152.039 150.969C150.633 150.969 149.93 151.76 149.93 153.344L149.445 151.219H150.086C150.164 150.115 150.841 149.562 152.117 149.562C153.221 149.562 154.076 149.888 154.68 150.539C155.284 151.19 155.586 152.115 155.586 153.312C155.586 154.849 155.141 156.042 154.25 156.891C153.365 157.734 152.112 158.156 150.492 158.156ZM148.273 158V146.281H149.93V157.859L148.273 158ZM162.297 158.156C161.339 158.156 160.646 157.896 160.219 157.375C159.792 156.854 159.578 156.021 159.578 154.875V146.281H161.234V154.797C161.234 155.234 161.276 155.591 161.359 155.867C161.443 156.143 161.604 156.346 161.844 156.477C162.089 156.607 162.448 156.672 162.922 156.672C163.354 156.672 163.906 156.573 164.578 156.375L164.766 157.828C164.344 157.943 163.938 158.026 163.547 158.078C163.161 158.13 162.745 158.156 162.297 158.156ZM157.141 147.641V146.281H159.719V147.641H157.141ZM170.438 158.156C169.292 158.156 168.401 157.781 167.766 157.031C167.13 156.281 166.812 155.224 166.812 153.859C166.812 152.49 167.13 151.432 167.766 150.688C168.401 149.938 169.292 149.562 170.438 149.562C171.589 149.562 172.479 149.938 173.109 150.688C173.745 151.432 174.062 152.49 174.062 153.859C174.062 155.224 173.745 156.281 173.109 157.031C172.479 157.781 171.589 158.156 170.438 158.156ZM170.438 156.672C171.047 156.672 171.516 156.427 171.844 155.938C172.177 155.448 172.344 154.755 172.344 153.859C172.344 152.958 172.177 152.266 171.844 151.781C171.516 151.292 171.047 151.047 170.438 151.047C169.828 151.047 169.357 151.292 169.023 151.781C168.695 152.266 168.531 152.958 168.531 153.859C168.531 154.755 168.695 155.448 169.023 155.938C169.357 156.427 169.828 156.672 170.438 156.672ZM180.609 158.156C179.198 158.156 178.107 157.786 177.336 157.047C176.57 156.302 176.188 155.234 176.188 153.844C176.188 152.49 176.549 151.438 177.273 150.688C178.003 149.938 179.042 149.562 180.391 149.562C181.198 149.562 181.888 149.714 182.461 150.016C183.039 150.312 183.451 150.734 183.695 151.281L182.422 152.242C182.188 151.862 181.888 151.568 181.523 151.359C181.159 151.151 180.76 151.047 180.328 151.047C179.547 151.047 178.94 151.284 178.508 151.758C178.076 152.227 177.859 152.896 177.859 153.766C177.859 154.708 178.112 155.43 178.617 155.93C179.128 156.424 179.854 156.672 180.797 156.672C181.182 156.672 181.568 156.654 181.953 156.617C182.339 156.581 182.714 156.531 183.078 156.469L183.266 157.922C182.839 158.016 182.396 158.078 181.938 158.109C181.484 158.141 181.042 158.156 180.609 158.156ZM186.922 154.859V153.375H187.859C188.547 153.375 189.112 153.258 189.555 153.023C189.997 152.784 190.344 152.396 190.594 151.859C190.849 151.323 191.036 150.609 191.156 149.719H192.875C192.656 151.443 192.164 152.732 191.398 153.586C190.638 154.435 189.589 154.859 188.25 154.859H186.922ZM185.75 158V146.281H187.406V158H185.75ZM191.359 158L189 153.969L190.562 153.328L193.406 158H191.359Z" fill="#E1E1FF"/>
<rect x="48" y="198" width="512" height="99" rx="8" fill="#242638"/>
<g clip-path="url(#clip0_61_18)">
<path d="M95.8828 230.653L93.5109 223.537C93.2062 222.619 92.3484 222 91.3781 222H85.75C85.2786 222 85.0429 222 84.8964 222.146C84.75 222.293 84.75 222.529 84.75 223V230C84.75 230.471 84.75 230.707 84.8964 230.854C85.0429 231 85.2786 231 85.75 231H95.587C95.7717 231 95.9412 230.828 95.8828 230.653ZM83.25 223C83.25 222.529 83.25 222.293 83.1036 222.146C82.9571 222 82.7214 222 82.25 222H76.6219C75.6516 222 74.7937 222.619 74.4891 223.537L72.1172 230.653C72.0588 230.828 72.2283 231 72.413 231H82.25C82.7214 231 82.9571 231 83.1036 230.854C83.25 230.707 83.25 230.471 83.25 230V223ZM73 232.5C72.5286 232.5 72.2929 232.5 72.1464 232.646C72 232.793 72 233.029 72 233.5V243.75C72 244.992 73.0078 246 74.25 246H93.75C94.9922 246 96 244.992 96 243.75V233.5C96 233.029 96 232.793 95.8536 232.646C95.7071 232.5 95.4714 232.5 95 232.5H73Z" fill="#E1E1FF"/>
</g>
<path d="M113.575 241.715C112.086 241.715 110.954 241.224 110.181 240.243C109.414 239.262 109.031 237.819 109.031 235.914C109.031 233.938 109.414 232.441 110.181 231.424C110.954 230.407 112.086 229.898 113.575 229.898C114.427 229.898 115.118 230.099 115.648 230.5C116.186 230.901 116.501 231.46 116.594 232.176H117.475L116.809 235.42C116.809 234.245 116.576 233.354 116.11 232.745C115.652 232.136 114.975 231.832 114.08 231.832C113.163 231.832 112.469 232.176 111.996 232.863C111.523 233.551 111.287 234.568 111.287 235.914C111.287 237.189 111.523 238.152 111.996 238.804C112.469 239.455 113.163 239.781 114.08 239.781C114.975 239.781 115.652 239.477 116.11 238.868C116.576 238.259 116.809 237.368 116.809 236.193L117.582 239.438H116.594C116.522 240.154 116.218 240.712 115.681 241.113C115.151 241.514 114.449 241.715 113.575 241.715ZM117.045 241.607L116.809 239.373V225.387H119.086V241.5L117.045 241.607ZM129.678 241.607L129.527 238.234L129.227 237.289V234.346C129.227 233.587 128.958 233.032 128.421 232.681C127.891 232.323 127.1 232.129 126.047 232.101L123.318 232.025L123.533 230.006L125.832 230.038C127.715 230.067 129.112 230.475 130.021 231.263C130.938 232.043 131.396 233.186 131.396 234.689V239.438L133.33 239.674V241.5L129.678 241.607ZM125.66 241.715C124.471 241.715 123.551 241.428 122.899 240.855C122.248 240.283 121.922 239.473 121.922 238.428C121.922 237.225 122.369 236.301 123.265 235.656C124.167 235.012 125.438 234.689 127.078 234.689C127.758 234.689 128.364 234.732 128.894 234.818C129.431 234.897 129.907 235.019 130.322 235.184L129.85 236.73C129.37 236.623 128.901 236.562 128.442 236.548C127.984 236.526 127.515 236.516 127.035 236.516C125.059 236.516 124.07 237.117 124.07 238.32C124.07 238.822 124.239 239.208 124.575 239.48C124.919 239.753 125.402 239.889 126.025 239.889C126.734 239.889 127.325 239.767 127.798 239.523C128.278 239.28 128.636 238.968 128.872 238.589C129.108 238.209 129.227 237.819 129.227 237.418V236.172L129.893 239.094H128.99L129.355 238.75C129.355 239.409 129.201 239.96 128.894 240.404C128.593 240.841 128.167 241.171 127.615 241.393C127.064 241.607 126.412 241.715 125.66 241.715ZM142.289 241.715C140.563 241.715 139.313 241.357 138.54 240.641C137.774 239.924 137.391 238.779 137.391 237.203V235.27H139.668V237.096C139.668 237.998 139.886 238.653 140.323 239.062C140.767 239.47 141.494 239.674 142.504 239.674C142.862 239.674 143.242 239.656 143.643 239.62C144.044 239.577 144.502 239.523 145.018 239.459L145.275 241.457C144.774 241.543 144.284 241.607 143.804 241.65C143.331 241.693 142.826 241.715 142.289 241.715ZM137.391 236.129V226.676H139.668V236.129H137.391ZM134.533 232.111V230.113H144.846V232.111H134.533ZM155.459 241.607L155.309 238.234L155.008 237.289V234.346C155.008 233.587 154.739 233.032 154.202 232.681C153.672 232.323 152.881 232.129 151.828 232.101L149.1 232.025L149.314 230.006L151.613 230.038C153.497 230.067 154.893 230.475 155.803 231.263C156.719 232.043 157.178 233.186 157.178 234.689V239.438L159.111 239.674V241.5L155.459 241.607ZM151.441 241.715C150.253 241.715 149.332 241.428 148.681 240.855C148.029 240.283 147.703 239.473 147.703 238.428C147.703 237.225 148.151 236.301 149.046 235.656C149.948 235.012 151.219 234.689 152.859 234.689C153.54 234.689 154.145 234.732 154.675 234.818C155.212 234.897 155.688 235.019 156.104 235.184L155.631 236.73C155.151 236.623 154.682 236.562 154.224 236.548C153.765 236.526 153.296 236.516 152.816 236.516C150.84 236.516 149.852 237.117 149.852 238.32C149.852 238.822 150.02 239.208 150.356 239.48C150.7 239.753 151.184 239.889 151.807 239.889C152.516 239.889 153.106 239.767 153.579 239.523C154.059 239.28 154.417 238.968 154.653 238.589C154.89 238.209 155.008 237.819 155.008 237.418V236.172L155.674 239.094H154.771L155.137 238.75C155.137 239.409 154.983 239.96 154.675 240.404C154.374 240.841 153.948 241.171 153.396 241.393C152.845 241.607 152.193 241.715 151.441 241.715Z" fill="#E1E1FF"/>
<path d="M453.594 241.5L448.867 229.898H447.879V226.246H449.297L454.023 237.848H454.561V241.5H453.594ZM446.59 241.5V226.246H448.652V241.5H446.59ZM454.238 241.5V226.246H456.301V241.5H454.238ZM475.4 241.715C474.935 241.715 474.473 241.693 474.015 241.65C473.556 241.615 473.091 241.564 472.618 241.5L473.424 239.803C473.775 239.939 474.161 240.021 474.584 240.05C475.014 240.078 475.436 240.093 475.852 240.093C477.384 240.093 478.566 239.656 479.396 238.782C480.234 237.901 480.653 236.659 480.653 235.055C480.653 233.923 480.399 233.053 479.891 232.444C479.382 231.828 478.655 231.521 477.71 231.521C475.54 231.521 474.455 232.713 474.455 235.098L473.789 232.176H474.638C474.881 230.658 475.941 229.898 477.817 229.898C479.307 229.898 480.46 230.346 481.276 231.241C482.093 232.136 482.501 233.408 482.501 235.055C482.501 237.167 481.882 238.807 480.643 239.975C479.404 241.135 477.656 241.715 475.4 241.715ZM472.618 241.5V225.387H474.455V241.307L472.618 241.5ZM484.563 246.656L484.478 244.97L485.906 244.787C486.637 244.68 487.274 244.454 487.818 244.11C488.363 243.774 488.846 243.269 489.269 242.596C489.691 241.923 490.078 241.042 490.429 239.953L493.608 230.113H495.563L491.965 240.49C491.492 241.851 490.987 242.95 490.45 243.788C489.913 244.626 489.297 245.253 488.603 245.668C487.915 246.083 487.102 246.348 486.164 246.463L484.563 246.656ZM489.032 241.5L484.349 230.113H486.304L490.268 240.028H490.579L490.558 241.5H489.032ZM505.07 241.715C503.473 241.715 502.306 241.35 501.568 240.619C500.838 239.882 500.473 238.732 500.473 237.171V235.27H502.32V237.096C502.32 238.098 502.557 238.84 503.029 239.319C503.502 239.792 504.254 240.028 505.285 240.028C505.672 240.028 506.062 240.01 506.456 239.975C506.857 239.932 507.29 239.874 507.756 239.803L507.971 241.457C507.484 241.543 507.007 241.607 506.542 241.65C506.084 241.693 505.593 241.715 505.07 241.715ZM500.473 236.129V226.676H502.32V236.129H500.473ZM497.4 231.682V230.113H507.541V231.682H497.4ZM516.994 241.715C515.082 241.715 513.603 241.199 512.558 240.168C511.519 239.13 511 237.654 511 235.742C511 233.887 511.44 232.451 512.321 231.435C513.202 230.41 514.445 229.898 516.049 229.898C517.56 229.898 518.727 230.36 519.551 231.284C520.382 232.208 520.797 233.536 520.797 235.27C520.797 235.749 520.775 236.179 520.732 236.559H512.536V235.076H519.078C519.078 233.952 518.813 233.085 518.283 232.477C517.753 231.868 517.016 231.563 516.07 231.563C515.018 231.563 514.201 231.922 513.621 232.638C513.041 233.354 512.751 234.367 512.751 235.678C512.751 237.089 513.141 238.17 513.922 238.922C514.71 239.674 515.82 240.05 517.252 240.05C517.703 240.05 518.158 240.025 518.616 239.975C519.082 239.917 519.544 239.842 520.002 239.749L520.238 241.414C519.651 241.529 519.082 241.607 518.53 241.65C517.979 241.693 517.467 241.715 516.994 241.715ZM527.908 241.715C527.063 241.715 526.34 241.69 525.738 241.64C525.137 241.59 524.592 241.507 524.105 241.393L524.32 239.674C525.065 239.796 525.72 239.885 526.286 239.942C526.859 240 527.4 240.028 527.908 240.028C529.183 240.028 530.107 239.899 530.68 239.642C531.26 239.377 531.55 238.958 531.55 238.385C531.55 237.984 531.432 237.672 531.195 237.45C530.959 237.221 530.587 237.042 530.078 236.913L527.489 236.258C526.372 235.979 525.556 235.617 525.04 235.173C524.532 234.729 524.277 234.102 524.277 233.293C524.277 232.097 524.746 231.234 525.685 230.704C526.63 230.167 528.152 229.898 530.25 229.898C530.773 229.898 531.26 229.916 531.711 229.952C532.169 229.981 532.656 230.035 533.172 230.113L532.979 231.735C532.391 231.678 531.879 231.639 531.442 231.617C531.006 231.596 530.587 231.585 530.186 231.585C528.782 231.585 527.765 231.714 527.135 231.972C526.512 232.229 526.2 232.648 526.2 233.229C526.2 233.594 526.343 233.88 526.63 234.088C526.924 234.296 527.382 234.478 528.005 234.636L530.078 235.141C531.267 235.42 532.13 235.807 532.667 236.301C533.204 236.795 533.473 237.479 533.473 238.353C533.473 239.534 533.032 240.39 532.151 240.92C531.271 241.45 529.856 241.715 527.908 241.715Z" fill="#E1E1FF"/>
<path opacity="0.75" d="M74.7031 273V271.516H77.0469C77.7344 271.516 78.2682 271.359 78.6484 271.047C79.0286 270.729 79.2188 270.286 79.2188 269.719C79.2188 269.135 79.0208 268.685 78.625 268.367C78.2292 268.044 77.6667 267.883 76.9375 267.883H74.7344L74.5469 267.172H77.3281C78.4531 267.172 79.3229 267.414 79.9375 267.898C80.5521 268.383 80.8594 269.068 80.8594 269.953C80.8594 270.922 80.5677 271.672 79.9844 272.203C79.401 272.734 78.5729 273 77.5 273H74.7031ZM73.25 273V261.906H74.8125V273H73.25ZM74.1719 267.547V266.781H77.4219V267.547H74.1719ZM74.7031 267.109V266.398H76.5781C77.1667 266.398 77.6224 266.268 77.9453 266.008C78.2734 265.742 78.4375 265.365 78.4375 264.875C78.4375 264.396 78.2656 264.029 77.9219 263.773C77.5833 263.518 77.099 263.391 76.4688 263.391H74.7344L74.5469 261.906H76.5469C77.6719 261.906 78.5417 262.151 79.1562 262.641C79.7708 263.125 80.0781 263.818 80.0781 264.719C80.0781 265.484 79.7865 266.076 79.2031 266.492C78.6198 266.904 77.7917 267.109 76.7188 267.109H74.7031ZM87.2969 273.156C86.3385 273.156 85.6458 272.896 85.2188 272.375C84.7917 271.854 84.5781 271.021 84.5781 269.875V261.281H86.2344V269.797C86.2344 270.234 86.276 270.591 86.3594 270.867C86.4427 271.143 86.6042 271.346 86.8438 271.477C87.0885 271.607 87.4479 271.672 87.9219 271.672C88.3542 271.672 88.9062 271.573 89.5781 271.375L89.7656 272.828C89.3438 272.943 88.9375 273.026 88.5469 273.078C88.1615 273.13 87.7448 273.156 87.2969 273.156ZM82.1406 262.641V261.281H84.7188V262.641H82.1406ZM95.4375 273.156C94.2917 273.156 93.401 272.781 92.7656 272.031C92.1302 271.281 91.8125 270.224 91.8125 268.859C91.8125 267.49 92.1302 266.432 92.7656 265.688C93.401 264.938 94.2917 264.562 95.4375 264.562C96.5885 264.562 97.4792 264.938 98.1094 265.688C98.7448 266.432 99.0625 267.49 99.0625 268.859C99.0625 270.224 98.7448 271.281 98.1094 272.031C97.4792 272.781 96.5885 273.156 95.4375 273.156ZM95.4375 271.672C96.0469 271.672 96.5156 271.427 96.8438 270.938C97.1771 270.448 97.3438 269.755 97.3438 268.859C97.3438 267.958 97.1771 267.266 96.8438 266.781C96.5156 266.292 96.0469 266.047 95.4375 266.047C94.8281 266.047 94.3568 266.292 94.0234 266.781C93.6953 267.266 93.5312 267.958 93.5312 268.859C93.5312 269.755 93.6953 270.448 94.0234 270.938C94.3568 271.427 94.8281 271.672 95.4375 271.672ZM105.609 273.156C104.198 273.156 103.107 272.786 102.336 272.047C101.57 271.302 101.188 270.234 101.188 268.844C101.188 267.49 101.549 266.438 102.273 265.688C103.003 264.938 104.042 264.562 105.391 264.562C106.198 264.562 106.888 264.714 107.461 265.016C108.039 265.312 108.451 265.734 108.695 266.281L107.422 267.242C107.188 266.862 106.888 266.568 106.523 266.359C106.159 266.151 105.76 266.047 105.328 266.047C104.547 266.047 103.94 266.284 103.508 266.758C103.076 267.227 102.859 267.896 102.859 268.766C102.859 269.708 103.112 270.43 103.617 270.93C104.128 271.424 104.854 271.672 105.797 271.672C106.182 271.672 106.568 271.654 106.953 271.617C107.339 271.581 107.714 271.531 108.078 271.469L108.266 272.922C107.839 273.016 107.396 273.078 106.938 273.109C106.484 273.141 106.042 273.156 105.609 273.156ZM111.922 269.859V268.375H112.859C113.547 268.375 114.112 268.258 114.555 268.023C114.997 267.784 115.344 267.396 115.594 266.859C115.849 266.323 116.036 265.609 116.156 264.719H117.875C117.656 266.443 117.164 267.732 116.398 268.586C115.638 269.435 114.589 269.859 113.25 269.859H111.922ZM110.75 273V261.281H112.406V273H110.75ZM116.359 273L114 268.969L115.562 268.328L118.406 273H116.359ZM132.305 273.156C131.221 273.156 130.398 272.799 129.836 272.086C129.279 271.372 129 270.323 129 268.938C129 267.5 129.279 266.411 129.836 265.672C130.398 264.932 131.221 264.562 132.305 264.562C132.924 264.562 133.427 264.708 133.812 265C134.203 265.292 134.432 265.698 134.5 266.219H135.141L134.656 268.578C134.656 267.724 134.487 267.076 134.148 266.633C133.815 266.19 133.323 265.969 132.672 265.969C132.005 265.969 131.5 266.219 131.156 266.719C130.812 267.219 130.641 267.958 130.641 268.938C130.641 269.865 130.812 270.565 131.156 271.039C131.5 271.513 132.005 271.75 132.672 271.75C133.323 271.75 133.815 271.529 134.148 271.086C134.487 270.643 134.656 269.995 134.656 269.141L135.219 271.5H134.5C134.448 272.021 134.227 272.427 133.836 272.719C133.451 273.01 132.94 273.156 132.305 273.156ZM134.828 273.078L134.656 271.453V261.281H136.312V273L134.828 273.078ZM144.016 273.078L143.906 270.625L143.688 269.938V267.797C143.688 267.245 143.492 266.841 143.102 266.586C142.716 266.326 142.141 266.185 141.375 266.164L139.391 266.109L139.547 264.641L141.219 264.664C142.589 264.685 143.604 264.982 144.266 265.555C144.932 266.122 145.266 266.953 145.266 268.047V271.5L146.672 271.672V273L144.016 273.078ZM141.094 273.156C140.229 273.156 139.56 272.948 139.086 272.531C138.612 272.115 138.375 271.526 138.375 270.766C138.375 269.891 138.701 269.219 139.352 268.75C140.008 268.281 140.932 268.047 142.125 268.047C142.62 268.047 143.06 268.078 143.445 268.141C143.836 268.198 144.182 268.286 144.484 268.406L144.141 269.531C143.792 269.453 143.451 269.409 143.117 269.398C142.784 269.383 142.443 269.375 142.094 269.375C140.656 269.375 139.938 269.812 139.938 270.688C139.938 271.052 140.06 271.333 140.305 271.531C140.555 271.729 140.906 271.828 141.359 271.828C141.875 271.828 142.305 271.74 142.648 271.562C142.997 271.385 143.258 271.159 143.43 270.883C143.602 270.607 143.688 270.323 143.688 270.031V269.125L144.172 271.25H143.516L143.781 271C143.781 271.479 143.669 271.88 143.445 272.203C143.227 272.521 142.917 272.76 142.516 272.922C142.115 273.078 141.641 273.156 141.094 273.156ZM153.188 273.156C151.932 273.156 151.023 272.896 150.461 272.375C149.904 271.854 149.625 271.021 149.625 269.875V268.469H151.281V269.797C151.281 270.453 151.44 270.93 151.758 271.227C152.081 271.523 152.609 271.672 153.344 271.672C153.604 271.672 153.88 271.659 154.172 271.633C154.464 271.602 154.797 271.562 155.172 271.516L155.359 272.969C154.995 273.031 154.638 273.078 154.289 273.109C153.945 273.141 153.578 273.156 153.188 273.156ZM149.625 269.094V262.219H151.281V269.094H149.625ZM147.547 266.078V264.719H155.047V266.078H147.547ZM162.766 273.078L162.656 270.625L162.438 269.938V267.797C162.438 267.245 162.242 266.841 161.852 266.586C161.466 266.326 160.891 266.185 160.125 266.164L158.141 266.109L158.297 264.641L159.969 264.664C161.339 264.685 162.354 264.982 163.016 265.555C163.682 266.122 164.016 266.953 164.016 268.047V271.5L165.422 271.672V273L162.766 273.078ZM159.844 273.156C158.979 273.156 158.31 272.948 157.836 272.531C157.362 272.115 157.125 271.526 157.125 270.766C157.125 269.891 157.451 269.219 158.102 268.75C158.758 268.281 159.682 268.047 160.875 268.047C161.37 268.047 161.81 268.078 162.195 268.141C162.586 268.198 162.932 268.286 163.234 268.406L162.891 269.531C162.542 269.453 162.201 269.409 161.867 269.398C161.534 269.383 161.193 269.375 160.844 269.375C159.406 269.375 158.688 269.812 158.688 270.688C158.688 271.052 158.81 271.333 159.055 271.531C159.305 271.729 159.656 271.828 160.109 271.828C160.625 271.828 161.055 271.74 161.398 271.562C161.747 271.385 162.008 271.159 162.18 270.883C162.352 270.607 162.438 270.323 162.438 270.031V269.125L162.922 271.25H162.266L162.531 271C162.531 271.479 162.419 271.88 162.195 272.203C161.977 272.521 161.667 272.76 161.266 272.922C160.865 273.078 160.391 273.156 159.844 273.156Z" fill="#E1E1FF"/>
<rect x="48" y="313" width="512" height="99" rx="8" fill="#242638"/>
<g clip-path="url(#clip1_61_18)">
<path d="M96 348.977C96.0122 355.589 90.6203 360.995 84.0087 361C81.1531 361.002 78.5302 360.007 76.4689 358.343C75.9329 357.91 75.8929 357.107 76.3799 356.62L76.9251 356.075C77.3417 355.658 78.0067 355.613 78.4682 355.979C79.9869 357.184 81.9087 357.903 84 357.903C88.9212 357.903 92.9032 353.92 92.9032 349C92.9032 344.079 88.9204 340.097 84 340.097C81.638 340.097 79.4928 341.015 77.8999 342.513L80.3558 344.969C80.8435 345.456 80.4981 346.29 79.8084 346.29H72.7742C72.3466 346.29 72 345.944 72 345.516V338.482C72 337.792 72.8339 337.447 73.3216 337.934L75.7106 340.323C77.8649 338.265 80.7848 337 84 337C90.6198 337 95.9877 342.36 96 348.977ZM87.2462 352.789L87.7215 352.178C88.1153 351.672 88.024 350.942 87.5178 350.549L85.5484 349.017V343.968C85.5484 343.326 85.0285 342.806 84.3871 342.806H83.6129C82.9715 342.806 82.4516 343.326 82.4516 343.968V350.531L85.6166 352.993C86.1228 353.387 86.8524 353.296 87.2462 352.789Z" fill="#E1E1FF"/>
</g>
<path d="M116.143 356.715C114.825 356.715 113.872 356.357 113.285 355.641C112.698 354.924 112.404 353.779 112.404 352.203V340.387H114.682V352.096C114.682 352.697 114.739 353.188 114.854 353.567C114.968 353.947 115.19 354.226 115.52 354.405C115.856 354.584 116.35 354.674 117.002 354.674C117.596 354.674 118.355 354.538 119.279 354.266L119.537 356.264C118.957 356.421 118.398 356.536 117.861 356.607C117.331 356.679 116.758 356.715 116.143 356.715ZM109.053 342.385V340.387H112.598V342.385H109.053ZM127.336 356.715C125.76 356.715 124.536 356.199 123.662 355.168C122.788 354.137 122.352 352.683 122.352 350.807C122.352 348.923 122.788 347.469 123.662 346.445C124.536 345.414 125.76 344.898 127.336 344.898C128.919 344.898 130.143 345.414 131.01 346.445C131.883 347.469 132.32 348.923 132.32 350.807C132.32 352.683 131.883 354.137 131.01 355.168C130.143 356.199 128.919 356.715 127.336 356.715ZM127.336 354.674C128.174 354.674 128.818 354.337 129.27 353.664C129.728 352.991 129.957 352.038 129.957 350.807C129.957 349.568 129.728 348.615 129.27 347.949C128.818 347.276 128.174 346.939 127.336 346.939C126.498 346.939 125.85 347.276 125.392 347.949C124.94 348.615 124.715 349.568 124.715 350.807C124.715 352.038 124.94 352.991 125.392 353.664C125.85 354.337 126.498 354.674 127.336 354.674ZM135.736 361.635L135.629 359.551L139.281 359.443C140.434 359.408 141.272 359.089 141.795 358.487C142.318 357.886 142.583 357.001 142.59 355.834V347.52L142.805 345.113H144.867V355.49C144.867 357.517 144.405 359.014 143.481 359.98C142.558 360.947 141.086 361.463 139.066 361.527L135.736 361.635ZM139.356 356.715C137.867 356.715 136.735 356.224 135.962 355.243C135.196 354.262 134.812 352.819 134.812 350.914C134.812 348.938 135.196 347.441 135.962 346.424C136.735 345.407 137.867 344.898 139.356 344.898C140.244 344.898 140.964 345.099 141.516 345.5C142.067 345.901 142.389 346.46 142.482 347.176H143.363L142.59 350.42C142.59 349.245 142.357 348.354 141.892 347.745C141.433 347.136 140.757 346.832 139.861 346.832C138.945 346.832 138.25 347.176 137.777 347.863C137.305 348.551 137.068 349.568 137.068 350.914C137.068 352.189 137.305 353.152 137.777 353.804C138.25 354.455 138.945 354.781 139.861 354.781C140.757 354.781 141.433 354.477 141.892 353.868C142.357 353.259 142.59 352.368 142.59 351.193L143.363 354.438H142.375C142.303 355.154 141.999 355.712 141.462 356.113C140.932 356.514 140.23 356.715 139.356 356.715ZM152.236 356.715C151.377 356.715 150.639 356.69 150.023 356.64C149.415 356.59 148.856 356.507 148.348 356.393L148.605 354.33C149.357 354.445 150.02 354.531 150.593 354.588C151.173 354.645 151.721 354.674 152.236 354.674C153.389 354.674 154.224 354.563 154.739 354.341C155.262 354.112 155.523 353.75 155.523 353.256C155.523 352.912 155.43 352.658 155.244 352.493C155.065 352.321 154.786 352.189 154.406 352.096L151.785 351.43C150.661 351.143 149.834 350.789 149.304 350.366C148.781 349.944 148.52 349.303 148.52 348.443C148.52 347.197 148.996 346.295 149.948 345.736C150.908 345.178 152.451 344.898 154.578 344.898C155.13 344.898 155.642 344.916 156.114 344.952C156.594 344.981 157.085 345.035 157.586 345.113L157.35 347.09C156.77 347.033 156.257 346.993 155.813 346.972C155.369 346.95 154.936 346.939 154.514 346.939C153.239 346.939 152.315 347.05 151.742 347.272C151.169 347.487 150.883 347.842 150.883 348.336C150.883 348.665 151.001 348.905 151.237 349.056C151.474 349.199 151.835 349.331 152.322 349.453L154.428 349.969C155.624 350.255 156.497 350.638 157.049 351.118C157.607 351.598 157.887 352.296 157.887 353.213C157.887 354.438 157.439 355.329 156.544 355.888C155.649 356.439 154.213 356.715 152.236 356.715Z" fill="#E1E1FF"/>
<path d="M453.594 356.5L448.867 344.898H447.879V341.246H449.297L454.023 352.848H454.561V356.5H453.594ZM446.59 356.5V341.246H448.652V356.5H446.59ZM454.238 356.5V341.246H456.301V356.5H454.238ZM475.4 356.715C474.935 356.715 474.473 356.693 474.015 356.65C473.556 356.615 473.091 356.564 472.618 356.5L473.424 354.803C473.775 354.939 474.161 355.021 474.584 355.05C475.014 355.078 475.436 355.093 475.852 355.093C477.384 355.093 478.566 354.656 479.396 353.782C480.234 352.901 480.653 351.659 480.653 350.055C480.653 348.923 480.399 348.053 479.891 347.444C479.382 346.828 478.655 346.521 477.71 346.521C475.54 346.521 474.455 347.713 474.455 350.098L473.789 347.176H474.638C474.881 345.658 475.941 344.898 477.817 344.898C479.307 344.898 480.46 345.346 481.276 346.241C482.093 347.136 482.501 348.408 482.501 350.055C482.501 352.167 481.882 353.807 480.643 354.975C479.404 356.135 477.656 356.715 475.4 356.715ZM472.618 356.5V340.387H474.455V356.307L472.618 356.5ZM484.563 361.656L484.478 359.97L485.906 359.787C486.637 359.68 487.274 359.454 487.818 359.11C488.363 358.774 488.846 358.269 489.269 357.596C489.691 356.923 490.078 356.042 490.429 354.953L493.608 345.113H495.563L491.965 355.49C491.492 356.851 490.987 357.95 490.45 358.788C489.913 359.626 489.297 360.253 488.603 360.668C487.915 361.083 487.102 361.348 486.164 361.463L484.563 361.656ZM489.032 356.5L484.349 345.113H486.304L490.268 355.028H490.579L490.558 356.5H489.032ZM505.07 356.715C503.473 356.715 502.306 356.35 501.568 355.619C500.838 354.882 500.473 353.732 500.473 352.171V350.27H502.32V352.096C502.32 353.098 502.557 353.84 503.029 354.319C503.502 354.792 504.254 355.028 505.285 355.028C505.672 355.028 506.062 355.01 506.456 354.975C506.857 354.932 507.29 354.874 507.756 354.803L507.971 356.457C507.484 356.543 507.007 356.607 506.542 356.65C506.084 356.693 505.593 356.715 505.07 356.715ZM500.473 351.129V341.676H502.32V351.129H500.473ZM497.4 346.682V345.113H507.541V346.682H497.4ZM516.994 356.715C515.082 356.715 513.603 356.199 512.558 355.168C511.519 354.13 511 352.654 511 350.742C511 348.887 511.44 347.451 512.321 346.435C513.202 345.41 514.445 344.898 516.049 344.898C517.56 344.898 518.727 345.36 519.551 346.284C520.382 347.208 520.797 348.536 520.797 350.27C520.797 350.749 520.775 351.179 520.732 351.559H512.536V350.076H519.078C519.078 348.952 518.813 348.085 518.283 347.477C517.753 346.868 517.016 346.563 516.07 346.563C515.018 346.563 514.201 346.922 513.621 347.638C513.041 348.354 512.751 349.367 512.751 350.678C512.751 352.089 513.141 353.17 513.922 353.922C514.71 354.674 515.82 355.05 517.252 355.05C517.703 355.05 518.158 355.025 518.616 354.975C519.082 354.917 519.544 354.842 520.002 354.749L520.238 356.414C519.651 356.529 519.082 356.607 518.53 356.65C517.979 356.693 517.467 356.715 516.994 356.715ZM527.908 356.715C527.063 356.715 526.34 356.69 525.738 356.64C525.137 356.59 524.592 356.507 524.105 356.393L524.32 354.674C525.065 354.796 525.72 354.885 526.286 354.942C526.859 355 527.4 355.028 527.908 355.028C529.183 355.028 530.107 354.899 530.68 354.642C531.26 354.377 531.55 353.958 531.55 353.385C531.55 352.984 531.432 352.672 531.195 352.45C530.959 352.221 530.587 352.042 530.078 351.913L527.489 351.258C526.372 350.979 525.556 350.617 525.04 350.173C524.532 349.729 524.277 349.102 524.277 348.293C524.277 347.097 524.746 346.234 525.685 345.704C526.63 345.167 528.152 344.898 530.25 344.898C530.773 344.898 531.26 344.916 531.711 344.952C532.169 344.981 532.656 345.035 533.172 345.113L532.979 346.735C532.391 346.678 531.879 346.639 531.442 346.617C531.006 346.596 530.587 346.585 530.186 346.585C528.782 346.585 527.765 346.714 527.135 346.972C526.512 347.229 526.2 347.648 526.2 348.229C526.2 348.594 526.343 348.88 526.63 349.088C526.924 349.296 527.382 349.478 528.005 349.636L530.078 350.141C531.267 350.42 532.13 350.807 532.667 351.301C533.204 351.795 533.473 352.479 533.473 353.353C533.473 354.534 533.032 355.39 532.151 355.92C531.271 356.45 529.856 356.715 527.908 356.715Z" fill="#E1E1FF"/>
<path opacity="0.75" d="M73.25 388V376.906H74.8125V388H73.25ZM73.25 388V386.516H80.5938V388H73.25ZM86.0625 388.156C84.9167 388.156 84.026 387.781 83.3906 387.031C82.7552 386.281 82.4375 385.224 82.4375 383.859C82.4375 382.49 82.7552 381.432 83.3906 380.688C84.026 379.938 84.9167 379.562 86.0625 379.562C87.2135 379.562 88.1042 379.938 88.7344 380.688C89.3698 381.432 89.6875 382.49 89.6875 383.859C89.6875 385.224 89.3698 386.281 88.7344 387.031C88.1042 387.781 87.2135 388.156 86.0625 388.156ZM86.0625 386.672C86.6719 386.672 87.1406 386.427 87.4688 385.938C87.8021 385.448 87.9688 384.755 87.9688 383.859C87.9688 382.958 87.8021 382.266 87.4688 381.781C87.1406 381.292 86.6719 381.047 86.0625 381.047C85.4531 381.047 84.9818 381.292 84.6484 381.781C84.3203 382.266 84.1562 382.958 84.1562 383.859C84.1562 384.755 84.3203 385.448 84.6484 385.938C84.9818 386.427 85.4531 386.672 86.0625 386.672ZM92.1719 391.734L92.0938 390.219L94.75 390.141C95.5885 390.115 96.1979 389.883 96.5781 389.445C96.9583 389.008 97.151 388.365 97.1562 387.516V381.469L97.3125 379.719H98.8125V387.266C98.8125 388.74 98.4766 389.828 97.8047 390.531C97.1328 391.234 96.0625 391.609 94.5938 391.656L92.1719 391.734ZM94.8047 388.156C93.7214 388.156 92.8984 387.799 92.3359 387.086C91.7786 386.372 91.5 385.323 91.5 383.938C91.5 382.5 91.7786 381.411 92.3359 380.672C92.8984 379.932 93.7214 379.562 94.8047 379.562C95.4505 379.562 95.974 379.708 96.375 380C96.776 380.292 97.0104 380.698 97.0781 381.219H97.7188L97.1562 383.578C97.1562 382.724 96.987 382.076 96.6484 381.633C96.3151 381.19 95.8229 380.969 95.1719 380.969C94.5052 380.969 94 381.219 93.6562 381.719C93.3125 382.219 93.1406 382.958 93.1406 383.938C93.1406 384.865 93.3125 385.565 93.6562 386.039C94 386.513 94.5052 386.75 95.1719 386.75C95.8229 386.75 96.3151 386.529 96.6484 386.086C96.987 385.643 97.1562 384.995 97.1562 384.141L97.7188 386.5H97C96.9479 387.021 96.7266 387.427 96.3359 387.719C95.9505 388.01 95.4401 388.156 94.8047 388.156ZM107.547 389.562C105.854 389.562 104.539 388.94 103.602 387.695C102.669 386.445 102.203 384.682 102.203 382.406C102.203 380.161 102.669 378.424 103.602 377.195C104.539 375.961 105.854 375.344 107.547 375.344H107.922V376.75H107.703C106.469 376.75 105.516 377.245 104.844 378.234C104.177 379.224 103.844 380.615 103.844 382.406C103.844 384.229 104.177 385.643 104.844 386.648C105.516 387.654 106.469 388.156 107.703 388.156H107.922V389.562H107.547ZM113.547 388.156C112.922 388.156 112.385 388.138 111.938 388.102C111.495 388.065 111.089 388.005 110.719 387.922L110.906 386.422C111.453 386.505 111.935 386.568 112.352 386.609C112.773 386.651 113.172 386.672 113.547 386.672C114.385 386.672 114.992 386.591 115.367 386.43C115.747 386.263 115.938 386 115.938 385.641C115.938 385.391 115.87 385.206 115.734 385.086C115.604 384.961 115.401 384.865 115.125 384.797L113.219 384.312C112.401 384.104 111.799 383.846 111.414 383.539C111.034 383.232 110.844 382.766 110.844 382.141C110.844 381.234 111.19 380.578 111.883 380.172C112.581 379.766 113.703 379.562 115.25 379.562C115.651 379.562 116.023 379.576 116.367 379.602C116.716 379.622 117.073 379.661 117.438 379.719L117.266 381.156C116.844 381.115 116.471 381.086 116.148 381.07C115.826 381.055 115.51 381.047 115.203 381.047C114.276 381.047 113.604 381.128 113.188 381.289C112.771 381.445 112.562 381.703 112.562 382.062C112.562 382.302 112.648 382.477 112.82 382.586C112.992 382.69 113.255 382.786 113.609 382.875L115.141 383.25C116.01 383.458 116.646 383.737 117.047 384.086C117.453 384.435 117.656 384.943 117.656 385.609C117.656 386.5 117.331 387.148 116.68 387.555C116.029 387.956 114.984 388.156 113.547 388.156ZM120.453 389.562V388.156H120.672C121.906 388.156 122.857 387.654 123.523 386.648C124.195 385.643 124.531 384.229 124.531 382.406C124.531 380.615 124.195 379.224 123.523 378.234C122.857 377.245 121.906 376.75 120.672 376.75H120.453V375.344H120.828C122.526 375.344 123.841 375.961 124.773 377.195C125.706 378.424 126.172 380.161 126.172 382.406C126.172 384.682 125.706 386.445 124.773 387.695C123.841 388.94 122.526 389.562 120.828 389.562H120.453ZM141.75 384.438L141.266 381.844H141.906C142 380.323 142.76 379.562 144.188 379.562C145.042 379.562 145.661 379.807 146.047 380.297C146.432 380.786 146.625 381.578 146.625 382.672H144.984C144.984 382.068 144.893 381.633 144.711 381.367C144.534 381.102 144.245 380.969 143.844 380.969C143.141 380.969 142.615 381.271 142.266 381.875C141.922 382.474 141.75 383.328 141.75 384.438ZM138.25 388V386.641H143.781V388H138.25ZM140.094 388V379.719H141.438L141.75 382.094V388H140.094ZM138.562 381.078V379.719H141.328L141.484 381.078H138.562ZM152.484 388.156C151.073 388.156 149.982 387.786 149.211 387.047C148.445 386.302 148.062 385.234 148.062 383.844C148.062 382.49 148.388 381.438 149.039 380.688C149.69 379.938 150.609 379.562 151.797 379.562C152.917 379.562 153.781 379.901 154.391 380.578C155.005 381.255 155.312 382.24 155.312 383.531C155.312 383.911 155.297 384.266 155.266 384.594H149.453V383.328H153.812C153.812 382.583 153.635 382.013 153.281 381.617C152.927 381.216 152.438 381.016 151.812 381.016C151.109 381.016 150.562 381.255 150.172 381.734C149.786 382.214 149.594 382.891 149.594 383.766C149.594 384.724 149.859 385.453 150.391 385.953C150.927 386.453 151.688 386.703 152.672 386.703C153.016 386.703 153.354 386.685 153.688 386.648C154.021 386.607 154.359 386.552 154.703 386.484L154.906 387.938C154.417 388.031 153.969 388.091 153.562 388.117C153.156 388.143 152.797 388.156 152.484 388.156ZM161.859 388.156C160.448 388.156 159.357 387.786 158.586 387.047C157.82 386.302 157.438 385.234 157.438 383.844C157.438 382.49 157.799 381.438 158.523 380.688C159.253 379.938 160.292 379.562 161.641 379.562C162.448 379.562 163.138 379.714 163.711 380.016C164.289 380.312 164.701 380.734 164.945 381.281L163.672 382.242C163.438 381.862 163.138 381.568 162.773 381.359C162.409 381.151 162.01 381.047 161.578 381.047C160.797 381.047 160.19 381.284 159.758 381.758C159.326 382.227 159.109 382.896 159.109 383.766C159.109 384.708 159.362 385.43 159.867 385.93C160.378 386.424 161.104 386.672 162.047 386.672C162.432 386.672 162.818 386.654 163.203 386.617C163.589 386.581 163.964 386.531 164.328 386.469L164.516 387.922C164.089 388.016 163.646 388.078 163.188 388.109C162.734 388.141 162.292 388.156 161.859 388.156ZM170.438 388.156C169.292 388.156 168.401 387.781 167.766 387.031C167.13 386.281 166.812 385.224 166.812 383.859C166.812 382.49 167.13 381.432 167.766 380.688C168.401 379.938 169.292 379.562 170.438 379.562C171.589 379.562 172.479 379.938 173.109 380.688C173.745 381.432 174.062 382.49 174.062 383.859C174.062 385.224 173.745 386.281 173.109 387.031C172.479 387.781 171.589 388.156 170.438 388.156ZM170.438 386.672C171.047 386.672 171.516 386.427 171.844 385.938C172.177 385.448 172.344 384.755 172.344 383.859C172.344 382.958 172.177 382.266 171.844 381.781C171.516 381.292 171.047 381.047 170.438 381.047C169.828 381.047 169.357 381.292 169.023 381.781C168.695 382.266 168.531 382.958 168.531 383.859C168.531 384.755 168.695 385.448 169.023 385.938C169.357 386.427 169.828 386.672 170.438 386.672ZM179.25 384.438L178.766 381.844H179.406C179.5 380.323 180.26 379.562 181.688 379.562C182.542 379.562 183.161 379.807 183.547 380.297C183.932 380.786 184.125 381.578 184.125 382.672H182.484C182.484 382.068 182.393 381.633 182.211 381.367C182.034 381.102 181.745 380.969 181.344 380.969C180.641 380.969 180.115 381.271 179.766 381.875C179.422 382.474 179.25 383.328 179.25 384.438ZM175.75 388V386.641H181.281V388H175.75ZM177.594 388V379.719H178.938L179.25 382.094V388H177.594ZM176.062 381.078V379.719H178.828L178.984 381.078H176.062ZM188.555 388.156C187.471 388.156 186.648 387.799 186.086 387.086C185.529 386.372 185.25 385.323 185.25 383.938C185.25 382.5 185.529 381.411 186.086 380.672C186.648 379.932 187.471 379.562 188.555 379.562C189.174 379.562 189.677 379.708 190.062 380C190.453 380.292 190.682 380.698 190.75 381.219H191.391L190.906 383.578C190.906 382.724 190.737 382.076 190.398 381.633C190.065 381.19 189.573 380.969 188.922 380.969C188.255 380.969 187.75 381.219 187.406 381.719C187.062 382.219 186.891 382.958 186.891 383.938C186.891 384.865 187.062 385.565 187.406 386.039C187.75 386.513 188.255 386.75 188.922 386.75C189.573 386.75 190.065 386.529 190.398 386.086C190.737 385.643 190.906 384.995 190.906 384.141L191.469 386.5H190.75C190.698 387.021 190.477 387.427 190.086 387.719C189.701 388.01 189.19 388.156 188.555 388.156ZM191.078 388.078L190.906 386.453V376.281H192.562V388L191.078 388.078ZM197.922 388.156C197.297 388.156 196.76 388.138 196.312 388.102C195.87 388.065 195.464 388.005 195.094 387.922L195.281 386.422C195.828 386.505 196.31 386.568 196.727 386.609C197.148 386.651 197.547 386.672 197.922 386.672C198.76 386.672 199.367 386.591 199.742 386.43C200.122 386.263 200.312 386 200.312 385.641C200.312 385.391 200.245 385.206 200.109 385.086C199.979 384.961 199.776 384.865 199.5 384.797L197.594 384.312C196.776 384.104 196.174 383.846 195.789 383.539C195.409 383.232 195.219 382.766 195.219 382.141C195.219 381.234 195.565 380.578 196.258 380.172C196.956 379.766 198.078 379.562 199.625 379.562C200.026 379.562 200.398 379.576 200.742 379.602C201.091 379.622 201.448 379.661 201.812 379.719L201.641 381.156C201.219 381.115 200.846 381.086 200.523 381.07C200.201 381.055 199.885 381.047 199.578 381.047C198.651 381.047 197.979 381.128 197.562 381.289C197.146 381.445 196.938 381.703 196.938 382.062C196.938 382.302 197.023 382.477 197.195 382.586C197.367 382.69 197.63 382.786 197.984 382.875L199.516 383.25C200.385 383.458 201.021 383.737 201.422 384.086C201.828 384.435 202.031 384.943 202.031 385.609C202.031 386.5 201.706 387.148 201.055 387.555C200.404 387.956 199.359 388.156 197.922 388.156Z" fill="#E1E1FF"/>
<rect x="48" y="428" width="512" height="99" rx="8" fill="#242638"/>
<path d="M75 474.5H93C94.6547 474.5 96 473.155 96 471.5V459.5C96 457.845 94.6547 456.5 93 456.5H85.5C85.0266 456.5 84.5812 456.28 84.3 455.9L83.4 454.7C82.8328 453.945 81.9422 453.5 81 453.5H75C73.3453 453.5 72 454.845 72 456.5V471.5C72 473.155 73.3453 474.5 75 474.5Z" fill="#E1E1FF"/>
<path d="M115.541 471.715C113.6 471.715 112.1 471.206 111.04 470.189C109.987 469.165 109.461 467.697 109.461 465.785C109.461 463.923 109.959 462.477 110.954 461.445C111.957 460.414 113.385 459.898 115.24 459.898C116.35 459.898 117.299 460.106 118.087 460.521C118.882 460.93 119.448 461.51 119.784 462.262L118.033 463.583C117.711 463.06 117.299 462.656 116.798 462.369C116.297 462.083 115.749 461.939 115.154 461.939C114.08 461.939 113.246 462.265 112.651 462.917C112.057 463.562 111.76 464.482 111.76 465.678C111.76 466.974 112.107 467.966 112.802 468.653C113.504 469.334 114.503 469.674 115.799 469.674C116.329 469.674 116.859 469.649 117.389 469.599C117.919 469.549 118.434 469.48 118.936 469.395L119.193 471.393C118.606 471.521 117.997 471.607 117.367 471.65C116.744 471.693 116.135 471.715 115.541 471.715ZM129.699 471.5V464.088C129.699 463.365 129.52 462.81 129.162 462.423C128.804 462.029 128.303 461.832 127.658 461.832C125.868 461.832 124.973 462.921 124.973 465.098L124.307 462.176H125.188C125.252 461.41 125.531 460.84 126.025 460.468C126.52 460.088 127.243 459.898 128.195 459.898C129.398 459.898 130.329 460.264 130.988 460.994C131.647 461.725 131.977 462.756 131.977 464.088V471.5H129.699ZM122.695 471.5V455.387H124.973V471.5H122.695ZM139.84 471.5V460.758H142.117V471.5H139.84ZM135.5 471.5V469.502H140.055V471.5H135.5ZM141.902 471.5V469.502H145.619V471.5H141.902ZM136.145 462.111V460.113H142.117V462.111H136.145ZM140.903 458.309C140.466 458.309 140.09 458.155 139.775 457.847C139.467 457.532 139.313 457.156 139.313 456.719C139.313 456.275 139.467 455.899 139.775 455.591C140.09 455.283 140.466 455.129 140.903 455.129C141.347 455.129 141.723 455.283 142.031 455.591C142.339 455.899 142.493 456.275 142.493 456.719C142.493 457.156 142.339 457.532 142.031 457.847C141.723 458.155 141.347 458.309 140.903 458.309ZM154.814 471.715C153.497 471.715 152.544 471.357 151.957 470.641C151.37 469.924 151.076 468.779 151.076 467.203V455.387H153.354V467.096C153.354 467.697 153.411 468.188 153.525 468.567C153.64 468.947 153.862 469.226 154.191 469.405C154.528 469.584 155.022 469.674 155.674 469.674C156.268 469.674 157.027 469.538 157.951 469.266L158.209 471.264C157.629 471.421 157.07 471.536 156.533 471.607C156.003 471.679 155.43 471.715 154.814 471.715ZM147.725 457.385V455.387H151.27V457.385H147.725ZM165.138 471.715C163.648 471.715 162.517 471.224 161.743 470.243C160.977 469.262 160.594 467.819 160.594 465.914C160.594 463.938 160.977 462.441 161.743 461.424C162.517 460.407 163.648 459.898 165.138 459.898C165.99 459.898 166.681 460.099 167.211 460.5C167.748 460.901 168.063 461.46 168.156 462.176H169.037L168.371 465.42C168.371 464.245 168.138 463.354 167.673 462.745C167.215 462.136 166.538 461.832 165.643 461.832C164.726 461.832 164.031 462.176 163.559 462.863C163.086 463.551 162.85 464.568 162.85 465.914C162.85 467.189 163.086 468.152 163.559 468.804C164.031 469.455 164.726 469.781 165.643 469.781C166.538 469.781 167.215 469.477 167.673 468.868C168.138 468.259 168.371 467.368 168.371 466.193L169.145 469.438H168.156C168.085 470.154 167.78 470.712 167.243 471.113C166.713 471.514 166.011 471.715 165.138 471.715ZM168.607 471.607L168.371 469.373V455.387H170.648V471.5L168.607 471.607Z" fill="#E1E1FF"/>
<path d="M453.594 471.5L448.867 459.898H447.879V456.246H449.297L454.023 467.848H454.561V471.5H453.594ZM446.59 471.5V456.246H448.652V471.5H446.59ZM454.238 471.5V456.246H456.301V471.5H454.238ZM475.4 471.715C474.935 471.715 474.473 471.693 474.015 471.65C473.556 471.615 473.091 471.564 472.618 471.5L473.424 469.803C473.775 469.939 474.161 470.021 474.584 470.05C475.014 470.078 475.436 470.093 475.852 470.093C477.384 470.093 478.566 469.656 479.396 468.782C480.234 467.901 480.653 466.659 480.653 465.055C480.653 463.923 480.399 463.053 479.891 462.444C479.382 461.828 478.655 461.521 477.71 461.521C475.54 461.521 474.455 462.713 474.455 465.098L473.789 462.176H474.638C474.881 460.658 475.941 459.898 477.817 459.898C479.307 459.898 480.46 460.346 481.276 461.241C482.093 462.136 482.501 463.408 482.501 465.055C482.501 467.167 481.882 468.807 480.643 469.975C479.404 471.135 477.656 471.715 475.4 471.715ZM472.618 471.5V455.387H474.455V471.307L472.618 471.5ZM484.563 476.656L484.478 474.97L485.906 474.787C486.637 474.68 487.274 474.454 487.818 474.11C488.363 473.774 488.846 473.269 489.269 472.596C489.691 471.923 490.078 471.042 490.429 469.953L493.608 460.113H495.563L491.965 470.49C491.492 471.851 490.987 472.95 490.45 473.788C489.913 474.626 489.297 475.253 488.603 475.668C487.915 476.083 487.102 476.348 486.164 476.463L484.563 476.656ZM489.032 471.5L484.349 460.113H486.304L490.268 470.028H490.579L490.558 471.5H489.032ZM505.07 471.715C503.473 471.715 502.306 471.35 501.568 470.619C500.838 469.882 500.473 468.732 500.473 467.171V465.27H502.32V467.096C502.32 468.098 502.557 468.84 503.029 469.319C503.502 469.792 504.254 470.028 505.285 470.028C505.672 470.028 506.062 470.01 506.456 469.975C506.857 469.932 507.29 469.874 507.756 469.803L507.971 471.457C507.484 471.543 507.007 471.607 506.542 471.65C506.084 471.693 505.593 471.715 505.07 471.715ZM500.473 466.129V456.676H502.32V466.129H500.473ZM497.4 461.682V460.113H507.541V461.682H497.4ZM516.994 471.715C515.082 471.715 513.603 471.199 512.558 470.168C511.519 469.13 511 467.654 511 465.742C511 463.887 511.44 462.451 512.321 461.435C513.202 460.41 514.445 459.898 516.049 459.898C517.56 459.898 518.727 460.36 519.551 461.284C520.382 462.208 520.797 463.536 520.797 465.27C520.797 465.749 520.775 466.179 520.732 466.559H512.536V465.076H519.078C519.078 463.952 518.813 463.085 518.283 462.477C517.753 461.868 517.016 461.563 516.07 461.563C515.018 461.563 514.201 461.922 513.621 462.638C513.041 463.354 512.751 464.367 512.751 465.678C512.751 467.089 513.141 468.17 513.922 468.922C514.71 469.674 515.82 470.05 517.252 470.05C517.703 470.05 518.158 470.025 518.616 469.975C519.082 469.917 519.544 469.842 520.002 469.749L520.238 471.414C519.651 471.529 519.082 471.607 518.53 471.65C517.979 471.693 517.467 471.715 516.994 471.715ZM527.908 471.715C527.063 471.715 526.34 471.69 525.738 471.64C525.137 471.59 524.592 471.507 524.105 471.393L524.32 469.674C525.065 469.796 525.72 469.885 526.286 469.942C526.859 470 527.4 470.028 527.908 470.028C529.183 470.028 530.107 469.899 530.68 469.642C531.26 469.377 531.55 468.958 531.55 468.385C531.55 467.984 531.432 467.672 531.195 467.45C530.959 467.221 530.587 467.042 530.078 466.913L527.489 466.258C526.372 465.979 525.556 465.617 525.04 465.173C524.532 464.729 524.277 464.102 524.277 463.293C524.277 462.097 524.746 461.234 525.685 460.704C526.63 460.167 528.152 459.898 530.25 459.898C530.773 459.898 531.26 459.916 531.711 459.952C532.169 459.981 532.656 460.035 533.172 460.113L532.979 461.735C532.391 461.678 531.879 461.639 531.442 461.617C531.006 461.596 530.587 461.585 530.186 461.585C528.782 461.585 527.765 461.714 527.135 461.972C526.512 462.229 526.2 462.648 526.2 463.229C526.2 463.594 526.343 463.88 526.63 464.088C526.924 464.296 527.382 464.478 528.005 464.636L530.078 465.141C531.267 465.42 532.13 465.807 532.667 466.301C533.204 466.795 533.473 467.479 533.473 468.353C533.473 469.534 533.032 470.39 532.151 470.92C531.271 471.45 529.856 471.715 527.908 471.715Z" fill="#E1E1FF"/>
<path opacity="0.75" d="M76.3047 503.156C75.6745 503.156 75.0833 503.104 74.5312 503C73.9844 502.901 73.4766 502.75 73.0078 502.547L73.2109 500.969C73.7839 501.214 74.3359 501.401 74.8672 501.531C75.4036 501.656 75.9245 501.719 76.4297 501.719C77.1589 501.719 77.7005 501.591 78.0547 501.336C78.4089 501.081 78.5859 500.693 78.5859 500.172C78.5859 499.51 78.2474 499.026 77.5703 498.719L75.6484 497.844C74.8932 497.5 74.3125 497.086 73.9062 496.602C73.5052 496.117 73.3047 495.516 73.3047 494.797C73.3047 493.828 73.5964 493.078 74.1797 492.547C74.763 492.016 75.5885 491.75 76.6562 491.75C77.401 491.75 78.0599 491.859 78.6328 492.078C79.2057 492.297 79.7578 492.654 80.2891 493.148L79.1953 494.258C78.737 493.883 78.3073 493.612 77.9062 493.445C77.5104 493.273 77.0964 493.188 76.6641 493.188C76.1276 493.188 75.7109 493.318 75.4141 493.578C75.1224 493.833 74.9766 494.214 74.9766 494.719C74.9766 495.078 75.0729 495.372 75.2656 495.602C75.4583 495.826 75.7422 496.026 76.1172 496.203L77.7422 496.969C78.5651 497.354 79.1901 497.789 79.6172 498.273C80.0443 498.758 80.2578 499.38 80.2578 500.141C80.2578 501.146 79.9297 501.901 79.2734 502.406C78.6224 502.906 77.6328 503.156 76.3047 503.156ZM85.25 503.156C84.3802 503.156 83.7057 502.898 83.2266 502.383C82.7526 501.862 82.5156 501.13 82.5156 500.188V494.719H84.1719V500.188C84.1719 500.661 84.3073 501.029 84.5781 501.289C84.849 501.544 85.2292 501.672 85.7188 501.672C86.3229 501.672 86.7786 501.482 87.0859 501.102C87.3932 500.716 87.5469 500.073 87.5469 499.172L87.9688 501.406H87.4219C87.2917 501.969 87.0365 502.401 86.6562 502.703C86.276 503.005 85.8073 503.156 85.25 503.156ZM87.6875 503.078L87.5469 501.094V499.641H89.2031V501.5L90.3438 501.672V503L87.6875 503.078ZM87.5469 500.656V494.719H89.2031V500.188L87.5469 500.656ZM94.2422 503.156C93.8672 503.156 93.4974 503.141 93.1328 503.109C92.7682 503.083 92.3984 503.047 92.0234 503L92.6641 501.484C92.9401 501.615 93.2448 501.693 93.5781 501.719C93.9115 501.74 94.2422 501.75 94.5703 501.75C95.5651 501.75 96.3333 501.451 96.875 500.852C97.4219 500.253 97.6953 499.406 97.6953 498.312C97.6953 497.562 97.5286 496.984 97.1953 496.578C96.8672 496.172 96.3984 495.969 95.7891 495.969C94.3828 495.969 93.6797 496.76 93.6797 498.344L93.1953 496.219H93.8359C93.9141 495.115 94.5911 494.562 95.8672 494.562C96.9714 494.562 97.8255 494.888 98.4297 495.539C99.0339 496.19 99.3359 497.115 99.3359 498.312C99.3359 499.849 98.8906 501.042 98 501.891C97.1146 502.734 95.862 503.156 94.2422 503.156ZM92.0234 503V491.281H93.6797V502.859L92.0234 503ZM104.172 503.156C103.547 503.156 103.01 503.138 102.562 503.102C102.12 503.065 101.714 503.005 101.344 502.922L101.531 501.422C102.078 501.505 102.56 501.568 102.977 501.609C103.398 501.651 103.797 501.672 104.172 501.672C105.01 501.672 105.617 501.591 105.992 501.43C106.372 501.263 106.562 501 106.562 500.641C106.562 500.391 106.495 500.206 106.359 500.086C106.229 499.961 106.026 499.865 105.75 499.797L103.844 499.312C103.026 499.104 102.424 498.846 102.039 498.539C101.659 498.232 101.469 497.766 101.469 497.141C101.469 496.234 101.815 495.578 102.508 495.172C103.206 494.766 104.328 494.562 105.875 494.562C106.276 494.562 106.648 494.576 106.992 494.602C107.341 494.622 107.698 494.661 108.062 494.719L107.891 496.156C107.469 496.115 107.096 496.086 106.773 496.07C106.451 496.055 106.135 496.047 105.828 496.047C104.901 496.047 104.229 496.128 103.812 496.289C103.396 496.445 103.188 496.703 103.188 497.062C103.188 497.302 103.273 497.477 103.445 497.586C103.617 497.69 103.88 497.786 104.234 497.875L105.766 498.25C106.635 498.458 107.271 498.737 107.672 499.086C108.078 499.435 108.281 499.943 108.281 500.609C108.281 501.5 107.956 502.148 107.305 502.555C106.654 502.956 105.609 503.156 104.172 503.156ZM113.906 503V495.188H115.562V503H113.906ZM110.75 503V501.641H114.062V503H110.75ZM115.406 503V501.641H118.109V503H115.406ZM111.219 496.078V494.719H115.562V496.078H111.219ZM114.68 493.406C114.362 493.406 114.089 493.294 113.859 493.07C113.635 492.841 113.523 492.568 113.523 492.25C113.523 491.927 113.635 491.654 113.859 491.43C114.089 491.206 114.362 491.094 114.68 491.094C115.003 491.094 115.276 491.206 115.5 491.43C115.724 491.654 115.836 491.927 115.836 492.25C115.836 492.568 115.724 492.841 115.5 493.07C115.276 493.294 115.003 493.406 114.68 493.406ZM122.93 503.156C121.846 503.156 121.023 502.799 120.461 502.086C119.904 501.372 119.625 500.323 119.625 498.938C119.625 497.5 119.904 496.411 120.461 495.672C121.023 494.932 121.846 494.562 122.93 494.562C123.549 494.562 124.052 494.708 124.438 495C124.828 495.292 125.057 495.698 125.125 496.219H125.766L125.281 498.578C125.281 497.724 125.112 497.076 124.773 496.633C124.44 496.19 123.948 495.969 123.297 495.969C122.63 495.969 122.125 496.219 121.781 496.719C121.438 497.219 121.266 497.958 121.266 498.938C121.266 499.865 121.438 500.565 121.781 501.039C122.125 501.513 122.63 501.75 123.297 501.75C123.948 501.75 124.44 501.529 124.773 501.086C125.112 500.643 125.281 499.995 125.281 499.141L125.844 501.5H125.125C125.073 502.021 124.852 502.427 124.461 502.719C124.076 503.01 123.565 503.156 122.93 503.156ZM125.453 503.078L125.281 501.453V491.281H126.938V503L125.453 503.078ZM132.656 503V495.188H134.312V503H132.656ZM129.5 503V501.641H132.812V503H129.5ZM134.156 503V501.641H136.859V503H134.156ZM129.969 496.078V494.719H134.312V496.078H129.969ZM133.43 493.406C133.112 493.406 132.839 493.294 132.609 493.07C132.385 492.841 132.273 492.568 132.273 492.25C132.273 491.927 132.385 491.654 132.609 491.43C132.839 491.206 133.112 491.094 133.43 491.094C133.753 491.094 134.026 491.206 134.25 491.43C134.474 491.654 134.586 491.927 134.586 492.25C134.586 492.568 134.474 492.841 134.25 493.07C134.026 493.294 133.753 493.406 133.43 493.406ZM144.016 503.078L143.906 500.625L143.688 499.938V497.797C143.688 497.245 143.492 496.841 143.102 496.586C142.716 496.326 142.141 496.185 141.375 496.164L139.391 496.109L139.547 494.641L141.219 494.664C142.589 494.685 143.604 494.982 144.266 495.555C144.932 496.122 145.266 496.953 145.266 498.047V501.5L146.672 501.672V503L144.016 503.078ZM141.094 503.156C140.229 503.156 139.56 502.948 139.086 502.531C138.612 502.115 138.375 501.526 138.375 500.766C138.375 499.891 138.701 499.219 139.352 498.75C140.008 498.281 140.932 498.047 142.125 498.047C142.62 498.047 143.06 498.078 143.445 498.141C143.836 498.198 144.182 498.286 144.484 498.406L144.141 499.531C143.792 499.453 143.451 499.409 143.117 499.398C142.784 499.383 142.443 499.375 142.094 499.375C140.656 499.375 139.938 499.812 139.938 500.688C139.938 501.052 140.06 501.333 140.305 501.531C140.555 501.729 140.906 501.828 141.359 501.828C141.875 501.828 142.305 501.74 142.648 501.562C142.997 501.385 143.258 501.159 143.43 500.883C143.602 500.607 143.688 500.323 143.688 500.031V499.125L144.172 501.25H143.516L143.781 501C143.781 501.479 143.669 501.88 143.445 502.203C143.227 502.521 142.917 502.76 142.516 502.922C142.115 503.078 141.641 503.156 141.094 503.156ZM151.125 499.438L150.641 496.844H151.281C151.375 495.323 152.135 494.562 153.562 494.562C154.417 494.562 155.036 494.807 155.422 495.297C155.807 495.786 156 496.578 156 497.672H154.359C154.359 497.068 154.268 496.633 154.086 496.367C153.909 496.102 153.62 495.969 153.219 495.969C152.516 495.969 151.99 496.271 151.641 496.875C151.297 497.474 151.125 498.328 151.125 499.438ZM147.625 503V501.641H153.156V503H147.625ZM149.469 503V494.719H150.812L151.125 497.094V503H149.469ZM147.938 496.078V494.719H150.703L150.859 496.078H147.938ZM156.961 506.75L156.883 505.266L158.18 505.109C158.727 505.042 159.193 504.893 159.578 504.664C159.969 504.435 160.302 504.094 160.578 503.641C160.854 503.193 161.096 502.604 161.305 501.875L163.367 494.719H165.086L162.695 502.266C162.383 503.255 162.031 504.052 161.641 504.656C161.255 505.26 160.797 505.714 160.266 506.016C159.74 506.318 159.107 506.51 158.367 506.594L156.961 506.75ZM160.102 503L156.805 494.719H158.523L161.227 501.75H161.477V503H160.102ZM178.617 503.156C178.242 503.156 177.872 503.141 177.508 503.109C177.143 503.083 176.773 503.047 176.398 503L177.039 501.484C177.315 501.615 177.62 501.693 177.953 501.719C178.286 501.74 178.617 501.75 178.945 501.75C179.94 501.75 180.708 501.451 181.25 500.852C181.797 500.253 182.07 499.406 182.07 498.312C182.07 497.562 181.904 496.984 181.57 496.578C181.242 496.172 180.773 495.969 180.164 495.969C178.758 495.969 178.055 496.76 178.055 498.344L177.57 496.219H178.211C178.289 495.115 178.966 494.562 180.242 494.562C181.346 494.562 182.201 494.888 182.805 495.539C183.409 496.19 183.711 497.115 183.711 498.312C183.711 499.849 183.266 501.042 182.375 501.891C181.49 502.734 180.237 503.156 178.617 503.156ZM176.398 503V491.281H178.055V502.859L176.398 503ZM190.422 503.156C189.464 503.156 188.771 502.896 188.344 502.375C187.917 501.854 187.703 501.021 187.703 499.875V491.281H189.359V499.797C189.359 500.234 189.401 500.591 189.484 500.867C189.568 501.143 189.729 501.346 189.969 501.477C190.214 501.607 190.573 501.672 191.047 501.672C191.479 501.672 192.031 501.573 192.703 501.375L192.891 502.828C192.469 502.943 192.062 503.026 191.672 503.078C191.286 503.13 190.87 503.156 190.422 503.156ZM185.266 492.641V491.281H187.844V492.641H185.266ZM198.562 503.156C197.417 503.156 196.526 502.781 195.891 502.031C195.255 501.281 194.938 500.224 194.938 498.859C194.938 497.49 195.255 496.432 195.891 495.688C196.526 494.938 197.417 494.562 198.562 494.562C199.714 494.562 200.604 494.938 201.234 495.688C201.87 496.432 202.188 497.49 202.188 498.859C202.188 500.224 201.87 501.281 201.234 502.031C200.604 502.781 199.714 503.156 198.562 503.156ZM198.562 501.672C199.172 501.672 199.641 501.427 199.969 500.938C200.302 500.448 200.469 499.755 200.469 498.859C200.469 497.958 200.302 497.266 199.969 496.781C199.641 496.292 199.172 496.047 198.562 496.047C197.953 496.047 197.482 496.292 197.148 496.781C196.82 497.266 196.656 497.958 196.656 498.859C196.656 499.755 196.82 500.448 197.148 500.938C197.482 501.427 197.953 501.672 198.562 501.672ZM208.734 503.156C207.323 503.156 206.232 502.786 205.461 502.047C204.695 501.302 204.312 500.234 204.312 498.844C204.312 497.49 204.674 496.438 205.398 495.688C206.128 494.938 207.167 494.562 208.516 494.562C209.323 494.562 210.013 494.714 210.586 495.016C211.164 495.312 211.576 495.734 211.82 496.281L210.547 497.242C210.312 496.862 210.013 496.568 209.648 496.359C209.284 496.151 208.885 496.047 208.453 496.047C207.672 496.047 207.065 496.284 206.633 496.758C206.201 497.227 205.984 497.896 205.984 498.766C205.984 499.708 206.237 500.43 206.742 500.93C207.253 501.424 207.979 501.672 208.922 501.672C209.307 501.672 209.693 501.654 210.078 501.617C210.464 501.581 210.839 501.531 211.203 501.469L211.391 502.922C210.964 503.016 210.521 503.078 210.062 503.109C209.609 503.141 209.167 503.156 208.734 503.156ZM215.047 499.859V498.375H215.984C216.672 498.375 217.237 498.258 217.68 498.023C218.122 497.784 218.469 497.396 218.719 496.859C218.974 496.323 219.161 495.609 219.281 494.719H221C220.781 496.443 220.289 497.732 219.523 498.586C218.763 499.435 217.714 499.859 216.375 499.859H215.047ZM213.875 503V491.281H215.531V503H213.875ZM219.484 503L217.125 498.969L218.688 498.328L221.531 503H219.484ZM226.047 503.156C225.422 503.156 224.885 503.138 224.438 503.102C223.995 503.065 223.589 503.005 223.219 502.922L223.406 501.422C223.953 501.505 224.435 501.568 224.852 501.609C225.273 501.651 225.672 501.672 226.047 501.672C226.885 501.672 227.492 501.591 227.867 501.43C228.247 501.263 228.438 501 228.438 500.641C228.438 500.391 228.37 500.206 228.234 500.086C228.104 499.961 227.901 499.865 227.625 499.797L225.719 499.312C224.901 499.104 224.299 498.846 223.914 498.539C223.534 498.232 223.344 497.766 223.344 497.141C223.344 496.234 223.69 495.578 224.383 495.172C225.081 494.766 226.203 494.562 227.75 494.562C228.151 494.562 228.523 494.576 228.867 494.602C229.216 494.622 229.573 494.661 229.938 494.719L229.766 496.156C229.344 496.115 228.971 496.086 228.648 496.07C228.326 496.055 228.01 496.047 227.703 496.047C226.776 496.047 226.104 496.128 225.688 496.289C225.271 496.445 225.062 496.703 225.062 497.062C225.062 497.302 225.148 497.477 225.32 497.586C225.492 497.69 225.755 497.786 226.109 497.875L227.641 498.25C228.51 498.458 229.146 498.737 229.547 499.086C229.953 499.435 230.156 499.943 230.156 500.609C230.156 501.5 229.831 502.148 229.18 502.555C228.529 502.956 227.484 503.156 226.047 503.156Z" fill="#E1E1FF"/>
<defs>
<clipPath id="clip0_61_18">
<rect width="24" height="24" fill="white" transform="translate(72 222)"/>
</clipPath>
<clipPath id="clip1_61_18">
<rect width="24" height="24" fill="white" transform="translate(72 337)"/>
</clipPath>
</defs>
</svg>
