<svg width="704" height="504" viewBox="0 0 704 504" fill="none" xmlns="http://www.w3.org/2000/svg">
<rect width="704" height="504" rx="16" fill="#181925"/>
<path d="M54.9824 62.1953C53.1465 62.1953 51.7272 61.7331 50.7246 60.8086C49.7285 59.8776 49.2305 58.543 49.2305 56.8047C49.2305 55.112 49.6927 53.7969 50.6172 52.8594C51.5417 51.9219 52.8633 51.4531 54.582 51.4531C55.6302 51.4531 56.5254 51.6549 57.2676 52.0586C58.0163 52.4557 58.5469 53.0189 58.8594 53.748L57.0723 55.1445C56.7858 54.6823 56.418 54.3275 55.9688 54.0801C55.526 53.8262 55.0378 53.6992 54.5039 53.6992C53.6185 53.6992 52.9284 53.9596 52.4336 54.4805C51.9388 55.0013 51.6914 55.7435 51.6914 56.707C51.6914 57.7617 51.9941 58.5658 52.5996 59.1191C53.2116 59.6725 54.084 59.9492 55.2168 59.9492C55.6921 59.9492 56.1641 59.9264 56.6328 59.8809C57.1081 59.8353 57.5703 59.7734 58.0195 59.6953L58.2734 61.9023C57.7461 62.0195 57.1992 62.0977 56.6328 62.1367C56.0664 62.1758 55.5163 62.1953 54.9824 62.1953ZM64.2695 62.1953C63.2409 62.1953 62.4466 61.873 61.8867 61.2285C61.3268 60.5775 61.0469 59.6628 61.0469 58.4844V51.6484H63.459V58.0938C63.459 58.6862 63.6087 59.1452 63.9082 59.4707C64.2077 59.7897 64.6211 59.9492 65.1484 59.9492C65.8255 59.9492 66.3333 59.7116 66.6719 59.2363C67.0169 58.7546 67.1895 57.9505 67.1895 56.8242L67.7168 60.0078H66.9648C66.8021 60.7109 66.4831 61.2513 66.0078 61.6289C65.5391 62.0065 64.9596 62.1953 64.2695 62.1953ZM67.3652 62.0977L67.1895 59.6172V57.8008H69.6016V59.832L71.0273 60.0469V62L67.3652 62.0977ZM67.1895 59.0703V51.6484H69.6016V58.4844L67.1895 59.0703ZM76.4961 62.1953C75.7083 62.1953 75.0215 62.1693 74.4355 62.1172C73.8496 62.0716 73.3255 62 72.8633 61.9023L73.1465 59.6367C73.9082 59.7409 74.5625 59.819 75.1094 59.8711C75.6562 59.9232 76.1185 59.9492 76.4961 59.9492C77.4466 59.9492 78.1335 59.8711 78.5566 59.7148C78.9863 59.5586 79.2012 59.3112 79.2012 58.9727C79.2012 58.7578 79.1393 58.5918 79.0156 58.4746C78.8919 58.3574 78.6966 58.263 78.4297 58.1914L75.4512 57.3613C74.6309 57.1335 74.0189 56.821 73.6152 56.4238C73.2181 56.0202 73.0195 55.4538 73.0195 54.7246C73.0195 53.6048 73.472 52.7812 74.377 52.2539C75.2884 51.7201 76.7044 51.4531 78.625 51.4531C79.0938 51.4531 79.556 51.4694 80.0117 51.502C80.474 51.5345 80.9557 51.5833 81.457 51.6484L81.2031 53.8359C80.6367 53.7839 80.1387 53.748 79.709 53.7285C79.2858 53.709 78.9049 53.6992 78.5664 53.6992C77.4922 53.6992 76.7109 53.7741 76.2227 53.9238C75.7409 54.0736 75.5 54.3145 75.5 54.6465C75.5 54.8678 75.5716 55.0306 75.7148 55.1348C75.8581 55.2389 76.0794 55.3301 76.3789 55.4082L78.8789 56.082C79.849 56.3294 80.5651 56.6777 81.0273 57.127C81.4961 57.5762 81.7305 58.1882 81.7305 58.9629C81.7305 60.0697 81.304 60.8867 80.4512 61.4141C79.6048 61.9349 78.2865 62.1953 76.4961 62.1953ZM91.0859 62.1953C89.3867 62.1953 88.1595 61.8503 87.4043 61.1602C86.6491 60.4701 86.2715 59.3665 86.2715 57.8496V56.3359H88.6738V57.6543C88.6738 58.4551 88.8757 59.0378 89.2793 59.4023C89.6895 59.7669 90.3568 59.9492 91.2812 59.9492C91.5872 59.9492 91.916 59.9329 92.2676 59.9004C92.6191 59.8613 93.0195 59.8125 93.4688 59.7539L93.7031 61.9609C93.2669 62.0391 92.8372 62.0977 92.4141 62.1367C91.9974 62.1758 91.5547 62.1953 91.0859 62.1953ZM86.2715 57.0195V48.5234H88.6738V57.0195H86.2715ZM83.7422 53.8359V51.6484H93.3125V53.8359H83.7422ZM100.734 62.1953C99.2695 62.1953 98.1302 61.7266 97.3164 60.7891C96.5091 59.8516 96.1055 58.5299 96.1055 56.8242C96.1055 55.112 96.5091 53.7904 97.3164 52.8594C98.1302 51.9219 99.2695 51.4531 100.734 51.4531C102.206 51.4531 103.345 51.9219 104.152 52.8594C104.96 53.7904 105.363 55.112 105.363 56.8242C105.363 58.5299 104.96 59.8516 104.152 60.7891C103.345 61.7266 102.206 62.1953 100.734 62.1953ZM100.734 59.9492C101.424 59.9492 101.955 59.679 102.326 59.1387C102.697 58.5918 102.883 57.8203 102.883 56.8242C102.883 55.8216 102.694 55.0501 102.316 54.5098C101.945 53.9694 101.418 53.6992 100.734 53.6992C100.051 53.6992 99.5202 53.9694 99.1426 54.5098C98.7715 55.0501 98.5859 55.8216 98.5859 56.8242C98.5859 57.8203 98.7715 58.5918 99.1426 59.1387C99.5202 59.679 100.051 59.9492 100.734 59.9492ZM114.934 62V54.627C114.934 53.9108 114.702 53.5527 114.24 53.5527C113.687 53.5527 113.41 53.9727 113.41 54.8125L112.707 52.9375H113.557C113.602 52.5013 113.771 52.1465 114.064 51.873C114.364 51.5931 114.774 51.4531 115.295 51.4531C115.998 51.4531 116.509 51.6452 116.828 52.0293C117.154 52.4134 117.316 53.0352 117.316 53.8945V62H114.934ZM107.59 62V51.6484H109.748L109.982 53.8359V62H107.59ZM111.525 62V54.4316C111.525 53.8457 111.291 53.5527 110.822 53.5527C110.262 53.5527 109.982 53.9727 109.982 54.8125L109.377 52.9375H110.09C110.207 51.9479 110.757 51.4531 111.74 51.4531C112.261 51.4531 112.668 51.6387 112.961 52.0098C113.26 52.3809 113.41 52.944 113.41 53.6992V62H111.525Z" fill="#1187F8"/>
<rect x="48" y="86" width="608" height="370" rx="12" stroke="#1187F8" stroke-width="2" stroke-dasharray="32 16"/>
<rect width="560" height="286" transform="translate(72 110)" fill="#181925"/>
<path d="M78.709 124.195C76.9316 124.195 75.5579 123.733 74.5879 122.809C73.6178 121.878 73.1328 120.543 73.1328 118.805C73.1328 117.112 73.543 115.797 74.3633 114.859C75.1901 113.922 76.3522 113.453 77.8496 113.453C79.2949 113.453 80.4115 113.883 81.1992 114.742C81.9935 115.602 82.3906 116.848 82.3906 118.482C82.3906 118.958 82.3711 119.404 82.332 119.82H74.8711V118.082H80.0859C80.0859 117.294 79.8906 116.689 79.5 116.266C79.1094 115.842 78.5658 115.631 77.8691 115.631C77.1074 115.631 76.515 115.898 76.0918 116.432C75.6686 116.965 75.457 117.724 75.457 118.707C75.457 119.768 75.7598 120.579 76.3652 121.139C76.9707 121.692 77.8301 121.969 78.9434 121.969C79.3991 121.969 79.8451 121.946 80.2812 121.9C80.724 121.848 81.1732 121.78 81.6289 121.695L81.8828 123.922C81.2448 124.039 80.6589 124.114 80.125 124.146C79.5911 124.179 79.1191 124.195 78.709 124.195ZM91.4824 124V117.652C91.4824 117.027 91.3392 116.546 91.0527 116.207C90.7663 115.868 90.3626 115.699 89.8418 115.699C88.3965 115.699 87.6738 116.656 87.6738 118.57L87.0684 115.523H87.9082C87.9863 114.827 88.2272 114.309 88.6309 113.971C89.041 113.626 89.6497 113.453 90.457 113.453C91.5508 113.453 92.3971 113.785 92.9961 114.449C93.5951 115.113 93.8945 116.051 93.8945 117.262V124H91.4824ZM85.2617 124V113.648H87.4297L87.6738 115.836V124H85.2617ZM103.367 124.195C101.668 124.195 100.441 123.85 99.6855 123.16C98.9303 122.47 98.5527 121.367 98.5527 119.85V118.336H100.955V119.654C100.955 120.455 101.157 121.038 101.561 121.402C101.971 121.767 102.638 121.949 103.562 121.949C103.868 121.949 104.197 121.933 104.549 121.9C104.9 121.861 105.301 121.812 105.75 121.754L105.984 123.961C105.548 124.039 105.118 124.098 104.695 124.137C104.279 124.176 103.836 124.195 103.367 124.195ZM98.5527 119.02V110.523H100.955V119.02H98.5527ZM96.0234 115.836V113.648H105.594V115.836H96.0234ZM112.479 119.547L111.873 116.109H112.732C112.843 114.339 113.751 113.453 115.457 113.453C116.473 113.453 117.234 113.792 117.742 114.469C118.25 115.146 118.504 116.168 118.504 117.535H116.102C116.102 116.865 115.988 116.383 115.76 116.09C115.538 115.797 115.18 115.65 114.686 115.65C113.943 115.65 113.39 115.989 113.025 116.666C112.661 117.343 112.479 118.303 112.479 119.547ZM107.84 124V121.91H114.949V124H107.84ZM110.076 124V113.648H112.088L112.479 116.617V124H110.076ZM108.23 115.738V113.648H111.951L112.146 115.738H108.23ZM119.51 128.688L119.412 126.568L121.131 126.373C121.769 126.295 122.316 126.122 122.771 125.855C123.227 125.589 123.618 125.191 123.943 124.664C124.269 124.137 124.552 123.447 124.793 122.594L127.322 113.648H129.861L126.922 123.082C126.531 124.326 126.085 125.325 125.584 126.08C125.089 126.835 124.5 127.402 123.816 127.779C123.133 128.157 122.316 128.395 121.365 128.492L119.51 128.688ZM123.045 124L119.314 113.648H121.854L124.744 122.027H125.154V124H123.045Z" fill="#1187F8"/>
<rect x="72" y="140" width="560" height="256" rx="12" stroke="#1187F8" stroke-width="2" stroke-dasharray="32 16"/>
<rect x="96" y="164" width="512" height="96" rx="8" fill="#242638"/>
<path d="M124.504 211.504C123.836 211.9 123.502 212.098 123.251 211.952C123 211.805 123 211.412 123 210.626V190.287C123 189.024 124.007 188 125.25 188H138.75C139.993 188 141 189.024 141 190.287V210.626C141 211.412 141 211.805 140.749 211.952C140.498 212.098 140.164 211.9 139.496 211.504L132.504 207.358C132.258 207.212 132.135 207.139 132 207.139C131.865 207.139 131.742 207.212 131.496 207.358L124.504 211.504Z" fill="#E1E1FF"/>
<path d="M159.33 203.182V201.141H160.619C161.564 201.141 162.341 200.979 162.95 200.657C163.559 200.328 164.035 199.794 164.379 199.057C164.73 198.319 164.988 197.338 165.152 196.113H167.516C167.215 198.484 166.538 200.256 165.485 201.431C164.44 202.598 162.997 203.182 161.156 203.182H159.33ZM157.719 207.5V191.387H159.996V207.5H157.719ZM165.432 207.5L162.188 201.957L164.336 201.076L168.246 207.5H165.432ZM176.324 207.715C174.383 207.715 172.883 207.206 171.823 206.189C170.771 205.165 170.244 203.697 170.244 201.785C170.244 199.923 170.692 198.477 171.587 197.445C172.482 196.414 173.746 195.898 175.379 195.898C176.919 195.898 178.107 196.364 178.945 197.295C179.79 198.226 180.213 199.579 180.213 201.355C180.213 201.878 180.191 202.365 180.148 202.816H172.156V201.076H178.15C178.15 200.052 177.907 199.268 177.42 198.724C176.933 198.172 176.26 197.896 175.4 197.896C174.434 197.896 173.682 198.226 173.145 198.885C172.615 199.544 172.35 200.475 172.35 201.678C172.35 202.995 172.715 203.998 173.445 204.686C174.183 205.373 175.229 205.717 176.582 205.717C177.055 205.717 177.52 205.692 177.979 205.642C178.437 205.584 178.902 205.509 179.375 205.416L179.654 207.414C178.981 207.543 178.365 207.625 177.807 207.661C177.248 207.697 176.754 207.715 176.324 207.715ZM182.587 212.656L182.479 210.615L184.263 210.4C185.015 210.307 185.656 210.103 186.186 209.788C186.723 209.473 187.181 209.004 187.561 208.381C187.94 207.765 188.273 206.956 188.56 205.953L191.396 196.113H193.759L190.472 206.49C190.042 207.851 189.559 208.947 189.021 209.777C188.492 210.608 187.861 211.231 187.131 211.646C186.408 212.062 185.537 212.327 184.521 212.441L182.587 212.656ZM186.905 207.5L182.372 196.113H184.735L188.452 205.781H188.796V207.5H186.905Z" fill="#E1E1FF"/>
<path d="M501.594 207.5L496.867 195.898H495.879V192.246H497.297L502.023 203.848H502.561V207.5H501.594ZM494.59 207.5V192.246H496.652V207.5H494.59ZM502.238 207.5V192.246H504.301V207.5H502.238ZM523.4 207.715C522.935 207.715 522.473 207.693 522.015 207.65C521.556 207.615 521.091 207.564 520.618 207.5L521.424 205.803C521.775 205.939 522.161 206.021 522.584 206.05C523.014 206.078 523.436 206.093 523.852 206.093C525.384 206.093 526.566 205.656 527.396 204.782C528.234 203.901 528.653 202.659 528.653 201.055C528.653 199.923 528.399 199.053 527.891 198.444C527.382 197.828 526.655 197.521 525.71 197.521C523.54 197.521 522.455 198.713 522.455 201.098L521.789 198.176H522.638C522.881 196.658 523.941 195.898 525.817 195.898C527.307 195.898 528.46 196.346 529.276 197.241C530.093 198.136 530.501 199.408 530.501 201.055C530.501 203.167 529.882 204.807 528.643 205.975C527.404 207.135 525.656 207.715 523.4 207.715ZM520.618 207.5V191.387H522.455V207.307L520.618 207.5ZM532.563 212.656L532.478 210.97L533.906 210.787C534.637 210.68 535.274 210.454 535.818 210.11C536.363 209.774 536.846 209.269 537.269 208.596C537.691 207.923 538.078 207.042 538.429 205.953L541.608 196.113H543.563L539.965 206.49C539.492 207.851 538.987 208.95 538.45 209.788C537.913 210.626 537.297 211.253 536.603 211.668C535.915 212.083 535.102 212.348 534.164 212.463L532.563 212.656ZM537.032 207.5L532.349 196.113H534.304L538.268 206.028H538.579L538.558 207.5H537.032ZM553.07 207.715C551.473 207.715 550.306 207.35 549.568 206.619C548.838 205.882 548.473 204.732 548.473 203.171V201.27H550.32V203.096C550.32 204.098 550.557 204.84 551.029 205.319C551.502 205.792 552.254 206.028 553.285 206.028C553.672 206.028 554.062 206.01 554.456 205.975C554.857 205.932 555.29 205.874 555.756 205.803L555.971 207.457C555.484 207.543 555.007 207.607 554.542 207.65C554.084 207.693 553.593 207.715 553.07 207.715ZM548.473 202.129V192.676H550.32V202.129H548.473ZM545.4 197.682V196.113H555.541V197.682H545.4ZM564.994 207.715C563.082 207.715 561.603 207.199 560.558 206.168C559.519 205.13 559 203.654 559 201.742C559 199.887 559.44 198.451 560.321 197.435C561.202 196.41 562.445 195.898 564.049 195.898C565.56 195.898 566.727 196.36 567.551 197.284C568.382 198.208 568.797 199.536 568.797 201.27C568.797 201.749 568.775 202.179 568.732 202.559H560.536V201.076H567.078C567.078 199.952 566.813 199.085 566.283 198.477C565.753 197.868 565.016 197.563 564.07 197.563C563.018 197.563 562.201 197.922 561.621 198.638C561.041 199.354 560.751 200.367 560.751 201.678C560.751 203.089 561.141 204.17 561.922 204.922C562.71 205.674 563.82 206.05 565.252 206.05C565.703 206.05 566.158 206.025 566.616 205.975C567.082 205.917 567.544 205.842 568.002 205.749L568.238 207.414C567.651 207.529 567.082 207.607 566.53 207.65C565.979 207.693 565.467 207.715 564.994 207.715ZM575.908 207.715C575.063 207.715 574.34 207.69 573.738 207.64C573.137 207.59 572.592 207.507 572.105 207.393L572.32 205.674C573.065 205.796 573.72 205.885 574.286 205.942C574.859 206 575.4 206.028 575.908 206.028C577.183 206.028 578.107 205.899 578.68 205.642C579.26 205.377 579.55 204.958 579.55 204.385C579.55 203.984 579.432 203.672 579.195 203.45C578.959 203.221 578.587 203.042 578.078 202.913L575.489 202.258C574.372 201.979 573.556 201.617 573.04 201.173C572.532 200.729 572.277 200.102 572.277 199.293C572.277 198.097 572.746 197.234 573.685 196.704C574.63 196.167 576.152 195.898 578.25 195.898C578.773 195.898 579.26 195.916 579.711 195.952C580.169 195.981 580.656 196.035 581.172 196.113L580.979 197.735C580.391 197.678 579.879 197.639 579.442 197.617C579.006 197.596 578.587 197.585 578.186 197.585C576.782 197.585 575.765 197.714 575.135 197.972C574.512 198.229 574.2 198.648 574.2 199.229C574.2 199.594 574.343 199.88 574.63 200.088C574.924 200.296 575.382 200.478 576.005 200.636L578.078 201.141C579.267 201.42 580.13 201.807 580.667 202.301C581.204 202.795 581.473 203.479 581.473 204.353C581.473 205.534 581.032 206.39 580.151 206.92C579.271 207.45 577.856 207.715 575.908 207.715Z" fill="#E1E1FF"/>
<path opacity="0.75" d="M122.156 232.469L122.297 230.922C123.099 230.922 123.792 230.755 124.375 230.422C124.958 230.083 125.438 229.63 125.812 229.062C126.193 228.49 126.474 227.846 126.656 227.133C126.844 226.414 126.938 225.672 126.938 224.906H128.547C128.547 225.891 128.404 226.836 128.117 227.742C127.831 228.648 127.414 229.458 126.867 230.172C126.32 230.88 125.651 231.44 124.859 231.852C124.068 232.263 123.167 232.469 122.156 232.469ZM121.172 236V224.906H122.734V236H121.172ZM127.188 236L124.375 230.594L125.781 229.797L129.078 236H127.188ZM134.859 236.156C133.448 236.156 132.357 235.786 131.586 235.047C130.82 234.302 130.438 233.234 130.438 231.844C130.438 230.49 130.763 229.438 131.414 228.688C132.065 227.938 132.984 227.562 134.172 227.562C135.292 227.562 136.156 227.901 136.766 228.578C137.38 229.255 137.688 230.24 137.688 231.531C137.688 231.911 137.672 232.266 137.641 232.594H131.828V231.328H136.188C136.188 230.583 136.01 230.013 135.656 229.617C135.302 229.216 134.812 229.016 134.188 229.016C133.484 229.016 132.938 229.255 132.547 229.734C132.161 230.214 131.969 230.891 131.969 231.766C131.969 232.724 132.234 233.453 132.766 233.953C133.302 234.453 134.062 234.703 135.047 234.703C135.391 234.703 135.729 234.685 136.062 234.648C136.396 234.607 136.734 234.552 137.078 234.484L137.281 235.938C136.792 236.031 136.344 236.091 135.938 236.117C135.531 236.143 135.172 236.156 134.859 236.156ZM139.336 239.75L139.258 238.266L140.555 238.109C141.102 238.042 141.568 237.893 141.953 237.664C142.344 237.435 142.677 237.094 142.953 236.641C143.229 236.193 143.471 235.604 143.68 234.875L145.742 227.719H147.461L145.07 235.266C144.758 236.255 144.406 237.052 144.016 237.656C143.63 238.26 143.172 238.714 142.641 239.016C142.115 239.318 141.482 239.51 140.742 239.594L139.336 239.75ZM142.477 236L139.18 227.719H140.898L143.602 234.75H143.852V236H142.477ZM152.812 229.875C152.495 229.875 152.221 229.763 151.992 229.539C151.768 229.31 151.656 229.036 151.656 228.719C151.656 228.396 151.768 228.122 151.992 227.898C152.221 227.674 152.495 227.562 152.812 227.562C153.135 227.562 153.409 227.674 153.633 227.898C153.857 228.122 153.969 228.396 153.969 228.719C153.969 229.036 153.857 229.31 153.633 229.539C153.409 229.763 153.135 229.875 152.812 229.875ZM151.344 239.406L151.969 234.016H153.781L152.844 239.406H151.344ZM171.531 236.156C169.156 236.156 167.969 234.917 167.969 232.438V224.906H169.531V232.438C169.531 233.177 169.693 233.734 170.016 234.109C170.344 234.484 170.859 234.672 171.562 234.672C172.917 234.672 173.594 233.927 173.594 232.438V224.906H175.156V232.438C175.156 233.677 174.849 234.607 174.234 235.227C173.62 235.846 172.719 236.156 171.531 236.156ZM180.156 236V224.906H181.719V236H180.156ZM176.875 226.391V224.906H185V226.391H176.875ZM187.031 236V224.906H188.594V236H187.031ZM187.031 231.656V230.172H192.969V231.656H187.031ZM187.031 226.391V224.906H194.375V226.391H187.031ZM195.781 231.188V229.734H203.594V231.188H195.781ZM209.062 236.156C207.859 236.156 206.927 235.878 206.266 235.32C205.609 234.758 205.281 233.969 205.281 232.953C205.281 232.021 205.609 231.302 206.266 230.797C206.927 230.286 207.859 230.031 209.062 230.031C210.266 230.031 211.195 230.286 211.852 230.797C212.513 231.302 212.844 232.021 212.844 232.953C212.844 233.969 212.513 234.758 211.852 235.32C211.195 235.878 210.266 236.156 209.062 236.156ZM209.062 234.719C209.745 234.719 210.271 234.557 210.641 234.234C211.016 233.911 211.203 233.458 211.203 232.875C211.203 232.25 211.016 231.763 210.641 231.414C210.271 231.065 209.745 230.891 209.062 230.891C208.38 230.891 207.852 231.065 207.477 231.414C207.107 231.763 206.922 232.25 206.922 232.875C206.922 233.458 207.107 233.911 207.477 234.234C207.852 234.557 208.38 234.719 209.062 234.719ZM207.766 230.484V229.688H210.375V230.484H207.766ZM209.062 229.391C209.646 229.391 210.096 229.258 210.414 228.992C210.732 228.721 210.891 228.349 210.891 227.875C210.891 227.333 210.732 226.917 210.414 226.625C210.096 226.333 209.646 226.188 209.062 226.188C208.479 226.188 208.029 226.333 207.711 226.625C207.393 226.917 207.234 227.333 207.234 227.875C207.234 228.349 207.393 228.721 207.711 228.992C208.029 229.258 208.479 229.391 209.062 229.391ZM209.062 230.172C207.964 230.172 207.109 229.945 206.5 229.492C205.896 229.034 205.594 228.391 205.594 227.562C205.594 226.672 205.896 225.982 206.5 225.492C207.109 224.997 207.964 224.75 209.062 224.75C210.167 224.75 211.021 224.997 211.625 225.492C212.229 225.982 212.531 226.672 212.531 227.562C212.531 228.391 212.229 229.034 211.625 229.492C211.021 229.945 210.167 230.172 209.062 230.172ZM227.172 236.156C226.547 236.156 226.01 236.138 225.562 236.102C225.12 236.065 224.714 236.005 224.344 235.922L224.531 234.422C225.078 234.505 225.56 234.568 225.977 234.609C226.398 234.651 226.797 234.672 227.172 234.672C228.01 234.672 228.617 234.591 228.992 234.43C229.372 234.263 229.562 234 229.562 233.641C229.562 233.391 229.495 233.206 229.359 233.086C229.229 232.961 229.026 232.865 228.75 232.797L226.844 232.312C226.026 232.104 225.424 231.846 225.039 231.539C224.659 231.232 224.469 230.766 224.469 230.141C224.469 229.234 224.815 228.578 225.508 228.172C226.206 227.766 227.328 227.562 228.875 227.562C229.276 227.562 229.648 227.576 229.992 227.602C230.341 227.622 230.698 227.661 231.062 227.719L230.891 229.156C230.469 229.115 230.096 229.086 229.773 229.07C229.451 229.055 229.135 229.047 228.828 229.047C227.901 229.047 227.229 229.128 226.812 229.289C226.396 229.445 226.188 229.703 226.188 230.062C226.188 230.302 226.273 230.477 226.445 230.586C226.617 230.69 226.88 230.786 227.234 230.875L228.766 231.25C229.635 231.458 230.271 231.737 230.672 232.086C231.078 232.435 231.281 232.943 231.281 233.609C231.281 234.5 230.956 235.148 230.305 235.555C229.654 235.956 228.609 236.156 227.172 236.156ZM238.688 236.156C237.432 236.156 236.523 235.896 235.961 235.375C235.404 234.854 235.125 234.021 235.125 232.875V231.469H236.781V232.797C236.781 233.453 236.94 233.93 237.258 234.227C237.581 234.523 238.109 234.672 238.844 234.672C239.104 234.672 239.38 234.659 239.672 234.633C239.964 234.602 240.297 234.562 240.672 234.516L240.859 235.969C240.495 236.031 240.138 236.078 239.789 236.109C239.445 236.141 239.078 236.156 238.688 236.156ZM235.125 232.094V225.219H236.781V232.094H235.125ZM233.047 229.078V227.719H240.547V229.078H233.047ZM246 232.438L245.516 229.844H246.156C246.25 228.323 247.01 227.562 248.438 227.562C249.292 227.562 249.911 227.807 250.297 228.297C250.682 228.786 250.875 229.578 250.875 230.672H249.234C249.234 230.068 249.143 229.633 248.961 229.367C248.784 229.102 248.495 228.969 248.094 228.969C247.391 228.969 246.865 229.271 246.516 229.875C246.172 230.474 246 231.328 246 232.438ZM242.5 236V234.641H248.031V236H242.5ZM244.344 236V227.719H245.688L246 230.094V236H244.344ZM242.812 229.078V227.719H245.578L245.734 229.078H242.812ZM255.656 236V228.188H257.312V236H255.656ZM252.5 236V234.641H255.812V236H252.5ZM257.156 236V234.641H259.859V236H257.156ZM252.969 229.078V227.719H257.312V229.078H252.969ZM256.43 226.406C256.112 226.406 255.839 226.294 255.609 226.07C255.385 225.841 255.273 225.568 255.273 225.25C255.273 224.927 255.385 224.654 255.609 224.43C255.839 224.206 256.112 224.094 256.43 224.094C256.753 224.094 257.026 224.206 257.25 224.43C257.474 224.654 257.586 224.927 257.586 225.25C257.586 225.568 257.474 225.841 257.25 226.07C257.026 226.294 256.753 226.406 256.43 226.406ZM267.031 236V230.609C267.031 230.109 266.901 229.724 266.641 229.453C266.38 229.182 266.016 229.047 265.547 229.047C264.245 229.047 263.594 229.812 263.594 231.344L263.109 229.219H263.75C263.797 228.661 264 228.247 264.359 227.977C264.719 227.701 265.245 227.562 265.938 227.562C266.812 227.562 267.49 227.828 267.969 228.359C268.448 228.891 268.688 229.641 268.688 230.609V236H267.031ZM261.938 236V227.719H263.438L263.594 229.469V236H261.938ZM271.422 239.734L271.344 238.219L274 238.141C274.839 238.115 275.448 237.883 275.828 237.445C276.208 237.008 276.401 236.365 276.406 235.516V229.469L276.562 227.719H278.062V235.266C278.062 236.74 277.727 237.828 277.055 238.531C276.383 239.234 275.312 239.609 273.844 239.656L271.422 239.734ZM274.055 236.156C272.971 236.156 272.148 235.799 271.586 235.086C271.029 234.372 270.75 233.323 270.75 231.938C270.75 230.5 271.029 229.411 271.586 228.672C272.148 227.932 272.971 227.562 274.055 227.562C274.701 227.562 275.224 227.708 275.625 228C276.026 228.292 276.26 228.698 276.328 229.219H276.969L276.406 231.578C276.406 230.724 276.237 230.076 275.898 229.633C275.565 229.19 275.073 228.969 274.422 228.969C273.755 228.969 273.25 229.219 272.906 229.719C272.562 230.219 272.391 230.958 272.391 231.938C272.391 232.865 272.562 233.565 272.906 234.039C273.25 234.513 273.755 234.75 274.422 234.75C275.073 234.75 275.565 234.529 275.898 234.086C276.237 233.643 276.406 232.995 276.406 232.141L276.969 234.5H276.25C276.198 235.021 275.977 235.427 275.586 235.719C275.201 236.01 274.69 236.156 274.055 236.156ZM294.234 236.156C292.823 236.156 291.732 235.786 290.961 235.047C290.195 234.302 289.812 233.234 289.812 231.844C289.812 230.49 290.138 229.438 290.789 228.688C291.44 227.938 292.359 227.562 293.547 227.562C294.667 227.562 295.531 227.901 296.141 228.578C296.755 229.255 297.062 230.24 297.062 231.531C297.062 231.911 297.047 232.266 297.016 232.594H291.203V231.328H295.562C295.562 230.583 295.385 230.013 295.031 229.617C294.677 229.216 294.188 229.016 293.562 229.016C292.859 229.016 292.312 229.255 291.922 229.734C291.536 230.214 291.344 230.891 291.344 231.766C291.344 232.724 291.609 233.453 292.141 233.953C292.677 234.453 293.438 234.703 294.422 234.703C294.766 234.703 295.104 234.685 295.438 234.648C295.771 234.607 296.109 234.552 296.453 234.484L296.656 235.938C296.167 236.031 295.719 236.091 295.312 236.117C294.906 236.143 294.547 236.156 294.234 236.156ZM304.531 236V230.609C304.531 230.109 304.401 229.724 304.141 229.453C303.88 229.182 303.516 229.047 303.047 229.047C301.745 229.047 301.094 229.812 301.094 231.344L300.609 229.219H301.25C301.297 228.661 301.5 228.247 301.859 227.977C302.219 227.701 302.745 227.562 303.438 227.562C304.312 227.562 304.99 227.828 305.469 228.359C305.948 228.891 306.188 229.641 306.188 230.609V236H304.531ZM299.438 236V227.719H300.938L301.094 229.469V236H299.438ZM311.555 236.156C310.471 236.156 309.648 235.799 309.086 235.086C308.529 234.372 308.25 233.323 308.25 231.938C308.25 230.5 308.529 229.411 309.086 228.672C309.648 227.932 310.471 227.562 311.555 227.562C312.174 227.562 312.677 227.708 313.062 228C313.453 228.292 313.682 228.698 313.75 229.219H314.391L313.906 231.578C313.906 230.724 313.737 230.076 313.398 229.633C313.065 229.19 312.573 228.969 311.922 228.969C311.255 228.969 310.75 229.219 310.406 229.719C310.062 230.219 309.891 230.958 309.891 231.938C309.891 232.865 310.062 233.565 310.406 234.039C310.75 234.513 311.255 234.75 311.922 234.75C312.573 234.75 313.065 234.529 313.398 234.086C313.737 233.643 313.906 232.995 313.906 232.141L314.469 234.5H313.75C313.698 235.021 313.477 235.427 313.086 235.719C312.701 236.01 312.19 236.156 311.555 236.156ZM314.078 236.078L313.906 234.453V224.281H315.562V236L314.078 236.078ZM321.281 236V228.188H322.938V236H321.281ZM318.125 236V234.641H321.438V236H318.125ZM322.781 236V234.641H325.484V236H322.781ZM318.594 229.078V227.719H322.938V229.078H318.594ZM322.055 226.406C321.737 226.406 321.464 226.294 321.234 226.07C321.01 225.841 320.898 225.568 320.898 225.25C320.898 224.927 321.01 224.654 321.234 224.43C321.464 224.206 321.737 224.094 322.055 224.094C322.378 224.094 322.651 224.206 322.875 224.43C323.099 224.654 323.211 224.927 323.211 225.25C323.211 225.568 323.099 225.841 322.875 226.07C322.651 226.294 322.378 226.406 322.055 226.406ZM332.656 236V230.609C332.656 230.109 332.526 229.724 332.266 229.453C332.005 229.182 331.641 229.047 331.172 229.047C329.87 229.047 329.219 229.812 329.219 231.344L328.734 229.219H329.375C329.422 228.661 329.625 228.247 329.984 227.977C330.344 227.701 330.87 227.562 331.562 227.562C332.438 227.562 333.115 227.828 333.594 228.359C334.073 228.891 334.312 229.641 334.312 230.609V236H332.656ZM327.562 236V227.719H329.062L329.219 229.469V236H327.562ZM337.047 239.734L336.969 238.219L339.625 238.141C340.464 238.115 341.073 237.883 341.453 237.445C341.833 237.008 342.026 236.365 342.031 235.516V229.469L342.188 227.719H343.688V235.266C343.688 236.74 343.352 237.828 342.68 238.531C342.008 239.234 340.938 239.609 339.469 239.656L337.047 239.734ZM339.68 236.156C338.596 236.156 337.773 235.799 337.211 235.086C336.654 234.372 336.375 233.323 336.375 231.938C336.375 230.5 336.654 229.411 337.211 228.672C337.773 227.932 338.596 227.562 339.68 227.562C340.326 227.562 340.849 227.708 341.25 228C341.651 228.292 341.885 228.698 341.953 229.219H342.594L342.031 231.578C342.031 230.724 341.862 230.076 341.523 229.633C341.19 229.19 340.698 228.969 340.047 228.969C339.38 228.969 338.875 229.219 338.531 229.719C338.188 230.219 338.016 230.958 338.016 231.938C338.016 232.865 338.188 233.565 338.531 234.039C338.875 234.513 339.38 234.75 340.047 234.75C340.698 234.75 341.19 234.529 341.523 234.086C341.862 233.643 342.031 232.995 342.031 232.141L342.594 234.5H341.875C341.823 235.021 341.602 235.427 341.211 235.719C340.826 236.01 340.315 236.156 339.68 236.156ZM360 236L359.031 229.422H358.906L358.227 227.719H359.742L360.719 234.75H360.859L361.562 227.719H363.203L362.031 236H360ZM355.859 236L354.922 227.719H356.484L357.109 234.75H357.25L358.227 227.719H359.742L359.047 229.422H358.938L357.969 236H355.859ZM368.156 236V228.188H369.812V236H368.156ZM365 236V234.641H368.312V236H365ZM369.656 236V234.641H372.359V236H369.656ZM365.469 229.078V227.719H369.812V229.078H365.469ZM368.93 226.406C368.612 226.406 368.339 226.294 368.109 226.07C367.885 225.841 367.773 225.568 367.773 225.25C367.773 224.927 367.885 224.654 368.109 224.43C368.339 224.206 368.612 224.094 368.93 224.094C369.253 224.094 369.526 224.206 369.75 224.43C369.974 224.654 370.086 224.927 370.086 225.25C370.086 225.568 369.974 225.841 369.75 226.07C369.526 226.294 369.253 226.406 368.93 226.406ZM379.312 236.156C378.057 236.156 377.148 235.896 376.586 235.375C376.029 234.854 375.75 234.021 375.75 232.875V231.469H377.406V232.797C377.406 233.453 377.565 233.93 377.883 234.227C378.206 234.523 378.734 234.672 379.469 234.672C379.729 234.672 380.005 234.659 380.297 234.633C380.589 234.602 380.922 234.562 381.297 234.516L381.484 235.969C381.12 236.031 380.763 236.078 380.414 236.109C380.07 236.141 379.703 236.156 379.312 236.156ZM375.75 232.094V225.219H377.406V232.094H375.75ZM373.672 229.078V227.719H381.172V229.078H373.672ZM388.906 236V230.609C388.906 230.083 388.776 229.68 388.516 229.398C388.255 229.112 387.891 228.969 387.422 228.969C386.12 228.969 385.469 229.76 385.469 231.344L384.984 229.219H385.625C385.672 228.661 385.875 228.247 386.234 227.977C386.594 227.701 387.12 227.562 387.812 227.562C388.688 227.562 389.365 227.828 389.844 228.359C390.323 228.891 390.562 229.641 390.562 230.609V236H388.906ZM383.812 236V224.281H385.469V236H383.812ZM408.078 237.484L401.797 223.422H403.453L409.734 237.484H408.078ZM415.312 236.156C412.792 236.156 411.531 234.281 411.531 230.531C411.531 226.677 412.792 224.75 415.312 224.75C417.833 224.75 419.094 226.677 419.094 230.531C419.094 234.281 417.833 236.156 415.312 236.156ZM415.312 231.703C414.964 231.703 414.68 231.596 414.461 231.383C414.247 231.164 414.141 230.88 414.141 230.531C414.141 230.177 414.247 229.893 414.461 229.68C414.68 229.466 414.964 229.359 415.312 229.359C415.667 229.359 415.951 229.466 416.164 229.68C416.378 229.893 416.484 230.177 416.484 230.531C416.484 230.88 416.378 231.164 416.164 231.383C415.951 231.596 415.667 231.703 415.312 231.703ZM415.312 234.719C416.719 234.719 417.422 233.323 417.422 230.531C417.422 227.635 416.719 226.188 415.312 226.188C413.906 226.188 413.203 227.635 413.203 230.531C413.203 233.323 413.906 234.719 415.312 234.719Z" fill="#E1E1FF"/>
<rect x="96" y="276" width="512" height="96" rx="8" fill="#242638"/>
<path d="M133.5 306.375V300.96C133.5 300.43 133.07 300 132.54 300H124.125C123.502 300 123 300.502 123 301.125V322.875C123 323.498 123.502 324 124.125 324H139.875C140.498 324 141 323.498 141 322.875V308.46C141 307.93 140.57 307.5 140.04 307.5H134.625C134.006 307.5 133.5 306.994 133.5 306.375ZM141 305.714C141 305.872 140.872 306 140.714 306H135.96C135.43 306 135 305.57 135 305.04V300.286C135 300.128 135.128 300 135.286 300C135.586 300 135.872 300.117 136.083 300.328L140.672 304.922C140.883 305.133 141 305.419 141 305.714Z" fill="#E1E1FF"/>
<path d="M160.931 319.5L156.859 308.113H159.287L162.349 317.566H162.542L165.604 308.113H168.031L163.96 319.5H160.931ZM177.678 319.607L177.527 316.234L177.227 315.289V312.346C177.227 311.587 176.958 311.032 176.421 310.681C175.891 310.323 175.1 310.129 174.047 310.101L171.318 310.025L171.533 308.006L173.832 308.038C175.715 308.067 177.112 308.475 178.021 309.263C178.938 310.043 179.396 311.186 179.396 312.689V317.438L181.33 317.674V319.5L177.678 319.607ZM173.66 319.715C172.471 319.715 171.551 319.428 170.899 318.855C170.248 318.283 169.922 317.473 169.922 316.428C169.922 315.225 170.369 314.301 171.265 313.656C172.167 313.012 173.438 312.689 175.078 312.689C175.758 312.689 176.364 312.732 176.894 312.818C177.431 312.897 177.907 313.019 178.322 313.184L177.85 314.73C177.37 314.623 176.901 314.562 176.442 314.548C175.984 314.526 175.515 314.516 175.035 314.516C173.059 314.516 172.07 315.117 172.07 316.32C172.07 316.822 172.239 317.208 172.575 317.48C172.919 317.753 173.402 317.889 174.025 317.889C174.734 317.889 175.325 317.767 175.798 317.523C176.278 317.28 176.636 316.968 176.872 316.589C177.108 316.209 177.227 315.819 177.227 315.418V314.172L177.893 317.094H176.99L177.355 316.75C177.355 317.409 177.201 317.96 176.894 318.404C176.593 318.841 176.167 319.171 175.615 319.393C175.064 319.607 174.412 319.715 173.66 319.715ZM189.924 319.715C188.606 319.715 187.654 319.357 187.066 318.641C186.479 317.924 186.186 316.779 186.186 315.203V303.387H188.463V315.096C188.463 315.697 188.52 316.188 188.635 316.567C188.749 316.947 188.971 317.226 189.301 317.405C189.637 317.584 190.132 317.674 190.783 317.674C191.378 317.674 192.137 317.538 193.061 317.266L193.318 319.264C192.738 319.421 192.18 319.536 191.643 319.607C191.113 319.679 190.54 319.715 189.924 319.715ZM182.834 305.385V303.387H186.379V305.385H182.834ZM200 319.715C198.804 319.715 197.877 319.36 197.218 318.651C196.566 317.935 196.24 316.929 196.24 315.633V308.113H198.518V315.633C198.518 316.285 198.704 316.789 199.076 317.147C199.449 317.498 199.971 317.674 200.645 317.674C201.475 317.674 202.102 317.412 202.524 316.89C202.947 316.36 203.158 315.475 203.158 314.236L203.738 317.309H202.986C202.807 318.082 202.456 318.676 201.934 319.092C201.411 319.507 200.766 319.715 200 319.715ZM203.352 319.607L203.158 316.879V314.881H205.436V317.438L207.004 317.674V319.5L203.352 319.607ZM203.158 316.277V308.113H205.436V315.633L203.158 316.277ZM214.996 319.715C213.055 319.715 211.555 319.206 210.495 318.189C209.442 317.165 208.916 315.697 208.916 313.785C208.916 311.923 209.364 310.477 210.259 309.445C211.154 308.414 212.418 307.898 214.051 307.898C215.59 307.898 216.779 308.364 217.617 309.295C218.462 310.226 218.885 311.579 218.885 313.355C218.885 313.878 218.863 314.365 218.82 314.816H210.828V313.076H216.822C216.822 312.052 216.579 311.268 216.092 310.724C215.605 310.172 214.932 309.896 214.072 309.896C213.105 309.896 212.354 310.226 211.816 310.885C211.286 311.544 211.021 312.475 211.021 313.678C211.021 314.995 211.387 315.998 212.117 316.686C212.855 317.373 213.9 317.717 215.254 317.717C215.727 317.717 216.192 317.692 216.65 317.642C217.109 317.584 217.574 317.509 218.047 317.416L218.326 319.414C217.653 319.543 217.037 319.625 216.479 319.661C215.92 319.697 215.426 319.715 214.996 319.715Z" fill="#E1E1FF"/>
<path d="M500.767 319.5L497.265 307.705H496.169V304.246H498.124L501.626 316.041H502.271V319.5H500.767ZM494.482 319.5V304.246H496.942V319.5H494.482ZM501.948 319.5V304.246H504.408V319.5H501.948ZM523.4 319.715C522.935 319.715 522.473 319.693 522.015 319.65C521.556 319.615 521.091 319.564 520.618 319.5L521.424 317.803C521.775 317.939 522.161 318.021 522.584 318.05C523.014 318.078 523.436 318.093 523.852 318.093C525.384 318.093 526.566 317.656 527.396 316.782C528.234 315.901 528.653 314.659 528.653 313.055C528.653 311.923 528.399 311.053 527.891 310.444C527.382 309.828 526.655 309.521 525.71 309.521C523.54 309.521 522.455 310.713 522.455 313.098L521.789 310.176H522.638C522.881 308.658 523.941 307.898 525.817 307.898C527.307 307.898 528.46 308.346 529.276 309.241C530.093 310.136 530.501 311.408 530.501 313.055C530.501 315.167 529.882 316.807 528.643 317.975C527.404 319.135 525.656 319.715 523.4 319.715ZM520.618 319.5V303.387H522.455V319.307L520.618 319.5ZM532.563 324.656L532.478 322.97L533.906 322.787C534.637 322.68 535.274 322.454 535.818 322.11C536.363 321.774 536.846 321.269 537.269 320.596C537.691 319.923 538.078 319.042 538.429 317.953L541.608 308.113H543.563L539.965 318.49C539.492 319.851 538.987 320.95 538.45 321.788C537.913 322.626 537.297 323.253 536.603 323.668C535.915 324.083 535.102 324.348 534.164 324.463L532.563 324.656ZM537.032 319.5L532.349 308.113H534.304L538.268 318.028H538.579L538.558 319.5H537.032ZM553.07 319.715C551.473 319.715 550.306 319.35 549.568 318.619C548.838 317.882 548.473 316.732 548.473 315.171V313.27H550.32V315.096C550.32 316.098 550.557 316.84 551.029 317.319C551.502 317.792 552.254 318.028 553.285 318.028C553.672 318.028 554.062 318.01 554.456 317.975C554.857 317.932 555.29 317.874 555.756 317.803L555.971 319.457C555.484 319.543 555.007 319.607 554.542 319.65C554.084 319.693 553.593 319.715 553.07 319.715ZM548.473 314.129V304.676H550.32V314.129H548.473ZM545.4 309.682V308.113H555.541V309.682H545.4ZM564.994 319.715C563.082 319.715 561.603 319.199 560.558 318.168C559.519 317.13 559 315.654 559 313.742C559 311.887 559.44 310.451 560.321 309.435C561.202 308.41 562.445 307.898 564.049 307.898C565.56 307.898 566.727 308.36 567.551 309.284C568.382 310.208 568.797 311.536 568.797 313.27C568.797 313.749 568.775 314.179 568.732 314.559H560.536V313.076H567.078C567.078 311.952 566.813 311.085 566.283 310.477C565.753 309.868 565.016 309.563 564.07 309.563C563.018 309.563 562.201 309.922 561.621 310.638C561.041 311.354 560.751 312.367 560.751 313.678C560.751 315.089 561.141 316.17 561.922 316.922C562.71 317.674 563.82 318.05 565.252 318.05C565.703 318.05 566.158 318.025 566.616 317.975C567.082 317.917 567.544 317.842 568.002 317.749L568.238 319.414C567.651 319.529 567.082 319.607 566.53 319.65C565.979 319.693 565.467 319.715 564.994 319.715ZM575.908 319.715C575.063 319.715 574.34 319.69 573.738 319.64C573.137 319.59 572.592 319.507 572.105 319.393L572.32 317.674C573.065 317.796 573.72 317.885 574.286 317.942C574.859 318 575.4 318.028 575.908 318.028C577.183 318.028 578.107 317.899 578.68 317.642C579.26 317.377 579.55 316.958 579.55 316.385C579.55 315.984 579.432 315.672 579.195 315.45C578.959 315.221 578.587 315.042 578.078 314.913L575.489 314.258C574.372 313.979 573.556 313.617 573.04 313.173C572.532 312.729 572.277 312.102 572.277 311.293C572.277 310.097 572.746 309.234 573.685 308.704C574.63 308.167 576.152 307.898 578.25 307.898C578.773 307.898 579.26 307.916 579.711 307.952C580.169 307.981 580.656 308.035 581.172 308.113L580.979 309.735C580.391 309.678 579.879 309.639 579.442 309.617C579.006 309.596 578.587 309.585 578.186 309.585C576.782 309.585 575.765 309.714 575.135 309.972C574.512 310.229 574.2 310.648 574.2 311.229C574.2 311.594 574.343 311.88 574.63 312.088C574.924 312.296 575.382 312.478 576.005 312.636L578.078 313.141C579.267 313.42 580.13 313.807 580.667 314.301C581.204 314.795 581.473 315.479 581.473 316.353C581.473 317.534 581.032 318.39 580.151 318.92C579.271 319.45 577.856 319.715 575.908 319.715Z" fill="#E1E1FF"/>
<path opacity="0.75" d="M123.477 348L120.352 336.906H122.023L124.617 346.672H124.758L127.352 336.906H129.023L125.898 348H123.477ZM135.766 348.078L135.656 345.625L135.438 344.938V342.797C135.438 342.245 135.242 341.841 134.852 341.586C134.466 341.326 133.891 341.185 133.125 341.164L131.141 341.109L131.297 339.641L132.969 339.664C134.339 339.685 135.354 339.982 136.016 340.555C136.682 341.122 137.016 341.953 137.016 343.047V346.5L138.422 346.672V348L135.766 348.078ZM132.844 348.156C131.979 348.156 131.31 347.948 130.836 347.531C130.362 347.115 130.125 346.526 130.125 345.766C130.125 344.891 130.451 344.219 131.102 343.75C131.758 343.281 132.682 343.047 133.875 343.047C134.37 343.047 134.81 343.078 135.195 343.141C135.586 343.198 135.932 343.286 136.234 343.406L135.891 344.531C135.542 344.453 135.201 344.409 134.867 344.398C134.534 344.383 134.193 344.375 133.844 344.375C132.406 344.375 131.688 344.812 131.688 345.688C131.688 346.052 131.81 346.333 132.055 346.531C132.305 346.729 132.656 346.828 133.109 346.828C133.625 346.828 134.055 346.74 134.398 346.562C134.747 346.385 135.008 346.159 135.18 345.883C135.352 345.607 135.438 345.323 135.438 345.031V344.125L135.922 346.25H135.266L135.531 346C135.531 346.479 135.419 346.88 135.195 347.203C134.977 347.521 134.667 347.76 134.266 347.922C133.865 348.078 133.391 348.156 132.844 348.156ZM144.672 348.156C143.714 348.156 143.021 347.896 142.594 347.375C142.167 346.854 141.953 346.021 141.953 344.875V336.281H143.609V344.797C143.609 345.234 143.651 345.591 143.734 345.867C143.818 346.143 143.979 346.346 144.219 346.477C144.464 346.607 144.823 346.672 145.297 346.672C145.729 346.672 146.281 346.573 146.953 346.375L147.141 347.828C146.719 347.943 146.312 348.026 145.922 348.078C145.536 348.13 145.12 348.156 144.672 348.156ZM139.516 337.641V336.281H142.094V337.641H139.516ZM152 348.156C151.13 348.156 150.456 347.898 149.977 347.383C149.503 346.862 149.266 346.13 149.266 345.188V339.719H150.922V345.188C150.922 345.661 151.057 346.029 151.328 346.289C151.599 346.544 151.979 346.672 152.469 346.672C153.073 346.672 153.529 346.482 153.836 346.102C154.143 345.716 154.297 345.073 154.297 344.172L154.719 346.406H154.172C154.042 346.969 153.786 347.401 153.406 347.703C153.026 348.005 152.557 348.156 152 348.156ZM154.438 348.078L154.297 346.094V344.641H155.953V346.5L157.094 346.672V348L154.438 348.078ZM154.297 345.656V339.719H155.953V345.188L154.297 345.656ZM162.984 348.156C161.573 348.156 160.482 347.786 159.711 347.047C158.945 346.302 158.562 345.234 158.562 343.844C158.562 342.49 158.888 341.438 159.539 340.688C160.19 339.938 161.109 339.562 162.297 339.562C163.417 339.562 164.281 339.901 164.891 340.578C165.505 341.255 165.812 342.24 165.812 343.531C165.812 343.911 165.797 344.266 165.766 344.594H159.953V343.328H164.312C164.312 342.583 164.135 342.013 163.781 341.617C163.427 341.216 162.938 341.016 162.312 341.016C161.609 341.016 161.062 341.255 160.672 341.734C160.286 342.214 160.094 342.891 160.094 343.766C160.094 344.724 160.359 345.453 160.891 345.953C161.427 346.453 162.188 346.703 163.172 346.703C163.516 346.703 163.854 346.685 164.188 346.648C164.521 346.607 164.859 346.552 165.203 346.484L165.406 347.938C164.917 348.031 164.469 348.091 164.062 348.117C163.656 348.143 163.297 348.156 162.984 348.156ZM171.562 341.875C171.245 341.875 170.971 341.763 170.742 341.539C170.518 341.31 170.406 341.036 170.406 340.719C170.406 340.396 170.518 340.122 170.742 339.898C170.971 339.674 171.245 339.562 171.562 339.562C171.885 339.562 172.159 339.674 172.383 339.898C172.607 340.122 172.719 340.396 172.719 340.719C172.719 341.036 172.607 341.31 172.383 341.539C172.159 341.763 171.885 341.875 171.562 341.875ZM170.094 351.406L170.719 346.016H172.531L171.594 351.406H170.094ZM190.281 348.156C187.906 348.156 186.719 346.917 186.719 344.438V336.906H188.281V344.438C188.281 345.177 188.443 345.734 188.766 346.109C189.094 346.484 189.609 346.672 190.312 346.672C191.667 346.672 192.344 345.927 192.344 344.438V336.906H193.906V344.438C193.906 345.677 193.599 346.607 192.984 347.227C192.37 347.846 191.469 348.156 190.281 348.156ZM198.906 348V336.906H200.469V348H198.906ZM195.625 338.391V336.906H203.75V338.391H195.625ZM205.781 348V336.906H207.344V348H205.781ZM205.781 343.656V342.172H211.719V343.656H205.781ZM205.781 338.391V336.906H213.125V338.391H205.781ZM214.531 343.188V341.734H222.344V343.188H214.531ZM227.812 348.156C226.609 348.156 225.677 347.878 225.016 347.32C224.359 346.758 224.031 345.969 224.031 344.953C224.031 344.021 224.359 343.302 225.016 342.797C225.677 342.286 226.609 342.031 227.812 342.031C229.016 342.031 229.945 342.286 230.602 342.797C231.263 343.302 231.594 344.021 231.594 344.953C231.594 345.969 231.263 346.758 230.602 347.32C229.945 347.878 229.016 348.156 227.812 348.156ZM227.812 346.719C228.495 346.719 229.021 346.557 229.391 346.234C229.766 345.911 229.953 345.458 229.953 344.875C229.953 344.25 229.766 343.763 229.391 343.414C229.021 343.065 228.495 342.891 227.812 342.891C227.13 342.891 226.602 343.065 226.227 343.414C225.857 343.763 225.672 344.25 225.672 344.875C225.672 345.458 225.857 345.911 226.227 346.234C226.602 346.557 227.13 346.719 227.812 346.719ZM226.516 342.484V341.688H229.125V342.484H226.516ZM227.812 341.391C228.396 341.391 228.846 341.258 229.164 340.992C229.482 340.721 229.641 340.349 229.641 339.875C229.641 339.333 229.482 338.917 229.164 338.625C228.846 338.333 228.396 338.188 227.812 338.188C227.229 338.188 226.779 338.333 226.461 338.625C226.143 338.917 225.984 339.333 225.984 339.875C225.984 340.349 226.143 340.721 226.461 340.992C226.779 341.258 227.229 341.391 227.812 341.391ZM227.812 342.172C226.714 342.172 225.859 341.945 225.25 341.492C224.646 341.034 224.344 340.391 224.344 339.562C224.344 338.672 224.646 337.982 225.25 337.492C225.859 336.997 226.714 336.75 227.812 336.75C228.917 336.75 229.771 336.997 230.375 337.492C230.979 337.982 231.281 338.672 231.281 339.562C231.281 340.391 230.979 341.034 230.375 341.492C229.771 341.945 228.917 342.172 227.812 342.172ZM245.922 348.156C245.297 348.156 244.76 348.138 244.312 348.102C243.87 348.065 243.464 348.005 243.094 347.922L243.281 346.422C243.828 346.505 244.31 346.568 244.727 346.609C245.148 346.651 245.547 346.672 245.922 346.672C246.76 346.672 247.367 346.591 247.742 346.43C248.122 346.263 248.312 346 248.312 345.641C248.312 345.391 248.245 345.206 248.109 345.086C247.979 344.961 247.776 344.865 247.5 344.797L245.594 344.312C244.776 344.104 244.174 343.846 243.789 343.539C243.409 343.232 243.219 342.766 243.219 342.141C243.219 341.234 243.565 340.578 244.258 340.172C244.956 339.766 246.078 339.562 247.625 339.562C248.026 339.562 248.398 339.576 248.742 339.602C249.091 339.622 249.448 339.661 249.812 339.719L249.641 341.156C249.219 341.115 248.846 341.086 248.523 341.07C248.201 341.055 247.885 341.047 247.578 341.047C246.651 341.047 245.979 341.128 245.562 341.289C245.146 341.445 244.938 341.703 244.938 342.062C244.938 342.302 245.023 342.477 245.195 342.586C245.367 342.69 245.63 342.786 245.984 342.875L247.516 343.25C248.385 343.458 249.021 343.737 249.422 344.086C249.828 344.435 250.031 344.943 250.031 345.609C250.031 346.5 249.706 347.148 249.055 347.555C248.404 347.956 247.359 348.156 245.922 348.156ZM257.438 348.156C256.182 348.156 255.273 347.896 254.711 347.375C254.154 346.854 253.875 346.021 253.875 344.875V343.469H255.531V344.797C255.531 345.453 255.69 345.93 256.008 346.227C256.331 346.523 256.859 346.672 257.594 346.672C257.854 346.672 258.13 346.659 258.422 346.633C258.714 346.602 259.047 346.562 259.422 346.516L259.609 347.969C259.245 348.031 258.888 348.078 258.539 348.109C258.195 348.141 257.828 348.156 257.438 348.156ZM253.875 344.094V337.219H255.531V344.094H253.875ZM251.797 341.078V339.719H259.297V341.078H251.797ZM264.75 344.438L264.266 341.844H264.906C265 340.323 265.76 339.562 267.188 339.562C268.042 339.562 268.661 339.807 269.047 340.297C269.432 340.786 269.625 341.578 269.625 342.672H267.984C267.984 342.068 267.893 341.633 267.711 341.367C267.534 341.102 267.245 340.969 266.844 340.969C266.141 340.969 265.615 341.271 265.266 341.875C264.922 342.474 264.75 343.328 264.75 344.438ZM261.25 348V346.641H266.781V348H261.25ZM263.094 348V339.719H264.438L264.75 342.094V348H263.094ZM261.562 341.078V339.719H264.328L264.484 341.078H261.562ZM274.406 348V340.188H276.062V348H274.406ZM271.25 348V346.641H274.562V348H271.25ZM275.906 348V346.641H278.609V348H275.906ZM271.719 341.078V339.719H276.062V341.078H271.719ZM275.18 338.406C274.862 338.406 274.589 338.294 274.359 338.07C274.135 337.841 274.023 337.568 274.023 337.25C274.023 336.927 274.135 336.654 274.359 336.43C274.589 336.206 274.862 336.094 275.18 336.094C275.503 336.094 275.776 336.206 276 336.43C276.224 336.654 276.336 336.927 276.336 337.25C276.336 337.568 276.224 337.841 276 338.07C275.776 338.294 275.503 338.406 275.18 338.406ZM285.781 348V342.609C285.781 342.109 285.651 341.724 285.391 341.453C285.13 341.182 284.766 341.047 284.297 341.047C282.995 341.047 282.344 341.812 282.344 343.344L281.859 341.219H282.5C282.547 340.661 282.75 340.247 283.109 339.977C283.469 339.701 283.995 339.562 284.688 339.562C285.562 339.562 286.24 339.828 286.719 340.359C287.198 340.891 287.438 341.641 287.438 342.609V348H285.781ZM280.688 348V339.719H282.188L282.344 341.469V348H280.688ZM290.172 351.734L290.094 350.219L292.75 350.141C293.589 350.115 294.198 349.883 294.578 349.445C294.958 349.008 295.151 348.365 295.156 347.516V341.469L295.312 339.719H296.812V347.266C296.812 348.74 296.477 349.828 295.805 350.531C295.133 351.234 294.062 351.609 292.594 351.656L290.172 351.734ZM292.805 348.156C291.721 348.156 290.898 347.799 290.336 347.086C289.779 346.372 289.5 345.323 289.5 343.938C289.5 342.5 289.779 341.411 290.336 340.672C290.898 339.932 291.721 339.562 292.805 339.562C293.451 339.562 293.974 339.708 294.375 340C294.776 340.292 295.01 340.698 295.078 341.219H295.719L295.156 343.578C295.156 342.724 294.987 342.076 294.648 341.633C294.315 341.19 293.823 340.969 293.172 340.969C292.505 340.969 292 341.219 291.656 341.719C291.312 342.219 291.141 342.958 291.141 343.938C291.141 344.865 291.312 345.565 291.656 346.039C292 346.513 292.505 346.75 293.172 346.75C293.823 346.75 294.315 346.529 294.648 346.086C294.987 345.643 295.156 344.995 295.156 344.141L295.719 346.5H295C294.948 347.021 294.727 347.427 294.336 347.719C293.951 348.01 293.44 348.156 292.805 348.156ZM312.984 348.156C311.573 348.156 310.482 347.786 309.711 347.047C308.945 346.302 308.562 345.234 308.562 343.844C308.562 342.49 308.888 341.438 309.539 340.688C310.19 339.938 311.109 339.562 312.297 339.562C313.417 339.562 314.281 339.901 314.891 340.578C315.505 341.255 315.812 342.24 315.812 343.531C315.812 343.911 315.797 344.266 315.766 344.594H309.953V343.328H314.312C314.312 342.583 314.135 342.013 313.781 341.617C313.427 341.216 312.938 341.016 312.312 341.016C311.609 341.016 311.062 341.255 310.672 341.734C310.286 342.214 310.094 342.891 310.094 343.766C310.094 344.724 310.359 345.453 310.891 345.953C311.427 346.453 312.188 346.703 313.172 346.703C313.516 346.703 313.854 346.685 314.188 346.648C314.521 346.607 314.859 346.552 315.203 346.484L315.406 347.938C314.917 348.031 314.469 348.091 314.062 348.117C313.656 348.143 313.297 348.156 312.984 348.156ZM323.281 348V342.609C323.281 342.109 323.151 341.724 322.891 341.453C322.63 341.182 322.266 341.047 321.797 341.047C320.495 341.047 319.844 341.812 319.844 343.344L319.359 341.219H320C320.047 340.661 320.25 340.247 320.609 339.977C320.969 339.701 321.495 339.562 322.188 339.562C323.062 339.562 323.74 339.828 324.219 340.359C324.698 340.891 324.938 341.641 324.938 342.609V348H323.281ZM318.188 348V339.719H319.688L319.844 341.469V348H318.188ZM330.305 348.156C329.221 348.156 328.398 347.799 327.836 347.086C327.279 346.372 327 345.323 327 343.938C327 342.5 327.279 341.411 327.836 340.672C328.398 339.932 329.221 339.562 330.305 339.562C330.924 339.562 331.427 339.708 331.812 340C332.203 340.292 332.432 340.698 332.5 341.219H333.141L332.656 343.578C332.656 342.724 332.487 342.076 332.148 341.633C331.815 341.19 331.323 340.969 330.672 340.969C330.005 340.969 329.5 341.219 329.156 341.719C328.812 342.219 328.641 342.958 328.641 343.938C328.641 344.865 328.812 345.565 329.156 346.039C329.5 346.513 330.005 346.75 330.672 346.75C331.323 346.75 331.815 346.529 332.148 346.086C332.487 345.643 332.656 344.995 332.656 344.141L333.219 346.5H332.5C332.448 347.021 332.227 347.427 331.836 347.719C331.451 348.01 330.94 348.156 330.305 348.156ZM332.828 348.078L332.656 346.453V336.281H334.312V348L332.828 348.078ZM340.031 348V340.188H341.688V348H340.031ZM336.875 348V346.641H340.188V348H336.875ZM341.531 348V346.641H344.234V348H341.531ZM337.344 341.078V339.719H341.688V341.078H337.344ZM340.805 338.406C340.487 338.406 340.214 338.294 339.984 338.07C339.76 337.841 339.648 337.568 339.648 337.25C339.648 336.927 339.76 336.654 339.984 336.43C340.214 336.206 340.487 336.094 340.805 336.094C341.128 336.094 341.401 336.206 341.625 336.43C341.849 336.654 341.961 336.927 341.961 337.25C341.961 337.568 341.849 337.841 341.625 338.07C341.401 338.294 341.128 338.406 340.805 338.406ZM351.406 348V342.609C351.406 342.109 351.276 341.724 351.016 341.453C350.755 341.182 350.391 341.047 349.922 341.047C348.62 341.047 347.969 341.812 347.969 343.344L347.484 341.219H348.125C348.172 340.661 348.375 340.247 348.734 339.977C349.094 339.701 349.62 339.562 350.312 339.562C351.188 339.562 351.865 339.828 352.344 340.359C352.823 340.891 353.062 341.641 353.062 342.609V348H351.406ZM346.312 348V339.719H347.812L347.969 341.469V348H346.312ZM355.797 351.734L355.719 350.219L358.375 350.141C359.214 350.115 359.823 349.883 360.203 349.445C360.583 349.008 360.776 348.365 360.781 347.516V341.469L360.938 339.719H362.438V347.266C362.438 348.74 362.102 349.828 361.43 350.531C360.758 351.234 359.688 351.609 358.219 351.656L355.797 351.734ZM358.43 348.156C357.346 348.156 356.523 347.799 355.961 347.086C355.404 346.372 355.125 345.323 355.125 343.938C355.125 342.5 355.404 341.411 355.961 340.672C356.523 339.932 357.346 339.562 358.43 339.562C359.076 339.562 359.599 339.708 360 340C360.401 340.292 360.635 340.698 360.703 341.219H361.344L360.781 343.578C360.781 342.724 360.612 342.076 360.273 341.633C359.94 341.19 359.448 340.969 358.797 340.969C358.13 340.969 357.625 341.219 357.281 341.719C356.938 342.219 356.766 342.958 356.766 343.938C356.766 344.865 356.938 345.565 357.281 346.039C357.625 346.513 358.13 346.75 358.797 346.75C359.448 346.75 359.94 346.529 360.273 346.086C360.612 345.643 360.781 344.995 360.781 344.141L361.344 346.5H360.625C360.573 347.021 360.352 347.427 359.961 347.719C359.576 348.01 359.065 348.156 358.43 348.156ZM378.75 348L377.781 341.422H377.656L376.977 339.719H378.492L379.469 346.75H379.609L380.312 339.719H381.953L380.781 348H378.75ZM374.609 348L373.672 339.719H375.234L375.859 346.75H376L376.977 339.719H378.492L377.797 341.422H377.688L376.719 348H374.609ZM386.906 348V340.188H388.562V348H386.906ZM383.75 348V346.641H387.062V348H383.75ZM388.406 348V346.641H391.109V348H388.406ZM384.219 341.078V339.719H388.562V341.078H384.219ZM387.68 338.406C387.362 338.406 387.089 338.294 386.859 338.07C386.635 337.841 386.523 337.568 386.523 337.25C386.523 336.927 386.635 336.654 386.859 336.43C387.089 336.206 387.362 336.094 387.68 336.094C388.003 336.094 388.276 336.206 388.5 336.43C388.724 336.654 388.836 336.927 388.836 337.25C388.836 337.568 388.724 337.841 388.5 338.07C388.276 338.294 388.003 338.406 387.68 338.406ZM398.062 348.156C396.807 348.156 395.898 347.896 395.336 347.375C394.779 346.854 394.5 346.021 394.5 344.875V343.469H396.156V344.797C396.156 345.453 396.315 345.93 396.633 346.227C396.956 346.523 397.484 346.672 398.219 346.672C398.479 346.672 398.755 346.659 399.047 346.633C399.339 346.602 399.672 346.562 400.047 346.516L400.234 347.969C399.87 348.031 399.513 348.078 399.164 348.109C398.82 348.141 398.453 348.156 398.062 348.156ZM394.5 344.094V337.219H396.156V344.094H394.5ZM392.422 341.078V339.719H399.922V341.078H392.422ZM407.656 348V342.609C407.656 342.083 407.526 341.68 407.266 341.398C407.005 341.112 406.641 340.969 406.172 340.969C404.87 340.969 404.219 341.76 404.219 343.344L403.734 341.219H404.375C404.422 340.661 404.625 340.247 404.984 339.977C405.344 339.701 405.87 339.562 406.562 339.562C407.438 339.562 408.115 339.828 408.594 340.359C409.073 340.891 409.312 341.641 409.312 342.609V348H407.656ZM402.562 348V336.281H404.219V348H402.562ZM426.828 349.484L420.547 335.422H422.203L428.484 349.484H426.828ZM434.062 348.156C431.542 348.156 430.281 346.281 430.281 342.531C430.281 338.677 431.542 336.75 434.062 336.75C436.583 336.75 437.844 338.677 437.844 342.531C437.844 346.281 436.583 348.156 434.062 348.156ZM434.062 343.703C433.714 343.703 433.43 343.596 433.211 343.383C432.997 343.164 432.891 342.88 432.891 342.531C432.891 342.177 432.997 341.893 433.211 341.68C433.43 341.466 433.714 341.359 434.062 341.359C434.417 341.359 434.701 341.466 434.914 341.68C435.128 341.893 435.234 342.177 435.234 342.531C435.234 342.88 435.128 343.164 434.914 343.383C434.701 343.596 434.417 343.703 434.062 343.703ZM434.062 346.719C435.469 346.719 436.172 345.323 436.172 342.531C436.172 339.635 435.469 338.188 434.062 338.188C432.656 338.188 431.953 339.635 431.953 342.531C431.953 345.323 432.656 346.719 434.062 346.719Z" fill="#E1E1FF"/>
<g opacity="0.5">
<path d="M73.9941 432C73.4402 432 72.9693 431.806 72.5816 431.418C72.1939 431.023 72 430.552 72 430.006C72 429.444 72.1939 428.969 72.5816 428.582C72.9693 428.194 73.4402 428 73.9941 428C74.5559 428 75.0267 428.194 75.4065 428.582C75.7943 428.969 75.9881 429.444 75.9881 430.006C75.9881 430.552 75.7943 431.023 75.4065 431.418C75.0267 431.806 74.5559 432 73.9941 432Z" fill="#E1E1FF"/>
<path d="M88.2374 432C87.6835 432 87.2127 431.806 86.8249 431.418C86.4372 431.023 86.2433 430.552 86.2433 430.006C86.2433 429.444 86.4372 428.969 86.8249 428.582C87.2127 428.194 87.6835 428 88.2374 428C88.7992 428 89.27 428.194 89.6499 428.582C90.0376 428.969 90.2315 429.444 90.2315 430.006C90.2315 430.552 90.0376 431.023 89.6499 431.418C89.27 431.806 88.7992 432 88.2374 432Z" fill="#E1E1FF"/>
<path d="M102.481 432C101.927 432 101.456 431.806 101.068 431.418C100.681 431.023 100.487 430.552 100.487 430.006C100.487 429.444 100.681 428.969 101.068 428.582C101.456 428.194 101.927 428 102.481 428C103.043 428 103.513 428.194 103.893 428.582C104.281 428.969 104.475 429.444 104.475 430.006C104.475 430.552 104.281 431.023 103.893 431.418C103.513 431.806 103.043 432 102.481 432Z" fill="#E1E1FF"/>
</g>
</svg>
