<svg width="608" height="379" viewBox="0 0 608 379" fill="none" xmlns="http://www.w3.org/2000/svg">
<rect width="608" height="379" rx="16" fill="#181925"/>
<path d="M53.0586 62.1953C52.2708 62.1953 51.584 62.1693 50.998 62.1172C50.4121 62.0716 49.888 62 49.4258 61.9023L49.709 59.6367C50.4707 59.7409 51.125 59.819 51.6719 59.8711C52.2188 59.9232 52.681 59.9492 53.0586 59.9492C54.0091 59.9492 54.696 59.8711 55.1191 59.7148C55.5488 59.5586 55.7637 59.3112 55.7637 58.9727C55.7637 58.7578 55.7018 58.5918 55.5781 58.4746C55.4544 58.3574 55.2591 58.263 54.9922 58.1914L52.0137 57.3613C51.1934 57.1335 50.5814 56.821 50.1777 56.4238C49.7806 56.0202 49.582 55.4538 49.582 54.7246C49.582 53.6048 50.0345 52.7812 50.9395 52.2539C51.8509 51.7201 53.2669 51.4531 55.1875 51.4531C55.6562 51.4531 56.1185 51.4694 56.5742 51.502C57.0365 51.5345 57.5182 51.5833 58.0195 51.6484L57.7656 53.8359C57.1992 53.7839 56.7012 53.748 56.2715 53.7285C55.8483 53.709 55.4674 53.6992 55.1289 53.6992C54.0547 53.6992 53.2734 53.7741 52.7852 53.9238C52.3034 54.0736 52.0625 54.3145 52.0625 54.6465C52.0625 54.8678 52.1341 55.0306 52.2773 55.1348C52.4206 55.2389 52.6419 55.3301 52.9414 55.4082L55.4414 56.082C56.4115 56.3294 57.1276 56.6777 57.5898 57.127C58.0586 57.5762 58.293 58.1882 58.293 58.9629C58.293 60.0697 57.8665 60.8867 57.0137 61.4141C56.1673 61.9349 54.849 62.1953 53.0586 62.1953ZM65.0605 62V52.2344H67.4629V62H65.0605ZM61.1836 62V59.8125H65.2559V62H61.1836ZM67.2676 62V59.8125H70.5781V62H67.2676ZM61.7695 53.8359V51.6484H67.4629V53.8359H61.7695ZM66.1641 50.1543C65.7018 50.1543 65.321 50.0046 65.0215 49.7051C64.722 49.4056 64.5723 49.0247 64.5723 48.5625C64.5723 48.1003 64.722 47.7194 65.0215 47.4199C65.321 47.1204 65.7018 46.9707 66.1641 46.9707C66.6263 46.9707 67.0072 47.1204 67.3066 47.4199C67.6061 47.7194 67.7559 48.1003 67.7559 48.5625C67.7559 49.0247 67.6061 49.4056 67.3066 49.7051C67.0072 50.0046 66.6263 50.1543 66.1641 50.1543ZM73.2148 66.668L73.1172 64.5293L76.4375 64.4316C77.401 64.3991 78.1009 64.1289 78.5371 63.6211C78.9733 63.1198 79.1947 62.3776 79.2012 61.3945V53.8359L79.3965 51.6484H81.6133V61.082C81.6133 62.9245 81.1836 64.2819 80.3242 65.1543C79.4714 66.0332 78.1107 66.5052 76.2422 66.5703L73.2148 66.668ZM76.3691 62.1953C75.054 62.1953 74.0417 61.7396 73.332 60.8281C72.6289 59.9167 72.2773 58.5983 72.2773 56.873C72.2773 55.1217 72.6289 53.7806 73.332 52.8496C74.0417 51.9186 75.0573 51.4531 76.3789 51.4531C77.1732 51.4531 77.7917 51.6289 78.2344 51.9805C78.6836 52.332 78.9603 52.8464 79.0645 53.5234H79.8457L79.2012 56.6875C79.2012 55.6589 79.0156 54.8971 78.6445 54.4023C78.2734 53.901 77.7233 53.6504 76.9941 53.6504C76.2585 53.6504 75.6953 53.9271 75.3047 54.4805C74.9141 55.0339 74.7188 55.8314 74.7188 56.873C74.7188 57.9017 74.9108 58.6797 75.2949 59.207C75.679 59.7344 76.2454 59.998 76.9941 59.998C77.7754 59.998 78.3385 59.7507 78.6836 59.2559C79.0286 58.7611 79.2012 57.9993 79.2012 56.9707L79.9043 60.125H78.9961C78.9049 60.8021 78.6315 61.3164 78.1758 61.668C77.7201 62.0195 77.1178 62.1953 76.3691 62.1953ZM90.9199 62V55.6523C90.9199 55.0273 90.7767 54.5456 90.4902 54.207C90.2038 53.8685 89.8001 53.6992 89.2793 53.6992C87.834 53.6992 87.1113 54.6562 87.1113 56.5703L86.5059 53.5234H87.3457C87.4238 52.8268 87.6647 52.3092 88.0684 51.9707C88.4785 51.6257 89.0872 51.4531 89.8945 51.4531C90.9883 51.4531 91.8346 51.7852 92.4336 52.4492C93.0326 53.1133 93.332 54.0508 93.332 55.2617V62H90.9199ZM84.6992 62V51.6484H86.8672L87.1113 53.8359V62H84.6992ZM102.727 62.0977L102.541 59.0312L102.404 57.8789V55.5938C102.404 54.9883 102.167 54.5456 101.691 54.2656C101.216 53.9792 100.507 53.8229 99.5625 53.7969L96.9844 53.7285L97.1797 51.5508L99.3672 51.5801C101.177 51.6061 102.521 51.9772 103.4 52.6934C104.279 53.403 104.719 54.4414 104.719 55.8086V59.832L106.281 60.0469V62L102.727 62.0977ZM99.1621 62.1953C98.0684 62.1953 97.2188 61.9284 96.6133 61.3945C96.0143 60.8607 95.7148 60.1055 95.7148 59.1289C95.7148 57.9961 96.1185 57.127 96.9258 56.5215C97.7331 55.916 98.8757 55.6133 100.354 55.6133C100.939 55.6133 101.454 55.6458 101.896 55.7109C102.339 55.776 102.762 55.877 103.166 56.0137L102.736 57.8105C102.313 57.7129 101.919 57.6576 101.555 57.6445C101.19 57.625 100.809 57.6152 100.412 57.6152C98.8757 57.6152 98.1074 58.0677 98.1074 58.9727C98.1074 59.3698 98.2409 59.6725 98.5078 59.8809C98.7812 60.0892 99.1751 60.1934 99.6895 60.1934C100.288 60.1934 100.79 60.0859 101.193 59.8711C101.597 59.6497 101.9 59.373 102.102 59.041C102.303 58.7025 102.404 58.3542 102.404 57.9961V57.1562L102.873 59.8125H102.043L102.385 59.5C102.372 60.099 102.232 60.6003 101.965 61.0039C101.704 61.401 101.337 61.7005 100.861 61.9023C100.386 62.0977 99.8197 62.1953 99.1621 62.1953ZM114.523 62.1953C112.824 62.1953 111.597 61.8503 110.842 61.1602C110.087 60.4701 109.709 59.3665 109.709 57.8496V56.3359H112.111V57.6543C112.111 58.4551 112.313 59.0378 112.717 59.4023C113.127 59.7669 113.794 59.9492 114.719 59.9492C115.025 59.9492 115.354 59.9329 115.705 59.9004C116.057 59.8613 116.457 59.8125 116.906 59.7539L117.141 61.9609C116.704 62.0391 116.275 62.0977 115.852 62.1367C115.435 62.1758 114.992 62.1953 114.523 62.1953ZM109.709 57.0195V48.5234H112.111V57.0195H109.709ZM107.18 53.8359V51.6484H116.75V53.8359H107.18ZM122.863 62.1953C121.835 62.1953 121.04 61.873 120.48 61.2285C119.921 60.5775 119.641 59.6628 119.641 58.4844V51.6484H122.053V58.0938C122.053 58.6862 122.202 59.1452 122.502 59.4707C122.801 59.7897 123.215 59.9492 123.742 59.9492C124.419 59.9492 124.927 59.7116 125.266 59.2363C125.611 58.7546 125.783 57.9505 125.783 56.8242L126.311 60.0078H125.559C125.396 60.7109 125.077 61.2513 124.602 61.6289C124.133 62.0065 123.553 62.1953 122.863 62.1953ZM125.959 62.0977L125.783 59.6172V57.8008H128.195V59.832L129.621 60.0469V62L125.959 62.0977ZM125.783 59.0703V51.6484H128.195V58.4844L125.783 59.0703ZM135.354 57.5469L134.748 54.1094H135.607C135.718 52.3385 136.626 51.4531 138.332 51.4531C139.348 51.4531 140.109 51.7917 140.617 52.4688C141.125 53.1458 141.379 54.168 141.379 55.5352H138.977C138.977 54.8646 138.863 54.3828 138.635 54.0898C138.413 53.7969 138.055 53.6504 137.561 53.6504C136.818 53.6504 136.265 53.9889 135.9 54.666C135.536 55.3431 135.354 56.3034 135.354 57.5469ZM130.715 62V59.9102H137.824V62H130.715ZM132.951 62V51.6484H134.963L135.354 54.6172V62H132.951ZM131.105 53.7383V51.6484H134.826L135.021 53.7383H131.105ZM148.459 62.1953C146.682 62.1953 145.308 61.7331 144.338 60.8086C143.368 59.8776 142.883 58.543 142.883 56.8047C142.883 55.112 143.293 53.7969 144.113 52.8594C144.94 51.9219 146.102 51.4531 147.6 51.4531C149.045 51.4531 150.161 51.8828 150.949 52.7422C151.743 53.6016 152.141 54.8483 152.141 56.4824C152.141 56.9577 152.121 57.4036 152.082 57.8203H144.621V56.082H149.836C149.836 55.2943 149.641 54.6888 149.25 54.2656C148.859 53.8424 148.316 53.6309 147.619 53.6309C146.857 53.6309 146.265 53.8978 145.842 54.4316C145.419 54.9655 145.207 55.724 145.207 56.707C145.207 57.7682 145.51 58.5788 146.115 59.1387C146.721 59.6921 147.58 59.9688 148.693 59.9688C149.149 59.9688 149.595 59.946 150.031 59.9004C150.474 59.8483 150.923 59.7799 151.379 59.6953L151.633 61.9219C150.995 62.0391 150.409 62.1139 149.875 62.1465C149.341 62.179 148.869 62.1953 148.459 62.1953Z" fill="#1187F8"/>
<g clip-path="url(#clip0_50_2761)">
<rect x="48" y="86" width="512" height="133" rx="8" fill="#242638"/>
<g clip-path="url(#clip1_50_2761)">
<path d="M72.0405 125.206C72.0809 125.359 72.1511 125.502 72.2473 125.627C72.3434 125.752 72.4634 125.857 72.6004 125.936L73.8953 126.685C74.5134 127.042 74.8941 127.702 74.8941 128.416V129.904C74.8941 130.223 75.0207 130.529 75.246 130.754C75.4713 130.979 75.7769 131.106 76.0956 131.106H77.5837C78.2979 131.106 78.9579 131.487 79.3153 132.105L80.0642 133.401C80.224 133.676 80.4864 133.877 80.7941 133.96C81.1017 134.042 81.4294 133.999 81.7055 133.841L82.9985 133.094C83.6177 132.736 84.3808 132.736 84.9999 133.094L86.2941 133.842C86.5702 134 86.898 134.043 87.2056 133.961C87.5132 133.878 87.7756 133.677 87.9354 133.402L88.6832 132.108C89.0406 131.489 89.7007 131.108 90.415 131.108H91.9028C92.2215 131.108 92.5271 130.982 92.7524 130.756C92.9778 130.531 93.1044 130.225 93.1044 129.907V128.418C93.1044 127.704 93.485 127.044 94.1031 126.687L95.3981 125.938C95.5348 125.859 95.6547 125.754 95.7508 125.629C95.847 125.504 95.9175 125.361 95.9583 125.209C95.9992 125.056 96.0096 124.897 95.9889 124.741C95.9682 124.584 95.9169 124.433 95.8378 124.297L95.0905 123.003C94.7329 122.384 94.7332 121.62 95.0912 121.001L95.839 119.708C95.9984 119.432 96.0415 119.104 95.9591 118.797C95.8766 118.489 95.6752 118.226 95.3993 118.067L94.1043 117.318C93.4862 116.961 93.1056 116.301 93.1056 115.587V114.098C93.1056 113.78 92.979 113.474 92.7536 113.249C92.5283 113.023 92.2227 112.897 91.904 112.897H90.4162C89.7019 112.897 89.0418 112.516 88.6844 111.897L87.9366 110.603C87.777 110.328 87.5148 110.126 87.2073 110.043C87.0549 110.002 86.8958 109.991 86.7393 110.012C86.5827 110.033 86.4319 110.084 86.2953 110.163L85 110.911C84.3808 111.268 83.6179 111.268 82.9989 110.91L81.7055 110.162C81.569 110.083 81.4182 110.031 81.2618 110.011C81.1053 109.99 80.9463 110 80.7938 110.041C80.6413 110.081 80.4984 110.152 80.3732 110.248C80.248 110.344 80.143 110.464 80.0642 110.601L79.3153 111.896C78.9579 112.515 78.2979 112.896 77.5837 112.896H76.0956C75.7769 112.896 75.4713 113.022 75.246 113.248C75.0207 113.473 74.8941 113.778 74.8941 114.097V115.586C74.8941 116.3 74.5137 116.959 73.896 117.317L72.6004 118.067C72.3249 118.227 72.124 118.489 72.0418 118.797C71.9595 119.105 72.0027 119.432 72.1618 119.708L72.9087 121.001C73.2666 121.62 73.2664 122.384 72.9083 123.003L72.1606 124.296C72.0019 124.571 71.9587 124.899 72.0405 125.206Z" fill="#E1E1FF"/>
</g>
<path d="M112.318 129.5V119.08C112.318 115.141 114.116 113.172 117.711 113.172C118.527 113.172 119.315 113.243 120.074 113.387L119.838 115.363C119.387 115.306 118.989 115.267 118.646 115.245C118.302 115.224 117.969 115.213 117.646 115.213C115.613 115.213 114.596 116.466 114.596 118.973V129.5H112.318ZM108.73 122.625V120.627H119.258V122.625H108.73ZM127.336 129.715C125.76 129.715 124.536 129.199 123.662 128.168C122.788 127.137 122.352 125.683 122.352 123.807C122.352 121.923 122.788 120.469 123.662 119.445C124.536 118.414 125.76 117.898 127.336 117.898C128.919 117.898 130.143 118.414 131.01 119.445C131.883 120.469 132.32 121.923 132.32 123.807C132.32 125.683 131.883 127.137 131.01 128.168C130.143 129.199 128.919 129.715 127.336 129.715ZM127.336 127.674C128.174 127.674 128.818 127.337 129.27 126.664C129.728 125.991 129.957 125.038 129.957 123.807C129.957 122.568 129.728 121.615 129.27 120.949C128.818 120.276 128.174 119.939 127.336 119.939C126.498 119.939 125.85 120.276 125.392 120.949C124.94 121.615 124.715 122.568 124.715 123.807C124.715 125.038 124.94 125.991 125.392 126.664C125.85 127.337 126.498 127.674 127.336 127.674ZM139.453 124.602L138.787 121.035H139.668C139.797 118.944 140.842 117.898 142.805 117.898C143.979 117.898 144.831 118.235 145.361 118.908C145.891 119.581 146.156 120.67 146.156 122.174H143.9C143.9 121.343 143.775 120.745 143.524 120.38C143.281 120.015 142.883 119.832 142.332 119.832C141.365 119.832 140.642 120.247 140.162 121.078C139.689 121.902 139.453 123.076 139.453 124.602ZM134.641 129.5V127.502H142.246V129.5H134.641ZM137.176 129.5V118.113H139.023L139.453 121.379V129.5H137.176ZM135.07 120.111V118.113H138.873L139.088 120.111H135.07ZM156.082 129.5V120.799C156.082 120.011 155.788 119.617 155.201 119.617C154.456 119.617 154.084 120.133 154.084 121.164L153.311 119.531H154.191C154.227 119.087 154.403 118.704 154.718 118.382C155.04 118.06 155.502 117.898 156.104 117.898C156.891 117.898 157.464 118.11 157.822 118.532C158.18 118.955 158.359 119.639 158.359 120.584V129.5H156.082ZM147.875 129.5V118.113H149.895L150.152 120.52V129.5H147.875ZM152.15 129.5V120.584C152.15 119.939 151.85 119.617 151.248 119.617C150.518 119.617 150.152 120.133 150.152 121.164L149.486 119.531H150.217C150.303 118.443 150.954 117.898 152.172 117.898C152.766 117.898 153.232 118.103 153.568 118.511C153.912 118.919 154.084 119.538 154.084 120.369V129.5H152.15ZM168.35 129.607L168.199 126.234L167.898 125.289V122.346C167.898 121.587 167.63 121.032 167.093 120.681C166.563 120.323 165.771 120.129 164.719 120.101L161.99 120.025L162.205 118.006L164.504 118.038C166.387 118.067 167.784 118.475 168.693 119.263C169.61 120.043 170.068 121.186 170.068 122.689V127.438L172.002 127.674V129.5L168.35 129.607ZM164.332 129.715C163.143 129.715 162.223 129.428 161.571 128.855C160.92 128.283 160.594 127.473 160.594 126.428C160.594 125.225 161.041 124.301 161.937 123.656C162.839 123.012 164.11 122.689 165.75 122.689C166.43 122.689 167.035 122.732 167.565 122.818C168.103 122.897 168.579 123.019 168.994 123.184L168.521 124.73C168.042 124.623 167.573 124.562 167.114 124.548C166.656 124.526 166.187 124.516 165.707 124.516C163.73 124.516 162.742 125.117 162.742 126.32C162.742 126.822 162.91 127.208 163.247 127.48C163.591 127.753 164.074 127.889 164.697 127.889C165.406 127.889 165.997 127.767 166.47 127.523C166.95 127.28 167.308 126.968 167.544 126.589C167.78 126.209 167.898 125.819 167.898 125.418V124.172L168.564 127.094H167.662L168.027 126.75C168.027 127.409 167.873 127.96 167.565 128.404C167.265 128.841 166.839 129.171 166.287 129.393C165.736 129.607 165.084 129.715 164.332 129.715ZM180.961 129.715C179.235 129.715 177.985 129.357 177.212 128.641C176.446 127.924 176.062 126.779 176.062 125.203V123.27H178.34V125.096C178.34 125.998 178.558 126.653 178.995 127.062C179.439 127.47 180.166 127.674 181.176 127.674C181.534 127.674 181.913 127.656 182.314 127.62C182.715 127.577 183.174 127.523 183.689 127.459L183.947 129.457C183.446 129.543 182.955 129.607 182.476 129.65C182.003 129.693 181.498 129.715 180.961 129.715ZM176.062 124.129V114.676H178.34V124.129H176.062ZM173.205 120.111V118.113H183.518V120.111H173.205Z" fill="#E1E1FF"/>
<path d="M437.693 129.5V114.246H439.842V129.5H437.693ZM433.826 129.5V127.459H437.908V129.5H433.826ZM439.627 129.5V127.459H443.301V129.5H439.627ZM434.041 117.705V115.535L437.693 114.246V116.459L434.041 117.705ZM446.523 129.5V127.094C448.88 125.79 450.638 124.43 451.798 123.012C452.965 121.594 453.549 120.133 453.549 118.629C453.549 117.755 453.334 117.1 452.904 116.663C452.475 116.226 451.823 116.008 450.949 116.008C450.369 116.008 449.764 116.176 449.134 116.513C448.504 116.849 447.963 117.297 447.512 117.855L446.029 116.384C446.523 115.675 447.225 115.105 448.135 114.676C449.044 114.246 449.997 114.031 450.992 114.031C452.604 114.031 453.807 114.414 454.602 115.181C455.404 115.94 455.805 117.089 455.805 118.629C455.805 120.176 455.314 121.662 454.333 123.087C453.359 124.505 451.873 125.869 449.875 127.18V129.5H446.523ZM447.168 129.5V127.502H456.449V129.5H447.168ZM475.291 129.715C474.826 129.715 474.364 129.693 473.905 129.65C473.447 129.615 472.981 129.564 472.509 129.5L473.314 127.803C473.665 127.939 474.052 128.021 474.475 128.05C474.904 128.078 475.327 128.093 475.742 128.093C477.275 128.093 478.456 127.656 479.287 126.782C480.125 125.901 480.544 124.659 480.544 123.055C480.544 121.923 480.29 121.053 479.781 120.444C479.273 119.828 478.546 119.521 477.601 119.521C475.431 119.521 474.346 120.713 474.346 123.098L473.68 120.176H474.528C474.772 118.658 475.832 117.898 477.708 117.898C479.198 117.898 480.351 118.346 481.167 119.241C481.983 120.136 482.392 121.408 482.392 123.055C482.392 125.167 481.772 126.807 480.533 127.975C479.294 129.135 477.547 129.715 475.291 129.715ZM472.509 129.5V113.387H474.346V129.307L472.509 129.5ZM484.454 134.656L484.368 132.97L485.797 132.787C486.527 132.68 487.165 132.454 487.709 132.11C488.253 131.774 488.737 131.269 489.159 130.596C489.582 129.923 489.968 129.042 490.319 127.953L493.499 118.113H495.454L491.855 128.49C491.383 129.851 490.878 130.95 490.341 131.788C489.804 132.626 489.188 133.253 488.493 133.668C487.806 134.083 486.993 134.348 486.055 134.463L484.454 134.656ZM488.923 129.5L484.239 118.113H486.194L490.158 128.028H490.47L490.448 129.5H488.923ZM504.961 129.715C503.364 129.715 502.197 129.35 501.459 128.619C500.729 127.882 500.363 126.732 500.363 125.171V123.27H502.211V125.096C502.211 126.098 502.447 126.84 502.92 127.319C503.393 127.792 504.145 128.028 505.176 128.028C505.562 128.028 505.953 128.01 506.347 127.975C506.748 127.932 507.181 127.874 507.646 127.803L507.861 129.457C507.374 129.543 506.898 129.607 506.433 129.65C505.974 129.693 505.484 129.715 504.961 129.715ZM500.363 124.129V114.676H502.211V124.129H500.363ZM497.291 119.682V118.113H507.432V119.682H497.291ZM516.885 129.715C514.973 129.715 513.494 129.199 512.448 128.168C511.41 127.13 510.891 125.654 510.891 123.742C510.891 121.887 511.331 120.451 512.212 119.435C513.093 118.41 514.335 117.898 515.939 117.898C517.451 117.898 518.618 118.36 519.441 119.284C520.272 120.208 520.688 121.536 520.688 123.27C520.688 123.749 520.666 124.179 520.623 124.559H512.427V123.076H518.969C518.969 121.952 518.704 121.085 518.174 120.477C517.644 119.868 516.906 119.563 515.961 119.563C514.908 119.563 514.092 119.922 513.512 120.638C512.932 121.354 512.642 122.367 512.642 123.678C512.642 125.089 513.032 126.17 513.812 126.922C514.6 127.674 515.71 128.05 517.143 128.05C517.594 128.05 518.049 128.025 518.507 127.975C518.972 127.917 519.434 127.842 519.893 127.749L520.129 129.414C519.542 129.529 518.972 129.607 518.421 129.65C517.869 129.693 517.357 129.715 516.885 129.715ZM527.799 129.715C526.954 129.715 526.23 129.69 525.629 129.64C525.027 129.59 524.483 129.507 523.996 129.393L524.211 127.674C524.956 127.796 525.611 127.885 526.177 127.942C526.75 128 527.29 128.028 527.799 128.028C529.074 128.028 529.997 127.899 530.57 127.642C531.15 127.377 531.44 126.958 531.44 126.385C531.44 125.984 531.322 125.672 531.086 125.45C530.85 125.221 530.477 125.042 529.969 124.913L527.38 124.258C526.263 123.979 525.446 123.617 524.931 123.173C524.422 122.729 524.168 122.102 524.168 121.293C524.168 120.097 524.637 119.234 525.575 118.704C526.521 118.167 528.042 117.898 530.141 117.898C530.663 117.898 531.15 117.916 531.602 117.952C532.06 117.981 532.547 118.035 533.062 118.113L532.869 119.735C532.282 119.678 531.77 119.639 531.333 119.617C530.896 119.596 530.477 119.585 530.076 119.585C528.673 119.585 527.656 119.714 527.025 119.972C526.402 120.229 526.091 120.648 526.091 121.229C526.091 121.594 526.234 121.88 526.521 122.088C526.814 122.296 527.272 122.478 527.896 122.636L529.969 123.141C531.158 123.42 532.021 123.807 532.558 124.301C533.095 124.795 533.363 125.479 533.363 126.353C533.363 127.534 532.923 128.39 532.042 128.92C531.161 129.45 529.747 129.715 527.799 129.715Z" fill="#E1E1FF"/>
<path opacity="0.75" d="M73.4062 161V149.906H74.9688V161H73.4062ZM73.4062 156.656V155.172H79.3438V156.656H73.4062ZM73.4062 151.391V149.906H80.75V151.391H73.4062ZM86.0625 161.156C84.9167 161.156 84.026 160.781 83.3906 160.031C82.7552 159.281 82.4375 158.224 82.4375 156.859C82.4375 155.49 82.7552 154.432 83.3906 153.688C84.026 152.938 84.9167 152.562 86.0625 152.562C87.2135 152.562 88.1042 152.938 88.7344 153.688C89.3698 154.432 89.6875 155.49 89.6875 156.859C89.6875 158.224 89.3698 159.281 88.7344 160.031C88.1042 160.781 87.2135 161.156 86.0625 161.156ZM86.0625 159.672C86.6719 159.672 87.1406 159.427 87.4688 158.938C87.8021 158.448 87.9688 157.755 87.9688 156.859C87.9688 155.958 87.8021 155.266 87.4688 154.781C87.1406 154.292 86.6719 154.047 86.0625 154.047C85.4531 154.047 84.9818 154.292 84.6484 154.781C84.3203 155.266 84.1562 155.958 84.1562 156.859C84.1562 157.755 84.3203 158.448 84.6484 158.938C84.9818 159.427 85.4531 159.672 86.0625 159.672ZM94.875 157.438L94.3906 154.844H95.0312C95.125 153.323 95.8854 152.562 97.3125 152.562C98.1667 152.562 98.7865 152.807 99.1719 153.297C99.5573 153.786 99.75 154.578 99.75 155.672H98.1094C98.1094 155.068 98.0182 154.633 97.8359 154.367C97.6589 154.102 97.3698 153.969 96.9688 153.969C96.2656 153.969 95.7396 154.271 95.3906 154.875C95.0469 155.474 94.875 156.328 94.875 157.438ZM91.375 161V159.641H96.9062V161H91.375ZM93.2188 161V152.719H94.5625L94.875 155.094V161H93.2188ZM91.6875 154.078V152.719H94.4531L94.6094 154.078H91.6875ZM106.969 161V154.672C106.969 154.099 106.755 153.812 106.328 153.812C105.786 153.812 105.516 154.188 105.516 154.938L104.953 153.75H105.594C105.62 153.427 105.747 153.148 105.977 152.914C106.211 152.68 106.547 152.562 106.984 152.562C107.557 152.562 107.974 152.716 108.234 153.023C108.495 153.331 108.625 153.828 108.625 154.516V161H106.969ZM101 161V152.719H102.469L102.656 154.469V161H101ZM104.109 161V154.516C104.109 154.047 103.891 153.812 103.453 153.812C102.922 153.812 102.656 154.188 102.656 154.938L102.172 153.75H102.703C102.766 152.958 103.24 152.562 104.125 152.562C104.557 152.562 104.896 152.711 105.141 153.008C105.391 153.305 105.516 153.755 105.516 154.359V161H104.109ZM115.891 161.078L115.781 158.625L115.562 157.938V155.797C115.562 155.245 115.367 154.841 114.977 154.586C114.591 154.326 114.016 154.185 113.25 154.164L111.266 154.109L111.422 152.641L113.094 152.664C114.464 152.685 115.479 152.982 116.141 153.555C116.807 154.122 117.141 154.953 117.141 156.047V159.5L118.547 159.672V161L115.891 161.078ZM112.969 161.156C112.104 161.156 111.435 160.948 110.961 160.531C110.487 160.115 110.25 159.526 110.25 158.766C110.25 157.891 110.576 157.219 111.227 156.75C111.883 156.281 112.807 156.047 114 156.047C114.495 156.047 114.935 156.078 115.32 156.141C115.711 156.198 116.057 156.286 116.359 156.406L116.016 157.531C115.667 157.453 115.326 157.409 114.992 157.398C114.659 157.383 114.318 157.375 113.969 157.375C112.531 157.375 111.812 157.812 111.812 158.688C111.812 159.052 111.935 159.333 112.18 159.531C112.43 159.729 112.781 159.828 113.234 159.828C113.75 159.828 114.18 159.74 114.523 159.562C114.872 159.385 115.133 159.159 115.305 158.883C115.477 158.607 115.562 158.323 115.562 158.031V157.125L116.047 159.25H115.391L115.656 159C115.656 159.479 115.544 159.88 115.32 160.203C115.102 160.521 114.792 160.76 114.391 160.922C113.99 161.078 113.516 161.156 112.969 161.156ZM125.062 161.156C123.807 161.156 122.898 160.896 122.336 160.375C121.779 159.854 121.5 159.021 121.5 157.875V156.469H123.156V157.797C123.156 158.453 123.315 158.93 123.633 159.227C123.956 159.523 124.484 159.672 125.219 159.672C125.479 159.672 125.755 159.659 126.047 159.633C126.339 159.602 126.672 159.562 127.047 159.516L127.234 160.969C126.87 161.031 126.513 161.078 126.164 161.109C125.82 161.141 125.453 161.156 125.062 161.156ZM121.5 157.094V150.219H123.156V157.094H121.5ZM119.422 154.078V152.719H126.922V154.078H119.422ZM141.93 161.156C141.299 161.156 140.708 161.104 140.156 161C139.609 160.901 139.102 160.75 138.633 160.547L138.836 158.969C139.409 159.214 139.961 159.401 140.492 159.531C141.029 159.656 141.549 159.719 142.055 159.719C142.784 159.719 143.326 159.591 143.68 159.336C144.034 159.081 144.211 158.693 144.211 158.172C144.211 157.51 143.872 157.026 143.195 156.719L141.273 155.844C140.518 155.5 139.938 155.086 139.531 154.602C139.13 154.117 138.93 153.516 138.93 152.797C138.93 151.828 139.221 151.078 139.805 150.547C140.388 150.016 141.214 149.75 142.281 149.75C143.026 149.75 143.685 149.859 144.258 150.078C144.831 150.297 145.383 150.654 145.914 151.148L144.82 152.258C144.362 151.883 143.932 151.612 143.531 151.445C143.135 151.273 142.721 151.188 142.289 151.188C141.753 151.188 141.336 151.318 141.039 151.578C140.747 151.833 140.602 152.214 140.602 152.719C140.602 153.078 140.698 153.372 140.891 153.602C141.083 153.826 141.367 154.026 141.742 154.203L143.367 154.969C144.19 155.354 144.815 155.789 145.242 156.273C145.669 156.758 145.883 157.38 145.883 158.141C145.883 159.146 145.555 159.901 144.898 160.406C144.247 160.906 143.258 161.156 141.93 161.156ZM151.406 161V153.188H153.062V161H151.406ZM148.25 161V159.641H151.562V161H148.25ZM152.906 161V159.641H155.609V161H152.906ZM148.719 154.078V152.719H153.062V154.078H148.719ZM152.18 151.406C151.862 151.406 151.589 151.294 151.359 151.07C151.135 150.841 151.023 150.568 151.023 150.25C151.023 149.927 151.135 149.654 151.359 149.43C151.589 149.206 151.862 149.094 152.18 149.094C152.503 149.094 152.776 149.206 153 149.43C153.224 149.654 153.336 149.927 153.336 150.25C153.336 150.568 153.224 150.841 153 151.07C152.776 151.294 152.503 151.406 152.18 151.406ZM157.797 164.734L157.719 163.219L160.375 163.141C161.214 163.115 161.823 162.883 162.203 162.445C162.583 162.008 162.776 161.365 162.781 160.516V154.469L162.938 152.719H164.438V160.266C164.438 161.74 164.102 162.828 163.43 163.531C162.758 164.234 161.688 164.609 160.219 164.656L157.797 164.734ZM160.43 161.156C159.346 161.156 158.523 160.799 157.961 160.086C157.404 159.372 157.125 158.323 157.125 156.938C157.125 155.5 157.404 154.411 157.961 153.672C158.523 152.932 159.346 152.562 160.43 152.562C161.076 152.562 161.599 152.708 162 153C162.401 153.292 162.635 153.698 162.703 154.219H163.344L162.781 156.578C162.781 155.724 162.612 155.076 162.273 154.633C161.94 154.19 161.448 153.969 160.797 153.969C160.13 153.969 159.625 154.219 159.281 154.719C158.938 155.219 158.766 155.958 158.766 156.938C158.766 157.865 158.938 158.565 159.281 159.039C159.625 159.513 160.13 159.75 160.797 159.75C161.448 159.75 161.94 159.529 162.273 159.086C162.612 158.643 162.781 157.995 162.781 157.141L163.344 159.5H162.625C162.573 160.021 162.352 160.427 161.961 160.719C161.576 161.01 161.065 161.156 160.43 161.156ZM172.156 161V155.609C172.156 155.109 172.026 154.724 171.766 154.453C171.505 154.182 171.141 154.047 170.672 154.047C169.37 154.047 168.719 154.812 168.719 156.344L168.234 154.219H168.875C168.922 153.661 169.125 153.247 169.484 152.977C169.844 152.701 170.37 152.562 171.062 152.562C171.938 152.562 172.615 152.828 173.094 153.359C173.573 153.891 173.812 154.641 173.812 155.609V161H172.156ZM167.062 161V152.719H168.562L168.719 154.469V161H167.062ZM181.516 161.078L181.406 158.625L181.188 157.938V155.797C181.188 155.245 180.992 154.841 180.602 154.586C180.216 154.326 179.641 154.185 178.875 154.164L176.891 154.109L177.047 152.641L178.719 152.664C180.089 152.685 181.104 152.982 181.766 153.555C182.432 154.122 182.766 154.953 182.766 156.047V159.5L184.172 159.672V161L181.516 161.078ZM178.594 161.156C177.729 161.156 177.06 160.948 176.586 160.531C176.112 160.115 175.875 159.526 175.875 158.766C175.875 157.891 176.201 157.219 176.852 156.75C177.508 156.281 178.432 156.047 179.625 156.047C180.12 156.047 180.56 156.078 180.945 156.141C181.336 156.198 181.682 156.286 181.984 156.406L181.641 157.531C181.292 157.453 180.951 157.409 180.617 157.398C180.284 157.383 179.943 157.375 179.594 157.375C178.156 157.375 177.438 157.812 177.438 158.688C177.438 159.052 177.56 159.333 177.805 159.531C178.055 159.729 178.406 159.828 178.859 159.828C179.375 159.828 179.805 159.74 180.148 159.562C180.497 159.385 180.758 159.159 180.93 158.883C181.102 158.607 181.188 158.323 181.188 158.031V157.125L181.672 159.25H181.016L181.281 159C181.281 159.479 181.169 159.88 180.945 160.203C180.727 160.521 180.417 160.76 180.016 160.922C179.615 161.078 179.141 161.156 178.594 161.156ZM190.688 161.156C189.432 161.156 188.523 160.896 187.961 160.375C187.404 159.854 187.125 159.021 187.125 157.875V156.469H188.781V157.797C188.781 158.453 188.94 158.93 189.258 159.227C189.581 159.523 190.109 159.672 190.844 159.672C191.104 159.672 191.38 159.659 191.672 159.633C191.964 159.602 192.297 159.562 192.672 159.516L192.859 160.969C192.495 161.031 192.138 161.078 191.789 161.109C191.445 161.141 191.078 161.156 190.688 161.156ZM187.125 157.094V150.219H188.781V157.094H187.125ZM185.047 154.078V152.719H192.547V154.078H185.047ZM197.75 161.156C196.88 161.156 196.206 160.898 195.727 160.383C195.253 159.862 195.016 159.13 195.016 158.188V152.719H196.672V158.188C196.672 158.661 196.807 159.029 197.078 159.289C197.349 159.544 197.729 159.672 198.219 159.672C198.823 159.672 199.279 159.482 199.586 159.102C199.893 158.716 200.047 158.073 200.047 157.172L200.469 159.406H199.922C199.792 159.969 199.536 160.401 199.156 160.703C198.776 161.005 198.307 161.156 197.75 161.156ZM200.188 161.078L200.047 159.094V157.641H201.703V159.5L202.844 159.672V161L200.188 161.078ZM200.047 158.656V152.719H201.703V158.188L200.047 158.656ZM207.375 157.438L206.891 154.844H207.531C207.625 153.323 208.385 152.562 209.812 152.562C210.667 152.562 211.286 152.807 211.672 153.297C212.057 153.786 212.25 154.578 212.25 155.672H210.609C210.609 155.068 210.518 154.633 210.336 154.367C210.159 154.102 209.87 153.969 209.469 153.969C208.766 153.969 208.24 154.271 207.891 154.875C207.547 155.474 207.375 156.328 207.375 157.438ZM203.875 161V159.641H209.406V161H203.875ZM205.719 161V152.719H207.062L207.375 155.094V161H205.719ZM204.188 154.078V152.719H206.953L207.109 154.078H204.188ZM218.109 161.156C216.698 161.156 215.607 160.786 214.836 160.047C214.07 159.302 213.688 158.234 213.688 156.844C213.688 155.49 214.013 154.438 214.664 153.688C215.315 152.938 216.234 152.562 217.422 152.562C218.542 152.562 219.406 152.901 220.016 153.578C220.63 154.255 220.938 155.24 220.938 156.531C220.938 156.911 220.922 157.266 220.891 157.594H215.078V156.328H219.438C219.438 155.583 219.26 155.013 218.906 154.617C218.552 154.216 218.062 154.016 217.438 154.016C216.734 154.016 216.188 154.255 215.797 154.734C215.411 155.214 215.219 155.891 215.219 156.766C215.219 157.724 215.484 158.453 216.016 158.953C216.552 159.453 217.312 159.703 218.297 159.703C218.641 159.703 218.979 159.685 219.312 159.648C219.646 159.607 219.984 159.552 220.328 159.484L220.531 160.938C220.042 161.031 219.594 161.091 219.188 161.117C218.781 161.143 218.422 161.156 218.109 161.156Z" fill="#E1E1FF"/>
<rect x="72" y="169" width="304" height="26" rx="4" fill="#1C1E2B"/>
<path opacity="0.75" d="M84.1016 187.137C83.0488 187.137 82.2331 186.893 81.6543 186.405C81.0801 185.913 80.793 185.223 80.793 184.334C80.793 183.518 81.0801 182.889 81.6543 182.447C82.2331 182.001 83.0488 181.777 84.1016 181.777C85.1543 181.777 85.9678 182.001 86.542 182.447C87.1208 182.889 87.4102 183.518 87.4102 184.334C87.4102 185.223 87.1208 185.913 86.542 186.405C85.9678 186.893 85.1543 187.137 84.1016 187.137ZM84.1016 185.879C84.6986 185.879 85.1589 185.738 85.4824 185.455C85.8105 185.173 85.9746 184.776 85.9746 184.266C85.9746 183.719 85.8105 183.293 85.4824 182.987C85.1589 182.682 84.6986 182.529 84.1016 182.529C83.5046 182.529 83.042 182.682 82.7139 182.987C82.3903 183.293 82.2285 183.719 82.2285 184.266C82.2285 184.776 82.3903 185.173 82.7139 185.455C83.042 185.738 83.5046 185.879 84.1016 185.879ZM82.9668 182.174V181.477H85.25V182.174H82.9668ZM84.1016 181.217C84.612 181.217 85.0062 181.101 85.2842 180.868C85.5622 180.631 85.7012 180.305 85.7012 179.891C85.7012 179.417 85.5622 179.052 85.2842 178.797C85.0062 178.542 84.612 178.414 84.1016 178.414C83.5911 178.414 83.1969 178.542 82.9189 178.797C82.641 179.052 82.502 179.417 82.502 179.891C82.502 180.305 82.641 180.631 82.9189 180.868C83.1969 181.101 83.5911 181.217 84.1016 181.217ZM84.1016 181.9C83.14 181.9 82.3926 181.702 81.8594 181.306C81.3307 180.905 81.0664 180.342 81.0664 179.617C81.0664 178.838 81.3307 178.234 81.8594 177.806C82.3926 177.373 83.14 177.156 84.1016 177.156C85.0677 177.156 85.8151 177.373 86.3438 177.806C86.8724 178.234 87.1367 178.838 87.1367 179.617C87.1367 180.342 86.8724 180.905 86.3438 181.306C85.8151 181.702 85.0677 181.9 84.1016 181.9ZM91.6484 183.541C90.8008 183.541 90.1468 183.279 89.6865 182.755C89.2262 182.231 88.9961 181.49 88.9961 180.533C88.9961 179.499 89.2878 178.694 89.8711 178.12C90.459 177.541 91.2747 177.252 92.3184 177.252C93.444 177.252 94.2712 177.532 94.7998 178.093C95.333 178.653 95.5996 179.526 95.5996 180.711L94.4648 181.955H93.959C93.8223 182.461 93.5488 182.853 93.1387 183.131C92.7331 183.404 92.2363 183.541 91.6484 183.541ZM89.8848 187.137L89.748 185.838C92.6374 185.715 94.082 184.416 94.082 181.941V181.162L95.5996 180.711V181.312C95.5996 183.163 95.1279 184.573 94.1846 185.544C93.2458 186.51 91.8125 187.041 89.8848 187.137ZM92.1611 182.283C92.7946 182.283 93.2822 182.119 93.624 181.791C93.9658 181.463 94.1367 180.998 94.1367 180.396C94.1367 179.804 93.9727 179.341 93.6445 179.009C93.3164 178.676 92.8584 178.51 92.2705 178.51C91.6917 178.51 91.2406 178.688 90.917 179.043C90.5934 179.398 90.4316 179.895 90.4316 180.533C90.4316 181.094 90.5798 181.527 90.876 181.832C91.1768 182.133 91.6051 182.283 92.1611 182.283ZM107.597 187L110.933 177.293H112.498L109.162 187H107.597ZM105.375 180.697V177.498H106.838V180.697H105.375ZM105.375 178.592V177.293H112.498L111.527 178.592H105.375ZM116.914 187.137C114.708 187.137 113.605 185.496 113.605 182.215C113.605 178.842 114.708 177.156 116.914 177.156C119.12 177.156 120.223 178.842 120.223 182.215C120.223 185.496 119.12 187.137 116.914 187.137ZM116.914 183.24C116.609 183.24 116.36 183.147 116.169 182.96C115.982 182.769 115.889 182.52 115.889 182.215C115.889 181.905 115.982 181.657 116.169 181.47C116.36 181.283 116.609 181.189 116.914 181.189C117.224 181.189 117.472 181.283 117.659 181.47C117.846 181.657 117.939 181.905 117.939 182.215C117.939 182.52 117.846 182.769 117.659 182.96C117.472 183.147 117.224 183.24 116.914 183.24ZM116.914 185.879C118.145 185.879 118.76 184.658 118.76 182.215C118.76 179.681 118.145 178.414 116.914 178.414C115.684 178.414 115.068 179.681 115.068 182.215C115.068 184.658 115.684 185.879 116.914 185.879ZM133.375 187.137C132.249 187.137 131.42 186.856 130.887 186.296C130.358 185.735 130.094 184.863 130.094 183.678L131.229 182.434H131.734C131.871 181.928 132.142 181.538 132.548 181.265C132.958 180.987 133.457 180.848 134.045 180.848C134.893 180.848 135.547 181.11 136.007 181.634C136.467 182.158 136.697 182.898 136.697 183.855C136.697 184.885 136.403 185.69 135.815 186.269C135.232 186.847 134.419 187.137 133.375 187.137ZM133.423 185.879C134.002 185.879 134.453 185.701 134.776 185.346C135.1 184.986 135.262 184.489 135.262 183.855C135.262 183.295 135.111 182.864 134.811 182.563C134.514 182.258 134.088 182.105 133.532 182.105C132.899 182.105 132.411 182.27 132.069 182.598C131.728 182.926 131.557 183.391 131.557 183.992C131.557 184.585 131.721 185.047 132.049 185.38C132.377 185.713 132.835 185.879 133.423 185.879ZM130.094 183.678V183.076C130.094 181.221 130.563 179.811 131.502 178.845C132.445 177.879 133.881 177.348 135.809 177.252L135.945 178.551C133.056 178.674 131.611 179.973 131.611 182.447V183.227L130.094 183.678ZM140.867 183.541C140.02 183.541 139.366 183.279 138.905 182.755C138.445 182.231 138.215 181.49 138.215 180.533C138.215 179.499 138.507 178.694 139.09 178.12C139.678 177.541 140.493 177.252 141.537 177.252C142.663 177.252 143.49 177.532 144.019 178.093C144.552 178.653 144.818 179.526 144.818 180.711L143.684 181.955H143.178C143.041 182.461 142.768 182.853 142.357 183.131C141.952 183.404 141.455 183.541 140.867 183.541ZM139.104 187.137L138.967 185.838C141.856 185.715 143.301 184.416 143.301 181.941V181.162L144.818 180.711V181.312C144.818 183.163 144.347 184.573 143.403 185.544C142.465 186.51 141.031 187.041 139.104 187.137ZM141.38 182.283C142.013 182.283 142.501 182.119 142.843 181.791C143.185 181.463 143.355 180.998 143.355 180.396C143.355 179.804 143.191 179.341 142.863 179.009C142.535 178.676 142.077 178.51 141.489 178.51C140.91 178.51 140.459 178.688 140.136 179.043C139.812 179.398 139.65 179.895 139.65 180.533C139.65 181.094 139.799 181.527 140.095 181.832C140.396 182.133 140.824 182.283 141.38 182.283ZM157.984 187.137C156.859 187.137 156.029 186.856 155.496 186.296C154.967 185.735 154.703 184.863 154.703 183.678L155.838 182.434H156.344C156.48 181.928 156.752 181.538 157.157 181.265C157.567 180.987 158.066 180.848 158.654 180.848C159.502 180.848 160.156 181.11 160.616 181.634C161.076 182.158 161.307 182.898 161.307 183.855C161.307 184.885 161.013 185.69 160.425 186.269C159.841 186.847 159.028 187.137 157.984 187.137ZM158.032 185.879C158.611 185.879 159.062 185.701 159.386 185.346C159.709 184.986 159.871 184.489 159.871 183.855C159.871 183.295 159.721 182.864 159.42 182.563C159.124 182.258 158.698 182.105 158.142 182.105C157.508 182.105 157.021 182.27 156.679 182.598C156.337 182.926 156.166 183.391 156.166 183.992C156.166 184.585 156.33 185.047 156.658 185.38C156.986 185.713 157.444 185.879 158.032 185.879ZM154.703 183.678V183.076C154.703 181.221 155.173 179.811 156.111 178.845C157.055 177.879 158.49 177.348 160.418 177.252L160.555 178.551C157.665 178.674 156.221 179.973 156.221 182.447V183.227L154.703 183.678ZM166.229 187.137C165.18 187.137 164.369 186.888 163.795 186.392C163.221 185.89 162.934 185.186 162.934 184.279H164.396C164.396 184.785 164.556 185.179 164.875 185.462C165.194 185.74 165.65 185.879 166.242 185.879C166.826 185.879 167.277 185.703 167.596 185.353C167.915 185.002 168.074 184.507 168.074 183.869C168.074 183.245 167.901 182.762 167.555 182.42C167.208 182.074 166.716 181.9 166.078 181.9C165.44 181.9 164.843 182.051 164.287 182.352L164.41 181.189C164.77 180.984 165.128 180.848 165.483 180.779C165.839 180.706 166.197 180.67 166.557 180.67C167.495 180.67 168.222 180.948 168.737 181.504C169.252 182.06 169.51 182.848 169.51 183.869C169.51 184.562 169.38 185.152 169.12 185.64C168.865 186.127 168.493 186.499 168.006 186.754C167.518 187.009 166.926 187.137 166.229 187.137ZM163.521 182.352L163.658 177.293H165.121L164.984 181.504L164.287 182.352H163.521ZM164.314 178.564L164.191 177.293H168.895V178.564H164.314ZM182.594 187.137C181.468 187.137 180.639 186.856 180.105 186.296C179.577 185.735 179.312 184.863 179.312 183.678L180.447 182.434H180.953C181.09 181.928 181.361 181.538 181.767 181.265C182.177 180.987 182.676 180.848 183.264 180.848C184.111 180.848 184.765 181.11 185.226 181.634C185.686 182.158 185.916 182.898 185.916 183.855C185.916 184.885 185.622 185.69 185.034 186.269C184.451 186.847 183.637 187.137 182.594 187.137ZM182.642 185.879C183.22 185.879 183.672 185.701 183.995 185.346C184.319 184.986 184.48 184.489 184.48 183.855C184.48 183.295 184.33 182.864 184.029 182.563C183.733 182.258 183.307 182.105 182.751 182.105C182.118 182.105 181.63 182.27 181.288 182.598C180.946 182.926 180.775 183.391 180.775 183.992C180.775 184.585 180.939 185.047 181.268 185.38C181.596 185.713 182.054 185.879 182.642 185.879ZM179.312 183.678V183.076C179.312 181.221 179.782 179.811 180.721 178.845C181.664 177.879 183.1 177.348 185.027 177.252L185.164 178.551C182.275 178.674 180.83 179.973 180.83 182.447V183.227L179.312 183.678ZM188.924 187V185.701H189.949C190.947 185.701 191.697 185.416 192.198 184.847C192.704 184.277 192.957 183.423 192.957 182.283C192.957 181.048 192.704 180.125 192.198 179.515C191.697 178.899 190.947 178.592 189.949 178.592H188.951L188.787 177.293H189.949C192.911 177.293 194.393 178.956 194.393 182.283C194.393 185.428 192.911 187 189.949 187H188.924ZM187.598 187V177.293H189.02V187H187.598ZM207.203 187.137C206.077 187.137 205.248 186.856 204.715 186.296C204.186 185.735 203.922 184.863 203.922 183.678L205.057 182.434H205.562C205.699 181.928 205.97 181.538 206.376 181.265C206.786 180.987 207.285 180.848 207.873 180.848C208.721 180.848 209.375 181.11 209.835 181.634C210.295 182.158 210.525 182.898 210.525 183.855C210.525 184.885 210.231 185.69 209.644 186.269C209.06 186.847 208.247 187.137 207.203 187.137ZM207.251 185.879C207.83 185.879 208.281 185.701 208.604 185.346C208.928 184.986 209.09 184.489 209.09 183.855C209.09 183.295 208.939 182.864 208.639 182.563C208.342 182.258 207.916 182.105 207.36 182.105C206.727 182.105 206.239 182.27 205.897 182.598C205.556 182.926 205.385 183.391 205.385 183.992C205.385 184.585 205.549 185.047 205.877 185.38C206.205 185.713 206.663 185.879 207.251 185.879ZM203.922 183.678V183.076C203.922 181.221 204.391 179.811 205.33 178.845C206.273 177.879 207.709 177.348 209.637 177.252L209.773 178.551C206.884 178.674 205.439 179.973 205.439 182.447V183.227L203.922 183.678ZM214.846 187V177.293H216.268V187H214.846ZM212.412 187V185.701H214.982V187H212.412ZM216.131 187V185.701H218.441V187H216.131ZM212.549 179.494V178.113L214.846 177.293V178.701L212.549 179.494ZM231.758 187.137C229.552 187.137 228.449 185.496 228.449 182.215C228.449 178.842 229.552 177.156 231.758 177.156C233.964 177.156 235.066 178.842 235.066 182.215C235.066 185.496 233.964 187.137 231.758 187.137ZM231.758 183.24C231.452 183.24 231.204 183.147 231.013 182.96C230.826 182.769 230.732 182.52 230.732 182.215C230.732 181.905 230.826 181.657 231.013 181.47C231.204 181.283 231.452 181.189 231.758 181.189C232.068 181.189 232.316 181.283 232.503 181.47C232.69 181.657 232.783 181.905 232.783 182.215C232.783 182.52 232.69 182.769 232.503 182.96C232.316 183.147 232.068 183.24 231.758 183.24ZM231.758 185.879C232.988 185.879 233.604 184.658 233.604 182.215C233.604 179.681 232.988 178.414 231.758 178.414C230.527 178.414 229.912 179.681 229.912 182.215C229.912 184.658 230.527 185.879 231.758 185.879ZM239.961 187.137C237.755 187.137 236.652 185.496 236.652 182.215C236.652 178.842 237.755 177.156 239.961 177.156C242.167 177.156 243.27 178.842 243.27 182.215C243.27 185.496 242.167 187.137 239.961 187.137ZM239.961 183.24C239.656 183.24 239.407 183.147 239.216 182.96C239.029 182.769 238.936 182.52 238.936 182.215C238.936 181.905 239.029 181.657 239.216 181.47C239.407 181.283 239.656 181.189 239.961 181.189C240.271 181.189 240.519 181.283 240.706 181.47C240.893 181.657 240.986 181.905 240.986 182.215C240.986 182.52 240.893 182.769 240.706 182.96C240.519 183.147 240.271 183.24 239.961 183.24ZM239.961 185.879C241.191 185.879 241.807 184.658 241.807 182.215C241.807 179.681 241.191 178.414 239.961 178.414C238.73 178.414 238.115 179.681 238.115 182.215C238.115 184.658 238.73 185.879 239.961 185.879ZM256.367 187.137C254.161 187.137 253.059 185.496 253.059 182.215C253.059 178.842 254.161 177.156 256.367 177.156C258.573 177.156 259.676 178.842 259.676 182.215C259.676 185.496 258.573 187.137 256.367 187.137ZM256.367 183.24C256.062 183.24 255.813 183.147 255.622 182.96C255.435 182.769 255.342 182.52 255.342 182.215C255.342 181.905 255.435 181.657 255.622 181.47C255.813 181.283 256.062 181.189 256.367 181.189C256.677 181.189 256.925 181.283 257.112 181.47C257.299 181.657 257.393 181.905 257.393 182.215C257.393 182.52 257.299 182.769 257.112 182.96C256.925 183.147 256.677 183.24 256.367 183.24ZM256.367 185.879C257.598 185.879 258.213 184.658 258.213 182.215C258.213 179.681 257.598 178.414 256.367 178.414C255.137 178.414 254.521 179.681 254.521 182.215C254.521 184.658 255.137 185.879 256.367 185.879ZM264.57 187.137C262.365 187.137 261.262 185.496 261.262 182.215C261.262 178.842 262.365 177.156 264.57 177.156C266.776 177.156 267.879 178.842 267.879 182.215C267.879 185.496 266.776 187.137 264.57 187.137ZM264.57 183.24C264.265 183.24 264.017 183.147 263.825 182.96C263.638 182.769 263.545 182.52 263.545 182.215C263.545 181.905 263.638 181.657 263.825 181.47C264.017 181.283 264.265 181.189 264.57 181.189C264.88 181.189 265.129 181.283 265.315 181.47C265.502 181.657 265.596 181.905 265.596 182.215C265.596 182.52 265.502 182.769 265.315 182.96C265.129 183.147 264.88 183.24 264.57 183.24ZM264.57 185.879C265.801 185.879 266.416 184.658 266.416 182.215C266.416 179.681 265.801 178.414 264.57 178.414C263.34 178.414 262.725 179.681 262.725 182.215C262.725 184.658 263.34 185.879 264.57 185.879ZM280.977 187.137C278.771 187.137 277.668 185.496 277.668 182.215C277.668 178.842 278.771 177.156 280.977 177.156C283.182 177.156 284.285 178.842 284.285 182.215C284.285 185.496 283.182 187.137 280.977 187.137ZM280.977 183.24C280.671 183.24 280.423 183.147 280.231 182.96C280.045 182.769 279.951 182.52 279.951 182.215C279.951 181.905 280.045 181.657 280.231 181.47C280.423 181.283 280.671 181.189 280.977 181.189C281.286 181.189 281.535 181.283 281.722 181.47C281.909 181.657 282.002 181.905 282.002 182.215C282.002 182.52 281.909 182.769 281.722 182.96C281.535 183.147 281.286 183.24 280.977 183.24ZM280.977 185.879C282.207 185.879 282.822 184.658 282.822 182.215C282.822 179.681 282.207 178.414 280.977 178.414C279.746 178.414 279.131 179.681 279.131 182.215C279.131 184.658 279.746 185.879 280.977 185.879ZM287.361 187V185.701H288.387C289.385 185.701 290.134 185.416 290.636 184.847C291.142 184.277 291.395 183.423 291.395 182.283C291.395 181.048 291.142 180.125 290.636 179.515C290.134 178.899 289.385 178.592 288.387 178.592H287.389L287.225 177.293H288.387C291.349 177.293 292.83 178.956 292.83 182.283C292.83 185.428 291.349 187 288.387 187H287.361ZM286.035 187V177.293H287.457V187H286.035ZM305.586 187.137C303.38 187.137 302.277 185.496 302.277 182.215C302.277 178.842 303.38 177.156 305.586 177.156C307.792 177.156 308.895 178.842 308.895 182.215C308.895 185.496 307.792 187.137 305.586 187.137ZM305.586 183.24C305.281 183.24 305.032 183.147 304.841 182.96C304.654 182.769 304.561 182.52 304.561 182.215C304.561 181.905 304.654 181.657 304.841 181.47C305.032 181.283 305.281 181.189 305.586 181.189C305.896 181.189 306.144 181.283 306.331 181.47C306.518 181.657 306.611 181.905 306.611 182.215C306.611 182.52 306.518 182.769 306.331 182.96C306.144 183.147 305.896 183.24 305.586 183.24ZM305.586 185.879C306.816 185.879 307.432 184.658 307.432 182.215C307.432 179.681 306.816 178.414 305.586 178.414C304.355 178.414 303.74 179.681 303.74 182.215C303.74 184.658 304.355 185.879 305.586 185.879ZM309.995 187L312.798 177.293H314.78L317.583 187H316.147L313.851 178.469H313.728L311.431 187H309.995ZM311.294 184.635V183.336H316.216V184.635H311.294ZM329.689 187V177.293H331.111V187H329.689ZM327.256 187V185.701H329.826V187H327.256ZM330.975 187V185.701H333.285V187H330.975ZM327.393 179.494V178.113L329.689 177.293V178.701L327.393 179.494ZM334.604 187L337.407 177.293H339.39L342.192 187H340.757L338.46 178.469H338.337L336.04 187H334.604ZM335.903 184.635V183.336H340.825V184.635H335.903ZM354.805 187.137C352.599 187.137 351.496 185.496 351.496 182.215C351.496 178.842 352.599 177.156 354.805 177.156C357.01 177.156 358.113 178.842 358.113 182.215C358.113 185.496 357.01 187.137 354.805 187.137ZM354.805 183.24C354.499 183.24 354.251 183.147 354.06 182.96C353.873 182.769 353.779 182.52 353.779 182.215C353.779 181.905 353.873 181.657 354.06 181.47C354.251 181.283 354.499 181.189 354.805 181.189C355.115 181.189 355.363 181.283 355.55 181.47C355.737 181.657 355.83 181.905 355.83 182.215C355.83 182.52 355.737 182.769 355.55 182.96C355.363 183.147 355.115 183.24 354.805 183.24ZM354.805 185.879C356.035 185.879 356.65 184.658 356.65 182.215C356.65 179.681 356.035 178.414 354.805 178.414C353.574 178.414 352.959 179.681 352.959 182.215C352.959 184.658 353.574 185.879 354.805 185.879ZM359.214 187L362.017 177.293H363.999L366.802 187H365.366L363.069 178.469H362.946L360.649 187H359.214ZM360.513 184.635V183.336H365.435V184.635H360.513Z" fill="#E1E1FF"/>
<rect x="48" y="235" width="512" height="96" rx="8" fill="#242638"/>
<g clip-path="url(#clip2_50_2761)">
<path d="M95.8828 267.653L93.5109 260.537C93.2062 259.619 92.3484 259 91.3781 259H85.75C85.2786 259 85.0429 259 84.8964 259.146C84.75 259.293 84.75 259.529 84.75 260V267C84.75 267.471 84.75 267.707 84.8964 267.854C85.0429 268 85.2786 268 85.75 268H95.587C95.7717 268 95.9412 267.828 95.8828 267.653ZM83.25 260C83.25 259.529 83.25 259.293 83.1036 259.146C82.9571 259 82.7214 259 82.25 259H76.6219C75.6516 259 74.7937 259.619 74.4891 260.537L72.1172 267.653C72.0588 267.828 72.2283 268 72.413 268H82.25C82.7214 268 82.9571 268 83.1036 267.854C83.25 267.707 83.25 267.471 83.25 267V260ZM73 269.5C72.5286 269.5 72.2929 269.5 72.1464 269.646C72 269.793 72 270.029 72 270.5V280.75C72 281.992 73.0078 283 74.25 283H93.75C94.9922 283 96 281.992 96 280.75V270.5C96 270.029 96 269.793 95.8536 269.646C95.7071 269.5 95.4714 269.5 95 269.5H73Z" fill="#E1E1FF"/>
</g>
<path d="M112.931 278.5L108.859 267.113H111.287L114.349 276.566H114.542L117.604 267.113H120.031L115.96 278.5H112.931ZM128.324 278.715C126.383 278.715 124.883 278.206 123.823 277.189C122.771 276.165 122.244 274.697 122.244 272.785C122.244 270.923 122.692 269.477 123.587 268.445C124.482 267.414 125.746 266.898 127.379 266.898C128.919 266.898 130.107 267.364 130.945 268.295C131.79 269.226 132.213 270.579 132.213 272.355C132.213 272.878 132.191 273.365 132.148 273.816H124.156V272.076H130.15C130.15 271.052 129.907 270.268 129.42 269.724C128.933 269.172 128.26 268.896 127.4 268.896C126.434 268.896 125.682 269.226 125.145 269.885C124.615 270.544 124.35 271.475 124.35 272.678C124.35 273.995 124.715 274.998 125.445 275.686C126.183 276.373 127.229 276.717 128.582 276.717C129.055 276.717 129.52 276.692 129.979 276.642C130.437 276.584 130.902 276.509 131.375 276.416L131.654 278.414C130.981 278.543 130.365 278.625 129.807 278.661C129.248 278.697 128.754 278.715 128.324 278.715ZM139.453 273.602L138.787 270.035H139.668C139.797 267.944 140.842 266.898 142.805 266.898C143.979 266.898 144.831 267.235 145.361 267.908C145.891 268.581 146.156 269.67 146.156 271.174H143.9C143.9 270.343 143.775 269.745 143.524 269.38C143.281 269.015 142.883 268.832 142.332 268.832C141.365 268.832 140.642 269.247 140.162 270.078C139.689 270.902 139.453 272.076 139.453 273.602ZM134.641 278.5V276.502H142.246V278.5H134.641ZM137.176 278.5V267.113H139.023L139.453 270.379V278.5H137.176ZM135.07 269.111V267.113H138.873L139.088 269.111H135.07ZM152.236 278.715C151.377 278.715 150.639 278.69 150.023 278.64C149.415 278.59 148.856 278.507 148.348 278.393L148.605 276.33C149.357 276.445 150.02 276.531 150.593 276.588C151.173 276.645 151.721 276.674 152.236 276.674C153.389 276.674 154.224 276.563 154.739 276.341C155.262 276.112 155.523 275.75 155.523 275.256C155.523 274.912 155.43 274.658 155.244 274.493C155.065 274.321 154.786 274.189 154.406 274.096L151.785 273.43C150.661 273.143 149.834 272.789 149.304 272.366C148.781 271.944 148.52 271.303 148.52 270.443C148.52 269.197 148.996 268.295 149.948 267.736C150.908 267.178 152.451 266.898 154.578 266.898C155.13 266.898 155.642 266.916 156.114 266.952C156.594 266.981 157.085 267.035 157.586 267.113L157.35 269.09C156.77 269.033 156.257 268.993 155.813 268.972C155.369 268.95 154.936 268.939 154.514 268.939C153.239 268.939 152.315 269.05 151.742 269.272C151.169 269.487 150.883 269.842 150.883 270.336C150.883 270.665 151.001 270.905 151.237 271.056C151.474 271.199 151.835 271.331 152.322 271.453L154.428 271.969C155.624 272.255 156.497 272.638 157.049 273.118C157.607 273.598 157.887 274.296 157.887 275.213C157.887 276.438 157.439 277.329 156.544 277.888C155.649 278.439 154.213 278.715 152.236 278.715ZM165.621 278.5V267.758H167.898V278.5H165.621ZM161.281 278.5V276.502H165.836V278.5H161.281ZM167.684 278.5V276.502H171.4V278.5H167.684ZM161.926 269.111V267.113H167.898V269.111H161.926ZM166.685 265.309C166.248 265.309 165.872 265.155 165.557 264.847C165.249 264.532 165.095 264.156 165.095 263.719C165.095 263.275 165.249 262.899 165.557 262.591C165.872 262.283 166.248 262.129 166.685 262.129C167.129 262.129 167.505 262.283 167.812 262.591C168.12 262.899 168.274 263.275 168.274 263.719C168.274 264.156 168.12 264.532 167.812 264.847C167.505 265.155 167.129 265.309 166.685 265.309ZM178.898 278.715C177.323 278.715 176.098 278.199 175.225 277.168C174.351 276.137 173.914 274.683 173.914 272.807C173.914 270.923 174.351 269.469 175.225 268.445C176.098 267.414 177.323 266.898 178.898 266.898C180.481 266.898 181.706 267.414 182.572 268.445C183.446 269.469 183.883 270.923 183.883 272.807C183.883 274.683 183.446 276.137 182.572 277.168C181.706 278.199 180.481 278.715 178.898 278.715ZM178.898 276.674C179.736 276.674 180.381 276.337 180.832 275.664C181.29 274.991 181.52 274.038 181.52 272.807C181.52 271.568 181.29 270.615 180.832 269.949C180.381 269.276 179.736 268.939 178.898 268.939C178.061 268.939 177.412 269.276 176.954 269.949C176.503 270.615 176.277 271.568 176.277 272.807C176.277 274.038 176.503 274.991 176.954 275.664C177.412 276.337 178.061 276.674 178.898 276.674ZM194.152 278.5V271.088C194.152 270.4 193.973 269.87 193.615 269.498C193.257 269.126 192.756 268.939 192.111 268.939C190.321 268.939 189.426 269.992 189.426 272.098L188.76 269.176H189.641C189.705 268.41 189.984 267.84 190.479 267.468C190.973 267.088 191.696 266.898 192.648 266.898C193.852 266.898 194.783 267.264 195.441 267.994C196.1 268.725 196.43 269.756 196.43 271.088V278.5H194.152ZM187.148 278.5V267.113H189.211L189.426 269.52V278.5H187.148Z" fill="#E1E1FF"/>
<path d="M437.693 278.5V263.246H439.842V278.5H437.693ZM433.826 278.5V276.459H437.908V278.5H433.826ZM439.627 278.5V276.459H443.301V278.5H439.627ZM434.041 266.705V264.535L437.693 263.246V265.459L434.041 266.705ZM446.523 278.5V276.094C448.88 274.79 450.638 273.43 451.798 272.012C452.965 270.594 453.549 269.133 453.549 267.629C453.549 266.755 453.334 266.1 452.904 265.663C452.475 265.226 451.823 265.008 450.949 265.008C450.369 265.008 449.764 265.176 449.134 265.513C448.504 265.849 447.963 266.297 447.512 266.855L446.029 265.384C446.523 264.675 447.225 264.105 448.135 263.676C449.044 263.246 449.997 263.031 450.992 263.031C452.604 263.031 453.807 263.414 454.602 264.181C455.404 264.94 455.805 266.089 455.805 267.629C455.805 269.176 455.314 270.662 454.333 272.087C453.359 273.505 451.873 274.869 449.875 276.18V278.5H446.523ZM447.168 278.5V276.502H456.449V278.5H447.168ZM475.291 278.715C474.826 278.715 474.364 278.693 473.905 278.65C473.447 278.615 472.981 278.564 472.509 278.5L473.314 276.803C473.665 276.939 474.052 277.021 474.475 277.05C474.904 277.078 475.327 277.093 475.742 277.093C477.275 277.093 478.456 276.656 479.287 275.782C480.125 274.901 480.544 273.659 480.544 272.055C480.544 270.923 480.29 270.053 479.781 269.444C479.273 268.828 478.546 268.521 477.601 268.521C475.431 268.521 474.346 269.713 474.346 272.098L473.68 269.176H474.528C474.772 267.658 475.832 266.898 477.708 266.898C479.198 266.898 480.351 267.346 481.167 268.241C481.983 269.136 482.392 270.408 482.392 272.055C482.392 274.167 481.772 275.807 480.533 276.975C479.294 278.135 477.547 278.715 475.291 278.715ZM472.509 278.5V262.387H474.346V278.307L472.509 278.5ZM484.454 283.656L484.368 281.97L485.797 281.787C486.527 281.68 487.165 281.454 487.709 281.11C488.253 280.774 488.737 280.269 489.159 279.596C489.582 278.923 489.968 278.042 490.319 276.953L493.499 267.113H495.454L491.855 277.49C491.383 278.851 490.878 279.95 490.341 280.788C489.804 281.626 489.188 282.253 488.493 282.668C487.806 283.083 486.993 283.348 486.055 283.463L484.454 283.656ZM488.923 278.5L484.239 267.113H486.194L490.158 277.028H490.47L490.448 278.5H488.923ZM504.961 278.715C503.364 278.715 502.197 278.35 501.459 277.619C500.729 276.882 500.363 275.732 500.363 274.171V272.27H502.211V274.096C502.211 275.098 502.447 275.84 502.92 276.319C503.393 276.792 504.145 277.028 505.176 277.028C505.562 277.028 505.953 277.01 506.347 276.975C506.748 276.932 507.181 276.874 507.646 276.803L507.861 278.457C507.374 278.543 506.898 278.607 506.433 278.65C505.974 278.693 505.484 278.715 504.961 278.715ZM500.363 273.129V263.676H502.211V273.129H500.363ZM497.291 268.682V267.113H507.432V268.682H497.291ZM516.885 278.715C514.973 278.715 513.494 278.199 512.448 277.168C511.41 276.13 510.891 274.654 510.891 272.742C510.891 270.887 511.331 269.451 512.212 268.435C513.093 267.41 514.335 266.898 515.939 266.898C517.451 266.898 518.618 267.36 519.441 268.284C520.272 269.208 520.688 270.536 520.688 272.27C520.688 272.749 520.666 273.179 520.623 273.559H512.427V272.076H518.969C518.969 270.952 518.704 270.085 518.174 269.477C517.644 268.868 516.906 268.563 515.961 268.563C514.908 268.563 514.092 268.922 513.512 269.638C512.932 270.354 512.642 271.367 512.642 272.678C512.642 274.089 513.032 275.17 513.812 275.922C514.6 276.674 515.71 277.05 517.143 277.05C517.594 277.05 518.049 277.025 518.507 276.975C518.972 276.917 519.434 276.842 519.893 276.749L520.129 278.414C519.542 278.529 518.972 278.607 518.421 278.65C517.869 278.693 517.357 278.715 516.885 278.715ZM527.799 278.715C526.954 278.715 526.23 278.69 525.629 278.64C525.027 278.59 524.483 278.507 523.996 278.393L524.211 276.674C524.956 276.796 525.611 276.885 526.177 276.942C526.75 277 527.29 277.028 527.799 277.028C529.074 277.028 529.997 276.899 530.57 276.642C531.15 276.377 531.44 275.958 531.44 275.385C531.44 274.984 531.322 274.672 531.086 274.45C530.85 274.221 530.477 274.042 529.969 273.913L527.38 273.258C526.263 272.979 525.446 272.617 524.931 272.173C524.422 271.729 524.168 271.102 524.168 270.293C524.168 269.097 524.637 268.234 525.575 267.704C526.521 267.167 528.042 266.898 530.141 266.898C530.663 266.898 531.15 266.916 531.602 266.952C532.06 266.981 532.547 267.035 533.062 267.113L532.869 268.735C532.282 268.678 531.77 268.639 531.333 268.617C530.896 268.596 530.477 268.585 530.076 268.585C528.673 268.585 527.656 268.714 527.025 268.972C526.402 269.229 526.091 269.648 526.091 270.229C526.091 270.594 526.234 270.88 526.521 271.088C526.814 271.296 527.272 271.478 527.896 271.636L529.969 272.141C531.158 272.42 532.021 272.807 532.558 273.301C533.095 273.795 533.363 274.479 533.363 275.353C533.363 276.534 532.923 277.39 532.042 277.92C531.161 278.45 529.747 278.715 527.799 278.715Z" fill="#E1E1FF"/>
<path opacity="0.75" d="M75.4766 307L72.3516 295.906H74.0234L76.6172 305.672H76.7578L79.3516 295.906H81.0234L77.8984 307H75.4766ZM86.8594 307.156C85.4479 307.156 84.3568 306.786 83.5859 306.047C82.8203 305.302 82.4375 304.234 82.4375 302.844C82.4375 301.49 82.763 300.438 83.4141 299.688C84.0651 298.938 84.9844 298.562 86.1719 298.562C87.2917 298.562 88.1562 298.901 88.7656 299.578C89.3802 300.255 89.6875 301.24 89.6875 302.531C89.6875 302.911 89.6719 303.266 89.6406 303.594H83.8281V302.328H88.1875C88.1875 301.583 88.0104 301.013 87.6562 300.617C87.3021 300.216 86.8125 300.016 86.1875 300.016C85.4844 300.016 84.9375 300.255 84.5469 300.734C84.1615 301.214 83.9688 301.891 83.9688 302.766C83.9688 303.724 84.2344 304.453 84.7656 304.953C85.3021 305.453 86.0625 305.703 87.0469 305.703C87.3906 305.703 87.7292 305.685 88.0625 305.648C88.3958 305.607 88.7344 305.552 89.0781 305.484L89.2812 306.938C88.7917 307.031 88.3438 307.091 87.9375 307.117C87.5312 307.143 87.1719 307.156 86.8594 307.156ZM94.875 303.438L94.3906 300.844H95.0312C95.125 299.323 95.8854 298.562 97.3125 298.562C98.1667 298.562 98.7865 298.807 99.1719 299.297C99.5573 299.786 99.75 300.578 99.75 301.672H98.1094C98.1094 301.068 98.0182 300.633 97.8359 300.367C97.6589 300.102 97.3698 299.969 96.9688 299.969C96.2656 299.969 95.7396 300.271 95.3906 300.875C95.0469 301.474 94.875 302.328 94.875 303.438ZM91.375 307V305.641H96.9062V307H91.375ZM93.2188 307V298.719H94.5625L94.875 301.094V307H93.2188ZM91.6875 300.078V298.719H94.4531L94.6094 300.078H91.6875ZM104.172 307.156C103.547 307.156 103.01 307.138 102.562 307.102C102.12 307.065 101.714 307.005 101.344 306.922L101.531 305.422C102.078 305.505 102.56 305.568 102.977 305.609C103.398 305.651 103.797 305.672 104.172 305.672C105.01 305.672 105.617 305.591 105.992 305.43C106.372 305.263 106.562 305 106.562 304.641C106.562 304.391 106.495 304.206 106.359 304.086C106.229 303.961 106.026 303.865 105.75 303.797L103.844 303.312C103.026 303.104 102.424 302.846 102.039 302.539C101.659 302.232 101.469 301.766 101.469 301.141C101.469 300.234 101.815 299.578 102.508 299.172C103.206 298.766 104.328 298.562 105.875 298.562C106.276 298.562 106.648 298.576 106.992 298.602C107.341 298.622 107.698 298.661 108.062 298.719L107.891 300.156C107.469 300.115 107.096 300.086 106.773 300.07C106.451 300.055 106.135 300.047 105.828 300.047C104.901 300.047 104.229 300.128 103.812 300.289C103.396 300.445 103.188 300.703 103.188 301.062C103.188 301.302 103.273 301.477 103.445 301.586C103.617 301.69 103.88 301.786 104.234 301.875L105.766 302.25C106.635 302.458 107.271 302.737 107.672 303.086C108.078 303.435 108.281 303.943 108.281 304.609C108.281 305.5 107.956 306.148 107.305 306.555C106.654 306.956 105.609 307.156 104.172 307.156ZM113.906 307V299.188H115.562V307H113.906ZM110.75 307V305.641H114.062V307H110.75ZM115.406 307V305.641H118.109V307H115.406ZM111.219 300.078V298.719H115.562V300.078H111.219ZM114.68 297.406C114.362 297.406 114.089 297.294 113.859 297.07C113.635 296.841 113.523 296.568 113.523 296.25C113.523 295.927 113.635 295.654 113.859 295.43C114.089 295.206 114.362 295.094 114.68 295.094C115.003 295.094 115.276 295.206 115.5 295.43C115.724 295.654 115.836 295.927 115.836 296.25C115.836 296.568 115.724 296.841 115.5 297.07C115.276 297.294 115.003 297.406 114.68 297.406ZM123.562 307.156C122.417 307.156 121.526 306.781 120.891 306.031C120.255 305.281 119.938 304.224 119.938 302.859C119.938 301.49 120.255 300.432 120.891 299.688C121.526 298.938 122.417 298.562 123.562 298.562C124.714 298.562 125.604 298.938 126.234 299.688C126.87 300.432 127.188 301.49 127.188 302.859C127.188 304.224 126.87 305.281 126.234 306.031C125.604 306.781 124.714 307.156 123.562 307.156ZM123.562 305.672C124.172 305.672 124.641 305.427 124.969 304.938C125.302 304.448 125.469 303.755 125.469 302.859C125.469 301.958 125.302 301.266 124.969 300.781C124.641 300.292 124.172 300.047 123.562 300.047C122.953 300.047 122.482 300.292 122.148 300.781C121.82 301.266 121.656 301.958 121.656 302.859C121.656 303.755 121.82 304.448 122.148 304.938C122.482 305.427 122.953 305.672 123.562 305.672ZM134.656 307V301.609C134.656 301.109 134.526 300.724 134.266 300.453C134.005 300.182 133.641 300.047 133.172 300.047C131.87 300.047 131.219 300.812 131.219 302.344L130.734 300.219H131.375C131.422 299.661 131.625 299.247 131.984 298.977C132.344 298.701 132.87 298.562 133.562 298.562C134.438 298.562 135.115 298.828 135.594 299.359C136.073 299.891 136.312 300.641 136.312 301.609V307H134.656ZM129.562 307V298.719H131.062L131.219 300.469V307H129.562ZM151.047 307.156C150.422 307.156 149.885 307.138 149.438 307.102C148.995 307.065 148.589 307.005 148.219 306.922L148.406 305.422C148.953 305.505 149.435 305.568 149.852 305.609C150.273 305.651 150.672 305.672 151.047 305.672C151.885 305.672 152.492 305.591 152.867 305.43C153.247 305.263 153.438 305 153.438 304.641C153.438 304.391 153.37 304.206 153.234 304.086C153.104 303.961 152.901 303.865 152.625 303.797L150.719 303.312C149.901 303.104 149.299 302.846 148.914 302.539C148.534 302.232 148.344 301.766 148.344 301.141C148.344 300.234 148.69 299.578 149.383 299.172C150.081 298.766 151.203 298.562 152.75 298.562C153.151 298.562 153.523 298.576 153.867 298.602C154.216 298.622 154.573 298.661 154.938 298.719L154.766 300.156C154.344 300.115 153.971 300.086 153.648 300.07C153.326 300.055 153.01 300.047 152.703 300.047C151.776 300.047 151.104 300.128 150.688 300.289C150.271 300.445 150.062 300.703 150.062 301.062C150.062 301.302 150.148 301.477 150.32 301.586C150.492 301.69 150.755 301.786 151.109 301.875L152.641 302.25C153.51 302.458 154.146 302.737 154.547 303.086C154.953 303.435 155.156 303.943 155.156 304.609C155.156 305.5 154.831 306.148 154.18 306.555C153.529 306.956 152.484 307.156 151.047 307.156ZM160.781 307V299.188H162.438V307H160.781ZM157.625 307V305.641H160.938V307H157.625ZM162.281 307V305.641H164.984V307H162.281ZM158.094 300.078V298.719H162.438V300.078H158.094ZM161.555 297.406C161.237 297.406 160.964 297.294 160.734 297.07C160.51 296.841 160.398 296.568 160.398 296.25C160.398 295.927 160.51 295.654 160.734 295.43C160.964 295.206 161.237 295.094 161.555 295.094C161.878 295.094 162.151 295.206 162.375 295.43C162.599 295.654 162.711 295.927 162.711 296.25C162.711 296.568 162.599 296.841 162.375 297.07C162.151 297.294 161.878 297.406 161.555 297.406ZM167.172 310.734L167.094 309.219L169.75 309.141C170.589 309.115 171.198 308.883 171.578 308.445C171.958 308.008 172.151 307.365 172.156 306.516V300.469L172.312 298.719H173.812V306.266C173.812 307.74 173.477 308.828 172.805 309.531C172.133 310.234 171.062 310.609 169.594 310.656L167.172 310.734ZM169.805 307.156C168.721 307.156 167.898 306.799 167.336 306.086C166.779 305.372 166.5 304.323 166.5 302.938C166.5 301.5 166.779 300.411 167.336 299.672C167.898 298.932 168.721 298.562 169.805 298.562C170.451 298.562 170.974 298.708 171.375 299C171.776 299.292 172.01 299.698 172.078 300.219H172.719L172.156 302.578C172.156 301.724 171.987 301.076 171.648 300.633C171.315 300.19 170.823 299.969 170.172 299.969C169.505 299.969 169 300.219 168.656 300.719C168.312 301.219 168.141 301.958 168.141 302.938C168.141 303.865 168.312 304.565 168.656 305.039C169 305.513 169.505 305.75 170.172 305.75C170.823 305.75 171.315 305.529 171.648 305.086C171.987 304.643 172.156 303.995 172.156 303.141L172.719 305.5H172C171.948 306.021 171.727 306.427 171.336 306.719C170.951 307.01 170.44 307.156 169.805 307.156ZM181.531 307V301.609C181.531 301.109 181.401 300.724 181.141 300.453C180.88 300.182 180.516 300.047 180.047 300.047C178.745 300.047 178.094 300.812 178.094 302.344L177.609 300.219H178.25C178.297 299.661 178.5 299.247 178.859 298.977C179.219 298.701 179.745 298.562 180.438 298.562C181.312 298.562 181.99 298.828 182.469 299.359C182.948 299.891 183.188 300.641 183.188 301.609V307H181.531ZM176.438 307V298.719H177.938L178.094 300.469V307H176.438ZM190.891 307.078L190.781 304.625L190.562 303.938V301.797C190.562 301.245 190.367 300.841 189.977 300.586C189.591 300.326 189.016 300.185 188.25 300.164L186.266 300.109L186.422 298.641L188.094 298.664C189.464 298.685 190.479 298.982 191.141 299.555C191.807 300.122 192.141 300.953 192.141 302.047V305.5L193.547 305.672V307L190.891 307.078ZM187.969 307.156C187.104 307.156 186.435 306.948 185.961 306.531C185.487 306.115 185.25 305.526 185.25 304.766C185.25 303.891 185.576 303.219 186.227 302.75C186.883 302.281 187.807 302.047 189 302.047C189.495 302.047 189.935 302.078 190.32 302.141C190.711 302.198 191.057 302.286 191.359 302.406L191.016 303.531C190.667 303.453 190.326 303.409 189.992 303.398C189.659 303.383 189.318 303.375 188.969 303.375C187.531 303.375 186.812 303.812 186.812 304.688C186.812 305.052 186.935 305.333 187.18 305.531C187.43 305.729 187.781 305.828 188.234 305.828C188.75 305.828 189.18 305.74 189.523 305.562C189.872 305.385 190.133 305.159 190.305 304.883C190.477 304.607 190.562 304.323 190.562 304.031V303.125L191.047 305.25H190.391L190.656 305C190.656 305.479 190.544 305.88 190.32 306.203C190.102 306.521 189.792 306.76 189.391 306.922C188.99 307.078 188.516 307.156 187.969 307.156ZM200.062 307.156C198.807 307.156 197.898 306.896 197.336 306.375C196.779 305.854 196.5 305.021 196.5 303.875V302.469H198.156V303.797C198.156 304.453 198.315 304.93 198.633 305.227C198.956 305.523 199.484 305.672 200.219 305.672C200.479 305.672 200.755 305.659 201.047 305.633C201.339 305.602 201.672 305.562 202.047 305.516L202.234 306.969C201.87 307.031 201.513 307.078 201.164 307.109C200.82 307.141 200.453 307.156 200.062 307.156ZM196.5 303.094V296.219H198.156V303.094H196.5ZM194.422 300.078V298.719H201.922V300.078H194.422ZM207.125 307.156C206.255 307.156 205.581 306.898 205.102 306.383C204.628 305.862 204.391 305.13 204.391 304.188V298.719H206.047V304.188C206.047 304.661 206.182 305.029 206.453 305.289C206.724 305.544 207.104 305.672 207.594 305.672C208.198 305.672 208.654 305.482 208.961 305.102C209.268 304.716 209.422 304.073 209.422 303.172L209.844 305.406H209.297C209.167 305.969 208.911 306.401 208.531 306.703C208.151 307.005 207.682 307.156 207.125 307.156ZM209.562 307.078L209.422 305.094V303.641H211.078V305.5L212.219 305.672V307L209.562 307.078ZM209.422 304.656V298.719H211.078V304.188L209.422 304.656ZM216.75 303.438L216.266 300.844H216.906C217 299.323 217.76 298.562 219.188 298.562C220.042 298.562 220.661 298.807 221.047 299.297C221.432 299.786 221.625 300.578 221.625 301.672H219.984C219.984 301.068 219.893 300.633 219.711 300.367C219.534 300.102 219.245 299.969 218.844 299.969C218.141 299.969 217.615 300.271 217.266 300.875C216.922 301.474 216.75 302.328 216.75 303.438ZM213.25 307V305.641H218.781V307H213.25ZM215.094 307V298.719H216.438L216.75 301.094V307H215.094ZM213.562 300.078V298.719H216.328L216.484 300.078H213.562ZM227.484 307.156C226.073 307.156 224.982 306.786 224.211 306.047C223.445 305.302 223.062 304.234 223.062 302.844C223.062 301.49 223.388 300.438 224.039 299.688C224.69 298.938 225.609 298.562 226.797 298.562C227.917 298.562 228.781 298.901 229.391 299.578C230.005 300.255 230.312 301.24 230.312 302.531C230.312 302.911 230.297 303.266 230.266 303.594H224.453V302.328H228.812C228.812 301.583 228.635 301.013 228.281 300.617C227.927 300.216 227.438 300.016 226.812 300.016C226.109 300.016 225.562 300.255 225.172 300.734C224.786 301.214 224.594 301.891 224.594 302.766C224.594 303.724 224.859 304.453 225.391 304.953C225.927 305.453 226.688 305.703 227.672 305.703C228.016 305.703 228.354 305.685 228.688 305.648C229.021 305.607 229.359 305.552 229.703 305.484L229.906 306.938C229.417 307.031 228.969 307.091 228.562 307.117C228.156 307.143 227.797 307.156 227.484 307.156ZM234.594 310.406L235.219 305.016H237.031L236.094 310.406H234.594ZM251.438 310.594V298.719H252.938L253.094 300.469V310.594H251.438ZM255.445 307.156C254.81 307.156 254.297 307.01 253.906 306.719C253.521 306.427 253.302 306.021 253.25 305.5H252.531L253.094 303.141C253.094 303.995 253.26 304.643 253.594 305.086C253.932 305.529 254.427 305.75 255.078 305.75C255.745 305.75 256.25 305.513 256.594 305.039C256.938 304.565 257.109 303.865 257.109 302.938C257.109 301.958 256.938 301.219 256.594 300.719C256.25 300.219 255.745 299.969 255.078 299.969C254.427 299.969 253.932 300.19 253.594 300.633C253.26 301.076 253.094 301.724 253.094 302.578L252.531 300.219H253.172C253.245 299.698 253.479 299.292 253.875 299C254.276 298.708 254.799 298.562 255.445 298.562C256.534 298.562 257.357 298.932 257.914 299.672C258.471 300.411 258.75 301.5 258.75 302.938C258.75 304.323 258.471 305.372 257.914 306.086C257.357 306.799 256.534 307.156 255.445 307.156ZM264.188 307.156C263.042 307.156 262.151 306.781 261.516 306.031C260.88 305.281 260.562 304.224 260.562 302.859C260.562 301.49 260.88 300.432 261.516 299.688C262.151 298.938 263.042 298.562 264.188 298.562C265.339 298.562 266.229 298.938 266.859 299.688C267.495 300.432 267.812 301.49 267.812 302.859C267.812 304.224 267.495 305.281 266.859 306.031C266.229 306.781 265.339 307.156 264.188 307.156ZM264.188 305.672C264.797 305.672 265.266 305.427 265.594 304.938C265.927 304.448 266.094 303.755 266.094 302.859C266.094 301.958 265.927 301.266 265.594 300.781C265.266 300.292 264.797 300.047 264.188 300.047C263.578 300.047 263.107 300.292 262.773 300.781C262.445 301.266 262.281 301.958 262.281 302.859C262.281 303.755 262.445 304.448 262.773 304.938C263.107 305.427 263.578 305.672 264.188 305.672ZM272.922 307.156C272.297 307.156 271.76 307.138 271.312 307.102C270.87 307.065 270.464 307.005 270.094 306.922L270.281 305.422C270.828 305.505 271.31 305.568 271.727 305.609C272.148 305.651 272.547 305.672 272.922 305.672C273.76 305.672 274.367 305.591 274.742 305.43C275.122 305.263 275.312 305 275.312 304.641C275.312 304.391 275.245 304.206 275.109 304.086C274.979 303.961 274.776 303.865 274.5 303.797L272.594 303.312C271.776 303.104 271.174 302.846 270.789 302.539C270.409 302.232 270.219 301.766 270.219 301.141C270.219 300.234 270.565 299.578 271.258 299.172C271.956 298.766 273.078 298.562 274.625 298.562C275.026 298.562 275.398 298.576 275.742 298.602C276.091 298.622 276.448 298.661 276.812 298.719L276.641 300.156C276.219 300.115 275.846 300.086 275.523 300.07C275.201 300.055 274.885 300.047 274.578 300.047C273.651 300.047 272.979 300.128 272.562 300.289C272.146 300.445 271.938 300.703 271.938 301.062C271.938 301.302 272.023 301.477 272.195 301.586C272.367 301.69 272.63 301.786 272.984 301.875L274.516 302.25C275.385 302.458 276.021 302.737 276.422 303.086C276.828 303.435 277.031 303.943 277.031 304.609C277.031 305.5 276.706 306.148 276.055 306.555C275.404 306.956 274.359 307.156 272.922 307.156ZM282.297 307.156C281.672 307.156 281.135 307.138 280.688 307.102C280.245 307.065 279.839 307.005 279.469 306.922L279.656 305.422C280.203 305.505 280.685 305.568 281.102 305.609C281.523 305.651 281.922 305.672 282.297 305.672C283.135 305.672 283.742 305.591 284.117 305.43C284.497 305.263 284.688 305 284.688 304.641C284.688 304.391 284.62 304.206 284.484 304.086C284.354 303.961 284.151 303.865 283.875 303.797L281.969 303.312C281.151 303.104 280.549 302.846 280.164 302.539C279.784 302.232 279.594 301.766 279.594 301.141C279.594 300.234 279.94 299.578 280.633 299.172C281.331 298.766 282.453 298.562 284 298.562C284.401 298.562 284.773 298.576 285.117 298.602C285.466 298.622 285.823 298.661 286.188 298.719L286.016 300.156C285.594 300.115 285.221 300.086 284.898 300.07C284.576 300.055 284.26 300.047 283.953 300.047C283.026 300.047 282.354 300.128 281.938 300.289C281.521 300.445 281.312 300.703 281.312 301.062C281.312 301.302 281.398 301.477 281.57 301.586C281.742 301.69 282.005 301.786 282.359 301.875L283.891 302.25C284.76 302.458 285.396 302.737 285.797 303.086C286.203 303.435 286.406 303.943 286.406 304.609C286.406 305.5 286.081 306.148 285.43 306.555C284.779 306.956 283.734 307.156 282.297 307.156ZM292.031 307V299.188H293.688V307H292.031ZM288.875 307V305.641H292.188V307H288.875ZM293.531 307V305.641H296.234V307H293.531ZM289.344 300.078V298.719H293.688V300.078H289.344ZM292.805 297.406C292.487 297.406 292.214 297.294 291.984 297.07C291.76 296.841 291.648 296.568 291.648 296.25C291.648 295.927 291.76 295.654 291.984 295.43C292.214 295.206 292.487 295.094 292.805 295.094C293.128 295.094 293.401 295.206 293.625 295.43C293.849 295.654 293.961 295.927 293.961 296.25C293.961 296.568 293.849 296.841 293.625 297.07C293.401 297.294 293.128 297.406 292.805 297.406ZM300.492 307.156C300.117 307.156 299.747 307.141 299.383 307.109C299.018 307.083 298.648 307.047 298.273 307L298.914 305.484C299.19 305.615 299.495 305.693 299.828 305.719C300.161 305.74 300.492 305.75 300.82 305.75C301.815 305.75 302.583 305.451 303.125 304.852C303.672 304.253 303.945 303.406 303.945 302.312C303.945 301.562 303.779 300.984 303.445 300.578C303.117 300.172 302.648 299.969 302.039 299.969C300.633 299.969 299.93 300.76 299.93 302.344L299.445 300.219H300.086C300.164 299.115 300.841 298.562 302.117 298.562C303.221 298.562 304.076 298.888 304.68 299.539C305.284 300.19 305.586 301.115 305.586 302.312C305.586 303.849 305.141 305.042 304.25 305.891C303.365 306.734 302.112 307.156 300.492 307.156ZM298.273 307V295.281H299.93V306.859L298.273 307ZM312.297 307.156C311.339 307.156 310.646 306.896 310.219 306.375C309.792 305.854 309.578 305.021 309.578 303.875V295.281H311.234V303.797C311.234 304.234 311.276 304.591 311.359 304.867C311.443 305.143 311.604 305.346 311.844 305.477C312.089 305.607 312.448 305.672 312.922 305.672C313.354 305.672 313.906 305.573 314.578 305.375L314.766 306.828C314.344 306.943 313.938 307.026 313.547 307.078C313.161 307.13 312.745 307.156 312.297 307.156ZM307.141 296.641V295.281H309.719V296.641H307.141ZM321.234 307.156C319.823 307.156 318.732 306.786 317.961 306.047C317.195 305.302 316.812 304.234 316.812 302.844C316.812 301.49 317.138 300.438 317.789 299.688C318.44 298.938 319.359 298.562 320.547 298.562C321.667 298.562 322.531 298.901 323.141 299.578C323.755 300.255 324.062 301.24 324.062 302.531C324.062 302.911 324.047 303.266 324.016 303.594H318.203V302.328H322.562C322.562 301.583 322.385 301.013 322.031 300.617C321.677 300.216 321.188 300.016 320.562 300.016C319.859 300.016 319.312 300.255 318.922 300.734C318.536 301.214 318.344 301.891 318.344 302.766C318.344 303.724 318.609 304.453 319.141 304.953C319.677 305.453 320.438 305.703 321.422 305.703C321.766 305.703 322.104 305.685 322.438 305.648C322.771 305.607 323.109 305.552 323.453 305.484L323.656 306.938C323.167 307.031 322.719 307.091 322.312 307.117C321.906 307.143 321.547 307.156 321.234 307.156ZM338.086 307L335.125 298.719H336.891L339.117 305.594H339.258L341.484 298.719H343.25L340.289 307H338.086ZM350.266 307.078L350.156 304.625L349.938 303.938V301.797C349.938 301.245 349.742 300.841 349.352 300.586C348.966 300.326 348.391 300.185 347.625 300.164L345.641 300.109L345.797 298.641L347.469 298.664C348.839 298.685 349.854 298.982 350.516 299.555C351.182 300.122 351.516 300.953 351.516 302.047V305.5L352.922 305.672V307L350.266 307.078ZM347.344 307.156C346.479 307.156 345.81 306.948 345.336 306.531C344.862 306.115 344.625 305.526 344.625 304.766C344.625 303.891 344.951 303.219 345.602 302.75C346.258 302.281 347.182 302.047 348.375 302.047C348.87 302.047 349.31 302.078 349.695 302.141C350.086 302.198 350.432 302.286 350.734 302.406L350.391 303.531C350.042 303.453 349.701 303.409 349.367 303.398C349.034 303.383 348.693 303.375 348.344 303.375C346.906 303.375 346.188 303.812 346.188 304.688C346.188 305.052 346.31 305.333 346.555 305.531C346.805 305.729 347.156 305.828 347.609 305.828C348.125 305.828 348.555 305.74 348.898 305.562C349.247 305.385 349.508 305.159 349.68 304.883C349.852 304.607 349.938 304.323 349.938 304.031V303.125L350.422 305.25H349.766L350.031 305C350.031 305.479 349.919 305.88 349.695 306.203C349.477 306.521 349.167 306.76 348.766 306.922C348.365 307.078 347.891 307.156 347.344 307.156ZM359.172 307.156C358.214 307.156 357.521 306.896 357.094 306.375C356.667 305.854 356.453 305.021 356.453 303.875V295.281H358.109V303.797C358.109 304.234 358.151 304.591 358.234 304.867C358.318 305.143 358.479 305.346 358.719 305.477C358.964 305.607 359.323 305.672 359.797 305.672C360.229 305.672 360.781 305.573 361.453 305.375L361.641 306.828C361.219 306.943 360.812 307.026 360.422 307.078C360.036 307.13 359.62 307.156 359.172 307.156ZM354.016 296.641V295.281H356.594V296.641H354.016ZM366.5 307.156C365.63 307.156 364.956 306.898 364.477 306.383C364.003 305.862 363.766 305.13 363.766 304.188V298.719H365.422V304.188C365.422 304.661 365.557 305.029 365.828 305.289C366.099 305.544 366.479 305.672 366.969 305.672C367.573 305.672 368.029 305.482 368.336 305.102C368.643 304.716 368.797 304.073 368.797 303.172L369.219 305.406H368.672C368.542 305.969 368.286 306.401 367.906 306.703C367.526 307.005 367.057 307.156 366.5 307.156ZM368.938 307.078L368.797 305.094V303.641H370.453V305.5L371.594 305.672V307L368.938 307.078ZM368.797 304.656V298.719H370.453V304.188L368.797 304.656ZM377.484 307.156C376.073 307.156 374.982 306.786 374.211 306.047C373.445 305.302 373.062 304.234 373.062 302.844C373.062 301.49 373.388 300.438 374.039 299.688C374.69 298.938 375.609 298.562 376.797 298.562C377.917 298.562 378.781 298.901 379.391 299.578C380.005 300.255 380.312 301.24 380.312 302.531C380.312 302.911 380.297 303.266 380.266 303.594H374.453V302.328H378.812C378.812 301.583 378.635 301.013 378.281 300.617C377.927 300.216 377.438 300.016 376.812 300.016C376.109 300.016 375.562 300.255 375.172 300.734C374.786 301.214 374.594 301.891 374.594 302.766C374.594 303.724 374.859 304.453 375.391 304.953C375.927 305.453 376.688 305.703 377.672 305.703C378.016 305.703 378.354 305.685 378.688 305.648C379.021 305.607 379.359 305.552 379.703 305.484L379.906 306.938C379.417 307.031 378.969 307.091 378.562 307.117C378.156 307.143 377.797 307.156 377.484 307.156ZM385.422 307.156C384.797 307.156 384.26 307.138 383.812 307.102C383.37 307.065 382.964 307.005 382.594 306.922L382.781 305.422C383.328 305.505 383.81 305.568 384.227 305.609C384.648 305.651 385.047 305.672 385.422 305.672C386.26 305.672 386.867 305.591 387.242 305.43C387.622 305.263 387.812 305 387.812 304.641C387.812 304.391 387.745 304.206 387.609 304.086C387.479 303.961 387.276 303.865 387 303.797L385.094 303.312C384.276 303.104 383.674 302.846 383.289 302.539C382.909 302.232 382.719 301.766 382.719 301.141C382.719 300.234 383.065 299.578 383.758 299.172C384.456 298.766 385.578 298.562 387.125 298.562C387.526 298.562 387.898 298.576 388.242 298.602C388.591 298.622 388.948 298.661 389.312 298.719L389.141 300.156C388.719 300.115 388.346 300.086 388.023 300.07C387.701 300.055 387.385 300.047 387.078 300.047C386.151 300.047 385.479 300.128 385.062 300.289C384.646 300.445 384.438 300.703 384.438 301.062C384.438 301.302 384.523 301.477 384.695 301.586C384.867 301.69 385.13 301.786 385.484 301.875L387.016 302.25C387.885 302.458 388.521 302.737 388.922 303.086C389.328 303.435 389.531 303.943 389.531 304.609C389.531 305.5 389.206 306.148 388.555 306.555C387.904 306.956 386.859 307.156 385.422 307.156ZM406.516 307.078L406.406 304.625L406.188 303.938V301.797C406.188 301.245 405.992 300.841 405.602 300.586C405.216 300.326 404.641 300.185 403.875 300.164L401.891 300.109L402.047 298.641L403.719 298.664C405.089 298.685 406.104 298.982 406.766 299.555C407.432 300.122 407.766 300.953 407.766 302.047V305.5L409.172 305.672V307L406.516 307.078ZM403.594 307.156C402.729 307.156 402.06 306.948 401.586 306.531C401.112 306.115 400.875 305.526 400.875 304.766C400.875 303.891 401.201 303.219 401.852 302.75C402.508 302.281 403.432 302.047 404.625 302.047C405.12 302.047 405.56 302.078 405.945 302.141C406.336 302.198 406.682 302.286 406.984 302.406L406.641 303.531C406.292 303.453 405.951 303.409 405.617 303.398C405.284 303.383 404.943 303.375 404.594 303.375C403.156 303.375 402.438 303.812 402.438 304.688C402.438 305.052 402.56 305.333 402.805 305.531C403.055 305.729 403.406 305.828 403.859 305.828C404.375 305.828 404.805 305.74 405.148 305.562C405.497 305.385 405.758 305.159 405.93 304.883C406.102 304.607 406.188 304.323 406.188 304.031V303.125L406.672 305.25H406.016L406.281 305C406.281 305.479 406.169 305.88 405.945 306.203C405.727 306.521 405.417 306.76 405.016 306.922C404.615 307.078 404.141 307.156 403.594 307.156ZM413.625 303.438L413.141 300.844H413.781C413.875 299.323 414.635 298.562 416.062 298.562C416.917 298.562 417.536 298.807 417.922 299.297C418.307 299.786 418.5 300.578 418.5 301.672H416.859C416.859 301.068 416.768 300.633 416.586 300.367C416.409 300.102 416.12 299.969 415.719 299.969C415.016 299.969 414.49 300.271 414.141 300.875C413.797 301.474 413.625 302.328 413.625 303.438ZM410.125 307V305.641H415.656V307H410.125ZM411.969 307V298.719H413.312L413.625 301.094V307H411.969ZM410.438 300.078V298.719H413.203L413.359 300.078H410.438ZM424.359 307.156C422.948 307.156 421.857 306.786 421.086 306.047C420.32 305.302 419.938 304.234 419.938 302.844C419.938 301.49 420.263 300.438 420.914 299.688C421.565 298.938 422.484 298.562 423.672 298.562C424.792 298.562 425.656 298.901 426.266 299.578C426.88 300.255 427.188 301.24 427.188 302.531C427.188 302.911 427.172 303.266 427.141 303.594H421.328V302.328H425.688C425.688 301.583 425.51 301.013 425.156 300.617C424.802 300.216 424.312 300.016 423.688 300.016C422.984 300.016 422.438 300.255 422.047 300.734C421.661 301.214 421.469 301.891 421.469 302.766C421.469 303.724 421.734 304.453 422.266 304.953C422.802 305.453 423.562 305.703 424.547 305.703C424.891 305.703 425.229 305.685 425.562 305.648C425.896 305.607 426.234 305.552 426.578 305.484L426.781 306.938C426.292 307.031 425.844 307.091 425.438 307.117C425.031 307.143 424.672 307.156 424.359 307.156ZM444.016 307.078L443.906 304.625L443.688 303.938V301.797C443.688 301.245 443.492 300.841 443.102 300.586C442.716 300.326 442.141 300.185 441.375 300.164L439.391 300.109L439.547 298.641L441.219 298.664C442.589 298.685 443.604 298.982 444.266 299.555C444.932 300.122 445.266 300.953 445.266 302.047V305.5L446.672 305.672V307L444.016 307.078ZM441.094 307.156C440.229 307.156 439.56 306.948 439.086 306.531C438.612 306.115 438.375 305.526 438.375 304.766C438.375 303.891 438.701 303.219 439.352 302.75C440.008 302.281 440.932 302.047 442.125 302.047C442.62 302.047 443.06 302.078 443.445 302.141C443.836 302.198 444.182 302.286 444.484 302.406L444.141 303.531C443.792 303.453 443.451 303.409 443.117 303.398C442.784 303.383 442.443 303.375 442.094 303.375C440.656 303.375 439.938 303.812 439.938 304.688C439.938 305.052 440.06 305.333 440.305 305.531C440.555 305.729 440.906 305.828 441.359 305.828C441.875 305.828 442.305 305.74 442.648 305.562C442.997 305.385 443.258 305.159 443.43 304.883C443.602 304.607 443.688 304.323 443.688 304.031V303.125L444.172 305.25H443.516L443.781 305C443.781 305.479 443.669 305.88 443.445 306.203C443.227 306.521 442.917 306.76 442.516 306.922C442.115 307.078 441.641 307.156 441.094 307.156ZM451.047 307.156C450.422 307.156 449.885 307.138 449.438 307.102C448.995 307.065 448.589 307.005 448.219 306.922L448.406 305.422C448.953 305.505 449.435 305.568 449.852 305.609C450.273 305.651 450.672 305.672 451.047 305.672C451.885 305.672 452.492 305.591 452.867 305.43C453.247 305.263 453.438 305 453.438 304.641C453.438 304.391 453.37 304.206 453.234 304.086C453.104 303.961 452.901 303.865 452.625 303.797L450.719 303.312C449.901 303.104 449.299 302.846 448.914 302.539C448.534 302.232 448.344 301.766 448.344 301.141C448.344 300.234 448.69 299.578 449.383 299.172C450.081 298.766 451.203 298.562 452.75 298.562C453.151 298.562 453.523 298.576 453.867 298.602C454.216 298.622 454.573 298.661 454.938 298.719L454.766 300.156C454.344 300.115 453.971 300.086 453.648 300.07C453.326 300.055 453.01 300.047 452.703 300.047C451.776 300.047 451.104 300.128 450.688 300.289C450.271 300.445 450.062 300.703 450.062 301.062C450.062 301.302 450.148 301.477 450.32 301.586C450.492 301.69 450.755 301.786 451.109 301.875L452.641 302.25C453.51 302.458 454.146 302.737 454.547 303.086C454.953 303.435 455.156 303.943 455.156 304.609C455.156 305.5 454.831 306.148 454.18 306.555C453.529 306.956 452.484 307.156 451.047 307.156ZM468.891 307V299.422C468.891 296.557 470.198 295.125 472.812 295.125C473.406 295.125 473.979 295.177 474.531 295.281L474.359 296.719C474.031 296.677 473.742 296.648 473.492 296.633C473.242 296.617 473 296.609 472.766 296.609C471.286 296.609 470.547 297.521 470.547 299.344V307H468.891ZM466.281 301.953V300.594H473.938V301.953H466.281ZM479.812 307.156C478.667 307.156 477.776 306.781 477.141 306.031C476.505 305.281 476.188 304.224 476.188 302.859C476.188 301.49 476.505 300.432 477.141 299.688C477.776 298.938 478.667 298.562 479.812 298.562C480.964 298.562 481.854 298.938 482.484 299.688C483.12 300.432 483.438 301.49 483.438 302.859C483.438 304.224 483.12 305.281 482.484 306.031C481.854 306.781 480.964 307.156 479.812 307.156ZM479.812 305.672C480.422 305.672 480.891 305.427 481.219 304.938C481.552 304.448 481.719 303.755 481.719 302.859C481.719 301.958 481.552 301.266 481.219 300.781C480.891 300.292 480.422 300.047 479.812 300.047C479.203 300.047 478.732 300.292 478.398 300.781C478.07 301.266 477.906 301.958 477.906 302.859C477.906 303.755 478.07 304.448 478.398 304.938C478.732 305.427 479.203 305.672 479.812 305.672ZM490.422 307.156C489.464 307.156 488.771 306.896 488.344 306.375C487.917 305.854 487.703 305.021 487.703 303.875V295.281H489.359V303.797C489.359 304.234 489.401 304.591 489.484 304.867C489.568 305.143 489.729 305.346 489.969 305.477C490.214 305.607 490.573 305.672 491.047 305.672C491.479 305.672 492.031 305.573 492.703 305.375L492.891 306.828C492.469 306.943 492.062 307.026 491.672 307.078C491.286 307.13 490.87 307.156 490.422 307.156ZM485.266 296.641V295.281H487.844V296.641H485.266ZM499.797 307.156C498.839 307.156 498.146 306.896 497.719 306.375C497.292 305.854 497.078 305.021 497.078 303.875V295.281H498.734V303.797C498.734 304.234 498.776 304.591 498.859 304.867C498.943 305.143 499.104 305.346 499.344 305.477C499.589 305.607 499.948 305.672 500.422 305.672C500.854 305.672 501.406 305.573 502.078 305.375L502.266 306.828C501.844 306.943 501.438 307.026 501.047 307.078C500.661 307.13 500.245 307.156 499.797 307.156ZM494.641 296.641V295.281H497.219V296.641H494.641ZM507.938 307.156C506.792 307.156 505.901 306.781 505.266 306.031C504.63 305.281 504.312 304.224 504.312 302.859C504.312 301.49 504.63 300.432 505.266 299.688C505.901 298.938 506.792 298.562 507.938 298.562C509.089 298.562 509.979 298.938 510.609 299.688C511.245 300.432 511.562 301.49 511.562 302.859C511.562 304.224 511.245 305.281 510.609 306.031C509.979 306.781 509.089 307.156 507.938 307.156ZM507.938 305.672C508.547 305.672 509.016 305.427 509.344 304.938C509.677 304.448 509.844 303.755 509.844 302.859C509.844 301.958 509.677 301.266 509.344 300.781C509.016 300.292 508.547 300.047 507.938 300.047C507.328 300.047 506.857 300.292 506.523 300.781C506.195 301.266 506.031 301.958 506.031 302.859C506.031 303.755 506.195 304.448 506.523 304.938C506.857 305.427 507.328 305.672 507.938 305.672ZM518.25 307L517.281 300.422H517.156L516.477 298.719H517.992L518.969 305.75H519.109L519.812 298.719H521.453L520.281 307H518.25ZM514.109 307L513.172 298.719H514.734L515.359 305.75H515.5L516.477 298.719H517.992L517.297 300.422H517.188L516.219 307H514.109ZM526.047 307.156C525.422 307.156 524.885 307.138 524.438 307.102C523.995 307.065 523.589 307.005 523.219 306.922L523.406 305.422C523.953 305.505 524.435 305.568 524.852 305.609C525.273 305.651 525.672 305.672 526.047 305.672C526.885 305.672 527.492 305.591 527.867 305.43C528.247 305.263 528.438 305 528.438 304.641C528.438 304.391 528.37 304.206 528.234 304.086C528.104 303.961 527.901 303.865 527.625 303.797L525.719 303.312C524.901 303.104 524.299 302.846 523.914 302.539C523.534 302.232 523.344 301.766 523.344 301.141C523.344 300.234 523.69 299.578 524.383 299.172C525.081 298.766 526.203 298.562 527.75 298.562C528.151 298.562 528.523 298.576 528.867 298.602C529.216 298.622 529.573 298.661 529.938 298.719L529.766 300.156C529.344 300.115 528.971 300.086 528.648 300.07C528.326 300.055 528.01 300.047 527.703 300.047C526.776 300.047 526.104 300.128 525.688 300.289C525.271 300.445 525.062 300.703 525.062 301.062C525.062 301.302 525.148 301.477 525.32 301.586C525.492 301.69 525.755 301.786 526.109 301.875L527.641 302.25C528.51 302.458 529.146 302.737 529.547 303.086C529.953 303.435 530.156 303.943 530.156 304.609C530.156 305.5 529.831 306.148 529.18 306.555C528.529 306.956 527.484 307.156 526.047 307.156Z" fill="#E1E1FF"/>
</g>
<defs>
<clipPath id="clip0_50_2761">
<rect x="48" y="86" width="512" height="245" rx="12" fill="white"/>
</clipPath>
<clipPath id="clip1_50_2761">
<rect width="24" height="24" fill="white" transform="translate(72 110)"/>
</clipPath>
<clipPath id="clip2_50_2761">
<rect width="24" height="24" fill="white" transform="translate(72 259)"/>
</clipPath>
</defs>
</svg>
