<svg width="608" height="575" viewBox="0 0 608 575" fill="none" xmlns="http://www.w3.org/2000/svg">
<rect width="608" height="575" rx="16" fill="#181925"/>
<path d="M52.3652 62.1953C51.8835 62.1953 51.4049 62.1758 50.9297 62.1367C50.4609 62.1042 49.9824 62.0586 49.4941 62L50.3926 59.666C50.7376 59.8288 51.1185 59.9264 51.5352 59.959C51.9518 59.985 52.3652 59.998 52.7754 59.998C53.9277 59.998 54.8164 59.6628 55.4414 58.9922C56.0729 58.3216 56.3887 57.3711 56.3887 56.1406C56.3887 55.3464 56.2064 54.7344 55.8418 54.3047C55.4837 53.8685 54.9694 53.6504 54.2988 53.6504C52.7038 53.6504 51.9062 54.4935 51.9062 56.1797L51.3008 53.5234H52.1504C52.2936 52.1432 53.1237 51.4531 54.6406 51.4531C55.9753 51.4531 57.0072 51.86 57.7363 52.6738C58.4655 53.4876 58.8301 54.6432 58.8301 56.1406C58.8301 58.0612 58.2669 59.5521 57.1406 60.6133C56.0143 61.668 54.4225 62.1953 52.3652 62.1953ZM49.4941 62V47.3516H51.9062V61.8242L49.4941 62ZM67.1211 62.1953C65.8581 62.1953 64.9466 61.8503 64.3867 61.1602C63.8333 60.4701 63.5566 59.3665 63.5566 57.8496V47.3516H65.959V57.752C65.959 58.2272 66.0078 58.6178 66.1055 58.9238C66.2031 59.2233 66.3887 59.4447 66.6621 59.5879C66.9421 59.7311 67.3555 59.8027 67.9023 59.8027C68.4622 59.8027 69.1719 59.679 70.0312 59.4316L70.3047 61.7852C69.7643 61.9284 69.2402 62.0326 68.7324 62.0977C68.2311 62.1628 67.694 62.1953 67.1211 62.1953ZM60.5781 49.5391V47.3516H63.7324V49.5391H60.5781ZM77.2969 62.1953C75.832 62.1953 74.6927 61.7266 73.8789 60.7891C73.0716 59.8516 72.668 58.5299 72.668 56.8242C72.668 55.112 73.0716 53.7904 73.8789 52.8594C74.6927 51.9219 75.832 51.4531 77.2969 51.4531C78.7682 51.4531 79.9076 51.9219 80.7148 52.8594C81.5221 53.7904 81.9258 55.112 81.9258 56.8242C81.9258 58.5299 81.5221 59.8516 80.7148 60.7891C79.9076 61.7266 78.7682 62.1953 77.2969 62.1953ZM77.2969 59.9492C77.987 59.9492 78.5176 59.679 78.8887 59.1387C79.2598 58.5918 79.4453 57.8203 79.4453 56.8242C79.4453 55.8216 79.2565 55.0501 78.8789 54.5098C78.5078 53.9694 77.9805 53.6992 77.2969 53.6992C76.6133 53.6992 76.0827 53.9694 75.7051 54.5098C75.334 55.0501 75.1484 55.8216 75.1484 56.8242C75.1484 57.8203 75.334 58.5918 75.7051 59.1387C76.0827 59.679 76.6133 59.9492 77.2969 59.9492ZM90.1387 62.1953C88.3027 62.1953 86.8835 61.7331 85.8809 60.8086C84.8848 59.8776 84.3867 58.543 84.3867 56.8047C84.3867 55.112 84.849 53.7969 85.7734 52.8594C86.6979 51.9219 88.0195 51.4531 89.7383 51.4531C90.7865 51.4531 91.6816 51.6549 92.4238 52.0586C93.1725 52.4557 93.7031 53.0189 94.0156 53.748L92.2285 55.1445C91.9421 54.6823 91.5742 54.3275 91.125 54.0801C90.6823 53.8262 90.194 53.6992 89.6602 53.6992C88.7747 53.6992 88.0846 53.9596 87.5898 54.4805C87.0951 55.0013 86.8477 55.7435 86.8477 56.707C86.8477 57.7617 87.1504 58.5658 87.7559 59.1191C88.3678 59.6725 89.2402 59.9492 90.373 59.9492C90.8483 59.9492 91.3203 59.9264 91.7891 59.8809C92.2643 59.8353 92.7266 59.7734 93.1758 59.6953L93.4297 61.9023C92.9023 62.0195 92.3555 62.0977 91.7891 62.1367C91.2227 62.1758 90.6725 62.1953 90.1387 62.1953ZM97.9023 58.2207V55.9746H99.0742C99.8815 55.9746 100.546 55.8346 101.066 55.5547C101.587 55.2747 101.997 54.819 102.297 54.1875C102.596 53.5495 102.814 52.7031 102.951 51.6484H105.441C105.168 53.8555 104.543 55.5026 103.566 56.5898C102.596 57.6771 101.262 58.2207 99.5625 58.2207H97.9023ZM96.3398 62V47.3516H98.752V62H96.3398ZM103.205 62L100.5 56.9609L102.697 56.1602L106.105 62H103.205Z" fill="#1187F8"/>
<rect x="48" y="86" width="512" height="96" rx="8" fill="#242638"/>
<path d="M76.5039 133.504C75.8359 133.9 75.5019 134.098 75.251 133.952C75 133.805 75 133.412 75 132.626V112.287C75 111.024 76.0073 110 77.25 110H90.75C91.9927 110 93 111.024 93 112.287V132.626C93 133.412 93 133.805 92.749 133.952C92.4981 134.098 92.1641 133.9 91.4961 133.504L84.5039 129.358C84.2581 129.212 84.1352 129.139 84 129.139C83.8648 129.139 83.7419 129.212 83.4961 129.358L76.5039 133.504Z" fill="#E1E1FF"/>
<path d="M116.508 129.715C114.782 129.715 113.532 129.357 112.759 128.641C111.993 127.924 111.609 126.779 111.609 125.203V123.27H113.887V125.096C113.887 125.998 114.105 126.653 114.542 127.062C114.986 127.47 115.713 127.674 116.723 127.674C117.081 127.674 117.46 127.656 117.861 127.62C118.262 127.577 118.721 127.523 119.236 127.459L119.494 129.457C118.993 129.543 118.502 129.607 118.022 129.65C117.55 129.693 117.045 129.715 116.508 129.715ZM111.609 124.129V114.676H113.887V124.129H111.609ZM108.752 120.111V118.113H119.064V120.111H108.752ZM121.696 134.656L121.589 132.615L123.372 132.4C124.124 132.307 124.765 132.103 125.295 131.788C125.832 131.473 126.29 131.004 126.67 130.381C127.049 129.765 127.382 128.956 127.669 127.953L130.505 118.113H132.868L129.581 128.49C129.151 129.851 128.668 130.947 128.131 131.777C127.601 132.608 126.971 133.231 126.24 133.646C125.517 134.062 124.647 134.327 123.63 134.441L121.696 134.656ZM126.015 129.5L121.481 118.113H123.845L127.562 127.781H127.905V129.5H126.015ZM135.586 134.441V118.113H137.648L137.863 120.52V134.441H135.586ZM141.097 129.715C140.223 129.715 139.518 129.514 138.98 129.113C138.451 128.712 138.15 128.154 138.078 127.438H137.09L137.863 124.193C137.863 125.368 138.092 126.259 138.551 126.868C139.016 127.477 139.697 127.781 140.592 127.781C141.508 127.781 142.203 127.455 142.676 126.804C143.148 126.152 143.385 125.189 143.385 123.914C143.385 122.568 143.148 121.551 142.676 120.863C142.203 120.176 141.508 119.832 140.592 119.832C139.697 119.832 139.016 120.136 138.551 120.745C138.092 121.354 137.863 122.245 137.863 123.42L137.09 120.176H137.971C138.071 119.46 138.393 118.901 138.938 118.5C139.489 118.099 140.209 117.898 141.097 117.898C142.593 117.898 143.725 118.407 144.491 119.424C145.257 120.441 145.641 121.938 145.641 123.914C145.641 125.819 145.257 127.262 144.491 128.243C143.725 129.224 142.593 129.715 141.097 129.715ZM154.105 129.715C152.165 129.715 150.664 129.206 149.604 128.189C148.552 127.165 148.025 125.697 148.025 123.785C148.025 121.923 148.473 120.477 149.368 119.445C150.263 118.414 151.527 117.898 153.16 117.898C154.7 117.898 155.889 118.364 156.727 119.295C157.572 120.226 157.994 121.579 157.994 123.355C157.994 123.878 157.973 124.365 157.93 124.816H149.938V123.076H155.932C155.932 122.052 155.688 121.268 155.201 120.724C154.714 120.172 154.041 119.896 153.182 119.896C152.215 119.896 151.463 120.226 150.926 120.885C150.396 121.544 150.131 122.475 150.131 123.678C150.131 124.995 150.496 125.998 151.227 126.686C151.964 127.373 153.01 127.717 154.363 127.717C154.836 127.717 155.301 127.692 155.76 127.642C156.218 127.584 156.684 127.509 157.156 127.416L157.436 129.414C156.762 129.543 156.146 129.625 155.588 129.661C155.029 129.697 154.535 129.715 154.105 129.715Z" fill="#E1E1FF"/>
<path d="M463.65 129.5V114.246H465.885V129.5H463.65ZM459.826 129.5V127.459H463.865V129.5H459.826ZM465.67 129.5V127.459H469.301V129.5H465.67ZM460.041 117.705V115.535L463.65 114.246V116.459L460.041 117.705ZM490.28 129.715C489.084 129.715 488.121 129.479 487.391 129.006C486.667 128.526 486.137 127.831 485.801 126.922C485.471 126.005 485.307 124.895 485.307 123.592V121.282C485.307 119.785 485.507 118.521 485.908 117.49C486.309 116.459 486.922 115.646 487.745 115.052C488.569 114.45 489.611 114.049 490.871 113.849L494.771 113.226L494.878 114.934L491.44 115.471C490.76 115.578 490.151 115.739 489.614 115.954C489.084 116.162 488.633 116.452 488.261 116.824C487.896 117.197 487.616 117.68 487.423 118.274C487.237 118.869 487.144 119.603 487.144 120.477V121.229H487.337C487.559 120.412 487.999 119.782 488.658 119.338C489.324 118.894 490.133 118.672 491.086 118.672C492.404 118.672 493.428 119.134 494.158 120.058C494.889 120.974 495.254 122.317 495.254 124.086C495.254 125.919 494.817 127.316 493.943 128.275C493.077 129.235 491.856 129.715 490.28 129.715ZM490.409 128.061C491.34 128.061 492.071 127.738 492.601 127.094C493.131 126.442 493.396 125.475 493.396 124.193C493.396 122.904 493.138 121.941 492.622 121.304C492.106 120.659 491.372 120.337 490.42 120.337C489.396 120.337 488.601 120.663 488.035 121.314C487.477 121.959 487.197 122.919 487.197 124.193C487.197 125.475 487.48 126.442 488.046 127.094C488.619 127.738 489.407 128.061 490.409 128.061ZM505.674 129.607L505.513 125.858L505.287 125.321V122.55C505.287 121.583 504.997 120.881 504.417 120.444C503.844 120 502.956 119.768 501.753 119.746L499.186 119.682L499.4 118.006L501.613 118.038C503.482 118.067 504.861 118.475 505.749 119.263C506.637 120.05 507.081 121.236 507.081 122.818V127.856L509.025 128.061V129.5L505.674 129.607ZM501.452 129.715C500.285 129.715 499.382 129.439 498.745 128.888C498.108 128.329 497.789 127.549 497.789 126.546C497.789 125.343 498.226 124.43 499.1 123.807C499.973 123.176 501.23 122.861 502.87 122.861C503.586 122.861 504.238 122.901 504.825 122.979C505.412 123.058 505.907 123.176 506.308 123.334L505.964 124.655C505.491 124.519 504.983 124.44 504.438 124.419C503.894 124.397 503.354 124.387 502.816 124.387C500.646 124.387 499.562 125.074 499.562 126.449C499.562 127.001 499.748 127.427 500.12 127.728C500.493 128.021 501.019 128.168 501.699 128.168C502.451 128.168 503.096 128.039 503.633 127.781C504.17 127.523 504.578 127.19 504.857 126.782C505.144 126.367 505.287 125.923 505.287 125.45V124.172L506.007 127.094H505.083L505.395 126.793C505.373 127.409 505.194 127.935 504.857 128.372C504.521 128.809 504.062 129.142 503.482 129.371C502.902 129.6 502.226 129.715 501.452 129.715ZM512.581 129.5V126.847H513.526L518.65 118.113H519.359V120.767H518.489L513.365 129.5H512.581ZM511.453 129.5V118.113H513.312V129.5H511.453ZM518.704 129.5V118.113H520.562V129.5H518.704ZM516.008 116.201C514.755 116.201 513.834 115.879 513.247 115.234C512.66 114.583 512.366 113.598 512.366 112.28H514.053C514.053 113.175 514.2 113.827 514.493 114.235C514.787 114.644 515.292 114.848 516.008 114.848C516.738 114.848 517.247 114.64 517.533 114.225C517.82 113.802 517.963 113.154 517.963 112.28H519.649C519.649 113.605 519.352 114.59 518.758 115.234C518.171 115.879 517.254 116.201 516.008 116.201ZM527.975 129.5V118.113H529.822V129.5H527.975ZM523.506 119.8V118.113H534.291V119.8H523.506Z" fill="#E1E1FF"/>
<path opacity="0.75" d="M75.875 158V146.906H77.5V158H75.875ZM72.625 148.391V146.906H80.75V148.391H72.625ZM83.7812 158V155.734H84.5L87.7422 149.719H88.2891V151.984H87.625L84.3828 158H83.7812ZM82.6875 158V149.719H84.3438V158H82.6875ZM87.7812 158V149.719H89.4375V158H87.7812ZM97.1562 158V149.719H98.8125V158H97.1562ZM92.0625 158V149.719H93.7188V158H92.0625ZM92.5469 151.203V149.719H98.5703V151.203H92.5469ZM114.219 158.156C113.292 158.156 112.557 157.979 112.016 157.625C111.479 157.266 111.094 156.747 110.859 156.07C110.63 155.393 110.516 154.576 110.516 153.617V151.969C110.516 150.938 110.656 150.047 110.938 149.297C111.224 148.542 111.672 147.938 112.281 147.484C112.891 147.031 113.682 146.734 114.656 146.594L117.555 146.18L117.633 147.664L115.07 148.016C114.57 148.083 114.135 148.193 113.766 148.344C113.401 148.495 113.099 148.695 112.859 148.945C112.625 149.195 112.451 149.505 112.336 149.875C112.221 150.24 112.164 150.672 112.164 151.172V151.922H112.344C112.5 151.344 112.81 150.898 113.273 150.586C113.742 150.268 114.312 150.109 114.984 150.109C115.901 150.109 116.612 150.44 117.117 151.102C117.622 151.763 117.875 152.747 117.875 154.055C117.875 155.404 117.555 156.424 116.914 157.117C116.279 157.81 115.38 158.156 114.219 158.156ZM114.289 156.719C114.893 156.719 115.365 156.505 115.703 156.078C116.047 155.646 116.219 154.997 116.219 154.133C116.219 153.268 116.047 152.622 115.703 152.195C115.365 151.763 114.893 151.547 114.289 151.547C113.638 151.547 113.128 151.763 112.758 152.195C112.388 152.622 112.203 153.268 112.203 154.133C112.203 154.997 112.388 155.646 112.758 156.078C113.128 156.505 113.638 156.719 114.289 156.719ZM119.367 158V156.516C119.784 156.516 120.109 156.445 120.344 156.305C120.583 156.159 120.753 155.914 120.852 155.57C120.951 155.227 121 154.75 121 154.141V149.719H122.445V154.086C122.445 155.091 122.352 155.878 122.164 156.445C121.982 157.013 121.667 157.414 121.219 157.648C120.771 157.883 120.154 158 119.367 158ZM125.328 158V149.719H126.984V158H125.328ZM121.406 151.203V149.719H126.695V151.203H121.406ZM132.938 158.156C131.792 158.156 130.901 157.781 130.266 157.031C129.63 156.281 129.312 155.224 129.312 153.859C129.312 152.49 129.63 151.432 130.266 150.688C130.901 149.938 131.792 149.562 132.938 149.562C134.089 149.562 134.979 149.938 135.609 150.688C136.245 151.432 136.562 152.49 136.562 153.859C136.562 155.224 136.245 156.281 135.609 157.031C134.979 157.781 134.089 158.156 132.938 158.156ZM132.938 156.672C133.547 156.672 134.016 156.427 134.344 155.938C134.677 155.448 134.844 154.755 134.844 153.859C134.844 152.958 134.677 152.266 134.344 151.781C134.016 151.292 133.547 151.047 132.938 151.047C132.328 151.047 131.857 151.292 131.523 151.781C131.195 152.266 131.031 152.958 131.031 153.859C131.031 154.755 131.195 155.448 131.523 155.938C131.857 156.427 132.328 156.672 132.938 156.672ZM141.812 153.75L141.695 153.117C142.029 153.117 142.26 153.068 142.391 152.969C142.526 152.865 142.638 152.701 142.727 152.477L143.266 151.141C143.427 150.74 143.594 150.435 143.766 150.227C143.938 150.013 144.151 149.87 144.406 149.797C144.661 149.719 144.992 149.68 145.398 149.68H145.852V151.164H145.516C145.323 151.164 145.177 151.19 145.078 151.242C144.979 151.294 144.893 151.409 144.82 151.586L144.273 152.867C144.143 153.164 143.953 153.385 143.703 153.531C143.458 153.677 143.125 153.75 142.703 153.75H141.812ZM138.859 158V149.719H140.516V158H138.859ZM140.398 154.602V153.117H142.695V154.602H140.398ZM145.477 158.039C145.07 158.039 144.732 158.003 144.461 157.93C144.195 157.852 143.969 157.708 143.781 157.5C143.599 157.286 143.427 156.979 143.266 156.578L142.727 155.242C142.638 155.018 142.526 154.857 142.391 154.758C142.26 154.654 142.029 154.602 141.695 154.602L141.812 153.969H142.781C143.625 153.969 144.174 154.263 144.43 154.852L144.977 156.133C145.049 156.31 145.135 156.424 145.234 156.477C145.333 156.529 145.479 156.555 145.672 156.555H145.93V158.039H145.477ZM153.391 158.078L153.281 155.625L153.062 154.938V152.797C153.062 152.245 152.867 151.841 152.477 151.586C152.091 151.326 151.516 151.185 150.75 151.164L148.766 151.109L148.922 149.641L150.594 149.664C151.964 149.685 152.979 149.982 153.641 150.555C154.307 151.122 154.641 151.953 154.641 153.047V156.5L156.047 156.672V158L153.391 158.078ZM150.469 158.156C149.604 158.156 148.935 157.948 148.461 157.531C147.987 157.115 147.75 156.526 147.75 155.766C147.75 154.891 148.076 154.219 148.727 153.75C149.383 153.281 150.307 153.047 151.5 153.047C151.995 153.047 152.435 153.078 152.82 153.141C153.211 153.198 153.557 153.286 153.859 153.406L153.516 154.531C153.167 154.453 152.826 154.409 152.492 154.398C152.159 154.383 151.818 154.375 151.469 154.375C150.031 154.375 149.312 154.812 149.312 155.688C149.312 156.052 149.435 156.333 149.68 156.531C149.93 156.729 150.281 156.828 150.734 156.828C151.25 156.828 151.68 156.74 152.023 156.562C152.372 156.385 152.633 156.159 152.805 155.883C152.977 155.607 153.062 155.323 153.062 155.031V154.125L153.547 156.25H152.891L153.156 156C153.156 156.479 153.044 156.88 152.82 157.203C152.602 157.521 152.292 157.76 151.891 157.922C151.49 158.078 151.016 158.156 150.469 158.156Z" fill="#E1E1FF"/>
<rect x="48" y="198" width="512" height="99" rx="8" fill="#242638"/>
<g clip-path="url(#clip0_61_18)">
<path d="M95.8828 230.653L93.5109 223.537C93.2062 222.619 92.3484 222 91.3781 222H85.75C85.2786 222 85.0429 222 84.8964 222.146C84.75 222.293 84.75 222.529 84.75 223V230C84.75 230.471 84.75 230.707 84.8964 230.854C85.0429 231 85.2786 231 85.75 231H95.587C95.7717 231 95.9412 230.828 95.8828 230.653ZM83.25 223C83.25 222.529 83.25 222.293 83.1036 222.146C82.9571 222 82.7214 222 82.25 222H76.6219C75.6516 222 74.7937 222.619 74.4891 223.537L72.1172 230.653C72.0588 230.828 72.2283 231 72.413 231H82.25C82.7214 231 82.9571 231 83.1036 230.854C83.25 230.707 83.25 230.471 83.25 230V223ZM73 232.5C72.5286 232.5 72.2929 232.5 72.1464 232.646C72 232.793 72 233.029 72 233.5V243.75C72 244.992 73.0078 246 74.25 246H93.75C94.9922 246 96 244.992 96 243.75V233.5C96 233.029 96 232.793 95.8536 232.646C95.7071 232.5 95.4714 232.5 95 232.5H73Z" fill="#E1E1FF"/>
</g>
<path d="M113.575 241.715C112.086 241.715 110.954 241.224 110.181 240.243C109.414 239.262 109.031 237.819 109.031 235.914C109.031 233.938 109.414 232.441 110.181 231.424C110.954 230.407 112.086 229.898 113.575 229.898C114.427 229.898 115.118 230.099 115.648 230.5C116.186 230.901 116.501 231.46 116.594 232.176H117.475L116.809 235.42C116.809 234.245 116.576 233.354 116.11 232.745C115.652 232.136 114.975 231.832 114.08 231.832C113.163 231.832 112.469 232.176 111.996 232.863C111.523 233.551 111.287 234.568 111.287 235.914C111.287 237.189 111.523 238.152 111.996 238.804C112.469 239.455 113.163 239.781 114.08 239.781C114.975 239.781 115.652 239.477 116.11 238.868C116.576 238.259 116.809 237.368 116.809 236.193L117.582 239.438H116.594C116.522 240.154 116.218 240.712 115.681 241.113C115.151 241.514 114.449 241.715 113.575 241.715ZM117.045 241.607L116.809 239.373V225.387H119.086V241.5L117.045 241.607ZM129.678 241.607L129.527 238.234L129.227 237.289V234.346C129.227 233.587 128.958 233.032 128.421 232.681C127.891 232.323 127.1 232.129 126.047 232.101L123.318 232.025L123.533 230.006L125.832 230.038C127.715 230.067 129.112 230.475 130.021 231.263C130.938 232.043 131.396 233.186 131.396 234.689V239.438L133.33 239.674V241.5L129.678 241.607ZM125.66 241.715C124.471 241.715 123.551 241.428 122.899 240.855C122.248 240.283 121.922 239.473 121.922 238.428C121.922 237.225 122.369 236.301 123.265 235.656C124.167 235.012 125.438 234.689 127.078 234.689C127.758 234.689 128.364 234.732 128.894 234.818C129.431 234.897 129.907 235.019 130.322 235.184L129.85 236.73C129.37 236.623 128.901 236.562 128.442 236.548C127.984 236.526 127.515 236.516 127.035 236.516C125.059 236.516 124.07 237.117 124.07 238.32C124.07 238.822 124.239 239.208 124.575 239.48C124.919 239.753 125.402 239.889 126.025 239.889C126.734 239.889 127.325 239.767 127.798 239.523C128.278 239.28 128.636 238.968 128.872 238.589C129.108 238.209 129.227 237.819 129.227 237.418V236.172L129.893 239.094H128.99L129.355 238.75C129.355 239.409 129.201 239.96 128.894 240.404C128.593 240.841 128.167 241.171 127.615 241.393C127.064 241.607 126.412 241.715 125.66 241.715ZM142.289 241.715C140.563 241.715 139.313 241.357 138.54 240.641C137.774 239.924 137.391 238.779 137.391 237.203V235.27H139.668V237.096C139.668 237.998 139.886 238.653 140.323 239.062C140.767 239.47 141.494 239.674 142.504 239.674C142.862 239.674 143.242 239.656 143.643 239.62C144.044 239.577 144.502 239.523 145.018 239.459L145.275 241.457C144.774 241.543 144.284 241.607 143.804 241.65C143.331 241.693 142.826 241.715 142.289 241.715ZM137.391 236.129V226.676H139.668V236.129H137.391ZM134.533 232.111V230.113H144.846V232.111H134.533ZM155.459 241.607L155.309 238.234L155.008 237.289V234.346C155.008 233.587 154.739 233.032 154.202 232.681C153.672 232.323 152.881 232.129 151.828 232.101L149.1 232.025L149.314 230.006L151.613 230.038C153.497 230.067 154.893 230.475 155.803 231.263C156.719 232.043 157.178 233.186 157.178 234.689V239.438L159.111 239.674V241.5L155.459 241.607ZM151.441 241.715C150.253 241.715 149.332 241.428 148.681 240.855C148.029 240.283 147.703 239.473 147.703 238.428C147.703 237.225 148.151 236.301 149.046 235.656C149.948 235.012 151.219 234.689 152.859 234.689C153.54 234.689 154.145 234.732 154.675 234.818C155.212 234.897 155.688 235.019 156.104 235.184L155.631 236.73C155.151 236.623 154.682 236.562 154.224 236.548C153.765 236.526 153.296 236.516 152.816 236.516C150.84 236.516 149.852 237.117 149.852 238.32C149.852 238.822 150.02 239.208 150.356 239.48C150.7 239.753 151.184 239.889 151.807 239.889C152.516 239.889 153.106 239.767 153.579 239.523C154.059 239.28 154.417 238.968 154.653 238.589C154.89 238.209 155.008 237.819 155.008 237.418V236.172L155.674 239.094H154.771L155.137 238.75C155.137 239.409 154.983 239.96 154.675 240.404C154.374 240.841 153.948 241.171 153.396 241.393C152.845 241.607 152.193 241.715 151.441 241.715Z" fill="#E1E1FF"/>
<path d="M466.422 241.5L462.039 229.898H461.051V226.246H462.469L466.852 237.848H467.389V241.5H466.422ZM459.59 241.5V226.246H461.824V241.5H459.59ZM467.066 241.5V226.246H469.301V241.5H467.066ZM490.28 241.715C489.084 241.715 488.121 241.479 487.391 241.006C486.667 240.526 486.137 239.831 485.801 238.922C485.471 238.005 485.307 236.895 485.307 235.592V233.282C485.307 231.785 485.507 230.521 485.908 229.49C486.309 228.459 486.922 227.646 487.745 227.052C488.569 226.45 489.611 226.049 490.871 225.849L494.771 225.226L494.878 226.934L491.44 227.471C490.76 227.578 490.151 227.739 489.614 227.954C489.084 228.162 488.633 228.452 488.261 228.824C487.896 229.197 487.616 229.68 487.423 230.274C487.237 230.869 487.144 231.603 487.144 232.477V233.229H487.337C487.559 232.412 487.999 231.782 488.658 231.338C489.324 230.894 490.133 230.672 491.086 230.672C492.404 230.672 493.428 231.134 494.158 232.058C494.889 232.974 495.254 234.317 495.254 236.086C495.254 237.919 494.817 239.316 493.943 240.275C493.077 241.235 491.856 241.715 490.28 241.715ZM490.409 240.061C491.34 240.061 492.071 239.738 492.601 239.094C493.131 238.442 493.396 237.475 493.396 236.193C493.396 234.904 493.138 233.941 492.622 233.304C492.106 232.659 491.372 232.337 490.42 232.337C489.396 232.337 488.601 232.663 488.035 233.314C487.477 233.959 487.197 234.919 487.197 236.193C487.197 237.475 487.48 238.442 488.046 239.094C488.619 239.738 489.407 240.061 490.409 240.061ZM505.674 241.607L505.513 237.858L505.287 237.321V234.55C505.287 233.583 504.997 232.881 504.417 232.444C503.844 232 502.956 231.768 501.753 231.746L499.186 231.682L499.4 230.006L501.613 230.038C503.482 230.067 504.861 230.475 505.749 231.263C506.637 232.05 507.081 233.236 507.081 234.818V239.856L509.025 240.061V241.5L505.674 241.607ZM501.452 241.715C500.285 241.715 499.382 241.439 498.745 240.888C498.108 240.329 497.789 239.549 497.789 238.546C497.789 237.343 498.226 236.43 499.1 235.807C499.973 235.176 501.23 234.861 502.87 234.861C503.586 234.861 504.238 234.901 504.825 234.979C505.412 235.058 505.907 235.176 506.308 235.334L505.964 236.655C505.491 236.519 504.983 236.44 504.438 236.419C503.894 236.397 503.354 236.387 502.816 236.387C500.646 236.387 499.562 237.074 499.562 238.449C499.562 239.001 499.748 239.427 500.12 239.728C500.493 240.021 501.019 240.168 501.699 240.168C502.451 240.168 503.096 240.039 503.633 239.781C504.17 239.523 504.578 239.19 504.857 238.782C505.144 238.367 505.287 237.923 505.287 237.45V236.172L506.007 239.094H505.083L505.395 238.793C505.373 239.409 505.194 239.935 504.857 240.372C504.521 240.809 504.062 241.142 503.482 241.371C502.902 241.6 502.226 241.715 501.452 241.715ZM512.581 241.5V238.847H513.526L518.65 230.113H519.359V232.767H518.489L513.365 241.5H512.581ZM511.453 241.5V230.113H513.312V241.5H511.453ZM518.704 241.5V230.113H520.562V241.5H518.704ZM516.008 228.201C514.755 228.201 513.834 227.879 513.247 227.234C512.66 226.583 512.366 225.598 512.366 224.28H514.053C514.053 225.175 514.2 225.827 514.493 226.235C514.787 226.644 515.292 226.848 516.008 226.848C516.738 226.848 517.247 226.64 517.533 226.225C517.82 225.802 517.963 225.154 517.963 224.28H519.649C519.649 225.605 519.352 226.59 518.758 227.234C518.171 227.879 517.254 228.201 516.008 228.201ZM527.975 241.5V230.113H529.822V241.5H527.975ZM523.506 231.8V230.113H534.291V231.8H523.506Z" fill="#E1E1FF"/>
<path opacity="0.75" d="M74.375 271.789L72.9062 271.594C73.0625 271.37 73.1979 271.049 73.3125 270.633C73.4323 270.211 73.5312 269.742 73.6094 269.227C73.6875 268.711 73.7474 268.19 73.7891 267.664C73.8307 267.133 73.8516 266.648 73.8516 266.211V261.906H75.3594V266.164C75.3594 266.617 75.3385 267.115 75.2969 267.656C75.2604 268.198 75.2005 268.737 75.1172 269.273C75.0391 269.81 74.9375 270.302 74.8125 270.75C74.6927 271.193 74.5469 271.539 74.375 271.789ZM72.2344 275.266V271.984H73.8594V275.266H72.2344ZM79.5156 275.266V271.984H81.1406V275.266H79.5156ZM78.5312 273V261.906H80.1562V273H78.5312ZM74.6641 263.391V261.906H79.5078V263.391H74.6641ZM81.1406 271.516V273H72.2344V271.516H81.1406ZM87.7656 273.078L87.6562 270.625L87.4375 269.938V267.797C87.4375 267.245 87.2422 266.841 86.8516 266.586C86.4661 266.326 85.8906 266.185 85.125 266.164L83.1406 266.109L83.2969 264.641L84.9688 264.664C86.3385 264.685 87.3542 264.982 88.0156 265.555C88.6823 266.122 89.0156 266.953 89.0156 268.047V271.5L90.4219 271.672V273L87.7656 273.078ZM84.8438 273.156C83.9792 273.156 83.3099 272.948 82.8359 272.531C82.362 272.115 82.125 271.526 82.125 270.766C82.125 269.891 82.4505 269.219 83.1016 268.75C83.7578 268.281 84.6823 268.047 85.875 268.047C86.3698 268.047 86.8099 268.078 87.1953 268.141C87.5859 268.198 87.9323 268.286 88.2344 268.406L87.8906 269.531C87.5417 269.453 87.2005 269.409 86.8672 269.398C86.5339 269.383 86.1927 269.375 85.8438 269.375C84.4062 269.375 83.6875 269.812 83.6875 270.688C83.6875 271.052 83.8099 271.333 84.0547 271.531C84.3047 271.729 84.6562 271.828 85.1094 271.828C85.625 271.828 86.0547 271.74 86.3984 271.562C86.7474 271.385 87.0078 271.159 87.1797 270.883C87.3516 270.607 87.4375 270.323 87.4375 270.031V269.125L87.9219 271.25H87.2656L87.5312 271C87.5312 271.479 87.4193 271.88 87.1953 272.203C86.9766 272.521 86.6667 272.76 86.2656 272.922C85.8646 273.078 85.3906 273.156 84.8438 273.156ZM97.1562 273V264.719H98.8125V273H97.1562ZM92.0625 273V264.719H93.7188V273H92.0625ZM92.5469 269.539V268.18H98.5703V269.539H92.5469ZM106.531 273V264.719H108.188V273H106.531ZM101.438 273V264.719H103.094V273H101.438ZM101.922 269.539V268.18H107.945V269.539H101.922ZM111.922 273V271.672H112.539C112.956 271.672 113.279 271.544 113.508 271.289C113.737 271.034 113.852 270.672 113.852 270.203C113.852 269.734 113.737 269.372 113.508 269.117C113.279 268.862 112.956 268.734 112.539 268.734H111.766V267.406H112.758C113.581 267.406 114.216 267.651 114.664 268.141C115.112 268.625 115.336 269.312 115.336 270.203C115.336 271.094 115.112 271.784 114.664 272.273C114.216 272.758 113.581 273 112.758 273H111.922ZM110.375 273V264.719H112.031V273H110.375ZM116.344 273V264.719H118V273H116.344ZM124.281 273.156C122.87 273.156 121.779 272.786 121.008 272.047C120.242 271.302 119.859 270.234 119.859 268.844C119.859 267.49 120.185 266.438 120.836 265.688C121.487 264.938 122.406 264.562 123.594 264.562C124.714 264.562 125.578 264.901 126.188 265.578C126.802 266.255 127.109 267.24 127.109 268.531C127.109 268.911 127.094 269.266 127.062 269.594H121.25V268.328H125.609C125.609 267.583 125.432 267.013 125.078 266.617C124.724 266.216 124.234 266.016 123.609 266.016C122.906 266.016 122.359 266.255 121.969 266.734C121.583 267.214 121.391 267.891 121.391 268.766C121.391 269.724 121.656 270.453 122.188 270.953C122.724 271.453 123.484 271.703 124.469 271.703C124.812 271.703 125.151 271.685 125.484 271.648C125.818 271.607 126.156 271.552 126.5 271.484L126.703 272.938C126.214 273.031 125.766 273.091 125.359 273.117C124.953 273.143 124.594 273.156 124.281 273.156ZM142.344 273.156C141.417 273.156 140.682 272.979 140.141 272.625C139.604 272.266 139.219 271.747 138.984 271.07C138.755 270.393 138.641 269.576 138.641 268.617V266.969C138.641 265.938 138.781 265.047 139.062 264.297C139.349 263.542 139.797 262.938 140.406 262.484C141.016 262.031 141.807 261.734 142.781 261.594L145.68 261.18L145.758 262.664L143.195 263.016C142.695 263.083 142.26 263.193 141.891 263.344C141.526 263.495 141.224 263.695 140.984 263.945C140.75 264.195 140.576 264.505 140.461 264.875C140.346 265.24 140.289 265.672 140.289 266.172V266.922H140.469C140.625 266.344 140.935 265.898 141.398 265.586C141.867 265.268 142.438 265.109 143.109 265.109C144.026 265.109 144.737 265.44 145.242 266.102C145.747 266.763 146 267.747 146 269.055C146 270.404 145.68 271.424 145.039 272.117C144.404 272.81 143.505 273.156 142.344 273.156ZM142.414 271.719C143.018 271.719 143.49 271.505 143.828 271.078C144.172 270.646 144.344 269.997 144.344 269.133C144.344 268.268 144.172 267.622 143.828 267.195C143.49 266.763 143.018 266.547 142.414 266.547C141.763 266.547 141.253 266.763 140.883 267.195C140.513 267.622 140.328 268.268 140.328 269.133C140.328 269.997 140.513 270.646 140.883 271.078C141.253 271.505 141.763 271.719 142.414 271.719ZM147.492 273V271.516C147.909 271.516 148.234 271.445 148.469 271.305C148.708 271.159 148.878 270.914 148.977 270.57C149.076 270.227 149.125 269.75 149.125 269.141V264.719H150.57V269.086C150.57 270.091 150.477 270.878 150.289 271.445C150.107 272.013 149.792 272.414 149.344 272.648C148.896 272.883 148.279 273 147.492 273ZM153.453 273V264.719H155.109V273H153.453ZM149.531 266.203V264.719H154.82V266.203H149.531ZM161.062 273.156C159.917 273.156 159.026 272.781 158.391 272.031C157.755 271.281 157.438 270.224 157.438 268.859C157.438 267.49 157.755 266.432 158.391 265.688C159.026 264.938 159.917 264.562 161.062 264.562C162.214 264.562 163.104 264.938 163.734 265.688C164.37 266.432 164.688 267.49 164.688 268.859C164.688 270.224 164.37 271.281 163.734 272.031C163.104 272.781 162.214 273.156 161.062 273.156ZM161.062 271.672C161.672 271.672 162.141 271.427 162.469 270.938C162.802 270.448 162.969 269.755 162.969 268.859C162.969 267.958 162.802 267.266 162.469 266.781C162.141 266.292 161.672 266.047 161.062 266.047C160.453 266.047 159.982 266.292 159.648 266.781C159.32 267.266 159.156 267.958 159.156 268.859C159.156 269.755 159.32 270.448 159.648 270.938C159.982 271.427 160.453 271.672 161.062 271.672ZM169.938 268.75L169.82 268.117C170.154 268.117 170.385 268.068 170.516 267.969C170.651 267.865 170.763 267.701 170.852 267.477L171.391 266.141C171.552 265.74 171.719 265.435 171.891 265.227C172.062 265.013 172.276 264.87 172.531 264.797C172.786 264.719 173.117 264.68 173.523 264.68H173.977V266.164H173.641C173.448 266.164 173.302 266.19 173.203 266.242C173.104 266.294 173.018 266.409 172.945 266.586L172.398 267.867C172.268 268.164 172.078 268.385 171.828 268.531C171.583 268.677 171.25 268.75 170.828 268.75H169.938ZM166.984 273V264.719H168.641V273H166.984ZM168.523 269.602V268.117H170.82V269.602H168.523ZM173.602 273.039C173.195 273.039 172.857 273.003 172.586 272.93C172.32 272.852 172.094 272.708 171.906 272.5C171.724 272.286 171.552 271.979 171.391 271.578L170.852 270.242C170.763 270.018 170.651 269.857 170.516 269.758C170.385 269.654 170.154 269.602 169.82 269.602L169.938 268.969H170.906C171.75 268.969 172.299 269.263 172.555 269.852L173.102 271.133C173.174 271.31 173.26 271.424 173.359 271.477C173.458 271.529 173.604 271.555 173.797 271.555H174.055V273.039H173.602ZM181.516 273.078L181.406 270.625L181.188 269.938V267.797C181.188 267.245 180.992 266.841 180.602 266.586C180.216 266.326 179.641 266.185 178.875 266.164L176.891 266.109L177.047 264.641L178.719 264.664C180.089 264.685 181.104 264.982 181.766 265.555C182.432 266.122 182.766 266.953 182.766 268.047V271.5L184.172 271.672V273L181.516 273.078ZM178.594 273.156C177.729 273.156 177.06 272.948 176.586 272.531C176.112 272.115 175.875 271.526 175.875 270.766C175.875 269.891 176.201 269.219 176.852 268.75C177.508 268.281 178.432 268.047 179.625 268.047C180.12 268.047 180.56 268.078 180.945 268.141C181.336 268.198 181.682 268.286 181.984 268.406L181.641 269.531C181.292 269.453 180.951 269.409 180.617 269.398C180.284 269.383 179.943 269.375 179.594 269.375C178.156 269.375 177.438 269.812 177.438 270.688C177.438 271.052 177.56 271.333 177.805 271.531C178.055 271.729 178.406 271.828 178.859 271.828C179.375 271.828 179.805 271.74 180.148 271.562C180.497 271.385 180.758 271.159 180.93 270.883C181.102 270.607 181.188 270.323 181.188 270.031V269.125L181.672 271.25H181.016L181.281 271C181.281 271.479 181.169 271.88 180.945 272.203C180.727 272.521 180.417 272.76 180.016 272.922C179.615 273.078 179.141 273.156 178.594 273.156Z" fill="#E1E1FF"/>
<rect x="48" y="313" width="512" height="99" rx="8" fill="#242638"/>
<g clip-path="url(#clip1_61_18)">
<path d="M96 348.977C96.0122 355.589 90.6203 360.995 84.0087 361C81.1531 361.002 78.5302 360.007 76.4689 358.343C75.9329 357.91 75.8929 357.107 76.3799 356.62L76.9251 356.075C77.3417 355.658 78.0067 355.613 78.4682 355.979C79.9869 357.184 81.9087 357.903 84 357.903C88.9212 357.903 92.9032 353.92 92.9032 349C92.9032 344.079 88.9204 340.097 84 340.097C81.638 340.097 79.4928 341.015 77.8999 342.513L80.3558 344.969C80.8435 345.456 80.4981 346.29 79.8084 346.29H72.7742C72.3466 346.29 72 345.944 72 345.516V338.482C72 337.792 72.8339 337.447 73.3216 337.934L75.7106 340.323C77.8649 338.265 80.7848 337 84 337C90.6198 337 95.9877 342.36 96 348.977ZM87.2462 352.789L87.7215 352.178C88.1153 351.672 88.024 350.942 87.5178 350.549L85.5484 349.017V343.968C85.5484 343.326 85.0285 342.806 84.3871 342.806H83.6129C82.9715 342.806 82.4516 343.326 82.4516 343.968V350.531L85.6166 352.993C86.1228 353.387 86.8524 353.296 87.2462 352.789Z" fill="#E1E1FF"/>
</g>
<path d="M116.143 356.715C114.825 356.715 113.872 356.357 113.285 355.641C112.698 354.924 112.404 353.779 112.404 352.203V340.387H114.682V352.096C114.682 352.697 114.739 353.188 114.854 353.567C114.968 353.947 115.19 354.226 115.52 354.405C115.856 354.584 116.35 354.674 117.002 354.674C117.596 354.674 118.355 354.538 119.279 354.266L119.537 356.264C118.957 356.421 118.398 356.536 117.861 356.607C117.331 356.679 116.758 356.715 116.143 356.715ZM109.053 342.385V340.387H112.598V342.385H109.053ZM127.336 356.715C125.76 356.715 124.536 356.199 123.662 355.168C122.788 354.137 122.352 352.683 122.352 350.807C122.352 348.923 122.788 347.469 123.662 346.445C124.536 345.414 125.76 344.898 127.336 344.898C128.919 344.898 130.143 345.414 131.01 346.445C131.883 347.469 132.32 348.923 132.32 350.807C132.32 352.683 131.883 354.137 131.01 355.168C130.143 356.199 128.919 356.715 127.336 356.715ZM127.336 354.674C128.174 354.674 128.818 354.337 129.27 353.664C129.728 352.991 129.957 352.038 129.957 350.807C129.957 349.568 129.728 348.615 129.27 347.949C128.818 347.276 128.174 346.939 127.336 346.939C126.498 346.939 125.85 347.276 125.392 347.949C124.94 348.615 124.715 349.568 124.715 350.807C124.715 352.038 124.94 352.991 125.392 353.664C125.85 354.337 126.498 354.674 127.336 354.674ZM135.736 361.635L135.629 359.551L139.281 359.443C140.434 359.408 141.272 359.089 141.795 358.487C142.318 357.886 142.583 357.001 142.59 355.834V347.52L142.805 345.113H144.867V355.49C144.867 357.517 144.405 359.014 143.481 359.98C142.558 360.947 141.086 361.463 139.066 361.527L135.736 361.635ZM139.356 356.715C137.867 356.715 136.735 356.224 135.962 355.243C135.196 354.262 134.812 352.819 134.812 350.914C134.812 348.938 135.196 347.441 135.962 346.424C136.735 345.407 137.867 344.898 139.356 344.898C140.244 344.898 140.964 345.099 141.516 345.5C142.067 345.901 142.389 346.46 142.482 347.176H143.363L142.59 350.42C142.59 349.245 142.357 348.354 141.892 347.745C141.433 347.136 140.757 346.832 139.861 346.832C138.945 346.832 138.25 347.176 137.777 347.863C137.305 348.551 137.068 349.568 137.068 350.914C137.068 352.189 137.305 353.152 137.777 353.804C138.25 354.455 138.945 354.781 139.861 354.781C140.757 354.781 141.433 354.477 141.892 353.868C142.357 353.259 142.59 352.368 142.59 351.193L143.363 354.438H142.375C142.303 355.154 141.999 355.712 141.462 356.113C140.932 356.514 140.23 356.715 139.356 356.715ZM152.236 356.715C151.377 356.715 150.639 356.69 150.023 356.64C149.415 356.59 148.856 356.507 148.348 356.393L148.605 354.33C149.357 354.445 150.02 354.531 150.593 354.588C151.173 354.645 151.721 354.674 152.236 354.674C153.389 354.674 154.224 354.563 154.739 354.341C155.262 354.112 155.523 353.75 155.523 353.256C155.523 352.912 155.43 352.658 155.244 352.493C155.065 352.321 154.786 352.189 154.406 352.096L151.785 351.43C150.661 351.143 149.834 350.789 149.304 350.366C148.781 349.944 148.52 349.303 148.52 348.443C148.52 347.197 148.996 346.295 149.948 345.736C150.908 345.178 152.451 344.898 154.578 344.898C155.13 344.898 155.642 344.916 156.114 344.952C156.594 344.981 157.085 345.035 157.586 345.113L157.35 347.09C156.77 347.033 156.257 346.993 155.813 346.972C155.369 346.95 154.936 346.939 154.514 346.939C153.239 346.939 152.315 347.05 151.742 347.272C151.169 347.487 150.883 347.842 150.883 348.336C150.883 348.665 151.001 348.905 151.237 349.056C151.474 349.199 151.835 349.331 152.322 349.453L154.428 349.969C155.624 350.255 156.497 350.638 157.049 351.118C157.607 351.598 157.887 352.296 157.887 353.213C157.887 354.438 157.439 355.329 156.544 355.888C155.649 356.439 154.213 356.715 152.236 356.715Z" fill="#E1E1FF"/>
<path d="M466.422 356.5L462.039 344.898H461.051V341.246H462.469L466.852 352.848H467.389V356.5H466.422ZM459.59 356.5V341.246H461.824V356.5H459.59ZM467.066 356.5V341.246H469.301V356.5H467.066ZM490.28 356.715C489.084 356.715 488.121 356.479 487.391 356.006C486.667 355.526 486.137 354.831 485.801 353.922C485.471 353.005 485.307 351.895 485.307 350.592V348.282C485.307 346.785 485.507 345.521 485.908 344.49C486.309 343.459 486.922 342.646 487.745 342.052C488.569 341.45 489.611 341.049 490.871 340.849L494.771 340.226L494.878 341.934L491.44 342.471C490.76 342.578 490.151 342.739 489.614 342.954C489.084 343.162 488.633 343.452 488.261 343.824C487.896 344.197 487.616 344.68 487.423 345.274C487.237 345.869 487.144 346.603 487.144 347.477V348.229H487.337C487.559 347.412 487.999 346.782 488.658 346.338C489.324 345.894 490.133 345.672 491.086 345.672C492.404 345.672 493.428 346.134 494.158 347.058C494.889 347.974 495.254 349.317 495.254 351.086C495.254 352.919 494.817 354.316 493.943 355.275C493.077 356.235 491.856 356.715 490.28 356.715ZM490.409 355.061C491.34 355.061 492.071 354.738 492.601 354.094C493.131 353.442 493.396 352.475 493.396 351.193C493.396 349.904 493.138 348.941 492.622 348.304C492.106 347.659 491.372 347.337 490.42 347.337C489.396 347.337 488.601 347.663 488.035 348.314C487.477 348.959 487.197 349.919 487.197 351.193C487.197 352.475 487.48 353.442 488.046 354.094C488.619 354.738 489.407 355.061 490.409 355.061ZM505.674 356.607L505.513 352.858L505.287 352.321V349.55C505.287 348.583 504.997 347.881 504.417 347.444C503.844 347 502.956 346.768 501.753 346.746L499.186 346.682L499.4 345.006L501.613 345.038C503.482 345.067 504.861 345.475 505.749 346.263C506.637 347.05 507.081 348.236 507.081 349.818V354.856L509.025 355.061V356.5L505.674 356.607ZM501.452 356.715C500.285 356.715 499.382 356.439 498.745 355.888C498.108 355.329 497.789 354.549 497.789 353.546C497.789 352.343 498.226 351.43 499.1 350.807C499.973 350.176 501.23 349.861 502.87 349.861C503.586 349.861 504.238 349.901 504.825 349.979C505.412 350.058 505.907 350.176 506.308 350.334L505.964 351.655C505.491 351.519 504.983 351.44 504.438 351.419C503.894 351.397 503.354 351.387 502.816 351.387C500.646 351.387 499.562 352.074 499.562 353.449C499.562 354.001 499.748 354.427 500.12 354.728C500.493 355.021 501.019 355.168 501.699 355.168C502.451 355.168 503.096 355.039 503.633 354.781C504.17 354.523 504.578 354.19 504.857 353.782C505.144 353.367 505.287 352.923 505.287 352.45V351.172L506.007 354.094H505.083L505.395 353.793C505.373 354.409 505.194 354.935 504.857 355.372C504.521 355.809 504.062 356.142 503.482 356.371C502.902 356.6 502.226 356.715 501.452 356.715ZM512.581 356.5V353.847H513.526L518.65 345.113H519.359V347.767H518.489L513.365 356.5H512.581ZM511.453 356.5V345.113H513.312V356.5H511.453ZM518.704 356.5V345.113H520.562V356.5H518.704ZM516.008 343.201C514.755 343.201 513.834 342.879 513.247 342.234C512.66 341.583 512.366 340.598 512.366 339.28H514.053C514.053 340.175 514.2 340.827 514.493 341.235C514.787 341.644 515.292 341.848 516.008 341.848C516.738 341.848 517.247 341.64 517.533 341.225C517.82 340.802 517.963 340.154 517.963 339.28H519.649C519.649 340.605 519.352 341.59 518.758 342.234C518.171 342.879 517.254 343.201 516.008 343.201ZM527.975 356.5V345.113H529.822V356.5H527.975ZM523.506 346.8V345.113H534.291V346.8H523.506Z" fill="#E1E1FF"/>
<path opacity="0.75" d="M76.3359 388.156C75.5859 388.156 74.8828 388.044 74.2266 387.82C73.5703 387.596 72.9948 387.263 72.5 386.82L73.625 385.719C73.9375 385.953 74.237 386.143 74.5234 386.289C74.8151 386.435 75.1068 386.544 75.3984 386.617C75.6901 386.685 76.0026 386.719 76.3359 386.719C77.1224 386.719 77.7214 386.549 78.1328 386.211C78.5443 385.867 78.75 385.414 78.75 384.852C78.75 384.602 78.7083 384.378 78.625 384.18C78.5469 383.982 78.4323 383.807 78.2812 383.656C78.1354 383.505 77.9557 383.38 77.7422 383.281C77.5339 383.182 77.2969 383.109 77.0312 383.062C76.7656 383.01 76.4792 382.984 76.1719 382.984H75.1562L75.0625 381.516C75.7135 381.495 76.3047 381.438 76.8359 381.344C77.3672 381.245 77.7891 381.073 78.1016 380.828C78.4193 380.583 78.5781 380.234 78.5781 379.781C78.5781 379.328 78.375 378.951 77.9688 378.648C77.5677 378.346 76.9688 378.195 76.1719 378.195C75.6771 378.195 75.2344 378.245 74.8438 378.344C74.4531 378.443 74.0703 378.568 73.6953 378.719L73.3594 377.305C73.6042 377.206 73.9766 377.089 74.4766 376.953C74.9818 376.818 75.599 376.75 76.3281 376.75C77.5625 376.75 78.5104 377 79.1719 377.5C79.8385 378 80.1719 378.656 80.1719 379.469C80.1719 379.984 80.0391 380.417 79.7734 380.766C79.5078 381.109 79.1432 381.388 78.6797 381.602C78.2214 381.815 77.6979 381.987 77.1094 382.117L77.2422 381.68V382.594L77.1094 382.172C77.7031 382.188 78.2474 382.305 78.7422 382.523C79.237 382.737 79.6328 383.049 79.9297 383.461C80.2266 383.872 80.375 384.385 80.375 385C80.375 385.625 80.2135 386.174 79.8906 386.648C79.5677 387.122 79.1042 387.492 78.5 387.758C77.8958 388.023 77.1745 388.156 76.3359 388.156ZM87.7656 388.078L87.6562 385.625L87.4375 384.938V382.797C87.4375 382.245 87.2422 381.841 86.8516 381.586C86.4661 381.326 85.8906 381.185 85.125 381.164L83.1406 381.109L83.2969 379.641L84.9688 379.664C86.3385 379.685 87.3542 379.982 88.0156 380.555C88.6823 381.122 89.0156 381.953 89.0156 383.047V386.5L90.4219 386.672V388L87.7656 388.078ZM84.8438 388.156C83.9792 388.156 83.3099 387.948 82.8359 387.531C82.362 387.115 82.125 386.526 82.125 385.766C82.125 384.891 82.4505 384.219 83.1016 383.75C83.7578 383.281 84.6823 383.047 85.875 383.047C86.3698 383.047 86.8099 383.078 87.1953 383.141C87.5859 383.198 87.9323 383.286 88.2344 383.406L87.8906 384.531C87.5417 384.453 87.2005 384.409 86.8672 384.398C86.5339 384.383 86.1927 384.375 85.8438 384.375C84.4062 384.375 83.6875 384.812 83.6875 385.688C83.6875 386.052 83.8099 386.333 84.0547 386.531C84.3047 386.729 84.6562 386.828 85.1094 386.828C85.625 386.828 86.0547 386.74 86.3984 386.562C86.7474 386.385 87.0078 386.159 87.1797 385.883C87.3516 385.607 87.4375 385.323 87.4375 385.031V384.125L87.9219 386.25H87.2656L87.5312 386C87.5312 386.479 87.4193 386.88 87.1953 387.203C86.9766 387.521 86.6667 387.76 86.2656 387.922C85.8646 388.078 85.3906 388.156 84.8438 388.156ZM97.1562 388V379.719H98.8125V388H97.1562ZM92.0625 388V379.719H93.7188V388H92.0625ZM92.5469 381.203V379.719H98.5703V381.203H92.5469ZM102.531 388V385.734H103.25L106.492 379.719H107.039V381.984H106.375L103.133 388H102.531ZM101.438 388V379.719H103.094V388H101.438ZM106.531 388V379.719H108.188V388H106.531ZM114.984 388.156C113.573 388.156 112.482 387.786 111.711 387.047C110.945 386.302 110.562 385.234 110.562 383.844C110.562 382.49 110.924 381.438 111.648 380.688C112.378 379.938 113.417 379.562 114.766 379.562C115.573 379.562 116.263 379.714 116.836 380.016C117.414 380.312 117.826 380.734 118.07 381.281L116.797 382.242C116.562 381.862 116.263 381.568 115.898 381.359C115.534 381.151 115.135 381.047 114.703 381.047C113.922 381.047 113.315 381.284 112.883 381.758C112.451 382.227 112.234 382.896 112.234 383.766C112.234 384.708 112.487 385.43 112.992 385.93C113.503 386.424 114.229 386.672 115.172 386.672C115.557 386.672 115.943 386.654 116.328 386.617C116.714 386.581 117.089 386.531 117.453 386.469L117.641 387.922C117.214 388.016 116.771 388.078 116.312 388.109C115.859 388.141 115.417 388.156 114.984 388.156ZM121.281 388V385.734H122L125.242 379.719H125.789V381.984H125.125L121.883 388H121.281ZM120.188 388V379.719H121.844V388H120.188ZM125.281 388V379.719H126.938V388H125.281ZM143.922 383.812V383.18C144.203 383.18 144.365 383.133 144.406 383.039C144.453 382.945 144.477 382.755 144.477 382.469V381.141C144.477 380.615 144.62 380.234 144.906 380C145.193 379.76 145.604 379.641 146.141 379.641H146.711V381.125H146.375C146.26 381.125 146.154 381.161 146.055 381.234C145.961 381.302 145.914 381.419 145.914 381.586V382.633C145.914 382.966 145.805 383.227 145.586 383.414C145.367 383.602 145.099 383.708 144.781 383.734L143.922 383.812ZM137.914 388.078V386.594H138.25C138.37 386.594 138.477 386.557 138.57 386.484C138.664 386.411 138.711 386.294 138.711 386.133V385.086C138.711 384.747 138.82 384.487 139.039 384.305C139.258 384.117 139.526 384.01 139.844 383.984L140.703 383.906V384.539C140.422 384.539 140.258 384.586 140.211 384.68C140.169 384.773 140.148 384.964 140.148 385.25V386.578C140.148 387.104 140.005 387.487 139.719 387.727C139.438 387.961 139.026 388.078 138.484 388.078H137.914ZM140.141 384.539V383.18H141.727V384.539H140.141ZM140.703 383.812L139.844 383.734C139.526 383.708 139.258 383.602 139.039 383.414C138.82 383.227 138.711 382.966 138.711 382.633V381.586C138.711 381.419 138.664 381.302 138.57 381.234C138.477 381.161 138.37 381.125 138.25 381.125H137.914V379.641H138.484C139.026 379.641 139.438 379.76 139.719 380C140.005 380.234 140.148 380.615 140.148 381.141V382.469C140.148 382.755 140.169 382.945 140.211 383.039C140.258 383.133 140.422 383.18 140.703 383.18V383.812ZM141.602 388V379.719H143.008V388H141.602ZM146.141 388.078C145.604 388.078 145.193 387.961 144.906 387.727C144.62 387.487 144.477 387.104 144.477 386.578V385.25C144.477 384.964 144.453 384.773 144.406 384.68C144.365 384.586 144.203 384.539 143.922 384.539V383.906L144.781 383.984C145.099 384.01 145.367 384.117 145.586 384.305C145.805 384.487 145.914 384.747 145.914 385.086V386.133C145.914 386.294 145.961 386.411 146.055 386.484C146.154 386.557 146.26 386.594 146.375 386.594H146.711V388.078H146.141ZM142.852 384.539V383.18H144.484V384.539H142.852ZM147.586 391.75L147.508 390.266L148.805 390.109C149.352 390.042 149.818 389.893 150.203 389.664C150.594 389.435 150.927 389.094 151.203 388.641C151.479 388.193 151.721 387.604 151.93 386.875L153.992 379.719H155.711L153.32 387.266C153.008 388.255 152.656 389.052 152.266 389.656C151.88 390.26 151.422 390.714 150.891 391.016C150.365 391.318 149.732 391.51 148.992 391.594L147.586 391.75ZM150.727 388L147.43 379.719H149.148L151.852 386.75H152.102V388H150.727ZM157.688 391.594V379.719H159.188L159.344 381.469V391.594H157.688ZM161.695 388.156C161.06 388.156 160.547 388.01 160.156 387.719C159.771 387.427 159.552 387.021 159.5 386.5H158.781L159.344 384.141C159.344 384.995 159.51 385.643 159.844 386.086C160.182 386.529 160.677 386.75 161.328 386.75C161.995 386.75 162.5 386.513 162.844 386.039C163.188 385.565 163.359 384.865 163.359 383.938C163.359 382.958 163.188 382.219 162.844 381.719C162.5 381.219 161.995 380.969 161.328 380.969C160.677 380.969 160.182 381.19 159.844 381.633C159.51 382.076 159.344 382.724 159.344 383.578L158.781 381.219H159.422C159.495 380.698 159.729 380.292 160.125 380C160.526 379.708 161.049 379.562 161.695 379.562C162.784 379.562 163.607 379.932 164.164 380.672C164.721 381.411 165 382.5 165 383.938C165 385.323 164.721 386.372 164.164 387.086C163.607 387.799 162.784 388.156 161.695 388.156ZM172.156 388V379.719H173.812V388H172.156ZM167.062 388V379.719H168.719V388H167.062ZM167.547 384.539V383.18H173.57V384.539H167.547ZM181.516 388.078L181.406 385.625L181.188 384.938V382.797C181.188 382.245 180.992 381.841 180.602 381.586C180.216 381.326 179.641 381.185 178.875 381.164L176.891 381.109L177.047 379.641L178.719 379.664C180.089 379.685 181.104 379.982 181.766 380.555C182.432 381.122 182.766 381.953 182.766 383.047V386.5L184.172 386.672V388L181.516 388.078ZM178.594 388.156C177.729 388.156 177.06 387.948 176.586 387.531C176.112 387.115 175.875 386.526 175.875 385.766C175.875 384.891 176.201 384.219 176.852 383.75C177.508 383.281 178.432 383.047 179.625 383.047C180.12 383.047 180.56 383.078 180.945 383.141C181.336 383.198 181.682 383.286 181.984 383.406L181.641 384.531C181.292 384.453 180.951 384.409 180.617 384.398C180.284 384.383 179.943 384.375 179.594 384.375C178.156 384.375 177.438 384.812 177.438 385.688C177.438 386.052 177.56 386.333 177.805 386.531C178.055 386.729 178.406 386.828 178.859 386.828C179.375 386.828 179.805 386.74 180.148 386.562C180.497 386.385 180.758 386.159 180.93 385.883C181.102 385.607 181.188 385.323 181.188 385.031V384.125L181.672 386.25H181.016L181.281 386C181.281 386.479 181.169 386.88 180.945 387.203C180.727 387.521 180.417 387.76 180.016 387.922C179.615 388.078 179.141 388.156 178.594 388.156ZM184.992 388V386.516C185.409 386.516 185.734 386.445 185.969 386.305C186.208 386.159 186.378 385.914 186.477 385.57C186.576 385.227 186.625 384.75 186.625 384.141V379.719H188.07V384.086C188.07 385.091 187.977 385.878 187.789 386.445C187.607 387.013 187.292 387.414 186.844 387.648C186.396 387.883 185.779 388 184.992 388ZM190.953 388V379.719H192.609V388H190.953ZM187.031 381.203V379.719H192.32V381.203H187.031ZM200.266 388.078L200.156 385.625L199.938 384.938V382.797C199.938 382.245 199.742 381.841 199.352 381.586C198.966 381.326 198.391 381.185 197.625 381.164L195.641 381.109L195.797 379.641L197.469 379.664C198.839 379.685 199.854 379.982 200.516 380.555C201.182 381.122 201.516 381.953 201.516 383.047V386.5L202.922 386.672V388L200.266 388.078ZM197.344 388.156C196.479 388.156 195.81 387.948 195.336 387.531C194.862 387.115 194.625 386.526 194.625 385.766C194.625 384.891 194.951 384.219 195.602 383.75C196.258 383.281 197.182 383.047 198.375 383.047C198.87 383.047 199.31 383.078 199.695 383.141C200.086 383.198 200.432 383.286 200.734 383.406L200.391 384.531C200.042 384.453 199.701 384.409 199.367 384.398C199.034 384.383 198.693 384.375 198.344 384.375C196.906 384.375 196.188 384.812 196.188 385.688C196.188 386.052 196.31 386.333 196.555 386.531C196.805 386.729 197.156 386.828 197.609 386.828C198.125 386.828 198.555 386.74 198.898 386.562C199.247 386.385 199.508 386.159 199.68 385.883C199.852 385.607 199.938 385.323 199.938 385.031V384.125L200.422 386.25H199.766L200.031 386C200.031 386.479 199.919 386.88 199.695 387.203C199.477 387.521 199.167 387.76 198.766 387.922C198.365 388.078 197.891 388.156 197.344 388.156ZM220.047 389.562C218.354 389.562 217.039 388.94 216.102 387.695C215.169 386.445 214.703 384.682 214.703 382.406C214.703 380.161 215.169 378.424 216.102 377.195C217.039 375.961 218.354 375.344 220.047 375.344H220.422V376.75H220.203C218.969 376.75 218.016 377.245 217.344 378.234C216.677 379.224 216.344 380.615 216.344 382.406C216.344 384.229 216.677 385.643 217.344 386.648C218.016 387.654 218.969 388.156 220.203 388.156H220.422V389.562H220.047ZM222.492 388V386.516C222.909 386.516 223.234 386.445 223.469 386.305C223.708 386.159 223.878 385.914 223.977 385.57C224.076 385.227 224.125 384.75 224.125 384.141V379.719H225.57V384.086C225.57 385.091 225.477 385.878 225.289 386.445C225.107 387.013 224.792 387.414 224.344 387.648C223.896 387.883 223.279 388 222.492 388ZM228.453 388V379.719H230.109V388H228.453ZM224.531 381.203V379.719H229.82V381.203H224.531ZM236.062 388.156C234.917 388.156 234.026 387.781 233.391 387.031C232.755 386.281 232.438 385.224 232.438 383.859C232.438 382.49 232.755 381.432 233.391 380.688C234.026 379.938 234.917 379.562 236.062 379.562C237.214 379.562 238.104 379.938 238.734 380.688C239.37 381.432 239.688 382.49 239.688 383.859C239.688 385.224 239.37 386.281 238.734 387.031C238.104 387.781 237.214 388.156 236.062 388.156ZM236.062 386.672C236.672 386.672 237.141 386.427 237.469 385.938C237.802 385.448 237.969 384.755 237.969 383.859C237.969 382.958 237.802 382.266 237.469 381.781C237.141 381.292 236.672 381.047 236.062 381.047C235.453 381.047 234.982 381.292 234.648 381.781C234.32 382.266 234.156 382.958 234.156 383.859C234.156 384.755 234.32 385.448 234.648 385.938C234.982 386.427 235.453 386.672 236.062 386.672ZM242.828 388V379.719H244.484V388H242.828ZM243.312 381.203V379.719H248.719V381.203H243.312ZM254.812 388.156C253.667 388.156 252.776 387.781 252.141 387.031C251.505 386.281 251.188 385.224 251.188 383.859C251.188 382.49 251.505 381.432 252.141 380.688C252.776 379.938 253.667 379.562 254.812 379.562C255.964 379.562 256.854 379.938 257.484 380.688C258.12 381.432 258.438 382.49 258.438 383.859C258.438 385.224 258.12 386.281 257.484 387.031C256.854 387.781 255.964 388.156 254.812 388.156ZM254.812 386.672C255.422 386.672 255.891 386.427 256.219 385.938C256.552 385.448 256.719 384.755 256.719 383.859C256.719 382.958 256.552 382.266 256.219 381.781C255.891 381.292 255.422 381.047 254.812 381.047C254.203 381.047 253.732 381.292 253.398 381.781C253.07 382.266 252.906 382.958 252.906 383.859C252.906 384.755 253.07 385.448 253.398 385.938C253.732 386.427 254.203 386.672 254.812 386.672ZM262.438 388V386.516H265.094C265.479 386.516 265.779 386.422 265.992 386.234C266.206 386.042 266.312 385.771 266.312 385.422C266.312 385.073 266.195 384.805 265.961 384.617C265.732 384.424 265.406 384.328 264.984 384.328H262.281V383.773H265.375C266.224 383.773 266.88 383.958 267.344 384.328C267.812 384.698 268.047 385.219 268.047 385.891C268.047 386.562 267.828 387.083 267.391 387.453C266.953 387.818 266.339 388 265.547 388H262.438ZM260.891 388V379.719H262.547V388H260.891ZM261.906 384.109V383.344H265.469V384.109H261.906ZM262.281 383.633V383.078H264.781C265.167 383.078 265.466 382.997 265.68 382.836C265.893 382.669 266 382.438 266 382.141C266 381.844 265.883 381.615 265.648 381.453C265.419 381.286 265.094 381.203 264.672 381.203H262.438V379.719H265.062C265.911 379.719 266.568 379.904 267.031 380.273C267.5 380.638 267.734 381.156 267.734 381.828C267.734 382.401 267.516 382.846 267.078 383.164C266.641 383.477 266.026 383.633 265.234 383.633H262.281ZM270.453 389.562V388.156H270.672C271.906 388.156 272.857 387.654 273.523 386.648C274.195 385.643 274.531 384.229 274.531 382.406C274.531 380.615 274.195 379.224 273.523 378.234C272.857 377.245 271.906 376.75 270.672 376.75H270.453V375.344H270.828C272.526 375.344 273.841 375.961 274.773 377.195C275.706 378.424 276.172 380.161 276.172 382.406C276.172 384.682 275.706 386.445 274.773 387.695C273.841 388.94 272.526 389.562 270.828 389.562H270.453Z" fill="#E1E1FF"/>
<rect x="48" y="428" width="512" height="99" rx="8" fill="#242638"/>
<path d="M75 474.5H93C94.6547 474.5 96 473.155 96 471.5V459.5C96 457.845 94.6547 456.5 93 456.5H85.5C85.0266 456.5 84.5812 456.28 84.3 455.9L83.4 454.7C82.8328 453.945 81.9422 453.5 81 453.5H75C73.3453 453.5 72 454.845 72 456.5V471.5C72 473.155 73.3453 474.5 75 474.5Z" fill="#E1E1FF"/>
<path d="M115.541 471.715C113.6 471.715 112.1 471.206 111.04 470.189C109.987 469.165 109.461 467.697 109.461 465.785C109.461 463.923 109.959 462.477 110.954 461.445C111.957 460.414 113.385 459.898 115.24 459.898C116.35 459.898 117.299 460.106 118.087 460.521C118.882 460.93 119.448 461.51 119.784 462.262L118.033 463.583C117.711 463.06 117.299 462.656 116.798 462.369C116.297 462.083 115.749 461.939 115.154 461.939C114.08 461.939 113.246 462.265 112.651 462.917C112.057 463.562 111.76 464.482 111.76 465.678C111.76 466.974 112.107 467.966 112.802 468.653C113.504 469.334 114.503 469.674 115.799 469.674C116.329 469.674 116.859 469.649 117.389 469.599C117.919 469.549 118.434 469.48 118.936 469.395L119.193 471.393C118.606 471.521 117.997 471.607 117.367 471.65C116.744 471.693 116.135 471.715 115.541 471.715ZM129.699 471.5V464.088C129.699 463.365 129.52 462.81 129.162 462.423C128.804 462.029 128.303 461.832 127.658 461.832C125.868 461.832 124.973 462.921 124.973 465.098L124.307 462.176H125.188C125.252 461.41 125.531 460.84 126.025 460.468C126.52 460.088 127.243 459.898 128.195 459.898C129.398 459.898 130.329 460.264 130.988 460.994C131.647 461.725 131.977 462.756 131.977 464.088V471.5H129.699ZM122.695 471.5V455.387H124.973V471.5H122.695ZM139.84 471.5V460.758H142.117V471.5H139.84ZM135.5 471.5V469.502H140.055V471.5H135.5ZM141.902 471.5V469.502H145.619V471.5H141.902ZM136.145 462.111V460.113H142.117V462.111H136.145ZM140.903 458.309C140.466 458.309 140.09 458.155 139.775 457.847C139.467 457.532 139.313 457.156 139.313 456.719C139.313 456.275 139.467 455.899 139.775 455.591C140.09 455.283 140.466 455.129 140.903 455.129C141.347 455.129 141.723 455.283 142.031 455.591C142.339 455.899 142.493 456.275 142.493 456.719C142.493 457.156 142.339 457.532 142.031 457.847C141.723 458.155 141.347 458.309 140.903 458.309ZM154.814 471.715C153.497 471.715 152.544 471.357 151.957 470.641C151.37 469.924 151.076 468.779 151.076 467.203V455.387H153.354V467.096C153.354 467.697 153.411 468.188 153.525 468.567C153.64 468.947 153.862 469.226 154.191 469.405C154.528 469.584 155.022 469.674 155.674 469.674C156.268 469.674 157.027 469.538 157.951 469.266L158.209 471.264C157.629 471.421 157.07 471.536 156.533 471.607C156.003 471.679 155.43 471.715 154.814 471.715ZM147.725 457.385V455.387H151.27V457.385H147.725ZM165.138 471.715C163.648 471.715 162.517 471.224 161.743 470.243C160.977 469.262 160.594 467.819 160.594 465.914C160.594 463.938 160.977 462.441 161.743 461.424C162.517 460.407 163.648 459.898 165.138 459.898C165.99 459.898 166.681 460.099 167.211 460.5C167.748 460.901 168.063 461.46 168.156 462.176H169.037L168.371 465.42C168.371 464.245 168.138 463.354 167.673 462.745C167.215 462.136 166.538 461.832 165.643 461.832C164.726 461.832 164.031 462.176 163.559 462.863C163.086 463.551 162.85 464.568 162.85 465.914C162.85 467.189 163.086 468.152 163.559 468.804C164.031 469.455 164.726 469.781 165.643 469.781C166.538 469.781 167.215 469.477 167.673 468.868C168.138 468.259 168.371 467.368 168.371 466.193L169.145 469.438H168.156C168.085 470.154 167.78 470.712 167.243 471.113C166.713 471.514 166.011 471.715 165.138 471.715ZM168.607 471.607L168.371 469.373V455.387H170.648V471.5L168.607 471.607Z" fill="#E1E1FF"/>
<path d="M466.422 471.5L462.039 459.898H461.051V456.246H462.469L466.852 467.848H467.389V471.5H466.422ZM459.59 471.5V456.246H461.824V471.5H459.59ZM467.066 471.5V456.246H469.301V471.5H467.066ZM490.28 471.715C489.084 471.715 488.121 471.479 487.391 471.006C486.667 470.526 486.137 469.831 485.801 468.922C485.471 468.005 485.307 466.895 485.307 465.592V463.282C485.307 461.785 485.507 460.521 485.908 459.49C486.309 458.459 486.922 457.646 487.745 457.052C488.569 456.45 489.611 456.049 490.871 455.849L494.771 455.226L494.878 456.934L491.44 457.471C490.76 457.578 490.151 457.739 489.614 457.954C489.084 458.162 488.633 458.452 488.261 458.824C487.896 459.197 487.616 459.68 487.423 460.274C487.237 460.869 487.144 461.603 487.144 462.477V463.229H487.337C487.559 462.412 487.999 461.782 488.658 461.338C489.324 460.894 490.133 460.672 491.086 460.672C492.404 460.672 493.428 461.134 494.158 462.058C494.889 462.974 495.254 464.317 495.254 466.086C495.254 467.919 494.817 469.316 493.943 470.275C493.077 471.235 491.856 471.715 490.28 471.715ZM490.409 470.061C491.34 470.061 492.071 469.738 492.601 469.094C493.131 468.442 493.396 467.475 493.396 466.193C493.396 464.904 493.138 463.941 492.622 463.304C492.106 462.659 491.372 462.337 490.42 462.337C489.396 462.337 488.601 462.663 488.035 463.314C487.477 463.959 487.197 464.919 487.197 466.193C487.197 467.475 487.48 468.442 488.046 469.094C488.619 469.738 489.407 470.061 490.409 470.061ZM505.674 471.607L505.513 467.858L505.287 467.321V464.55C505.287 463.583 504.997 462.881 504.417 462.444C503.844 462 502.956 461.768 501.753 461.746L499.186 461.682L499.4 460.006L501.613 460.038C503.482 460.067 504.861 460.475 505.749 461.263C506.637 462.05 507.081 463.236 507.081 464.818V469.856L509.025 470.061V471.5L505.674 471.607ZM501.452 471.715C500.285 471.715 499.382 471.439 498.745 470.888C498.108 470.329 497.789 469.549 497.789 468.546C497.789 467.343 498.226 466.43 499.1 465.807C499.973 465.176 501.23 464.861 502.87 464.861C503.586 464.861 504.238 464.901 504.825 464.979C505.412 465.058 505.907 465.176 506.308 465.334L505.964 466.655C505.491 466.519 504.983 466.44 504.438 466.419C503.894 466.397 503.354 466.387 502.816 466.387C500.646 466.387 499.562 467.074 499.562 468.449C499.562 469.001 499.748 469.427 500.12 469.728C500.493 470.021 501.019 470.168 501.699 470.168C502.451 470.168 503.096 470.039 503.633 469.781C504.17 469.523 504.578 469.19 504.857 468.782C505.144 468.367 505.287 467.923 505.287 467.45V466.172L506.007 469.094H505.083L505.395 468.793C505.373 469.409 505.194 469.935 504.857 470.372C504.521 470.809 504.062 471.142 503.482 471.371C502.902 471.6 502.226 471.715 501.452 471.715ZM512.581 471.5V468.847H513.526L518.65 460.113H519.359V462.767H518.489L513.365 471.5H512.581ZM511.453 471.5V460.113H513.312V471.5H511.453ZM518.704 471.5V460.113H520.562V471.5H518.704ZM516.008 458.201C514.755 458.201 513.834 457.879 513.247 457.234C512.66 456.583 512.366 455.598 512.366 454.28H514.053C514.053 455.175 514.2 455.827 514.493 456.235C514.787 456.644 515.292 456.848 516.008 456.848C516.738 456.848 517.247 456.64 517.533 456.225C517.82 455.802 517.963 455.154 517.963 454.28H519.649C519.649 455.605 519.352 456.59 518.758 457.234C518.171 457.879 517.254 458.201 516.008 458.201ZM527.975 471.5V460.113H529.822V471.5H527.975ZM523.506 461.8V460.113H534.291V461.8H523.506Z" fill="#E1E1FF"/>
<path opacity="0.75" d="M74.375 501.789L72.9062 501.594C73.0625 501.37 73.1979 501.049 73.3125 500.633C73.4323 500.211 73.5312 499.742 73.6094 499.227C73.6875 498.711 73.7474 498.19 73.7891 497.664C73.8307 497.133 73.8516 496.648 73.8516 496.211V491.906H75.3594V496.164C75.3594 496.617 75.3385 497.115 75.2969 497.656C75.2604 498.198 75.2005 498.737 75.1172 499.273C75.0391 499.81 74.9375 500.302 74.8125 500.75C74.6927 501.193 74.5469 501.539 74.375 501.789ZM72.2344 505.266V501.984H73.8594V505.266H72.2344ZM79.5156 505.266V501.984H81.1406V505.266H79.5156ZM78.5312 503V491.906H80.1562V503H78.5312ZM74.6641 493.391V491.906H79.5078V493.391H74.6641ZM81.1406 501.516V503H72.2344V501.516H81.1406ZM86.0625 503.156C84.9167 503.156 84.026 502.781 83.3906 502.031C82.7552 501.281 82.4375 500.224 82.4375 498.859C82.4375 497.49 82.7552 496.432 83.3906 495.688C84.026 494.938 84.9167 494.562 86.0625 494.562C87.2135 494.562 88.1042 494.938 88.7344 495.688C89.3698 496.432 89.6875 497.49 89.6875 498.859C89.6875 500.224 89.3698 501.281 88.7344 502.031C88.1042 502.781 87.2135 503.156 86.0625 503.156ZM86.0625 501.672C86.6719 501.672 87.1406 501.427 87.4688 500.938C87.8021 500.448 87.9688 499.755 87.9688 498.859C87.9688 497.958 87.8021 497.266 87.4688 496.781C87.1406 496.292 86.6719 496.047 86.0625 496.047C85.4531 496.047 84.9818 496.292 84.6484 496.781C84.3203 497.266 84.1562 497.958 84.1562 498.859C84.1562 499.755 84.3203 500.448 84.6484 500.938C84.9818 501.427 85.4531 501.672 86.0625 501.672ZM94.8906 500.031C93.8125 500.031 93.0052 499.753 92.4688 499.195C91.9375 498.633 91.6719 497.792 91.6719 496.672V494.719H93.3281V496.672C93.3281 497.339 93.4714 497.839 93.7578 498.172C94.0443 498.505 94.474 498.672 95.0469 498.672H97.5312V500.031H94.8906ZM97.0781 503V494.719H98.7344V503H97.0781ZM105.531 503.156C104.12 503.156 103.029 502.786 102.258 502.047C101.492 501.302 101.109 500.234 101.109 498.844C101.109 497.49 101.435 496.438 102.086 495.688C102.737 494.938 103.656 494.562 104.844 494.562C105.964 494.562 106.828 494.901 107.438 495.578C108.052 496.255 108.359 497.24 108.359 498.531C108.359 498.911 108.344 499.266 108.312 499.594H102.5V498.328H106.859C106.859 497.583 106.682 497.013 106.328 496.617C105.974 496.216 105.484 496.016 104.859 496.016C104.156 496.016 103.609 496.255 103.219 496.734C102.833 497.214 102.641 497.891 102.641 498.766C102.641 499.724 102.906 500.453 103.438 500.953C103.974 501.453 104.734 501.703 105.719 501.703C106.062 501.703 106.401 501.685 106.734 501.648C107.068 501.607 107.406 501.552 107.75 501.484L107.953 502.938C107.464 503.031 107.016 503.091 106.609 503.117C106.203 503.143 105.844 503.156 105.531 503.156ZM110.812 506.594V494.719H112.312L112.469 496.469V506.594H110.812ZM114.82 503.156C114.185 503.156 113.672 503.01 113.281 502.719C112.896 502.427 112.677 502.021 112.625 501.5H111.906L112.469 499.141C112.469 499.995 112.635 500.643 112.969 501.086C113.307 501.529 113.802 501.75 114.453 501.75C115.12 501.75 115.625 501.513 115.969 501.039C116.312 500.565 116.484 499.865 116.484 498.938C116.484 497.958 116.312 497.219 115.969 496.719C115.625 496.219 115.12 495.969 114.453 495.969C113.802 495.969 113.307 496.19 112.969 496.633C112.635 497.076 112.469 497.724 112.469 498.578L111.906 496.219H112.547C112.62 495.698 112.854 495.292 113.25 495C113.651 494.708 114.174 494.562 114.82 494.562C115.909 494.562 116.732 494.932 117.289 495.672C117.846 496.411 118.125 497.5 118.125 498.938C118.125 500.323 117.846 501.372 117.289 502.086C116.732 502.799 115.909 503.156 114.82 503.156ZM125.281 503V494.719H126.938V503H125.281ZM120.188 503V494.719H121.844V503H120.188ZM120.672 499.539V498.18H126.695V499.539H120.672ZM130.656 503V500.734H131.375L134.617 494.719H135.164V496.984H134.5L131.258 503H130.656ZM129.562 503V494.719H131.219V503H129.562ZM134.656 503V494.719H136.312V503H134.656ZM143.031 503.156C141.62 503.156 140.529 502.786 139.758 502.047C138.992 501.302 138.609 500.234 138.609 498.844C138.609 497.49 138.935 496.438 139.586 495.688C140.237 494.938 141.156 494.562 142.344 494.562C143.464 494.562 144.328 494.901 144.938 495.578C145.552 496.255 145.859 497.24 145.859 498.531C145.859 498.911 145.844 499.266 145.812 499.594H140V498.328H144.359C144.359 497.583 144.182 497.013 143.828 496.617C143.474 496.216 142.984 496.016 142.359 496.016C141.656 496.016 141.109 496.255 140.719 496.734C140.333 497.214 140.141 497.891 140.141 498.766C140.141 499.724 140.406 500.453 140.938 500.953C141.474 501.453 142.234 501.703 143.219 501.703C143.562 501.703 143.901 501.685 144.234 501.648C144.568 501.607 144.906 501.552 145.25 501.484L145.453 502.938C144.964 503.031 144.516 503.091 144.109 503.117C143.703 503.143 143.344 503.156 143.031 503.156ZM161.094 503.156C160.167 503.156 159.432 502.979 158.891 502.625C158.354 502.266 157.969 501.747 157.734 501.07C157.505 500.393 157.391 499.576 157.391 498.617V496.969C157.391 495.938 157.531 495.047 157.812 494.297C158.099 493.542 158.547 492.938 159.156 492.484C159.766 492.031 160.557 491.734 161.531 491.594L164.43 491.18L164.508 492.664L161.945 493.016C161.445 493.083 161.01 493.193 160.641 493.344C160.276 493.495 159.974 493.695 159.734 493.945C159.5 494.195 159.326 494.505 159.211 494.875C159.096 495.24 159.039 495.672 159.039 496.172V496.922H159.219C159.375 496.344 159.685 495.898 160.148 495.586C160.617 495.268 161.188 495.109 161.859 495.109C162.776 495.109 163.487 495.44 163.992 496.102C164.497 496.763 164.75 497.747 164.75 499.055C164.75 500.404 164.43 501.424 163.789 502.117C163.154 502.81 162.255 503.156 161.094 503.156ZM161.164 501.719C161.768 501.719 162.24 501.505 162.578 501.078C162.922 500.646 163.094 499.997 163.094 499.133C163.094 498.268 162.922 497.622 162.578 497.195C162.24 496.763 161.768 496.547 161.164 496.547C160.513 496.547 160.003 496.763 159.633 497.195C159.263 497.622 159.078 498.268 159.078 499.133C159.078 499.997 159.263 500.646 159.633 501.078C160.003 501.505 160.513 501.719 161.164 501.719ZM166.242 503V501.516C166.659 501.516 166.984 501.445 167.219 501.305C167.458 501.159 167.628 500.914 167.727 500.57C167.826 500.227 167.875 499.75 167.875 499.141V494.719H169.32V499.086C169.32 500.091 169.227 500.878 169.039 501.445C168.857 502.013 168.542 502.414 168.094 502.648C167.646 502.883 167.029 503 166.242 503ZM172.203 503V494.719H173.859V503H172.203ZM168.281 496.203V494.719H173.57V496.203H168.281ZM179.812 503.156C178.667 503.156 177.776 502.781 177.141 502.031C176.505 501.281 176.188 500.224 176.188 498.859C176.188 497.49 176.505 496.432 177.141 495.688C177.776 494.938 178.667 494.562 179.812 494.562C180.964 494.562 181.854 494.938 182.484 495.688C183.12 496.432 183.438 497.49 183.438 498.859C183.438 500.224 183.12 501.281 182.484 502.031C181.854 502.781 180.964 503.156 179.812 503.156ZM179.812 501.672C180.422 501.672 180.891 501.427 181.219 500.938C181.552 500.448 181.719 499.755 181.719 498.859C181.719 497.958 181.552 497.266 181.219 496.781C180.891 496.292 180.422 496.047 179.812 496.047C179.203 496.047 178.732 496.292 178.398 496.781C178.07 497.266 177.906 497.958 177.906 498.859C177.906 499.755 178.07 500.448 178.398 500.938C178.732 501.427 179.203 501.672 179.812 501.672ZM188.688 498.75L188.57 498.117C188.904 498.117 189.135 498.068 189.266 497.969C189.401 497.865 189.513 497.701 189.602 497.477L190.141 496.141C190.302 495.74 190.469 495.435 190.641 495.227C190.812 495.013 191.026 494.87 191.281 494.797C191.536 494.719 191.867 494.68 192.273 494.68H192.727V496.164H192.391C192.198 496.164 192.052 496.19 191.953 496.242C191.854 496.294 191.768 496.409 191.695 496.586L191.148 497.867C191.018 498.164 190.828 498.385 190.578 498.531C190.333 498.677 190 498.75 189.578 498.75H188.688ZM185.734 503V494.719H187.391V503H185.734ZM187.273 499.602V498.117H189.57V499.602H187.273ZM192.352 503.039C191.945 503.039 191.607 503.003 191.336 502.93C191.07 502.852 190.844 502.708 190.656 502.5C190.474 502.286 190.302 501.979 190.141 501.578L189.602 500.242C189.513 500.018 189.401 499.857 189.266 499.758C189.135 499.654 188.904 499.602 188.57 499.602L188.688 498.969H189.656C190.5 498.969 191.049 499.263 191.305 499.852L191.852 501.133C191.924 501.31 192.01 501.424 192.109 501.477C192.208 501.529 192.354 501.555 192.547 501.555H192.805V503.039H192.352ZM196.281 503V500.734H197L200.242 494.719H200.789V496.984H200.125L196.883 503H196.281ZM195.188 503V494.719H196.844V503H195.188ZM200.281 503V494.719H201.938V503H200.281Z" fill="#E1E1FF"/>
<defs>
<clipPath id="clip0_61_18">
<rect width="24" height="24" fill="white" transform="translate(72 222)"/>
</clipPath>
<clipPath id="clip1_61_18">
<rect width="24" height="24" fill="white" transform="translate(72 337)"/>
</clipPath>
</defs>
</svg>
