<svg width="704" height="504" viewBox="0 0 704 504" fill="none" xmlns="http://www.w3.org/2000/svg">
<rect width="704" height="504" rx="16" fill="#181925"/>
<path d="M54.9824 62.1953C53.1465 62.1953 51.7272 61.7331 50.7246 60.8086C49.7285 59.8776 49.2305 58.543 49.2305 56.8047C49.2305 55.112 49.6927 53.7969 50.6172 52.8594C51.5417 51.9219 52.8633 51.4531 54.582 51.4531C55.6302 51.4531 56.5254 51.6549 57.2676 52.0586C58.0163 52.4557 58.5469 53.0189 58.8594 53.748L57.0723 55.1445C56.7858 54.6823 56.418 54.3275 55.9688 54.0801C55.526 53.8262 55.0378 53.6992 54.5039 53.6992C53.6185 53.6992 52.9284 53.9596 52.4336 54.4805C51.9388 55.0013 51.6914 55.7435 51.6914 56.707C51.6914 57.7617 51.9941 58.5658 52.5996 59.1191C53.2116 59.6725 54.084 59.9492 55.2168 59.9492C55.6921 59.9492 56.1641 59.9264 56.6328 59.8809C57.1081 59.8353 57.5703 59.7734 58.0195 59.6953L58.2734 61.9023C57.7461 62.0195 57.1992 62.0977 56.6328 62.1367C56.0664 62.1758 55.5163 62.1953 54.9824 62.1953ZM64.2695 62.1953C63.2409 62.1953 62.4466 61.873 61.8867 61.2285C61.3268 60.5775 61.0469 59.6628 61.0469 58.4844V51.6484H63.459V58.0938C63.459 58.6862 63.6087 59.1452 63.9082 59.4707C64.2077 59.7897 64.6211 59.9492 65.1484 59.9492C65.8255 59.9492 66.3333 59.7116 66.6719 59.2363C67.0169 58.7546 67.1895 57.9505 67.1895 56.8242L67.7168 60.0078H66.9648C66.8021 60.7109 66.4831 61.2513 66.0078 61.6289C65.5391 62.0065 64.9596 62.1953 64.2695 62.1953ZM67.3652 62.0977L67.1895 59.6172V57.8008H69.6016V59.832L71.0273 60.0469V62L67.3652 62.0977ZM67.1895 59.0703V51.6484H69.6016V58.4844L67.1895 59.0703ZM76.4961 62.1953C75.7083 62.1953 75.0215 62.1693 74.4355 62.1172C73.8496 62.0716 73.3255 62 72.8633 61.9023L73.1465 59.6367C73.9082 59.7409 74.5625 59.819 75.1094 59.8711C75.6562 59.9232 76.1185 59.9492 76.4961 59.9492C77.4466 59.9492 78.1335 59.8711 78.5566 59.7148C78.9863 59.5586 79.2012 59.3112 79.2012 58.9727C79.2012 58.7578 79.1393 58.5918 79.0156 58.4746C78.8919 58.3574 78.6966 58.263 78.4297 58.1914L75.4512 57.3613C74.6309 57.1335 74.0189 56.821 73.6152 56.4238C73.2181 56.0202 73.0195 55.4538 73.0195 54.7246C73.0195 53.6048 73.472 52.7812 74.377 52.2539C75.2884 51.7201 76.7044 51.4531 78.625 51.4531C79.0938 51.4531 79.556 51.4694 80.0117 51.502C80.474 51.5345 80.9557 51.5833 81.457 51.6484L81.2031 53.8359C80.6367 53.7839 80.1387 53.748 79.709 53.7285C79.2858 53.709 78.9049 53.6992 78.5664 53.6992C77.4922 53.6992 76.7109 53.7741 76.2227 53.9238C75.7409 54.0736 75.5 54.3145 75.5 54.6465C75.5 54.8678 75.5716 55.0306 75.7148 55.1348C75.8581 55.2389 76.0794 55.3301 76.3789 55.4082L78.8789 56.082C79.849 56.3294 80.5651 56.6777 81.0273 57.127C81.4961 57.5762 81.7305 58.1882 81.7305 58.9629C81.7305 60.0697 81.304 60.8867 80.4512 61.4141C79.6048 61.9349 78.2865 62.1953 76.4961 62.1953ZM91.0859 62.1953C89.3867 62.1953 88.1595 61.8503 87.4043 61.1602C86.6491 60.4701 86.2715 59.3665 86.2715 57.8496V56.3359H88.6738V57.6543C88.6738 58.4551 88.8757 59.0378 89.2793 59.4023C89.6895 59.7669 90.3568 59.9492 91.2812 59.9492C91.5872 59.9492 91.916 59.9329 92.2676 59.9004C92.6191 59.8613 93.0195 59.8125 93.4688 59.7539L93.7031 61.9609C93.2669 62.0391 92.8372 62.0977 92.4141 62.1367C91.9974 62.1758 91.5547 62.1953 91.0859 62.1953ZM86.2715 57.0195V48.5234H88.6738V57.0195H86.2715ZM83.7422 53.8359V51.6484H93.3125V53.8359H83.7422ZM100.734 62.1953C99.2695 62.1953 98.1302 61.7266 97.3164 60.7891C96.5091 59.8516 96.1055 58.5299 96.1055 56.8242C96.1055 55.112 96.5091 53.7904 97.3164 52.8594C98.1302 51.9219 99.2695 51.4531 100.734 51.4531C102.206 51.4531 103.345 51.9219 104.152 52.8594C104.96 53.7904 105.363 55.112 105.363 56.8242C105.363 58.5299 104.96 59.8516 104.152 60.7891C103.345 61.7266 102.206 62.1953 100.734 62.1953ZM100.734 59.9492C101.424 59.9492 101.955 59.679 102.326 59.1387C102.697 58.5918 102.883 57.8203 102.883 56.8242C102.883 55.8216 102.694 55.0501 102.316 54.5098C101.945 53.9694 101.418 53.6992 100.734 53.6992C100.051 53.6992 99.5202 53.9694 99.1426 54.5098C98.7715 55.0501 98.5859 55.8216 98.5859 56.8242C98.5859 57.8203 98.7715 58.5918 99.1426 59.1387C99.5202 59.679 100.051 59.9492 100.734 59.9492ZM114.934 62V54.627C114.934 53.9108 114.702 53.5527 114.24 53.5527C113.687 53.5527 113.41 53.9727 113.41 54.8125L112.707 52.9375H113.557C113.602 52.5013 113.771 52.1465 114.064 51.873C114.364 51.5931 114.774 51.4531 115.295 51.4531C115.998 51.4531 116.509 51.6452 116.828 52.0293C117.154 52.4134 117.316 53.0352 117.316 53.8945V62H114.934ZM107.59 62V51.6484H109.748L109.982 53.8359V62H107.59ZM111.525 62V54.4316C111.525 53.8457 111.291 53.5527 110.822 53.5527C110.262 53.5527 109.982 53.9727 109.982 54.8125L109.377 52.9375H110.09C110.207 51.9479 110.757 51.4531 111.74 51.4531C112.261 51.4531 112.668 51.6387 112.961 52.0098C113.26 52.3809 113.41 52.944 113.41 53.6992V62H111.525Z" fill="#1187F8"/>
<rect width="560" height="286" transform="translate(72 110)" fill="#181925"/>
<path d="M78.709 124.195C76.9316 124.195 75.5579 123.733 74.5879 122.809C73.6178 121.878 73.1328 120.543 73.1328 118.805C73.1328 117.112 73.543 115.797 74.3633 114.859C75.1901 113.922 76.3522 113.453 77.8496 113.453C79.2949 113.453 80.4115 113.883 81.1992 114.742C81.9935 115.602 82.3906 116.848 82.3906 118.482C82.3906 118.958 82.3711 119.404 82.332 119.82H74.8711V118.082H80.0859C80.0859 117.294 79.8906 116.689 79.5 116.266C79.1094 115.842 78.5658 115.631 77.8691 115.631C77.1074 115.631 76.515 115.898 76.0918 116.432C75.6686 116.965 75.457 117.724 75.457 118.707C75.457 119.768 75.7598 120.579 76.3652 121.139C76.9707 121.692 77.8301 121.969 78.9434 121.969C79.3991 121.969 79.8451 121.946 80.2812 121.9C80.724 121.848 81.1732 121.78 81.6289 121.695L81.8828 123.922C81.2448 124.039 80.6589 124.114 80.125 124.146C79.5911 124.179 79.1191 124.195 78.709 124.195ZM91.4824 124V117.652C91.4824 117.027 91.3392 116.546 91.0527 116.207C90.7663 115.868 90.3626 115.699 89.8418 115.699C88.3965 115.699 87.6738 116.656 87.6738 118.57L87.0684 115.523H87.9082C87.9863 114.827 88.2272 114.309 88.6309 113.971C89.041 113.626 89.6497 113.453 90.457 113.453C91.5508 113.453 92.3971 113.785 92.9961 114.449C93.5951 115.113 93.8945 116.051 93.8945 117.262V124H91.4824ZM85.2617 124V113.648H87.4297L87.6738 115.836V124H85.2617ZM103.367 124.195C101.668 124.195 100.441 123.85 99.6855 123.16C98.9303 122.47 98.5527 121.367 98.5527 119.85V118.336H100.955V119.654C100.955 120.455 101.157 121.038 101.561 121.402C101.971 121.767 102.638 121.949 103.562 121.949C103.868 121.949 104.197 121.933 104.549 121.9C104.9 121.861 105.301 121.812 105.75 121.754L105.984 123.961C105.548 124.039 105.118 124.098 104.695 124.137C104.279 124.176 103.836 124.195 103.367 124.195ZM98.5527 119.02V110.523H100.955V119.02H98.5527ZM96.0234 115.836V113.648H105.594V115.836H96.0234ZM112.479 119.547L111.873 116.109H112.732C112.843 114.339 113.751 113.453 115.457 113.453C116.473 113.453 117.234 113.792 117.742 114.469C118.25 115.146 118.504 116.168 118.504 117.535H116.102C116.102 116.865 115.988 116.383 115.76 116.09C115.538 115.797 115.18 115.65 114.686 115.65C113.943 115.65 113.39 115.989 113.025 116.666C112.661 117.343 112.479 118.303 112.479 119.547ZM107.84 124V121.91H114.949V124H107.84ZM110.076 124V113.648H112.088L112.479 116.617V124H110.076ZM108.23 115.738V113.648H111.951L112.146 115.738H108.23ZM119.51 128.688L119.412 126.568L121.131 126.373C121.769 126.295 122.316 126.122 122.771 125.855C123.227 125.589 123.618 125.191 123.943 124.664C124.269 124.137 124.552 123.447 124.793 122.594L127.322 113.648H129.861L126.922 123.082C126.531 124.326 126.085 125.325 125.584 126.08C125.089 126.835 124.5 127.402 123.816 127.779C123.133 128.157 122.316 128.395 121.365 128.492L119.51 128.688ZM123.045 124L119.314 113.648H121.854L124.744 122.027H125.154V124H123.045Z" fill="#1187F8"/>
<rect x="96" y="164" width="512" height="96" rx="8" fill="#242638"/>
<path d="M124.504 211.504C123.836 211.9 123.502 212.098 123.251 211.952C123 211.805 123 211.412 123 210.626V190.287C123 189.024 124.007 188 125.25 188H138.75C139.993 188 141 189.024 141 190.287V210.626C141 211.412 141 211.805 140.749 211.952C140.498 212.098 140.164 211.9 139.496 211.504L132.504 207.358C132.258 207.212 132.135 207.139 132 207.139C131.865 207.139 131.742 207.212 131.496 207.358L124.504 211.504Z" fill="#E1E1FF"/>
<path d="M159.33 203.182V201.141H160.619C161.564 201.141 162.341 200.979 162.95 200.657C163.559 200.328 164.035 199.794 164.379 199.057C164.73 198.319 164.988 197.338 165.152 196.113H167.516C167.215 198.484 166.538 200.256 165.485 201.431C164.44 202.598 162.997 203.182 161.156 203.182H159.33ZM157.719 207.5V191.387H159.996V207.5H157.719ZM165.432 207.5L162.188 201.957L164.336 201.076L168.246 207.5H165.432ZM176.324 207.715C174.383 207.715 172.883 207.206 171.823 206.189C170.771 205.165 170.244 203.697 170.244 201.785C170.244 199.923 170.692 198.477 171.587 197.445C172.482 196.414 173.746 195.898 175.379 195.898C176.919 195.898 178.107 196.364 178.945 197.295C179.79 198.226 180.213 199.579 180.213 201.355C180.213 201.878 180.191 202.365 180.148 202.816H172.156V201.076H178.15C178.15 200.052 177.907 199.268 177.42 198.724C176.933 198.172 176.26 197.896 175.4 197.896C174.434 197.896 173.682 198.226 173.145 198.885C172.615 199.544 172.35 200.475 172.35 201.678C172.35 202.995 172.715 203.998 173.445 204.686C174.183 205.373 175.229 205.717 176.582 205.717C177.055 205.717 177.52 205.692 177.979 205.642C178.437 205.584 178.902 205.509 179.375 205.416L179.654 207.414C178.981 207.543 178.365 207.625 177.807 207.661C177.248 207.697 176.754 207.715 176.324 207.715ZM182.587 212.656L182.479 210.615L184.263 210.4C185.015 210.307 185.656 210.103 186.186 209.788C186.723 209.473 187.181 209.004 187.561 208.381C187.94 207.765 188.273 206.956 188.56 205.953L191.396 196.113H193.759L190.472 206.49C190.042 207.851 189.559 208.947 189.021 209.777C188.492 210.608 187.861 211.231 187.131 211.646C186.408 212.062 185.537 212.327 184.521 212.441L182.587 212.656ZM186.905 207.5L182.372 196.113H184.735L188.452 205.781H188.796V207.5H186.905Z" fill="#E1E1FF"/>
<path d="M514.422 207.5L510.039 195.898H509.051V192.246H510.469L514.852 203.848H515.389V207.5H514.422ZM507.59 207.5V192.246H509.824V207.5H507.59ZM515.066 207.5V192.246H517.301V207.5H515.066ZM538.28 207.715C537.084 207.715 536.121 207.479 535.391 207.006C534.667 206.526 534.137 205.831 533.801 204.922C533.471 204.005 533.307 202.895 533.307 201.592V199.282C533.307 197.785 533.507 196.521 533.908 195.49C534.309 194.459 534.922 193.646 535.745 193.052C536.569 192.45 537.611 192.049 538.871 191.849L542.771 191.226L542.878 192.934L539.44 193.471C538.76 193.578 538.151 193.739 537.614 193.954C537.084 194.162 536.633 194.452 536.261 194.824C535.896 195.197 535.616 195.68 535.423 196.274C535.237 196.869 535.144 197.603 535.144 198.477V199.229H535.337C535.559 198.412 535.999 197.782 536.658 197.338C537.324 196.894 538.133 196.672 539.086 196.672C540.404 196.672 541.428 197.134 542.158 198.058C542.889 198.974 543.254 200.317 543.254 202.086C543.254 203.919 542.817 205.316 541.943 206.275C541.077 207.235 539.856 207.715 538.28 207.715ZM538.409 206.061C539.34 206.061 540.071 205.738 540.601 205.094C541.131 204.442 541.396 203.475 541.396 202.193C541.396 200.904 541.138 199.941 540.622 199.304C540.106 198.659 539.372 198.337 538.42 198.337C537.396 198.337 536.601 198.663 536.035 199.314C535.477 199.959 535.197 200.919 535.197 202.193C535.197 203.475 535.48 204.442 536.046 205.094C536.619 205.738 537.407 206.061 538.409 206.061ZM553.674 207.607L553.513 203.858L553.287 203.321V200.55C553.287 199.583 552.997 198.881 552.417 198.444C551.844 198 550.956 197.768 549.753 197.746L547.186 197.682L547.4 196.006L549.613 196.038C551.482 196.067 552.861 196.475 553.749 197.263C554.637 198.05 555.081 199.236 555.081 200.818V205.856L557.025 206.061V207.5L553.674 207.607ZM549.452 207.715C548.285 207.715 547.382 207.439 546.745 206.888C546.108 206.329 545.789 205.549 545.789 204.546C545.789 203.343 546.226 202.43 547.1 201.807C547.973 201.176 549.23 200.861 550.87 200.861C551.586 200.861 552.238 200.901 552.825 200.979C553.412 201.058 553.907 201.176 554.308 201.334L553.964 202.655C553.491 202.519 552.983 202.44 552.438 202.419C551.894 202.397 551.354 202.387 550.816 202.387C548.646 202.387 547.562 203.074 547.562 204.449C547.562 205.001 547.748 205.427 548.12 205.728C548.493 206.021 549.019 206.168 549.699 206.168C550.451 206.168 551.096 206.039 551.633 205.781C552.17 205.523 552.578 205.19 552.857 204.782C553.144 204.367 553.287 203.923 553.287 203.45V202.172L554.007 205.094H553.083L553.395 204.793C553.373 205.409 553.194 205.935 552.857 206.372C552.521 206.809 552.062 207.142 551.482 207.371C550.902 207.6 550.226 207.715 549.452 207.715ZM560.581 207.5V204.847H561.526L566.65 196.113H567.359V198.767H566.489L561.365 207.5H560.581ZM559.453 207.5V196.113H561.312V207.5H559.453ZM566.704 207.5V196.113H568.562V207.5H566.704ZM564.008 194.201C562.755 194.201 561.834 193.879 561.247 193.234C560.66 192.583 560.366 191.598 560.366 190.28H562.053C562.053 191.175 562.2 191.827 562.493 192.235C562.787 192.644 563.292 192.848 564.008 192.848C564.738 192.848 565.247 192.64 565.533 192.225C565.82 191.802 565.963 191.154 565.963 190.28H567.649C567.649 191.605 567.352 192.59 566.758 193.234C566.171 193.879 565.254 194.201 564.008 194.201ZM575.975 207.5V196.113H577.822V207.5H575.975ZM571.506 197.8V196.113H582.291V197.8H571.506Z" fill="#E1E1FF"/>
<path opacity="0.75" d="M124.18 230.344L124.227 229.711C124.737 229.711 125.089 229.609 125.281 229.406C125.474 229.198 125.62 228.859 125.719 228.391L126.016 226.953C126.125 226.427 126.255 226.013 126.406 225.711C126.557 225.409 126.766 225.193 127.031 225.062C127.297 224.932 127.656 224.867 128.109 224.867H128.68V226.352H128.305C128.065 226.352 127.898 226.414 127.805 226.539C127.711 226.664 127.628 226.872 127.555 227.164L127.141 228.828C127.026 229.286 126.846 229.654 126.602 229.93C126.362 230.206 125.927 230.344 125.297 230.344H124.18ZM121.094 236V224.906H122.719V236H121.094ZM122.305 231.195V229.711H124.867V231.195H122.305ZM128.188 236.039C127.734 236.039 127.375 235.974 127.109 235.844C126.844 235.714 126.635 235.497 126.484 235.195C126.333 234.888 126.203 234.474 126.094 233.953L125.797 232.516C125.703 232.052 125.555 231.716 125.352 231.508C125.148 231.299 124.773 231.195 124.227 231.195L124.18 230.562H125.297C125.964 230.562 126.432 230.701 126.703 230.977C126.979 231.253 127.174 231.62 127.289 232.078L127.703 233.742C127.776 234.034 127.859 234.242 127.953 234.367C128.047 234.492 128.214 234.555 128.453 234.555H128.828V236.039H128.188ZM129.867 236V234.516C130.284 234.516 130.609 234.445 130.844 234.305C131.083 234.159 131.253 233.914 131.352 233.57C131.451 233.227 131.5 232.75 131.5 232.141V227.719H132.945V232.086C132.945 233.091 132.852 233.878 132.664 234.445C132.482 235.013 132.167 235.414 131.719 235.648C131.271 235.883 130.654 236 129.867 236ZM135.828 236V227.719H137.484V236H135.828ZM131.906 229.203V227.719H137.195V229.203H131.906ZM144.805 236.156C143.904 236.156 143.25 235.823 142.844 235.156C142.438 234.49 142.234 233.417 142.234 231.938C142.234 230.401 142.438 229.289 142.844 228.602C143.25 227.909 143.904 227.562 144.805 227.562C145.763 227.562 146.456 227.909 146.883 228.602C147.315 229.289 147.531 230.401 147.531 231.938C147.531 233.417 147.315 234.49 146.883 235.156C146.456 235.823 145.763 236.156 144.805 236.156ZM139.609 236V227.719H141.148V236H139.609ZM140.172 232.562V231.203H142.758V232.562H140.172ZM144.727 234.719C145.133 234.719 145.427 234.5 145.609 234.062C145.797 233.62 145.891 232.911 145.891 231.938C145.891 230.906 145.797 230.159 145.609 229.695C145.427 229.232 145.133 229 144.727 229C144.32 229 144.023 229.232 143.836 229.695C143.654 230.159 143.562 230.906 143.562 231.938C143.562 232.911 143.654 233.62 143.836 234.062C144.023 234.5 144.32 234.719 144.727 234.719ZM152.266 233.031C151.188 233.031 150.38 232.753 149.844 232.195C149.312 231.633 149.047 230.792 149.047 229.672V227.719H150.703V229.672C150.703 230.339 150.846 230.839 151.133 231.172C151.419 231.505 151.849 231.672 152.422 231.672H154.906V233.031H152.266ZM154.453 236V227.719H156.109V236H154.453ZM162.188 229.875C161.87 229.875 161.596 229.763 161.367 229.539C161.143 229.31 161.031 229.036 161.031 228.719C161.031 228.396 161.143 228.122 161.367 227.898C161.596 227.674 161.87 227.562 162.188 227.562C162.51 227.562 162.784 227.674 163.008 227.898C163.232 228.122 163.344 228.396 163.344 228.719C163.344 229.036 163.232 229.31 163.008 229.539C162.784 229.763 162.51 229.875 162.188 229.875ZM160.719 239.406L161.344 234.016H163.156L162.219 239.406H160.719ZM180.906 236.156C178.531 236.156 177.344 234.917 177.344 232.438V224.906H178.969V232.438C178.969 233.177 179.128 233.734 179.445 234.109C179.763 234.484 180.26 234.672 180.938 234.672C182.25 234.672 182.906 233.927 182.906 232.438V224.906H184.531V232.438C184.531 233.677 184.224 234.607 183.609 235.227C182.995 235.846 182.094 236.156 180.906 236.156ZM189.5 236V224.906H191.125V236H189.5ZM186.25 226.391V224.906H194.375V226.391H186.25ZM196.406 236V224.906H198.031V236H196.406ZM196.406 231.656V230.172H202.344V231.656H196.406ZM196.406 226.391V224.906H203.75V226.391H196.406ZM205.156 231.188V229.734H212.969V231.188H205.156ZM218.438 236.156C217.234 236.156 216.302 235.878 215.641 235.32C214.984 234.758 214.656 233.969 214.656 232.953C214.656 232.021 214.984 231.302 215.641 230.797C216.302 230.286 217.234 230.031 218.438 230.031C219.641 230.031 220.57 230.286 221.227 230.797C221.888 231.302 222.219 232.021 222.219 232.953C222.219 233.969 221.888 234.758 221.227 235.32C220.57 235.878 219.641 236.156 218.438 236.156ZM218.438 234.719C219.12 234.719 219.646 234.557 220.016 234.234C220.391 233.911 220.578 233.458 220.578 232.875C220.578 232.25 220.391 231.763 220.016 231.414C219.646 231.065 219.12 230.891 218.438 230.891C217.755 230.891 217.227 231.065 216.852 231.414C216.482 231.763 216.297 232.25 216.297 232.875C216.297 233.458 216.482 233.911 216.852 234.234C217.227 234.557 217.755 234.719 218.438 234.719ZM217.141 230.484V229.688H219.75V230.484H217.141ZM218.438 229.391C219.021 229.391 219.471 229.258 219.789 228.992C220.107 228.721 220.266 228.349 220.266 227.875C220.266 227.333 220.107 226.917 219.789 226.625C219.471 226.333 219.021 226.188 218.438 226.188C217.854 226.188 217.404 226.333 217.086 226.625C216.768 226.917 216.609 227.333 216.609 227.875C216.609 228.349 216.768 228.721 217.086 228.992C217.404 229.258 217.854 229.391 218.438 229.391ZM218.438 230.172C217.339 230.172 216.484 229.945 215.875 229.492C215.271 229.034 214.969 228.391 214.969 227.562C214.969 226.672 215.271 225.982 215.875 225.492C216.484 224.997 217.339 224.75 218.438 224.75C219.542 224.75 220.396 224.997 221 225.492C221.604 225.982 221.906 226.672 221.906 227.562C221.906 228.391 221.604 229.034 221 229.492C220.396 229.945 219.542 230.172 218.438 230.172ZM237.984 236.156C236.573 236.156 235.482 235.786 234.711 235.047C233.945 234.302 233.562 233.234 233.562 231.844C233.562 230.49 233.924 229.438 234.648 228.688C235.378 227.938 236.417 227.562 237.766 227.562C238.573 227.562 239.263 227.714 239.836 228.016C240.414 228.312 240.826 228.734 241.07 229.281L239.797 230.242C239.562 229.862 239.263 229.568 238.898 229.359C238.534 229.151 238.135 229.047 237.703 229.047C236.922 229.047 236.315 229.284 235.883 229.758C235.451 230.227 235.234 230.896 235.234 231.766C235.234 232.708 235.487 233.43 235.992 233.93C236.503 234.424 237.229 234.672 238.172 234.672C238.557 234.672 238.943 234.654 239.328 234.617C239.714 234.581 240.089 234.531 240.453 234.469L240.641 235.922C240.214 236.016 239.771 236.078 239.312 236.109C238.859 236.141 238.417 236.156 237.984 236.156ZM245.734 236V227.719H247.391V236H245.734ZM242.578 229.203V227.719H250.547V229.203H242.578ZM252.562 239.594V227.719H254.062L254.219 229.469V239.594H252.562ZM256.57 236.156C255.935 236.156 255.422 236.01 255.031 235.719C254.646 235.427 254.427 235.021 254.375 234.5H253.656L254.219 232.141C254.219 232.995 254.385 233.643 254.719 234.086C255.057 234.529 255.552 234.75 256.203 234.75C256.87 234.75 257.375 234.513 257.719 234.039C258.062 233.565 258.234 232.865 258.234 231.938C258.234 230.958 258.062 230.219 257.719 229.719C257.375 229.219 256.87 228.969 256.203 228.969C255.552 228.969 255.057 229.19 254.719 229.633C254.385 230.076 254.219 230.724 254.219 231.578L253.656 229.219H254.297C254.37 228.698 254.604 228.292 255 228C255.401 227.708 255.924 227.562 256.57 227.562C257.659 227.562 258.482 227.932 259.039 228.672C259.596 229.411 259.875 230.5 259.875 231.938C259.875 233.323 259.596 234.372 259.039 235.086C258.482 235.799 257.659 236.156 256.57 236.156ZM265.312 236.156C264.167 236.156 263.276 235.781 262.641 235.031C262.005 234.281 261.688 233.224 261.688 231.859C261.688 230.49 262.005 229.432 262.641 228.688C263.276 227.938 264.167 227.562 265.312 227.562C266.464 227.562 267.354 227.938 267.984 228.688C268.62 229.432 268.938 230.49 268.938 231.859C268.938 233.224 268.62 234.281 267.984 235.031C267.354 235.781 266.464 236.156 265.312 236.156ZM265.312 234.672C265.922 234.672 266.391 234.427 266.719 233.938C267.052 233.448 267.219 232.755 267.219 231.859C267.219 230.958 267.052 230.266 266.719 229.781C266.391 229.292 265.922 229.047 265.312 229.047C264.703 229.047 264.232 229.292 263.898 229.781C263.57 230.266 263.406 230.958 263.406 231.859C263.406 232.755 263.57 233.448 263.898 233.938C264.232 234.427 264.703 234.672 265.312 234.672ZM274.188 231.75L274.07 231.117C274.404 231.117 274.635 231.068 274.766 230.969C274.901 230.865 275.013 230.701 275.102 230.477L275.641 229.141C275.802 228.74 275.969 228.435 276.141 228.227C276.312 228.013 276.526 227.87 276.781 227.797C277.036 227.719 277.367 227.68 277.773 227.68H278.227V229.164H277.891C277.698 229.164 277.552 229.19 277.453 229.242C277.354 229.294 277.268 229.409 277.195 229.586L276.648 230.867C276.518 231.164 276.328 231.385 276.078 231.531C275.833 231.677 275.5 231.75 275.078 231.75H274.188ZM271.234 236V227.719H272.891V236H271.234ZM272.773 232.602V231.117H275.07V232.602H272.773ZM277.852 236.039C277.445 236.039 277.107 236.003 276.836 235.93C276.57 235.852 276.344 235.708 276.156 235.5C275.974 235.286 275.802 234.979 275.641 234.578L275.102 233.242C275.013 233.018 274.901 232.857 274.766 232.758C274.635 232.654 274.404 232.602 274.07 232.602L274.188 231.969H275.156C276 231.969 276.549 232.263 276.805 232.852L277.352 234.133C277.424 234.31 277.51 234.424 277.609 234.477C277.708 234.529 277.854 234.555 278.047 234.555H278.305V236.039H277.852ZM285.766 236.078L285.656 233.625L285.438 232.938V230.797C285.438 230.245 285.242 229.841 284.852 229.586C284.466 229.326 283.891 229.185 283.125 229.164L281.141 229.109L281.297 227.641L282.969 227.664C284.339 227.685 285.354 227.982 286.016 228.555C286.682 229.122 287.016 229.953 287.016 231.047V234.5L288.422 234.672V236L285.766 236.078ZM282.844 236.156C281.979 236.156 281.31 235.948 280.836 235.531C280.362 235.115 280.125 234.526 280.125 233.766C280.125 232.891 280.451 232.219 281.102 231.75C281.758 231.281 282.682 231.047 283.875 231.047C284.37 231.047 284.81 231.078 285.195 231.141C285.586 231.198 285.932 231.286 286.234 231.406L285.891 232.531C285.542 232.453 285.201 232.409 284.867 232.398C284.534 232.383 284.193 232.375 283.844 232.375C282.406 232.375 281.688 232.812 281.688 233.688C281.688 234.052 281.81 234.333 282.055 234.531C282.305 234.729 282.656 234.828 283.109 234.828C283.625 234.828 284.055 234.74 284.398 234.562C284.747 234.385 285.008 234.159 285.18 233.883C285.352 233.607 285.438 233.323 285.438 233.031V232.125L285.922 234.25H285.266L285.531 234C285.531 234.479 285.419 234.88 285.195 235.203C284.977 235.521 284.667 235.76 284.266 235.922C283.865 236.078 283.391 236.156 282.844 236.156ZM291.969 239.406L292.594 234.016H294.406L293.469 239.406H291.969ZM312.188 236.156C311.042 236.156 310.151 235.781 309.516 235.031C308.88 234.281 308.562 233.224 308.562 231.859C308.562 230.49 308.88 229.432 309.516 228.688C310.151 227.938 311.042 227.562 312.188 227.562C313.339 227.562 314.229 227.938 314.859 228.688C315.495 229.432 315.812 230.49 315.812 231.859C315.812 233.224 315.495 234.281 314.859 235.031C314.229 235.781 313.339 236.156 312.188 236.156ZM312.188 234.672C312.797 234.672 313.266 234.427 313.594 233.938C313.927 233.448 314.094 232.755 314.094 231.859C314.094 230.958 313.927 230.266 313.594 229.781C313.266 229.292 312.797 229.047 312.188 229.047C311.578 229.047 311.107 229.292 310.773 229.781C310.445 230.266 310.281 230.958 310.281 231.859C310.281 232.755 310.445 233.448 310.773 233.938C311.107 234.427 311.578 234.672 312.188 234.672ZM321.062 231.75L320.945 231.117C321.279 231.117 321.51 231.068 321.641 230.969C321.776 230.865 321.888 230.701 321.977 230.477L322.516 229.141C322.677 228.74 322.844 228.435 323.016 228.227C323.188 228.013 323.401 227.87 323.656 227.797C323.911 227.719 324.242 227.68 324.648 227.68H325.102V229.164H324.766C324.573 229.164 324.427 229.19 324.328 229.242C324.229 229.294 324.143 229.409 324.07 229.586L323.523 230.867C323.393 231.164 323.203 231.385 322.953 231.531C322.708 231.677 322.375 231.75 321.953 231.75H321.062ZM318.109 236V227.719H319.766V236H318.109ZM319.648 232.602V231.117H321.945V232.602H319.648ZM324.727 236.039C324.32 236.039 323.982 236.003 323.711 235.93C323.445 235.852 323.219 235.708 323.031 235.5C322.849 235.286 322.677 234.979 322.516 234.578L321.977 233.242C321.888 233.018 321.776 232.857 321.641 232.758C321.51 232.654 321.279 232.602 320.945 232.602L321.062 231.969H322.031C322.875 231.969 323.424 232.263 323.68 232.852L324.227 234.133C324.299 234.31 324.385 234.424 324.484 234.477C324.583 234.529 324.729 234.555 324.922 234.555H325.18V236.039H324.727ZM332.641 236.078L332.531 233.625L332.312 232.938V230.797C332.312 230.245 332.117 229.841 331.727 229.586C331.341 229.326 330.766 229.185 330 229.164L328.016 229.109L328.172 227.641L329.844 227.664C331.214 227.685 332.229 227.982 332.891 228.555C333.557 229.122 333.891 229.953 333.891 231.047V234.5L335.297 234.672V236L332.641 236.078ZM329.719 236.156C328.854 236.156 328.185 235.948 327.711 235.531C327.237 235.115 327 234.526 327 233.766C327 232.891 327.326 232.219 327.977 231.75C328.633 231.281 329.557 231.047 330.75 231.047C331.245 231.047 331.685 231.078 332.07 231.141C332.461 231.198 332.807 231.286 333.109 231.406L332.766 232.531C332.417 232.453 332.076 232.409 331.742 232.398C331.409 232.383 331.068 232.375 330.719 232.375C329.281 232.375 328.562 232.812 328.562 233.688C328.562 234.052 328.685 234.333 328.93 234.531C329.18 234.729 329.531 234.828 329.984 234.828C330.5 234.828 330.93 234.74 331.273 234.562C331.622 234.385 331.883 234.159 332.055 233.883C332.227 233.607 332.312 233.323 332.312 233.031V232.125L332.797 234.25H332.141L332.406 234C332.406 234.479 332.294 234.88 332.07 235.203C331.852 235.521 331.542 235.76 331.141 235.922C330.74 236.078 330.266 236.156 329.719 236.156ZM342.031 236V227.719H343.688V236H342.031ZM336.938 236V227.719H338.594V236H336.938ZM337.422 232.539V231.18H343.445V232.539H337.422ZM349.141 233.031C348.062 233.031 347.255 232.753 346.719 232.195C346.188 231.633 345.922 230.792 345.922 229.672V227.719H347.578V229.672C347.578 230.339 347.721 230.839 348.008 231.172C348.294 231.505 348.724 231.672 349.297 231.672H351.781V233.031H349.141ZM351.328 236V227.719H352.984V236H351.328ZM356.781 236V233.734H357.5L360.742 227.719H361.289V229.984H360.625L357.383 236H356.781ZM355.688 236V227.719H357.344V236H355.688ZM360.781 236V227.719H362.438V236H360.781ZM366.688 236V234.516H369.344C369.729 234.516 370.029 234.422 370.242 234.234C370.456 234.042 370.562 233.771 370.562 233.422C370.562 233.073 370.445 232.805 370.211 232.617C369.982 232.424 369.656 232.328 369.234 232.328H366.531V231.773H369.625C370.474 231.773 371.13 231.958 371.594 232.328C372.062 232.698 372.297 233.219 372.297 233.891C372.297 234.562 372.078 235.083 371.641 235.453C371.203 235.818 370.589 236 369.797 236H366.688ZM365.141 236V227.719H366.797V236H365.141ZM366.156 232.109V231.344H369.719V232.109H366.156ZM366.531 231.633V231.078H369.031C369.417 231.078 369.716 230.997 369.93 230.836C370.143 230.669 370.25 230.438 370.25 230.141C370.25 229.844 370.133 229.615 369.898 229.453C369.669 229.286 369.344 229.203 368.922 229.203H366.688V227.719H369.312C370.161 227.719 370.818 227.904 371.281 228.273C371.75 228.638 371.984 229.156 371.984 229.828C371.984 230.401 371.766 230.846 371.328 231.164C370.891 231.477 370.276 231.633 369.484 231.633H366.531ZM379.516 236.078L379.406 233.625L379.188 232.938V230.797C379.188 230.245 378.992 229.841 378.602 229.586C378.216 229.326 377.641 229.185 376.875 229.164L374.891 229.109L375.047 227.641L376.719 227.664C378.089 227.685 379.104 227.982 379.766 228.555C380.432 229.122 380.766 229.953 380.766 231.047V234.5L382.172 234.672V236L379.516 236.078ZM376.594 236.156C375.729 236.156 375.06 235.948 374.586 235.531C374.112 235.115 373.875 234.526 373.875 233.766C373.875 232.891 374.201 232.219 374.852 231.75C375.508 231.281 376.432 231.047 377.625 231.047C378.12 231.047 378.56 231.078 378.945 231.141C379.336 231.198 379.682 231.286 379.984 231.406L379.641 232.531C379.292 232.453 378.951 232.409 378.617 232.398C378.284 232.383 377.943 232.375 377.594 232.375C376.156 232.375 375.438 232.812 375.438 233.688C375.438 234.052 375.56 234.333 375.805 234.531C376.055 234.729 376.406 234.828 376.859 234.828C377.375 234.828 377.805 234.74 378.148 234.562C378.497 234.385 378.758 234.159 378.93 233.883C379.102 233.607 379.188 233.323 379.188 233.031V232.125L379.672 234.25H379.016L379.281 234C379.281 234.479 379.169 234.88 378.945 235.203C378.727 235.521 378.417 235.76 378.016 235.922C377.615 236.078 377.141 236.156 376.594 236.156ZM388.555 236.156C387.654 236.156 387 235.823 386.594 235.156C386.188 234.49 385.984 233.417 385.984 231.938C385.984 230.401 386.188 229.289 386.594 228.602C387 227.909 387.654 227.562 388.555 227.562C389.513 227.562 390.206 227.909 390.633 228.602C391.065 229.289 391.281 230.401 391.281 231.938C391.281 233.417 391.065 234.49 390.633 235.156C390.206 235.823 389.513 236.156 388.555 236.156ZM383.359 236V227.719H384.898V236H383.359ZM383.922 232.562V231.203H386.508V232.562H383.922ZM388.477 234.719C388.883 234.719 389.177 234.5 389.359 234.062C389.547 233.62 389.641 232.911 389.641 231.938C389.641 230.906 389.547 230.159 389.359 229.695C389.177 229.232 388.883 229 388.477 229C388.07 229 387.773 229.232 387.586 229.695C387.404 230.159 387.312 230.906 387.312 231.938C387.312 232.911 387.404 233.62 387.586 234.062C387.773 234.5 388.07 234.719 388.477 234.719ZM398.562 236V227.719H400.219V236H398.562ZM393.078 236V234.594H400.086V236H393.078ZM392.75 236V227.719H394.406V236H392.75ZM399.359 238.109V234.594H400.922V238.109H399.359ZM395.812 236V227.719H397.141V236H395.812ZM407.641 236.078L407.531 233.625L407.312 232.938V230.797C407.312 230.245 407.117 229.841 406.727 229.586C406.341 229.326 405.766 229.185 405 229.164L403.016 229.109L403.172 227.641L404.844 227.664C406.214 227.685 407.229 227.982 407.891 228.555C408.557 229.122 408.891 229.953 408.891 231.047V234.5L410.297 234.672V236L407.641 236.078ZM404.719 236.156C403.854 236.156 403.185 235.948 402.711 235.531C402.237 235.115 402 234.526 402 233.766C402 232.891 402.326 232.219 402.977 231.75C403.633 231.281 404.557 231.047 405.75 231.047C406.245 231.047 406.685 231.078 407.07 231.141C407.461 231.198 407.807 231.286 408.109 231.406L407.766 232.531C407.417 232.453 407.076 232.409 406.742 232.398C406.409 232.383 406.068 232.375 405.719 232.375C404.281 232.375 403.562 232.812 403.562 233.688C403.562 234.052 403.685 234.333 403.93 234.531C404.18 234.729 404.531 234.828 404.984 234.828C405.5 234.828 405.93 234.74 406.273 234.562C406.622 234.385 406.883 234.159 407.055 233.883C407.227 233.607 407.312 233.323 407.312 233.031V232.125L407.797 234.25H407.141L407.406 234C407.406 234.479 407.294 234.88 407.07 235.203C406.852 235.521 406.542 235.76 406.141 235.922C405.74 236.078 405.266 236.156 404.719 236.156ZM414.352 232.484C413.549 232.484 412.93 232.286 412.492 231.891C412.055 231.495 411.836 230.935 411.836 230.211C411.836 229.419 412.109 228.807 412.656 228.375C413.203 227.938 413.977 227.719 414.977 227.719H417.258V229.203H414.977C414.523 229.203 414.172 229.315 413.922 229.539C413.677 229.763 413.555 230.081 413.555 230.492C413.555 230.878 413.677 231.177 413.922 231.391C414.172 231.599 414.523 231.703 414.977 231.703H417.102L417.023 232.484H414.352ZM411.609 236.039V234.555H411.867C412.081 234.555 412.245 234.51 412.359 234.422C412.479 234.328 412.599 234.193 412.719 234.016L413.109 233.438C413.276 233.193 413.471 233.01 413.695 232.891C413.924 232.771 414.229 232.711 414.609 232.711H416.094L416.188 233.188C415.849 233.188 415.591 233.211 415.414 233.258C415.237 233.305 415.104 233.375 415.016 233.469C414.927 233.562 414.844 233.682 414.766 233.828L414.43 234.461C414.242 234.82 414.052 235.117 413.859 235.352C413.672 235.581 413.443 235.753 413.172 235.867C412.901 235.982 412.544 236.039 412.102 236.039H411.609ZM414.766 233.188V231.703H417.367V233.188H414.766ZM416.992 236V227.719H418.648V236H416.992ZM425.484 236.156C424.073 236.156 422.982 235.786 422.211 235.047C421.445 234.302 421.062 233.234 421.062 231.844C421.062 230.49 421.424 229.438 422.148 228.688C422.878 227.938 423.917 227.562 425.266 227.562C426.073 227.562 426.763 227.714 427.336 228.016C427.914 228.312 428.326 228.734 428.57 229.281L427.297 230.242C427.062 229.862 426.763 229.568 426.398 229.359C426.034 229.151 425.635 229.047 425.203 229.047C424.422 229.047 423.815 229.284 423.383 229.758C422.951 230.227 422.734 230.896 422.734 231.766C422.734 232.708 422.987 233.43 423.492 233.93C424.003 234.424 424.729 234.672 425.672 234.672C426.057 234.672 426.443 234.654 426.828 234.617C427.214 234.581 427.589 234.531 427.953 234.469L428.141 235.922C427.714 236.016 427.271 236.078 426.812 236.109C426.359 236.141 425.917 236.156 425.484 236.156ZM433.102 232.484C432.299 232.484 431.68 232.286 431.242 231.891C430.805 231.495 430.586 230.935 430.586 230.211C430.586 229.419 430.859 228.807 431.406 228.375C431.953 227.938 432.727 227.719 433.727 227.719H436.008V229.203H433.727C433.273 229.203 432.922 229.315 432.672 229.539C432.427 229.763 432.305 230.081 432.305 230.492C432.305 230.878 432.427 231.177 432.672 231.391C432.922 231.599 433.273 231.703 433.727 231.703H435.852L435.773 232.484H433.102ZM430.359 236.039V234.555H430.617C430.831 234.555 430.995 234.51 431.109 234.422C431.229 234.328 431.349 234.193 431.469 234.016L431.859 233.438C432.026 233.193 432.221 233.01 432.445 232.891C432.674 232.771 432.979 232.711 433.359 232.711H434.844L434.938 233.188C434.599 233.188 434.341 233.211 434.164 233.258C433.987 233.305 433.854 233.375 433.766 233.469C433.677 233.562 433.594 233.682 433.516 233.828L433.18 234.461C432.992 234.82 432.802 235.117 432.609 235.352C432.422 235.581 432.193 235.753 431.922 235.867C431.651 235.982 431.294 236.039 430.852 236.039H430.359ZM433.516 233.188V231.703H436.117V233.188H433.516ZM435.742 236V227.719H437.398V236H435.742ZM454.531 236V227.719H456.188V236H454.531ZM449.438 236V227.719H451.094V236H449.438ZM449.922 232.539V231.18H455.945V232.539H449.922ZM463.891 236.078L463.781 233.625L463.562 232.938V230.797C463.562 230.245 463.367 229.841 462.977 229.586C462.591 229.326 462.016 229.185 461.25 229.164L459.266 229.109L459.422 227.641L461.094 227.664C462.464 227.685 463.479 227.982 464.141 228.555C464.807 229.122 465.141 229.953 465.141 231.047V234.5L466.547 234.672V236L463.891 236.078ZM460.969 236.156C460.104 236.156 459.435 235.948 458.961 235.531C458.487 235.115 458.25 234.526 458.25 233.766C458.25 232.891 458.576 232.219 459.227 231.75C459.883 231.281 460.807 231.047 462 231.047C462.495 231.047 462.935 231.078 463.32 231.141C463.711 231.198 464.057 231.286 464.359 231.406L464.016 232.531C463.667 232.453 463.326 232.409 462.992 232.398C462.659 232.383 462.318 232.375 461.969 232.375C460.531 232.375 459.812 232.812 459.812 233.688C459.812 234.052 459.935 234.333 460.18 234.531C460.43 234.729 460.781 234.828 461.234 234.828C461.75 234.828 462.18 234.74 462.523 234.562C462.872 234.385 463.133 234.159 463.305 233.883C463.477 233.607 463.562 233.323 463.562 233.031V232.125L464.047 234.25H463.391L463.656 234C463.656 234.479 463.544 234.88 463.32 235.203C463.102 235.521 462.792 235.76 462.391 235.922C461.99 236.078 461.516 236.156 460.969 236.156ZM483.078 237.484L476.797 223.422H478.453L484.734 237.484H483.078ZM490.312 236.156C487.792 236.156 486.531 234.281 486.531 230.531C486.531 226.677 487.792 224.75 490.312 224.75C492.833 224.75 494.094 226.677 494.094 230.531C494.094 234.281 492.833 236.156 490.312 236.156ZM490.312 231.703C489.964 231.703 489.68 231.596 489.461 231.383C489.247 231.164 489.141 230.88 489.141 230.531C489.141 230.177 489.247 229.893 489.461 229.68C489.68 229.466 489.964 229.359 490.312 229.359C490.667 229.359 490.951 229.466 491.164 229.68C491.378 229.893 491.484 230.177 491.484 230.531C491.484 230.88 491.378 231.164 491.164 231.383C490.951 231.596 490.667 231.703 490.312 231.703ZM490.312 234.719C491.719 234.719 492.422 233.323 492.422 230.531C492.422 227.635 491.719 226.188 490.312 226.188C488.906 226.188 488.203 227.635 488.203 230.531C488.203 233.323 488.906 234.719 490.312 234.719Z" fill="#E1E1FF"/>
<rect x="96" y="276" width="512" height="96" rx="8" fill="#242638"/>
<path d="M133.5 306.375V300.96C133.5 300.43 133.07 300 132.54 300H124.125C123.502 300 123 300.502 123 301.125V322.875C123 323.498 123.502 324 124.125 324H139.875C140.498 324 141 323.498 141 322.875V308.46C141 307.93 140.57 307.5 140.04 307.5H134.625C134.006 307.5 133.5 306.994 133.5 306.375ZM141 305.714C141 305.872 140.872 306 140.714 306H135.96C135.43 306 135 305.57 135 305.04V300.286C135 300.128 135.128 300 135.286 300C135.586 300 135.872 300.117 136.083 300.328L140.672 304.922C140.883 305.133 141 305.419 141 305.714Z" fill="#E1E1FF"/>
<path d="M160.931 319.5L156.859 308.113H159.287L162.349 317.566H162.542L165.604 308.113H168.031L163.96 319.5H160.931ZM177.678 319.607L177.527 316.234L177.227 315.289V312.346C177.227 311.587 176.958 311.032 176.421 310.681C175.891 310.323 175.1 310.129 174.047 310.101L171.318 310.025L171.533 308.006L173.832 308.038C175.715 308.067 177.112 308.475 178.021 309.263C178.938 310.043 179.396 311.186 179.396 312.689V317.438L181.33 317.674V319.5L177.678 319.607ZM173.66 319.715C172.471 319.715 171.551 319.428 170.899 318.855C170.248 318.283 169.922 317.473 169.922 316.428C169.922 315.225 170.369 314.301 171.265 313.656C172.167 313.012 173.438 312.689 175.078 312.689C175.758 312.689 176.364 312.732 176.894 312.818C177.431 312.897 177.907 313.019 178.322 313.184L177.85 314.73C177.37 314.623 176.901 314.562 176.442 314.548C175.984 314.526 175.515 314.516 175.035 314.516C173.059 314.516 172.07 315.117 172.07 316.32C172.07 316.822 172.239 317.208 172.575 317.48C172.919 317.753 173.402 317.889 174.025 317.889C174.734 317.889 175.325 317.767 175.798 317.523C176.278 317.28 176.636 316.968 176.872 316.589C177.108 316.209 177.227 315.819 177.227 315.418V314.172L177.893 317.094H176.99L177.355 316.75C177.355 317.409 177.201 317.96 176.894 318.404C176.593 318.841 176.167 319.171 175.615 319.393C175.064 319.607 174.412 319.715 173.66 319.715ZM189.924 319.715C188.606 319.715 187.654 319.357 187.066 318.641C186.479 317.924 186.186 316.779 186.186 315.203V303.387H188.463V315.096C188.463 315.697 188.52 316.188 188.635 316.567C188.749 316.947 188.971 317.226 189.301 317.405C189.637 317.584 190.132 317.674 190.783 317.674C191.378 317.674 192.137 317.538 193.061 317.266L193.318 319.264C192.738 319.421 192.18 319.536 191.643 319.607C191.113 319.679 190.54 319.715 189.924 319.715ZM182.834 305.385V303.387H186.379V305.385H182.834ZM200 319.715C198.804 319.715 197.877 319.36 197.218 318.651C196.566 317.935 196.24 316.929 196.24 315.633V308.113H198.518V315.633C198.518 316.285 198.704 316.789 199.076 317.147C199.449 317.498 199.971 317.674 200.645 317.674C201.475 317.674 202.102 317.412 202.524 316.89C202.947 316.36 203.158 315.475 203.158 314.236L203.738 317.309H202.986C202.807 318.082 202.456 318.676 201.934 319.092C201.411 319.507 200.766 319.715 200 319.715ZM203.352 319.607L203.158 316.879V314.881H205.436V317.438L207.004 317.674V319.5L203.352 319.607ZM203.158 316.277V308.113H205.436V315.633L203.158 316.277ZM214.996 319.715C213.055 319.715 211.555 319.206 210.495 318.189C209.442 317.165 208.916 315.697 208.916 313.785C208.916 311.923 209.364 310.477 210.259 309.445C211.154 308.414 212.418 307.898 214.051 307.898C215.59 307.898 216.779 308.364 217.617 309.295C218.462 310.226 218.885 311.579 218.885 313.355C218.885 313.878 218.863 314.365 218.82 314.816H210.828V313.076H216.822C216.822 312.052 216.579 311.268 216.092 310.724C215.605 310.172 214.932 309.896 214.072 309.896C213.105 309.896 212.354 310.226 211.816 310.885C211.286 311.544 211.021 312.475 211.021 313.678C211.021 314.995 211.387 315.998 212.117 316.686C212.855 317.373 213.9 317.717 215.254 317.717C215.727 317.717 216.192 317.692 216.65 317.642C217.109 317.584 217.574 317.509 218.047 317.416L218.326 319.414C217.653 319.543 217.037 319.625 216.479 319.661C215.92 319.697 215.426 319.715 214.996 319.715Z" fill="#E1E1FF"/>
<path d="M513.702 319.5L510.34 307.705H509.233V304.246H511.188L514.551 316.041H515.206V319.5H513.702ZM507.482 319.5V304.246H510.007V319.5H507.482ZM514.884 319.5V304.246H517.408V319.5H514.884ZM538.28 319.715C537.084 319.715 536.121 319.479 535.391 319.006C534.667 318.526 534.137 317.831 533.801 316.922C533.471 316.005 533.307 314.895 533.307 313.592V311.282C533.307 309.785 533.507 308.521 533.908 307.49C534.309 306.459 534.922 305.646 535.745 305.052C536.569 304.45 537.611 304.049 538.871 303.849L542.771 303.226L542.878 304.934L539.44 305.471C538.76 305.578 538.151 305.739 537.614 305.954C537.084 306.162 536.633 306.452 536.261 306.824C535.896 307.197 535.616 307.68 535.423 308.274C535.237 308.869 535.144 309.603 535.144 310.477V311.229H535.337C535.559 310.412 535.999 309.782 536.658 309.338C537.324 308.894 538.133 308.672 539.086 308.672C540.404 308.672 541.428 309.134 542.158 310.058C542.889 310.974 543.254 312.317 543.254 314.086C543.254 315.919 542.817 317.316 541.943 318.275C541.077 319.235 539.856 319.715 538.28 319.715ZM538.409 318.061C539.34 318.061 540.071 317.738 540.601 317.094C541.131 316.442 541.396 315.475 541.396 314.193C541.396 312.904 541.138 311.941 540.622 311.304C540.106 310.659 539.372 310.337 538.42 310.337C537.396 310.337 536.601 310.663 536.035 311.314C535.477 311.959 535.197 312.919 535.197 314.193C535.197 315.475 535.48 316.442 536.046 317.094C536.619 317.738 537.407 318.061 538.409 318.061ZM553.674 319.607L553.513 315.858L553.287 315.321V312.55C553.287 311.583 552.997 310.881 552.417 310.444C551.844 310 550.956 309.768 549.753 309.746L547.186 309.682L547.4 308.006L549.613 308.038C551.482 308.067 552.861 308.475 553.749 309.263C554.637 310.05 555.081 311.236 555.081 312.818V317.856L557.025 318.061V319.5L553.674 319.607ZM549.452 319.715C548.285 319.715 547.382 319.439 546.745 318.888C546.108 318.329 545.789 317.549 545.789 316.546C545.789 315.343 546.226 314.43 547.1 313.807C547.973 313.176 549.23 312.861 550.87 312.861C551.586 312.861 552.238 312.901 552.825 312.979C553.412 313.058 553.907 313.176 554.308 313.334L553.964 314.655C553.491 314.519 552.983 314.44 552.438 314.419C551.894 314.397 551.354 314.387 550.816 314.387C548.646 314.387 547.562 315.074 547.562 316.449C547.562 317.001 547.748 317.427 548.12 317.728C548.493 318.021 549.019 318.168 549.699 318.168C550.451 318.168 551.096 318.039 551.633 317.781C552.17 317.523 552.578 317.19 552.857 316.782C553.144 316.367 553.287 315.923 553.287 315.45V314.172L554.007 317.094H553.083L553.395 316.793C553.373 317.409 553.194 317.935 552.857 318.372C552.521 318.809 552.062 319.142 551.482 319.371C550.902 319.6 550.226 319.715 549.452 319.715ZM560.581 319.5V316.847H561.526L566.65 308.113H567.359V310.767H566.489L561.365 319.5H560.581ZM559.453 319.5V308.113H561.312V319.5H559.453ZM566.704 319.5V308.113H568.562V319.5H566.704ZM564.008 306.201C562.755 306.201 561.834 305.879 561.247 305.234C560.66 304.583 560.366 303.598 560.366 302.28H562.053C562.053 303.175 562.2 303.827 562.493 304.235C562.787 304.644 563.292 304.848 564.008 304.848C564.738 304.848 565.247 304.64 565.533 304.225C565.82 303.802 565.963 303.154 565.963 302.28H567.649C567.649 303.605 567.352 304.59 566.758 305.234C566.171 305.879 565.254 306.201 564.008 306.201ZM575.975 319.5V308.113H577.822V319.5H575.975ZM571.506 309.8V308.113H582.291V309.8H571.506Z" fill="#E1E1FF"/>
<path opacity="0.75" d="M124.336 348.156C123.586 348.156 122.883 348.044 122.227 347.82C121.57 347.596 120.995 347.263 120.5 346.82L121.625 345.719C121.938 345.953 122.237 346.143 122.523 346.289C122.815 346.435 123.107 346.544 123.398 346.617C123.69 346.685 124.003 346.719 124.336 346.719C125.122 346.719 125.721 346.549 126.133 346.211C126.544 345.867 126.75 345.414 126.75 344.852C126.75 344.602 126.708 344.378 126.625 344.18C126.547 343.982 126.432 343.807 126.281 343.656C126.135 343.505 125.956 343.38 125.742 343.281C125.534 343.182 125.297 343.109 125.031 343.062C124.766 343.01 124.479 342.984 124.172 342.984H123.156L123.062 341.516C123.714 341.495 124.305 341.438 124.836 341.344C125.367 341.245 125.789 341.073 126.102 340.828C126.419 340.583 126.578 340.234 126.578 339.781C126.578 339.328 126.375 338.951 125.969 338.648C125.568 338.346 124.969 338.195 124.172 338.195C123.677 338.195 123.234 338.245 122.844 338.344C122.453 338.443 122.07 338.568 121.695 338.719L121.359 337.305C121.604 337.206 121.977 337.089 122.477 336.953C122.982 336.818 123.599 336.75 124.328 336.75C125.562 336.75 126.51 337 127.172 337.5C127.839 338 128.172 338.656 128.172 339.469C128.172 339.984 128.039 340.417 127.773 340.766C127.508 341.109 127.143 341.388 126.68 341.602C126.221 341.815 125.698 341.987 125.109 342.117L125.242 341.68V342.594L125.109 342.172C125.703 342.188 126.247 342.305 126.742 342.523C127.237 342.737 127.633 343.049 127.93 343.461C128.227 343.872 128.375 344.385 128.375 345C128.375 345.625 128.214 346.174 127.891 346.648C127.568 347.122 127.104 347.492 126.5 347.758C125.896 348.023 125.174 348.156 124.336 348.156ZM135.781 348V339.719H137.438V348H135.781ZM130.688 348V339.719H132.344V348H130.688ZM131.172 344.539V343.18H137.195V344.539H131.172ZM145.141 348.078L145.031 345.625L144.812 344.938V342.797C144.812 342.245 144.617 341.841 144.227 341.586C143.841 341.326 143.266 341.185 142.5 341.164L140.516 341.109L140.672 339.641L142.344 339.664C143.714 339.685 144.729 339.982 145.391 340.555C146.057 341.122 146.391 341.953 146.391 343.047V346.5L147.797 346.672V348L145.141 348.078ZM142.219 348.156C141.354 348.156 140.685 347.948 140.211 347.531C139.737 347.115 139.5 346.526 139.5 345.766C139.5 344.891 139.826 344.219 140.477 343.75C141.133 343.281 142.057 343.047 143.25 343.047C143.745 343.047 144.185 343.078 144.57 343.141C144.961 343.198 145.307 343.286 145.609 343.406L145.266 344.531C144.917 344.453 144.576 344.409 144.242 344.398C143.909 344.383 143.568 344.375 143.219 344.375C141.781 344.375 141.062 344.812 141.062 345.688C141.062 346.052 141.185 346.333 141.43 346.531C141.68 346.729 142.031 346.828 142.484 346.828C143 346.828 143.43 346.74 143.773 346.562C144.122 346.385 144.383 346.159 144.555 345.883C144.727 345.607 144.812 345.323 144.812 345.031V344.125L145.297 346.25H144.641L144.906 346C144.906 346.479 144.794 346.88 144.57 347.203C144.352 347.521 144.042 347.76 143.641 347.922C143.24 348.078 142.766 348.156 142.219 348.156ZM152.266 345.031C151.188 345.031 150.38 344.753 149.844 344.195C149.312 343.633 149.047 342.792 149.047 341.672V339.719H150.703V341.672C150.703 342.339 150.846 342.839 151.133 343.172C151.419 343.505 151.849 343.672 152.422 343.672H154.906V345.031H152.266ZM154.453 348V339.719H156.109V348H154.453ZM162.906 348.156C161.495 348.156 160.404 347.786 159.633 347.047C158.867 346.302 158.484 345.234 158.484 343.844C158.484 342.49 158.81 341.438 159.461 340.688C160.112 339.938 161.031 339.562 162.219 339.562C163.339 339.562 164.203 339.901 164.812 340.578C165.427 341.255 165.734 342.24 165.734 343.531C165.734 343.911 165.719 344.266 165.688 344.594H159.875V343.328H164.234C164.234 342.583 164.057 342.013 163.703 341.617C163.349 341.216 162.859 341.016 162.234 341.016C161.531 341.016 160.984 341.255 160.594 341.734C160.208 342.214 160.016 342.891 160.016 343.766C160.016 344.724 160.281 345.453 160.812 345.953C161.349 346.453 162.109 346.703 163.094 346.703C163.438 346.703 163.776 346.685 164.109 346.648C164.443 346.607 164.781 346.552 165.125 346.484L165.328 347.938C164.839 348.031 164.391 348.091 163.984 348.117C163.578 348.143 163.219 348.156 162.906 348.156ZM173.281 348V339.719H174.938V348H173.281ZM168.188 348V339.719H169.844V348H168.188ZM168.672 344.539V343.18H174.695V344.539H168.672ZM178.656 348V345.734H179.375L182.617 339.719H183.164V341.984H182.5L179.258 348H178.656ZM177.562 348V339.719H179.219V348H177.562ZM182.656 348V339.719H184.312V348H182.656ZM191.031 348.156C189.62 348.156 188.529 347.786 187.758 347.047C186.992 346.302 186.609 345.234 186.609 343.844C186.609 342.49 186.935 341.438 187.586 340.688C188.237 339.938 189.156 339.562 190.344 339.562C191.464 339.562 192.328 339.901 192.938 340.578C193.552 341.255 193.859 342.24 193.859 343.531C193.859 343.911 193.844 344.266 193.812 344.594H188V343.328H192.359C192.359 342.583 192.182 342.013 191.828 341.617C191.474 341.216 190.984 341.016 190.359 341.016C189.656 341.016 189.109 341.255 188.719 341.734C188.333 342.214 188.141 342.891 188.141 343.766C188.141 344.724 188.406 345.453 188.938 345.953C189.474 346.453 190.234 346.703 191.219 346.703C191.562 346.703 191.901 346.685 192.234 346.648C192.568 346.607 192.906 346.552 193.25 346.484L193.453 347.938C192.964 348.031 192.516 348.091 192.109 348.117C191.703 348.143 191.344 348.156 191.031 348.156ZM199.688 341.875C199.37 341.875 199.096 341.763 198.867 341.539C198.643 341.31 198.531 341.036 198.531 340.719C198.531 340.396 198.643 340.122 198.867 339.898C199.096 339.674 199.37 339.562 199.688 339.562C200.01 339.562 200.284 339.674 200.508 339.898C200.732 340.122 200.844 340.396 200.844 340.719C200.844 341.036 200.732 341.31 200.508 341.539C200.284 341.763 200.01 341.875 199.688 341.875ZM198.219 351.406L198.844 346.016H200.656L199.719 351.406H198.219ZM218.406 348.156C216.031 348.156 214.844 346.917 214.844 344.438V336.906H216.469V344.438C216.469 345.177 216.628 345.734 216.945 346.109C217.263 346.484 217.76 346.672 218.438 346.672C219.75 346.672 220.406 345.927 220.406 344.438V336.906H222.031V344.438C222.031 345.677 221.724 346.607 221.109 347.227C220.495 347.846 219.594 348.156 218.406 348.156ZM227 348V336.906H228.625V348H227ZM223.75 338.391V336.906H231.875V338.391H223.75ZM233.906 348V336.906H235.531V348H233.906ZM233.906 343.656V342.172H239.844V343.656H233.906ZM233.906 338.391V336.906H241.25V338.391H233.906ZM242.656 343.188V341.734H250.469V343.188H242.656ZM255.938 348.156C254.734 348.156 253.802 347.878 253.141 347.32C252.484 346.758 252.156 345.969 252.156 344.953C252.156 344.021 252.484 343.302 253.141 342.797C253.802 342.286 254.734 342.031 255.938 342.031C257.141 342.031 258.07 342.286 258.727 342.797C259.388 343.302 259.719 344.021 259.719 344.953C259.719 345.969 259.388 346.758 258.727 347.32C258.07 347.878 257.141 348.156 255.938 348.156ZM255.938 346.719C256.62 346.719 257.146 346.557 257.516 346.234C257.891 345.911 258.078 345.458 258.078 344.875C258.078 344.25 257.891 343.763 257.516 343.414C257.146 343.065 256.62 342.891 255.938 342.891C255.255 342.891 254.727 343.065 254.352 343.414C253.982 343.763 253.797 344.25 253.797 344.875C253.797 345.458 253.982 345.911 254.352 346.234C254.727 346.557 255.255 346.719 255.938 346.719ZM254.641 342.484V341.688H257.25V342.484H254.641ZM255.938 341.391C256.521 341.391 256.971 341.258 257.289 340.992C257.607 340.721 257.766 340.349 257.766 339.875C257.766 339.333 257.607 338.917 257.289 338.625C256.971 338.333 256.521 338.188 255.938 338.188C255.354 338.188 254.904 338.333 254.586 338.625C254.268 338.917 254.109 339.333 254.109 339.875C254.109 340.349 254.268 340.721 254.586 340.992C254.904 341.258 255.354 341.391 255.938 341.391ZM255.938 342.172C254.839 342.172 253.984 341.945 253.375 341.492C252.771 341.034 252.469 340.391 252.469 339.562C252.469 338.672 252.771 337.982 253.375 337.492C253.984 336.997 254.839 336.75 255.938 336.75C257.042 336.75 257.896 336.997 258.5 337.492C259.104 337.982 259.406 338.672 259.406 339.562C259.406 340.391 259.104 341.034 258.5 341.492C257.896 341.945 257.042 342.172 255.938 342.172ZM275.484 348.156C274.073 348.156 272.982 347.786 272.211 347.047C271.445 346.302 271.062 345.234 271.062 343.844C271.062 342.49 271.424 341.438 272.148 340.688C272.878 339.938 273.917 339.562 275.266 339.562C276.073 339.562 276.763 339.714 277.336 340.016C277.914 340.312 278.326 340.734 278.57 341.281L277.297 342.242C277.062 341.862 276.763 341.568 276.398 341.359C276.034 341.151 275.635 341.047 275.203 341.047C274.422 341.047 273.815 341.284 273.383 341.758C272.951 342.227 272.734 342.896 272.734 343.766C272.734 344.708 272.987 345.43 273.492 345.93C274.003 346.424 274.729 346.672 275.672 346.672C276.057 346.672 276.443 346.654 276.828 346.617C277.214 346.581 277.589 346.531 277.953 346.469L278.141 347.922C277.714 348.016 277.271 348.078 276.812 348.109C276.359 348.141 275.917 348.156 275.484 348.156ZM283.234 348V339.719H284.891V348H283.234ZM280.078 341.203V339.719H288.047V341.203H280.078ZM290.062 351.594V339.719H291.562L291.719 341.469V351.594H290.062ZM294.07 348.156C293.435 348.156 292.922 348.01 292.531 347.719C292.146 347.427 291.927 347.021 291.875 346.5H291.156L291.719 344.141C291.719 344.995 291.885 345.643 292.219 346.086C292.557 346.529 293.052 346.75 293.703 346.75C294.37 346.75 294.875 346.513 295.219 346.039C295.562 345.565 295.734 344.865 295.734 343.938C295.734 342.958 295.562 342.219 295.219 341.719C294.875 341.219 294.37 340.969 293.703 340.969C293.052 340.969 292.557 341.19 292.219 341.633C291.885 342.076 291.719 342.724 291.719 343.578L291.156 341.219H291.797C291.87 340.698 292.104 340.292 292.5 340C292.901 339.708 293.424 339.562 294.07 339.562C295.159 339.562 295.982 339.932 296.539 340.672C297.096 341.411 297.375 342.5 297.375 343.938C297.375 345.323 297.096 346.372 296.539 347.086C295.982 347.799 295.159 348.156 294.07 348.156ZM302.812 348.156C301.667 348.156 300.776 347.781 300.141 347.031C299.505 346.281 299.188 345.224 299.188 343.859C299.188 342.49 299.505 341.432 300.141 340.688C300.776 339.938 301.667 339.562 302.812 339.562C303.964 339.562 304.854 339.938 305.484 340.688C306.12 341.432 306.438 342.49 306.438 343.859C306.438 345.224 306.12 346.281 305.484 347.031C304.854 347.781 303.964 348.156 302.812 348.156ZM302.812 346.672C303.422 346.672 303.891 346.427 304.219 345.938C304.552 345.448 304.719 344.755 304.719 343.859C304.719 342.958 304.552 342.266 304.219 341.781C303.891 341.292 303.422 341.047 302.812 341.047C302.203 341.047 301.732 341.292 301.398 341.781C301.07 342.266 300.906 342.958 300.906 343.859C300.906 344.755 301.07 345.448 301.398 345.938C301.732 346.427 302.203 346.672 302.812 346.672ZM311.688 343.75L311.57 343.117C311.904 343.117 312.135 343.068 312.266 342.969C312.401 342.865 312.513 342.701 312.602 342.477L313.141 341.141C313.302 340.74 313.469 340.435 313.641 340.227C313.812 340.013 314.026 339.87 314.281 339.797C314.536 339.719 314.867 339.68 315.273 339.68H315.727V341.164H315.391C315.198 341.164 315.052 341.19 314.953 341.242C314.854 341.294 314.768 341.409 314.695 341.586L314.148 342.867C314.018 343.164 313.828 343.385 313.578 343.531C313.333 343.677 313 343.75 312.578 343.75H311.688ZM308.734 348V339.719H310.391V348H308.734ZM310.273 344.602V343.117H312.57V344.602H310.273ZM315.352 348.039C314.945 348.039 314.607 348.003 314.336 347.93C314.07 347.852 313.844 347.708 313.656 347.5C313.474 347.286 313.302 346.979 313.141 346.578L312.602 345.242C312.513 345.018 312.401 344.857 312.266 344.758C312.135 344.654 311.904 344.602 311.57 344.602L311.688 343.969H312.656C313.5 343.969 314.049 344.263 314.305 344.852L314.852 346.133C314.924 346.31 315.01 346.424 315.109 346.477C315.208 346.529 315.354 346.555 315.547 346.555H315.805V348.039H315.352ZM323.266 348.078L323.156 345.625L322.938 344.938V342.797C322.938 342.245 322.742 341.841 322.352 341.586C321.966 341.326 321.391 341.185 320.625 341.164L318.641 341.109L318.797 339.641L320.469 339.664C321.839 339.685 322.854 339.982 323.516 340.555C324.182 341.122 324.516 341.953 324.516 343.047V346.5L325.922 346.672V348L323.266 348.078ZM320.344 348.156C319.479 348.156 318.81 347.948 318.336 347.531C317.862 347.115 317.625 346.526 317.625 345.766C317.625 344.891 317.951 344.219 318.602 343.75C319.258 343.281 320.182 343.047 321.375 343.047C321.87 343.047 322.31 343.078 322.695 343.141C323.086 343.198 323.432 343.286 323.734 343.406L323.391 344.531C323.042 344.453 322.701 344.409 322.367 344.398C322.034 344.383 321.693 344.375 321.344 344.375C319.906 344.375 319.188 344.812 319.188 345.688C319.188 346.052 319.31 346.333 319.555 346.531C319.805 346.729 320.156 346.828 320.609 346.828C321.125 346.828 321.555 346.74 321.898 346.562C322.247 346.385 322.508 346.159 322.68 345.883C322.852 345.607 322.938 345.323 322.938 345.031V344.125L323.422 346.25H322.766L323.031 346C323.031 346.479 322.919 346.88 322.695 347.203C322.477 347.521 322.167 347.76 321.766 347.922C321.365 348.078 320.891 348.156 320.344 348.156ZM329.469 351.406L330.094 346.016H331.906L330.969 351.406H329.469ZM349.688 348.156C348.542 348.156 347.651 347.781 347.016 347.031C346.38 346.281 346.062 345.224 346.062 343.859C346.062 342.49 346.38 341.432 347.016 340.688C347.651 339.938 348.542 339.562 349.688 339.562C350.839 339.562 351.729 339.938 352.359 340.688C352.995 341.432 353.312 342.49 353.312 343.859C353.312 345.224 352.995 346.281 352.359 347.031C351.729 347.781 350.839 348.156 349.688 348.156ZM349.688 346.672C350.297 346.672 350.766 346.427 351.094 345.938C351.427 345.448 351.594 344.755 351.594 343.859C351.594 342.958 351.427 342.266 351.094 341.781C350.766 341.292 350.297 341.047 349.688 341.047C349.078 341.047 348.607 341.292 348.273 341.781C347.945 342.266 347.781 342.958 347.781 343.859C347.781 344.755 347.945 345.448 348.273 345.938C348.607 346.427 349.078 346.672 349.688 346.672ZM358.562 343.75L358.445 343.117C358.779 343.117 359.01 343.068 359.141 342.969C359.276 342.865 359.388 342.701 359.477 342.477L360.016 341.141C360.177 340.74 360.344 340.435 360.516 340.227C360.688 340.013 360.901 339.87 361.156 339.797C361.411 339.719 361.742 339.68 362.148 339.68H362.602V341.164H362.266C362.073 341.164 361.927 341.19 361.828 341.242C361.729 341.294 361.643 341.409 361.57 341.586L361.023 342.867C360.893 343.164 360.703 343.385 360.453 343.531C360.208 343.677 359.875 343.75 359.453 343.75H358.562ZM355.609 348V339.719H357.266V348H355.609ZM357.148 344.602V343.117H359.445V344.602H357.148ZM362.227 348.039C361.82 348.039 361.482 348.003 361.211 347.93C360.945 347.852 360.719 347.708 360.531 347.5C360.349 347.286 360.177 346.979 360.016 346.578L359.477 345.242C359.388 345.018 359.276 344.857 359.141 344.758C359.01 344.654 358.779 344.602 358.445 344.602L358.562 343.969H359.531C360.375 343.969 360.924 344.263 361.18 344.852L361.727 346.133C361.799 346.31 361.885 346.424 361.984 346.477C362.083 346.529 362.229 346.555 362.422 346.555H362.68V348.039H362.227ZM370.141 348.078L370.031 345.625L369.812 344.938V342.797C369.812 342.245 369.617 341.841 369.227 341.586C368.841 341.326 368.266 341.185 367.5 341.164L365.516 341.109L365.672 339.641L367.344 339.664C368.714 339.685 369.729 339.982 370.391 340.555C371.057 341.122 371.391 341.953 371.391 343.047V346.5L372.797 346.672V348L370.141 348.078ZM367.219 348.156C366.354 348.156 365.685 347.948 365.211 347.531C364.737 347.115 364.5 346.526 364.5 345.766C364.5 344.891 364.826 344.219 365.477 343.75C366.133 343.281 367.057 343.047 368.25 343.047C368.745 343.047 369.185 343.078 369.57 343.141C369.961 343.198 370.307 343.286 370.609 343.406L370.266 344.531C369.917 344.453 369.576 344.409 369.242 344.398C368.909 344.383 368.568 344.375 368.219 344.375C366.781 344.375 366.062 344.812 366.062 345.688C366.062 346.052 366.185 346.333 366.43 346.531C366.68 346.729 367.031 346.828 367.484 346.828C368 346.828 368.43 346.74 368.773 346.562C369.122 346.385 369.383 346.159 369.555 345.883C369.727 345.607 369.812 345.323 369.812 345.031V344.125L370.297 346.25H369.641L369.906 346C369.906 346.479 369.794 346.88 369.57 347.203C369.352 347.521 369.042 347.76 368.641 347.922C368.24 348.078 367.766 348.156 367.219 348.156ZM379.531 348V339.719H381.188V348H379.531ZM374.438 348V339.719H376.094V348H374.438ZM374.922 344.539V343.18H380.945V344.539H374.922ZM386.641 345.031C385.562 345.031 384.755 344.753 384.219 344.195C383.688 343.633 383.422 342.792 383.422 341.672V339.719H385.078V341.672C385.078 342.339 385.221 342.839 385.508 343.172C385.794 343.505 386.224 343.672 386.797 343.672H389.281V345.031H386.641ZM388.828 348V339.719H390.484V348H388.828ZM394.281 348V345.734H395L398.242 339.719H398.789V341.984H398.125L394.883 348H394.281ZM393.188 348V339.719H394.844V348H393.188ZM398.281 348V339.719H399.938V348H398.281ZM404.188 348V346.516H406.844C407.229 346.516 407.529 346.422 407.742 346.234C407.956 346.042 408.062 345.771 408.062 345.422C408.062 345.073 407.945 344.805 407.711 344.617C407.482 344.424 407.156 344.328 406.734 344.328H404.031V343.773H407.125C407.974 343.773 408.63 343.958 409.094 344.328C409.562 344.698 409.797 345.219 409.797 345.891C409.797 346.562 409.578 347.083 409.141 347.453C408.703 347.818 408.089 348 407.297 348H404.188ZM402.641 348V339.719H404.297V348H402.641ZM403.656 344.109V343.344H407.219V344.109H403.656ZM404.031 343.633V343.078H406.531C406.917 343.078 407.216 342.997 407.43 342.836C407.643 342.669 407.75 342.438 407.75 342.141C407.75 341.844 407.633 341.615 407.398 341.453C407.169 341.286 406.844 341.203 406.422 341.203H404.188V339.719H406.812C407.661 339.719 408.318 339.904 408.781 340.273C409.25 340.638 409.484 341.156 409.484 341.828C409.484 342.401 409.266 342.846 408.828 343.164C408.391 343.477 407.776 343.633 406.984 343.633H404.031ZM417.016 348.078L416.906 345.625L416.688 344.938V342.797C416.688 342.245 416.492 341.841 416.102 341.586C415.716 341.326 415.141 341.185 414.375 341.164L412.391 341.109L412.547 339.641L414.219 339.664C415.589 339.685 416.604 339.982 417.266 340.555C417.932 341.122 418.266 341.953 418.266 343.047V346.5L419.672 346.672V348L417.016 348.078ZM414.094 348.156C413.229 348.156 412.56 347.948 412.086 347.531C411.612 347.115 411.375 346.526 411.375 345.766C411.375 344.891 411.701 344.219 412.352 343.75C413.008 343.281 413.932 343.047 415.125 343.047C415.62 343.047 416.06 343.078 416.445 343.141C416.836 343.198 417.182 343.286 417.484 343.406L417.141 344.531C416.792 344.453 416.451 344.409 416.117 344.398C415.784 344.383 415.443 344.375 415.094 344.375C413.656 344.375 412.938 344.812 412.938 345.688C412.938 346.052 413.06 346.333 413.305 346.531C413.555 346.729 413.906 346.828 414.359 346.828C414.875 346.828 415.305 346.74 415.648 346.562C415.997 346.385 416.258 346.159 416.43 345.883C416.602 345.607 416.688 345.323 416.688 345.031V344.125L417.172 346.25H416.516L416.781 346C416.781 346.479 416.669 346.88 416.445 347.203C416.227 347.521 415.917 347.76 415.516 347.922C415.115 348.078 414.641 348.156 414.094 348.156ZM426.055 348.156C425.154 348.156 424.5 347.823 424.094 347.156C423.688 346.49 423.484 345.417 423.484 343.938C423.484 342.401 423.688 341.289 424.094 340.602C424.5 339.909 425.154 339.562 426.055 339.562C427.013 339.562 427.706 339.909 428.133 340.602C428.565 341.289 428.781 342.401 428.781 343.938C428.781 345.417 428.565 346.49 428.133 347.156C427.706 347.823 427.013 348.156 426.055 348.156ZM420.859 348V339.719H422.398V348H420.859ZM421.422 344.562V343.203H424.008V344.562H421.422ZM425.977 346.719C426.383 346.719 426.677 346.5 426.859 346.062C427.047 345.62 427.141 344.911 427.141 343.938C427.141 342.906 427.047 342.159 426.859 341.695C426.677 341.232 426.383 341 425.977 341C425.57 341 425.273 341.232 425.086 341.695C424.904 342.159 424.812 342.906 424.812 343.938C424.812 344.911 424.904 345.62 425.086 346.062C425.273 346.5 425.57 346.719 425.977 346.719ZM436.062 348V339.719H437.719V348H436.062ZM430.578 348V346.594H437.586V348H430.578ZM430.25 348V339.719H431.906V348H430.25ZM436.859 350.109V346.594H438.422V350.109H436.859ZM433.312 348V339.719H434.641V348H433.312ZM445.141 348.078L445.031 345.625L444.812 344.938V342.797C444.812 342.245 444.617 341.841 444.227 341.586C443.841 341.326 443.266 341.185 442.5 341.164L440.516 341.109L440.672 339.641L442.344 339.664C443.714 339.685 444.729 339.982 445.391 340.555C446.057 341.122 446.391 341.953 446.391 343.047V346.5L447.797 346.672V348L445.141 348.078ZM442.219 348.156C441.354 348.156 440.685 347.948 440.211 347.531C439.737 347.115 439.5 346.526 439.5 345.766C439.5 344.891 439.826 344.219 440.477 343.75C441.133 343.281 442.057 343.047 443.25 343.047C443.745 343.047 444.185 343.078 444.57 343.141C444.961 343.198 445.307 343.286 445.609 343.406L445.266 344.531C444.917 344.453 444.576 344.409 444.242 344.398C443.909 344.383 443.568 344.375 443.219 344.375C441.781 344.375 441.062 344.812 441.062 345.688C441.062 346.052 441.185 346.333 441.43 346.531C441.68 346.729 442.031 346.828 442.484 346.828C443 346.828 443.43 346.74 443.773 346.562C444.122 346.385 444.383 346.159 444.555 345.883C444.727 345.607 444.812 345.323 444.812 345.031V344.125L445.297 346.25H444.641L444.906 346C444.906 346.479 444.794 346.88 444.57 347.203C444.352 347.521 444.042 347.76 443.641 347.922C443.24 348.078 442.766 348.156 442.219 348.156ZM451.852 344.484C451.049 344.484 450.43 344.286 449.992 343.891C449.555 343.495 449.336 342.935 449.336 342.211C449.336 341.419 449.609 340.807 450.156 340.375C450.703 339.938 451.477 339.719 452.477 339.719H454.758V341.203H452.477C452.023 341.203 451.672 341.315 451.422 341.539C451.177 341.763 451.055 342.081 451.055 342.492C451.055 342.878 451.177 343.177 451.422 343.391C451.672 343.599 452.023 343.703 452.477 343.703H454.602L454.523 344.484H451.852ZM449.109 348.039V346.555H449.367C449.581 346.555 449.745 346.51 449.859 346.422C449.979 346.328 450.099 346.193 450.219 346.016L450.609 345.438C450.776 345.193 450.971 345.01 451.195 344.891C451.424 344.771 451.729 344.711 452.109 344.711H453.594L453.688 345.188C453.349 345.188 453.091 345.211 452.914 345.258C452.737 345.305 452.604 345.375 452.516 345.469C452.427 345.562 452.344 345.682 452.266 345.828L451.93 346.461C451.742 346.82 451.552 347.117 451.359 347.352C451.172 347.581 450.943 347.753 450.672 347.867C450.401 347.982 450.044 348.039 449.602 348.039H449.109ZM452.266 345.188V343.703H454.867V345.188H452.266ZM454.492 348V339.719H456.148V348H454.492ZM462.984 348.156C461.573 348.156 460.482 347.786 459.711 347.047C458.945 346.302 458.562 345.234 458.562 343.844C458.562 342.49 458.924 341.438 459.648 340.688C460.378 339.938 461.417 339.562 462.766 339.562C463.573 339.562 464.263 339.714 464.836 340.016C465.414 340.312 465.826 340.734 466.07 341.281L464.797 342.242C464.562 341.862 464.263 341.568 463.898 341.359C463.534 341.151 463.135 341.047 462.703 341.047C461.922 341.047 461.315 341.284 460.883 341.758C460.451 342.227 460.234 342.896 460.234 343.766C460.234 344.708 460.487 345.43 460.992 345.93C461.503 346.424 462.229 346.672 463.172 346.672C463.557 346.672 463.943 346.654 464.328 346.617C464.714 346.581 465.089 346.531 465.453 346.469L465.641 347.922C465.214 348.016 464.771 348.078 464.312 348.109C463.859 348.141 463.417 348.156 462.984 348.156ZM470.602 344.484C469.799 344.484 469.18 344.286 468.742 343.891C468.305 343.495 468.086 342.935 468.086 342.211C468.086 341.419 468.359 340.807 468.906 340.375C469.453 339.938 470.227 339.719 471.227 339.719H473.508V341.203H471.227C470.773 341.203 470.422 341.315 470.172 341.539C469.927 341.763 469.805 342.081 469.805 342.492C469.805 342.878 469.927 343.177 470.172 343.391C470.422 343.599 470.773 343.703 471.227 343.703H473.352L473.273 344.484H470.602ZM467.859 348.039V346.555H468.117C468.331 346.555 468.495 346.51 468.609 346.422C468.729 346.328 468.849 346.193 468.969 346.016L469.359 345.438C469.526 345.193 469.721 345.01 469.945 344.891C470.174 344.771 470.479 344.711 470.859 344.711H472.344L472.438 345.188C472.099 345.188 471.841 345.211 471.664 345.258C471.487 345.305 471.354 345.375 471.266 345.469C471.177 345.562 471.094 345.682 471.016 345.828L470.68 346.461C470.492 346.82 470.302 347.117 470.109 347.352C469.922 347.581 469.693 347.753 469.422 347.867C469.151 347.982 468.794 348.039 468.352 348.039H467.859ZM471.016 345.188V343.703H473.617V345.188H471.016ZM473.242 348V339.719H474.898V348H473.242ZM492.031 348V339.719H493.688V348H492.031ZM486.938 348V339.719H488.594V348H486.938ZM487.422 344.539V343.18H493.445V344.539H487.422ZM501.391 348.078L501.281 345.625L501.062 344.938V342.797C501.062 342.245 500.867 341.841 500.477 341.586C500.091 341.326 499.516 341.185 498.75 341.164L496.766 341.109L496.922 339.641L498.594 339.664C499.964 339.685 500.979 339.982 501.641 340.555C502.307 341.122 502.641 341.953 502.641 343.047V346.5L504.047 346.672V348L501.391 348.078ZM498.469 348.156C497.604 348.156 496.935 347.948 496.461 347.531C495.987 347.115 495.75 346.526 495.75 345.766C495.75 344.891 496.076 344.219 496.727 343.75C497.383 343.281 498.307 343.047 499.5 343.047C499.995 343.047 500.435 343.078 500.82 343.141C501.211 343.198 501.557 343.286 501.859 343.406L501.516 344.531C501.167 344.453 500.826 344.409 500.492 344.398C500.159 344.383 499.818 344.375 499.469 344.375C498.031 344.375 497.312 344.812 497.312 345.688C497.312 346.052 497.435 346.333 497.68 346.531C497.93 346.729 498.281 346.828 498.734 346.828C499.25 346.828 499.68 346.74 500.023 346.562C500.372 346.385 500.633 346.159 500.805 345.883C500.977 345.607 501.062 345.323 501.062 345.031V344.125L501.547 346.25H500.891L501.156 346C501.156 346.479 501.044 346.88 500.82 347.203C500.602 347.521 500.292 347.76 499.891 347.922C499.49 348.078 499.016 348.156 498.469 348.156ZM520.578 349.484L514.297 335.422H515.953L522.234 349.484H520.578ZM527.812 348.156C525.292 348.156 524.031 346.281 524.031 342.531C524.031 338.677 525.292 336.75 527.812 336.75C530.333 336.75 531.594 338.677 531.594 342.531C531.594 346.281 530.333 348.156 527.812 348.156ZM527.812 343.703C527.464 343.703 527.18 343.596 526.961 343.383C526.747 343.164 526.641 342.88 526.641 342.531C526.641 342.177 526.747 341.893 526.961 341.68C527.18 341.466 527.464 341.359 527.812 341.359C528.167 341.359 528.451 341.466 528.664 341.68C528.878 341.893 528.984 342.177 528.984 342.531C528.984 342.88 528.878 343.164 528.664 343.383C528.451 343.596 528.167 343.703 527.812 343.703ZM527.812 346.719C529.219 346.719 529.922 345.323 529.922 342.531C529.922 339.635 529.219 338.188 527.812 338.188C526.406 338.188 525.703 339.635 525.703 342.531C525.703 345.323 526.406 346.719 527.812 346.719Z" fill="#E1E1FF"/>
<rect x="72" y="140" width="560" height="256" rx="12" stroke="#1187F8" stroke-width="2" stroke-dasharray="32 16"/>
<g opacity="0.5">
<path d="M73.9941 432C73.4402 432 72.9693 431.806 72.5816 431.418C72.1939 431.023 72 430.552 72 430.006C72 429.444 72.1939 428.969 72.5816 428.582C72.9693 428.194 73.4402 428 73.9941 428C74.5559 428 75.0267 428.194 75.4065 428.582C75.7943 428.969 75.9881 429.444 75.9881 430.006C75.9881 430.552 75.7943 431.023 75.4065 431.418C75.0267 431.806 74.5559 432 73.9941 432Z" fill="#E1E1FF"/>
<path d="M88.2374 432C87.6835 432 87.2127 431.806 86.8249 431.418C86.4372 431.023 86.2433 430.552 86.2433 430.006C86.2433 429.444 86.4372 428.969 86.8249 428.582C87.2127 428.194 87.6835 428 88.2374 428C88.7992 428 89.27 428.194 89.6499 428.582C90.0376 428.969 90.2315 429.444 90.2315 430.006C90.2315 430.552 90.0376 431.023 89.6499 431.418C89.27 431.806 88.7992 432 88.2374 432Z" fill="#E1E1FF"/>
<path d="M102.481 432C101.927 432 101.456 431.806 101.068 431.418C100.681 431.023 100.487 430.552 100.487 430.006C100.487 429.444 100.681 428.969 101.068 428.582C101.456 428.194 101.927 428 102.481 428C103.043 428 103.513 428.194 103.893 428.582C104.281 428.969 104.475 429.444 104.475 430.006C104.475 430.552 104.281 431.023 103.893 431.418C103.513 431.806 103.043 432 102.481 432Z" fill="#E1E1FF"/>
</g>
<rect x="48" y="86" width="608" height="370" rx="12" stroke="#1187F8" stroke-width="2" stroke-dasharray="32 16"/>
</svg>
