<svg width="608" height="379" viewBox="0 0 608 379" fill="none" xmlns="http://www.w3.org/2000/svg">
<rect width="608" height="379" rx="16" fill="#181925"/>
<path d="M53.0586 62.1953C52.2708 62.1953 51.584 62.1693 50.998 62.1172C50.4121 62.0716 49.888 62 49.4258 61.9023L49.709 59.6367C50.4707 59.7409 51.125 59.819 51.6719 59.8711C52.2188 59.9232 52.681 59.9492 53.0586 59.9492C54.0091 59.9492 54.696 59.8711 55.1191 59.7148C55.5488 59.5586 55.7637 59.3112 55.7637 58.9727C55.7637 58.7578 55.7018 58.5918 55.5781 58.4746C55.4544 58.3574 55.2591 58.263 54.9922 58.1914L52.0137 57.3613C51.1934 57.1335 50.5814 56.821 50.1777 56.4238C49.7806 56.0202 49.582 55.4538 49.582 54.7246C49.582 53.6048 50.0345 52.7812 50.9395 52.2539C51.8509 51.7201 53.2669 51.4531 55.1875 51.4531C55.6562 51.4531 56.1185 51.4694 56.5742 51.502C57.0365 51.5345 57.5182 51.5833 58.0195 51.6484L57.7656 53.8359C57.1992 53.7839 56.7012 53.748 56.2715 53.7285C55.8483 53.709 55.4674 53.6992 55.1289 53.6992C54.0547 53.6992 53.2734 53.7741 52.7852 53.9238C52.3034 54.0736 52.0625 54.3145 52.0625 54.6465C52.0625 54.8678 52.1341 55.0306 52.2773 55.1348C52.4206 55.2389 52.6419 55.3301 52.9414 55.4082L55.4414 56.082C56.4115 56.3294 57.1276 56.6777 57.5898 57.127C58.0586 57.5762 58.293 58.1882 58.293 58.9629C58.293 60.0697 57.8665 60.8867 57.0137 61.4141C56.1673 61.9349 54.849 62.1953 53.0586 62.1953ZM65.0605 62V52.2344H67.4629V62H65.0605ZM61.1836 62V59.8125H65.2559V62H61.1836ZM67.2676 62V59.8125H70.5781V62H67.2676ZM61.7695 53.8359V51.6484H67.4629V53.8359H61.7695ZM66.1641 50.1543C65.7018 50.1543 65.321 50.0046 65.0215 49.7051C64.722 49.4056 64.5723 49.0247 64.5723 48.5625C64.5723 48.1003 64.722 47.7194 65.0215 47.4199C65.321 47.1204 65.7018 46.9707 66.1641 46.9707C66.6263 46.9707 67.0072 47.1204 67.3066 47.4199C67.6061 47.7194 67.7559 48.1003 67.7559 48.5625C67.7559 49.0247 67.6061 49.4056 67.3066 49.7051C67.0072 50.0046 66.6263 50.1543 66.1641 50.1543ZM73.2148 66.668L73.1172 64.5293L76.4375 64.4316C77.401 64.3991 78.1009 64.1289 78.5371 63.6211C78.9733 63.1198 79.1947 62.3776 79.2012 61.3945V53.8359L79.3965 51.6484H81.6133V61.082C81.6133 62.9245 81.1836 64.2819 80.3242 65.1543C79.4714 66.0332 78.1107 66.5052 76.2422 66.5703L73.2148 66.668ZM76.3691 62.1953C75.054 62.1953 74.0417 61.7396 73.332 60.8281C72.6289 59.9167 72.2773 58.5983 72.2773 56.873C72.2773 55.1217 72.6289 53.7806 73.332 52.8496C74.0417 51.9186 75.0573 51.4531 76.3789 51.4531C77.1732 51.4531 77.7917 51.6289 78.2344 51.9805C78.6836 52.332 78.9603 52.8464 79.0645 53.5234H79.8457L79.2012 56.6875C79.2012 55.6589 79.0156 54.8971 78.6445 54.4023C78.2734 53.901 77.7233 53.6504 76.9941 53.6504C76.2585 53.6504 75.6953 53.9271 75.3047 54.4805C74.9141 55.0339 74.7188 55.8314 74.7188 56.873C74.7188 57.9017 74.9108 58.6797 75.2949 59.207C75.679 59.7344 76.2454 59.998 76.9941 59.998C77.7754 59.998 78.3385 59.7507 78.6836 59.2559C79.0286 58.7611 79.2012 57.9993 79.2012 56.9707L79.9043 60.125H78.9961C78.9049 60.8021 78.6315 61.3164 78.1758 61.668C77.7201 62.0195 77.1178 62.1953 76.3691 62.1953ZM90.9199 62V55.6523C90.9199 55.0273 90.7767 54.5456 90.4902 54.207C90.2038 53.8685 89.8001 53.6992 89.2793 53.6992C87.834 53.6992 87.1113 54.6562 87.1113 56.5703L86.5059 53.5234H87.3457C87.4238 52.8268 87.6647 52.3092 88.0684 51.9707C88.4785 51.6257 89.0872 51.4531 89.8945 51.4531C90.9883 51.4531 91.8346 51.7852 92.4336 52.4492C93.0326 53.1133 93.332 54.0508 93.332 55.2617V62H90.9199ZM84.6992 62V51.6484H86.8672L87.1113 53.8359V62H84.6992ZM102.727 62.0977L102.541 59.0312L102.404 57.8789V55.5938C102.404 54.9883 102.167 54.5456 101.691 54.2656C101.216 53.9792 100.507 53.8229 99.5625 53.7969L96.9844 53.7285L97.1797 51.5508L99.3672 51.5801C101.177 51.6061 102.521 51.9772 103.4 52.6934C104.279 53.403 104.719 54.4414 104.719 55.8086V59.832L106.281 60.0469V62L102.727 62.0977ZM99.1621 62.1953C98.0684 62.1953 97.2188 61.9284 96.6133 61.3945C96.0143 60.8607 95.7148 60.1055 95.7148 59.1289C95.7148 57.9961 96.1185 57.127 96.9258 56.5215C97.7331 55.916 98.8757 55.6133 100.354 55.6133C100.939 55.6133 101.454 55.6458 101.896 55.7109C102.339 55.776 102.762 55.877 103.166 56.0137L102.736 57.8105C102.313 57.7129 101.919 57.6576 101.555 57.6445C101.19 57.625 100.809 57.6152 100.412 57.6152C98.8757 57.6152 98.1074 58.0677 98.1074 58.9727C98.1074 59.3698 98.2409 59.6725 98.5078 59.8809C98.7812 60.0892 99.1751 60.1934 99.6895 60.1934C100.288 60.1934 100.79 60.0859 101.193 59.8711C101.597 59.6497 101.9 59.373 102.102 59.041C102.303 58.7025 102.404 58.3542 102.404 57.9961V57.1562L102.873 59.8125H102.043L102.385 59.5C102.372 60.099 102.232 60.6003 101.965 61.0039C101.704 61.401 101.337 61.7005 100.861 61.9023C100.386 62.0977 99.8197 62.1953 99.1621 62.1953ZM114.523 62.1953C112.824 62.1953 111.597 61.8503 110.842 61.1602C110.087 60.4701 109.709 59.3665 109.709 57.8496V56.3359H112.111V57.6543C112.111 58.4551 112.313 59.0378 112.717 59.4023C113.127 59.7669 113.794 59.9492 114.719 59.9492C115.025 59.9492 115.354 59.9329 115.705 59.9004C116.057 59.8613 116.457 59.8125 116.906 59.7539L117.141 61.9609C116.704 62.0391 116.275 62.0977 115.852 62.1367C115.435 62.1758 114.992 62.1953 114.523 62.1953ZM109.709 57.0195V48.5234H112.111V57.0195H109.709ZM107.18 53.8359V51.6484H116.75V53.8359H107.18ZM122.863 62.1953C121.835 62.1953 121.04 61.873 120.48 61.2285C119.921 60.5775 119.641 59.6628 119.641 58.4844V51.6484H122.053V58.0938C122.053 58.6862 122.202 59.1452 122.502 59.4707C122.801 59.7897 123.215 59.9492 123.742 59.9492C124.419 59.9492 124.927 59.7116 125.266 59.2363C125.611 58.7546 125.783 57.9505 125.783 56.8242L126.311 60.0078H125.559C125.396 60.7109 125.077 61.2513 124.602 61.6289C124.133 62.0065 123.553 62.1953 122.863 62.1953ZM125.959 62.0977L125.783 59.6172V57.8008H128.195V59.832L129.621 60.0469V62L125.959 62.0977ZM125.783 59.0703V51.6484H128.195V58.4844L125.783 59.0703ZM135.354 57.5469L134.748 54.1094H135.607C135.718 52.3385 136.626 51.4531 138.332 51.4531C139.348 51.4531 140.109 51.7917 140.617 52.4688C141.125 53.1458 141.379 54.168 141.379 55.5352H138.977C138.977 54.8646 138.863 54.3828 138.635 54.0898C138.413 53.7969 138.055 53.6504 137.561 53.6504C136.818 53.6504 136.265 53.9889 135.9 54.666C135.536 55.3431 135.354 56.3034 135.354 57.5469ZM130.715 62V59.9102H137.824V62H130.715ZM132.951 62V51.6484H134.963L135.354 54.6172V62H132.951ZM131.105 53.7383V51.6484H134.826L135.021 53.7383H131.105ZM148.459 62.1953C146.682 62.1953 145.308 61.7331 144.338 60.8086C143.368 59.8776 142.883 58.543 142.883 56.8047C142.883 55.112 143.293 53.7969 144.113 52.8594C144.94 51.9219 146.102 51.4531 147.6 51.4531C149.045 51.4531 150.161 51.8828 150.949 52.7422C151.743 53.6016 152.141 54.8483 152.141 56.4824C152.141 56.9577 152.121 57.4036 152.082 57.8203H144.621V56.082H149.836C149.836 55.2943 149.641 54.6888 149.25 54.2656C148.859 53.8424 148.316 53.6309 147.619 53.6309C146.857 53.6309 146.265 53.8978 145.842 54.4316C145.419 54.9655 145.207 55.724 145.207 56.707C145.207 57.7682 145.51 58.5788 146.115 59.1387C146.721 59.6921 147.58 59.9688 148.693 59.9688C149.149 59.9688 149.595 59.946 150.031 59.9004C150.474 59.8483 150.923 59.7799 151.379 59.6953L151.633 61.9219C150.995 62.0391 150.409 62.1139 149.875 62.1465C149.341 62.179 148.869 62.1953 148.459 62.1953Z" fill="#1187F8"/>
<g clip-path="url(#clip0_50_2761)">
<rect x="48" y="86" width="512" height="133" rx="8" fill="#242638"/>
<g clip-path="url(#clip1_50_2761)">
<path d="M72.0405 125.206C72.0809 125.359 72.1511 125.502 72.2473 125.627C72.3434 125.752 72.4634 125.857 72.6004 125.936L73.8953 126.685C74.5134 127.042 74.8941 127.702 74.8941 128.416V129.904C74.8941 130.223 75.0207 130.529 75.246 130.754C75.4713 130.979 75.7769 131.106 76.0956 131.106H77.5837C78.2979 131.106 78.9579 131.487 79.3153 132.105L80.0642 133.401C80.224 133.676 80.4864 133.877 80.7941 133.96C81.1017 134.042 81.4294 133.999 81.7055 133.841L82.9985 133.094C83.6177 132.736 84.3808 132.736 84.9999 133.094L86.2941 133.842C86.5702 134 86.898 134.043 87.2056 133.961C87.5132 133.878 87.7756 133.677 87.9354 133.402L88.6832 132.108C89.0406 131.489 89.7007 131.108 90.415 131.108H91.9028C92.2215 131.108 92.5271 130.982 92.7524 130.756C92.9778 130.531 93.1044 130.225 93.1044 129.907V128.418C93.1044 127.704 93.485 127.044 94.1031 126.687L95.3981 125.938C95.5348 125.859 95.6547 125.754 95.7508 125.629C95.847 125.504 95.9175 125.361 95.9583 125.209C95.9992 125.056 96.0096 124.897 95.9889 124.741C95.9682 124.584 95.9169 124.433 95.8378 124.297L95.0905 123.003C94.7329 122.384 94.7332 121.62 95.0912 121.001L95.839 119.708C95.9984 119.432 96.0415 119.104 95.9591 118.797C95.8766 118.489 95.6752 118.226 95.3993 118.067L94.1043 117.318C93.4862 116.961 93.1056 116.301 93.1056 115.587V114.098C93.1056 113.78 92.979 113.474 92.7536 113.249C92.5283 113.023 92.2227 112.897 91.904 112.897H90.4162C89.7019 112.897 89.0418 112.516 88.6844 111.897L87.9366 110.603C87.777 110.328 87.5148 110.126 87.2073 110.043C87.0549 110.002 86.8958 109.991 86.7393 110.012C86.5827 110.033 86.4319 110.084 86.2953 110.163L85 110.911C84.3808 111.268 83.6179 111.268 82.9989 110.91L81.7055 110.162C81.569 110.083 81.4182 110.031 81.2618 110.011C81.1053 109.99 80.9463 110 80.7938 110.041C80.6413 110.081 80.4984 110.152 80.3732 110.248C80.248 110.344 80.143 110.464 80.0642 110.601L79.3153 111.896C78.9579 112.515 78.2979 112.896 77.5837 112.896H76.0956C75.7769 112.896 75.4713 113.022 75.246 113.248C75.0207 113.473 74.8941 113.778 74.8941 114.097V115.586C74.8941 116.3 74.5137 116.959 73.896 117.317L72.6004 118.067C72.3249 118.227 72.124 118.489 72.0418 118.797C71.9595 119.105 72.0027 119.432 72.1618 119.708L72.9087 121.001C73.2666 121.62 73.2664 122.384 72.9083 123.003L72.1606 124.296C72.0019 124.571 71.9587 124.899 72.0405 125.206Z" fill="#E1E1FF"/>
</g>
<path d="M112.318 129.5V119.08C112.318 115.141 114.116 113.172 117.711 113.172C118.527 113.172 119.315 113.243 120.074 113.387L119.838 115.363C119.387 115.306 118.989 115.267 118.646 115.245C118.302 115.224 117.969 115.213 117.646 115.213C115.613 115.213 114.596 116.466 114.596 118.973V129.5H112.318ZM108.73 122.625V120.627H119.258V122.625H108.73ZM127.336 129.715C125.76 129.715 124.536 129.199 123.662 128.168C122.788 127.137 122.352 125.683 122.352 123.807C122.352 121.923 122.788 120.469 123.662 119.445C124.536 118.414 125.76 117.898 127.336 117.898C128.919 117.898 130.143 118.414 131.01 119.445C131.883 120.469 132.32 121.923 132.32 123.807C132.32 125.683 131.883 127.137 131.01 128.168C130.143 129.199 128.919 129.715 127.336 129.715ZM127.336 127.674C128.174 127.674 128.818 127.337 129.27 126.664C129.728 125.991 129.957 125.038 129.957 123.807C129.957 122.568 129.728 121.615 129.27 120.949C128.818 120.276 128.174 119.939 127.336 119.939C126.498 119.939 125.85 120.276 125.392 120.949C124.94 121.615 124.715 122.568 124.715 123.807C124.715 125.038 124.94 125.991 125.392 126.664C125.85 127.337 126.498 127.674 127.336 127.674ZM139.453 124.602L138.787 121.035H139.668C139.797 118.944 140.842 117.898 142.805 117.898C143.979 117.898 144.831 118.235 145.361 118.908C145.891 119.581 146.156 120.67 146.156 122.174H143.9C143.9 121.343 143.775 120.745 143.524 120.38C143.281 120.015 142.883 119.832 142.332 119.832C141.365 119.832 140.642 120.247 140.162 121.078C139.689 121.902 139.453 123.076 139.453 124.602ZM134.641 129.5V127.502H142.246V129.5H134.641ZM137.176 129.5V118.113H139.023L139.453 121.379V129.5H137.176ZM135.07 120.111V118.113H138.873L139.088 120.111H135.07ZM156.082 129.5V120.799C156.082 120.011 155.788 119.617 155.201 119.617C154.456 119.617 154.084 120.133 154.084 121.164L153.311 119.531H154.191C154.227 119.087 154.403 118.704 154.718 118.382C155.04 118.06 155.502 117.898 156.104 117.898C156.891 117.898 157.464 118.11 157.822 118.532C158.18 118.955 158.359 119.639 158.359 120.584V129.5H156.082ZM147.875 129.5V118.113H149.895L150.152 120.52V129.5H147.875ZM152.15 129.5V120.584C152.15 119.939 151.85 119.617 151.248 119.617C150.518 119.617 150.152 120.133 150.152 121.164L149.486 119.531H150.217C150.303 118.443 150.954 117.898 152.172 117.898C152.766 117.898 153.232 118.103 153.568 118.511C153.912 118.919 154.084 119.538 154.084 120.369V129.5H152.15ZM168.35 129.607L168.199 126.234L167.898 125.289V122.346C167.898 121.587 167.63 121.032 167.093 120.681C166.563 120.323 165.771 120.129 164.719 120.101L161.99 120.025L162.205 118.006L164.504 118.038C166.387 118.067 167.784 118.475 168.693 119.263C169.61 120.043 170.068 121.186 170.068 122.689V127.438L172.002 127.674V129.5L168.35 129.607ZM164.332 129.715C163.143 129.715 162.223 129.428 161.571 128.855C160.92 128.283 160.594 127.473 160.594 126.428C160.594 125.225 161.041 124.301 161.937 123.656C162.839 123.012 164.11 122.689 165.75 122.689C166.43 122.689 167.035 122.732 167.565 122.818C168.103 122.897 168.579 123.019 168.994 123.184L168.521 124.73C168.042 124.623 167.573 124.562 167.114 124.548C166.656 124.526 166.187 124.516 165.707 124.516C163.73 124.516 162.742 125.117 162.742 126.32C162.742 126.822 162.91 127.208 163.247 127.48C163.591 127.753 164.074 127.889 164.697 127.889C165.406 127.889 165.997 127.767 166.47 127.523C166.95 127.28 167.308 126.968 167.544 126.589C167.78 126.209 167.898 125.819 167.898 125.418V124.172L168.564 127.094H167.662L168.027 126.75C168.027 127.409 167.873 127.96 167.565 128.404C167.265 128.841 166.839 129.171 166.287 129.393C165.736 129.607 165.084 129.715 164.332 129.715ZM180.961 129.715C179.235 129.715 177.985 129.357 177.212 128.641C176.446 127.924 176.062 126.779 176.062 125.203V123.27H178.34V125.096C178.34 125.998 178.558 126.653 178.995 127.062C179.439 127.47 180.166 127.674 181.176 127.674C181.534 127.674 181.913 127.656 182.314 127.62C182.715 127.577 183.174 127.523 183.689 127.459L183.947 129.457C183.446 129.543 182.955 129.607 182.476 129.65C182.003 129.693 181.498 129.715 180.961 129.715ZM176.062 124.129V114.676H178.34V124.129H176.062ZM173.205 120.111V118.113H183.518V120.111H173.205Z" fill="#E1E1FF"/>
<path d="M450.65 129.5V114.246H452.885V129.5H450.65ZM446.826 129.5V127.459H450.865V129.5H446.826ZM452.67 129.5V127.459H456.301V129.5H452.67ZM447.041 117.705V115.535L450.65 114.246V116.459L447.041 117.705ZM459.523 129.5V127.051C461.88 125.747 463.638 124.394 464.798 122.99C465.965 121.579 466.549 120.126 466.549 118.629C466.549 117.755 466.334 117.1 465.904 116.663C465.475 116.226 464.823 116.008 463.949 116.008C463.369 116.008 462.764 116.176 462.134 116.513C461.504 116.849 460.963 117.297 460.512 117.855L459.029 116.384C459.523 115.675 460.225 115.105 461.135 114.676C462.044 114.246 462.997 114.031 463.992 114.031C465.604 114.031 466.807 114.414 467.602 115.181C468.404 115.94 468.805 117.089 468.805 118.629C468.805 120.169 468.314 121.647 467.333 123.065C466.359 124.476 464.873 125.833 462.875 127.137V129.5H459.523ZM460.168 129.5V127.459H469.449V129.5H460.168ZM490.171 129.715C488.975 129.715 488.012 129.479 487.281 129.006C486.558 128.526 486.028 127.831 485.691 126.922C485.362 126.005 485.197 124.895 485.197 123.592V121.282C485.197 119.785 485.398 118.521 485.799 117.49C486.2 116.459 486.812 115.646 487.636 115.052C488.459 114.45 489.501 114.049 490.762 113.849L494.661 113.226L494.769 114.934L491.331 115.471C490.651 115.578 490.042 115.739 489.505 115.954C488.975 116.162 488.524 116.452 488.151 116.824C487.786 117.197 487.507 117.68 487.313 118.274C487.127 118.869 487.034 119.603 487.034 120.477V121.229H487.228C487.45 120.412 487.89 119.782 488.549 119.338C489.215 118.894 490.024 118.672 490.977 118.672C492.294 118.672 493.318 119.134 494.049 120.058C494.779 120.974 495.145 122.317 495.145 124.086C495.145 125.919 494.708 127.316 493.834 128.275C492.967 129.235 491.746 129.715 490.171 129.715ZM490.3 128.061C491.231 128.061 491.961 127.738 492.491 127.094C493.021 126.442 493.286 125.475 493.286 124.193C493.286 122.904 493.028 121.941 492.513 121.304C491.997 120.659 491.263 120.337 490.311 120.337C489.286 120.337 488.492 120.663 487.926 121.314C487.367 121.959 487.088 122.919 487.088 124.193C487.088 125.475 487.371 126.442 487.937 127.094C488.509 127.738 489.297 128.061 490.3 128.061ZM505.564 129.607L505.403 125.858L505.178 125.321V122.55C505.178 121.583 504.888 120.881 504.308 120.444C503.735 120 502.847 119.768 501.644 119.746L499.076 119.682L499.291 118.006L501.504 118.038C503.373 118.067 504.752 118.475 505.64 119.263C506.528 120.05 506.972 121.236 506.972 122.818V127.856L508.916 128.061V129.5L505.564 129.607ZM501.343 129.715C500.175 129.715 499.273 129.439 498.636 128.888C497.998 128.329 497.68 127.549 497.68 126.546C497.68 125.343 498.117 124.43 498.99 123.807C499.864 123.176 501.121 122.861 502.761 122.861C503.477 122.861 504.129 122.901 504.716 122.979C505.303 123.058 505.797 123.176 506.198 123.334L505.854 124.655C505.382 124.519 504.873 124.44 504.329 124.419C503.785 124.397 503.244 124.387 502.707 124.387C500.537 124.387 499.452 125.074 499.452 126.449C499.452 127.001 499.638 127.427 500.011 127.728C500.383 128.021 500.91 128.168 501.59 128.168C502.342 128.168 502.986 128.039 503.523 127.781C504.061 127.523 504.469 127.19 504.748 126.782C505.035 126.367 505.178 125.923 505.178 125.45V124.172L505.897 127.094H504.974L505.285 126.793C505.264 127.409 505.085 127.935 504.748 128.372C504.411 128.809 503.953 129.142 503.373 129.371C502.793 129.6 502.116 129.715 501.343 129.715ZM512.472 129.5V126.847H513.417L518.541 118.113H519.25V120.767H518.38L513.256 129.5H512.472ZM511.344 129.5V118.113H513.202V129.5H511.344ZM518.595 129.5V118.113H520.453V129.5H518.595ZM515.898 116.201C514.645 116.201 513.725 115.879 513.138 115.234C512.55 114.583 512.257 113.598 512.257 112.28H513.943C513.943 113.175 514.09 113.827 514.384 114.235C514.677 114.644 515.182 114.848 515.898 114.848C516.629 114.848 517.137 114.64 517.424 114.225C517.71 113.802 517.854 113.154 517.854 112.28H519.54C519.54 113.605 519.243 114.59 518.648 115.234C518.061 115.879 517.145 116.201 515.898 116.201ZM527.865 129.5V118.113H529.713V129.5H527.865ZM523.396 119.8V118.113H534.182V119.8H523.396Z" fill="#E1E1FF"/>
<path opacity="0.75" d="M77.8438 161.156C74.3958 161.156 72.6719 159.25 72.6719 155.438C72.6719 153.63 73.1068 152.232 73.9766 151.242C74.8464 150.247 76.0729 149.75 77.6562 149.75C78.4219 149.75 79.0885 149.872 79.6562 150.117C80.224 150.357 80.638 150.701 80.8984 151.148L79.7422 152.297C79.5078 151.943 79.2083 151.669 78.8438 151.477C78.4844 151.284 78.0938 151.188 77.6719 151.188C76.6667 151.188 75.8594 151.549 75.25 152.273C74.6458 152.997 74.3438 154.026 74.3438 155.359C74.3438 158.266 75.599 159.719 78.1094 159.719C78.8646 159.719 79.6094 159.562 80.3438 159.25L80.7031 160.625C79.7969 160.979 78.8438 161.156 77.8438 161.156ZM83.7812 161V158.734H84.5L87.7422 152.719H88.2891V154.984H87.625L84.3828 161H83.7812ZM82.6875 161V152.719H84.3438V161H82.6875ZM87.7812 161V152.719H89.4375V161H87.7812ZM92.8281 161V152.719H94.4844V161H92.8281ZM93.3125 154.203V152.719H98.7188V154.203H93.3125ZM106.531 161V152.719H108.188V161H106.531ZM101.438 161V152.719H103.094V161H101.438ZM101.922 157.539V156.18H107.945V157.539H101.922ZM115.891 161.078L115.781 158.625L115.562 157.938V155.797C115.562 155.245 115.367 154.841 114.977 154.586C114.591 154.326 114.016 154.185 113.25 154.164L111.266 154.109L111.422 152.641L113.094 152.664C114.464 152.685 115.479 152.982 116.141 153.555C116.807 154.122 117.141 154.953 117.141 156.047V159.5L118.547 159.672V161L115.891 161.078ZM112.969 161.156C112.104 161.156 111.435 160.948 110.961 160.531C110.487 160.115 110.25 159.526 110.25 158.766C110.25 157.891 110.576 157.219 111.227 156.75C111.883 156.281 112.807 156.047 114 156.047C114.495 156.047 114.935 156.078 115.32 156.141C115.711 156.198 116.057 156.286 116.359 156.406L116.016 157.531C115.667 157.453 115.326 157.409 114.992 157.398C114.659 157.383 114.318 157.375 113.969 157.375C112.531 157.375 111.812 157.812 111.812 158.688C111.812 159.052 111.935 159.333 112.18 159.531C112.43 159.729 112.781 159.828 113.234 159.828C113.75 159.828 114.18 159.74 114.523 159.562C114.872 159.385 115.133 159.159 115.305 158.883C115.477 158.607 115.562 158.323 115.562 158.031V157.125L116.047 159.25H115.391L115.656 159C115.656 159.479 115.544 159.88 115.32 160.203C115.102 160.521 114.792 160.76 114.391 160.922C113.99 161.078 113.516 161.156 112.969 161.156ZM122.734 161V152.719H124.391V161H122.734ZM119.578 154.203V152.719H127.547V154.203H119.578ZM128.836 164.75L128.758 163.266L130.055 163.109C130.602 163.042 131.068 162.893 131.453 162.664C131.844 162.435 132.177 162.094 132.453 161.641C132.729 161.193 132.971 160.604 133.18 159.875L135.242 152.719H136.961L134.57 160.266C134.258 161.255 133.906 162.052 133.516 162.656C133.13 163.26 132.672 163.714 132.141 164.016C131.615 164.318 130.982 164.51 130.242 164.594L128.836 164.75ZM131.977 161L128.68 152.719H130.398L133.102 159.75H133.352V161H131.977ZM138.938 164.594V152.719H140.438L140.594 154.469V164.594H138.938ZM142.945 161.156C142.31 161.156 141.797 161.01 141.406 160.719C141.021 160.427 140.802 160.021 140.75 159.5H140.031L140.594 157.141C140.594 157.995 140.76 158.643 141.094 159.086C141.432 159.529 141.927 159.75 142.578 159.75C143.245 159.75 143.75 159.513 144.094 159.039C144.438 158.565 144.609 157.865 144.609 156.938C144.609 155.958 144.438 155.219 144.094 154.719C143.75 154.219 143.245 153.969 142.578 153.969C141.927 153.969 141.432 154.19 141.094 154.633C140.76 155.076 140.594 155.724 140.594 156.578L140.031 154.219H140.672C140.745 153.698 140.979 153.292 141.375 153C141.776 152.708 142.299 152.562 142.945 152.562C144.034 152.562 144.857 152.932 145.414 153.672C145.971 154.411 146.25 155.5 146.25 156.938C146.25 158.323 145.971 159.372 145.414 160.086C144.857 160.799 144.034 161.156 142.945 161.156ZM153.391 161.078L153.281 158.625L153.062 157.938V155.797C153.062 155.245 152.867 154.841 152.477 154.586C152.091 154.326 151.516 154.185 150.75 154.164L148.766 154.109L148.922 152.641L150.594 152.664C151.964 152.685 152.979 152.982 153.641 153.555C154.307 154.122 154.641 154.953 154.641 156.047V159.5L156.047 159.672V161L153.391 161.078ZM150.469 161.156C149.604 161.156 148.935 160.948 148.461 160.531C147.987 160.115 147.75 159.526 147.75 158.766C147.75 157.891 148.076 157.219 148.727 156.75C149.383 156.281 150.307 156.047 151.5 156.047C151.995 156.047 152.435 156.078 152.82 156.141C153.211 156.198 153.557 156.286 153.859 156.406L153.516 157.531C153.167 157.453 152.826 157.409 152.492 157.398C152.159 157.383 151.818 157.375 151.469 157.375C150.031 157.375 149.312 157.812 149.312 158.688C149.312 159.052 149.435 159.333 149.68 159.531C149.93 159.729 150.281 159.828 150.734 159.828C151.25 159.828 151.68 159.74 152.023 159.562C152.372 159.385 152.633 159.159 152.805 158.883C152.977 158.607 153.062 158.323 153.062 158.031V157.125L153.547 159.25H152.891L153.156 159C153.156 159.479 153.044 159.88 152.82 160.203C152.602 160.521 152.292 160.76 151.891 160.922C151.49 161.078 151.016 161.156 150.469 161.156ZM172.844 161.156C172.432 161.156 172.094 161.042 171.828 160.812C171.568 160.583 171.419 160.245 171.383 159.797H170.664L171.109 157.438V158.344C171.109 158.812 171.19 159.164 171.352 159.398C171.518 159.633 171.771 159.75 172.109 159.75C172.469 159.75 172.729 159.529 172.891 159.086C173.052 158.643 173.133 157.927 173.133 156.938C173.133 155.896 173.052 155.141 172.891 154.672C172.734 154.203 172.479 153.969 172.125 153.969C171.448 153.969 171.109 154.76 171.109 156.344L170.742 154.141H171.383C171.43 153.615 171.573 153.221 171.812 152.961C172.052 152.695 172.391 152.562 172.828 152.562C173.51 152.562 174.005 152.909 174.312 153.602C174.62 154.289 174.773 155.401 174.773 156.938C174.773 158.417 174.62 159.49 174.312 160.156C174.01 160.823 173.521 161.156 172.844 161.156ZM168.031 161.156C167.354 161.156 166.862 160.823 166.555 160.156C166.253 159.49 166.102 158.417 166.102 156.938C166.102 155.401 166.255 154.289 166.562 153.602C166.87 152.909 167.365 152.562 168.047 152.562C168.484 152.562 168.823 152.695 169.062 152.961C169.302 153.221 169.445 153.615 169.492 154.141H170.133L169.766 156.344C169.766 154.76 169.427 153.969 168.75 153.969C168.401 153.969 168.146 154.203 167.984 154.672C167.823 155.141 167.742 155.896 167.742 156.938C167.742 157.927 167.823 158.643 167.984 159.086C168.146 159.529 168.406 159.75 168.766 159.75C169.104 159.75 169.354 159.633 169.516 159.398C169.682 159.164 169.766 158.812 169.766 158.344V157.438L170.211 159.797H169.492C169.456 160.245 169.307 160.583 169.047 160.812C168.786 161.042 168.448 161.156 168.031 161.156ZM169.648 164.438V159.461L169.766 159.016V154.695L169.648 154.438V149.281H171.227V154.438L171.109 154.695V159.016L171.227 159.461V164.438H169.648ZM179.812 161.156C178.667 161.156 177.776 160.781 177.141 160.031C176.505 159.281 176.188 158.224 176.188 156.859C176.188 155.49 176.505 154.432 177.141 153.688C177.776 152.938 178.667 152.562 179.812 152.562C180.964 152.562 181.854 152.938 182.484 153.688C183.12 154.432 183.438 155.49 183.438 156.859C183.438 158.224 183.12 159.281 182.484 160.031C181.854 160.781 180.964 161.156 179.812 161.156ZM179.812 159.672C180.422 159.672 180.891 159.427 181.219 158.938C181.552 158.448 181.719 157.755 181.719 156.859C181.719 155.958 181.552 155.266 181.219 154.781C180.891 154.292 180.422 154.047 179.812 154.047C179.203 154.047 178.732 154.292 178.398 154.781C178.07 155.266 177.906 155.958 177.906 156.859C177.906 157.755 178.07 158.448 178.398 158.938C178.732 159.427 179.203 159.672 179.812 159.672ZM185.812 164.594V152.719H187.312L187.469 154.469V164.594H185.812ZM189.82 161.156C189.185 161.156 188.672 161.01 188.281 160.719C187.896 160.427 187.677 160.021 187.625 159.5H186.906L187.469 157.141C187.469 157.995 187.635 158.643 187.969 159.086C188.307 159.529 188.802 159.75 189.453 159.75C190.12 159.75 190.625 159.513 190.969 159.039C191.312 158.565 191.484 157.865 191.484 156.938C191.484 155.958 191.312 155.219 190.969 154.719C190.625 154.219 190.12 153.969 189.453 153.969C188.802 153.969 188.307 154.19 187.969 154.633C187.635 155.076 187.469 155.724 187.469 156.578L186.906 154.219H187.547C187.62 153.698 187.854 153.292 188.25 153C188.651 152.708 189.174 152.562 189.82 152.562C190.909 152.562 191.732 152.932 192.289 153.672C192.846 154.411 193.125 155.5 193.125 156.938C193.125 158.323 192.846 159.372 192.289 160.086C191.732 160.799 190.909 161.156 189.82 161.156ZM198.297 159.281L198.531 157.484H198.625L199.969 152.719H200.922V154.688H200.469L199.203 159.281H198.297ZM194.875 161V152.719H196.453V161H194.875ZM197.922 159.281L196.656 154.688H196.203V152.719H197.156L198.5 157.484H198.562L198.719 159.281H197.922ZM200.672 161V152.719H202.25V161H200.672ZM209.641 161.078L209.531 158.625L209.312 157.938V155.797C209.312 155.245 209.117 154.841 208.727 154.586C208.341 154.326 207.766 154.185 207 154.164L205.016 154.109L205.172 152.641L206.844 152.664C208.214 152.685 209.229 152.982 209.891 153.555C210.557 154.122 210.891 154.953 210.891 156.047V159.5L212.297 159.672V161L209.641 161.078ZM206.719 161.156C205.854 161.156 205.185 160.948 204.711 160.531C204.237 160.115 204 159.526 204 158.766C204 157.891 204.326 157.219 204.977 156.75C205.633 156.281 206.557 156.047 207.75 156.047C208.245 156.047 208.685 156.078 209.07 156.141C209.461 156.198 209.807 156.286 210.109 156.406L209.766 157.531C209.417 157.453 209.076 157.409 208.742 157.398C208.409 157.383 208.068 157.375 207.719 157.375C206.281 157.375 205.562 157.812 205.562 158.688C205.562 159.052 205.685 159.333 205.93 159.531C206.18 159.729 206.531 159.828 206.984 159.828C207.5 159.828 207.93 159.74 208.273 159.562C208.622 159.385 208.883 159.159 209.055 158.883C209.227 158.607 209.312 158.323 209.312 158.031V157.125L209.797 159.25H209.141L209.406 159C209.406 159.479 209.294 159.88 209.07 160.203C208.852 160.521 208.542 160.76 208.141 160.922C207.74 161.078 207.266 161.156 206.719 161.156ZM216.484 161V152.719H218.141V161H216.484ZM213.328 154.203V152.719H221.297V154.203H213.328ZM228.391 161.078L228.281 158.625L228.062 157.938V155.797C228.062 155.245 227.867 154.841 227.477 154.586C227.091 154.326 226.516 154.185 225.75 154.164L223.766 154.109L223.922 152.641L225.594 152.664C226.964 152.685 227.979 152.982 228.641 153.555C229.307 154.122 229.641 154.953 229.641 156.047V159.5L231.047 159.672V161L228.391 161.078ZM225.469 161.156C224.604 161.156 223.935 160.948 223.461 160.531C222.987 160.115 222.75 159.526 222.75 158.766C222.75 157.891 223.076 157.219 223.727 156.75C224.383 156.281 225.307 156.047 226.5 156.047C226.995 156.047 227.435 156.078 227.82 156.141C228.211 156.198 228.557 156.286 228.859 156.406L228.516 157.531C228.167 157.453 227.826 157.409 227.492 157.398C227.159 157.383 226.818 157.375 226.469 157.375C225.031 157.375 224.312 157.812 224.312 158.688C224.312 159.052 224.435 159.333 224.68 159.531C224.93 159.729 225.281 159.828 225.734 159.828C226.25 159.828 226.68 159.74 227.023 159.562C227.372 159.385 227.633 159.159 227.805 158.883C227.977 158.607 228.062 158.323 228.062 158.031V157.125L228.547 159.25H227.891L228.156 159C228.156 159.479 228.044 159.88 227.82 160.203C227.602 160.521 227.292 160.76 226.891 160.922C226.49 161.078 226.016 161.156 225.469 161.156Z" fill="#E1E1FF"/>
<rect x="72" y="169" width="304" height="26" rx="4" fill="#1C1E2B"/>
<path opacity="0.75" d="M84.1016 187.137C83.0488 187.137 82.2331 186.893 81.6543 186.405C81.0801 185.913 80.793 185.223 80.793 184.334C80.793 183.518 81.0801 182.889 81.6543 182.447C82.2331 182.001 83.0488 181.777 84.1016 181.777C85.1543 181.777 85.9678 182.001 86.542 182.447C87.1208 182.889 87.4102 183.518 87.4102 184.334C87.4102 185.223 87.1208 185.913 86.542 186.405C85.9678 186.893 85.1543 187.137 84.1016 187.137ZM84.1016 185.879C84.6986 185.879 85.1589 185.738 85.4824 185.455C85.8105 185.173 85.9746 184.776 85.9746 184.266C85.9746 183.719 85.8105 183.293 85.4824 182.987C85.1589 182.682 84.6986 182.529 84.1016 182.529C83.5046 182.529 83.042 182.682 82.7139 182.987C82.3903 183.293 82.2285 183.719 82.2285 184.266C82.2285 184.776 82.3903 185.173 82.7139 185.455C83.042 185.738 83.5046 185.879 84.1016 185.879ZM82.9668 182.174V181.477H85.25V182.174H82.9668ZM84.1016 181.217C84.612 181.217 85.0062 181.101 85.2842 180.868C85.5622 180.631 85.7012 180.305 85.7012 179.891C85.7012 179.417 85.5622 179.052 85.2842 178.797C85.0062 178.542 84.612 178.414 84.1016 178.414C83.5911 178.414 83.1969 178.542 82.9189 178.797C82.641 179.052 82.502 179.417 82.502 179.891C82.502 180.305 82.641 180.631 82.9189 180.868C83.1969 181.101 83.5911 181.217 84.1016 181.217ZM84.1016 181.9C83.14 181.9 82.3926 181.702 81.8594 181.306C81.3307 180.905 81.0664 180.342 81.0664 179.617C81.0664 178.838 81.3307 178.234 81.8594 177.806C82.3926 177.373 83.14 177.156 84.1016 177.156C85.0677 177.156 85.8151 177.373 86.3438 177.806C86.8724 178.234 87.1367 178.838 87.1367 179.617C87.1367 180.342 86.8724 180.905 86.3438 181.306C85.8151 181.702 85.0677 181.9 84.1016 181.9ZM91.6484 183.541C90.8008 183.541 90.1468 183.279 89.6865 182.755C89.2262 182.231 88.9961 181.49 88.9961 180.533C88.9961 179.499 89.2878 178.694 89.8711 178.12C90.459 177.541 91.2747 177.252 92.3184 177.252C93.444 177.252 94.2712 177.532 94.7998 178.093C95.333 178.653 95.5996 179.526 95.5996 180.711L94.4648 181.955H93.959C93.8223 182.461 93.5488 182.853 93.1387 183.131C92.7331 183.404 92.2363 183.541 91.6484 183.541ZM89.8848 187.137L89.748 185.838C92.6374 185.715 94.082 184.416 94.082 181.941V181.162L95.5996 180.711V181.312C95.5996 183.163 95.1279 184.573 94.1846 185.544C93.2458 186.51 91.8125 187.041 89.8848 187.137ZM92.1611 182.283C92.7946 182.283 93.2822 182.119 93.624 181.791C93.9658 181.463 94.1367 180.998 94.1367 180.396C94.1367 179.804 93.9727 179.341 93.6445 179.009C93.3164 178.676 92.8584 178.51 92.2705 178.51C91.6917 178.51 91.2406 178.688 90.917 179.043C90.5934 179.398 90.4316 179.895 90.4316 180.533C90.4316 181.094 90.5798 181.527 90.876 181.832C91.1768 182.133 91.6051 182.283 92.1611 182.283ZM107.597 187L110.933 177.293H112.498L109.162 187H107.597ZM105.375 180.697V177.498H106.838V180.697H105.375ZM105.375 178.592V177.293H112.498L111.527 178.592H105.375ZM116.914 187.137C114.708 187.137 113.605 185.496 113.605 182.215C113.605 178.842 114.708 177.156 116.914 177.156C119.12 177.156 120.223 178.842 120.223 182.215C120.223 185.496 119.12 187.137 116.914 187.137ZM116.914 183.24C116.609 183.24 116.36 183.147 116.169 182.96C115.982 182.769 115.889 182.52 115.889 182.215C115.889 181.905 115.982 181.657 116.169 181.47C116.36 181.283 116.609 181.189 116.914 181.189C117.224 181.189 117.472 181.283 117.659 181.47C117.846 181.657 117.939 181.905 117.939 182.215C117.939 182.52 117.846 182.769 117.659 182.96C117.472 183.147 117.224 183.24 116.914 183.24ZM116.914 185.879C118.145 185.879 118.76 184.658 118.76 182.215C118.76 179.681 118.145 178.414 116.914 178.414C115.684 178.414 115.068 179.681 115.068 182.215C115.068 184.658 115.684 185.879 116.914 185.879ZM133.375 187.137C132.249 187.137 131.42 186.856 130.887 186.296C130.358 185.735 130.094 184.863 130.094 183.678L131.229 182.434H131.734C131.871 181.928 132.142 181.538 132.548 181.265C132.958 180.987 133.457 180.848 134.045 180.848C134.893 180.848 135.547 181.11 136.007 181.634C136.467 182.158 136.697 182.898 136.697 183.855C136.697 184.885 136.403 185.69 135.815 186.269C135.232 186.847 134.419 187.137 133.375 187.137ZM133.423 185.879C134.002 185.879 134.453 185.701 134.776 185.346C135.1 184.986 135.262 184.489 135.262 183.855C135.262 183.295 135.111 182.864 134.811 182.563C134.514 182.258 134.088 182.105 133.532 182.105C132.899 182.105 132.411 182.27 132.069 182.598C131.728 182.926 131.557 183.391 131.557 183.992C131.557 184.585 131.721 185.047 132.049 185.38C132.377 185.713 132.835 185.879 133.423 185.879ZM130.094 183.678V183.076C130.094 181.221 130.563 179.811 131.502 178.845C132.445 177.879 133.881 177.348 135.809 177.252L135.945 178.551C133.056 178.674 131.611 179.973 131.611 182.447V183.227L130.094 183.678ZM140.867 183.541C140.02 183.541 139.366 183.279 138.905 182.755C138.445 182.231 138.215 181.49 138.215 180.533C138.215 179.499 138.507 178.694 139.09 178.12C139.678 177.541 140.493 177.252 141.537 177.252C142.663 177.252 143.49 177.532 144.019 178.093C144.552 178.653 144.818 179.526 144.818 180.711L143.684 181.955H143.178C143.041 182.461 142.768 182.853 142.357 183.131C141.952 183.404 141.455 183.541 140.867 183.541ZM139.104 187.137L138.967 185.838C141.856 185.715 143.301 184.416 143.301 181.941V181.162L144.818 180.711V181.312C144.818 183.163 144.347 184.573 143.403 185.544C142.465 186.51 141.031 187.041 139.104 187.137ZM141.38 182.283C142.013 182.283 142.501 182.119 142.843 181.791C143.185 181.463 143.355 180.998 143.355 180.396C143.355 179.804 143.191 179.341 142.863 179.009C142.535 178.676 142.077 178.51 141.489 178.51C140.91 178.51 140.459 178.688 140.136 179.043C139.812 179.398 139.65 179.895 139.65 180.533C139.65 181.094 139.799 181.527 140.095 181.832C140.396 182.133 140.824 182.283 141.38 182.283ZM157.984 187.137C156.859 187.137 156.029 186.856 155.496 186.296C154.967 185.735 154.703 184.863 154.703 183.678L155.838 182.434H156.344C156.48 181.928 156.752 181.538 157.157 181.265C157.567 180.987 158.066 180.848 158.654 180.848C159.502 180.848 160.156 181.11 160.616 181.634C161.076 182.158 161.307 182.898 161.307 183.855C161.307 184.885 161.013 185.69 160.425 186.269C159.841 186.847 159.028 187.137 157.984 187.137ZM158.032 185.879C158.611 185.879 159.062 185.701 159.386 185.346C159.709 184.986 159.871 184.489 159.871 183.855C159.871 183.295 159.721 182.864 159.42 182.563C159.124 182.258 158.698 182.105 158.142 182.105C157.508 182.105 157.021 182.27 156.679 182.598C156.337 182.926 156.166 183.391 156.166 183.992C156.166 184.585 156.33 185.047 156.658 185.38C156.986 185.713 157.444 185.879 158.032 185.879ZM154.703 183.678V183.076C154.703 181.221 155.173 179.811 156.111 178.845C157.055 177.879 158.49 177.348 160.418 177.252L160.555 178.551C157.665 178.674 156.221 179.973 156.221 182.447V183.227L154.703 183.678ZM166.229 187.137C165.18 187.137 164.369 186.888 163.795 186.392C163.221 185.89 162.934 185.186 162.934 184.279H164.396C164.396 184.785 164.556 185.179 164.875 185.462C165.194 185.74 165.65 185.879 166.242 185.879C166.826 185.879 167.277 185.703 167.596 185.353C167.915 185.002 168.074 184.507 168.074 183.869C168.074 183.245 167.901 182.762 167.555 182.42C167.208 182.074 166.716 181.9 166.078 181.9C165.44 181.9 164.843 182.051 164.287 182.352L164.41 181.189C164.77 180.984 165.128 180.848 165.483 180.779C165.839 180.706 166.197 180.67 166.557 180.67C167.495 180.67 168.222 180.948 168.737 181.504C169.252 182.06 169.51 182.848 169.51 183.869C169.51 184.562 169.38 185.152 169.12 185.64C168.865 186.127 168.493 186.499 168.006 186.754C167.518 187.009 166.926 187.137 166.229 187.137ZM163.521 182.352L163.658 177.293H165.121L164.984 181.504L164.287 182.352H163.521ZM164.314 178.564L164.191 177.293H168.895V178.564H164.314ZM182.594 187.137C181.468 187.137 180.639 186.856 180.105 186.296C179.577 185.735 179.312 184.863 179.312 183.678L180.447 182.434H180.953C181.09 181.928 181.361 181.538 181.767 181.265C182.177 180.987 182.676 180.848 183.264 180.848C184.111 180.848 184.765 181.11 185.226 181.634C185.686 182.158 185.916 182.898 185.916 183.855C185.916 184.885 185.622 185.69 185.034 186.269C184.451 186.847 183.637 187.137 182.594 187.137ZM182.642 185.879C183.22 185.879 183.672 185.701 183.995 185.346C184.319 184.986 184.48 184.489 184.48 183.855C184.48 183.295 184.33 182.864 184.029 182.563C183.733 182.258 183.307 182.105 182.751 182.105C182.118 182.105 181.63 182.27 181.288 182.598C180.946 182.926 180.775 183.391 180.775 183.992C180.775 184.585 180.939 185.047 181.268 185.38C181.596 185.713 182.054 185.879 182.642 185.879ZM179.312 183.678V183.076C179.312 181.221 179.782 179.811 180.721 178.845C181.664 177.879 183.1 177.348 185.027 177.252L185.164 178.551C182.275 178.674 180.83 179.973 180.83 182.447V183.227L179.312 183.678ZM188.924 187V185.701H189.949C190.947 185.701 191.697 185.416 192.198 184.847C192.704 184.277 192.957 183.423 192.957 182.283C192.957 181.048 192.704 180.125 192.198 179.515C191.697 178.899 190.947 178.592 189.949 178.592H188.951L188.787 177.293H189.949C192.911 177.293 194.393 178.956 194.393 182.283C194.393 185.428 192.911 187 189.949 187H188.924ZM187.598 187V177.293H189.02V187H187.598ZM207.203 187.137C206.077 187.137 205.248 186.856 204.715 186.296C204.186 185.735 203.922 184.863 203.922 183.678L205.057 182.434H205.562C205.699 181.928 205.97 181.538 206.376 181.265C206.786 180.987 207.285 180.848 207.873 180.848C208.721 180.848 209.375 181.11 209.835 181.634C210.295 182.158 210.525 182.898 210.525 183.855C210.525 184.885 210.231 185.69 209.644 186.269C209.06 186.847 208.247 187.137 207.203 187.137ZM207.251 185.879C207.83 185.879 208.281 185.701 208.604 185.346C208.928 184.986 209.09 184.489 209.09 183.855C209.09 183.295 208.939 182.864 208.639 182.563C208.342 182.258 207.916 182.105 207.36 182.105C206.727 182.105 206.239 182.27 205.897 182.598C205.556 182.926 205.385 183.391 205.385 183.992C205.385 184.585 205.549 185.047 205.877 185.38C206.205 185.713 206.663 185.879 207.251 185.879ZM203.922 183.678V183.076C203.922 181.221 204.391 179.811 205.33 178.845C206.273 177.879 207.709 177.348 209.637 177.252L209.773 178.551C206.884 178.674 205.439 179.973 205.439 182.447V183.227L203.922 183.678ZM214.846 187V177.293H216.268V187H214.846ZM212.412 187V185.701H214.982V187H212.412ZM216.131 187V185.701H218.441V187H216.131ZM212.549 179.494V178.113L214.846 177.293V178.701L212.549 179.494ZM231.758 187.137C229.552 187.137 228.449 185.496 228.449 182.215C228.449 178.842 229.552 177.156 231.758 177.156C233.964 177.156 235.066 178.842 235.066 182.215C235.066 185.496 233.964 187.137 231.758 187.137ZM231.758 183.24C231.452 183.24 231.204 183.147 231.013 182.96C230.826 182.769 230.732 182.52 230.732 182.215C230.732 181.905 230.826 181.657 231.013 181.47C231.204 181.283 231.452 181.189 231.758 181.189C232.068 181.189 232.316 181.283 232.503 181.47C232.69 181.657 232.783 181.905 232.783 182.215C232.783 182.52 232.69 182.769 232.503 182.96C232.316 183.147 232.068 183.24 231.758 183.24ZM231.758 185.879C232.988 185.879 233.604 184.658 233.604 182.215C233.604 179.681 232.988 178.414 231.758 178.414C230.527 178.414 229.912 179.681 229.912 182.215C229.912 184.658 230.527 185.879 231.758 185.879ZM239.961 187.137C237.755 187.137 236.652 185.496 236.652 182.215C236.652 178.842 237.755 177.156 239.961 177.156C242.167 177.156 243.27 178.842 243.27 182.215C243.27 185.496 242.167 187.137 239.961 187.137ZM239.961 183.24C239.656 183.24 239.407 183.147 239.216 182.96C239.029 182.769 238.936 182.52 238.936 182.215C238.936 181.905 239.029 181.657 239.216 181.47C239.407 181.283 239.656 181.189 239.961 181.189C240.271 181.189 240.519 181.283 240.706 181.47C240.893 181.657 240.986 181.905 240.986 182.215C240.986 182.52 240.893 182.769 240.706 182.96C240.519 183.147 240.271 183.24 239.961 183.24ZM239.961 185.879C241.191 185.879 241.807 184.658 241.807 182.215C241.807 179.681 241.191 178.414 239.961 178.414C238.73 178.414 238.115 179.681 238.115 182.215C238.115 184.658 238.73 185.879 239.961 185.879ZM256.367 187.137C254.161 187.137 253.059 185.496 253.059 182.215C253.059 178.842 254.161 177.156 256.367 177.156C258.573 177.156 259.676 178.842 259.676 182.215C259.676 185.496 258.573 187.137 256.367 187.137ZM256.367 183.24C256.062 183.24 255.813 183.147 255.622 182.96C255.435 182.769 255.342 182.52 255.342 182.215C255.342 181.905 255.435 181.657 255.622 181.47C255.813 181.283 256.062 181.189 256.367 181.189C256.677 181.189 256.925 181.283 257.112 181.47C257.299 181.657 257.393 181.905 257.393 182.215C257.393 182.52 257.299 182.769 257.112 182.96C256.925 183.147 256.677 183.24 256.367 183.24ZM256.367 185.879C257.598 185.879 258.213 184.658 258.213 182.215C258.213 179.681 257.598 178.414 256.367 178.414C255.137 178.414 254.521 179.681 254.521 182.215C254.521 184.658 255.137 185.879 256.367 185.879ZM264.57 187.137C262.365 187.137 261.262 185.496 261.262 182.215C261.262 178.842 262.365 177.156 264.57 177.156C266.776 177.156 267.879 178.842 267.879 182.215C267.879 185.496 266.776 187.137 264.57 187.137ZM264.57 183.24C264.265 183.24 264.017 183.147 263.825 182.96C263.638 182.769 263.545 182.52 263.545 182.215C263.545 181.905 263.638 181.657 263.825 181.47C264.017 181.283 264.265 181.189 264.57 181.189C264.88 181.189 265.129 181.283 265.315 181.47C265.502 181.657 265.596 181.905 265.596 182.215C265.596 182.52 265.502 182.769 265.315 182.96C265.129 183.147 264.88 183.24 264.57 183.24ZM264.57 185.879C265.801 185.879 266.416 184.658 266.416 182.215C266.416 179.681 265.801 178.414 264.57 178.414C263.34 178.414 262.725 179.681 262.725 182.215C262.725 184.658 263.34 185.879 264.57 185.879ZM280.977 187.137C278.771 187.137 277.668 185.496 277.668 182.215C277.668 178.842 278.771 177.156 280.977 177.156C283.182 177.156 284.285 178.842 284.285 182.215C284.285 185.496 283.182 187.137 280.977 187.137ZM280.977 183.24C280.671 183.24 280.423 183.147 280.231 182.96C280.045 182.769 279.951 182.52 279.951 182.215C279.951 181.905 280.045 181.657 280.231 181.47C280.423 181.283 280.671 181.189 280.977 181.189C281.286 181.189 281.535 181.283 281.722 181.47C281.909 181.657 282.002 181.905 282.002 182.215C282.002 182.52 281.909 182.769 281.722 182.96C281.535 183.147 281.286 183.24 280.977 183.24ZM280.977 185.879C282.207 185.879 282.822 184.658 282.822 182.215C282.822 179.681 282.207 178.414 280.977 178.414C279.746 178.414 279.131 179.681 279.131 182.215C279.131 184.658 279.746 185.879 280.977 185.879ZM287.361 187V185.701H288.387C289.385 185.701 290.134 185.416 290.636 184.847C291.142 184.277 291.395 183.423 291.395 182.283C291.395 181.048 291.142 180.125 290.636 179.515C290.134 178.899 289.385 178.592 288.387 178.592H287.389L287.225 177.293H288.387C291.349 177.293 292.83 178.956 292.83 182.283C292.83 185.428 291.349 187 288.387 187H287.361ZM286.035 187V177.293H287.457V187H286.035ZM305.586 187.137C303.38 187.137 302.277 185.496 302.277 182.215C302.277 178.842 303.38 177.156 305.586 177.156C307.792 177.156 308.895 178.842 308.895 182.215C308.895 185.496 307.792 187.137 305.586 187.137ZM305.586 183.24C305.281 183.24 305.032 183.147 304.841 182.96C304.654 182.769 304.561 182.52 304.561 182.215C304.561 181.905 304.654 181.657 304.841 181.47C305.032 181.283 305.281 181.189 305.586 181.189C305.896 181.189 306.144 181.283 306.331 181.47C306.518 181.657 306.611 181.905 306.611 182.215C306.611 182.52 306.518 182.769 306.331 182.96C306.144 183.147 305.896 183.24 305.586 183.24ZM305.586 185.879C306.816 185.879 307.432 184.658 307.432 182.215C307.432 179.681 306.816 178.414 305.586 178.414C304.355 178.414 303.74 179.681 303.74 182.215C303.74 184.658 304.355 185.879 305.586 185.879ZM309.995 187L312.798 177.293H314.78L317.583 187H316.147L313.851 178.469H313.728L311.431 187H309.995ZM311.294 184.635V183.336H316.216V184.635H311.294ZM329.689 187V177.293H331.111V187H329.689ZM327.256 187V185.701H329.826V187H327.256ZM330.975 187V185.701H333.285V187H330.975ZM327.393 179.494V178.113L329.689 177.293V178.701L327.393 179.494ZM334.604 187L337.407 177.293H339.39L342.192 187H340.757L338.46 178.469H338.337L336.04 187H334.604ZM335.903 184.635V183.336H340.825V184.635H335.903ZM354.805 187.137C352.599 187.137 351.496 185.496 351.496 182.215C351.496 178.842 352.599 177.156 354.805 177.156C357.01 177.156 358.113 178.842 358.113 182.215C358.113 185.496 357.01 187.137 354.805 187.137ZM354.805 183.24C354.499 183.24 354.251 183.147 354.06 182.96C353.873 182.769 353.779 182.52 353.779 182.215C353.779 181.905 353.873 181.657 354.06 181.47C354.251 181.283 354.499 181.189 354.805 181.189C355.115 181.189 355.363 181.283 355.55 181.47C355.737 181.657 355.83 181.905 355.83 182.215C355.83 182.52 355.737 182.769 355.55 182.96C355.363 183.147 355.115 183.24 354.805 183.24ZM354.805 185.879C356.035 185.879 356.65 184.658 356.65 182.215C356.65 179.681 356.035 178.414 354.805 178.414C353.574 178.414 352.959 179.681 352.959 182.215C352.959 184.658 353.574 185.879 354.805 185.879ZM359.214 187L362.017 177.293H363.999L366.802 187H365.366L363.069 178.469H362.946L360.649 187H359.214ZM360.513 184.635V183.336H365.435V184.635H360.513Z" fill="#E1E1FF"/>
<rect x="48" y="235" width="512" height="96" rx="8" fill="#242638"/>
<g clip-path="url(#clip2_50_2761)">
<path d="M95.8828 267.653L93.5109 260.537C93.2062 259.619 92.3484 259 91.3781 259H85.75C85.2786 259 85.0429 259 84.8964 259.146C84.75 259.293 84.75 259.529 84.75 260V267C84.75 267.471 84.75 267.707 84.8964 267.854C85.0429 268 85.2786 268 85.75 268H95.587C95.7717 268 95.9412 267.828 95.8828 267.653ZM83.25 260C83.25 259.529 83.25 259.293 83.1036 259.146C82.9571 259 82.7214 259 82.25 259H76.6219C75.6516 259 74.7937 259.619 74.4891 260.537L72.1172 267.653C72.0588 267.828 72.2283 268 72.413 268H82.25C82.7214 268 82.9571 268 83.1036 267.854C83.25 267.707 83.25 267.471 83.25 267V260ZM73 269.5C72.5286 269.5 72.2929 269.5 72.1464 269.646C72 269.793 72 270.029 72 270.5V280.75C72 281.992 73.0078 283 74.25 283H93.75C94.9922 283 96 281.992 96 280.75V270.5C96 270.029 96 269.793 95.8536 269.646C95.7071 269.5 95.4714 269.5 95 269.5H73Z" fill="#E1E1FF"/>
</g>
<path d="M112.931 278.5L108.859 267.113H111.287L114.349 276.566H114.542L117.604 267.113H120.031L115.96 278.5H112.931ZM128.324 278.715C126.383 278.715 124.883 278.206 123.823 277.189C122.771 276.165 122.244 274.697 122.244 272.785C122.244 270.923 122.692 269.477 123.587 268.445C124.482 267.414 125.746 266.898 127.379 266.898C128.919 266.898 130.107 267.364 130.945 268.295C131.79 269.226 132.213 270.579 132.213 272.355C132.213 272.878 132.191 273.365 132.148 273.816H124.156V272.076H130.15C130.15 271.052 129.907 270.268 129.42 269.724C128.933 269.172 128.26 268.896 127.4 268.896C126.434 268.896 125.682 269.226 125.145 269.885C124.615 270.544 124.35 271.475 124.35 272.678C124.35 273.995 124.715 274.998 125.445 275.686C126.183 276.373 127.229 276.717 128.582 276.717C129.055 276.717 129.52 276.692 129.979 276.642C130.437 276.584 130.902 276.509 131.375 276.416L131.654 278.414C130.981 278.543 130.365 278.625 129.807 278.661C129.248 278.697 128.754 278.715 128.324 278.715ZM139.453 273.602L138.787 270.035H139.668C139.797 267.944 140.842 266.898 142.805 266.898C143.979 266.898 144.831 267.235 145.361 267.908C145.891 268.581 146.156 269.67 146.156 271.174H143.9C143.9 270.343 143.775 269.745 143.524 269.38C143.281 269.015 142.883 268.832 142.332 268.832C141.365 268.832 140.642 269.247 140.162 270.078C139.689 270.902 139.453 272.076 139.453 273.602ZM134.641 278.5V276.502H142.246V278.5H134.641ZM137.176 278.5V267.113H139.023L139.453 270.379V278.5H137.176ZM135.07 269.111V267.113H138.873L139.088 269.111H135.07ZM152.236 278.715C151.377 278.715 150.639 278.69 150.023 278.64C149.415 278.59 148.856 278.507 148.348 278.393L148.605 276.33C149.357 276.445 150.02 276.531 150.593 276.588C151.173 276.645 151.721 276.674 152.236 276.674C153.389 276.674 154.224 276.563 154.739 276.341C155.262 276.112 155.523 275.75 155.523 275.256C155.523 274.912 155.43 274.658 155.244 274.493C155.065 274.321 154.786 274.189 154.406 274.096L151.785 273.43C150.661 273.143 149.834 272.789 149.304 272.366C148.781 271.944 148.52 271.303 148.52 270.443C148.52 269.197 148.996 268.295 149.948 267.736C150.908 267.178 152.451 266.898 154.578 266.898C155.13 266.898 155.642 266.916 156.114 266.952C156.594 266.981 157.085 267.035 157.586 267.113L157.35 269.09C156.77 269.033 156.257 268.993 155.813 268.972C155.369 268.95 154.936 268.939 154.514 268.939C153.239 268.939 152.315 269.05 151.742 269.272C151.169 269.487 150.883 269.842 150.883 270.336C150.883 270.665 151.001 270.905 151.237 271.056C151.474 271.199 151.835 271.331 152.322 271.453L154.428 271.969C155.624 272.255 156.497 272.638 157.049 273.118C157.607 273.598 157.887 274.296 157.887 275.213C157.887 276.438 157.439 277.329 156.544 277.888C155.649 278.439 154.213 278.715 152.236 278.715ZM165.621 278.5V267.758H167.898V278.5H165.621ZM161.281 278.5V276.502H165.836V278.5H161.281ZM167.684 278.5V276.502H171.4V278.5H167.684ZM161.926 269.111V267.113H167.898V269.111H161.926ZM166.685 265.309C166.248 265.309 165.872 265.155 165.557 264.847C165.249 264.532 165.095 264.156 165.095 263.719C165.095 263.275 165.249 262.899 165.557 262.591C165.872 262.283 166.248 262.129 166.685 262.129C167.129 262.129 167.505 262.283 167.812 262.591C168.12 262.899 168.274 263.275 168.274 263.719C168.274 264.156 168.12 264.532 167.812 264.847C167.505 265.155 167.129 265.309 166.685 265.309ZM178.898 278.715C177.323 278.715 176.098 278.199 175.225 277.168C174.351 276.137 173.914 274.683 173.914 272.807C173.914 270.923 174.351 269.469 175.225 268.445C176.098 267.414 177.323 266.898 178.898 266.898C180.481 266.898 181.706 267.414 182.572 268.445C183.446 269.469 183.883 270.923 183.883 272.807C183.883 274.683 183.446 276.137 182.572 277.168C181.706 278.199 180.481 278.715 178.898 278.715ZM178.898 276.674C179.736 276.674 180.381 276.337 180.832 275.664C181.29 274.991 181.52 274.038 181.52 272.807C181.52 271.568 181.29 270.615 180.832 269.949C180.381 269.276 179.736 268.939 178.898 268.939C178.061 268.939 177.412 269.276 176.954 269.949C176.503 270.615 176.277 271.568 176.277 272.807C176.277 274.038 176.503 274.991 176.954 275.664C177.412 276.337 178.061 276.674 178.898 276.674ZM194.152 278.5V271.088C194.152 270.4 193.973 269.87 193.615 269.498C193.257 269.126 192.756 268.939 192.111 268.939C190.321 268.939 189.426 269.992 189.426 272.098L188.76 269.176H189.641C189.705 268.41 189.984 267.84 190.479 267.468C190.973 267.088 191.696 266.898 192.648 266.898C193.852 266.898 194.783 267.264 195.441 267.994C196.1 268.725 196.43 269.756 196.43 271.088V278.5H194.152ZM187.148 278.5V267.113H189.211L189.426 269.52V278.5H187.148Z" fill="#E1E1FF"/>
<path d="M450.65 278.5V263.246H452.885V278.5H450.65ZM446.826 278.5V276.459H450.865V278.5H446.826ZM452.67 278.5V276.459H456.301V278.5H452.67ZM447.041 266.705V264.535L450.65 263.246V265.459L447.041 266.705ZM459.523 278.5V276.051C461.88 274.747 463.638 273.394 464.798 271.99C465.965 270.579 466.549 269.126 466.549 267.629C466.549 266.755 466.334 266.1 465.904 265.663C465.475 265.226 464.823 265.008 463.949 265.008C463.369 265.008 462.764 265.176 462.134 265.513C461.504 265.849 460.963 266.297 460.512 266.855L459.029 265.384C459.523 264.675 460.225 264.105 461.135 263.676C462.044 263.246 462.997 263.031 463.992 263.031C465.604 263.031 466.807 263.414 467.602 264.181C468.404 264.94 468.805 266.089 468.805 267.629C468.805 269.169 468.314 270.647 467.333 272.065C466.359 273.476 464.873 274.833 462.875 276.137V278.5H459.523ZM460.168 278.5V276.459H469.449V278.5H460.168ZM490.171 278.715C488.975 278.715 488.012 278.479 487.281 278.006C486.558 277.526 486.028 276.831 485.691 275.922C485.362 275.005 485.197 273.895 485.197 272.592V270.282C485.197 268.785 485.398 267.521 485.799 266.49C486.2 265.459 486.812 264.646 487.636 264.052C488.459 263.45 489.501 263.049 490.762 262.849L494.661 262.226L494.769 263.934L491.331 264.471C490.651 264.578 490.042 264.739 489.505 264.954C488.975 265.162 488.524 265.452 488.151 265.824C487.786 266.197 487.507 266.68 487.313 267.274C487.127 267.869 487.034 268.603 487.034 269.477V270.229H487.228C487.45 269.412 487.89 268.782 488.549 268.338C489.215 267.894 490.024 267.672 490.977 267.672C492.294 267.672 493.318 268.134 494.049 269.058C494.779 269.974 495.145 271.317 495.145 273.086C495.145 274.919 494.708 276.316 493.834 277.275C492.967 278.235 491.746 278.715 490.171 278.715ZM490.3 277.061C491.231 277.061 491.961 276.738 492.491 276.094C493.021 275.442 493.286 274.475 493.286 273.193C493.286 271.904 493.028 270.941 492.513 270.304C491.997 269.659 491.263 269.337 490.311 269.337C489.286 269.337 488.492 269.663 487.926 270.314C487.367 270.959 487.088 271.919 487.088 273.193C487.088 274.475 487.371 275.442 487.937 276.094C488.509 276.738 489.297 277.061 490.3 277.061ZM505.564 278.607L505.403 274.858L505.178 274.321V271.55C505.178 270.583 504.888 269.881 504.308 269.444C503.735 269 502.847 268.768 501.644 268.746L499.076 268.682L499.291 267.006L501.504 267.038C503.373 267.067 504.752 267.475 505.64 268.263C506.528 269.05 506.972 270.236 506.972 271.818V276.856L508.916 277.061V278.5L505.564 278.607ZM501.343 278.715C500.175 278.715 499.273 278.439 498.636 277.888C497.998 277.329 497.68 276.549 497.68 275.546C497.68 274.343 498.117 273.43 498.99 272.807C499.864 272.176 501.121 271.861 502.761 271.861C503.477 271.861 504.129 271.901 504.716 271.979C505.303 272.058 505.797 272.176 506.198 272.334L505.854 273.655C505.382 273.519 504.873 273.44 504.329 273.419C503.785 273.397 503.244 273.387 502.707 273.387C500.537 273.387 499.452 274.074 499.452 275.449C499.452 276.001 499.638 276.427 500.011 276.728C500.383 277.021 500.91 277.168 501.59 277.168C502.342 277.168 502.986 277.039 503.523 276.781C504.061 276.523 504.469 276.19 504.748 275.782C505.035 275.367 505.178 274.923 505.178 274.45V273.172L505.897 276.094H504.974L505.285 275.793C505.264 276.409 505.085 276.935 504.748 277.372C504.411 277.809 503.953 278.142 503.373 278.371C502.793 278.6 502.116 278.715 501.343 278.715ZM512.472 278.5V275.847H513.417L518.541 267.113H519.25V269.767H518.38L513.256 278.5H512.472ZM511.344 278.5V267.113H513.202V278.5H511.344ZM518.595 278.5V267.113H520.453V278.5H518.595ZM515.898 265.201C514.645 265.201 513.725 264.879 513.138 264.234C512.55 263.583 512.257 262.598 512.257 261.28H513.943C513.943 262.175 514.09 262.827 514.384 263.235C514.677 263.644 515.182 263.848 515.898 263.848C516.629 263.848 517.137 263.64 517.424 263.225C517.71 262.802 517.854 262.154 517.854 261.28H519.54C519.54 262.605 519.243 263.59 518.648 264.234C518.061 264.879 517.145 265.201 515.898 265.201ZM527.865 278.5V267.113H529.713V278.5H527.865ZM523.396 268.8V267.113H534.182V268.8H523.396Z" fill="#E1E1FF"/>
<path opacity="0.75" d="M77.8438 307.156C74.3958 307.156 72.6719 305.25 72.6719 301.438C72.6719 299.63 73.1068 298.232 73.9766 297.242C74.8464 296.247 76.0729 295.75 77.6562 295.75C78.4219 295.75 79.0885 295.872 79.6562 296.117C80.224 296.357 80.638 296.701 80.8984 297.148L79.7422 298.297C79.5078 297.943 79.2083 297.669 78.8438 297.477C78.4844 297.284 78.0938 297.188 77.6719 297.188C76.6667 297.188 75.8594 297.549 75.25 298.273C74.6458 298.997 74.3438 300.026 74.3438 301.359C74.3438 304.266 75.599 305.719 78.1094 305.719C78.8646 305.719 79.6094 305.562 80.3438 305.25L80.7031 306.625C79.7969 306.979 78.8438 307.156 77.8438 307.156ZM83.7812 307V304.734H84.5L87.7422 298.719H88.2891V300.984H87.625L84.3828 307H83.7812ZM82.6875 307V298.719H84.3438V307H82.6875ZM87.7812 307V298.719H89.4375V307H87.7812ZM92.8281 307V298.719H94.4844V307H92.8281ZM93.3125 300.203V298.719H98.7188V300.203H93.3125ZM106.531 307V298.719H108.188V307H106.531ZM101.438 307V298.719H103.094V307H101.438ZM101.922 303.539V302.18H107.945V303.539H101.922ZM115.891 307.078L115.781 304.625L115.562 303.938V301.797C115.562 301.245 115.367 300.841 114.977 300.586C114.591 300.326 114.016 300.185 113.25 300.164L111.266 300.109L111.422 298.641L113.094 298.664C114.464 298.685 115.479 298.982 116.141 299.555C116.807 300.122 117.141 300.953 117.141 302.047V305.5L118.547 305.672V307L115.891 307.078ZM112.969 307.156C112.104 307.156 111.435 306.948 110.961 306.531C110.487 306.115 110.25 305.526 110.25 304.766C110.25 303.891 110.576 303.219 111.227 302.75C111.883 302.281 112.807 302.047 114 302.047C114.495 302.047 114.935 302.078 115.32 302.141C115.711 302.198 116.057 302.286 116.359 302.406L116.016 303.531C115.667 303.453 115.326 303.409 114.992 303.398C114.659 303.383 114.318 303.375 113.969 303.375C112.531 303.375 111.812 303.812 111.812 304.688C111.812 305.052 111.935 305.333 112.18 305.531C112.43 305.729 112.781 305.828 113.234 305.828C113.75 305.828 114.18 305.74 114.523 305.562C114.872 305.385 115.133 305.159 115.305 304.883C115.477 304.607 115.562 304.323 115.562 304.031V303.125L116.047 305.25H115.391L115.656 305C115.656 305.479 115.544 305.88 115.32 306.203C115.102 306.521 114.792 306.76 114.391 306.922C113.99 307.078 113.516 307.156 112.969 307.156ZM122.734 307V298.719H124.391V307H122.734ZM119.578 300.203V298.719H127.547V300.203H119.578ZM128.836 310.75L128.758 309.266L130.055 309.109C130.602 309.042 131.068 308.893 131.453 308.664C131.844 308.435 132.177 308.094 132.453 307.641C132.729 307.193 132.971 306.604 133.18 305.875L135.242 298.719H136.961L134.57 306.266C134.258 307.255 133.906 308.052 133.516 308.656C133.13 309.26 132.672 309.714 132.141 310.016C131.615 310.318 130.982 310.51 130.242 310.594L128.836 310.75ZM131.977 307L128.68 298.719H130.398L133.102 305.75H133.352V307H131.977ZM138.938 310.594V298.719H140.438L140.594 300.469V310.594H138.938ZM142.945 307.156C142.31 307.156 141.797 307.01 141.406 306.719C141.021 306.427 140.802 306.021 140.75 305.5H140.031L140.594 303.141C140.594 303.995 140.76 304.643 141.094 305.086C141.432 305.529 141.927 305.75 142.578 305.75C143.245 305.75 143.75 305.513 144.094 305.039C144.438 304.565 144.609 303.865 144.609 302.938C144.609 301.958 144.438 301.219 144.094 300.719C143.75 300.219 143.245 299.969 142.578 299.969C141.927 299.969 141.432 300.19 141.094 300.633C140.76 301.076 140.594 301.724 140.594 302.578L140.031 300.219H140.672C140.745 299.698 140.979 299.292 141.375 299C141.776 298.708 142.299 298.562 142.945 298.562C144.034 298.562 144.857 298.932 145.414 299.672C145.971 300.411 146.25 301.5 146.25 302.938C146.25 304.323 145.971 305.372 145.414 306.086C144.857 306.799 144.034 307.156 142.945 307.156ZM153.391 307.078L153.281 304.625L153.062 303.938V301.797C153.062 301.245 152.867 300.841 152.477 300.586C152.091 300.326 151.516 300.185 150.75 300.164L148.766 300.109L148.922 298.641L150.594 298.664C151.964 298.685 152.979 298.982 153.641 299.555C154.307 300.122 154.641 300.953 154.641 302.047V305.5L156.047 305.672V307L153.391 307.078ZM150.469 307.156C149.604 307.156 148.935 306.948 148.461 306.531C147.987 306.115 147.75 305.526 147.75 304.766C147.75 303.891 148.076 303.219 148.727 302.75C149.383 302.281 150.307 302.047 151.5 302.047C151.995 302.047 152.435 302.078 152.82 302.141C153.211 302.198 153.557 302.286 153.859 302.406L153.516 303.531C153.167 303.453 152.826 303.409 152.492 303.398C152.159 303.383 151.818 303.375 151.469 303.375C150.031 303.375 149.312 303.812 149.312 304.688C149.312 305.052 149.435 305.333 149.68 305.531C149.93 305.729 150.281 305.828 150.734 305.828C151.25 305.828 151.68 305.74 152.023 305.562C152.372 305.385 152.633 305.159 152.805 304.883C152.977 304.607 153.062 304.323 153.062 304.031V303.125L153.547 305.25H152.891L153.156 305C153.156 305.479 153.044 305.88 152.82 306.203C152.602 306.521 152.292 306.76 151.891 306.922C151.49 307.078 151.016 307.156 150.469 307.156ZM168.688 307V305.516H171.344C171.729 305.516 172.029 305.422 172.242 305.234C172.456 305.042 172.562 304.771 172.562 304.422C172.562 304.073 172.445 303.805 172.211 303.617C171.982 303.424 171.656 303.328 171.234 303.328H168.531V302.773H171.625C172.474 302.773 173.13 302.958 173.594 303.328C174.062 303.698 174.297 304.219 174.297 304.891C174.297 305.562 174.078 306.083 173.641 306.453C173.203 306.818 172.589 307 171.797 307H168.688ZM167.141 307V298.719H168.797V307H167.141ZM168.156 303.109V302.344H171.719V303.109H168.156ZM168.531 302.633V302.078H171.031C171.417 302.078 171.716 301.997 171.93 301.836C172.143 301.669 172.25 301.438 172.25 301.141C172.25 300.844 172.133 300.615 171.898 300.453C171.669 300.286 171.344 300.203 170.922 300.203H168.688V298.719H171.312C172.161 298.719 172.818 298.904 173.281 299.273C173.75 299.638 173.984 300.156 173.984 300.828C173.984 301.401 173.766 301.846 173.328 302.164C172.891 302.477 172.276 302.633 171.484 302.633H168.531ZM180.531 307.156C179.12 307.156 178.029 306.786 177.258 306.047C176.492 305.302 176.109 304.234 176.109 302.844C176.109 301.49 176.435 300.438 177.086 299.688C177.737 298.938 178.656 298.562 179.844 298.562C180.964 298.562 181.828 298.901 182.438 299.578C183.052 300.255 183.359 301.24 183.359 302.531C183.359 302.911 183.344 303.266 183.312 303.594H177.5V302.328H181.859C181.859 301.583 181.682 301.013 181.328 300.617C180.974 300.216 180.484 300.016 179.859 300.016C179.156 300.016 178.609 300.255 178.219 300.734C177.833 301.214 177.641 301.891 177.641 302.766C177.641 303.724 177.906 304.453 178.438 304.953C178.974 305.453 179.734 305.703 180.719 305.703C181.062 305.703 181.401 305.685 181.734 305.648C182.068 305.607 182.406 305.552 182.75 305.484L182.953 306.938C182.464 307.031 182.016 307.091 181.609 307.117C181.203 307.143 180.844 307.156 180.531 307.156ZM185.812 310.594V298.719H187.312L187.469 300.469V310.594H185.812ZM189.82 307.156C189.185 307.156 188.672 307.01 188.281 306.719C187.896 306.427 187.677 306.021 187.625 305.5H186.906L187.469 303.141C187.469 303.995 187.635 304.643 187.969 305.086C188.307 305.529 188.802 305.75 189.453 305.75C190.12 305.75 190.625 305.513 190.969 305.039C191.312 304.565 191.484 303.865 191.484 302.938C191.484 301.958 191.312 301.219 190.969 300.719C190.625 300.219 190.12 299.969 189.453 299.969C188.802 299.969 188.307 300.19 187.969 300.633C187.635 301.076 187.469 301.724 187.469 302.578L186.906 300.219H187.547C187.62 299.698 187.854 299.292 188.25 299C188.651 298.708 189.174 298.562 189.82 298.562C190.909 298.562 191.732 298.932 192.289 299.672C192.846 300.411 193.125 301.5 193.125 302.938C193.125 304.323 192.846 305.372 192.289 306.086C191.732 306.799 190.909 307.156 189.82 307.156ZM199.359 307.156C197.948 307.156 196.857 306.786 196.086 306.047C195.32 305.302 194.938 304.234 194.938 302.844C194.938 301.49 195.299 300.438 196.023 299.688C196.753 298.938 197.792 298.562 199.141 298.562C199.948 298.562 200.638 298.714 201.211 299.016C201.789 299.312 202.201 299.734 202.445 300.281L201.172 301.242C200.938 300.862 200.638 300.568 200.273 300.359C199.909 300.151 199.51 300.047 199.078 300.047C198.297 300.047 197.69 300.284 197.258 300.758C196.826 301.227 196.609 301.896 196.609 302.766C196.609 303.708 196.862 304.43 197.367 304.93C197.878 305.424 198.604 305.672 199.547 305.672C199.932 305.672 200.318 305.654 200.703 305.617C201.089 305.581 201.464 305.531 201.828 305.469L202.016 306.922C201.589 307.016 201.146 307.078 200.688 307.109C200.234 307.141 199.792 307.156 199.359 307.156ZM205.656 307V304.734H206.375L209.617 298.719H210.164V300.984H209.5L206.258 307H205.656ZM204.562 307V298.719H206.219V307H204.562ZM209.656 307V298.719H211.312V307H209.656ZM215.031 307V304.734H215.75L218.992 298.719H219.539V300.984H218.875L215.633 307H215.031ZM213.938 307V298.719H215.594V307H213.938ZM219.031 307V298.719H220.688V307H219.031ZM225.219 310.406L225.844 305.016H227.656L226.719 310.406H225.219ZM243.688 307V305.516H246.344C246.729 305.516 247.029 305.422 247.242 305.234C247.456 305.042 247.562 304.771 247.562 304.422C247.562 304.073 247.445 303.805 247.211 303.617C246.982 303.424 246.656 303.328 246.234 303.328H243.531V302.773H246.625C247.474 302.773 248.13 302.958 248.594 303.328C249.062 303.698 249.297 304.219 249.297 304.891C249.297 305.562 249.078 306.083 248.641 306.453C248.203 306.818 247.589 307 246.797 307H243.688ZM242.141 307V298.719H243.797V307H242.141ZM243.156 303.109V302.344H246.719V303.109H243.156ZM243.531 302.633V302.078H246.031C246.417 302.078 246.716 301.997 246.93 301.836C247.143 301.669 247.25 301.438 247.25 301.141C247.25 300.844 247.133 300.615 246.898 300.453C246.669 300.286 246.344 300.203 245.922 300.203H243.688V298.719H246.312C247.161 298.719 247.818 298.904 248.281 299.273C248.75 299.638 248.984 300.156 248.984 300.828C248.984 301.401 248.766 301.846 248.328 302.164C247.891 302.477 247.276 302.633 246.484 302.633H243.531ZM254.812 307.156C253.667 307.156 252.776 306.781 252.141 306.031C251.505 305.281 251.188 304.224 251.188 302.859C251.188 301.49 251.505 300.432 252.141 299.688C252.776 298.938 253.667 298.562 254.812 298.562C255.964 298.562 256.854 298.938 257.484 299.688C258.12 300.432 258.438 301.49 258.438 302.859C258.438 304.224 258.12 305.281 257.484 306.031C256.854 306.781 255.964 307.156 254.812 307.156ZM254.812 305.672C255.422 305.672 255.891 305.427 256.219 304.938C256.552 304.448 256.719 303.755 256.719 302.859C256.719 301.958 256.552 301.266 256.219 300.781C255.891 300.292 255.422 300.047 254.812 300.047C254.203 300.047 253.732 300.292 253.398 300.781C253.07 301.266 252.906 301.958 252.906 302.859C252.906 303.755 253.07 304.448 253.398 304.938C253.732 305.427 254.203 305.672 254.812 305.672ZM263.844 307.156C263.422 307.156 263 307.128 262.578 307.07C262.161 307.013 261.766 306.911 261.391 306.766C261.021 306.62 260.69 306.411 260.398 306.141L261.195 304.984C261.57 305.255 261.997 305.445 262.477 305.555C262.961 305.664 263.396 305.719 263.781 305.719C264.24 305.719 264.622 305.674 264.93 305.586C265.242 305.497 265.477 305.365 265.633 305.188C265.794 305.01 265.875 304.794 265.875 304.539C265.875 304.138 265.664 303.839 265.242 303.641C264.826 303.438 264.094 303.336 263.047 303.336H262.719L262.633 302.055H263.07C263.789 302.055 264.326 302.018 264.68 301.945C265.034 301.872 265.268 301.768 265.383 301.633C265.497 301.492 265.555 301.323 265.555 301.125C265.555 300.755 265.365 300.477 264.984 300.289C264.609 300.096 264.052 300 263.312 300C262.953 300 262.633 300.018 262.352 300.055C262.07 300.086 261.706 300.125 261.258 300.172L261.062 298.766C261.448 298.714 261.81 298.667 262.148 298.625C262.492 298.583 262.938 298.562 263.484 298.562C264.646 298.562 265.568 298.734 266.25 299.078C266.932 299.417 267.273 299.956 267.273 300.695C267.273 300.977 267.195 301.247 267.039 301.508C266.883 301.768 266.651 301.992 266.344 302.18C266.036 302.362 265.656 302.484 265.203 302.547V302.703C266.005 302.818 266.604 303.044 267 303.383C267.396 303.721 267.594 304.172 267.594 304.734C267.594 305.464 267.255 306.049 266.578 306.492C265.901 306.935 264.99 307.156 263.844 307.156ZM273.297 305.281L273.531 303.484H273.625L274.969 298.719H275.922V300.688H275.469L274.203 305.281H273.297ZM269.875 307V298.719H271.453V307H269.875ZM272.922 305.281L271.656 300.688H271.203V298.719H272.156L273.5 303.484H273.562L273.719 305.281H272.922ZM275.672 307V298.719H277.25V307H275.672ZM282.938 307.156C281.792 307.156 280.901 306.781 280.266 306.031C279.63 305.281 279.312 304.224 279.312 302.859C279.312 301.49 279.63 300.432 280.266 299.688C280.901 298.938 281.792 298.562 282.938 298.562C284.089 298.562 284.979 298.938 285.609 299.688C286.245 300.432 286.562 301.49 286.562 302.859C286.562 304.224 286.245 305.281 285.609 306.031C284.979 306.781 284.089 307.156 282.938 307.156ZM282.938 305.672C283.547 305.672 284.016 305.427 284.344 304.938C284.677 304.448 284.844 303.755 284.844 302.859C284.844 301.958 284.677 301.266 284.344 300.781C284.016 300.292 283.547 300.047 282.938 300.047C282.328 300.047 281.857 300.292 281.523 300.781C281.195 301.266 281.031 301.958 281.031 302.859C281.031 303.755 281.195 304.448 281.523 304.938C281.857 305.427 282.328 305.672 282.938 305.672ZM293.922 302.812V302.18C294.203 302.18 294.365 302.133 294.406 302.039C294.453 301.945 294.477 301.755 294.477 301.469V300.141C294.477 299.615 294.62 299.234 294.906 299C295.193 298.76 295.604 298.641 296.141 298.641H296.711V300.125H296.375C296.26 300.125 296.154 300.161 296.055 300.234C295.961 300.302 295.914 300.419 295.914 300.586V301.633C295.914 301.966 295.805 302.227 295.586 302.414C295.367 302.602 295.099 302.708 294.781 302.734L293.922 302.812ZM287.914 307.078V305.594H288.25C288.37 305.594 288.477 305.557 288.57 305.484C288.664 305.411 288.711 305.294 288.711 305.133V304.086C288.711 303.747 288.82 303.487 289.039 303.305C289.258 303.117 289.526 303.01 289.844 302.984L290.703 302.906V303.539C290.422 303.539 290.258 303.586 290.211 303.68C290.169 303.773 290.148 303.964 290.148 304.25V305.578C290.148 306.104 290.005 306.487 289.719 306.727C289.438 306.961 289.026 307.078 288.484 307.078H287.914ZM290.141 303.539V302.18H291.727V303.539H290.141ZM290.703 302.812L289.844 302.734C289.526 302.708 289.258 302.602 289.039 302.414C288.82 302.227 288.711 301.966 288.711 301.633V300.586C288.711 300.419 288.664 300.302 288.57 300.234C288.477 300.161 288.37 300.125 288.25 300.125H287.914V298.641H288.484C289.026 298.641 289.438 298.76 289.719 299C290.005 299.234 290.148 299.615 290.148 300.141V301.469C290.148 301.755 290.169 301.945 290.211 302.039C290.258 302.133 290.422 302.18 290.703 302.18V302.812ZM291.602 307V298.719H293.008V307H291.602ZM296.141 307.078C295.604 307.078 295.193 306.961 294.906 306.727C294.62 306.487 294.477 306.104 294.477 305.578V304.25C294.477 303.964 294.453 303.773 294.406 303.68C294.365 303.586 294.203 303.539 293.922 303.539V302.906L294.781 302.984C295.099 303.01 295.367 303.117 295.586 303.305C295.805 303.487 295.914 303.747 295.914 304.086V305.133C295.914 305.294 295.961 305.411 296.055 305.484C296.154 305.557 296.26 305.594 296.375 305.594H296.711V307.078H296.141ZM292.852 303.539V302.18H294.484V303.539H292.852ZM303.406 307V298.719H305.062V307H303.406ZM298.312 307V298.719H299.969V307H298.312ZM298.797 303.539V302.18H304.82V303.539H298.797ZM308.797 307V305.672H309.414C309.831 305.672 310.154 305.544 310.383 305.289C310.612 305.034 310.727 304.672 310.727 304.203C310.727 303.734 310.612 303.372 310.383 303.117C310.154 302.862 309.831 302.734 309.414 302.734H308.641V301.406H309.633C310.456 301.406 311.091 301.651 311.539 302.141C311.987 302.625 312.211 303.312 312.211 304.203C312.211 305.094 311.987 305.784 311.539 306.273C311.091 306.758 310.456 307 309.633 307H308.797ZM307.25 307V298.719H308.906V307H307.25ZM313.219 307V298.719H314.875V307H313.219ZM321.156 307.156C319.745 307.156 318.654 306.786 317.883 306.047C317.117 305.302 316.734 304.234 316.734 302.844C316.734 301.49 317.06 300.438 317.711 299.688C318.362 298.938 319.281 298.562 320.469 298.562C321.589 298.562 322.453 298.901 323.062 299.578C323.677 300.255 323.984 301.24 323.984 302.531C323.984 302.911 323.969 303.266 323.938 303.594H318.125V302.328H322.484C322.484 301.583 322.307 301.013 321.953 300.617C321.599 300.216 321.109 300.016 320.484 300.016C319.781 300.016 319.234 300.255 318.844 300.734C318.458 301.214 318.266 301.891 318.266 302.766C318.266 303.724 318.531 304.453 319.062 304.953C319.599 305.453 320.359 305.703 321.344 305.703C321.688 305.703 322.026 305.685 322.359 305.648C322.693 305.607 323.031 305.552 323.375 305.484L323.578 306.938C323.089 307.031 322.641 307.091 322.234 307.117C321.828 307.143 321.469 307.156 321.156 307.156ZM338.844 307.156C338.422 307.156 338 307.128 337.578 307.07C337.161 307.013 336.766 306.911 336.391 306.766C336.021 306.62 335.69 306.411 335.398 306.141L336.195 304.984C336.57 305.255 336.997 305.445 337.477 305.555C337.961 305.664 338.396 305.719 338.781 305.719C339.24 305.719 339.622 305.674 339.93 305.586C340.242 305.497 340.477 305.365 340.633 305.188C340.794 305.01 340.875 304.794 340.875 304.539C340.875 304.138 340.664 303.839 340.242 303.641C339.826 303.438 339.094 303.336 338.047 303.336H337.719L337.633 302.055H338.07C338.789 302.055 339.326 302.018 339.68 301.945C340.034 301.872 340.268 301.768 340.383 301.633C340.497 301.492 340.555 301.323 340.555 301.125C340.555 300.755 340.365 300.477 339.984 300.289C339.609 300.096 339.052 300 338.312 300C337.953 300 337.633 300.018 337.352 300.055C337.07 300.086 336.706 300.125 336.258 300.172L336.062 298.766C336.448 298.714 336.81 298.667 337.148 298.625C337.492 298.583 337.938 298.562 338.484 298.562C339.646 298.562 340.568 298.734 341.25 299.078C341.932 299.417 342.273 299.956 342.273 300.695C342.273 300.977 342.195 301.247 342.039 301.508C341.883 301.768 341.651 301.992 341.344 302.18C341.036 302.362 340.656 302.484 340.203 302.547V302.703C341.005 302.818 341.604 303.044 342 303.383C342.396 303.721 342.594 304.172 342.594 304.734C342.594 305.464 342.255 306.049 341.578 306.492C340.901 306.935 339.99 307.156 338.844 307.156ZM350.281 307V298.719H351.938V307H350.281ZM345.188 307V298.719H346.844V307H345.188ZM345.672 303.539V302.18H351.695V303.539H345.672ZM359.641 307.078L359.531 304.625L359.312 303.938V301.797C359.312 301.245 359.117 300.841 358.727 300.586C358.341 300.326 357.766 300.185 357 300.164L355.016 300.109L355.172 298.641L356.844 298.664C358.214 298.685 359.229 298.982 359.891 299.555C360.557 300.122 360.891 300.953 360.891 302.047V305.5L362.297 305.672V307L359.641 307.078ZM356.719 307.156C355.854 307.156 355.185 306.948 354.711 306.531C354.237 306.115 354 305.526 354 304.766C354 303.891 354.326 303.219 354.977 302.75C355.633 302.281 356.557 302.047 357.75 302.047C358.245 302.047 358.685 302.078 359.07 302.141C359.461 302.198 359.807 302.286 360.109 302.406L359.766 303.531C359.417 303.453 359.076 303.409 358.742 303.398C358.409 303.383 358.068 303.375 357.719 303.375C356.281 303.375 355.562 303.812 355.562 304.688C355.562 305.052 355.685 305.333 355.93 305.531C356.18 305.729 356.531 305.828 356.984 305.828C357.5 305.828 357.93 305.74 358.273 305.562C358.622 305.385 358.883 305.159 359.055 304.883C359.227 304.607 359.312 304.323 359.312 304.031V303.125L359.797 305.25H359.141L359.406 305C359.406 305.479 359.294 305.88 359.07 306.203C358.852 306.521 358.542 306.76 358.141 306.922C357.74 307.078 357.266 307.156 356.719 307.156ZM366.766 304.031C365.688 304.031 364.88 303.753 364.344 303.195C363.812 302.633 363.547 301.792 363.547 300.672V298.719H365.203V300.672C365.203 301.339 365.346 301.839 365.633 302.172C365.919 302.505 366.349 302.672 366.922 302.672H369.406V304.031H366.766ZM368.953 307V298.719H370.609V307H368.953ZM377.406 307.156C375.995 307.156 374.904 306.786 374.133 306.047C373.367 305.302 372.984 304.234 372.984 302.844C372.984 301.49 373.31 300.438 373.961 299.688C374.612 298.938 375.531 298.562 376.719 298.562C377.839 298.562 378.703 298.901 379.312 299.578C379.927 300.255 380.234 301.24 380.234 302.531C380.234 302.911 380.219 303.266 380.188 303.594H374.375V302.328H378.734C378.734 301.583 378.557 301.013 378.203 300.617C377.849 300.216 377.359 300.016 376.734 300.016C376.031 300.016 375.484 300.255 375.094 300.734C374.708 301.214 374.516 301.891 374.516 302.766C374.516 303.724 374.781 304.453 375.312 304.953C375.849 305.453 376.609 305.703 377.594 305.703C377.938 305.703 378.276 305.685 378.609 305.648C378.943 305.607 379.281 305.552 379.625 305.484L379.828 306.938C379.339 307.031 378.891 307.091 378.484 307.117C378.078 307.143 377.719 307.156 377.406 307.156ZM387.781 307V298.719H389.438V307H387.781ZM382.688 307V298.719H384.344V307H382.688ZM383.172 303.539V302.18H389.195V303.539H383.172ZM393.156 307V304.734H393.875L397.117 298.719H397.664V300.984H397L393.758 307H393.156ZM392.062 307V298.719H393.719V307H392.062ZM397.156 307V298.719H398.812V307H397.156ZM403.852 303.484C403.049 303.484 402.43 303.286 401.992 302.891C401.555 302.495 401.336 301.935 401.336 301.211C401.336 300.419 401.609 299.807 402.156 299.375C402.703 298.938 403.477 298.719 404.477 298.719H406.758V300.203H404.477C404.023 300.203 403.672 300.315 403.422 300.539C403.177 300.763 403.055 301.081 403.055 301.492C403.055 301.878 403.177 302.177 403.422 302.391C403.672 302.599 404.023 302.703 404.477 302.703H406.602L406.523 303.484H403.852ZM401.109 307.039V305.555H401.367C401.581 305.555 401.745 305.51 401.859 305.422C401.979 305.328 402.099 305.193 402.219 305.016L402.609 304.438C402.776 304.193 402.971 304.01 403.195 303.891C403.424 303.771 403.729 303.711 404.109 303.711H405.594L405.688 304.188C405.349 304.188 405.091 304.211 404.914 304.258C404.737 304.305 404.604 304.375 404.516 304.469C404.427 304.562 404.344 304.682 404.266 304.828L403.93 305.461C403.742 305.82 403.552 306.117 403.359 306.352C403.172 306.581 402.943 306.753 402.672 306.867C402.401 306.982 402.044 307.039 401.602 307.039H401.109ZM404.266 304.188V302.703H406.867V304.188H404.266ZM406.492 307V298.719H408.148V307H406.492ZM419.461 310.75L419.383 309.266L420.68 309.109C421.227 309.042 421.693 308.893 422.078 308.664C422.469 308.435 422.802 308.094 423.078 307.641C423.354 307.193 423.596 306.604 423.805 305.875L425.867 298.719H427.586L425.195 306.266C424.883 307.255 424.531 308.052 424.141 308.656C423.755 309.26 423.297 309.714 422.766 310.016C422.24 310.318 421.607 310.51 420.867 310.594L419.461 310.75ZM422.602 307L419.305 298.719H421.023L423.727 305.75H423.977V307H422.602ZM432.438 302.75L432.32 302.117C432.654 302.117 432.885 302.068 433.016 301.969C433.151 301.865 433.263 301.701 433.352 301.477L433.891 300.141C434.052 299.74 434.219 299.435 434.391 299.227C434.562 299.013 434.776 298.87 435.031 298.797C435.286 298.719 435.617 298.68 436.023 298.68H436.477V300.164H436.141C435.948 300.164 435.802 300.19 435.703 300.242C435.604 300.294 435.518 300.409 435.445 300.586L434.898 301.867C434.768 302.164 434.578 302.385 434.328 302.531C434.083 302.677 433.75 302.75 433.328 302.75H432.438ZM429.484 307V298.719H431.141V307H429.484ZM431.023 303.602V302.117H433.32V303.602H431.023ZM436.102 307.039C435.695 307.039 435.357 307.003 435.086 306.93C434.82 306.852 434.594 306.708 434.406 306.5C434.224 306.286 434.052 305.979 433.891 305.578L433.352 304.242C433.263 304.018 433.151 303.857 433.016 303.758C432.885 303.654 432.654 303.602 432.32 303.602L432.438 302.969H433.406C434.25 302.969 434.799 303.263 435.055 303.852L435.602 305.133C435.674 305.31 435.76 305.424 435.859 305.477C435.958 305.529 436.104 305.555 436.297 305.555H436.555V307.039H436.102ZM444.016 307.078L443.906 304.625L443.688 303.938V301.797C443.688 301.245 443.492 300.841 443.102 300.586C442.716 300.326 442.141 300.185 441.375 300.164L439.391 300.109L439.547 298.641L441.219 298.664C442.589 298.685 443.604 298.982 444.266 299.555C444.932 300.122 445.266 300.953 445.266 302.047V305.5L446.672 305.672V307L444.016 307.078ZM441.094 307.156C440.229 307.156 439.56 306.948 439.086 306.531C438.612 306.115 438.375 305.526 438.375 304.766C438.375 303.891 438.701 303.219 439.352 302.75C440.008 302.281 440.932 302.047 442.125 302.047C442.62 302.047 443.06 302.078 443.445 302.141C443.836 302.198 444.182 302.286 444.484 302.406L444.141 303.531C443.792 303.453 443.451 303.409 443.117 303.398C442.784 303.383 442.443 303.375 442.094 303.375C440.656 303.375 439.938 303.812 439.938 304.688C439.938 305.052 440.06 305.333 440.305 305.531C440.555 305.729 440.906 305.828 441.359 305.828C441.875 305.828 442.305 305.74 442.648 305.562C442.997 305.385 443.258 305.159 443.43 304.883C443.602 304.607 443.688 304.323 443.688 304.031V303.125L444.172 305.25H443.516L443.781 305C443.781 305.479 443.669 305.88 443.445 306.203C443.227 306.521 442.917 306.76 442.516 306.922C442.115 307.078 441.641 307.156 441.094 307.156ZM451.344 307.156C450.922 307.156 450.5 307.128 450.078 307.07C449.661 307.013 449.266 306.911 448.891 306.766C448.521 306.62 448.19 306.411 447.898 306.141L448.695 304.984C449.07 305.255 449.497 305.445 449.977 305.555C450.461 305.664 450.896 305.719 451.281 305.719C451.74 305.719 452.122 305.674 452.43 305.586C452.742 305.497 452.977 305.365 453.133 305.188C453.294 305.01 453.375 304.794 453.375 304.539C453.375 304.138 453.164 303.839 452.742 303.641C452.326 303.438 451.594 303.336 450.547 303.336H450.219L450.133 302.055H450.57C451.289 302.055 451.826 302.018 452.18 301.945C452.534 301.872 452.768 301.768 452.883 301.633C452.997 301.492 453.055 301.323 453.055 301.125C453.055 300.755 452.865 300.477 452.484 300.289C452.109 300.096 451.552 300 450.812 300C450.453 300 450.133 300.018 449.852 300.055C449.57 300.086 449.206 300.125 448.758 300.172L448.562 298.766C448.948 298.714 449.31 298.667 449.648 298.625C449.992 298.583 450.438 298.562 450.984 298.562C452.146 298.562 453.068 298.734 453.75 299.078C454.432 299.417 454.773 299.956 454.773 300.695C454.773 300.977 454.695 301.247 454.539 301.508C454.383 301.768 454.151 301.992 453.844 302.18C453.536 302.362 453.156 302.484 452.703 302.547V302.703C453.505 302.818 454.104 303.044 454.5 303.383C454.896 303.721 455.094 304.172 455.094 304.734C455.094 305.464 454.755 306.049 454.078 306.492C453.401 306.935 452.49 307.156 451.344 307.156ZM462.766 307.078L462.656 304.625L462.438 303.938V301.797C462.438 301.245 462.242 300.841 461.852 300.586C461.466 300.326 460.891 300.185 460.125 300.164L458.141 300.109L458.297 298.641L459.969 298.664C461.339 298.685 462.354 298.982 463.016 299.555C463.682 300.122 464.016 300.953 464.016 302.047V305.5L465.422 305.672V307L462.766 307.078ZM459.844 307.156C458.979 307.156 458.31 306.948 457.836 306.531C457.362 306.115 457.125 305.526 457.125 304.766C457.125 303.891 457.451 303.219 458.102 302.75C458.758 302.281 459.682 302.047 460.875 302.047C461.37 302.047 461.81 302.078 462.195 302.141C462.586 302.198 462.932 302.286 463.234 302.406L462.891 303.531C462.542 303.453 462.201 303.409 461.867 303.398C461.534 303.383 461.193 303.375 460.844 303.375C459.406 303.375 458.688 303.812 458.688 304.688C458.688 305.052 458.81 305.333 459.055 305.531C459.305 305.729 459.656 305.828 460.109 305.828C460.625 305.828 461.055 305.74 461.398 305.562C461.747 305.385 462.008 305.159 462.18 304.883C462.352 304.607 462.438 304.323 462.438 304.031V303.125L462.922 305.25H462.266L462.531 305C462.531 305.479 462.419 305.88 462.195 306.203C461.977 306.521 461.667 306.76 461.266 306.922C460.865 307.078 460.391 307.156 459.844 307.156ZM472.156 307V298.719H473.812V307H472.156ZM467.062 307V298.719H468.719V307H467.062ZM467.547 303.539V302.18H473.57V303.539H467.547ZM477.547 307V305.672H478.164C478.581 305.672 478.904 305.544 479.133 305.289C479.362 305.034 479.477 304.672 479.477 304.203C479.477 303.734 479.362 303.372 479.133 303.117C478.904 302.862 478.581 302.734 478.164 302.734H477.391V301.406H478.383C479.206 301.406 479.841 301.651 480.289 302.141C480.737 302.625 480.961 303.312 480.961 304.203C480.961 305.094 480.737 305.784 480.289 306.273C479.841 306.758 479.206 307 478.383 307H477.547ZM476 307V298.719H477.656V307H476ZM481.969 307V298.719H483.625V307H481.969ZM500.281 307V298.719H501.938V307H500.281ZM495.188 307V298.719H496.844V307H495.188ZM495.672 303.539V302.18H501.695V303.539H495.672ZM505.656 307V304.734H506.375L509.617 298.719H510.164V300.984H509.5L506.258 307H505.656ZM504.562 307V298.719H506.219V307H504.562ZM509.656 307V298.719H511.312V307H509.656ZM518.922 302.812V302.18C519.203 302.18 519.365 302.133 519.406 302.039C519.453 301.945 519.477 301.755 519.477 301.469V300.141C519.477 299.615 519.62 299.234 519.906 299C520.193 298.76 520.604 298.641 521.141 298.641H521.711V300.125H521.375C521.26 300.125 521.154 300.161 521.055 300.234C520.961 300.302 520.914 300.419 520.914 300.586V301.633C520.914 301.966 520.805 302.227 520.586 302.414C520.367 302.602 520.099 302.708 519.781 302.734L518.922 302.812ZM512.914 307.078V305.594H513.25C513.37 305.594 513.477 305.557 513.57 305.484C513.664 305.411 513.711 305.294 513.711 305.133V304.086C513.711 303.747 513.82 303.487 514.039 303.305C514.258 303.117 514.526 303.01 514.844 302.984L515.703 302.906V303.539C515.422 303.539 515.258 303.586 515.211 303.68C515.169 303.773 515.148 303.964 515.148 304.25V305.578C515.148 306.104 515.005 306.487 514.719 306.727C514.438 306.961 514.026 307.078 513.484 307.078H512.914ZM515.141 303.539V302.18H516.727V303.539H515.141ZM515.703 302.812L514.844 302.734C514.526 302.708 514.258 302.602 514.039 302.414C513.82 302.227 513.711 301.966 513.711 301.633V300.586C513.711 300.419 513.664 300.302 513.57 300.234C513.477 300.161 513.37 300.125 513.25 300.125H512.914V298.641H513.484C514.026 298.641 514.438 298.76 514.719 299C515.005 299.234 515.148 299.615 515.148 300.141V301.469C515.148 301.755 515.169 301.945 515.211 302.039C515.258 302.133 515.422 302.18 515.703 302.18V302.812ZM516.602 307V298.719H518.008V307H516.602ZM521.141 307.078C520.604 307.078 520.193 306.961 519.906 306.727C519.62 306.487 519.477 306.104 519.477 305.578V304.25C519.477 303.964 519.453 303.773 519.406 303.68C519.365 303.586 519.203 303.539 518.922 303.539V302.906L519.781 302.984C520.099 303.01 520.367 303.117 520.586 303.305C520.805 303.487 520.914 303.747 520.914 304.086V305.133C520.914 305.294 520.961 305.411 521.055 305.484C521.154 305.557 521.26 305.594 521.375 305.594H521.711V307.078H521.141ZM517.852 303.539V302.18H519.484V303.539H517.852ZM527.406 307.156C525.995 307.156 524.904 306.786 524.133 306.047C523.367 305.302 522.984 304.234 522.984 302.844C522.984 301.49 523.31 300.438 523.961 299.688C524.612 298.938 525.531 298.562 526.719 298.562C527.839 298.562 528.703 298.901 529.312 299.578C529.927 300.255 530.234 301.24 530.234 302.531C530.234 302.911 530.219 303.266 530.188 303.594H524.375V302.328H528.734C528.734 301.583 528.557 301.013 528.203 300.617C527.849 300.216 527.359 300.016 526.734 300.016C526.031 300.016 525.484 300.255 525.094 300.734C524.708 301.214 524.516 301.891 524.516 302.766C524.516 303.724 524.781 304.453 525.312 304.953C525.849 305.453 526.609 305.703 527.594 305.703C527.938 305.703 528.276 305.685 528.609 305.648C528.943 305.607 529.281 305.552 529.625 305.484L529.828 306.938C529.339 307.031 528.891 307.091 528.484 307.117C528.078 307.143 527.719 307.156 527.406 307.156Z" fill="#E1E1FF"/>
</g>
<defs>
<clipPath id="clip0_50_2761">
<rect x="48" y="86" width="512" height="245" rx="12" fill="white"/>
</clipPath>
<clipPath id="clip1_50_2761">
<rect width="24" height="24" fill="white" transform="translate(72 110)"/>
</clipPath>
<clipPath id="clip2_50_2761">
<rect width="24" height="24" fill="white" transform="translate(72 259)"/>
</clipPath>
</defs>
</svg>
