<svg width="432" height="472" viewBox="0 0 432 472" fill="none" xmlns="http://www.w3.org/2000/svg">
<rect width="432" height="472" rx="16" fill="#181925"/>
<path d="M107.22 100.24C107.22 100.947 107.053 101.613 106.72 102.24C106.387 102.867 105.853 103.38 105.12 103.78C104.387 104.167 103.447 104.36 102.3 104.36H99.78V110H97.5V96.1H102.3C103.367 96.1 104.267 96.2867 105 96.66C105.747 97.02 106.3 97.5133 106.66 98.14C107.033 98.7667 107.22 99.4667 107.22 100.24ZM102.3 102.5C103.167 102.5 103.813 102.307 104.24 101.92C104.667 101.52 104.88 100.96 104.88 100.24C104.88 98.72 104.02 97.96 102.3 97.96H99.78V102.5H102.3ZM111.655 96.1V104.96C111.655 106.013 111.928 106.807 112.475 107.34C113.035 107.873 113.808 108.14 114.795 108.14C115.795 108.14 116.568 107.873 117.115 107.34C117.675 106.807 117.955 106.013 117.955 104.96V96.1H120.235V104.92C120.235 106.053 119.988 107.013 119.495 107.8C119.001 108.587 118.341 109.173 117.515 109.56C116.688 109.947 115.775 110.14 114.775 110.14C113.775 110.14 112.861 109.947 112.035 109.56C111.221 109.173 110.575 108.587 110.095 107.8C109.615 107.013 109.375 106.053 109.375 104.92V96.1H111.655ZM125.483 96.1V110H123.203V96.1H125.483ZM133.017 96.1C134.497 96.1 135.79 96.3867 136.897 96.96C138.017 97.52 138.877 98.3333 139.477 99.4C140.09 100.453 140.397 101.687 140.397 103.1C140.397 104.513 140.09 105.74 139.477 106.78C138.877 107.82 138.017 108.62 136.897 109.18C135.79 109.727 134.497 110 133.017 110H128.477V96.1H133.017ZM133.017 108.14C134.643 108.14 135.89 107.7 136.757 106.82C137.623 105.94 138.057 104.7 138.057 103.1C138.057 101.487 137.623 100.227 136.757 99.32C135.89 98.4133 134.643 97.96 133.017 97.96H130.757V108.14H133.017ZM147.092 103.02C147.092 101.66 147.405 100.44 148.032 99.36C148.672 98.28 149.532 97.44 150.612 96.84C151.705 96.2267 152.898 95.92 154.192 95.92C155.672 95.92 156.985 96.2867 158.132 97.02C159.292 97.74 160.132 98.7667 160.652 100.1H157.912C157.552 99.3667 157.052 98.82 156.412 98.46C155.772 98.1 155.032 97.92 154.192 97.92C153.272 97.92 152.452 98.1267 151.732 98.54C151.012 98.9533 150.445 99.5467 150.032 100.32C149.632 101.093 149.432 101.993 149.432 103.02C149.432 104.047 149.632 104.947 150.032 105.72C150.445 106.493 151.012 107.093 151.732 107.52C152.452 107.933 153.272 108.14 154.192 108.14C155.032 108.14 155.772 107.96 156.412 107.6C157.052 107.24 157.552 106.693 157.912 105.96H160.652C160.132 107.293 159.292 108.32 158.132 109.04C156.985 109.76 155.672 110.12 154.192 110.12C152.885 110.12 151.692 109.82 150.612 109.22C149.532 108.607 148.672 107.76 148.032 106.68C147.405 105.6 147.092 104.38 147.092 103.02ZM162.56 104.44C162.56 103.333 162.787 102.353 163.24 101.5C163.707 100.647 164.334 99.9867 165.12 99.52C165.92 99.04 166.8 98.8 167.76 98.8C168.627 98.8 169.38 98.9733 170.02 99.32C170.674 99.6533 171.194 100.073 171.58 100.58V98.98H173.88V110H171.58V108.36C171.194 108.88 170.667 109.313 170 109.66C169.334 110.007 168.574 110.18 167.72 110.18C166.774 110.18 165.907 109.94 165.12 109.46C164.334 108.967 163.707 108.287 163.24 107.42C162.787 106.54 162.56 105.547 162.56 104.44ZM171.58 104.48C171.58 103.72 171.42 103.06 171.1 102.5C170.794 101.94 170.387 101.513 169.88 101.22C169.374 100.927 168.827 100.78 168.24 100.78C167.654 100.78 167.107 100.927 166.6 101.22C166.094 101.5 165.68 101.92 165.36 102.48C165.054 103.027 164.9 103.68 164.9 104.44C164.9 105.2 165.054 105.867 165.36 106.44C165.68 107.013 166.094 107.453 166.6 107.76C167.12 108.053 167.667 108.2 168.24 108.2C168.827 108.2 169.374 108.053 169.88 107.76C170.387 107.467 170.794 107.04 171.1 106.48C171.42 105.907 171.58 105.24 171.58 104.48ZM179.535 100.84V106.94C179.535 107.353 179.628 107.653 179.815 107.84C180.015 108.013 180.348 108.1 180.815 108.1H182.215V110H180.415C179.388 110 178.602 109.76 178.055 109.28C177.508 108.8 177.235 108.02 177.235 106.94V100.84H175.935V98.98H177.235V96.24H179.535V98.98H182.215V100.84H179.535ZM194.416 104.22C194.416 104.633 194.39 105.007 194.336 105.34H185.916C185.983 106.22 186.31 106.927 186.896 107.46C187.483 107.993 188.203 108.26 189.056 108.26C190.283 108.26 191.15 107.747 191.656 106.72H194.116C193.783 107.733 193.176 108.567 192.296 109.22C191.43 109.86 190.35 110.18 189.056 110.18C188.003 110.18 187.056 109.947 186.216 109.48C185.39 109 184.736 108.333 184.256 107.48C183.79 106.613 183.556 105.613 183.556 104.48C183.556 103.347 183.783 102.353 184.236 101.5C184.703 100.633 185.35 99.9667 186.176 99.5C187.016 99.0333 187.976 98.8 189.056 98.8C190.096 98.8 191.023 99.0267 191.836 99.48C192.65 99.9333 193.283 100.573 193.736 101.4C194.19 102.213 194.416 103.153 194.416 104.22ZM192.036 103.5C192.023 102.66 191.723 101.987 191.136 101.48C190.55 100.973 189.823 100.72 188.956 100.72C188.17 100.72 187.496 100.973 186.936 101.48C186.376 101.973 186.043 102.647 185.936 103.5H192.036ZM201.1 98.8C201.953 98.8 202.707 98.9733 203.36 99.32C204.027 99.6533 204.547 100.073 204.92 100.58V98.98H207.22V110.18C207.22 111.193 207.007 112.093 206.58 112.88C206.153 113.68 205.533 114.307 204.72 114.76C203.92 115.213 202.96 115.44 201.84 115.44C200.347 115.44 199.107 115.087 198.12 114.38C197.133 113.687 196.573 112.74 196.44 111.54H198.7C198.873 112.113 199.24 112.573 199.8 112.92C200.373 113.28 201.053 113.46 201.84 113.46C202.76 113.46 203.5 113.18 204.06 112.62C204.633 112.06 204.92 111.247 204.92 110.18V108.34C204.533 108.86 204.007 109.3 203.34 109.66C202.687 110.007 201.94 110.18 201.1 110.18C200.14 110.18 199.26 109.94 198.46 109.46C197.673 108.967 197.047 108.287 196.58 107.42C196.127 106.54 195.9 105.547 195.9 104.44C195.9 103.333 196.127 102.353 196.58 101.5C197.047 100.647 197.673 99.9867 198.46 99.52C199.26 99.04 200.14 98.8 201.1 98.8ZM204.92 104.48C204.92 103.72 204.76 103.06 204.44 102.5C204.133 101.94 203.727 101.513 203.22 101.22C202.713 100.927 202.167 100.78 201.58 100.78C200.993 100.78 200.447 100.927 199.94 101.22C199.433 101.5 199.02 101.92 198.7 102.48C198.393 103.027 198.24 103.68 198.24 104.44C198.24 105.2 198.393 105.867 198.7 106.44C199.02 107.013 199.433 107.453 199.94 107.76C200.46 108.053 201.007 108.2 201.58 108.2C202.167 108.2 202.713 108.053 203.22 107.76C203.727 107.467 204.133 107.04 204.44 106.48C204.76 105.907 204.92 105.24 204.92 104.48ZM214.995 110.18C213.955 110.18 213.015 109.947 212.175 109.48C211.335 109 210.675 108.333 210.195 107.48C209.715 106.613 209.475 105.613 209.475 104.48C209.475 103.36 209.722 102.367 210.215 101.5C210.708 100.633 211.382 99.9667 212.235 99.5C213.088 99.0333 214.042 98.8 215.095 98.8C216.148 98.8 217.102 99.0333 217.955 99.5C218.808 99.9667 219.482 100.633 219.975 101.5C220.468 102.367 220.715 103.36 220.715 104.48C220.715 105.6 220.462 106.593 219.955 107.46C219.448 108.327 218.755 109 217.875 109.48C217.008 109.947 216.048 110.18 214.995 110.18ZM214.995 108.2C215.582 108.2 216.128 108.06 216.635 107.78C217.155 107.5 217.575 107.08 217.895 106.52C218.215 105.96 218.375 105.28 218.375 104.48C218.375 103.68 218.222 103.007 217.915 102.46C217.608 101.9 217.202 101.48 216.695 101.2C216.188 100.92 215.642 100.78 215.055 100.78C214.468 100.78 213.922 100.92 213.415 101.2C212.922 101.48 212.528 101.9 212.235 102.46C211.942 103.007 211.795 103.68 211.795 104.48C211.795 105.667 212.095 106.587 212.695 107.24C213.308 107.88 214.075 108.2 214.995 108.2ZM225.249 100.58C225.582 100.02 226.022 99.5867 226.569 99.28C227.129 98.96 227.789 98.8 228.549 98.8V101.16H227.969C227.075 101.16 226.395 101.387 225.929 101.84C225.475 102.293 225.249 103.08 225.249 104.2V110H222.969V98.98H225.249V100.58ZM231.805 97.52C231.391 97.52 231.045 97.38 230.765 97.1C230.485 96.82 230.345 96.4733 230.345 96.06C230.345 95.6467 230.485 95.3 230.765 95.02C231.045 94.74 231.391 94.6 231.805 94.6C232.205 94.6 232.545 94.74 232.825 95.02C233.105 95.3 233.245 95.6467 233.245 96.06C233.245 96.4733 233.105 96.82 232.825 97.1C232.545 97.38 232.205 97.52 231.805 97.52ZM232.925 98.98V110H230.645V98.98H232.925ZM246.018 104.22C246.018 104.633 245.991 105.007 245.938 105.34H237.518C237.585 106.22 237.911 106.927 238.498 107.46C239.085 107.993 239.805 108.26 240.658 108.26C241.885 108.26 242.751 107.747 243.258 106.72H245.718C245.385 107.733 244.778 108.567 243.898 109.22C243.031 109.86 241.951 110.18 240.658 110.18C239.605 110.18 238.658 109.947 237.818 109.48C236.991 109 236.338 108.333 235.858 107.48C235.391 106.613 235.158 105.613 235.158 104.48C235.158 103.347 235.385 102.353 235.838 101.5C236.305 100.633 236.951 99.9667 237.778 99.5C238.618 99.0333 239.578 98.8 240.658 98.8C241.698 98.8 242.625 99.0267 243.438 99.48C244.251 99.9333 244.885 100.573 245.338 101.4C245.791 102.213 246.018 103.153 246.018 104.22ZM243.638 103.5C243.625 102.66 243.325 101.987 242.738 101.48C242.151 100.973 241.425 100.72 240.558 100.72C239.771 100.72 239.098 100.973 238.538 101.48C237.978 101.973 237.645 102.647 237.538 103.5H243.638ZM252.262 110.18C251.395 110.18 250.615 110.027 249.922 109.72C249.242 109.4 248.702 108.973 248.302 108.44C247.902 107.893 247.688 107.287 247.662 106.62H250.022C250.062 107.087 250.282 107.48 250.682 107.8C251.095 108.107 251.608 108.26 252.222 108.26C252.862 108.26 253.355 108.14 253.702 107.9C254.062 107.647 254.242 107.327 254.242 106.94C254.242 106.527 254.042 106.22 253.642 106.02C253.255 105.82 252.635 105.6 251.782 105.36C250.955 105.133 250.282 104.913 249.762 104.7C249.242 104.487 248.788 104.16 248.402 103.72C248.028 103.28 247.842 102.7 247.842 101.98C247.842 101.393 248.015 100.86 248.362 100.38C248.708 99.8867 249.202 99.5 249.842 99.22C250.495 98.94 251.242 98.8 252.082 98.8C253.335 98.8 254.342 99.12 255.102 99.76C255.875 100.387 256.288 101.247 256.342 102.34H254.062C254.022 101.847 253.822 101.453 253.462 101.16C253.102 100.867 252.615 100.72 252.002 100.72C251.402 100.72 250.942 100.833 250.622 101.06C250.302 101.287 250.142 101.587 250.142 101.96C250.142 102.253 250.248 102.5 250.462 102.7C250.675 102.9 250.935 103.06 251.242 103.18C251.548 103.287 252.002 103.427 252.602 103.6C253.402 103.813 254.055 104.033 254.562 104.26C255.082 104.473 255.528 104.793 255.902 105.22C256.275 105.647 256.468 106.213 256.482 106.92C256.482 107.547 256.308 108.107 255.962 108.6C255.615 109.093 255.122 109.48 254.482 109.76C253.855 110.04 253.115 110.18 252.262 110.18Z" fill="#E1E1FF"/>
<g clip-path="url(#clip0_187_101)">
<rect x="96" y="134" width="49" height="37" rx="6" fill="#32354E"/>
<path d="M113.031 161.234C109.312 161.234 107.453 158.422 107.453 152.797C107.453 147.016 109.312 144.125 113.031 144.125C116.75 144.125 118.609 147.016 118.609 152.797C118.609 158.422 116.75 161.234 113.031 161.234ZM113.031 154.355C112.562 154.355 112.184 154.215 111.895 153.934C111.613 153.645 111.473 153.266 111.473 152.797C111.473 152.328 111.613 151.953 111.895 151.672C112.184 151.383 112.562 151.238 113.031 151.238C113.5 151.238 113.875 151.383 114.156 151.672C114.445 151.953 114.59 152.328 114.59 152.797C114.59 153.266 114.445 153.645 114.156 153.934C113.875 154.215 113.5 154.355 113.031 154.355ZM113.031 159.441C115.398 159.441 116.582 157.227 116.582 152.797C116.582 148.211 115.398 145.918 113.031 145.918C110.664 145.918 109.48 148.211 109.48 152.797C109.48 157.227 110.664 159.441 113.031 159.441ZM127.094 161.234C123.375 161.234 121.516 158.422 121.516 152.797C121.516 147.016 123.375 144.125 127.094 144.125C130.812 144.125 132.672 147.016 132.672 152.797C132.672 158.422 130.812 161.234 127.094 161.234ZM127.094 154.355C126.625 154.355 126.246 154.215 125.957 153.934C125.676 153.645 125.535 153.266 125.535 152.797C125.535 152.328 125.676 151.953 125.957 151.672C126.246 151.383 126.625 151.238 127.094 151.238C127.562 151.238 127.938 151.383 128.219 151.672C128.508 151.953 128.652 152.328 128.652 152.797C128.652 153.266 128.508 153.645 128.219 153.934C127.938 154.215 127.562 154.355 127.094 154.355ZM127.094 159.441C129.461 159.441 130.645 157.227 130.645 152.797C130.645 148.211 129.461 145.918 127.094 145.918C124.727 145.918 123.543 148.211 123.543 152.797C123.543 157.227 124.727 159.441 127.094 159.441Z" fill="#E1E1FF"/>
<path d="M162.266 153.594V151.789H173.797V153.594H162.266Z" fill="#E1E1FF"/>
<path d="M195.984 144.272V154.856C195.984 156.344 196.344 157.448 197.064 158.168C197.8 158.888 198.816 159.248 200.112 159.248C201.392 159.248 202.392 158.888 203.112 158.168C203.848 157.448 204.216 156.344 204.216 154.856V144.272H206.4V154.832C206.4 156.224 206.12 157.4 205.56 158.36C205 159.304 204.24 160.008 203.28 160.472C202.336 160.936 201.272 161.168 200.088 161.168C198.904 161.168 197.832 160.936 196.872 160.472C195.928 160.008 195.176 159.304 194.616 158.36C194.072 157.4 193.8 156.224 193.8 154.832V144.272H195.984ZM216.451 147.608C218.051 147.608 219.347 148.096 220.339 149.072C221.331 150.032 221.827 151.424 221.827 153.248V161H219.667V153.56C219.667 152.248 219.339 151.248 218.683 150.56C218.027 149.856 217.131 149.504 215.995 149.504C214.843 149.504 213.923 149.864 213.235 150.584C212.563 151.304 212.227 152.352 212.227 153.728V161H210.043V147.848H212.227V149.72C212.659 149.048 213.243 148.528 213.979 148.16C214.731 147.792 215.555 147.608 216.451 147.608ZM232.739 161L227.579 155.192V161H225.395V143.24H227.579V153.68L232.643 147.848H235.691L229.499 154.4L235.715 161H232.739ZM244.154 147.608C245.754 147.608 247.05 148.096 248.042 149.072C249.034 150.032 249.53 151.424 249.53 153.248V161H247.37V153.56C247.37 152.248 247.042 151.248 246.386 150.56C245.73 149.856 244.834 149.504 243.698 149.504C242.546 149.504 241.626 149.864 240.938 150.584C240.266 151.304 239.93 152.352 239.93 153.728V161H237.746V147.848H239.93V149.72C240.362 149.048 240.946 148.528 241.682 148.16C242.434 147.792 243.258 147.608 244.154 147.608ZM258.834 161.216C257.602 161.216 256.482 160.936 255.474 160.376C254.482 159.816 253.698 159.024 253.122 158C252.562 156.96 252.282 155.76 252.282 154.4C252.282 153.056 252.57 151.872 253.146 150.848C253.738 149.808 254.538 149.016 255.546 148.472C256.554 147.912 257.682 147.632 258.93 147.632C260.178 147.632 261.306 147.912 262.314 148.472C263.322 149.016 264.114 149.8 264.69 150.824C265.282 151.848 265.578 153.04 265.578 154.4C265.578 155.76 265.274 156.96 264.666 158C264.074 159.024 263.266 159.816 262.242 160.376C261.218 160.936 260.082 161.216 258.834 161.216ZM258.834 159.296C259.618 159.296 260.354 159.112 261.042 158.744C261.73 158.376 262.282 157.824 262.698 157.088C263.13 156.352 263.346 155.456 263.346 154.4C263.346 153.344 263.138 152.448 262.722 151.712C262.306 150.976 261.762 150.432 261.09 150.08C260.418 149.712 259.69 149.528 258.906 149.528C258.106 149.528 257.37 149.712 256.698 150.08C256.042 150.432 255.514 150.976 255.114 151.712C254.714 152.448 254.514 153.344 254.514 154.4C254.514 155.472 254.706 156.376 255.09 157.112C255.49 157.848 256.018 158.4 256.674 158.768C257.33 159.12 258.05 159.296 258.834 159.296ZM285.97 147.848L281.866 161H279.61L276.442 150.56L273.274 161H271.018L266.89 147.848H269.122L272.146 158.888L275.41 147.848H277.642L280.834 158.912L283.81 147.848H285.97ZM294.545 147.608C296.145 147.608 297.441 148.096 298.433 149.072C299.425 150.032 299.921 151.424 299.921 153.248V161H297.761V153.56C297.761 152.248 297.433 151.248 296.777 150.56C296.121 149.856 295.225 149.504 294.089 149.504C292.937 149.504 292.017 149.864 291.329 150.584C290.657 151.304 290.321 152.352 290.321 153.728V161H288.137V147.848H290.321V149.72C290.753 149.048 291.337 148.528 292.073 148.16C292.825 147.792 293.649 147.608 294.545 147.608Z" fill="#E1E1FF"/>
</g>
<g clip-path="url(#clip1_187_101)">
<rect x="96" y="175" width="49" height="37" rx="6" fill="#32354E"/>
<path d="M113.031 202.234C109.312 202.234 107.453 199.422 107.453 193.797C107.453 188.016 109.312 185.125 113.031 185.125C116.75 185.125 118.609 188.016 118.609 193.797C118.609 199.422 116.75 202.234 113.031 202.234ZM113.031 195.355C112.562 195.355 112.184 195.215 111.895 194.934C111.613 194.645 111.473 194.266 111.473 193.797C111.473 193.328 111.613 192.953 111.895 192.672C112.184 192.383 112.562 192.238 113.031 192.238C113.5 192.238 113.875 192.383 114.156 192.672C114.445 192.953 114.59 193.328 114.59 193.797C114.59 194.266 114.445 194.645 114.156 194.934C113.875 195.215 113.5 195.355 113.031 195.355ZM113.031 200.441C115.398 200.441 116.582 198.227 116.582 193.797C116.582 189.211 115.398 186.918 113.031 186.918C110.664 186.918 109.48 189.211 109.48 193.797C109.48 198.227 110.664 200.441 113.031 200.441ZM126.484 202V185.359H128.406V202H126.484ZM122.148 202V200.172H126.719V202H122.148ZM128.172 202V200.172H132.297V202H128.172ZM122.383 188.699V186.766L126.484 185.359V187.34L122.383 188.699Z" fill="#E1E1FF"/>
<path d="M162.266 194.594V192.789H173.797V194.594H162.266Z" fill="#E1E1FF"/>
<path d="M206.52 190.12C206.056 189.144 205.384 188.392 204.504 187.864C203.624 187.32 202.6 187.048 201.432 187.048C200.264 187.048 199.208 187.32 198.264 187.864C197.336 188.392 196.6 189.16 196.056 190.168C195.528 191.16 195.264 192.312 195.264 193.624C195.264 194.936 195.528 196.088 196.056 197.08C196.6 198.072 197.336 198.84 198.264 199.384C199.208 199.912 200.264 200.176 201.432 200.176C203.064 200.176 204.408 199.688 205.464 198.712C206.52 197.736 207.136 196.416 207.312 194.752H200.64V192.976H209.64V194.656C209.512 196.032 209.08 197.296 208.344 198.448C207.608 199.584 206.64 200.488 205.44 201.16C204.24 201.816 202.904 202.144 201.432 202.144C199.88 202.144 198.464 201.784 197.184 201.064C195.904 200.328 194.888 199.312 194.136 198.016C193.4 196.72 193.032 195.256 193.032 193.624C193.032 191.992 193.4 190.528 194.136 189.232C194.888 187.92 195.904 186.904 197.184 186.184C198.464 185.448 199.88 185.08 201.432 185.08C203.208 185.08 204.776 185.52 206.136 186.4C207.512 187.28 208.512 188.52 209.136 190.12H206.52ZM214.712 190.984C215.096 190.232 215.64 189.648 216.344 189.232C217.064 188.816 217.936 188.608 218.96 188.608V190.864H218.384C215.936 190.864 214.712 192.192 214.712 194.848V202H212.528V188.848H214.712V190.984ZM227.217 202.216C225.985 202.216 224.865 201.936 223.857 201.376C222.865 200.816 222.081 200.024 221.505 199C220.945 197.96 220.665 196.76 220.665 195.4C220.665 194.056 220.953 192.872 221.529 191.848C222.121 190.808 222.921 190.016 223.929 189.472C224.937 188.912 226.065 188.632 227.313 188.632C228.561 188.632 229.689 188.912 230.697 189.472C231.705 190.016 232.497 190.8 233.073 191.824C233.665 192.848 233.961 194.04 233.961 195.4C233.961 196.76 233.657 197.96 233.049 199C232.457 200.024 231.649 200.816 230.625 201.376C229.601 201.936 228.465 202.216 227.217 202.216ZM227.217 200.296C228.001 200.296 228.737 200.112 229.425 199.744C230.113 199.376 230.665 198.824 231.081 198.088C231.513 197.352 231.729 196.456 231.729 195.4C231.729 194.344 231.521 193.448 231.105 192.712C230.689 191.976 230.145 191.432 229.473 191.08C228.801 190.712 228.073 190.528 227.289 190.528C226.489 190.528 225.753 190.712 225.081 191.08C224.425 191.432 223.897 191.976 223.497 192.712C223.097 193.448 222.897 194.344 222.897 195.4C222.897 196.472 223.089 197.376 223.473 198.112C223.873 198.848 224.401 199.4 225.057 199.768C225.713 200.12 226.433 200.296 227.217 200.296ZM248.496 188.848V202H246.312V200.056C245.896 200.728 245.312 201.256 244.56 201.64C243.824 202.008 243.008 202.192 242.112 202.192C241.088 202.192 240.168 201.984 239.352 201.568C238.536 201.136 237.888 200.496 237.408 199.648C236.944 198.8 236.712 197.768 236.712 196.552V188.848H238.872V196.264C238.872 197.56 239.2 198.56 239.856 199.264C240.512 199.952 241.408 200.296 242.544 200.296C243.712 200.296 244.632 199.936 245.304 199.216C245.976 198.496 246.312 197.448 246.312 196.072V188.848H248.496ZM254.368 191.272C254.8 190.52 255.44 189.896 256.288 189.4C257.152 188.888 258.152 188.632 259.288 188.632C260.456 188.632 261.512 188.912 262.456 189.472C263.416 190.032 264.168 190.824 264.712 191.848C265.256 192.856 265.528 194.032 265.528 195.376C265.528 196.704 265.256 197.888 264.712 198.928C264.168 199.968 263.416 200.776 262.456 201.352C261.512 201.928 260.456 202.216 259.288 202.216C258.168 202.216 257.176 201.968 256.312 201.472C255.464 200.96 254.816 200.328 254.368 199.576V208.24H252.184V188.848H254.368V191.272ZM263.296 195.376C263.296 194.384 263.096 193.52 262.696 192.784C262.296 192.048 261.752 191.488 261.064 191.104C260.392 190.72 259.648 190.528 258.832 190.528C258.032 190.528 257.288 190.728 256.6 191.128C255.928 191.512 255.384 192.08 254.968 192.832C254.568 193.568 254.368 194.424 254.368 195.4C254.368 196.392 254.568 197.264 254.968 198.016C255.384 198.752 255.928 199.32 256.6 199.72C257.288 200.104 258.032 200.296 258.832 200.296C259.648 200.296 260.392 200.104 261.064 199.72C261.752 199.32 262.296 198.752 262.696 198.016C263.096 197.264 263.296 196.384 263.296 195.376Z" fill="#E1E1FF"/>
</g>
<g clip-path="url(#clip2_187_101)">
<rect x="96" y="216" width="49" height="37" rx="6" fill="#32354E"/>
<path d="M113.031 243.234C109.312 243.234 107.453 240.422 107.453 234.797C107.453 229.016 109.312 226.125 113.031 226.125C116.75 226.125 118.609 229.016 118.609 234.797C118.609 240.422 116.75 243.234 113.031 243.234ZM113.031 236.355C112.562 236.355 112.184 236.215 111.895 235.934C111.613 235.645 111.473 235.266 111.473 234.797C111.473 234.328 111.613 233.953 111.895 233.672C112.184 233.383 112.562 233.238 113.031 233.238C113.5 233.238 113.875 233.383 114.156 233.672C114.445 233.953 114.59 234.328 114.59 234.797C114.59 235.266 114.445 235.645 114.156 235.934C113.875 236.215 113.5 236.355 113.031 236.355ZM113.031 241.441C115.398 241.441 116.582 239.227 116.582 234.797C116.582 230.211 115.398 227.918 113.031 227.918C110.664 227.918 109.48 230.211 109.48 234.797C109.48 239.227 110.664 241.441 113.031 241.441ZM121.938 243V240.738C124.594 239.27 126.578 237.738 127.891 236.145C129.211 234.543 129.871 232.887 129.871 231.176C129.871 230.113 129.602 229.305 129.062 228.75C128.523 228.195 127.727 227.918 126.672 227.918C125.977 227.918 125.277 228.086 124.574 228.422C123.871 228.758 123.246 229.227 122.699 229.828L121.398 228.539C121.969 227.805 122.719 227.219 123.648 226.781C124.586 226.344 125.609 226.125 126.719 226.125C128.422 226.125 129.707 226.551 130.574 227.402C131.441 228.254 131.875 229.512 131.875 231.176C131.875 232.988 131.277 234.707 130.082 236.332C128.895 237.949 127.109 239.48 124.727 240.926V243H121.938ZM122.641 243V241.207H132.578V243H122.641Z" fill="#E1E1FF"/>
<path d="M162.266 235.594V233.789H173.797V235.594H162.266Z" fill="#E1E1FF"/>
<path d="M196.032 228.048V233.64H202.128V235.44H196.032V241.2H202.848V243H193.848V226.248H202.848V228.048H196.032ZM212.561 229.608C214.161 229.608 215.457 230.096 216.449 231.072C217.441 232.032 217.937 233.424 217.937 235.248V243H215.777V235.56C215.777 234.248 215.449 233.248 214.793 232.56C214.137 231.856 213.241 231.504 212.105 231.504C210.953 231.504 210.033 231.864 209.345 232.584C208.673 233.304 208.337 234.352 208.337 235.728V243H206.153V229.848H208.337V231.72C208.769 231.048 209.353 230.528 210.089 230.16C210.841 229.792 211.665 229.608 212.561 229.608ZM224.168 231.648V239.4C224.168 240.04 224.304 240.496 224.576 240.768C224.848 241.024 225.32 241.152 225.992 241.152H227.6V243H225.632C224.416 243 223.504 242.72 222.896 242.16C222.288 241.6 221.984 240.68 221.984 239.4V231.648H220.28V229.848H221.984V226.536H224.168V229.848H227.6V231.648H224.168ZM232.43 231.984C232.814 231.232 233.358 230.648 234.062 230.232C234.782 229.816 235.654 229.608 236.678 229.608V231.864H236.102C233.654 231.864 232.43 233.192 232.43 235.848V243H230.246V229.848H232.43V231.984ZM250.528 229.848L242.608 249.192H240.352L242.944 242.856L237.64 229.848H240.064L244.192 240.504L248.272 229.848H250.528Z" fill="#E1E1FF"/>
</g>
<g clip-path="url(#clip3_187_101)">
<rect x="96" y="257" width="49" height="37" rx="6" fill="#32354E"/>
<path d="M113.031 284.234C109.312 284.234 107.453 281.422 107.453 275.797C107.453 270.016 109.312 267.125 113.031 267.125C116.75 267.125 118.609 270.016 118.609 275.797C118.609 281.422 116.75 284.234 113.031 284.234ZM113.031 277.355C112.562 277.355 112.184 277.215 111.895 276.934C111.613 276.645 111.473 276.266 111.473 275.797C111.473 275.328 111.613 274.953 111.895 274.672C112.184 274.383 112.562 274.238 113.031 274.238C113.5 274.238 113.875 274.383 114.156 274.672C114.445 274.953 114.59 275.328 114.59 275.797C114.59 276.266 114.445 276.645 114.156 276.934C113.875 277.215 113.5 277.355 113.031 277.355ZM113.031 282.441C115.398 282.441 116.582 280.227 116.582 275.797C116.582 271.211 115.398 268.918 113.031 268.918C110.664 268.918 109.48 271.211 109.48 275.797C109.48 280.227 110.664 282.441 113.031 282.441ZM126.086 284.234C125.242 284.234 124.473 284.184 123.777 284.082C123.09 283.98 122.469 283.844 121.914 283.672L122.16 281.844C122.629 281.969 123.156 282.102 123.742 282.242C124.336 282.375 125.086 282.441 125.992 282.441C127.328 282.441 128.363 282.184 129.098 281.668C129.832 281.145 130.199 280.41 130.199 279.465C130.199 278.801 129.988 278.23 129.566 277.754C129.145 277.27 128.535 276.902 127.738 276.652C126.949 276.395 126 276.266 124.891 276.266H124.492L124.246 274.906L127.551 275.199C128.941 275.301 130.062 275.742 130.914 276.523C131.773 277.305 132.203 278.34 132.203 279.629C132.203 281.09 131.668 282.223 130.598 283.027C129.535 283.832 128.031 284.234 126.086 284.234ZM124.492 276.266L124.246 274.906C125.496 274.734 126.535 274.477 127.363 274.133C128.191 273.789 128.812 273.371 129.227 272.879C129.641 272.379 129.848 271.832 129.848 271.238C129.848 270.504 129.602 269.934 129.109 269.527C128.617 269.121 127.918 268.918 127.012 268.918C126.332 268.918 125.648 269.062 124.961 269.352C124.273 269.641 123.609 270.086 122.969 270.688L121.621 269.363C122.332 268.582 123.148 268.016 124.07 267.664C124.992 267.305 126.043 267.125 127.223 267.125C128.699 267.125 129.84 267.449 130.645 268.098C131.449 268.738 131.852 269.656 131.852 270.852C131.852 271.883 131.496 272.773 130.785 273.523C130.082 274.266 129.156 274.777 128.008 275.059V276.23L124.492 276.266Z" fill="#E1E1FF"/>
<path d="M162.266 276.594V274.789H173.797V276.594H162.266Z" fill="#E1E1FF"/>
<path d="M196.032 267.272V284H193.848V267.272H196.032ZM198.938 277.4C198.938 276.04 199.21 274.856 199.754 273.848C200.298 272.824 201.05 272.032 202.01 271.472C202.986 270.912 204.098 270.632 205.346 270.632C206.962 270.632 208.29 271.024 209.33 271.808C210.386 272.592 211.082 273.68 211.418 275.072H209.066C208.842 274.272 208.402 273.64 207.746 273.176C207.106 272.712 206.306 272.48 205.346 272.48C204.098 272.48 203.09 272.912 202.322 273.776C201.554 274.624 201.17 275.832 201.17 277.4C201.17 278.984 201.554 280.208 202.322 281.072C203.09 281.936 204.098 282.368 205.346 282.368C206.306 282.368 207.106 282.144 207.746 281.696C208.386 281.248 208.826 280.608 209.066 279.776H211.418C211.066 281.12 210.362 282.2 209.306 283.016C208.25 283.816 206.93 284.216 205.346 284.216C204.098 284.216 202.986 283.936 202.01 283.376C201.05 282.816 200.298 282.024 199.754 281C199.21 279.976 198.938 278.776 198.938 277.4ZM220.068 284.216C218.836 284.216 217.716 283.936 216.708 283.376C215.716 282.816 214.932 282.024 214.356 281C213.796 279.96 213.516 278.76 213.516 277.4C213.516 276.056 213.804 274.872 214.38 273.848C214.972 272.808 215.772 272.016 216.78 271.472C217.788 270.912 218.916 270.632 220.164 270.632C221.412 270.632 222.54 270.912 223.548 271.472C224.556 272.016 225.348 272.8 225.924 273.824C226.516 274.848 226.812 276.04 226.812 277.4C226.812 278.76 226.508 279.96 225.9 281C225.308 282.024 224.5 282.816 223.476 283.376C222.452 283.936 221.316 284.216 220.068 284.216ZM220.068 282.296C220.852 282.296 221.588 282.112 222.276 281.744C222.964 281.376 223.516 280.824 223.932 280.088C224.364 279.352 224.58 278.456 224.58 277.4C224.58 276.344 224.372 275.448 223.956 274.712C223.54 273.976 222.996 273.432 222.324 273.08C221.652 272.712 220.924 272.528 220.14 272.528C219.34 272.528 218.604 272.712 217.932 273.08C217.276 273.432 216.748 273.976 216.348 274.712C215.948 275.448 215.748 276.344 215.748 277.4C215.748 278.472 215.94 279.376 216.324 280.112C216.724 280.848 217.252 281.4 217.908 281.768C218.564 282.12 219.284 282.296 220.068 282.296ZM236.092 270.608C237.692 270.608 238.988 271.096 239.98 272.072C240.972 273.032 241.468 274.424 241.468 276.248V284H239.308V276.56C239.308 275.248 238.98 274.248 238.324 273.56C237.668 272.856 236.772 272.504 235.636 272.504C234.484 272.504 233.564 272.864 232.876 273.584C232.204 274.304 231.868 275.352 231.868 276.728V284H229.684V270.848H231.868V272.72C232.3 272.048 232.884 271.528 233.62 271.16C234.372 270.792 235.196 270.608 236.092 270.608Z" fill="#E1E1FF"/>
</g>
<g clip-path="url(#clip4_187_101)">
<rect x="96" y="298" width="49" height="37" rx="6" fill="#32354E"/>
<path d="M113.031 325.234C109.312 325.234 107.453 322.422 107.453 316.797C107.453 311.016 109.312 308.125 113.031 308.125C116.75 308.125 118.609 311.016 118.609 316.797C118.609 322.422 116.75 325.234 113.031 325.234ZM113.031 318.355C112.562 318.355 112.184 318.215 111.895 317.934C111.613 317.645 111.473 317.266 111.473 316.797C111.473 316.328 111.613 315.953 111.895 315.672C112.184 315.383 112.562 315.238 113.031 315.238C113.5 315.238 113.875 315.383 114.156 315.672C114.445 315.953 114.59 316.328 114.59 316.797C114.59 317.266 114.445 317.645 114.156 317.934C113.875 318.215 113.5 318.355 113.031 318.355ZM113.031 323.441C115.398 323.441 116.582 321.227 116.582 316.797C116.582 312.211 115.398 309.918 113.031 309.918C110.664 309.918 109.48 312.211 109.48 316.797C109.48 321.227 110.664 323.441 113.031 323.441ZM121.023 321.238L123.273 309.297H125.242L122.969 321.238H121.023ZM121.012 321.238L122.43 319.445H129.613V321.238H121.012ZM131.066 321.238V319.445H133.094V321.238H131.066ZM129.379 325V308.359H131.301V325H129.379Z" fill="#E1E1FF"/>
<path d="M162.266 317.594V315.789H173.797V317.594H162.266Z" fill="#E1E1FF"/>
<path d="M203.736 321.28H196.44L195.096 325H192.792L198.84 308.368H201.36L207.384 325H205.08L203.736 321.28ZM203.112 319.504L200.088 311.056L197.064 319.504H203.112ZM212.684 313.648V321.4C212.684 322.04 212.82 322.496 213.092 322.768C213.364 323.024 213.836 323.152 214.508 323.152H216.116V325H214.148C212.932 325 212.02 324.72 211.412 324.16C210.804 323.6 210.5 322.68 210.5 321.4V313.648H208.796V311.848H210.5V308.536H212.684V311.848H216.116V313.648H212.684ZM221.426 313.648V321.4C221.426 322.04 221.562 322.496 221.834 322.768C222.106 323.024 222.578 323.152 223.25 323.152H224.858V325H222.89C221.674 325 220.762 324.72 220.154 324.16C219.546 323.6 219.242 322.68 219.242 321.4V313.648H217.538V311.848H219.242V308.536H221.426V311.848H224.858V313.648H221.426ZM229.688 313.984C230.072 313.232 230.616 312.648 231.32 312.232C232.04 311.816 232.912 311.608 233.936 311.608V313.864H233.36C230.912 313.864 229.688 315.192 229.688 317.848V325H227.504V311.848H229.688V313.984ZM237.585 309.712C237.169 309.712 236.817 309.568 236.529 309.28C236.241 308.992 236.097 308.64 236.097 308.224C236.097 307.808 236.241 307.456 236.529 307.168C236.817 306.88 237.169 306.736 237.585 306.736C237.985 306.736 238.321 306.88 238.593 307.168C238.881 307.456 239.025 307.808 239.025 308.224C239.025 308.64 238.881 308.992 238.593 309.28C238.321 309.568 237.985 309.712 237.585 309.712ZM238.641 311.848V325H236.457V311.848H238.641ZM244.548 314.296C244.996 313.512 245.652 312.872 246.516 312.376C247.38 311.88 248.364 311.632 249.468 311.632C250.652 311.632 251.716 311.912 252.66 312.472C253.604 313.032 254.348 313.824 254.892 314.848C255.436 315.856 255.708 317.032 255.708 318.376C255.708 319.704 255.436 320.888 254.892 321.928C254.348 322.968 253.596 323.776 252.636 324.352C251.692 324.928 250.636 325.216 249.468 325.216C248.332 325.216 247.332 324.968 246.468 324.472C245.62 323.976 244.98 323.344 244.548 322.576V325H242.364V307.24H244.548V314.296ZM253.476 318.376C253.476 317.384 253.276 316.52 252.876 315.784C252.476 315.048 251.932 314.488 251.244 314.104C250.572 313.72 249.828 313.528 249.012 313.528C248.212 313.528 247.468 313.728 246.78 314.128C246.108 314.512 245.564 315.08 245.148 315.832C244.748 316.568 244.548 317.424 244.548 318.4C244.548 319.392 244.748 320.264 245.148 321.016C245.564 321.752 246.108 322.32 246.78 322.72C247.468 323.104 248.212 323.296 249.012 323.296C249.828 323.296 250.572 323.104 251.244 322.72C251.932 322.32 252.476 321.752 252.876 321.016C253.276 320.264 253.476 319.384 253.476 318.376ZM270.246 311.848V325H268.062V323.056C267.646 323.728 267.062 324.256 266.31 324.64C265.574 325.008 264.758 325.192 263.862 325.192C262.838 325.192 261.918 324.984 261.102 324.568C260.286 324.136 259.638 323.496 259.158 322.648C258.694 321.8 258.462 320.768 258.462 319.552V311.848H260.622V319.264C260.622 320.56 260.95 321.56 261.606 322.264C262.262 322.952 263.158 323.296 264.294 323.296C265.462 323.296 266.382 322.936 267.054 322.216C267.726 321.496 268.062 320.448 268.062 319.072V311.848H270.246ZM276.598 313.648V321.4C276.598 322.04 276.734 322.496 277.006 322.768C277.278 323.024 277.75 323.152 278.422 323.152H280.03V325H278.062C276.846 325 275.934 324.72 275.326 324.16C274.718 323.6 274.414 322.68 274.414 321.4V313.648H272.71V311.848H274.414V308.536H276.598V311.848H280.03V313.648H276.598ZM294.676 317.92C294.676 318.336 294.652 318.776 294.604 319.24H284.092C284.172 320.536 284.612 321.552 285.412 322.288C286.228 323.008 287.212 323.368 288.364 323.368C289.308 323.368 290.092 323.152 290.716 322.72C291.356 322.272 291.804 321.68 292.06 320.944H294.412C294.06 322.208 293.356 323.24 292.3 324.04C291.244 324.824 289.932 325.216 288.364 325.216C287.116 325.216 285.996 324.936 285.004 324.376C284.028 323.816 283.26 323.024 282.7 322C282.14 320.96 281.86 319.76 281.86 318.4C281.86 317.04 282.132 315.848 282.676 314.824C283.22 313.8 283.98 313.016 284.956 312.472C285.948 311.912 287.084 311.632 288.364 311.632C289.612 311.632 290.716 311.904 291.676 312.448C292.636 312.992 293.372 313.744 293.884 314.704C294.412 315.648 294.676 316.72 294.676 317.92ZM292.42 317.464C292.42 316.632 292.236 315.92 291.868 315.328C291.5 314.72 290.996 314.264 290.356 313.96C289.732 313.64 289.036 313.48 288.268 313.48C287.164 313.48 286.22 313.832 285.436 314.536C284.668 315.24 284.228 316.216 284.116 317.464H292.42Z" fill="#E1E1FF"/>
</g>
<g clip-path="url(#clip5_187_101)">
<rect x="96" y="339" width="49" height="37" rx="6" fill="#32354E"/>
<path d="M113.031 366.234C109.312 366.234 107.453 363.422 107.453 357.797C107.453 352.016 109.312 349.125 113.031 349.125C116.75 349.125 118.609 352.016 118.609 357.797C118.609 363.422 116.75 366.234 113.031 366.234ZM113.031 359.355C112.562 359.355 112.184 359.215 111.895 358.934C111.613 358.645 111.473 358.266 111.473 357.797C111.473 357.328 111.613 356.953 111.895 356.672C112.184 356.383 112.562 356.238 113.031 356.238C113.5 356.238 113.875 356.383 114.156 356.672C114.445 356.953 114.59 357.328 114.59 357.797C114.59 358.266 114.445 358.645 114.156 358.934C113.875 359.215 113.5 359.355 113.031 359.355ZM113.031 364.441C115.398 364.441 116.582 362.227 116.582 357.797C116.582 353.211 115.398 350.918 113.031 350.918C110.664 350.918 109.48 353.211 109.48 357.797C109.48 362.227 110.664 364.441 113.031 364.441ZM127.258 366.234C125.492 366.234 124.125 365.809 123.156 364.957C122.188 364.098 121.703 362.891 121.703 361.336H123.742C123.742 362.32 124.047 363.086 124.656 363.633C125.273 364.172 126.148 364.441 127.281 364.441C128.398 364.441 129.262 364.109 129.871 363.445C130.48 362.781 130.785 361.844 130.785 360.633C130.785 359.484 130.48 358.598 129.871 357.973C129.262 357.34 128.395 357.023 127.27 357.023C126.082 357.023 124.969 357.359 123.93 358.031L123.906 356.473C124.57 355.996 125.227 355.676 125.875 355.512C126.531 355.348 127.191 355.266 127.855 355.266C129.426 355.266 130.641 355.734 131.5 356.672C132.359 357.602 132.789 358.922 132.789 360.633C132.789 361.82 132.57 362.832 132.133 363.668C131.703 364.504 131.074 365.141 130.246 365.578C129.426 366.016 128.43 366.234 127.258 366.234ZM122.723 358.031L122.945 349.359H124.914L124.68 356.777L123.93 358.031H122.723ZM123.977 351.152L123.766 349.359H131.734V351.152H123.977Z" fill="#E1E1FF"/>
<path d="M162.266 358.594V356.789H173.797V358.594H162.266Z" fill="#E1E1FF"/>
<path d="M203.736 362.28H196.44L195.096 366H192.792L198.84 349.368H201.36L207.384 366H205.08L203.736 362.28ZM203.112 360.504L200.088 352.056L197.064 360.504H203.112ZM212.684 354.648V362.4C212.684 363.04 212.82 363.496 213.092 363.768C213.364 364.024 213.836 364.152 214.508 364.152H216.116V366H214.148C212.932 366 212.02 365.72 211.412 365.16C210.804 364.6 210.5 363.68 210.5 362.4V354.648H208.796V352.848H210.5V349.536H212.684V352.848H216.116V354.648H212.684ZM221.426 354.648V362.4C221.426 363.04 221.562 363.496 221.834 363.768C222.106 364.024 222.578 364.152 223.25 364.152H224.858V366H222.89C221.674 366 220.762 365.72 220.154 365.16C219.546 364.6 219.242 363.68 219.242 362.4V354.648H217.538V352.848H219.242V349.536H221.426V352.848H224.858V354.648H221.426ZM226.688 359.376C226.688 358.032 226.96 356.856 227.504 355.848C228.048 354.824 228.792 354.032 229.736 353.472C230.696 352.912 231.76 352.632 232.928 352.632C234.08 352.632 235.08 352.88 235.928 353.376C236.776 353.872 237.408 354.496 237.824 355.248V352.848H240.032V366H237.824V363.552C237.392 364.32 236.744 364.96 235.88 365.472C235.032 365.968 234.04 366.216 232.904 366.216C231.736 366.216 230.68 365.928 229.736 365.352C228.792 364.776 228.048 363.968 227.504 362.928C226.96 361.888 226.688 360.704 226.688 359.376ZM237.824 359.4C237.824 358.408 237.624 357.544 237.224 356.808C236.824 356.072 236.28 355.512 235.592 355.128C234.92 354.728 234.176 354.528 233.36 354.528C232.544 354.528 231.8 354.72 231.128 355.104C230.456 355.488 229.92 356.048 229.52 356.784C229.12 357.52 228.92 358.384 228.92 359.376C228.92 360.384 229.12 361.264 229.52 362.016C229.92 362.752 230.456 363.32 231.128 363.72C231.8 364.104 232.544 364.296 233.36 364.296C234.176 364.296 234.92 364.104 235.592 363.72C236.28 363.32 236.824 362.752 237.224 362.016C237.624 361.264 237.824 360.392 237.824 359.4ZM242.907 359.4C242.907 358.04 243.179 356.856 243.723 355.848C244.267 354.824 245.019 354.032 245.979 353.472C246.955 352.912 248.067 352.632 249.315 352.632C250.931 352.632 252.259 353.024 253.299 353.808C254.355 354.592 255.051 355.68 255.387 357.072H253.035C252.811 356.272 252.371 355.64 251.715 355.176C251.075 354.712 250.275 354.48 249.315 354.48C248.067 354.48 247.059 354.912 246.291 355.776C245.523 356.624 245.139 357.832 245.139 359.4C245.139 360.984 245.523 362.208 246.291 363.072C247.059 363.936 248.067 364.368 249.315 364.368C250.275 364.368 251.075 364.144 251.715 363.696C252.355 363.248 252.795 362.608 253.035 361.776H255.387C255.035 363.12 254.331 364.2 253.275 365.016C252.219 365.816 250.899 366.216 249.315 366.216C248.067 366.216 246.955 365.936 245.979 365.376C245.019 364.816 244.267 364.024 243.723 363C243.179 361.976 242.907 360.776 242.907 359.4ZM264.829 352.608C265.821 352.608 266.717 352.824 267.517 353.256C268.317 353.672 268.941 354.304 269.389 355.152C269.853 356 270.085 357.032 270.085 358.248V366H267.925V358.56C267.925 357.248 267.597 356.248 266.941 355.56C266.285 354.856 265.389 354.504 264.253 354.504C263.101 354.504 262.181 354.864 261.493 355.584C260.821 356.304 260.485 357.352 260.485 358.728V366H258.301V348.24H260.485V354.72C260.917 354.048 261.509 353.528 262.261 353.16C263.029 352.792 263.885 352.608 264.829 352.608ZM289.469 352.608C290.493 352.608 291.405 352.824 292.205 353.256C293.005 353.672 293.637 354.304 294.101 355.152C294.565 356 294.797 357.032 294.797 358.248V366H292.637V358.56C292.637 357.248 292.309 356.248 291.653 355.56C291.013 354.856 290.141 354.504 289.037 354.504C287.901 354.504 286.997 354.872 286.325 355.608C285.653 356.328 285.317 357.376 285.317 358.752V366H283.157V358.56C283.157 357.248 282.829 356.248 282.173 355.56C281.533 354.856 280.661 354.504 279.557 354.504C278.421 354.504 277.517 354.872 276.845 355.608C276.173 356.328 275.837 357.376 275.837 358.752V366H273.653V352.848H275.837V354.744C276.269 354.056 276.845 353.528 277.565 353.16C278.301 352.792 279.109 352.608 279.989 352.608C281.093 352.608 282.069 352.856 282.917 353.352C283.765 353.848 284.397 354.576 284.813 355.536C285.181 354.608 285.789 353.888 286.637 353.376C287.485 352.864 288.429 352.608 289.469 352.608ZM310.379 358.92C310.379 359.336 310.355 359.776 310.307 360.24H299.795C299.875 361.536 300.315 362.552 301.115 363.288C301.931 364.008 302.915 364.368 304.067 364.368C305.011 364.368 305.795 364.152 306.419 363.72C307.059 363.272 307.507 362.68 307.763 361.944H310.115C309.763 363.208 309.059 364.24 308.003 365.04C306.947 365.824 305.635 366.216 304.067 366.216C302.819 366.216 301.699 365.936 300.707 365.376C299.731 364.816 298.963 364.024 298.403 363C297.843 361.96 297.563 360.76 297.563 359.4C297.563 358.04 297.835 356.848 298.379 355.824C298.923 354.8 299.683 354.016 300.659 353.472C301.651 352.912 302.787 352.632 304.067 352.632C305.315 352.632 306.419 352.904 307.379 353.448C308.339 353.992 309.075 354.744 309.587 355.704C310.115 356.648 310.379 357.72 310.379 358.92ZM308.123 358.464C308.123 357.632 307.939 356.92 307.571 356.328C307.203 355.72 306.699 355.264 306.059 354.96C305.435 354.64 304.739 354.48 303.971 354.48C302.867 354.48 301.923 354.832 301.139 355.536C300.371 356.24 299.931 357.216 299.819 358.464H308.123ZM319.67 352.608C321.27 352.608 322.566 353.096 323.558 354.072C324.55 355.032 325.046 356.424 325.046 358.248V366H322.886V358.56C322.886 357.248 322.558 356.248 321.902 355.56C321.246 354.856 320.35 354.504 319.214 354.504C318.062 354.504 317.142 354.864 316.454 355.584C315.782 356.304 315.446 357.352 315.446 358.728V366H313.262V352.848H315.446V354.72C315.878 354.048 316.462 353.528 317.198 353.16C317.95 352.792 318.774 352.608 319.67 352.608ZM331.278 354.648V362.4C331.278 363.04 331.414 363.496 331.686 363.768C331.958 364.024 332.43 364.152 333.102 364.152H334.71V366H332.742C331.526 366 330.614 365.72 330.006 365.16C329.398 364.6 329.094 363.68 329.094 362.4V354.648H327.39V352.848H329.094V349.536H331.278V352.848H334.71V354.648H331.278Z" fill="#E1E1FF"/>
</g>
<defs>
<clipPath id="clip0_187_101">
<rect width="206" height="37" fill="white" transform="translate(96 134)"/>
</clipPath>
<clipPath id="clip1_187_101">
<rect width="171" height="37" fill="white" transform="translate(96 175)"/>
</clipPath>
<clipPath id="clip2_187_101">
<rect width="155" height="37" fill="white" transform="translate(96 216)"/>
</clipPath>
<clipPath id="clip3_187_101">
<rect width="148" height="37" fill="white" transform="translate(96 257)"/>
</clipPath>
<clipPath id="clip4_187_101">
<rect width="200" height="37" fill="white" transform="translate(96 298)"/>
</clipPath>
<clipPath id="clip5_187_101">
<rect width="240" height="37" fill="white" transform="translate(96 339)"/>
</clipPath>
</defs>
</svg>
