<svg width="571" height="82" viewBox="0 0 571 82" fill="none" xmlns="http://www.w3.org/2000/svg">
<rect y="0.5" width="571" height="81" rx="12" fill="#181925"/>
<path d="M37.5664 49.5L32.6211 32.8594H34.6484L38.9375 47.8711H39.125L43.4141 32.8594H45.4414L40.4961 49.5H37.5664Z" fill="#FCCC5D"/>
<path d="M54.793 49.7344C49.6836 49.7344 47.1289 46.875 47.1289 41.1562C47.1289 38.4453 47.7695 36.3477 49.0508 34.8633C50.3398 33.3711 52.1602 32.625 54.5117 32.625C55.6367 32.625 56.6172 32.8086 57.4531 33.1758C58.2891 33.5352 58.8984 34.0508 59.2812 34.7227L57.8633 36.1289C57.4883 35.582 57.0078 35.1602 56.4219 34.8633C55.8438 34.5664 55.2148 34.418 54.5352 34.418C52.9102 34.418 51.6055 34.9922 50.6211 36.1406C49.6445 37.2891 49.1562 38.9219 49.1562 41.0391C49.1562 45.6406 51.1406 47.9414 55.1094 47.9414C56.2656 47.9414 57.4062 47.6992 58.5312 47.2148L58.9883 48.9375C57.6523 49.4688 56.2539 49.7344 54.793 49.7344Z" fill="#34B240"/>
<path d="M69.4062 49.7344C67.6641 49.7344 66.3906 49.3359 65.5859 48.5391C64.7891 47.7344 64.3906 46.4805 64.3906 44.7773V42.7031H66.4062V44.6953C66.4062 45.7891 66.6641 46.5977 67.1797 47.1211C67.6953 47.6367 68.5156 47.8945 69.6406 47.8945C70.0625 47.8945 70.4883 47.875 70.918 47.8359C71.3555 47.7891 71.8281 47.7266 72.3359 47.6484L72.5703 49.4531C72.0391 49.5469 71.5195 49.6172 71.0117 49.6641C70.5117 49.7109 69.9766 49.7344 69.4062 49.7344ZM64.3906 43.6406V33.3281H66.4062V43.6406H64.3906ZM61.0391 38.7891V37.0781H72.1016V38.7891H61.0391ZM83.4688 49.7344C81.7266 49.7344 80.4531 49.3359 79.6484 48.5391C78.8516 47.7344 78.4531 46.4805 78.4531 44.7773V42.7031H80.4688V44.6953C80.4688 45.7891 80.7266 46.5977 81.2422 47.1211C81.7578 47.6367 82.5781 47.8945 83.7031 47.8945C84.125 47.8945 84.5508 47.875 84.9805 47.8359C85.418 47.7891 85.8906 47.7266 86.3984 47.6484L86.6328 49.4531C86.1016 49.5469 85.582 49.6172 85.0742 49.6641C84.5742 49.7109 84.0391 49.7344 83.4688 49.7344ZM78.4531 43.6406V33.3281H80.4688V43.6406H78.4531ZM75.1016 38.7891V37.0781H86.1641V38.7891H75.1016ZM97.5312 49.7344C95.7891 49.7344 94.5156 49.3359 93.7109 48.5391C92.9141 47.7344 92.5156 46.4805 92.5156 44.7773V42.7031H94.5312V44.6953C94.5312 45.7891 94.7891 46.5977 95.3047 47.1211C95.8203 47.6367 96.6406 47.8945 97.7656 47.8945C98.1875 47.8945 98.6133 47.875 99.043 47.8359C99.4805 47.7891 99.9531 47.7266 100.461 47.6484L100.695 49.4531C100.164 49.5469 99.6445 49.6172 99.1367 49.6641C98.6367 49.7109 98.1016 49.7344 97.5312 49.7344ZM92.5156 43.6406V33.3281H94.5312V43.6406H92.5156ZM89.1641 38.7891V37.0781H100.227V38.7891H89.1641ZM111.594 49.7344C109.852 49.7344 108.578 49.3359 107.773 48.5391C106.977 47.7344 106.578 46.4805 106.578 44.7773V42.7031H108.594V44.6953C108.594 45.7891 108.852 46.5977 109.367 47.1211C109.883 47.6367 110.703 47.8945 111.828 47.8945C112.25 47.8945 112.676 47.875 113.105 47.8359C113.543 47.7891 114.016 47.7266 114.523 47.6484L114.758 49.4531C114.227 49.5469 113.707 49.6172 113.199 49.6641C112.699 49.7109 112.164 49.7344 111.594 49.7344ZM106.578 43.6406V33.3281H108.594V43.6406H106.578ZM103.227 38.7891V37.0781H114.289V38.7891H103.227ZM125.656 49.7344C123.914 49.7344 122.641 49.3359 121.836 48.5391C121.039 47.7344 120.641 46.4805 120.641 44.7773V42.7031H122.656V44.6953C122.656 45.7891 122.914 46.5977 123.43 47.1211C123.945 47.6367 124.766 47.8945 125.891 47.8945C126.312 47.8945 126.738 47.875 127.168 47.8359C127.605 47.7891 128.078 47.7266 128.586 47.6484L128.82 49.4531C128.289 49.5469 127.77 49.6172 127.262 49.6641C126.762 49.7109 126.227 49.7344 125.656 49.7344ZM120.641 43.6406V33.3281H122.656V43.6406H120.641ZM117.289 38.7891V37.0781H128.352V38.7891H117.289ZM139.719 49.7344C137.977 49.7344 136.703 49.3359 135.898 48.5391C135.102 47.7344 134.703 46.4805 134.703 44.7773V42.7031H136.719V44.6953C136.719 45.7891 136.977 46.5977 137.492 47.1211C138.008 47.6367 138.828 47.8945 139.953 47.8945C140.375 47.8945 140.801 47.875 141.23 47.8359C141.668 47.7891 142.141 47.7266 142.648 47.6484L142.883 49.4531C142.352 49.5469 141.832 49.6172 141.324 49.6641C140.824 49.7109 140.289 49.7344 139.719 49.7344ZM134.703 43.6406V33.3281H136.719V43.6406H134.703ZM131.352 38.7891V37.0781H142.414V38.7891H131.352ZM167.844 49.7344C166.102 49.7344 164.828 49.3359 164.023 48.5391C163.227 47.7344 162.828 46.4805 162.828 44.7773V42.7031H164.844V44.6953C164.844 45.7891 165.102 46.5977 165.617 47.1211C166.133 47.6367 166.953 47.8945 168.078 47.8945C168.5 47.8945 168.926 47.875 169.355 47.8359C169.793 47.7891 170.266 47.7266 170.773 47.6484L171.008 49.4531C170.477 49.5469 169.957 49.6172 169.449 49.6641C168.949 49.7109 168.414 49.7344 167.844 49.7344ZM162.828 43.6406V33.3281H164.844V43.6406H162.828ZM159.477 38.7891V37.0781H170.539V38.7891H159.477ZM181.906 49.7344C180.164 49.7344 178.891 49.3359 178.086 48.5391C177.289 47.7344 176.891 46.4805 176.891 44.7773V42.7031H178.906V44.6953C178.906 45.7891 179.164 46.5977 179.68 47.1211C180.195 47.6367 181.016 47.8945 182.141 47.8945C182.562 47.8945 182.988 47.875 183.418 47.8359C183.855 47.7891 184.328 47.7266 184.836 47.6484L185.07 49.4531C184.539 49.5469 184.02 49.6172 183.512 49.6641C183.012 49.7109 182.477 49.7344 181.906 49.7344ZM176.891 43.6406V33.3281H178.906V43.6406H176.891ZM173.539 38.7891V37.0781H184.602V38.7891H173.539ZM195.969 49.7344C194.227 49.7344 192.953 49.3359 192.148 48.5391C191.352 47.7344 190.953 46.4805 190.953 44.7773V42.7031H192.969V44.6953C192.969 45.7891 193.227 46.5977 193.742 47.1211C194.258 47.6367 195.078 47.8945 196.203 47.8945C196.625 47.8945 197.051 47.875 197.48 47.8359C197.918 47.7891 198.391 47.7266 198.898 47.6484L199.133 49.4531C198.602 49.5469 198.082 49.6172 197.574 49.6641C197.074 49.7109 196.539 49.7344 195.969 49.7344ZM190.953 43.6406V33.3281H192.969V43.6406H190.953ZM187.602 38.7891V37.0781H198.664V38.7891H187.602ZM210.031 49.7344C208.289 49.7344 207.016 49.3359 206.211 48.5391C205.414 47.7344 205.016 46.4805 205.016 44.7773V42.7031H207.031V44.6953C207.031 45.7891 207.289 46.5977 207.805 47.1211C208.32 47.6367 209.141 47.8945 210.266 47.8945C210.688 47.8945 211.113 47.875 211.543 47.8359C211.98 47.7891 212.453 47.7266 212.961 47.6484L213.195 49.4531C212.664 49.5469 212.145 49.6172 211.637 49.6641C211.137 49.7109 210.602 49.7344 210.031 49.7344ZM205.016 43.6406V33.3281H207.031V43.6406H205.016ZM201.664 38.7891V37.0781H212.727V38.7891H201.664ZM238.156 49.7344C236.414 49.7344 235.141 49.3359 234.336 48.5391C233.539 47.7344 233.141 46.4805 233.141 44.7773V42.7031H235.156V44.6953C235.156 45.7891 235.414 46.5977 235.93 47.1211C236.445 47.6367 237.266 47.8945 238.391 47.8945C238.812 47.8945 239.238 47.875 239.668 47.8359C240.105 47.7891 240.578 47.7266 241.086 47.6484L241.32 49.4531C240.789 49.5469 240.27 49.6172 239.762 49.6641C239.262 49.7109 238.727 49.7344 238.156 49.7344ZM233.141 43.6406V33.3281H235.156V43.6406H233.141ZM229.789 38.7891V37.0781H240.852V38.7891H229.789ZM252.219 49.7344C250.477 49.7344 249.203 49.3359 248.398 48.5391C247.602 47.7344 247.203 46.4805 247.203 44.7773V42.7031H249.219V44.6953C249.219 45.7891 249.477 46.5977 249.992 47.1211C250.508 47.6367 251.328 47.8945 252.453 47.8945C252.875 47.8945 253.301 47.875 253.73 47.8359C254.168 47.7891 254.641 47.7266 255.148 47.6484L255.383 49.4531C254.852 49.5469 254.332 49.6172 253.824 49.6641C253.324 49.7109 252.789 49.7344 252.219 49.7344ZM247.203 43.6406V33.3281H249.219V43.6406H247.203ZM243.852 38.7891V37.0781H254.914V38.7891H243.852ZM266.281 49.7344C264.539 49.7344 263.266 49.3359 262.461 48.5391C261.664 47.7344 261.266 46.4805 261.266 44.7773V42.7031H263.281V44.6953C263.281 45.7891 263.539 46.5977 264.055 47.1211C264.57 47.6367 265.391 47.8945 266.516 47.8945C266.938 47.8945 267.363 47.875 267.793 47.8359C268.23 47.7891 268.703 47.7266 269.211 47.6484L269.445 49.4531C268.914 49.5469 268.395 49.6172 267.887 49.6641C267.387 49.7109 266.852 49.7344 266.281 49.7344ZM261.266 43.6406V33.3281H263.281V43.6406H261.266ZM257.914 38.7891V37.0781H268.977V38.7891H257.914ZM280.344 49.7344C278.602 49.7344 277.328 49.3359 276.523 48.5391C275.727 47.7344 275.328 46.4805 275.328 44.7773V42.7031H277.344V44.6953C277.344 45.7891 277.602 46.5977 278.117 47.1211C278.633 47.6367 279.453 47.8945 280.578 47.8945C281 47.8945 281.426 47.875 281.855 47.8359C282.293 47.7891 282.766 47.7266 283.273 47.6484L283.508 49.4531C282.977 49.5469 282.457 49.6172 281.949 49.6641C281.449 49.7109 280.914 49.7344 280.344 49.7344ZM275.328 43.6406V33.3281H277.344V43.6406H275.328ZM271.977 38.7891V37.0781H283.039V38.7891H271.977ZM308.469 49.7344C306.727 49.7344 305.453 49.3359 304.648 48.5391C303.852 47.7344 303.453 46.4805 303.453 44.7773V42.7031H305.469V44.6953C305.469 45.7891 305.727 46.5977 306.242 47.1211C306.758 47.6367 307.578 47.8945 308.703 47.8945C309.125 47.8945 309.551 47.875 309.98 47.8359C310.418 47.7891 310.891 47.7266 311.398 47.6484L311.633 49.4531C311.102 49.5469 310.582 49.6172 310.074 49.6641C309.574 49.7109 309.039 49.7344 308.469 49.7344ZM303.453 43.6406V33.3281H305.469V43.6406H303.453ZM300.102 38.7891V37.0781H311.164V38.7891H300.102ZM322.531 49.7344C320.789 49.7344 319.516 49.3359 318.711 48.5391C317.914 47.7344 317.516 46.4805 317.516 44.7773V42.7031H319.531V44.6953C319.531 45.7891 319.789 46.5977 320.305 47.1211C320.82 47.6367 321.641 47.8945 322.766 47.8945C323.188 47.8945 323.613 47.875 324.043 47.8359C324.48 47.7891 324.953 47.7266 325.461 47.6484L325.695 49.4531C325.164 49.5469 324.645 49.6172 324.137 49.6641C323.637 49.7109 323.102 49.7344 322.531 49.7344ZM317.516 43.6406V33.3281H319.531V43.6406H317.516ZM314.164 38.7891V37.0781H325.227V38.7891H314.164Z" fill="#E5989B"/>
<path d="M145.766 42.0938V40.2891H157.297V42.0938H145.766ZM216.078 42.0938V40.2891H227.609V42.0938H216.078ZM286.391 42.0938V40.2891H297.922V42.0938H286.391Z" fill="#E5989B" fill-opacity="0.5"/>
<path d="M328.648 49.5L333.676 42.75L337.707 37.0781H340.039L334.906 44.0039L330.98 49.5H328.648ZM337.707 49.5L333.699 43.9805L328.648 37.0781H330.98L335.035 42.7266L340.039 49.5H337.707ZM342.711 49.5L347.738 42.75L351.77 37.0781H354.102L348.969 44.0039L345.043 49.5H342.711ZM351.77 49.5L347.762 43.9805L342.711 37.0781H345.043L349.098 42.7266L354.102 49.5H351.77ZM370.836 49.5L375.863 42.75L379.895 37.0781H382.227L377.094 44.0039L373.168 49.5H370.836ZM379.895 49.5L375.887 43.9805L370.836 37.0781H373.168L377.223 42.7266L382.227 49.5H379.895ZM384.898 49.5L389.926 42.75L393.957 37.0781H396.289L391.156 44.0039L387.23 49.5H384.898ZM393.957 49.5L389.949 43.9805L384.898 37.0781H387.23L391.285 42.7266L396.289 49.5H393.957ZM398.961 49.5L403.988 42.75L408.02 37.0781H410.352L405.219 44.0039L401.293 49.5H398.961ZM408.02 49.5L404.012 43.9805L398.961 37.0781H401.293L405.348 42.7266L410.352 49.5H408.02ZM413.023 49.5L418.051 42.75L422.082 37.0781H424.414L419.281 44.0039L415.355 49.5H413.023ZM422.082 49.5L418.074 43.9805L413.023 37.0781H415.355L419.41 42.7266L424.414 49.5H422.082ZM427.086 49.5L432.113 42.75L436.145 37.0781H438.477L433.344 44.0039L429.418 49.5H427.086ZM436.145 49.5L432.137 43.9805L427.086 37.0781H429.418L433.473 42.7266L438.477 49.5H436.145ZM441.148 49.5L446.176 42.75L450.207 37.0781H452.539L447.406 44.0039L443.48 49.5H441.148ZM450.207 49.5L446.199 43.9805L441.148 37.0781H443.48L447.535 42.7266L452.539 49.5H450.207ZM455.211 49.5L460.238 42.75L464.27 37.0781H466.602L461.469 44.0039L457.543 49.5H455.211ZM464.27 49.5L460.262 43.9805L455.211 37.0781H457.543L461.598 42.7266L466.602 49.5H464.27ZM469.273 49.5L474.301 42.75L478.332 37.0781H480.664L475.531 44.0039L471.605 49.5H469.273ZM478.332 49.5L474.324 43.9805L469.273 37.0781H471.605L475.66 42.7266L480.664 49.5H478.332ZM483.336 49.5L488.363 42.75L492.395 37.0781H494.727L489.594 44.0039L485.668 49.5H483.336ZM492.395 49.5L488.387 43.9805L483.336 37.0781H485.668L489.723 42.7266L494.727 49.5H492.395ZM497.398 49.5L502.426 42.75L506.457 37.0781H508.789L503.656 44.0039L499.73 49.5H497.398ZM506.457 49.5L502.449 43.9805L497.398 37.0781H499.73L503.785 42.7266L508.789 49.5H506.457ZM511.461 49.5L516.488 42.75L520.52 37.0781H522.852L517.719 44.0039L513.793 49.5H511.461ZM520.52 49.5L516.512 43.9805L511.461 37.0781H513.793L517.848 42.7266L522.852 49.5H520.52ZM525.523 49.5L530.551 42.75L534.582 37.0781H536.914L531.781 44.0039L527.855 49.5H525.523ZM534.582 49.5L530.574 43.9805L525.523 37.0781H527.855L531.91 42.7266L536.914 49.5H534.582Z" fill="#E1E1FF"/>
<path d="M356.703 42.0938V40.2891H368.234V42.0938H356.703Z" fill="#E1E1FF" fill-opacity="0.5"/>
</svg>
