<svg width="646" height="390" viewBox="0 0 646 390" fill="none" xmlns="http://www.w3.org/2000/svg">
<rect width="646" height="390" rx="16" fill="#181925"/>
<path d="M107.22 100.24C107.22 100.947 107.053 101.613 106.72 102.24C106.387 102.867 105.853 103.38 105.12 103.78C104.387 104.167 103.447 104.36 102.3 104.36H99.78V110H97.5V96.1H102.3C103.367 96.1 104.267 96.2867 105 96.66C105.747 97.02 106.3 97.5133 106.66 98.14C107.033 98.7667 107.22 99.4667 107.22 100.24ZM102.3 102.5C103.167 102.5 103.813 102.307 104.24 101.92C104.667 101.52 104.88 100.96 104.88 100.24C104.88 98.72 104.02 97.96 102.3 97.96H99.78V102.5H102.3ZM111.655 96.1V104.96C111.655 106.013 111.928 106.807 112.475 107.34C113.035 107.873 113.808 108.14 114.795 108.14C115.795 108.14 116.568 107.873 117.115 107.34C117.675 106.807 117.955 106.013 117.955 104.96V96.1H120.235V104.92C120.235 106.053 119.988 107.013 119.495 107.8C119.001 108.587 118.341 109.173 117.515 109.56C116.688 109.947 115.775 110.14 114.775 110.14C113.775 110.14 112.861 109.947 112.035 109.56C111.221 109.173 110.575 108.587 110.095 107.8C109.615 107.013 109.375 106.053 109.375 104.92V96.1H111.655ZM125.483 96.1V110H123.203V96.1H125.483ZM133.017 96.1C134.497 96.1 135.79 96.3867 136.897 96.96C138.017 97.52 138.877 98.3333 139.477 99.4C140.09 100.453 140.397 101.687 140.397 103.1C140.397 104.513 140.09 105.74 139.477 106.78C138.877 107.82 138.017 108.62 136.897 109.18C135.79 109.727 134.497 110 133.017 110H128.477V96.1H133.017ZM133.017 108.14C134.643 108.14 135.89 107.7 136.757 106.82C137.623 105.94 138.057 104.7 138.057 103.1C138.057 101.487 137.623 100.227 136.757 99.32C135.89 98.4133 134.643 97.96 133.017 97.96H130.757V108.14H133.017ZM159.832 96.1L154.612 110H151.972L146.732 96.1H149.172L153.292 107.66L157.432 96.1H159.832ZM160.978 104.44C160.978 103.333 161.205 102.353 161.658 101.5C162.125 100.647 162.752 99.9867 163.538 99.52C164.338 99.04 165.218 98.8 166.178 98.8C167.045 98.8 167.798 98.9733 168.438 99.32C169.092 99.6533 169.612 100.073 169.998 100.58V98.98H172.298V110H169.998V108.36C169.612 108.88 169.085 109.313 168.418 109.66C167.752 110.007 166.992 110.18 166.138 110.18C165.192 110.18 164.325 109.94 163.538 109.46C162.752 108.967 162.125 108.287 161.658 107.42C161.205 106.54 160.978 105.547 160.978 104.44ZM169.998 104.48C169.998 103.72 169.838 103.06 169.518 102.5C169.212 101.94 168.805 101.513 168.298 101.22C167.792 100.927 167.245 100.78 166.658 100.78C166.072 100.78 165.525 100.927 165.018 101.22C164.512 101.5 164.098 101.92 163.778 102.48C163.472 103.027 163.318 103.68 163.318 104.44C163.318 105.2 163.472 105.867 163.778 106.44C164.098 107.013 164.512 107.453 165.018 107.76C165.538 108.053 166.085 108.2 166.658 108.2C167.245 108.2 167.792 108.053 168.298 107.76C168.805 107.467 169.212 107.04 169.518 106.48C169.838 105.907 169.998 105.24 169.998 104.48ZM177.573 100.58C177.906 100.02 178.346 99.5867 178.893 99.28C179.453 98.96 180.113 98.8 180.873 98.8V101.16H180.293C179.4 101.16 178.72 101.387 178.253 101.84C177.8 102.293 177.573 103.08 177.573 104.2V110H175.293V98.98H177.573V100.58ZM184.129 97.52C183.715 97.52 183.369 97.38 183.089 97.1C182.809 96.82 182.669 96.4733 182.669 96.06C182.669 95.6467 182.809 95.3 183.089 95.02C183.369 94.74 183.715 94.6 184.129 94.6C184.529 94.6 184.869 94.74 185.149 95.02C185.429 95.3 185.569 95.6467 185.569 96.06C185.569 96.4733 185.429 96.82 185.149 97.1C184.869 97.38 184.529 97.52 184.129 97.52ZM185.249 98.98V110H182.969V98.98H185.249ZM187.482 104.44C187.482 103.333 187.709 102.353 188.162 101.5C188.629 100.647 189.256 99.9867 190.042 99.52C190.842 99.04 191.722 98.8 192.682 98.8C193.549 98.8 194.302 98.9733 194.942 99.32C195.596 99.6533 196.116 100.073 196.502 100.58V98.98H198.802V110H196.502V108.36C196.116 108.88 195.589 109.313 194.922 109.66C194.256 110.007 193.496 110.18 192.642 110.18C191.696 110.18 190.829 109.94 190.042 109.46C189.256 108.967 188.629 108.287 188.162 107.42C187.709 106.54 187.482 105.547 187.482 104.44ZM196.502 104.48C196.502 103.72 196.342 103.06 196.022 102.5C195.716 101.94 195.309 101.513 194.802 101.22C194.296 100.927 193.749 100.78 193.162 100.78C192.576 100.78 192.029 100.927 191.522 101.22C191.016 101.5 190.602 101.92 190.282 102.48C189.976 103.027 189.822 103.68 189.822 104.44C189.822 105.2 189.976 105.867 190.282 106.44C190.602 107.013 191.016 107.453 191.522 107.76C192.042 108.053 192.589 108.2 193.162 108.2C193.749 108.2 194.296 108.053 194.802 107.76C195.309 107.467 195.716 107.04 196.022 106.48C196.342 105.907 196.502 105.24 196.502 104.48ZM207.357 98.8C208.224 98.8 208.997 98.98 209.677 99.34C210.37 99.7 210.91 100.233 211.297 100.94C211.684 101.647 211.877 102.5 211.877 103.5V110H209.617V103.84C209.617 102.853 209.37 102.1 208.877 101.58C208.384 101.047 207.71 100.78 206.857 100.78C206.004 100.78 205.324 101.047 204.817 101.58C204.324 102.1 204.077 102.853 204.077 103.84V110H201.797V98.98H204.077V100.24C204.45 99.7867 204.924 99.4333 205.497 99.18C206.084 98.9267 206.704 98.8 207.357 98.8ZM217.445 100.84V106.94C217.445 107.353 217.538 107.653 217.725 107.84C217.925 108.013 218.258 108.1 218.725 108.1H220.125V110H218.325C217.298 110 216.512 109.76 215.965 109.28C215.418 108.8 215.145 108.02 215.145 106.94V100.84H213.845V98.98H215.145V96.24H217.445V98.98H220.125V100.84H217.445ZM226.227 110.18C225.36 110.18 224.58 110.027 223.887 109.72C223.207 109.4 222.667 108.973 222.267 108.44C221.867 107.893 221.653 107.287 221.627 106.62H223.987C224.027 107.087 224.247 107.48 224.647 107.8C225.06 108.107 225.573 108.26 226.187 108.26C226.827 108.26 227.32 108.14 227.667 107.9C228.027 107.647 228.207 107.327 228.207 106.94C228.207 106.527 228.007 106.22 227.607 106.02C227.22 105.82 226.6 105.6 225.747 105.36C224.92 105.133 224.247 104.913 223.727 104.7C223.207 104.487 222.753 104.16 222.367 103.72C221.993 103.28 221.807 102.7 221.807 101.98C221.807 101.393 221.98 100.86 222.327 100.38C222.673 99.8867 223.167 99.5 223.807 99.22C224.46 98.94 225.207 98.8 226.047 98.8C227.3 98.8 228.307 99.12 229.067 99.76C229.84 100.387 230.253 101.247 230.307 102.34H228.027C227.987 101.847 227.787 101.453 227.427 101.16C227.067 100.867 226.58 100.72 225.967 100.72C225.367 100.72 224.907 100.833 224.587 101.06C224.267 101.287 224.107 101.587 224.107 101.96C224.107 102.253 224.213 102.5 224.427 102.7C224.64 102.9 224.9 103.06 225.207 103.18C225.513 103.287 225.967 103.427 226.567 103.6C227.367 103.813 228.02 104.033 228.527 104.26C229.047 104.473 229.493 104.793 229.867 105.22C230.24 105.647 230.433 106.213 230.447 106.92C230.447 107.547 230.273 108.107 229.927 108.6C229.58 109.093 229.087 109.48 228.447 109.76C227.82 110.04 227.08 110.18 226.227 110.18Z" fill="#E1E1FF"/>
<g clip-path="url(#clip0_120_434)">
<rect x="96" y="134" width="49" height="37" rx="6" fill="#32354E"/>
<path d="M113.031 161.234C109.312 161.234 107.453 158.422 107.453 152.797C107.453 147.016 109.312 144.125 113.031 144.125C116.75 144.125 118.609 147.016 118.609 152.797C118.609 158.422 116.75 161.234 113.031 161.234ZM113.031 154.355C112.562 154.355 112.184 154.215 111.895 153.934C111.613 153.645 111.473 153.266 111.473 152.797C111.473 152.328 111.613 151.953 111.895 151.672C112.184 151.383 112.562 151.238 113.031 151.238C113.5 151.238 113.875 151.383 114.156 151.672C114.445 151.953 114.59 152.328 114.59 152.797C114.59 153.266 114.445 153.645 114.156 153.934C113.875 154.215 113.5 154.355 113.031 154.355ZM113.031 159.441C115.398 159.441 116.582 157.227 116.582 152.797C116.582 148.211 115.398 145.918 113.031 145.918C110.664 145.918 109.48 148.211 109.48 152.797C109.48 157.227 110.664 159.441 113.031 159.441ZM127.094 161.234C123.375 161.234 121.516 158.422 121.516 152.797C121.516 147.016 123.375 144.125 127.094 144.125C130.812 144.125 132.672 147.016 132.672 152.797C132.672 158.422 130.812 161.234 127.094 161.234ZM127.094 154.355C126.625 154.355 126.246 154.215 125.957 153.934C125.676 153.645 125.535 153.266 125.535 152.797C125.535 152.328 125.676 151.953 125.957 151.672C126.246 151.383 126.625 151.238 127.094 151.238C127.562 151.238 127.938 151.383 128.219 151.672C128.508 151.953 128.652 152.328 128.652 152.797C128.652 153.266 128.508 153.645 128.219 153.934C127.938 154.215 127.562 154.355 127.094 154.355ZM127.094 159.441C129.461 159.441 130.645 157.227 130.645 152.797C130.645 148.211 129.461 145.918 127.094 145.918C124.727 145.918 123.543 148.211 123.543 152.797C123.543 157.227 124.727 159.441 127.094 159.441Z" fill="#E1E1FF"/>
<path d="M162.266 153.594V151.789H173.797V153.594H162.266Z" fill="#E1E1FF"/>
<path d="M195.984 144.272V154.856C195.984 156.344 196.344 157.448 197.064 158.168C197.8 158.888 198.816 159.248 200.112 159.248C201.392 159.248 202.392 158.888 203.112 158.168C203.848 157.448 204.216 156.344 204.216 154.856V144.272H206.4V154.832C206.4 156.224 206.12 157.4 205.56 158.36C205 159.304 204.24 160.008 203.28 160.472C202.336 160.936 201.272 161.168 200.088 161.168C198.904 161.168 197.832 160.936 196.872 160.472C195.928 160.008 195.176 159.304 194.616 158.36C194.072 157.4 193.8 156.224 193.8 154.832V144.272H195.984ZM216.451 147.608C218.051 147.608 219.347 148.096 220.339 149.072C221.331 150.032 221.827 151.424 221.827 153.248V161H219.667V153.56C219.667 152.248 219.339 151.248 218.683 150.56C218.027 149.856 217.131 149.504 215.995 149.504C214.843 149.504 213.923 149.864 213.235 150.584C212.563 151.304 212.227 152.352 212.227 153.728V161H210.043V147.848H212.227V149.72C212.659 149.048 213.243 148.528 213.979 148.16C214.731 147.792 215.555 147.608 216.451 147.608ZM232.739 161L227.579 155.192V161H225.395V143.24H227.579V153.68L232.643 147.848H235.691L229.499 154.4L235.715 161H232.739ZM244.154 147.608C245.754 147.608 247.05 148.096 248.042 149.072C249.034 150.032 249.53 151.424 249.53 153.248V161H247.37V153.56C247.37 152.248 247.042 151.248 246.386 150.56C245.73 149.856 244.834 149.504 243.698 149.504C242.546 149.504 241.626 149.864 240.938 150.584C240.266 151.304 239.93 152.352 239.93 153.728V161H237.746V147.848H239.93V149.72C240.362 149.048 240.946 148.528 241.682 148.16C242.434 147.792 243.258 147.608 244.154 147.608ZM258.834 161.216C257.602 161.216 256.482 160.936 255.474 160.376C254.482 159.816 253.698 159.024 253.122 158C252.562 156.96 252.282 155.76 252.282 154.4C252.282 153.056 252.57 151.872 253.146 150.848C253.738 149.808 254.538 149.016 255.546 148.472C256.554 147.912 257.682 147.632 258.93 147.632C260.178 147.632 261.306 147.912 262.314 148.472C263.322 149.016 264.114 149.8 264.69 150.824C265.282 151.848 265.578 153.04 265.578 154.4C265.578 155.76 265.274 156.96 264.666 158C264.074 159.024 263.266 159.816 262.242 160.376C261.218 160.936 260.082 161.216 258.834 161.216ZM258.834 159.296C259.618 159.296 260.354 159.112 261.042 158.744C261.73 158.376 262.282 157.824 262.698 157.088C263.13 156.352 263.346 155.456 263.346 154.4C263.346 153.344 263.138 152.448 262.722 151.712C262.306 150.976 261.762 150.432 261.09 150.08C260.418 149.712 259.69 149.528 258.906 149.528C258.106 149.528 257.37 149.712 256.698 150.08C256.042 150.432 255.514 150.976 255.114 151.712C254.714 152.448 254.514 153.344 254.514 154.4C254.514 155.472 254.706 156.376 255.09 157.112C255.49 157.848 256.018 158.4 256.674 158.768C257.33 159.12 258.05 159.296 258.834 159.296ZM285.97 147.848L281.866 161H279.61L276.442 150.56L273.274 161H271.018L266.89 147.848H269.122L272.146 158.888L275.41 147.848H277.642L280.834 158.912L283.81 147.848H285.97ZM294.545 147.608C296.145 147.608 297.441 148.096 298.433 149.072C299.425 150.032 299.921 151.424 299.921 153.248V161H297.761V153.56C297.761 152.248 297.433 151.248 296.777 150.56C296.121 149.856 295.225 149.504 294.089 149.504C292.937 149.504 292.017 149.864 291.329 150.584C290.657 151.304 290.321 152.352 290.321 153.728V161H288.137V147.848H290.321V149.72C290.753 149.048 291.337 148.528 292.073 148.16C292.825 147.792 293.649 147.608 294.545 147.608ZM315.503 165.464C313.967 163.96 312.767 162.048 311.903 159.728C311.055 157.408 310.631 154.904 310.631 152.216C310.631 149.464 311.079 146.896 311.975 144.512C312.887 142.112 314.183 140.136 315.863 138.584H318.143V138.8C316.351 140.48 314.999 142.504 314.087 144.872C313.191 147.224 312.743 149.672 312.743 152.216C312.743 154.696 313.167 157.064 314.015 159.32C314.879 161.576 316.135 163.552 317.783 165.248V165.464H315.503ZM319.97 154.4C319.97 153.04 320.242 151.856 320.786 150.848C321.33 149.824 322.082 149.032 323.042 148.472C324.018 147.912 325.13 147.632 326.378 147.632C327.994 147.632 329.322 148.024 330.362 148.808C331.418 149.592 332.114 150.68 332.45 152.072H330.098C329.874 151.272 329.434 150.64 328.778 150.176C328.138 149.712 327.338 149.48 326.378 149.48C325.13 149.48 324.122 149.912 323.354 150.776C322.586 151.624 322.202 152.832 322.202 154.4C322.202 155.984 322.586 157.208 323.354 158.072C324.122 158.936 325.13 159.368 326.378 159.368C327.338 159.368 328.138 159.144 328.778 158.696C329.418 158.248 329.858 157.608 330.098 156.776H332.45C332.098 158.12 331.394 159.2 330.338 160.016C329.282 160.816 327.962 161.216 326.378 161.216C325.13 161.216 324.018 160.936 323.042 160.376C322.082 159.816 321.33 159.024 320.786 158C320.242 156.976 319.97 155.776 319.97 154.4ZM337.548 149.984C337.932 149.232 338.476 148.648 339.18 148.232C339.9 147.816 340.772 147.608 341.796 147.608V149.864H341.22C338.772 149.864 337.548 151.192 337.548 153.848V161H335.364V147.848H337.548V149.984ZM356.317 153.92C356.317 154.336 356.293 154.776 356.245 155.24H345.733C345.813 156.536 346.253 157.552 347.053 158.288C347.869 159.008 348.853 159.368 350.005 159.368C350.949 159.368 351.733 159.152 352.357 158.72C352.997 158.272 353.445 157.68 353.701 156.944H356.053C355.701 158.208 354.997 159.24 353.941 160.04C352.885 160.824 351.573 161.216 350.005 161.216C348.757 161.216 347.637 160.936 346.645 160.376C345.669 159.816 344.901 159.024 344.341 158C343.781 156.96 343.501 155.76 343.501 154.4C343.501 153.04 343.773 151.848 344.317 150.824C344.861 149.8 345.621 149.016 346.597 148.472C347.589 147.912 348.725 147.632 350.005 147.632C351.253 147.632 352.357 147.904 353.317 148.448C354.277 148.992 355.013 149.744 355.525 150.704C356.053 151.648 356.317 152.72 356.317 153.92ZM354.061 153.464C354.061 152.632 353.877 151.92 353.509 151.328C353.141 150.72 352.637 150.264 351.997 149.96C351.373 149.64 350.677 149.48 349.909 149.48C348.805 149.48 347.861 149.832 347.077 150.536C346.309 151.24 345.869 152.216 345.757 153.464H354.061ZM358.384 154.376C358.384 153.032 358.656 151.856 359.2 150.848C359.744 149.824 360.488 149.032 361.432 148.472C362.392 147.912 363.456 147.632 364.624 147.632C365.776 147.632 366.776 147.88 367.624 148.376C368.472 148.872 369.104 149.496 369.52 150.248V147.848H371.728V161H369.52V158.552C369.088 159.32 368.44 159.96 367.576 160.472C366.728 160.968 365.736 161.216 364.6 161.216C363.432 161.216 362.376 160.928 361.432 160.352C360.488 159.776 359.744 158.968 359.2 157.928C358.656 156.888 358.384 155.704 358.384 154.376ZM369.52 154.4C369.52 153.408 369.32 152.544 368.92 151.808C368.52 151.072 367.976 150.512 367.288 150.128C366.616 149.728 365.872 149.528 365.056 149.528C364.24 149.528 363.496 149.72 362.824 150.104C362.152 150.488 361.616 151.048 361.216 151.784C360.816 152.52 360.616 153.384 360.616 154.376C360.616 155.384 360.816 156.264 361.216 157.016C361.616 157.752 362.152 158.32 362.824 158.72C363.496 159.104 364.24 159.296 365.056 159.296C365.872 159.296 366.616 159.104 367.288 158.72C367.976 158.32 368.52 157.752 368.92 157.016C369.32 156.264 369.52 155.392 369.52 154.4ZM378.082 149.648V157.4C378.082 158.04 378.218 158.496 378.49 158.768C378.762 159.024 379.234 159.152 379.906 159.152H381.514V161H379.546C378.33 161 377.418 160.72 376.81 160.16C376.202 159.6 375.898 158.68 375.898 157.4V149.648H374.194V147.848H375.898V144.536H378.082V147.848H381.514V149.648H378.082ZM396.161 153.92C396.161 154.336 396.137 154.776 396.089 155.24H385.577C385.657 156.536 386.097 157.552 386.897 158.288C387.713 159.008 388.697 159.368 389.849 159.368C390.793 159.368 391.577 159.152 392.201 158.72C392.841 158.272 393.289 157.68 393.545 156.944H395.897C395.545 158.208 394.841 159.24 393.785 160.04C392.729 160.824 391.417 161.216 389.849 161.216C388.601 161.216 387.481 160.936 386.489 160.376C385.513 159.816 384.745 159.024 384.185 158C383.625 156.96 383.345 155.76 383.345 154.4C383.345 153.04 383.617 151.848 384.161 150.824C384.705 149.8 385.465 149.016 386.441 148.472C387.433 147.912 388.569 147.632 389.849 147.632C391.097 147.632 392.201 147.904 393.161 148.448C394.121 148.992 394.857 149.744 395.369 150.704C395.897 151.648 396.161 152.72 396.161 153.92ZM393.905 153.464C393.905 152.632 393.721 151.92 393.353 151.328C392.985 150.72 392.481 150.264 391.841 149.96C391.217 149.64 390.521 149.48 389.753 149.48C388.649 149.48 387.705 149.832 386.921 150.536C386.153 151.24 385.713 152.216 385.601 153.464H393.905ZM398.227 154.376C398.227 153.032 398.499 151.856 399.043 150.848C399.587 149.824 400.331 149.032 401.275 148.472C402.235 147.912 403.307 147.632 404.491 147.632C405.515 147.632 406.467 147.872 407.347 148.352C408.227 148.816 408.899 149.432 409.363 150.2V143.24H411.571V161H409.363V158.528C408.931 159.312 408.291 159.96 407.443 160.472C406.595 160.968 405.603 161.216 404.467 161.216C403.299 161.216 402.235 160.928 401.275 160.352C400.331 159.776 399.587 158.968 399.043 157.928C398.499 156.888 398.227 155.704 398.227 154.376ZM409.363 154.4C409.363 153.408 409.163 152.544 408.763 151.808C408.363 151.072 407.819 150.512 407.131 150.128C406.459 149.728 405.715 149.528 404.899 149.528C404.083 149.528 403.339 149.72 402.667 150.104C401.995 150.488 401.459 151.048 401.059 151.784C400.659 152.52 400.459 153.384 400.459 154.376C400.459 155.384 400.659 156.264 401.059 157.016C401.459 157.752 401.995 158.32 402.667 158.72C403.339 159.104 404.083 159.296 404.899 159.296C405.715 159.296 406.459 159.104 407.131 158.72C407.819 158.32 408.363 157.752 408.763 157.016C409.163 156.264 409.363 155.392 409.363 154.4ZM427.013 149.648H424.253V161H422.069V149.648H420.365V147.848H422.069V146.912C422.069 145.44 422.445 144.368 423.197 143.696C423.965 143.008 425.189 142.664 426.868 142.664V144.488C425.909 144.488 425.229 144.68 424.829 145.064C424.445 145.432 424.253 146.048 424.253 146.912V147.848H427.013V149.648ZM431.743 149.984C432.127 149.232 432.671 148.648 433.375 148.232C434.095 147.816 434.967 147.608 435.991 147.608V149.864H435.415C432.967 149.864 431.743 151.192 431.743 153.848V161H429.559V147.848H431.743V149.984ZM444.248 161.216C443.016 161.216 441.896 160.936 440.888 160.376C439.896 159.816 439.112 159.024 438.536 158C437.976 156.96 437.696 155.76 437.696 154.4C437.696 153.056 437.984 151.872 438.56 150.848C439.152 149.808 439.952 149.016 440.96 148.472C441.968 147.912 443.096 147.632 444.344 147.632C445.592 147.632 446.72 147.912 447.728 148.472C448.736 149.016 449.528 149.8 450.104 150.824C450.696 151.848 450.992 153.04 450.992 154.4C450.992 155.76 450.688 156.96 450.08 158C449.488 159.024 448.68 159.816 447.656 160.376C446.632 160.936 445.496 161.216 444.248 161.216ZM444.248 159.296C445.032 159.296 445.768 159.112 446.456 158.744C447.144 158.376 447.696 157.824 448.112 157.088C448.544 156.352 448.76 155.456 448.76 154.4C448.76 153.344 448.552 152.448 448.136 151.712C447.72 150.976 447.176 150.432 446.504 150.08C445.832 149.712 445.104 149.528 444.32 149.528C443.52 149.528 442.784 149.712 442.112 150.08C441.456 150.432 440.928 150.976 440.528 151.712C440.128 152.448 439.928 153.344 439.928 154.4C439.928 155.472 440.12 156.376 440.504 157.112C440.904 157.848 441.432 158.4 442.088 158.768C442.744 159.12 443.464 159.296 444.248 159.296ZM469.68 147.608C470.704 147.608 471.616 147.824 472.416 148.256C473.216 148.672 473.848 149.304 474.312 150.152C474.776 151 475.008 152.032 475.008 153.248V161H472.848V153.56C472.848 152.248 472.52 151.248 471.864 150.56C471.224 149.856 470.352 149.504 469.248 149.504C468.112 149.504 467.208 149.872 466.536 150.608C465.864 151.328 465.528 152.376 465.528 153.752V161H463.368V153.56C463.368 152.248 463.04 151.248 462.384 150.56C461.744 149.856 460.872 149.504 459.768 149.504C458.632 149.504 457.728 149.872 457.056 150.608C456.384 151.328 456.048 152.376 456.048 153.752V161H453.864V147.848H456.048V149.744C456.48 149.056 457.056 148.528 457.776 148.16C458.512 147.792 459.32 147.608 460.2 147.608C461.304 147.608 462.28 147.856 463.128 148.352C463.976 148.848 464.608 149.576 465.024 150.536C465.392 149.608 466 148.888 466.848 148.376C467.696 147.864 468.64 147.608 469.68 147.608ZM487.125 144.272V154.856C487.125 156.344 487.485 157.448 488.205 158.168C488.941 158.888 489.957 159.248 491.253 159.248C492.533 159.248 493.533 158.888 494.253 158.168C494.989 157.448 495.357 156.344 495.357 154.856V144.272H497.541V154.832C497.541 156.224 497.261 157.4 496.701 158.36C496.141 159.304 495.381 160.008 494.421 160.472C493.477 160.936 492.413 161.168 491.229 161.168C490.045 161.168 488.973 160.936 488.013 160.472C487.069 160.008 486.317 159.304 485.757 158.36C485.213 157.4 484.941 156.224 484.941 154.832V144.272H487.125ZM503.32 144.272V154.856C503.32 156.344 503.68 157.448 504.4 158.168C505.136 158.888 506.152 159.248 507.448 159.248C508.728 159.248 509.728 158.888 510.448 158.168C511.184 157.448 511.552 156.344 511.552 154.856V144.272H513.736V154.832C513.736 156.224 513.456 157.4 512.896 158.36C512.336 159.304 511.576 160.008 510.616 160.472C509.672 160.936 508.608 161.168 507.424 161.168C506.24 161.168 505.168 160.936 504.208 160.472C503.264 160.008 502.512 159.304 501.952 158.36C501.408 157.4 501.136 156.224 501.136 154.832V144.272H503.32ZM519.563 144.272V161H517.379V144.272H519.563ZM528.493 144.272C530.318 144.272 531.894 144.616 533.222 145.304C534.566 145.976 535.59 146.944 536.294 148.208C537.014 149.472 537.374 150.96 537.374 152.672C537.374 154.384 537.014 155.872 536.294 157.136C535.59 158.384 534.566 159.344 533.222 160.016C531.894 160.672 530.318 161 528.493 161H523.286V144.272H528.493ZM528.493 159.2C530.654 159.2 532.302 158.632 533.438 157.496C534.574 156.344 535.142 154.736 535.142 152.672C535.142 150.592 534.566 148.968 533.414 147.8C532.278 146.632 530.638 146.048 528.493 146.048H525.47V159.2H528.493ZM539.558 165.464V165.248C541.206 163.552 542.454 161.576 543.302 159.32C544.166 157.064 544.598 154.696 544.598 152.216C544.598 149.672 544.142 147.224 543.23 144.872C542.334 142.504 540.99 140.48 539.198 138.8V138.584H541.478C543.158 140.136 544.446 142.112 545.342 144.512C546.254 146.896 546.71 149.464 546.71 152.216C546.71 154.904 546.278 157.408 545.414 159.728C544.566 162.048 543.374 163.96 541.838 165.464H539.558Z" fill="#E1E1FF"/>
</g>
<g clip-path="url(#clip1_120_434)">
<rect x="96" y="175" width="49" height="37" rx="6" fill="#32354E"/>
<path d="M113.031 202.234C109.312 202.234 107.453 199.422 107.453 193.797C107.453 188.016 109.312 185.125 113.031 185.125C116.75 185.125 118.609 188.016 118.609 193.797C118.609 199.422 116.75 202.234 113.031 202.234ZM113.031 195.355C112.562 195.355 112.184 195.215 111.895 194.934C111.613 194.645 111.473 194.266 111.473 193.797C111.473 193.328 111.613 192.953 111.895 192.672C112.184 192.383 112.562 192.238 113.031 192.238C113.5 192.238 113.875 192.383 114.156 192.672C114.445 192.953 114.59 193.328 114.59 193.797C114.59 194.266 114.445 194.645 114.156 194.934C113.875 195.215 113.5 195.355 113.031 195.355ZM113.031 200.441C115.398 200.441 116.582 198.227 116.582 193.797C116.582 189.211 115.398 186.918 113.031 186.918C110.664 186.918 109.48 189.211 109.48 193.797C109.48 198.227 110.664 200.441 113.031 200.441ZM126.484 202V185.359H128.406V202H126.484ZM122.148 202V200.172H126.719V202H122.148ZM128.172 202V200.172H132.297V202H128.172ZM122.383 188.699V186.766L126.484 185.359V187.34L122.383 188.699Z" fill="#E1E1FF"/>
<path d="M162.266 194.594V192.789H173.797V194.594H162.266Z" fill="#E1E1FF"/>
<path d="M202.656 202L198.672 195.16H196.032V202H193.848V185.272H199.248C200.512 185.272 201.576 185.488 202.44 185.92C203.32 186.352 203.976 186.936 204.408 187.672C204.84 188.408 205.056 189.248 205.056 190.192C205.056 191.344 204.72 192.36 204.048 193.24C203.392 194.12 202.4 194.704 201.072 194.992L205.272 202H202.656ZM196.032 193.408H199.248C200.432 193.408 201.32 193.12 201.912 192.544C202.504 191.952 202.8 191.168 202.8 190.192C202.8 189.2 202.504 188.432 201.912 187.888C201.336 187.344 200.448 187.072 199.248 187.072H196.032V193.408ZM207.634 195.376C207.634 194.032 207.906 192.856 208.45 191.848C208.994 190.824 209.738 190.032 210.682 189.472C211.642 188.912 212.706 188.632 213.874 188.632C215.026 188.632 216.026 188.88 216.874 189.376C217.722 189.872 218.354 190.496 218.77 191.248V188.848H220.978V202H218.77V199.552C218.338 200.32 217.69 200.96 216.826 201.472C215.978 201.968 214.986 202.216 213.85 202.216C212.682 202.216 211.626 201.928 210.682 201.352C209.738 200.776 208.994 199.968 208.45 198.928C207.906 197.888 207.634 196.704 207.634 195.376ZM218.77 195.4C218.77 194.408 218.57 193.544 218.17 192.808C217.77 192.072 217.226 191.512 216.538 191.128C215.866 190.728 215.122 190.528 214.306 190.528C213.49 190.528 212.746 190.72 212.074 191.104C211.402 191.488 210.866 192.048 210.466 192.784C210.066 193.52 209.866 194.384 209.866 195.376C209.866 196.384 210.066 197.264 210.466 198.016C210.866 198.752 211.402 199.32 212.074 199.72C212.746 200.104 213.49 200.296 214.306 200.296C215.122 200.296 215.866 200.104 216.538 199.72C217.226 199.32 217.77 198.752 218.17 198.016C218.57 197.264 218.77 196.392 218.77 195.4ZM231.076 188.608C232.676 188.608 233.972 189.096 234.964 190.072C235.956 191.032 236.452 192.424 236.452 194.248V202H234.292V194.56C234.292 193.248 233.964 192.248 233.308 191.56C232.652 190.856 231.756 190.504 230.62 190.504C229.468 190.504 228.548 190.864 227.86 191.584C227.188 192.304 226.852 193.352 226.852 194.728V202H224.668V188.848H226.852V190.72C227.284 190.048 227.868 189.528 228.604 189.16C229.356 188.792 230.18 188.608 231.076 188.608ZM239.204 195.376C239.204 194.032 239.476 192.856 240.02 191.848C240.564 190.824 241.308 190.032 242.252 189.472C243.212 188.912 244.284 188.632 245.468 188.632C246.492 188.632 247.444 188.872 248.324 189.352C249.204 189.816 249.876 190.432 250.34 191.2V184.24H252.548V202H250.34V199.528C249.908 200.312 249.268 200.96 248.42 201.472C247.572 201.968 246.58 202.216 245.444 202.216C244.276 202.216 243.212 201.928 242.252 201.352C241.308 200.776 240.564 199.968 240.02 198.928C239.476 197.888 239.204 196.704 239.204 195.376ZM250.34 195.4C250.34 194.408 250.14 193.544 249.74 192.808C249.34 192.072 248.796 191.512 248.108 191.128C247.436 190.728 246.692 190.528 245.876 190.528C245.06 190.528 244.316 190.72 243.644 191.104C242.972 191.488 242.436 192.048 242.036 192.784C241.636 193.52 241.436 194.384 241.436 195.376C241.436 196.384 241.636 197.264 242.036 198.016C242.436 198.752 242.972 199.32 243.644 199.72C244.316 200.104 245.06 200.296 245.876 200.296C246.692 200.296 247.436 200.104 248.108 199.72C248.796 199.32 249.34 198.752 249.74 198.016C250.14 197.264 250.34 196.392 250.34 195.4ZM261.975 202.216C260.743 202.216 259.623 201.936 258.615 201.376C257.623 200.816 256.839 200.024 256.263 199C255.703 197.96 255.423 196.76 255.423 195.4C255.423 194.056 255.711 192.872 256.287 191.848C256.879 190.808 257.679 190.016 258.687 189.472C259.695 188.912 260.823 188.632 262.071 188.632C263.319 188.632 264.447 188.912 265.455 189.472C266.463 190.016 267.255 190.8 267.831 191.824C268.423 192.848 268.719 194.04 268.719 195.4C268.719 196.76 268.415 197.96 267.807 199C267.215 200.024 266.407 200.816 265.383 201.376C264.359 201.936 263.223 202.216 261.975 202.216ZM261.975 200.296C262.759 200.296 263.495 200.112 264.183 199.744C264.871 199.376 265.423 198.824 265.839 198.088C266.271 197.352 266.487 196.456 266.487 195.4C266.487 194.344 266.279 193.448 265.863 192.712C265.447 191.976 264.903 191.432 264.231 191.08C263.559 190.712 262.831 190.528 262.047 190.528C261.247 190.528 260.511 190.712 259.839 191.08C259.183 191.432 258.655 191.976 258.255 192.712C257.855 193.448 257.655 194.344 257.655 195.4C257.655 196.472 257.847 197.376 258.231 198.112C258.631 198.848 259.159 199.4 259.815 199.768C260.471 200.12 261.191 200.296 261.975 200.296ZM287.406 188.608C288.43 188.608 289.342 188.824 290.142 189.256C290.942 189.672 291.574 190.304 292.038 191.152C292.502 192 292.734 193.032 292.734 194.248V202H290.574V194.56C290.574 193.248 290.246 192.248 289.59 191.56C288.95 190.856 288.078 190.504 286.974 190.504C285.838 190.504 284.934 190.872 284.262 191.608C283.59 192.328 283.254 193.376 283.254 194.752V202H281.094V194.56C281.094 193.248 280.766 192.248 280.11 191.56C279.47 190.856 278.598 190.504 277.494 190.504C276.358 190.504 275.454 190.872 274.782 191.608C274.11 192.328 273.774 193.376 273.774 194.752V202H271.59V188.848H273.774V190.744C274.206 190.056 274.782 189.528 275.502 189.16C276.238 188.792 277.046 188.608 277.926 188.608C279.03 188.608 280.006 188.856 280.854 189.352C281.702 189.848 282.334 190.576 282.75 191.536C283.118 190.608 283.726 189.888 284.574 189.376C285.422 188.864 286.366 188.608 287.406 188.608Z" fill="#E1E1FF"/>
</g>
<g clip-path="url(#clip2_120_434)">
<rect x="96" y="216" width="49" height="37" rx="6" fill="#32354E"/>
<path d="M113.031 243.234C109.312 243.234 107.453 240.422 107.453 234.797C107.453 229.016 109.312 226.125 113.031 226.125C116.75 226.125 118.609 229.016 118.609 234.797C118.609 240.422 116.75 243.234 113.031 243.234ZM113.031 236.355C112.562 236.355 112.184 236.215 111.895 235.934C111.613 235.645 111.473 235.266 111.473 234.797C111.473 234.328 111.613 233.953 111.895 233.672C112.184 233.383 112.562 233.238 113.031 233.238C113.5 233.238 113.875 233.383 114.156 233.672C114.445 233.953 114.59 234.328 114.59 234.797C114.59 235.266 114.445 235.645 114.156 235.934C113.875 236.215 113.5 236.355 113.031 236.355ZM113.031 241.441C115.398 241.441 116.582 239.227 116.582 234.797C116.582 230.211 115.398 227.918 113.031 227.918C110.664 227.918 109.48 230.211 109.48 234.797C109.48 239.227 110.664 241.441 113.031 241.441ZM121.938 243V240.738C124.594 239.27 126.578 237.738 127.891 236.145C129.211 234.543 129.871 232.887 129.871 231.176C129.871 230.113 129.602 229.305 129.062 228.75C128.523 228.195 127.727 227.918 126.672 227.918C125.977 227.918 125.277 228.086 124.574 228.422C123.871 228.758 123.246 229.227 122.699 229.828L121.398 228.539C121.969 227.805 122.719 227.219 123.648 226.781C124.586 226.344 125.609 226.125 126.719 226.125C128.422 226.125 129.707 226.551 130.574 227.402C131.441 228.254 131.875 229.512 131.875 231.176C131.875 232.988 131.277 234.707 130.082 236.332C128.895 237.949 127.109 239.48 124.727 240.926V243H121.938ZM122.641 243V241.207H132.578V243H122.641Z" fill="#E1E1FF"/>
<path d="M162.266 235.594V233.789H173.797V235.594H162.266Z" fill="#E1E1FF"/>
<path d="M202.656 243L198.672 236.16H196.032V243H193.848V226.272H199.248C200.512 226.272 201.576 226.488 202.44 226.92C203.32 227.352 203.976 227.936 204.408 228.672C204.84 229.408 205.056 230.248 205.056 231.192C205.056 232.344 204.72 233.36 204.048 234.24C203.392 235.12 202.4 235.704 201.072 235.992L205.272 243H202.656ZM196.032 234.408H199.248C200.432 234.408 201.32 234.12 201.912 233.544C202.504 232.952 202.8 232.168 202.8 231.192C202.8 230.2 202.504 229.432 201.912 228.888C201.336 228.344 200.448 228.072 199.248 228.072H196.032V234.408ZM220.45 235.92C220.45 236.336 220.426 236.776 220.378 237.24H209.866C209.946 238.536 210.386 239.552 211.186 240.288C212.002 241.008 212.986 241.368 214.138 241.368C215.082 241.368 215.866 241.152 216.49 240.72C217.13 240.272 217.578 239.68 217.834 238.944H220.186C219.834 240.208 219.13 241.24 218.074 242.04C217.018 242.824 215.706 243.216 214.138 243.216C212.89 243.216 211.77 242.936 210.778 242.376C209.802 241.816 209.034 241.024 208.474 240C207.914 238.96 207.634 237.76 207.634 236.4C207.634 235.04 207.906 233.848 208.45 232.824C208.994 231.8 209.754 231.016 210.73 230.472C211.722 229.912 212.858 229.632 214.138 229.632C215.386 229.632 216.49 229.904 217.45 230.448C218.41 230.992 219.146 231.744 219.658 232.704C220.186 233.648 220.45 234.72 220.45 235.92ZM218.194 235.464C218.194 234.632 218.01 233.92 217.642 233.328C217.274 232.72 216.77 232.264 216.13 231.96C215.506 231.64 214.81 231.48 214.042 231.48C212.938 231.48 211.994 231.832 211.21 232.536C210.442 233.24 210.002 234.216 209.89 235.464H218.194ZM227.988 243.216C226.98 243.216 226.076 243.048 225.276 242.712C224.476 242.36 223.844 241.88 223.38 241.272C222.916 240.648 222.66 239.936 222.612 239.136H224.868C224.932 239.792 225.236 240.328 225.78 240.744C226.34 241.16 227.068 241.368 227.964 241.368C228.796 241.368 229.452 241.184 229.932 240.816C230.412 240.448 230.652 239.984 230.652 239.424C230.652 238.848 230.396 238.424 229.884 238.152C229.372 237.864 228.58 237.584 227.508 237.312C226.532 237.056 225.732 236.8 225.108 236.544C224.5 236.272 223.972 235.88 223.524 235.368C223.092 234.84 222.876 234.152 222.876 233.304C222.876 232.632 223.076 232.016 223.476 231.456C223.876 230.896 224.444 230.456 225.18 230.136C225.916 229.8 226.756 229.632 227.7 229.632C229.156 229.632 230.332 230 231.228 230.736C232.124 231.472 232.604 232.48 232.668 233.76H230.484C230.436 233.072 230.156 232.52 229.644 232.104C229.148 231.688 228.476 231.48 227.628 231.48C226.844 231.48 226.22 231.648 225.756 231.984C225.292 232.32 225.06 232.76 225.06 233.304C225.06 233.736 225.196 234.096 225.468 234.384C225.756 234.656 226.108 234.88 226.524 235.056C226.956 235.216 227.548 235.4 228.3 235.608C229.244 235.864 230.012 236.12 230.604 236.376C231.196 236.616 231.7 236.984 232.116 237.48C232.548 237.976 232.772 238.624 232.788 239.424C232.788 240.144 232.588 240.792 232.188 241.368C231.788 241.944 231.22 242.4 230.484 242.736C229.764 243.056 228.932 243.216 227.988 243.216ZM247.871 235.92C247.871 236.336 247.847 236.776 247.799 237.24H237.287C237.367 238.536 237.807 239.552 238.607 240.288C239.423 241.008 240.407 241.368 241.559 241.368C242.503 241.368 243.287 241.152 243.911 240.72C244.551 240.272 244.999 239.68 245.255 238.944H247.607C247.255 240.208 246.551 241.24 245.495 242.04C244.439 242.824 243.127 243.216 241.559 243.216C240.311 243.216 239.191 242.936 238.199 242.376C237.223 241.816 236.455 241.024 235.895 240C235.335 238.96 235.055 237.76 235.055 236.4C235.055 235.04 235.327 233.848 235.871 232.824C236.415 231.8 237.175 231.016 238.151 230.472C239.143 229.912 240.279 229.632 241.559 229.632C242.807 229.632 243.911 229.904 244.871 230.448C245.831 230.992 246.567 231.744 247.079 232.704C247.607 233.648 247.871 234.72 247.871 235.92ZM245.615 235.464C245.615 234.632 245.431 233.92 245.063 233.328C244.695 232.72 244.191 232.264 243.551 231.96C242.927 231.64 242.231 231.48 241.463 231.48C240.359 231.48 239.415 231.832 238.631 232.536C237.863 233.24 237.423 234.216 237.311 235.464H245.615ZM252.938 231.984C253.322 231.232 253.866 230.648 254.57 230.232C255.29 229.816 256.162 229.608 257.186 229.608V231.864H256.61C254.162 231.864 252.938 233.192 252.938 235.848V243H250.754V229.848H252.938V231.984ZM264.603 240.984L268.683 229.848H271.011L265.851 243H263.307L258.147 229.848H260.499L264.603 240.984ZM285.161 235.92C285.161 236.336 285.137 236.776 285.089 237.24H274.577C274.657 238.536 275.097 239.552 275.897 240.288C276.713 241.008 277.697 241.368 278.849 241.368C279.793 241.368 280.577 241.152 281.201 240.72C281.841 240.272 282.289 239.68 282.545 238.944H284.897C284.545 240.208 283.841 241.24 282.785 242.04C281.729 242.824 280.417 243.216 278.849 243.216C277.601 243.216 276.481 242.936 275.489 242.376C274.513 241.816 273.745 241.024 273.185 240C272.625 238.96 272.345 237.76 272.345 236.4C272.345 235.04 272.617 233.848 273.161 232.824C273.705 231.8 274.465 231.016 275.441 230.472C276.433 229.912 277.569 229.632 278.849 229.632C280.097 229.632 281.201 229.904 282.161 230.448C283.121 230.992 283.857 231.744 284.369 232.704C284.897 233.648 285.161 234.72 285.161 235.92ZM282.905 235.464C282.905 234.632 282.721 233.92 282.353 233.328C281.985 232.72 281.481 232.264 280.841 231.96C280.217 231.64 279.521 231.48 278.753 231.48C277.649 231.48 276.705 231.832 275.921 232.536C275.153 233.24 274.713 234.216 274.601 235.464H282.905ZM287.227 236.376C287.227 235.032 287.499 233.856 288.043 232.848C288.587 231.824 289.331 231.032 290.275 230.472C291.235 229.912 292.307 229.632 293.491 229.632C294.515 229.632 295.467 229.872 296.347 230.352C297.227 230.816 297.899 231.432 298.363 232.2V225.24H300.571V243H298.363V240.528C297.931 241.312 297.291 241.96 296.443 242.472C295.595 242.968 294.603 243.216 293.467 243.216C292.299 243.216 291.235 242.928 290.275 242.352C289.331 241.776 288.587 240.968 288.043 239.928C287.499 238.888 287.227 237.704 287.227 236.376ZM298.363 236.4C298.363 235.408 298.163 234.544 297.763 233.808C297.363 233.072 296.819 232.512 296.131 232.128C295.459 231.728 294.715 231.528 293.899 231.528C293.083 231.528 292.339 231.72 291.667 232.104C290.995 232.488 290.459 233.048 290.059 233.784C289.659 234.52 289.459 235.384 289.459 236.376C289.459 237.384 289.659 238.264 290.059 239.016C290.459 239.752 290.995 240.32 291.667 240.72C292.339 241.104 293.083 241.296 293.899 241.296C294.715 241.296 295.459 241.104 296.131 240.72C296.819 240.32 297.363 239.752 297.763 239.016C298.163 238.264 298.363 237.392 298.363 236.4Z" fill="#E1E1FF"/>
</g>
<g clip-path="url(#clip3_120_434)">
<rect x="96" y="257" width="49" height="37" rx="6" fill="#32354E"/>
<path d="M113.031 284.234C109.312 284.234 107.453 281.422 107.453 275.797C107.453 270.016 109.312 267.125 113.031 267.125C116.75 267.125 118.609 270.016 118.609 275.797C118.609 281.422 116.75 284.234 113.031 284.234ZM113.031 277.355C112.562 277.355 112.184 277.215 111.895 276.934C111.613 276.645 111.473 276.266 111.473 275.797C111.473 275.328 111.613 274.953 111.895 274.672C112.184 274.383 112.562 274.238 113.031 274.238C113.5 274.238 113.875 274.383 114.156 274.672C114.445 274.953 114.59 275.328 114.59 275.797C114.59 276.266 114.445 276.645 114.156 276.934C113.875 277.215 113.5 277.355 113.031 277.355ZM113.031 282.441C115.398 282.441 116.582 280.227 116.582 275.797C116.582 271.211 115.398 268.918 113.031 268.918C110.664 268.918 109.48 271.211 109.48 275.797C109.48 280.227 110.664 282.441 113.031 282.441ZM126.086 284.234C125.242 284.234 124.473 284.184 123.777 284.082C123.09 283.98 122.469 283.844 121.914 283.672L122.16 281.844C122.629 281.969 123.156 282.102 123.742 282.242C124.336 282.375 125.086 282.441 125.992 282.441C127.328 282.441 128.363 282.184 129.098 281.668C129.832 281.145 130.199 280.41 130.199 279.465C130.199 278.801 129.988 278.23 129.566 277.754C129.145 277.27 128.535 276.902 127.738 276.652C126.949 276.395 126 276.266 124.891 276.266H124.492L124.246 274.906L127.551 275.199C128.941 275.301 130.062 275.742 130.914 276.523C131.773 277.305 132.203 278.34 132.203 279.629C132.203 281.09 131.668 282.223 130.598 283.027C129.535 283.832 128.031 284.234 126.086 284.234ZM124.492 276.266L124.246 274.906C125.496 274.734 126.535 274.477 127.363 274.133C128.191 273.789 128.812 273.371 129.227 272.879C129.641 272.379 129.848 271.832 129.848 271.238C129.848 270.504 129.602 269.934 129.109 269.527C128.617 269.121 127.918 268.918 127.012 268.918C126.332 268.918 125.648 269.062 124.961 269.352C124.273 269.641 123.609 270.086 122.969 270.688L121.621 269.363C122.332 268.582 123.148 268.016 124.07 267.664C124.992 267.305 126.043 267.125 127.223 267.125C128.699 267.125 129.84 267.449 130.645 268.098C131.449 268.738 131.852 269.656 131.852 270.852C131.852 271.883 131.496 272.773 130.785 273.523C130.082 274.266 129.156 274.777 128.008 275.059V276.23L124.492 276.266Z" fill="#E1E1FF"/>
<path d="M162.266 276.594V274.789H173.797V276.594H162.266Z" fill="#E1E1FF"/>
<path d="M204.144 267.272V269.048H199.584V284H197.4V269.048H192.816V267.272H204.144ZM207.96 268.712C207.544 268.712 207.192 268.568 206.904 268.28C206.616 267.992 206.472 267.64 206.472 267.224C206.472 266.808 206.616 266.456 206.904 266.168C207.192 265.88 207.544 265.736 207.96 265.736C208.36 265.736 208.696 265.88 208.968 266.168C209.256 266.456 209.4 266.808 209.4 267.224C209.4 267.64 209.256 267.992 208.968 268.28C208.696 268.568 208.36 268.712 207.96 268.712ZM209.016 270.848V284H206.832V270.848H209.016ZM228.555 270.608C229.579 270.608 230.491 270.824 231.291 271.256C232.091 271.672 232.723 272.304 233.187 273.152C233.651 274 233.883 275.032 233.883 276.248V284H231.723V276.56C231.723 275.248 231.395 274.248 230.739 273.56C230.099 272.856 229.227 272.504 228.123 272.504C226.987 272.504 226.083 272.872 225.411 273.608C224.739 274.328 224.403 275.376 224.403 276.752V284H222.243V276.56C222.243 275.248 221.915 274.248 221.259 273.56C220.619 272.856 219.747 272.504 218.643 272.504C217.507 272.504 216.603 272.872 215.931 273.608C215.259 274.328 214.923 275.376 214.923 276.752V284H212.739V270.848H214.923V272.744C215.355 272.056 215.931 271.528 216.651 271.16C217.387 270.792 218.195 270.608 219.075 270.608C220.179 270.608 221.155 270.856 222.003 271.352C222.851 271.848 223.483 272.576 223.899 273.536C224.267 272.608 224.875 271.888 225.723 271.376C226.571 270.864 227.515 270.608 228.555 270.608ZM249.465 276.92C249.465 277.336 249.441 277.776 249.393 278.24H238.881C238.961 279.536 239.401 280.552 240.201 281.288C241.017 282.008 242.001 282.368 243.153 282.368C244.097 282.368 244.881 282.152 245.505 281.72C246.145 281.272 246.593 280.68 246.849 279.944H249.201C248.849 281.208 248.145 282.24 247.089 283.04C246.033 283.824 244.721 284.216 243.153 284.216C241.905 284.216 240.785 283.936 239.793 283.376C238.817 282.816 238.049 282.024 237.489 281C236.929 279.96 236.649 278.76 236.649 277.4C236.649 276.04 236.921 274.848 237.465 273.824C238.009 272.8 238.769 272.016 239.745 271.472C240.737 270.912 241.873 270.632 243.153 270.632C244.401 270.632 245.505 270.904 246.465 271.448C247.425 271.992 248.161 272.744 248.673 273.704C249.201 274.648 249.465 275.72 249.465 276.92ZM247.209 276.464C247.209 275.632 247.025 274.92 246.657 274.328C246.289 273.72 245.785 273.264 245.145 272.96C244.521 272.64 243.825 272.48 243.057 272.48C241.953 272.48 241.009 272.832 240.225 273.536C239.457 274.24 239.017 275.216 238.905 276.464H247.209ZM261.468 274.28V276.128H251.892V274.28H261.468ZM267.751 273.296C268.199 272.512 268.855 271.872 269.719 271.376C270.583 270.88 271.567 270.632 272.671 270.632C273.855 270.632 274.919 270.912 275.863 271.472C276.807 272.032 277.551 272.824 278.095 273.848C278.639 274.856 278.911 276.032 278.911 277.376C278.911 278.704 278.639 279.888 278.095 280.928C277.551 281.968 276.799 282.776 275.839 283.352C274.895 283.928 273.839 284.216 272.671 284.216C271.535 284.216 270.535 283.968 269.671 283.472C268.823 282.976 268.183 282.344 267.751 281.576V284H265.567V266.24H267.751V273.296ZM276.679 277.376C276.679 276.384 276.479 275.52 276.079 274.784C275.679 274.048 275.135 273.488 274.447 273.104C273.775 272.72 273.031 272.528 272.215 272.528C271.415 272.528 270.671 272.728 269.983 273.128C269.311 273.512 268.767 274.08 268.351 274.832C267.951 275.568 267.751 276.424 267.751 277.4C267.751 278.392 267.951 279.264 268.351 280.016C268.767 280.752 269.311 281.32 269.983 281.72C270.671 282.104 271.415 282.296 272.215 282.296C273.031 282.296 273.775 282.104 274.447 281.72C275.135 281.32 275.679 280.752 276.079 280.016C276.479 279.264 276.679 278.384 276.679 277.376ZM280.97 277.376C280.97 276.032 281.242 274.856 281.786 273.848C282.33 272.824 283.074 272.032 284.018 271.472C284.978 270.912 286.042 270.632 287.21 270.632C288.362 270.632 289.362 270.88 290.21 271.376C291.058 271.872 291.69 272.496 292.106 273.248V270.848H294.314V284H292.106V281.552C291.674 282.32 291.026 282.96 290.162 283.472C289.314 283.968 288.322 284.216 287.186 284.216C286.018 284.216 284.962 283.928 284.018 283.352C283.074 282.776 282.33 281.968 281.786 280.928C281.242 279.888 280.97 278.704 280.97 277.376ZM292.106 277.4C292.106 276.408 291.906 275.544 291.506 274.808C291.106 274.072 290.562 273.512 289.874 273.128C289.202 272.728 288.458 272.528 287.642 272.528C286.826 272.528 286.082 272.72 285.41 273.104C284.738 273.488 284.202 274.048 283.802 274.784C283.402 275.52 283.202 276.384 283.202 277.376C283.202 278.384 283.402 279.264 283.802 280.016C284.202 280.752 284.738 281.32 285.41 281.72C286.082 282.104 286.826 282.296 287.642 282.296C288.458 282.296 289.202 282.104 289.874 281.72C290.562 281.32 291.106 280.752 291.506 280.016C291.906 279.264 292.106 278.392 292.106 277.4ZM302.66 284.216C301.652 284.216 300.748 284.048 299.948 283.712C299.148 283.36 298.516 282.88 298.052 282.272C297.588 281.648 297.332 280.936 297.284 280.136H299.54C299.604 280.792 299.908 281.328 300.452 281.744C301.012 282.16 301.74 282.368 302.636 282.368C303.468 282.368 304.124 282.184 304.604 281.816C305.084 281.448 305.324 280.984 305.324 280.424C305.324 279.848 305.068 279.424 304.556 279.152C304.044 278.864 303.252 278.584 302.18 278.312C301.204 278.056 300.404 277.8 299.78 277.544C299.172 277.272 298.644 276.88 298.196 276.368C297.764 275.84 297.548 275.152 297.548 274.304C297.548 273.632 297.748 273.016 298.148 272.456C298.548 271.896 299.116 271.456 299.852 271.136C300.588 270.8 301.428 270.632 302.372 270.632C303.828 270.632 305.004 271 305.9 271.736C306.796 272.472 307.276 273.48 307.34 274.76H305.156C305.108 274.072 304.828 273.52 304.316 273.104C303.82 272.688 303.148 272.48 302.3 272.48C301.516 272.48 300.892 272.648 300.428 272.984C299.964 273.32 299.732 273.76 299.732 274.304C299.732 274.736 299.868 275.096 300.14 275.384C300.428 275.656 300.78 275.88 301.196 276.056C301.628 276.216 302.22 276.4 302.972 276.608C303.916 276.864 304.684 277.12 305.276 277.376C305.868 277.616 306.372 277.984 306.788 278.48C307.22 278.976 307.444 279.624 307.46 280.424C307.46 281.144 307.26 281.792 306.86 282.368C306.46 282.944 305.892 283.4 305.156 283.736C304.436 284.056 303.604 284.216 302.66 284.216ZM322.543 276.92C322.543 277.336 322.519 277.776 322.471 278.24H311.959C312.039 279.536 312.479 280.552 313.279 281.288C314.095 282.008 315.079 282.368 316.231 282.368C317.175 282.368 317.959 282.152 318.583 281.72C319.223 281.272 319.671 280.68 319.927 279.944H322.279C321.927 281.208 321.223 282.24 320.167 283.04C319.111 283.824 317.799 284.216 316.231 284.216C314.983 284.216 313.863 283.936 312.871 283.376C311.895 282.816 311.127 282.024 310.567 281C310.007 279.96 309.727 278.76 309.727 277.4C309.727 276.04 309.999 274.848 310.543 273.824C311.087 272.8 311.847 272.016 312.823 271.472C313.815 270.912 314.951 270.632 316.231 270.632C317.479 270.632 318.583 270.904 319.543 271.448C320.503 271.992 321.239 272.744 321.751 273.704C322.279 274.648 322.543 275.72 322.543 276.92ZM320.287 276.464C320.287 275.632 320.103 274.92 319.735 274.328C319.367 273.72 318.863 273.264 318.223 272.96C317.599 272.64 316.903 272.48 316.135 272.48C315.031 272.48 314.087 272.832 313.303 273.536C312.535 274.24 312.095 275.216 311.983 276.464H320.287ZM324.61 277.376C324.61 276.032 324.882 274.856 325.426 273.848C325.97 272.824 326.714 272.032 327.658 271.472C328.618 270.912 329.69 270.632 330.874 270.632C331.898 270.632 332.85 270.872 333.73 271.352C334.61 271.816 335.282 272.432 335.746 273.2V266.24H337.954V284H335.746V281.528C335.314 282.312 334.674 282.96 333.826 283.472C332.978 283.968 331.986 284.216 330.85 284.216C329.682 284.216 328.618 283.928 327.658 283.352C326.714 282.776 325.97 281.968 325.426 280.928C324.882 279.888 324.61 278.704 324.61 277.376ZM335.746 277.4C335.746 276.408 335.546 275.544 335.146 274.808C334.746 274.072 334.202 273.512 333.514 273.128C332.842 272.728 332.098 272.528 331.282 272.528C330.466 272.528 329.722 272.72 329.05 273.104C328.378 273.488 327.842 274.048 327.442 274.784C327.042 275.52 326.842 276.384 326.842 277.376C326.842 278.384 327.042 279.264 327.442 280.016C327.842 280.752 328.378 281.32 329.05 281.72C329.722 282.104 330.466 282.296 331.282 282.296C332.098 282.296 332.842 282.104 333.514 281.72C334.202 281.32 334.746 280.752 335.146 280.016C335.546 279.264 335.746 278.392 335.746 277.4Z" fill="#E1E1FF"/>
</g>
<defs>
<clipPath id="clip0_120_434">
<rect width="454" height="37" fill="white" transform="translate(96 134)"/>
</clipPath>
<clipPath id="clip1_120_434">
<rect width="199" height="37" fill="white" transform="translate(96 175)"/>
</clipPath>
<clipPath id="clip2_120_434">
<rect width="207" height="37" fill="white" transform="translate(96 216)"/>
</clipPath>
<clipPath id="clip3_120_434">
<rect width="244" height="37" fill="white" transform="translate(96 257)"/>
</clipPath>
</defs>
</svg>
